<svg xmlns="http://www.w3.org/2000/svg" xml:space="preserve" width="222.783" height="323.556" viewBox="0 0 167.087 242.667"><defs><filter id="b" width="1.147" height="1.101" x="-.074" y="-.051" style="color-interpolation-filters:sRGB"><feGaussianBlur in="SourceGraphic" result="result3" stdDeviation="4"/><feGaussianBlur in="SourceGraphic" result="result4" stdDeviation="1"/><feBlend in2="result3" mode="darken"/><feComponentTransfer result="result1"><feFuncR tableValues="0 0.2 0.4 0.6 0.8 1 1" type="discrete"/><feFuncG tableValues="0 0.2 0.4 0.6 0.8 1 1" type="discrete"/><feFuncB tableValues="0 0.2 0.4 0.6 0.8 1 1" type="discrete"/></feComponentTransfer><feTurbulence baseFrequency="1" numOctaves="7" result="result0" type="fractalNoise"/><feConvolveMatrix kernelMatrix="-2 0 -2 0 -10 0 -2 0 -2" order="3 3" result="result5"/><feColorMatrix in="result5" result="result4" type="saturate" values="0"/><feComposite in="result1" in2="result4" k1="1.5" k2=".5" k3=".5" operator="arithmetic" result="result2"/><feComposite in2="SourceGraphic" operator="in"/></filter><path id="a" d="M-104.481 27.747h73.104v109.754h-73.104z"/></defs><g style="fill-rule:nonzero;clip-rule:nonzero;stroke:#000;stroke-miterlimit:4"><path d="M166.837 235.548c0 3.777-3.087 6.869-6.871 6.869H7.11c-3.775 0-6.861-3.092-6.861-6.87V7.12C.25 3.343 3.336.25 7.11.25h152.856c3.784 0 6.87 3.093 6.87 6.87z" style="fill:#fff;stroke-width:.5"/></g><path d="M50.291 22.698s2.375-1.9 2.375-4.534c0-1.542-1.369-4.102-4.534-4.102s-4.534 2.561-4.534 4.102c0 2.634 2.375 4.534 2.375 4.534-2.638-2.055-7.34-.652-7.34 3.455 0 2.056 1.68 4.318 4.317 4.318 3.165 0 4.534-3.455 4.534-3.455s.402 3.938-1.943 6.046h5.182c-2.345-2.107-1.943-6.046-1.943-6.046s1.37 3.455 4.534 3.455c2.64 0 4.318-2.263 4.318-4.318 0-4.107-4.703-5.51-7.34-3.455" style="fill:green" transform="translate(-44.957 -33.937)scale(3.36871)"/><g style="fill:green"><path d="M50.291 22.698s2.375-1.9 2.375-4.534c0-1.542-1.369-4.102-4.534-4.102s-4.534 2.561-4.534 4.102c0 2.634 2.375 4.534 2.375 4.534-2.638-2.055-7.34-.652-7.34 3.455 0 2.056 1.68 4.318 4.317 4.318 3.165 0 4.534-3.455 4.534-3.455s.402 3.938-1.943 6.046h5.182c-2.345-2.107-1.943-6.046-1.943-6.046s1.37 3.455 4.534 3.455c2.64 0 4.318-2.263 4.318-4.318 0-4.107-4.703-5.51-7.34-3.455" style="fill:green" transform="translate(16.915 94.216)scale(1.38428)"/><g style="fill:green"><path d="M49.733 16.746s1.49-1.192 1.49-2.843c0-.967-.859-2.572-2.843-2.572-1.985 0-2.843 1.606-2.843 2.572 0 1.651 1.49 2.843 1.49 2.843-1.655-1.289-4.604-.41-4.604 2.166 0 1.289 1.054 2.707 2.708 2.707 1.984 0 2.843-2.166 2.843-2.166s.252 2.469-1.219 3.79h3.25c-1.471-1.32-1.219-3.79-1.219-3.79s.858 2.166 2.843 2.166c1.654 0 2.707-1.419 2.707-2.707 0-2.575-2.949-3.455-4.603-2.166" style="fill:green;stroke-width:.626981" transform="rotate(180 95.192 117.871)scale(2.20785)"/></g></g><g style="fill:green"><path d="M-26.845 90.822v129.995H103.15V90.822Zm2.3 2.3H100.85v125.396H-24.546Z" style="color:#000;fill:green;stroke-width:.811363;-inkscape-stroke:none" transform="translate(45.39 6.384)"/></g><g style="font-size:85.3333px;font-family:blings;-inkscape-font-specification:blings;white-space:pre;shape-inside:url(#a);display:inline;stroke:#000;stroke-width:3.77953"><path stroke="none" d="M-74.87 106.681h-26.197v-4.522q0-8.875 2.304-13.995 2.56-5.461 8.79-11.008 5.205-4.693 7.253-8.79 1.877-4.01 1.877-7.509.17-7.936-6.315-8.448-6.23.512-6.23 8.363 0 1.45.428 3.328l-6.144 2.39q-1.024-2.817-1.024-5.547 0-6.23 3.498-10.411 3.414-4.352 9.387-4.352 6.827 0 10.155 4.267 3.157 4.01 3.157 10.24.085 4.693-2.475 9.642-2.816 5.462-8.618 10.923-5.462 5.12-7.34 8.79-1.962 4.01-1.876 10.154h12.97v-8.448h6.4zv-.085z" aria-label="b" style="font-family:NumbersDeuce;-inkscape-font-specification:NumbersDeuce;stroke:none;fill:green" transform="translate(127.244 -35.42)scale(1.05792)"/></g><g style="clip-rule:nonzero;opacity:.198728;fill:#b3b3b3;fill-opacity:1;fill-rule:nonzero;stroke:#000;stroke-miterlimit:4;filter:url(#b)" transform="translate(0 .616)"><path d="M166.837 235.548c0 3.777-3.087 6.869-6.871 6.869H7.11c-3.775 0-6.861-3.092-6.861-6.87V7.12C.25 3.343 3.336.25 7.11.25h152.856c3.784 0 6.87 3.093 6.87 6.87z" style="fill:#b3b3b3;fill-opacity:1;stroke-width:.5"/></g></svg>