<svg xmlns="http://www.w3.org/2000/svg" xml:space="preserve" width="222.783" height="323.556" viewBox="0 0 167.087 242.667"><defs><filter id="a" width="1.147" height="1.101" x="-.074" y="-.051" style="color-interpolation-filters:sRGB"><feGaussianBlur in="SourceGraphic" result="result3" stdDeviation="4"/><feGaussianBlur in="SourceGraphic" result="result4" stdDeviation="1"/><feBlend in2="result3" mode="darken"/><feComponentTransfer result="result1"><feFuncR tableValues="0 0.2 0.4 0.6 0.8 1 1" type="discrete"/><feFuncG tableValues="0 0.2 0.4 0.6 0.8 1 1" type="discrete"/><feFuncB tableValues="0 0.2 0.4 0.6 0.8 1 1" type="discrete"/></feComponentTransfer><feTurbulence baseFrequency="1" numOctaves="7" result="result0" type="fractalNoise"/><feConvolveMatrix kernelMatrix="-2 0 -2 0 -10 0 -2 0 -2" order="3 3" result="result5"/><feColorMatrix in="result5" result="result4" type="saturate" values="0"/><feComposite in="result1" in2="result4" k1="1.5" k2=".5" k3=".5" operator="arithmetic" result="result2"/><feComposite in2="SourceGraphic" operator="in"/></filter></defs><g style="fill-rule:nonzero;clip-rule:nonzero;stroke:#000;stroke-miterlimit:4"><path d="M166.837 235.548c0 3.777-3.087 6.869-6.871 6.869H7.11c-3.775 0-6.861-3.092-6.861-6.87V7.12C.25 3.343 3.336.25 7.11.25h152.856c3.784 0 6.87 3.093 6.87 6.87z" style="fill:#fff;stroke-width:.5"/></g><path d="M7.989 3.103C7.747-.954.242-8.59 0-10.5-.242-8.591-7.747-.955-7.989 3.103c-.169 2.868 1.695 4.057 3.39 4.057 1.835-.022 3.35-2.8 3.873-3.341.242.716-1.603 6.682-2.179 6.682h5.811c-.576 0-2.421-5.966-2.179-6.682.457.496 1.797 3.258 3.874 3.341 1.694-.001 3.557-1.189 3.388-4.057" style="fill:#000" transform="matrix(3.53993 0 0 3.2366 121.48 45.436)"/><path d="M7.989 3.103C7.747-.954.242-8.59 0-10.5-.242-8.591-7.747-.955-7.989 3.103c-.169 2.868 1.695 4.057 3.39 4.057 1.835-.022 3.35-2.8 3.873-3.341.242.716-1.603 6.682-2.179 6.682h5.811c-.576 0-2.421-5.966-2.179-6.682.457.496 1.797 3.258 3.874 3.341 1.694-.001 3.557-1.189 3.388-4.057" style="fill:#000" transform="matrix(1.43081 0 0 1.30821 83.544 127.521)"/><path d="M7.989 3.103C7.747-.954.242-8.59 0-10.5-.242-8.591-7.747-.955-7.989 3.103c-.169 2.868 1.695 4.057 3.39 4.057 1.835-.022 3.35-2.8 3.873-3.341.242.716-1.603 6.682-2.179 6.682h5.811c-.576 0-2.421-5.966-2.179-6.682.457.496 1.797 3.258 3.874 3.341 1.694-.001 3.557-1.189 3.388-4.057" style="fill:#000" transform="matrix(-1.43081 0 0 -1.30821 83.568 196.886)"/><path d="M-26.845 90.822v129.995H103.15V90.822Zm2.3 2.3H100.85v125.396H-24.546Z" style="color:#000;fill:#000;stroke-width:.811363;-inkscape-stroke:none" transform="translate(45.39 6.384)"/><g style="font-size:85.3333px;font-family:blings;-inkscape-font-specification:blings;white-space:pre;shape-inside:url(#rect2735);display:inline;stroke:#000;stroke-width:3.77953"><path stroke="none" d="M-74.87 106.681h-26.197v-4.522q0-8.875 2.304-13.995 2.56-5.461 8.79-11.008 5.205-4.693 7.253-8.79 1.877-4.01 1.877-7.509.17-7.936-6.315-8.448-6.23.512-6.23 8.363 0 1.45.428 3.328l-6.144 2.39q-1.024-2.817-1.024-5.547 0-6.23 3.498-10.411 3.414-4.352 9.387-4.352 6.827 0 10.155 4.267 3.157 4.01 3.157 10.24.085 4.693-2.475 9.642-2.816 5.462-8.618 10.923-5.462 5.12-7.34 8.79-1.962 4.01-1.876 10.154h12.97v-8.448h6.4zv-.085z" aria-label="b" style="font-family:NumbersDeuce;-inkscape-font-specification:NumbersDeuce;stroke:none" transform="translate(127.244 -35.42)scale(1.05792)"/></g><g style="clip-rule:nonzero;opacity:.198728;fill:#b3b3b3;fill-opacity:1;fill-rule:nonzero;stroke:#000;stroke-miterlimit:4;filter:url(#a)" transform="translate(0 .616)"><path d="M166.837 235.548c0 3.777-3.087 6.869-6.871 6.869H7.11c-3.775 0-6.861-3.092-6.861-6.87V7.12C.25 3.343 3.336.25 7.11.25h152.856c3.784 0 6.87 3.093 6.87 6.87z" style="fill:#b3b3b3;fill-opacity:1;stroke-width:.5"/></g></svg>