<svg xmlns="http://www.w3.org/2000/svg" xml:space="preserve" width="222.783" height="323.556" viewBox="0 0 167.087 242.667"><defs><filter id="a" width="1.147" height="1.101" x="-.074" y="-.051" style="color-interpolation-filters:sRGB"><feGaussianBlur in="SourceGraphic" result="result3" stdDeviation="4"/><feGaussianBlur in="SourceGraphic" result="result4" stdDeviation="1"/><feBlend in2="result3" mode="darken"/><feComponentTransfer result="result1"><feFuncR tableValues="0 0.2 0.4 0.6 0.8 1 1" type="discrete"/><feFuncG tableValues="0 0.2 0.4 0.6 0.8 1 1" type="discrete"/><feFuncB tableValues="0 0.2 0.4 0.6 0.8 1 1" type="discrete"/></feComponentTransfer><feTurbulence baseFrequency="1" numOctaves="7" result="result0" type="fractalNoise"/><feConvolveMatrix kernelMatrix="-2 0 -2 0 -10 0 -2 0 -2" order="3 3" result="result5"/><feColorMatrix in="result5" result="result4" type="saturate" values="0"/><feComposite in="result1" in2="result4" k1="1.5" k2=".5" k3=".5" operator="arithmetic" result="result2"/><feComposite in2="SourceGraphic" operator="in"/></filter></defs><g style="fill-rule:nonzero;clip-rule:nonzero;stroke:#000;stroke-miterlimit:4"><path d="M166.837 235.548c0 3.777-3.087 6.869-6.871 6.869H7.11c-3.775 0-6.861-3.092-6.861-6.87V7.12C.25 3.343 3.336.25 7.11.25h152.856c3.784 0 6.87 3.093 6.87 6.87z" style="fill:#fff;stroke-width:.5"/></g><g style="fill:navy"><path d="M3.243-4.725C1.126-7.59 0-10.5 0-10.5s-1.126 2.91-3.243 5.775C-5.361-1.862-8 0-8 0s2.639 1.861 4.757 4.726C-1.126 7.59 0 10.5 0 10.5s1.126-2.91 3.243-5.774C5.361 1.861 8 0 8 0S5.361-1.862 3.243-4.725" style="fill:navy" transform="translate(98.01 198.62)scale(1.30653)"/><path d="M3.243-4.725C1.126-7.59 0-10.5 0-10.5s-1.126 2.91-3.243 5.775C-5.361-1.862-8 0-8 0s2.639 1.861 4.757 4.726C-1.126 7.59 0 10.5 0 10.5s1.126-2.91 3.243-5.774C5.361 1.861 8 0 8 0S5.361-1.862 3.243-4.725" style="fill:navy" transform="translate(98.01 125.728)scale(1.30653)"/><path d="M3.243-4.725C1.126-7.59 0-10.5 0-10.5s-1.126 2.91-3.243 5.775C-5.361-1.862-8 0-8 0s2.639 1.861 4.757 4.726C-1.126 7.59 0 10.5 0 10.5s1.126-2.91 3.243-5.774C5.361 1.861 8 0 8 0S5.361-1.862 3.243-4.725" style="fill:navy" transform="translate(98.01 161.72)scale(1.30653)"/><path d="M3.243-4.725C1.126-7.59 0-10.5 0-10.5s-1.126 2.91-3.243 5.775C-5.361-1.862-8 0-8 0s2.639 1.861 4.757 4.726C-1.126 7.59 0 10.5 0 10.5s1.126-2.91 3.243-5.774C5.361 1.861 8 0 8 0S5.361-1.862 3.243-4.725" style="fill:navy" transform="translate(69.078 198.68)scale(1.30653)"/><path d="M3.243-4.725C1.126-7.59 0-10.5 0-10.5s-1.126 2.91-3.243 5.775C-5.361-1.862-8 0-8 0s2.639 1.861 4.757 4.726C-1.126 7.59 0 10.5 0 10.5s1.126-2.91 3.243-5.774C5.361 1.861 8 0 8 0S5.361-1.862 3.243-4.725" style="fill:navy" transform="translate(69.078 125.787)scale(1.30653)"/><path d="M3.243-4.725C1.126-7.59 0-10.5 0-10.5s-1.126 2.91-3.243 5.775C-5.361-1.862-8 0-8 0s2.639 1.861 4.757 4.726C-1.126 7.59 0 10.5 0 10.5s1.126-2.91 3.243-5.774C5.361 1.861 8 0 8 0S5.361-1.862 3.243-4.725" style="fill:navy" transform="translate(69.078 161.779)scale(1.30653)"/><path d="M3.243-4.725C1.126-7.59 0-10.5 0-10.5s-1.126 2.91-3.243 5.775C-5.361-1.862-8 0-8 0s2.639 1.861 4.757 4.726C-1.126 7.59 0 10.5 0 10.5s1.126-2.91 3.243-5.774C5.361 1.861 8 0 8 0S5.361-1.862 3.243-4.725" style="fill:navy" transform="translate(83.615 144.06)scale(1.30653)"/></g><g style="fill:navy"><path d="M-26.845 90.822v129.995H103.15V90.822Zm2.3 2.3H100.85v125.396H-24.546Z" style="color:#000;fill:navy;stroke-width:.811363;-inkscape-stroke:none" transform="translate(45.39 6.384)"/></g><g style="font-size:64px;font-family:NumbersDeuce;-inkscape-font-specification:NumbersDeuce;fill:navy;stroke-width:2.83465"><path d="M-92.027 127.375h-10.496v5.824h-4.736v-10.624h19.136l1.984 3.648q-4.224 7.104-6.784 16.832-2.624 9.984-3.264 24.32h-5.056q.768-13.312 3.328-23.296 2.56-10.048 5.888-16.704v-.064z" aria-label="g" style="fill:navy" transform="translate(172.82 -161.67)scale(1.42857)"/></g><path d="M3.243-4.725C1.126-7.59 0-10.5 0-10.5s-1.126 2.91-3.243 5.775C-5.361-1.862-8 0-8 0s2.639 1.861 4.757 4.726C-1.126 7.59 0 10.5 0 10.5s1.126-2.91 3.243-5.774C5.361 1.861 8 0 8 0S5.361-1.862 3.243-4.725" style="fill:navy" transform="translate(124.296 45.438)scale(3.23036)"/><g style="clip-rule:nonzero;opacity:.198728;fill:#b3b3b3;fill-opacity:1;fill-rule:nonzero;stroke:#000;stroke-miterlimit:4;filter:url(#a)" transform="translate(0 .616)"><path d="M166.837 235.548c0 3.777-3.087 6.869-6.871 6.869H7.11c-3.775 0-6.861-3.092-6.861-6.87V7.12C.25 3.343 3.336.25 7.11.25h152.856c3.784 0 6.87 3.093 6.87 6.87z" style="fill:#b3b3b3;fill-opacity:1;stroke-width:.5"/></g></svg>