<svg xmlns="http://www.w3.org/2000/svg" xml:space="preserve" width="222.783" height="323.556" viewBox="0 0 167.087 242.667"><defs><filter id="a" width="1.147" height="1.101" x="-.074" y="-.051" style="color-interpolation-filters:sRGB"><feGaussianBlur in="SourceGraphic" result="result3" stdDeviation="4"/><feGaussianBlur in="SourceGraphic" result="result4" stdDeviation="1"/><feBlend in2="result3" mode="darken"/><feComponentTransfer result="result1"><feFuncR tableValues="0 0.2 0.4 0.6 0.8 1 1" type="discrete"/><feFuncG tableValues="0 0.2 0.4 0.6 0.8 1 1" type="discrete"/><feFuncB tableValues="0 0.2 0.4 0.6 0.8 1 1" type="discrete"/></feComponentTransfer><feTurbulence baseFrequency="1" numOctaves="7" result="result0" type="fractalNoise"/><feConvolveMatrix kernelMatrix="-2 0 -2 0 -10 0 -2 0 -2" order="3 3" result="result5"/><feColorMatrix in="result5" result="result4" type="saturate" values="0"/><feComposite in="result1" in2="result4" k1="1.5" k2=".5" k3=".5" operator="arithmetic" result="result2"/><feComposite in2="SourceGraphic" operator="in"/></filter></defs><g style="fill-rule:nonzero;clip-rule:nonzero;stroke:#000;stroke-miterlimit:4"><path d="M166.837 235.548c0 3.777-3.087 6.869-6.871 6.869H7.11c-3.775 0-6.861-3.092-6.861-6.87V7.12C.25 3.343 3.336.25 7.11.25h152.856c3.784 0 6.87 3.093 6.87 6.87z" style="fill:#fff;stroke-width:.5"/></g><g style="fill:#000"><path d="M75.771 52.08c-.64-9.824-20.52-28.317-21.16-32.942-.641 4.623-20.52 23.115-21.16 32.943-.448 6.945 4.49 9.824 8.979 9.824 4.86-.052 8.875-6.782 10.258-8.09.64 1.733-4.246 16.181-5.772 16.181h15.392c-1.526 0-6.413-14.448-5.772-16.181 1.211 1.201 4.76 7.89 10.261 8.09 4.487-.002 9.422-2.879 8.974-9.824M33.496 191.057c.64 9.825 20.52 28.317 21.16 32.942.641-4.623 20.52-23.115 21.16-32.942.448-6.946-4.49-9.825-8.979-9.825-4.86.052-8.875 6.782-10.258 8.09-.64-1.733 4.246-16.181 5.772-16.181H46.959c1.526 0 6.413 14.448 5.772 16.182-1.211-1.202-4.76-7.89-10.261-8.091-4.487.002-9.422 2.88-8.974 9.825m42.359-64.475c-.641-9.825-20.52-28.317-21.16-32.943-.641 4.623-20.52 23.116-21.16 32.943-.448 6.945 4.489 9.825 8.978 9.825 4.861-.052 8.876-6.783 10.259-8.091.64 1.734-4.246 16.182-5.772 16.182h15.392c-1.526 0-6.413-14.448-5.772-16.182 1.211 1.202 4.76 7.89 10.261 8.09 4.487-.001 9.422-2.879 8.974-9.824m57.803-74.701c-.64-9.824-20.52-28.317-21.16-32.942-.641 4.623-20.52 23.115-21.16 32.942-.448 6.946 4.489 9.825 8.979 9.825 4.86-.052 8.875-6.782 10.258-8.09.64 1.733-4.246 16.181-5.772 16.181h15.392c-1.526 0-6.413-14.448-5.772-16.182 1.211 1.202 4.76 7.89 10.261 8.091 4.487-.002 9.422-2.879 8.974-9.825M91.383 190.858c.64 9.825 20.52 28.317 21.16 32.942.641-4.623 20.52-23.115 21.16-32.942.448-6.946-4.49-9.825-8.979-9.825-4.86.052-8.875 6.782-10.258 8.09-.641-1.733 4.246-16.181 5.771-16.181h-15.391c1.526 0 6.412 14.448 5.771 16.182-1.21-1.202-4.76-7.89-10.26-8.091-4.487.002-9.422 2.88-8.974 9.825m42.359-64.475c-.641-9.825-20.52-28.317-21.16-32.943-.641 4.623-20.52 23.115-21.16 32.943-.448 6.945 4.489 9.825 8.978 9.825 4.861-.053 8.876-6.783 10.259-8.091.64 1.734-4.246 16.182-5.772 16.182h15.392c-1.526 0-6.413-14.448-5.772-16.182 1.211 1.202 4.76 7.89 10.261 8.09 4.487-.001 9.422-2.879 8.974-9.824m-29.087-34.93c-.641-9.825-20.52-28.318-21.16-32.943-.641 4.623-20.52 23.115-21.16 32.943-.448 6.945 4.489 9.824 8.978 9.824 4.861-.052 8.876-6.782 10.259-8.09.64 1.733-4.246 16.181-5.772 16.181h15.392c-1.526 0-6.413-14.448-5.772-16.182 1.211 1.202 4.76 7.89 10.261 8.091 4.487-.002 9.422-2.879 8.974-9.824" style="fill:#000;stroke-width:2.53266" transform="translate(41.79 101.533)scale(.49947)"/></g><g style="fill:#000"><path d="M-26.845 90.822v129.995H103.15V90.822Zm2.3 2.3H100.85v125.396H-24.546Z" style="color:#000;fill:#000;stroke-width:.811363;-inkscape-stroke:none" transform="translate(45.39 6.384)"/></g><g style="font-size:64px;font-family:NumbersDeuce;-inkscape-font-specification:NumbersDeuce;fill:#000;stroke-width:2.83465"><path d="M-92.027 127.375h-10.496v5.824h-4.736v-10.624h19.136l1.984 3.648q-4.224 7.104-6.784 16.832-2.624 9.984-3.264 24.32h-5.056q.768-13.312 3.328-23.296 2.56-10.048 5.888-16.704v-.064z" aria-label="g" style="fill:#000" transform="translate(172.82 -161.67)scale(1.42857)"/></g><path d="M7.989 3.103C7.747-.954.242-8.59 0-10.5-.242-8.591-7.747-.955-7.989 3.103c-.169 2.868 1.695 4.057 3.39 4.057 1.835-.022 3.35-2.8 3.873-3.341.242.716-1.603 6.682-2.179 6.682h5.811c-.576 0-2.421-5.966-2.179-6.682.457.496 1.797 3.258 3.874 3.341 1.694-.001 3.557-1.189 3.388-4.057" style="fill:#000" transform="matrix(3.53993 0 0 3.2366 121.48 45.436)"/><g style="clip-rule:nonzero;opacity:.198728;fill:#b3b3b3;fill-opacity:1;fill-rule:nonzero;stroke:#000;stroke-miterlimit:4;filter:url(#a)" transform="translate(0 .616)"><path d="M166.837 235.548c0 3.777-3.087 6.869-6.871 6.869H7.11c-3.775 0-6.861-3.092-6.861-6.87V7.12C.25 3.343 3.336.25 7.11.25h152.856c3.784 0 6.87 3.093 6.87 6.87z" style="fill:#b3b3b3;fill-opacity:1;stroke-width:.5"/></g></svg>