<svg xmlns="http://www.w3.org/2000/svg" xml:space="preserve" width="222.783" height="323.556" viewBox="0 0 167.087 242.667"><defs><filter id="a" width="1.147" height="1.101" x="-.074" y="-.051" style="color-interpolation-filters:sRGB"><feGaussianBlur in="SourceGraphic" result="result3" stdDeviation="4"/><feGaussianBlur in="SourceGraphic" result="result4" stdDeviation="1"/><feBlend in2="result3" mode="darken"/><feComponentTransfer result="result1"><feFuncR tableValues="0 0.2 0.4 0.6 0.8 1 1" type="discrete"/><feFuncG tableValues="0 0.2 0.4 0.6 0.8 1 1" type="discrete"/><feFuncB tableValues="0 0.2 0.4 0.6 0.8 1 1" type="discrete"/></feComponentTransfer><feTurbulence baseFrequency="1" numOctaves="7" result="result0" type="fractalNoise"/><feConvolveMatrix kernelMatrix="-2 0 -2 0 -10 0 -2 0 -2" order="3 3" result="result5"/><feColorMatrix in="result5" result="result4" type="saturate" values="0"/><feComposite in="result1" in2="result4" k1="1.5" k2=".5" k3=".5" operator="arithmetic" result="result2"/><feComposite in2="SourceGraphic" operator="in"/></filter></defs><g style="fill-rule:nonzero;clip-rule:nonzero;stroke:#000;stroke-miterlimit:4"><path d="M166.837 235.548c0 3.777-3.087 6.869-6.871 6.869H7.11c-3.775 0-6.861-3.092-6.861-6.87V7.12C.25 3.343 3.336.25 7.11.25h152.856c3.784 0 6.87 3.093 6.87 6.87z" style="fill:#fff;stroke-width:.5"/></g><g style="fill:green"><path d="M62.373 29.9s5.967-4.774 5.967-11.392C68.34 14.634 64.9 8.2 56.948 8.2s-11.392 6.435-11.392 10.307c0 6.618 5.968 11.392 5.968 11.392-6.629-5.163-18.445-1.638-18.445 8.68 0 5.167 4.22 10.85 10.849 10.85 7.952 0 11.392-8.68 11.392-8.68s1.01 9.894-4.882 15.19h13.02c-5.892-5.294-4.882-15.19-4.882-15.19s3.44 8.68 11.392 8.68c6.631 0 10.85-5.686 10.85-10.85 0-10.318-11.817-13.843-18.445-8.68M51.568 212.244s-5.967 4.774-5.967 11.392c0 3.875 3.44 10.307 11.392 10.307s11.392-6.435 11.392-10.307c0-6.618-5.967-11.392-5.967-11.392 6.628 5.163 18.444 1.638 18.444-8.68 0-5.167-4.22-10.85-10.849-10.85-7.952 0-11.392 8.68-11.392 8.68s-1.01-9.894 4.882-15.19h-13.02c5.892 5.294 4.882 15.19 4.882 15.19s-3.44-8.68-11.392-8.68c-6.63 0-10.85 5.686-10.85 10.85 0 10.318 11.817 13.843 18.445 8.68M62.373 120.4s5.967-4.773 5.967-11.391c0-3.875-3.44-10.307-11.392-10.307s-11.392 6.435-11.392 10.307c0 6.618 5.968 11.392 5.968 11.392-6.629-5.164-18.445-1.638-18.445 8.68 0 5.167 4.22 10.85 10.849 10.85 7.952 0 11.392-8.68 11.392-8.68s1.01 9.894-4.882 15.19h13.02c-5.892-5.294-4.882-15.19-4.882-15.19s3.44 8.68 11.392 8.68c6.631 0 10.85-5.686 10.85-10.85 0-10.318-11.817-13.844-18.445-8.68m52.785-90.675s5.967-4.774 5.967-11.392c0-3.874-3.44-10.306-11.392-10.306s-11.392 6.434-11.392 10.306c0 6.618 5.968 11.392 5.968 11.392-6.629-5.163-18.445-1.638-18.445 8.681 0 5.166 4.22 10.85 10.85 10.85 7.951 0 11.391-8.681 11.391-8.681s1.01 9.894-4.882 15.19h13.02c-5.892-5.293-4.882-15.19-4.882-15.19s3.44 8.68 11.392 8.68c6.631 0 10.85-5.685 10.85-10.849 0-10.319-11.817-13.844-18.445-8.68M104.353 212.07s-5.967 4.774-5.967 11.392c0 3.875 3.44 10.307 11.392 10.307s11.392-6.435 11.392-10.307c0-6.618-5.967-11.392-5.967-11.392 6.628 5.164 18.445 1.639 18.445-8.68 0-5.166-4.222-10.85-10.85-10.85-7.952 0-11.392 8.681-11.392 8.681s-1.01-9.894 4.882-15.191h-13.02c5.892 5.294 4.882 15.191 4.882 15.191s-3.44-8.68-11.392-8.68c-6.63 0-10.85 5.685-10.85 10.848 0 10.32 11.817 13.845 18.445 8.681m10.805-91.843s5.967-4.774 5.967-11.392c0-3.874-3.44-10.307-11.392-10.307s-11.392 6.435-11.392 10.307c0 6.618 5.968 11.392 5.968 11.392-6.629-5.163-18.445-1.638-18.445 8.681 0 5.166 4.22 10.85 10.85 10.85 7.951 0 11.391-8.682 11.391-8.682s1.01 9.895-4.882 15.191h13.02c-5.892-5.294-4.882-15.19-4.882-15.19s3.44 8.68 11.392 8.68c6.631 0 10.85-5.686 10.85-10.849 0-10.32-11.817-13.844-18.445-8.681M88.306 75.653s5.967-4.773 5.967-11.392c0-3.874-3.44-10.306-11.392-10.306S71.489 60.39 71.489 64.26c0 6.619 5.967 11.392 5.967 11.392-6.628-5.163-18.445-1.638-18.445 8.681 0 5.166 4.222 10.85 10.85 10.85 7.952 0 11.392-8.681 11.392-8.681s1.01 9.894-4.882 15.19h13.02c-5.892-5.293-4.882-15.19-4.882-15.19s3.44 8.68 11.392 8.68c6.63 0 10.85-5.685 10.85-10.849 0-10.319-11.817-13.844-18.445-8.68" style="fill:green;stroke-width:2.51258" transform="translate(44.538 105.594)scale(.4679)"/></g><path d="M50.291 22.698s2.375-1.9 2.375-4.534c0-1.542-1.369-4.102-4.534-4.102s-4.534 2.561-4.534 4.102c0 2.634 2.375 4.534 2.375 4.534-2.638-2.055-7.34-.652-7.34 3.455 0 2.056 1.68 4.318 4.317 4.318 3.165 0 4.534-3.455 4.534-3.455s.402 3.938-1.943 6.046h5.182c-2.345-2.107-1.943-6.046-1.943-6.046s1.37 3.455 4.534 3.455c2.64 0 4.318-2.263 4.318-4.318 0-4.107-4.703-5.51-7.34-3.455" style="fill:green" transform="translate(-44.957 -33.937)scale(3.36871)"/><g style="fill:green"><path d="M-26.845 90.822v129.995H103.15V90.822Zm2.3 2.3H100.85v125.396H-24.546Z" style="color:#000;fill:green;stroke-width:.811363;-inkscape-stroke:none" transform="translate(45.39 6.384)"/></g><g style="font-size:64px;font-family:NumbersDeuce;-inkscape-font-specification:NumbersDeuce;fill:green;stroke-width:2.83465"><path d="M-92.027 127.375h-10.496v5.824h-4.736v-10.624h19.136l1.984 3.648q-4.224 7.104-6.784 16.832-2.624 9.984-3.264 24.32h-5.056q.768-13.312 3.328-23.296 2.56-10.048 5.888-16.704v-.064z" aria-label="g" style="fill:green" transform="translate(172.82 -161.67)scale(1.42857)"/></g><g style="clip-rule:nonzero;opacity:.198728;fill:#b3b3b3;fill-opacity:1;fill-rule:nonzero;stroke:#000;stroke-miterlimit:4;filter:url(#a)" transform="translate(0 .616)"><path d="M166.837 235.548c0 3.777-3.087 6.869-6.871 6.869H7.11c-3.775 0-6.861-3.092-6.861-6.87V7.12C.25 3.343 3.336.25 7.11.25h152.856c3.784 0 6.87 3.093 6.87 6.87z" style="fill:#b3b3b3;fill-opacity:1;stroke-width:.5"/></g></svg>