<svg xmlns="http://www.w3.org/2000/svg" xml:space="preserve" width="222.783" height="323.556" viewBox="0 0 167.087 242.667"><defs><filter id="a" width="1.147" height="1.101" x="-.074" y="-.051" style="color-interpolation-filters:sRGB"><feGaussianBlur in="SourceGraphic" result="result3" stdDeviation="4"/><feGaussianBlur in="SourceGraphic" result="result4" stdDeviation="1"/><feBlend in2="result3" mode="darken"/><feComponentTransfer result="result1"><feFuncR tableValues="0 0.2 0.4 0.6 0.8 1 1" type="discrete"/><feFuncG tableValues="0 0.2 0.4 0.6 0.8 1 1" type="discrete"/><feFuncB tableValues="0 0.2 0.4 0.6 0.8 1 1" type="discrete"/></feComponentTransfer><feTurbulence baseFrequency="1" numOctaves="7" result="result0" type="fractalNoise"/><feConvolveMatrix kernelMatrix="-2 0 -2 0 -10 0 -2 0 -2" order="3 3" result="result5"/><feColorMatrix in="result5" result="result4" type="saturate" values="0"/><feComposite in="result1" in2="result4" k1="1.5" k2=".5" k3=".5" operator="arithmetic" result="result2"/><feComposite in2="SourceGraphic" operator="in"/></filter></defs><g style="clip-rule:nonzero;fill-rule:nonzero;stroke:#000;stroke-miterlimit:4"><path d="M180.397 235.548c0 3.777-3.087 6.869-6.87 6.869H20.67c-3.775 0-6.86-3.092-6.86-6.87V7.12c0-3.777 3.085-6.87 6.86-6.87h152.855c3.784 0 6.871 3.093 6.871 6.87z" style="fill:#fff;stroke-width:.5" transform="translate(-13.56)"/><g style="stroke:none"><path d="M7.989 3.103C7.747-.954.242-8.59 0-10.5-.242-8.591-7.747-.955-7.989 3.103c-.169 2.868 1.695 4.057 3.39 4.057 1.835-.022 3.35-2.8 3.873-3.341.242.716-1.603 6.682-2.179 6.682h5.811c-.576 0-2.421-5.966-2.179-6.682.457.496 1.797 3.258 3.874 3.341 1.694-.001 3.557-1.189 3.388-4.057" style="fill:#000;stroke:none" transform="matrix(3.53993 0 0 3.2366 123.249 43.818)"/></g><g style="clip-rule:nonzero;opacity:.198728;fill:#b3b3b3;fill-opacity:1;fill-rule:nonzero;stroke:#000;stroke-miterlimit:4;filter:url(#a)" transform="translate(0 .616)"><path d="M166.837 235.548c0 3.777-3.087 6.869-6.871 6.869H7.11c-3.775 0-6.861-3.092-6.861-6.87V7.12C.25 3.343 3.336.25 7.11.25h152.856c3.784 0 6.87 3.093 6.87 6.87z" style="fill:#b3b3b3;fill-opacity:1;stroke-width:.5"/></g></g><path d="M7.989 3.103C7.747-.954.242-8.59 0-10.5-.242-8.591-7.747-.955-7.989 3.103c-.169 2.868 1.695 4.057 3.39 4.057 1.835-.022 3.35-2.8 3.873-3.341.242.716-1.603 6.682-2.179 6.682h5.811c-.576 0-2.421-5.966-2.179-6.682.457.496 1.797 3.258 3.874 3.341 1.694-.001 3.557-1.189 3.388-4.057" style="fill:#000" transform="matrix(2.1626 0 0 1.9773 40.678 121.333)"/><path d="m1841.8 630.15-98.057.255 1.341 2.456c2.536 4.624 17.314 29.995 24.357 41.821 3.869 6.496 11.982 20.671 18.024 31.497 6.042 10.825 12.22 21.814 13.734 24.42 2.176 3.747 2.654 5.602 2.273 8.856-.707 6.042-7.849 21.81-17.303 38.188-16.591 28.745-21.887 40.692-23.6 53.216-.914 6.686-.807 8.805.749 14.707l1.816 6.893-2.327 4.318c-1.28 2.372-3.834 6.043-5.676 8.161-3.028 3.481-3.948 3.919-9.592 4.547-3.433.382-7.607 1.276-9.28 1.99-4.652 1.985-10.58 8.294-13.434 14.306-2.212 4.659-2.57 6.777-2.592 15.218l-.018 9.805-20.506 8.49c-32.91 13.624-51.76 23.194-74.796 37.97-18.227 11.691-14.955 11.29-30.945 3.77-16.986-7.987-61.248-23.097-67.66-23.097-1.458 0-1.597 9.679-1.597 108.511v108.512l13.251 7.815c15.478 9.131 26.671 16.507 35.746 23.554 3.575 2.775 8.144 6.25 10.148 7.714 10.396 7.597 31.491 29.318 42.7 43.967 18.823 24.6 26.389 36.27 37.991 58.638 14.85 28.629 29.167 80.099 29.167 104.85 0 9.847.901 12.319 3.531 9.678.738-.74 7.592-11.534 15.232-23.983 20.03-32.64 32.243-51.892 34.23-53.964 1.681-1.751 1.894-1.742 6.872.365 3.033 1.285 5.13 2.803 5.13 3.707 0 1.433-9.587 16.945-29.012 46.934-4.558 7.037-9.655 15.014-11.325 17.72-14.81 23.995-22.918 34.846-26.794 38.152h14.793c-1.337-2.296-1.488-4.2 1.342-4.2 2.071 0 5.67 2.242 8.98 4.2h12.904c-1.48-6.185-1.677-12.295 1.177-12.836 2.08-.394 5.628 7.333 6.406 12.836h15.843c3.304-5.122 8.599-13.33 15.413-23.883 8.215-12.72 17.427-27.118 20.47-31.989 14.909-23.87 21.096-32.927 22.888-33.486 2.387-.746 7.92.337 7.92 1.552 0 1.648-23.904 39.844-46.048 73.582-2.645 4.029-5.91 9.194-9.117 14.224h6.808c4.774-7.502 10.225-16.08 12.274-19.263 3.068-4.765 6.928-10.78 8.578-13.366 1.65-2.585 5.738-8.868 9.08-13.968a37496 37496 0 0 0 14.949-22.823c4.877-7.452 9.32-13.4 9.874-13.22.554.182 1.862 2.388 2.911 4.903l1.908 4.574-5.595 8.645a5869 5869 0 0 0-15.03 23.408c-14.555 22.78-19.683 30.732-25.005 38.81-.322.489-1.066 1.723-1.442 2.3h16.098c1.484-2.295 2.808-4.33 4.317-6.665a6984 6984 0 0 1 17.193-26.493c6.439-9.837 8.473-13.108 13.707-21.975 1.997-3.382 4.125-6.153 4.718-6.153 1.724 0 14.82 9.908 14.82 11.211 0 .65-2.088 4.483-4.635 8.518a1493 1493 0 0 0-8.843 14.223c-2.3 3.754-10.358 16.191-17.485 27.334h96.57c.215-1.507.293-3.107 1.177-4.182 2.628-3.193 11.262-3.36 14.4-.273 1.002.984 1.173 2.781 1.452 4.455h106.526l.146-7.057 4.892-1.032c2.692-.568 5.544-1.032 6.333-1.032.178 0 .02 8.644.155 9.12h14.227c-1.167-1.946-3.399-5.25-3.531-5.769-1.407-5.517 1.8-9.993 5.183-7.23.956.78 3.017 4.22 4.581 7.65.7 1.534 2 3.409 3.103 5.35h22.623c.05-.705-.348-.401-.274-1.306 1.238-14.945-2.782-41.072-9.226-59.98-5.061-14.851-11.766-27.536-23.672-44.77-11.947-17.292-35.357-37.27-53.706-45.839-5.775-2.696-11.105-5.227-11.846-5.623-1.17-.626-4.09-7.211-4.134-9.312-.078-3.847 23.931 8.305 40.985 20.742 14.262 10.401 26.523 22.568 38.082 37.804 6.982 9.203 19.512 33.518 23.216 45.035 7.04 21.89 9.925 45.563 8.743 63.249h11.754c-2.795-2.299-5.05-5.305-5.521-9.413-.418-3.65-.045-4.769 2.866-8.48 6.4-8.163 14.748-8.743 22.696-1.571 3.359 3.031 3.654 3.74 3.604 8.545-.052 5.01-1.806 8.313-4.973 10.919h9.993c.49-30.483-2.067-49.82-11.052-77.17-4.297-13.083-17.272-39.129-25.041-50.267-28.228-40.469-74.517-75.35-113.864-85.798-5.5-1.46-10.683-3.013-11.508-3.45-1.856-.987-3.106-7.84-1.852-10.17 1.304-2.425 3.519-2.186 15.14 1.642 15.683 5.168 18.363 6.227 30.206 11.923 22.803 10.968 33.063 17.764 53.405 35.386 16.379 14.189 37.246 40.333 48.413 60.655 14.987 27.275 25.077 59.916 27.788 89.915.705 7.796-.032 16.485.018 27.334h52.766c0-.484.1-1.094.1-1.57.051-20.532-3.038-45.468-9.034-72.999-2.437-11.188-13.872-41.545-20.944-55.598-3.503-6.96-17.705-31.345-19.858-34.098-.907-1.16-5.523-7.136-10.267-13.283-9.628-12.477-25.507-29.638-35.673-38.554-23.501-20.61-57.66-41.415-84.204-51.288-15.009-5.583-29.728-10.166-39.716-12.37l-10.203-2.256-.666-4.327c-.363-2.38-.385-4.596-.055-4.92.75-.739 18.57 2.932 33.136 6.828 11.19 2.993 37.586 13.043 48.814 18.588 36.167 17.86 73.514 48.281 96.488 78.594 5.538 7.307 11.41 15.062 13.05 17.227 13.25 17.482 32.27 57.238 38.84 81.188 7.452 27.167 10.471 46.756 11.919 77.253.149 3.141-.554 7.416-.603 11.585h54.993v-103.573l-7.748-3.889c-12.303-6.163-27.479-15.711-43.102-27.132-39.195-28.655-78.54-78.403-100.412-126.953-7.635-16.95-16.98-45.927-20.314-62.984-.846-4.33-2.528-12.94-3.733-19.126-1.222-6.274-2.73-11.413-3.413-11.63-1.082-.346-4.659 4.723-22.732 32.226-2.312 3.518-8.87 13.652-14.565 22.513-13.526 21.04-12.812 20.243-17.23 19.427-1.981-.366-4.547-1.425-5.703-2.355l-2.109-1.69 3.395-5.413a9619 9619 0 0 0 13.196-21.162c8.911-14.321 23.299-37.086 28.93-45.765 1.228-1.895 7.589-11.736 14.135-21.874 6.547-10.139 12.424-18.44 13.06-18.45 1.342-.023 2.036 4.897 2.902 20.65.804 14.65 4.575 40.466 8.359 57.205 7.275 32.181 23.992 70.164 43.457 98.77 11.92 17.516 34.6 43.567 50.63 58.145 15.708 14.284 42.962 33.627 58.251 41.347l4.746 2.401-.01-8.627c-.01-4.745-.353-8.137-.758-7.541-.404.595-1.401 1.303-2.226 1.58-1.923.644-8.917-2.785-9.683-4.748-.773-1.983 1.274-5.605 6.279-11.12 5.854-6.45 6.397-7.888 6.397-16.77v-7.96l-4.654-3.178c-26.64-18.165-56.678-48.427-73.473-74.03-20.881-31.834-36.03-74.45-38.566-108.503-.562-7.551-.468-8.116 1.314-8.116 2.085 0 9.125 4.241 11.134 6.71.688.845 1.25 3.336 1.25 5.533 0 6.656 3.82 23.269 9.18 39.913 11.182 34.711 35.74 73.968 62.678 100.186 8.607 8.378 21.555 18.928 28.39 23.143l2.747 1.698v-19.208c0-10.567-.168-19.217-.374-19.217s-2.339.692-4.746 1.533c-7.974 2.788-15.596-.392-18.981-7.924-1.9-4.225-1.633-7.264 1.05-12.197.637-1.174 5.524-5.3 10.859-9.175 12.295-8.929 12.385-9.031 12.01-12.607l-.32-2.986-7.885 6.327c-4.341 3.48-10.65 7.95-14.008 9.933-5.452 3.219-6.68 3.565-11.517 3.204-4.504-.336-5.882-.917-8.15-3.414-3.944-4.345-4.655-9.97-1.961-15.447 1.906-3.875 4.018-5.552 18.836-14.954 16.739-10.622 21.692-12.617 21.692-8.755 0 1.325-2.82 3.829-8.998 7.997-17.315 11.682-20.574 14.226-21.592 16.862-2.261 5.854 1.704 9.974 8.405 8.737 2.943-.544 8.633-4.221 23.435-15.146l2.245-1.661v-43.63c0-35.506-.251-43.88-1.36-44.97-.749-.738-5.36-3.87-10.248-6.966-26.544-16.813-43.394-28.045-43.394-28.922 0-1.821 8.435-6.274 14.501-7.66 8.168-1.866 11.945-4.396 14.584-9.76 2.034-4.135 2.12-4.934.976-9.33l-1.25-4.81 3.723-4.054c3.718-4.05 3.72-4.067 3.176-11.056-.432-5.539-.119-8.159 1.497-12.607 2.528-6.962 1.841-11.718-2.273-15.767-2.71-2.666-2.88-3.26-2.309-8.043.824-6.892-1.106-10.5-7.081-13.265-4.423-2.046-4.536-2.218-4.536-6.637 0-3.94-.469-4.955-3.55-7.732l-3.55-3.195 5.01-3.168c16.722-10.56 24.767-29.885 19.183-46.076-2.066-5.99-11.434-22.465-19.292-33.934-4.521-6.598-4.807-5.583 5.046-17.967a13108 13108 0 0 0 11.097-13.968c2.23-2.81 4.052-5.984 4.052-7.057 0-1.072-1.525-3.925-3.395-6.335-6.762-8.719-19.602-27.6-19.602-28.83 0-.693 2.185-4.068 4.855-7.496 6.364-8.172 12.738-19.328 15.295-26.777 1.667-4.855 1.97-7.735 1.634-15.328-.372-8.38-.789-10.066-4.016-16.24-8.816-16.871-23.596-23.095-42.189-17.776-6.607 1.89-14.108 8.06-18.252 15.018-2.494 4.189-5.33 15.009-5.33 20.331 0 9.12 7.136 25.014 18.088 40.306 6.13 8.558 6.784 9.908 5.759 11.814-2.151 4-10.181 14.106-19.584 24.649-2.346 2.63-4.262 5.77-4.262 6.984s2.363 5.267 5.247 9.001c8.6 11.135 18.754 25.31 18.754 26.183 0 .449-3.735 6.235-8.304 12.855-8.54 12.37-15.21 26.48-16.336 34.563-.632 4.54 1.071 14.335 3.212 18.442 2.234 4.283 11.405 13.555 16.062 16.24 4.79 2.763 5.606 4.969 2.117 5.734-1.237.272-5.258 1.158-8.934 1.963s-12.445 4.242-19.484 7.641c-17.4 8.403-22.22 13.106-33.1 32.263-11.357 20-10.004 18.638-15.322 15.41-2.426-1.472-7.175-4.554-10.55-6.837-3.374-2.284-12.773-8.351-20.888-13.493s-17.502-11.233-20.862-13.53-7.458-4.895-9.108-5.779c-5.75-3.079-27.475-17.608-27.889-18.651-.229-.579-.043-3.015.411-5.414s.591-7.014.31-10.261c-.465-5.387-.225-6.328 2.656-10.727 2.838-4.334 3.082-5.313 2.473-9.668-.578-4.138-.366-5.172 1.451-7.076 3.124-3.272 3.966-7.354 3.35-16.213l-.548-7.906 3.45-3.241c1.895-1.781 5.978-5.093 9.08-7.368 4.317-3.166 5.925-5.076 6.853-8.125 1.52-4.994.74-7.775-6.78-23.992-17.754-38.279-17.976-39.2-12.147-51.334 3.092-6.436 3.335-7.702 3.678-19.145.353-11.783.476-12.374 3.249-15.739 2.595-3.15 21.701-29.849 27.505-38.434 1.28-1.895 4.504-6.546 7.164-10.335s11.063-15.972 18.68-27.068l13.854-20.167-97.574-.256c-53.665-.138-141.705-.138-195.641 0zm391.602 54.666c6.812.063 10.934 1.602 16.6 6.199 8.813 7.149 12.326 16.402 11.508 30.31-.404 6.86-1.047 9.107-4.59 16.094-2.267 4.468-5.825 10.375-7.913 13.128a3032 3032 0 0 1-7.045 9.258c-1.788 2.334-3.249 4.98-3.249 5.879 0 1.572 2.908 5.78 14.94 21.618 6.686 8.803 7.975 10.892 8.02 12.982.02.878-2.096 4.273-4.708 7.541-14.118 17.661-17.273 21.803-18.38 24.193-1.121 2.423-.811 3.193 3.97 9.933 6.495 9.155 14.848 23.332 16.82 28.547 4.368 11.56 4.18 18.74-.74 28.575-3.98 7.958-8.589 12.7-15.423 15.867-8.916 4.132-21.974 2.3-30.298-4.245-5.068-3.986-9.895-11.272-11.845-17.875-3.124-10.575 1.256-22.625 16.19-44.524 4.647-6.817 8.45-12.802 8.44-13.293s-5.402-7.973-11.99-16.633c-6.59-8.66-11.973-16.428-11.983-17.255-.012-1.79 1.906-4.65 7.556-11.284 6.796-7.979 17.43-22.379 17.43-23.6 0-.62-1.376-2.423-3.057-4.007-4.376-4.126-14.358-18.768-17.457-25.608-1.453-3.207-3.29-9.118-4.08-13.128-2.424-12.304-.163-21.289 7.484-29.78 5.07-5.631 14.049-8.982 23.8-8.892m-8.004 10.398c-6.177 2.54-12.299 9.318-14.172 15.685-1.615 5.486-1.604 5.948.365 12.297 2.187 7.052 9.617 19.679 15.614 26.53 2.014 2.3 4.522 4.181 5.567 4.181 3.638 0 15.572-20.58 18.042-31.113 1.453-6.193-.04-15.825-3.103-20.057-4.856-6.712-15.534-10.31-22.312-7.523m9.683 4.209c9.28 1.96 15.332 13.382 11.106 26.083-2.582 7.76-6.083 14.189-10.13 18.596-1.97 2.146-3.975 3.898-4.462 3.898-1.375 0-9.452-11.23-12.575-17.491-2.382-4.774-2.811-6.85-2.811-13.676 0-9.562 1.533-12.336 8.779-15.913 3.549-1.752 7-2.15 10.093-1.497m-285.942 19.482c4.194-1.036 71.689 1.452 81.942 3.022 13.17 2.016 22.305 4.337 24.767 6.3 1.807 1.44 2.034 2.852 2.154 13.401.129 11.346.01 12.042-3.094 18.587-4.784 10.105-5.048 15.045-1.35 24.97 1.67 4.48 4.442 10.68 6.16 13.776 5.665 10.213 14.994 31.041 14.994 33.477 0 1.5-1.378 3.634-3.696 5.724-4.211 3.796-6.378 4.314-5.585 1.333.31-1.167-.212-2.806-1.25-3.935-3.012-3.275-8.468-2.525-18.134 2.492-4.692 2.436-9.196 4.428-10.01 4.428s-2.792-1.293-4.4-2.876c-4.176-4.11-4.147-10.022.073-13.666 3.253-2.809 3.819-4.86 1.58-5.706-2.167-.818-6.688 2.585-8.214 6.18-3 7.067-1.077 15.618 4.572 20.295 3.98 3.296 9.844 3.506 18.47.667 3.249-1.07 7.435-1.945 9.31-1.945h3.403l-3.094 4.245c-2.735 3.749-3.064 4.925-2.856 10.106.274 6.834-.387 8.29-3.75 8.29-1.354 0-5.262 1.147-8.689 2.547-14.485 5.919-16.494 6.378-21.007 4.848-4.856-1.647-6.074-.995-7.803 4.163-1.042 3.106-.965 3.692.666 4.866 1.02.733 2.545 1.021 3.386.648 2.469-1.097 24.215-1.602 27.943-.648 5.408 1.382 5.982 3.313 2.811 9.476-2.36 4.587-2.728 6.468-2.728 14.068 0 11.312-1.63 14.588-9.108 18.323-3.057 1.527-8.425 3.108-12.393 3.642-20.023 2.698-34.303 1.596-59.5-4.592-15.446-3.793-35.837-15.893-48.113-28.538-7.17-7.385-13.89-15.934-13.89-17.684 0-.454 3.483-1.888 7.73-3.186 9.585-2.928 16.188-8.514 20.424-17.282 3.512-7.267 3.733-14.117.776-23.39-2.727-8.55-8.641-14.247-17.668-17.016-5.147-1.58-6.241-2.292-6.251-4.063-.014-3.442 5.222-16.295 13.753-33.77 8.889-18.209 19.648-43.564 23.7-55.853 1.255-3.808 2.297-5.31 3.97-5.724m-13.232.055c2.213.217 4.258.622 4.544.904 1.425 1.401-9.784 29.953-20.706 52.74a5452 5452 0 0 0-10.285 21.554c-3.518 7.461-7.748 19.404-7.748 21.874 0 .963-1.155 2.552-2.564 3.524a137 137 0 0 0-5.394 3.98c-5.43 4.247-6.056 2.859-3.404-7.567 2.362-9.284 9.367-26.056 17.276-41.393 3.768-7.307 8.228-16.61 9.91-20.669 4.328-10.44 9.703-24.402 11.18-29.031 1.815-5.691 2.633-6.362 7.19-5.916m-21.866 1.734c1.1-1.724 10.668-1.659 10.668.073 0 3.48-11.993 32.924-20.715 50.86-2.764 5.683-6.638 13.652-8.606 17.711-5.691 11.737-9.816 24.348-11.28 34.445-2.662 18.373-1.505 26.23 4.782 32.419 4.763 4.686 9.408 6.349 16.016 5.724 5.54-.524 9.17-2.745 12.64-7.724 1.982-2.845 2.28-4.297 1.952-9.54-.332-5.31-.815-6.6-3.43-9.175-2.045-2.012-4.396-3.169-7.156-3.533-3.616-.477-4.471-.185-7.154 2.456-3.323 3.27-3.91 5.84-1.533 6.737.924.35 2.324-.432 3.577-2 2.572-3.217 5.288-3.267 8.45-.154 2.923 2.876 3.386 9.618.895 13.119-1.832 2.574-7.51 5.13-11.408 5.13-6.43 0-13.18-7.92-13.387-15.711-.196-7.331 9.311-16.558 18.06-17.529 10.079-1.118 17.479 3.705 20.807 13.567 4.12 12.21-2.353 26.282-14.4 31.313-5.906 2.466-11.502 3.164-16.847 2.1-5.238-1.043-6.067-1.497-11.18-6.162-7.366-6.722-7.583-7.36-7.583-22.796 0-12.65-.2-14.216-2.427-18.633-2.428-4.817-2.43-4.83-.64-9.842.987-2.76 4.71-10.997 8.269-18.304 6.154-12.633 8.674-18.055 18.206-39.156 2.27-5.024 6.043-14.762 8.387-21.646 2.343-6.884 4.606-13.072 5.037-13.749m-16.052.548c2.117-1.324 8.744-.91 9.326.585 1.407 3.608-11.667 36.253-24.813 61.951-3.916 7.657-8.54 17.471-10.276 21.801s-3.805 7.984-4.59 8.125c-2.246.404-7.921-3.481-7.921-5.422 0-.965 5.567-13.039 12.374-26.832 11.906-24.12 16.606-35.127 22.112-51.727 1.408-4.242 3.115-8.06 3.788-8.48m-14.246.676c1.606-.347 3.882-.33 5.056.036 1.847.577 2.055 1.17 1.524 4.437-.817 5.028-11.356 30.94-18.708 45.994-3.245 6.644-5.905 12.25-5.905 12.452 0 1.256-11.246 23.158-12.356 24.065-.749.612-3.561 1.772-6.251 2.575s-5.066 1.464-5.275 1.47-.136-1.437.155-3.205c.612-3.711 3.915-10.568 15.998-33.221 7.406-13.886 11.45-23.363 21.309-49.856 1.2-3.222 2.167-4.253 4.453-4.747m-12.785 1.497c3.716-.02 3.627 2.233-.593 14.424-4.545 13.13-8.096 20.877-20.196 44.031-5.681 10.872-11.9 23.536-13.817 28.137s-4.514 10.33-5.767 12.736c-7.158 13.742 3.48 31.42 19.119 31.77 5.779.13 8.962-1.667 12.63-7.121 2.294-3.412 2.562-4.646 2.172-9.96-.39-5.299-.848-6.424-3.614-8.856-4.444-3.908-7.785-4.522-12.12-2.237-5.955 3.14-7.04 10.286-2.335 15.402 1.871 2.035 5.274 2.295 5.274.401 0-.728-.898-2.124-1.998-3.104-3.769-3.356-1.997-8.382 2.947-8.353 4.573.027 7.055 3.315 7.055 9.349 0 2.681-.774 4.335-3.048 6.573-2.84 2.793-3.432 2.968-8.962 2.574-9.273-.66-13.326-5.607-13.351-16.278-.013-5.364.36-6.6 3.002-9.841 5.79-7.1 18.004-9.054 26.146-4.181 6.837 4.091 10.343 14.52 8.478 25.233-1.65 9.482-7.317 15.73-16.272 17.958-6.14 1.527-9.434 1.826-12 1.095-6.905-1.966-16.626-8.618-19.274-13.192-1.13-1.952-2.61-14.637-2.993-25.699-.202-5.802 4.589-17.182 20.971-49.846 12.373-24.67 12.65-25.304 17.284-38.234 3.92-10.939 5.516-12.75 11.262-12.781m-14.921 4.656c.97 1.624-2.537 11.406-9.728 27.142-4.162 9.106-8.426 17.741-9.473 19.19-2.106 2.913-5.709 10.419-15.085 31.414-3.445 7.713-6.788 14.032-7.428 14.032-2.292 0-5.613-3.108-5.613-5.25 0-3.924 5.923-17.477 18.142-41.502 6.607-12.99 13.82-28.046 16.025-33.46 2.206-5.412 4.479-10.396 5.047-11.073 1.114-1.326 7.388-1.707 8.113-.493m-21.172 2.428c2.49-.717 4.846-.409 4.846 1.57 0 2.857-6.588 18.136-14.702 34.099-4.138 8.14-11.026 22.298-15.304 31.46l-7.775 16.66-4.865 1.26a812 812 0 0 1-5.046 1.297c-1.981.45 1.344-6.984 14.574-32.61 14.44-27.972 20.888-41.963 22.641-49.144.52-2.129 3.142-3.874 5.631-4.592m187.345.685c-19.648.053-40.496 7.466-56.151 19.966-6.225 4.97-7.849 7.07-6.79 8.755.96 1.528 2.408 1.044 11.818-3.926 23.022-12.157 48.946-16.848 64.894-11.74 6.148 1.97 6.92 2.029 8.341.63 1.397-1.375 1.41-1.847.082-4.373-3.415-6.5-10.192-9.344-22.194-9.312m-200.304 2.757c.886.632.78 2.401-.137 5.423-2.27 7.482-11.495 27.432-19.922 43.081-15.055 27.96-23.204 45.08-23.79 49.975-1.704 14.203 10.512 24.668 22.86 19.591 4.392-1.806 6.785-5.142 7.51-10.462.494-3.623.201-4.304-3.468-7.915-4.222-4.155-6.663-4.813-9.71-2.62-2.459 1.77-1.296 3.318 3.44 4.574 9.673 2.562 3.649 14.334-6.278 12.27-12.418-2.584-12.295-20.495.174-25.636 5.072-2.091 10.023-1.659 16.07 1.415 6.998 3.557 9.372 7.695 9.181 16.022-.191 8.324-3.893 14.571-11.417 19.245-3.128 1.943-5.736 2.643-10.677 2.885-9.391.46-14.862-1.641-21.2-8.153-6.828-7.016-8.52-19.663-4.334-32.363 2.198-6.668 13.744-29.59 19.776-39.257 6.77-10.85 11.24-19.676 16.728-33.03 4.538-11.042 4.767-11.375 9.39-13.666 3.041-1.508 4.918-2.01 5.804-1.379m192.055 17.008c-11.507.744-25.247 8.528-41.259 23.362-8.95 8.291-10.346 10.726-7.483 13.064 1.458 1.191 3.211 1.117 15.797-.666 2.862-.406 5.348.143 10.002 2.21 5.33 2.366 7.796 2.808 17.695 3.167 6.325.23 11.903.79 12.402 1.25 1.39 1.282-.978 3.518-9.591 9.039-5.06 3.243-7.812 5.642-7.812 6.81 0 2.664 3.327 2.272 9.856-1.159 9.31-4.891 14.708-10.047 16.062-15.337.99-3.867.93-4.835-.374-6.254-1.051-1.143-1.543-3.678-1.543-7.915 0-6.125.075-6.291 4.5-10.289 6.97-6.298 5.52-9.398-2.793-5.98-2.603 1.07-5.592 1.295-11.371.858-9.244-.697-17.085.964-26.41 5.597-3.37 1.674-6.333 2.845-6.58 2.602-.93-.915 7.335-6.664 15.258-10.618 10.305-5.142 16.393-5.944 22.642-2.967 4.867 2.319 6.342 2.547 7.237 1.123 1.123-1.789-1.402-4.695-5.476-6.3q-5.008-1.97-10.76-1.597m-2.793 23.627c.867 0 1.714 1.367 2.1 3.387.98 5.147-.118 6.448-1.945 2.3-1.99-4.518-2.02-5.687-.155-5.687m218.492.539c-4.094 3.646-16.947 21.282-16.947 23.252 0 1.878 3.124 6.66 13.224 20.249 2.112 2.842 4.469 5.167 5.238 5.167 1.266 0 13.391-14.733 17.841-21.673l1.816-2.82-7.921-11.632c-9.656-14.184-10.51-14.985-13.25-12.543m-227.308.785c1.366-.562 4.87 7.888 3.906 9.421-.843 1.343-1.726 1.272-8.97-.74-3.257-.903-6.08-2.132-6.279-2.729-.307-.917 1.853-2.05 11.343-5.952m230.338 11.466c1.166 0 7.018 9.235 7.018 11.074 0 .851-1.803 3.8-4.016 6.555s-4.429 5.012-4.918 5.012c-1.694 0-7.064-8.273-7.064-10.882 0-2.5 7.07-11.759 8.98-11.759m-.484 58.063c-3.384 0-16.528 19.909-19.639 29.743-2.114 6.686-2.317 11.354-.748 17.008 1.966 7.085 7.058 11.99 14.884 14.334 9.006 2.695 19.942-3.034 23.554-12.343 2.542-6.549 1.716-20.022-1.66-27.087-3.103-6.492-14.58-21.655-16.39-21.655m-250.405.712c-2.45.545-4.866 1.86-7.21 3.944-4.789 4.258-5.692 8.272-3.531 15.748 1.827 6.323 5.408 10.548 11.152 13.165 2.2 1.002 5.599 1.832 7.556 1.844 4.186.025 17.084-4.441 26.967-9.34 8.147-4.037 19.035-6.784 23.59-5.943 6.135 1.133 8.498-4.812 3.97-9.987-2.21-2.526-3.001-2.755-9.254-2.748-6.245.007-7.644.428-16.326 4.893-28.105 14.455-30.825 15.274-36.923 11.174-4.036-2.713-5.56-6.35-4.162-9.969 2.34-6.057 11.383-7.368 12.722-1.844.96 3.963 2.336 5.339 3.988 3.99 3.491-2.852.167-12.048-5.147-14.233-2.466-1.014-4.943-1.239-7.392-.694m250.697 6.372c1.873.355 8.3 8.253 11.453 14.078 1.173 2.165 2.666 7.217 3.322 11.229 1.553 9.495-.194 16.412-5.247 20.778-2.916 2.52-4.186 2.931-9.117 2.931-7.197 0-11.93-2.367-14.985-7.486-3.443-5.769-2.791-15.433 1.616-23.892 5.173-9.93 11.095-17.99 12.958-17.638m-412.353 1.771c.693 0 2.025.84 2.966 1.863 1.595 1.735 1.6 2.19.09 6.728-.89 2.678-2.44 6.21-3.449 7.842-1.286 2.081-3.08 3.277-6.005 4.008-4.822 1.205-5.76.262-4.079-4.09.572-1.482 1.04-3.715 1.04-4.957 0-2.461 7.4-11.394 9.437-11.394m-51.69 3.899c1.254-.657 2.421.113 4.39 1.844 3.043 2.675 3.195 3.094 2.054 5.56-.68 1.467-2.396 4.173-3.824 6.016-3.072 3.963-3.923 4.083-7.775 1.05l-2.92-2.3 3.175-5.46c2.311-3.975 3.647-6.053 4.9-6.71m104.428 2.008c.472 0 2.215 1.445 3.879 3.205 2.786 2.945 2.982 3.606 2.473 8.399-1.047 9.853-9.21 31.481-16.089 42.625l-3.577 5.806h-4.928c-5.594 0-5.956-.752-2.528-5.231 6.585-8.604 14.967-29.866 18.206-46.186.94-4.736 2.093-8.618 2.564-8.618m-43.503 1.972c.327 0 2.156.95 4.061 2.109 3.057 1.86 3.396 2.459 2.857 5.112-.337 1.655-1.297 4.031-2.127 5.277s-1.836 2.249-2.236 2.228c-1.44-.077-6.996-2.747-7.547-3.625-.594-.945 3.973-11.1 4.992-11.1m36.723 1.799c.793 1.263-2.014 13.195-5.44 23.106-6.54 18.927-15.856 33.014-24.457 36.992-5.282 2.444-14.128 3.344-20.314 2.063-15.04-3.112-23.44-19.736-16.7-33.048 4.579-9.043 11.047-13.218 20.414-13.174 7.369.035 12.478 2.898 16.035 9.002 1.68 2.884 3.047 6.473 3.057 7.98.022 6.446-5.679 13.615-11.91 14.962-4.447.962-11.389-2.373-13.022-6.253-2.471-5.872 2.03-11.321 7.848-9.504 1.308.408 2.435 2.035 3.112 4.51 1.218 4.451 2.542 4.928 4.143 1.47 2.325-5.021-3.061-11.366-9.655-11.366-6.362 0-11.499 5.638-11.499 12.616 0 6.378 10.036 14.936 17.513 14.936 7.162 0 15.744-7.443 18.133-15.74.858-2.976 3.081-8.458 4.946-12.178 1.866-3.72 4.343-9.918 5.503-13.776s2.592-7.6 3.185-8.317c1.617-1.95 8.53-5.202 9.108-4.281m-81.905 2.866c6.694.41 6.56 2.674-.821 13.877-2.376 3.605-5.065 7.16-5.978 7.897-1.476 1.193-1.887.825-3.678-3.287-1.106-2.541-2.007-4.915-2.007-5.277 0-.36 1.937-3.53 4.298-7.047 4.154-6.19 4.424-6.393 8.186-6.163m17.513 1.023c2.212-.245 2.476.06 2.281 2.675-.459 6.156-13.72 30.336-21.6 39.384-4.548 5.22-13.118 10.904-20.023 13.292-9.691 3.352-15.754 2.412-25.087-3.907-11.117-7.527-13.099-26.808-3.851-37.44 4.425-5.088 10.334-6.907 19.045-5.88 7.583.896 10.455 2.615 14.3 8.582 3.864 5.995 4.022 12.522.448 18.524-3.646 6.123-8.31 8.626-15.012 8.08-6.357-.52-8.172-1.782-10.75-7.505-2.133-4.734-1.821-7.41 1.304-11.32 1.607-2.01 2.965-2.62 5.86-2.62 6.593 0 9.611 6.201 4.59 9.44-3.27 2.107-3.238 4.336.064 4.336 3.77 0 6.085-1.545 7.255-4.848 2.383-6.728-3.443-14.835-10.669-14.835-7.817 0-16.202 9.728-14.62 16.962 1.45 6.624 5.624 12.535 10.669 15.118 3.84 1.967 11.205 1.717 15.678-.53 3.657-1.835 10.12-8.094 10.12-9.804 0-.453 3.3-5.274 7.338-10.709 4.04-5.435 9.242-13.457 11.553-17.83 4.24-8.017 4.777-8.465 11.107-9.165m44.224 1.387c5.601.4 5.804 1.862 1.679 11.695-1.799 4.288-3.867 7.797-4.6 7.797-1.82 0-5.296-5.837-5.274-8.856.01-1.353.895-4.369 1.97-6.7 1.906-4.132 2.07-4.232 6.225-3.936m39.022 4.382c.91-.11 2.39.414 4.69 1.534 4.21 2.05 4.264 2.135 3.624 6.108-.944 5.85-10.461 28.764-14.118 33.998-2.828 4.047-3.555 4.502-7.575 4.765-2.445.16-4.746-.008-5.12-.374-.372-.367.446-2.555 1.817-4.857 5.282-8.87 15.44-34.47 15.44-38.919 0-1.399.333-2.144 1.242-2.255m13.616 11.175c.38 0 2.677 2.692 5.11 5.98 5.48 7.404 20.525 21.606 26.593 25.105 2.489 1.436 4.351 3.114 4.143 3.725-.253.743-4.327 1.114-12.292 1.114-19.756 0-39.415-.521-39.415-1.04 0-.27 1.524-3.463 3.386-7.104 3.433-6.713 6.865-14.632 10.03-23.106.96-2.571 2.064-4.674 2.445-4.674m-186.917 39.822c.622.378 1.063 4.566 1.077 10.18.03 12.12 2.112 17.394 11.809 29.98 3.89 5.05 7.976 11.275 9.09 13.831 5.921 13.596 6.642 33.679 1.596 44.743-3.105 6.81-5.204 7.741-7.994 3.552-1.754-2.636-1.715-3.063.867-9.742 2.496-6.456 2.105-23.12-.73-31.003-2.274-6.323-3.361-8.149-12.229-20.66-7.393-10.43-10.246-17.153-11.444-26.931-.912-7.45-.844-9.061.484-11.056 1.623-2.437 5.657-4 7.474-2.894m20.36.41c.886-1.156 2.282-.59 4.663 1.078 2.643 1.852 3.03 2.726 3.03 6.738-.01 7.342-1.714 15.637-4.398 21.408-2.8 6.018-4.887 6.765-8.442 3.04l-2.19-2.291 2.546-5.679c1.881-4.187 2.716-8.135 3.176-15.018.35-5.236.73-8.118 1.615-9.275m32.698 3.99v123.95l-2.227 1.534c-1.39.958-4.386 1.533-8.003 1.533h-5.786l.256-61.742.255-61.741 2.5-1.123c1.376-.62 4.861-1.418 7.749-1.771zm460.137.94c1.91-1.19 14.6-1.08 16.928.147 3.15 1.66 2.402 4.79-1.533 6.409-4.282 1.76-8.076 1.762-12.192 0-3.547-1.519-5.353-5.215-3.203-6.555m-8.925.11c.785 0 2.432 2.185 3.66 4.857 1.753 3.82 3.146 5.296 6.497 6.893 2.345 1.117 5.505 2.027 7.027 2.027 1.752 0 2.625.453 2.382 1.232-.688 2.204-9.166 5.467-16.984 6.537-4.205.575-10.211 2.161-13.342 3.524-5.324 2.317-5.648 2.65-5.046 5.185 1.711 7.207 1.82 19.638.219 25.06-2.108 7.133-2.141 11.604-.082 11.604 2.155 0 5.154-7.02 6.616-15.502.676-3.924 1.507-7.13 1.853-7.13.345 0 .617 2.761.602 6.144-.02 4.447.56 7.186 2.08 9.887 1.518 2.696 1.953 4.794 1.58 7.532-.382 2.796.178 5.273 2.107 9.421 1.556 3.343 2.62 7.382 2.62 9.942 0 3.722.547 4.85 4.033 8.28 2.22 2.185 3.768 4.4 3.44 4.921-.327.522-2.258.92-4.288.886-2.975-.05-6.505-1.94-18.188-9.769-7.975-5.343-17.973-11.853-22.222-14.46-14.394-8.834-26.78-17.529-27.323-19.181-.734-2.237 4.712-15.845 9.3-23.235 8.439-13.594 19.082-22.432 35.654-29.606 4.97-2.152 15.188-5.049 17.805-5.049m-522.695 2c.821 1.308.875 89.084.055 90.39-1.044 1.662-1.724 1.365-6.023-2.566l-3.942-3.606.264-40.406c.195-29.496.58-40.699 1.442-41.503 1.841-1.715 7.567-3.325 8.204-2.31zm363.776 4.08c1.866-.353 12.611 6.316 13.388 8.308.276.707-1.128 3.853-3.12 6.984l-4.564 7.167c-.516.812-4.787 7.605-9.5 15.1s-13.21 20.78-18.872 29.524a18472 18472 0 0 0-23.59 36.563c-14.597 22.68-17.453 27.068-28.483 43.794-4.104 6.224-9.135 14.09-11.179 17.473-2.043 3.383-4.197 6.12-4.79 6.09-.595-.031-2.212-.846-3.587-1.817-1.375-.97-4.407-2.949-6.744-4.391-2.338-1.443-4.253-3.19-4.253-3.89s4.49-8.11 9.984-16.469c5.492-8.359 10.838-16.525 11.881-18.149s6.538-9.98 12.211-18.57c11.807-17.876 13.049-19.787 42.572-65.32 12.016-18.53 23.001-35.579 24.412-37.887s3.32-4.336 4.234-4.51m-263.2 3.205c1.522-.926 226.39.614 227.947 1.561.97.59.807 1.52-.703 4.063l-1.953 3.295h-45.94c-81.225 0-177.908-.96-179.195-1.78-1.543-.982-1.658-6.225-.155-7.14m454.415 5.478c3.666 0 6.489 3.278 6.489 7.531 0 2.955-.736 4.263-4.143 7.359-2.28 2.072-5.993 4.616-8.25 5.65-4.96 2.274-9.077 3.267-9.957 2.402-.356-.351-.647-1.918-.647-3.479 0-1.56-.684-4.132-1.515-5.715-1.505-2.862-1.488-2.882 2.354-4.81 2.124-1.067 5.952-3.517 8.515-5.442 2.562-1.925 5.784-3.496 7.154-3.496m-165.388 8.526c1.192-.715 2.437-.394 4.745 1.224 1.723 1.207 3.131 2.72 3.13 3.36s-6.144 10.683-13.652 22.32a11177 11177 0 0 0-24.64 38.38 11059 11059 0 0 1-22.596 35.23 8365 8365 0 0 0-22.687 35.432c-6.093 9.58-14.233 22.258-18.087 28.182s-7.44 10.92-7.967 11.092c-.528.173-1.95-1.99-3.158-4.802l-2.19-5.112 2.638-4.492c1.45-2.474 4.675-7.605 7.163-11.393 2.489-3.79 5.368-8.218 6.398-9.842s7.665-12.029 14.747-23.124c7.082-11.096 23.461-36.78 36.394-57.077 26.99-42.36 37.465-58 39.762-59.378m-203.964.53 7.337.292.301 4.985c.163 2.74-.168 6.169-.73 7.623-.962 2.49-1.392 2.647-7.474 2.647-8.181 0-9.591-1.228-9.591-8.317 0-6.853 1.036-7.592 10.157-7.23m-50.658.292h15.998v14.762l-5.996.274c-8.89.412-10.675-1.144-10.294-8.974zm91.679.493c7.465 0 7.812.096 8.414 2.456.345 1.353.23 4.568-.246 7.139l-.858 4.674-7.164.283c-6.476.26-7.308.081-8.743-1.935-1.866-2.622-2.104-9.746-.383-11.44.728-.715 4.261-1.177 8.98-1.177m78.108.009c3.418.008 6.795.384 7.511.83.904.565 1.213 2.742 1.004 7.122l-.301 6.308-7.547.283c-4.15.156-7.863-.03-8.25-.41-1.081-1.064-.839-10.097.328-12.243.855-1.572 2.125-1.902 7.255-1.89m-39.387.192c4.152-.164 7.857.145 8.432.712 1.298 1.277.908 10.907-.51 12.59-1.515 1.795-14.7 1.724-15.405-.083-.288-.737-.386-3.952-.22-7.14l.302-5.787zm-165.398.292h12.001l.292 3.99c.164 2.196-.158 5.189-.721 6.646-.925 2.393-1.509 2.647-6.078 2.647-5.876 0-6.238-.491-5.804-7.988zm422.055 4.994c3.248-.803 9.05.235 10.43 1.871 1.6 1.897-.485 6.283-3.531 7.422-1.42.532-2.673.929-2.774.886a88 88 0 0 0-1.68-.62c-5.344-1.935-7.008-8.432-2.445-9.56m41.687 6.226c3.287 1.23 3.952 3.287 2.473 7.641-1.456 4.285-9.244 10.014-17.714 13.019-10.081 3.576-10.001 3.574-10.001.127 0-1.681-.924-4.83-2.045-6.993l-2.035-3.925 3.505-1.443c1.928-.793 4.045-1.442 4.7-1.442.654 0 5.111-1.778 9.91-3.953 7.068-3.204 9.198-3.783 11.207-3.031m-667.24.584c1.27-.773 9.97 3.215 10.613 4.866.317.811-.763 6.698-2.4 13.073s-3.504 15.792-4.152 20.934-1.717 12.23-2.373 15.748c-1.956 10.501-1.509 59.748.685 75.29 5.186 36.744 17.882 71.237 38.93 105.791 4.923 8.08 11.476 17.684 12.759 18.697.342.27 2.686 3.27 5.21 6.664 15.79 21.227 49.368 52.247 69.723 64.408a6532 6532 0 0 1 14.035 8.408c21.175 12.742 50.745 23.94 75.964 28.758 6.325 1.208 12.151 2.795 12.94 3.533.832.777 1.46 3.309 1.497 6.016.048 3.434-.33 4.739-1.433 4.903-.825.122-6.452-.822-12.502-2.1-29.99-6.337-58.693-17.122-81.996-30.812-4.4-2.585-9.522-5.578-11.38-6.646s-10.181-6.777-18.498-12.69c-45.774-32.54-90.477-93.309-106.755-145.12-7.625-24.27-14.397-69.604-13.342-89.313.228-4.256.647-13.271.94-20.039.507-11.732 2.74-30.89 5.96-51.179 1.494-9.423 4.067-18.272 5.575-19.19m119.622 7.34c1.176-.942 2.412-.37 4.162 1.351l2.664 2.63-2.254 8.609c-4.442 16.965-1.931 28.049 10.477 46.295 3.574 5.255 8.334 13.285 10.577 17.838l4.08 8.271-2.921 2.301c-1.603 1.262-3.177 2.3-3.505 2.3-1.301.012-3.626-3.654-4.727-7.458-.639-2.21-5.485-10.812-10.778-19.117-11.566-18.15-13.728-24.203-13.834-38.864-.057-7.85.395-11.174 2.235-16.414 1.526-4.345 2.648-6.8 3.824-7.742m83.876 1.516h102.667c56.466 0 103.016.357 103.45.785.435.428.056 1.975-.848 3.442l-1.643 2.665-55.312.019c-30.422.01-76.242-.212-101.817-.493l-46.497-.512v-2.948zm425.303 4.436c5.136 0 7.451 1.798 7.027 5.46-.293 2.54-.78 2.938-3.887 3.195-4.206.348-6.945-2.037-6.945-6.034 0-2.39.344-2.62 3.805-2.62m35.445 9.166c3.373-.465 3.751-.3 3.751 1.68 0 4.679-3.677 8.41-11.955 12.133-8.331 3.748-11.896 4.424-12.43 2.355-.173-.676-.83-2.756-1.46-4.628-.628-1.872-.809-3.712-.4-4.09 1.275-1.183 18.557-6.906 22.494-7.45m-606.123 9.531c1.44 0 8.674 4.953 9.199 6.3.26.668.076 3.18-.41 5.578-6.653 32.808-5.082 72.621 4.215 106.704 3.642 13.351 5.334 17.887 11.581 31.003 19.823 41.618 51.994 74.719 96.79 99.601 4.4 2.444 10.698 5.562 13.998 6.92 3.3 1.36 8.7 3.604 12 4.994s9.245 3.476 13.215 4.629c6.785 1.97 7.258 2.292 7.84 5.34.339 1.784.467 4.299.282 5.588-.521 3.627-3.865 3.27-18.9-2.018-52.04-18.305-92.026-49.396-122.852-95.53-7.774-11.633-14.281-23.711-17.695-32.829-14.364-38.361-18.74-65.032-16.49-100.523.617-9.743 1.558-19.48 2.089-21.646.53-2.165.973-6.698.986-10.07.024-6.06 2.383-14.04 4.152-14.04m226.185.694c4.325-.12 8.455 2.477 9.318 5.861.725 2.844-1.012 8.716-3.368 11.366-2.063 2.322-.89 6.683 1.798 6.683 1.111 0 3.785-.89 5.941-1.972 5.628-2.826 10.347-2.601 12.922.62 2.593 3.245 2.668 8.288.164 11.33-1.588 1.93-2.835 2.32-7.391 2.32-3.82 0-6.073-.527-7.42-1.726-1.063-.947-2.595-1.717-3.404-1.717-3.574 0-5.28 5.503-2.427 7.833.797.651 1.952 2.677 2.564 4.501 1.375 4.1.194 6.655-4.326 9.367-1.752 1.052-3.63 1.891-4.18 1.872-2.319-.081-7.256-2.815-7.857-4.355-1.225-3.141-.604-7.903 1.351-10.362 2.338-2.941 2.553-6.191.52-7.851-1.171-.957-2.569-.938-6.744.11-2.899.726-6.4 1.197-7.775 1.05-3.31-.358-7-4.548-7-7.953 0-3.162 3.263-6.554 7.228-7.522 1.87-.457 4.142.01 7.264 1.497 2.5 1.191 5.219 1.914 6.032 1.607 2.101-.793 1.826-4.814-.638-9.467-1.811-3.42-1.936-4.396-.904-6.847 1.74-4.134 4.406-6.135 8.332-6.245m345.78.201c1.28-.973 3.64-.936 5.987.959 1.97 1.59 2.212 2.29 1.314 3.743-1.552 2.512-4.69 2.703-6.79.42-1.991-2.166-1.79-4.15-.51-5.122m-152.238 7.468 3.687 1.935c2.03 1.066 3.872 2.418 4.097 2.995s-4.764 8.708-11.088 18.076-17.404 26.408-24.621 37.86c-7.217 11.45-15.217 23.99-17.777 27.871s-9.157 14.26-14.657 23.061-11.418 17.476-13.15 19.272c-3.02 3.132-5.1 3.765-8.35 2.547-4.104-1.537-3.33-3.197 13.451-29.031 18.211-28.035 36.245-56.042 50.202-77.947 7.562-11.868 14.756-22.718 15.98-24.11zm183.613 3.414c3.508 2.866.52 8.44-5.786 10.791-1.548.578-4.599 1.05-6.78 1.05-4.289 0-5.006-.82-5.257-6.007-.148-3.066-.098-3.087 8.077-5.076 6.71-1.633 8.496-1.779 9.746-.758m-584.732 3.524c1.846-.697 2.648 1.833 1.341 4.236-.592 1.09-1.077 3.745-1.077 5.898 0 3.162.59 4.405 3.076 6.463 4.75 3.935 7.37 4.173 11.882 1.096 6.934-4.73 11.194-1.023 4.553 3.962-10.03 7.53-24.492.907-24.503-11.22 0-4.376 2.33-9.53 4.728-10.435m557.135 3.132c1.43-1.407 4.627.203 4.627 2.328 0 1.962-2.959 2.218-4.499.392-1.014-1.202-1.041-1.821-.128-2.72m-548.804 2.328c1.306.04 2.842.771 4.509 2.181 2.33 1.973 2.537 2.565 1.524 4.428-1.662 3.055-6.547 2.915-8.652-.246-1.24-1.863-1.344-2.846-.483-4.428.725-1.334 1.797-1.977 3.102-1.935m409.936 6.381c9.114-1.09 12.007 2.8 4.407 5.925-1.84.757-6.063 1.378-9.38 1.378-5.34 0-6.033-.224-6.033-1.944 0-2.54 4.083-4.531 11.006-5.359m-388.28 13.082c.654-.643 2.061-.08 4.143 1.644l3.158 2.61-.657 12.042c-1.24 22.811 4.406 51.306 13.862 69.94 10.89 21.457 28.144 43.828 44.662 57.926 7.462 6.369 24.737 17.626 34.396 22.413 7.94 3.935 10.188 6.542 9.509 11.037-.163 1.076-.768 2.106-1.342 2.292-.573.185-5.112-1.613-10.093-3.999-34.726-16.633-64.299-45.104-81.777-78.75-10.815-20.819-15.863-38.931-17.786-63.796-1.219-15.749-.328-31.14 1.925-33.359m379.145 1.826c1.491-1.468 12.271 1.034 14.911 3.46 2.989 2.747 5.5 7.37 4.7 8.646-.96 1.53-5.677 1.022-9.628-1.032-4.423-2.3-11.227-9.85-9.983-11.074m-363.466.612c.258-.44 1.077-.29 2.235.849.876.862 1.42 2.085 1.205 2.72-.248.732-1.089.403-2.282-.894-1.115-1.213-1.417-2.236-1.158-2.675m356.667.32c.844.611 1.759 1.988 2.947 4.281 2.16 4.164 2.549 9.218 1.013 13.192-1.325 3.432-3.657 3.17-6.04-.676-3.544-5.717-3.771-13.797-.466-16.496.928-.759 1.702-.913 2.546-.302m-393.573 2.29c3.036 0 8.277 3.53 10.568 7.122 1.582 2.479 1.956 4.397 1.652 8.445-.334 4.437-.937 5.779-3.979 8.773-3.063 3.014-4.376 3.576-8.916 3.87-10.449.68-16.436-5.177-15.587-15.255.38-4.518.973-5.869 3.56-8.143 3.025-2.66 8.685-4.811 12.702-4.811m452.198 2.867c.752-.453 2.148-.01 4.362 1.215 5.368 2.969 6.77 4.64 4.882 5.815-3.136 1.953-9.324.131-9.765-2.876-.344-2.35-.232-3.7.52-4.154m-453.174 3.031c-3.617 0-4.768.507-6.927 3.031-4.246 4.967-2.968 11.343 2.912 14.525 8.329 4.508 16.55-7.296 10.421-14.963-1.67-2.09-2.91-2.593-6.406-2.593m34.04 1.123c.846-1.565 2.424-.578 5.201 2.091l3.751 3.606.237 12.096c.128 6.65.96 15.614 1.853 19.93 3.873 18.738 14.268 41.509 26.027 57.004 12.812 16.882 33.605 35.475 47.473 42.451 4.393 2.21 5.64 3.901 7.374 9.979.97 3.421-.762 3.412-8.077-.091-12.972-6.214-33.68-22.009-43.22-32.957-27.067-31.065-40.692-64.242-41.432-100.898-.152-7.526-.034-11.645.813-13.21zm-30.654 6.144c.922 1.095.953 1.978.127 3.497-2.1 3.862-8.682 1.69-7.857-2.593.442-2.296 6.006-2.948 7.73-.904m47.418 10.454c1.609 0 5.676 4.092 5.676 5.715 0 1.52-4.255 1.514-5.804-.01-1.619-1.593-1.526-5.706.128-5.706zm332.237.264c3.65-.488 7.178-.189 8.99 1.114 1.889 1.36 1.885 1.43.035 3.442-1.038 1.128-3.504 2.499-5.485 3.04-4.903 1.34-7.965 1.187-12.1-.593l-3.505-1.507 2.336-1.871c2.304-1.854 6.078-3.136 9.729-3.625m98.906 7.112.585 4.172c.319 2.295.244 4.7-.165 5.35-.408.65-3.585 1.496-7.063 1.872-3.478.375-9.02.99-12.32 1.369-7.224.83-8.505-.079-8.505-6.035 0-4.016.159-4.232 3.75-5.167 2.063-.537 8.243-1.108 13.735-1.269zm-421.452 4.93c1.883.588 7.986 8.526 7.986 10.39 0 .521-1.462 1.82-3.25 2.893-1.787 1.073-4.656 1.954-6.369 1.954-6.2.01-10.78-6.437-7.675-10.8 1.96-2.755 7-5.158 9.308-4.437m-61.636.119c2.672-.594 5.554-.48 8.35.401 5.237 1.65 7.89 4.334 9.145 9.24 1.701 6.649-.68 12.844-6.233 16.222-4.403 2.678-10.1 2.608-15.122-.192-5.05-2.814-6.489-5.652-6.507-12.854-.013-5.2.3-6.072 3.258-8.983 1.972-1.94 4.437-3.241 7.11-3.834m369.471 1.752c3.463 2.106 5.563 15.826 3.112 20.332-.57 1.047-1.488 1.898-2.044 1.898-1.74 0-5.895-10.138-5.905-14.406-.01-4.443 2.831-9.044 4.837-7.824m7.155 1.963c0-1.867 5.053-1.791 9.774.146 7.598 3.12 12.988 10.994 8.642 12.635-.87.329-1.66.58-1.752.557-4.902-1.258-8.993-3.694-12.42-7.385-2.338-2.518-4.244-5.193-4.244-5.953m-373.751 1.06c-4.708.868-7.255 3.993-7.255 8.891 0 4.061 2.245 7.284 6.005 8.637 4.026 1.448 9.522-1.207 11.672-5.642 1.588-3.28 1.593-3.716.018-6.966-1.946-4.014-5.718-5.792-10.44-4.92m.757 4.938c4.618-1.442 8.198 4.18 4.052 6.363-2.67 1.407-4.602 1.275-6.023-.41-1.567-1.859-.464-5.192 1.971-5.953m70.58 7.322c1.749.607 3.158 2.591 5.33 6.327 1.692 2.91 3.075 5.547 3.075 5.86 0 .315-2.721 2.143-6.05 4.063-7.497 4.324-11.103 4.469-15.022.612-5.262-5.178-3.32-10.666 5.293-14.945 3.536-1.756 5.625-2.524 7.374-1.917m464.8 4.83c1.595-.727 3.375-.568 5.147.575 1.859 1.198 2.408 2.171 1.89 3.341-2.018 4.55-1.66 7.925 1.112 10.453 3.194 2.913 7.156 3.226 13.425 1.05 3.1-1.076 4.737-1.193 6.187-.43 3.184 1.678 1.685 3.136-6.726 6.528-9.155 3.692-11.408 3.869-17.02 1.36-7.102-3.174-10.831-11.567-8.049-18.121 1.027-2.418 2.439-4.03 4.034-4.757m-53.925 2.966 1.77 2.146c2.102 2.554 2.315 7.147.402 8.71-.751.613-6.155 2.435-12.01 4.053s-10.89 2.94-11.188 2.94c-1.984 0-4.39-11.113-2.637-12.18.442-.268 5.952-1.66 12.237-3.085zm-129.816 4.392c4.826-.634 10.851.84 10.851 2.656 0 .756-1.526 2.385-3.395 3.625-4.27 2.831-12.593 2.778-15.021-.1-1.592-1.889 2.914-5.57 7.565-6.181m-341.929 4.2c9.254-.105 14.501 4.706 14.63 13.41.088 6.022-2.497 10.596-7.384 13.083-6.059 3.083-15.684.612-19.41-4.985-2.35-3.53-2.333-10.27.035-14.25 2.961-4.977 6.666-7.197 12.129-7.259zm72.642 2.674c2.077.784 9.552 12.531 8.953 14.069-.266.682-2.832 2.837-5.704 4.783-6.022 4.082-10.807 5.059-15.213 3.104-3.56-1.58-4.398-3.2-4.398-8.49 0-2.559.778-4.693 2.409-6.6 2.818-3.296 11.759-7.695 13.953-6.866m-68.28 1.607c-1.889-.712-4.126-.535-6.543.593-6.673 3.117-8.713 11.356-3.897 15.749 1.957 1.784 3.773 2.41 6.954 2.41 3.705 0 4.658-.453 6.854-3.287 2.923-3.772 3.14-5.9 1.095-10.718-1.03-2.428-2.573-4.035-4.463-4.747m330.148 4.574c.76-.89 3.364-.338 8.049 1.387 6.74 2.482 10.849 6.562 11.06 10.974.2 4.142-1.949 4.597-8.34 1.771-3.19-1.41-5.444-3.41-7.748-6.865-2.699-4.048-3.782-6.378-3.021-7.267m-6.142 1.387c4.049 0 6.376 11.32 3.815 18.551-.604 1.705-1.748 3.104-2.546 3.104-2.17 0-5.314-7.716-5.339-13.11-.026-5.684 1.34-8.545 4.07-8.545m-324.8.274c1.376 1.161 1.99 3.281.794 5.478-1.454 2.674-3.513 3.19-5.968 1.497-2.634-1.816-2.704-4.446-.182-6.692 1.847-1.645 3.981-1.444 5.356-.283m561.16.064c3.006 1.135.212 3.564-9.28 8.061-5.316 2.52-10.227 5.29-10.915 6.154-1.926 2.42-1.526 7.813.749 10.051 3.83 3.769 7.006 2.96 24.101-6.153 16.03-8.545 20.462-7.35 6.123 1.652a3928 3928 0 0 0-14.437 9.111c-3.692 2.346-7.886 4.705-9.317 5.24-9.945 3.722-19.475-3.043-19.475-13.83 0-3.961.487-4.936 4.262-8.582 6.132-5.923 23.93-13.313 28.19-11.704m-83.529 12.407c1.962.4 2.343 2.133 2.455 5.45l.128 3.597-9.5 3.725c-15.252 5.98-14.413 6.03-17.458-1.141-1.943-4.577-1.69-4.758 12.448-9.12 6.426-1.983 9.966-2.911 11.927-2.51m-398.619.301c1.516-.396 2.718.12 3.906 1.47 3.005 3.413 6.987 11.127 6.452 12.498-.3.77-2.93 2.973-5.84 4.903-2.911 1.93-6.27 3.515-7.465 3.515-3.458 0-7.356-5.345-7.356-10.088 0-3.494.601-4.597 4.518-8.29 2.439-2.3 4.27-3.61 5.785-4.008m-66.984 8.61c5.38 0 9.03 1.729 12.402 5.879 1.486 1.828 1.672 12.23.265 14.817-.56 1.03-2.963 2.993-5.339 4.363-13.15 7.585-25.822-3.93-20.022-18.194 2.018-4.963 5.545-6.866 12.694-6.866m1.013 3.359c-4.454-.877-10.33 4.298-10.33 9.102 0 4.594 1.534 7.112 5.33 8.737 4.527 1.938 6.12 1.76 9.536-1.068 3.802-3.149 4.572-5.504 3.167-9.696-1.378-4.11-3.76-6.299-7.703-7.075m-2.555 6.591c3.699-1.948 7.01 2.659 4.025 5.597-.66.65-1.695 1.177-2.3 1.177-3.343 0-4.673-5.221-1.725-6.774m78.893 2.575c1.301-.68 2.68-.675 3.751.2.727.595 2.568 3.805 4.089 7.14 2.004 4.396 2.494 6.49 1.78 7.614-1.34 2.104-7.28 2.457-9.957.593-3.422-2.383-4.736-7.512-2.975-11.658.783-1.845 2.012-3.209 3.312-3.89m398.282 6.171c1.596 0 6.05 6.431 6.05 8.737 0 .599-4.946 3.528-10.987 6.51-6.041 2.98-11.381 5.413-11.873 5.413-1.143 0-2.476-1.648-4.517-5.605-2.355-4.564-2.057-5.629 2.126-7.623 7.182-3.425 17.534-7.432 19.2-7.432m-650.95 5.816v5.276c0 5.122.114 5.336 3.97 7.468 2.183 1.208 4.239 2.63 4.572 3.16.332.529-1.454 4.126-3.97 7.996l-4.572 7.04.027 12.872.027 12.863 3.513 2.456c24.006 16.793 52.195 45.745 67.888 69.73 10.325 15.781 23.349 42.75 29.531 61.157 1.85 5.509 5.628 21.623 8.45 36.025 1.735 8.85 2.064 18.667.649 19.528-1.286.781-10.938-5.276-11.49-7.213-.249-.874-.743-4.914-1.104-8.974-1.966-22.124-14.45-56.047-30.955-84.136-5.807-9.884-20.244-29.226-30.234-40.498-5.786-6.528-28.694-27.24-33.41-30.209l-2.893-1.826v32.674h6.279c9.635 0 13.725 4.072 13.725 13.676 0 4.462-.468 5.47-5.037 10.873-2.77 3.276-5.38 5.952-5.795 5.952s-2.68 1.725-5.038 3.825c-3.4 3.03-4.22 4.38-3.96 6.528.32 2.655.497 2.558 8.696-4.747 9.866-8.79 13.167-10.526 20.077-10.526 6.083 0 8.985 2.396 11.408 9.394 2.88 8.321-.98 14.442-13.653 21.645-3.41 1.94-10.471 6.116-15.687 9.285s-9.826 5.56-10.248 5.304-.767 16.6-.767 37.467v37.942l4.244 3.03c2.261 1.613 12.741 8.341 23.261 14.964h119.45c-.64-.388-.938-.244-1.707-.84-4.467-3.465-4.085-4.507 1.506-4.154 4.554.288 4.764.43 5.064 3.496.093.946-.45.97-.648 1.498h11.125c-1.016-2.223-2.146-3.473-2.254-12.078-.252-20.01-7.39-62.197-14.081-83.224-6.285-19.75-19.361-47.7-31.521-67.365-6.241-10.093-7.244-11.528-19.977-28.502-21.446-28.59-56.235-58.722-85.71-74.231zm199.4 3.45c4.908.907 10.377 5.767 11.17 9.933 1.253 6.569-2.952 14.186-9.29 16.844-4.397 1.844-7.06 1.696-11.89-.657-7.315-3.563-9.635-13.899-4.609-20.541 2.751-3.636 10.055-6.421 14.62-5.578m-4.17 4.574c-2.675.56-5.14 2.749-7.109 6.51-1.747 3.337-1.345 5.801 1.47 9.093 2.152 2.518 3.316 3.03 6.898 3.03 3.68 0 4.76-.507 7.41-3.478 4.067-4.558 3.985-7.66-.3-11.877-2.808-2.763-5.694-3.836-8.369-3.278m560.266 1.416-6.808 6.408c-5.69 5.356-6.827 6.954-6.908 9.75-.068 2.367.568 3.88 2.172 5.159 3.13 2.494 7.244 2.282 9.91-.512 2.013-2.107 2.19-3.165 1.926-11.567zm-492.059.483c.858 0 1.56.445 1.56.986 0 .542-.422.986-.94.986-.517 0-1.22-.444-1.56-.986-.34-.54.082-.986.94-.986m-67.057 4.109c3.645-.412 5.044.98 4.225 4.19-.465 1.825-1.302 2.529-3.002 2.529-5.171 0-6.29-6.148-1.223-6.72m471.06 7.705c1.918 0 5.784 5.49 5.366 7.623-.184.941-4.545 4.484-9.7 7.87-5.156 3.385-9.976 6.162-10.705 6.162-1.586 0-4.552-3.002-6.48-6.546-1.261-2.32-1.201-2.696.594-3.972 4.072-2.893 19.557-11.137 20.925-11.137m-444.175 4.92c8.286 0 12.743 4.472 12.721 12.763-.018 6.58-1.427 9.59-5.895 12.553-2.33 1.546-4.854 2.237-8.095 2.237-5.313 0-10.65-2.908-12.712-6.92-1.603-3.117-1.616-10.567-.018-13.74 1.61-3.196 9.116-6.893 14-6.893zm-193.925 2.95c1.46 0 7.657 4.315 8.788 6.116.777 1.238-1.947 4.935-12.019 16.278-3.004 3.383-6.256 6.144-7.228 6.144s-3.029-1.07-4.572-2.383l-2.81-2.392 1.78-3.268c3.048-5.605 14.719-20.496 16.06-20.496m193.797 1.003c-2.036-.029-4.106.872-6.178 2.694-4.518 3.972-5.1 9.578-1.433 13.867 2.456 2.872 3.201 3.168 7.32 2.903 3.946-.253 4.906-.756 6.87-3.633 3.235-4.736 3.007-9.386-.638-12.973-1.908-1.878-3.905-2.829-5.94-2.858m-1.314 6.062c4.528-.637 6.845 3.95 3.605 7.14-1.94 1.91-3.477 1.95-5.96.164-1.594-1.147-1.75-1.853-.921-4.181.635-1.785 1.82-2.918 3.276-3.123m32.817 9.048c2.262.277 4.543 1.178 7.109 2.738 8.968 5.455 7.795 20.11-1.962 24.467-2.356 1.053-5.415 1.879-6.79 1.844-10.227-.257-17.208-8.592-15.04-17.948 1.118-4.821 4.196-8.03 9.674-10.088 2.5-.94 4.746-1.29 7.009-1.013m430.952.62c1.813 0 6.552 5.908 6.196 7.724-.168.857-4.332 4.786-9.253 8.728-4.922 3.941-9.712 7.166-10.641 7.166-2.54 0-8.126-6.658-7.1-8.463 1.113-1.957 19.225-15.155 20.798-15.155m-431.655 3.935c-2.999 0-8.284 3.355-9.865 6.263-1.644 3.024.052 8.764 3.23 10.955 3.075 2.12 9.987 1.923 12.074-.347 5.833-6.343 2.441-16.87-5.439-16.87m124.952 1.47c20.137.382 36.922.98 37.306 1.333s.839 3.743 1.004 7.532c.388 8.879 1.366 9.053 13.653 2.483 5.114-2.735 9.677-4.736 10.138-4.455 1.042.633.068 31.173-1.03 32.354-.726.78-8.14-3.157-16.856-8.947-4.652-3.09-6.106-1.735-6.106 5.688 0 3.5-.486 6.04-1.25 6.527-.687.438-18.062.795-38.611.795-43.14 0-40.136.752-40.136-10.06 0-7.696-.398-7.755-12.366-1.69-4.873 2.47-9.484 4.26-10.248 3.971-1.097-.414-1.387-3.515-1.387-14.743 0-14.774.363-17.337 2.464-17.337.687 0 5.358 2.659 10.376 5.907 5.017 3.247 9.527 5.906 10.03 5.906 1.445 0 2.135-2.7 2.135-8.417 0-4.404.358-5.482 2.135-6.418 1.563-.823 11.975-.938 38.749-.429m-321.35.502c2.372 0 6.46 3.783 6.46 5.98 0 .787-4.392 5.743-9.764 11.01s-10.468 9.576-11.325 9.576c-2.094 0-5.914-4.113-5.914-6.372 0-2.6 17.899-20.194 20.543-20.194m193.925 4.127c1.973-.885 2.849-.749 4.681.712 2.18 1.736 2.195 1.88.53 4.382-1.053 1.581-2.64 2.583-4.08 2.583-5.056 0-5.873-5.551-1.131-7.677m215.316 4.902c4.018-.56 11.08 3.574 13.251 7.76 4.128 7.963 1.972 16.55-5.065 20.13-3.162 1.61-4.306 1.784-5.302.804-1.45-1.427-.522-3.102 2.373-4.282 9.381-3.824 7.568-17.015-2.747-19.975-5.064-1.453-6.443-3.888-2.51-4.437m-189.17.21c6.09-2.505 7.48 1.123 2.281 5.952-2.712 2.52-3.038 3.376-2.583 6.72.615 4.51 2.871 7.242 7.547 9.165 2.852 1.173 3.191 1.635 2.145 2.876-1.625 1.927-3.614 1.835-8.496-.392-4.92-2.244-6.517-4.756-7.21-11.357-.685-6.537 1.476-10.974 6.316-12.964m429.665 8.472c2.377 0 7.73 4.586 7.73 6.628 0 1.107-7.472 10.659-13.096 16.743-1.626 1.76-3.752 3.205-4.727 3.205s-3.512-1.754-5.631-3.89c-3.666-3.694-3.773-3.996-2.309-6.153.846-1.247 4.723-5.47 8.615-9.394 4.814-4.853 7.821-7.139 9.418-7.139m-241.097 1.506c.77-.34 1.904-.049 3.367.895 2.648 1.708 3.185 4.368 1.26 6.263-2.927 2.88-5.804.772-5.804-4.254 0-1.59.407-2.563 1.177-2.904m-183.066.886c1.022-.621 2.84 1.1 2.875 2.72.04 1.71-1.992 1.64-2.938-.1-.75-1.38-.73-2.137.064-2.62zm216.813 2c2.356-.128 4.554.452 7.073 1.716 10.228 5.13 10.844 20.454 1.022 25.544-4.679 2.424-12.57 2.37-16.719-.119-8.745-5.248-8.368-20.095.63-24.613 3.124-1.568 5.639-2.401 7.994-2.529m-418.075 3.487c.907 0 2.728 1.56 4.043 3.46 2.352 3.399 2.362 3.486.502 5.541-1.04 1.148-5.875 5.132-10.741 8.847-5.033 3.84-9.833 6.746-11.134 6.746-2.733 0-5.882-4.22-5.056-6.783.747-2.315 20.234-17.821 22.386-17.811m417.884 1.287c-3.122.412-4.87 1.367-6.927 3.807-4.181 4.96-3.172 11.211 2.3 14.196 6.447 3.517 13.54-.524 14.601-8.317.482-3.533.176-4.361-2.628-7.12-2.828-2.784-3.626-3.057-7.346-2.566m1.086 5.788c2.245.255 2.683.78 2.683 3.25 0 2.443-.453 3.005-2.592 3.25-3.498.4-5.431-1.931-3.915-4.72.81-1.49 1.912-1.997 3.824-1.78m231.36 5.048c2.75.68 7.826 5.203 7.802 6.948-.017 1.262-13.327 18.193-15.751 20.039-.89.676-1.865 1.211-2.172 1.187-1.697-.134-9.062-6.194-9.062-7.459 0-1.387 6.342-9.722 13.588-17.866 2.493-2.802 3.563-3.35 5.595-2.849m-202.568 4.784c5.642.354 6.85.799 9.637 3.542 2.837 2.793 3.222 3.869 3.56 9.796.327 5.759.077 7.032-1.88 9.477-1.246 1.554-3.753 3.435-5.568 4.18-7.084 2.914-14.81.655-19.2-5.623-1.937-2.769-2.268-4.264-1.908-8.673.388-4.75.895-5.743 4.673-9.211 4.17-3.83 4.334-3.886 10.686-3.488m-1.14 4.629c-2.289.02-4.592 1.057-6.672 3.104-2.729 2.686-2.971 3.428-2.4 7.14.442 2.873 1.582 4.99 3.742 6.937 3.883 3.5 8.055 3.038 12.11-1.342 3.818-4.124 3.753-8.99-.174-12.854-2.042-2.01-4.319-3.006-6.607-2.985m-426.572 5.03c1.496 0 6.105 5.904 6.105 7.824 0 1.189-3.745 4.065-11.435 8.782-6.288 3.858-12.11 7.012-12.931 7.012-1.52 0-5.64-4.441-5.64-6.08 0-.494 1.163-1.965 2.582-3.26 3.333-3.039 20.114-14.278 21.319-14.278m423.304 2.164c1.733-1.706 6.469-1.465 7.182.365.534 1.369-.837 5.34-1.843 5.34-.21 0-.974.21-1.707.466-3.507 1.226-6.31-3.536-3.632-6.171m-522.357 8.828c-2.257.314-2.362.698-2.637 9.923-.158 5.278-.064 9.595.2 9.595 1.37 0 9.592-11.324 9.592-13.21 0-3.005-4.215-6.718-7.155-6.308m558.541 4.154c9.35 3.844 11.213 18.742 2.939 23.48-8.75 5.011-17.074 3.642-22.14-3.633-4.105-5.896-1.672-15.815 4.81-19.583 3.423-1.99 9.911-2.107 14.391-.264m-82.041.913c1.375-1.354 17.921 7.096 26.793 13.685 17.612 13.079 26.195 22.148 38.247 40.415 10.213 15.48 14.893 24.95 19.128 38.7 5.757 18.691 7.357 27.284 7.684 41.21.263 11.223.108 12.783-1.35 13.073-.966.192-2.694-1.027-4.135-2.921-2.12-2.787-2.579-4.734-3.167-13.585-.692-10.43-2.688-23.594-4.407-29.031-5.527-17.48-11.453-30.427-19.147-41.831-2.008-2.977-4.926-7.3-6.479-9.613-9.235-13.76-27.63-29.918-43.403-38.115-6.407-3.33-7.794-4.51-8.989-7.65-.774-2.043-1.127-3.992-.775-4.337m74.485 1.634c-1.814.307-3.6 1.197-5.129 2.766-6.243 6.413-3.683 14.74 5.293 17.209 2.468.679 7.384-1.089 9.254-3.323 1.088-1.3 1.752-3.749 1.752-6.482 0-6.792-5.727-11.092-11.17-10.17m2.373 5.925c3.653 0 4.697 5.978 1.414 8.107-2.466 1.598-6.616-.34-6.616-3.086 0-2.103 3.022-5.021 5.202-5.021m-436.665 6.272c1.854.7 4.732 6.388 4.08 8.061-.292.747-5.499 3.808-11.563 6.801s-11.919 5.441-13.014 5.441c-1.814 0-5.046-4.302-5.046-6.719 0-.5 3.939-3.132 8.751-5.843 12.533-7.06 15.263-8.319 16.792-7.741m367.244 3.396c1.42-1.398 4.718-.584 4.718 1.168 0 1.77-4.025 2.524-5.019.94-.389-.619-.252-1.563.301-2.108m-464.152 3.25c-2.725.488-6.557 2.877-12.585 7.367l-10.047 7.486v8.29c0 10.136-2.177 10.897 24.768-8.618 4.97-3.6 5.996-6.407 3.85-10.49-1.637-3.117-3.26-4.523-5.986-4.035m473.196 3.807c2.05.083 4.172.894 5.722 2.42 3.635 3.576 2.947 9.724-1.46 13.054-3.788 2.862-7.989-.3-10.249-7.723-1.003-3.295-.914-4.062.657-5.77 1.298-1.41 3.28-2.064 5.33-1.981m78.282 1.515c4.893-1.107 10.348.242 14.473 4.483 2.544 2.615 2.912 3.722 2.884 8.682-.035 6.073-1.765 9.793-5.73 12.306-5.829 3.694-14.95 2.178-19.968-3.314-3.554-3.888-4.322-7.218-2.756-11.886 1.877-5.6 6.204-9.164 11.097-10.27m3.778 4.218c-2.398-.027-4.868.996-6.963 3.058-4.89 4.813-3.036 13.273 3.468 15.83 4.149 1.633 9.508-.522 11.197-4.5 2.05-4.83 1.744-7.767-1.177-11.184-1.8-2.105-4.127-3.177-6.525-3.204m-.018 5.094c3.655 0 5.587 5.063 2.93 7.678-2.458 2.42-7.803.201-7.803-3.24 0-1.875 2.811-4.438 4.873-4.438m-530.634 2.447c3.65.059 6.777 1.733 9.719 5.03 2.481 2.781 3.048 4.29 3.048 8.08 0 7.73-3.091 11.033-16.262 17.41-10.335 5.003-15.395 6.418-17.075 4.765-1.369-1.347-.523-2.232 5.083-5.313 15.597-8.575 18.434-11.51 16.345-16.917-1.487-3.848-4.408-5.044-8.889-3.625-2.036.645-4.15 1.52-4.7 1.936-3.795 2.865-23.956 12.8-25.096 12.37-3.03-1.144-.917-3.297 9.244-9.449 5.812-3.518 12.878-7.849 15.706-9.622 5.054-3.168 9.228-4.724 12.877-4.665m466.98 2.693c3.02.652 5.329 3.005 6.316 6.92 1.128 4.472-.3 7.396-5.64 11.549-2.79 2.17-5.928 3.953-6.972 3.953-2.658 0-8.916-10.031-8.916-14.288 0-.752 2.082-2.937 4.636-4.856 3.828-2.877 7.558-3.93 10.577-3.278m-381.57 4.875c.91.176 2.279 2.094 3.038 4.254 1.763 5.017 1.532 5.19-13.023 9.778-6.138 1.935-11.89 3.515-12.785 3.515-1.83-.001-4.383-5.146-3.577-7.212.632-1.621 23.998-10.788 26.346-10.335m126.83 9.02c1.031-.726 2.644.18 5.002 2.602 2.214 2.274 2.948 4.09 3.276 8.116.232 2.854-.054 6.408-.639 7.897-1.145 2.916-3.207 3.492-4.974 1.397-2.225-2.64-4.143-8.591-4.143-12.855 0-4.08.448-6.431 1.479-7.157m333.388 2.538c5.393.041 10.76 2.778 13.46 8.198 1.699 3.408 1.724 4.028.293 8.874-1.638 5.543-5.43 9.887-9.62 11.028a240 240 0 0 1-3.996 1.05c-3.135.782-10.56-3.493-13.306-7.66-3.284-4.984-3.38-7.872-.447-13.502 2.802-5.378 8.223-8.03 13.616-7.988m-66.355 3.03c3.655 0 4.746.513 7.392 3.48 3.612 4.048 3.812 6.047 1.16 11.164-1.517 2.926-3.214 4.3-7.867 6.354-3.267 1.443-6.65 2.63-7.52 2.63-1.358 0-9.673-12.109-9.673-14.087 0-.376 2.754-2.678 6.114-5.112 5-3.623 6.887-4.428 10.394-4.428m-292.43 1.58c.489-1.177 3.124-1.136 7.912.073 5.763 1.456 10.136 4.743 12.667 9.513.816 1.537 1.247 3.418.95 4.181-1.217 3.118-10.25-.452-16.582-6.555-3.78-3.641-5.435-6.034-4.947-7.212m358.292.393c-3.45 0-4.648.537-6.78 3.03-3.8 4.444-3.518 9.041.812 13.302 3.648 3.59 4.939 3.922 9.199 2.328 5.159-1.93 7.765-6.948 6.306-12.15-1.253-4.464-4.25-6.51-9.537-6.51m1.04 6.098c2.695.259 3.094.672 3.094 3.25 0 2.69-.33 2.977-3.669 3.25-2.993.246-3.789-.07-4.334-1.762-.958-2.97 1.235-5.09 4.91-4.738m-537.907 2.018c6.015-.667 10.954 1.728 13.442 6.527 3.409 6.576 1.97 16.226-2.792 18.734-2.752 1.45-3.57 1.354-6.197-.74-2.227-1.775-2.239-1.853-.474-4.793 2.096-3.492 1.527-7.177-1.597-10.252-2.175-2.14-6.075-2.06-12.028.237-3.485 1.345-8.36.753-8.36-1.013 0-1.879 12.963-8.14 18.006-8.7m84.761 7.468c3.05.099 3.537 1.848 4.162 5.331.818 4.563.296 4.834-14.73 7.605-15.097 2.784-14.692 2.858-14.692-3.031 0-3.66.065-3.721 5.749-5.35 10.855-3.11 16.461-4.655 19.511-4.555m111.236 4.81c3.24-.1 6.049.392 7.19 1.516 2.028 1.995.979 3.472-4.06 5.724-2.27 1.015-5.033 1.782-6.133 1.708-12.36-.84-14.86-3.385-6.78-6.902 2.87-1.25 6.543-1.944 9.783-2.045m286.89.275c1.862 0 4.508.898 5.978 2.036 5.031 3.894 2.384 12.301-4.782 15.182-6.635 2.667-7.453 2.682-9.984.191-3.157-3.107-6.867-10.29-6.014-11.649 1.136-1.809 11.29-5.76 14.802-5.76m59.045 8.7c2.26-.739 4.775-.656 8.086.073 8.326 1.834 12.596 8.169 11.033 16.369-.804 4.217-4.99 9.168-9.227 10.91-1.795.738-3.84 1.297-4.544 1.241-4.157-.33-8.912-2.386-11.371-4.911-2.353-2.417-2.886-3.931-3.222-9.12-.377-5.825-.2-6.452 2.702-9.705 2.281-2.558 4.282-4.118 6.543-4.857m-364.817 4.3c1.042-.952 2.547.01 4.408 2.985 3.2 5.125 4.205 10.02 2.975 14.516-1.35 4.934-3.185 5.01-6.461.265-1.98-2.868-2.537-4.898-2.537-9.267 0-4.68.574-7.547 1.615-8.499m369.517.776c-4.31 0-5.297.4-7.547 3.03-1.424 1.666-2.592 4.122-2.592 5.46 0 3.856 2.85 8.262 6.315 9.769 4.186 1.82 7.57 1.031 10.942-2.566 3.651-3.893 3.77-9.397.292-13.091-2.017-2.142-3.332-2.602-7.41-2.602m-1.479 5.286c4.593-1.134 8.046 2.827 5.302 6.08-1.183 1.403-4.239 1.756-6.707.776-.688-.273-1.25-1.782-1.25-3.35 0-2.266.546-2.985 2.655-3.506m-391.08 1.168c1.362-.331 3.568 0 6.68 1.315 4.567 1.927 12.177 10.137 11.434 12.334-.656 1.939-3.138 1.6-9.272-1.27-9.426-4.408-12.93-11.383-8.843-12.379m337.511.576c1.438-.018 2.63.596 4.664 1.816 2.692 1.616 3.249 2.55 3.249 5.469 0 4.789-1.528 7.238-5.549 8.892-1.863.766-3.582 1.397-3.824 1.397-1.224 0-9.628-10.295-9.628-11.796 0-1.147 1.684-2.457 4.938-3.834 3.029-1.282 4.713-1.927 6.15-1.944m-400.955 8.097c2.266.385 2.584 1.72 2.939 4.337.338 2.492.132 4.547-.502 5.048-.59.466-4.857 1.342-9.482 1.945-11.195 1.46-18.038 1.407-18.608-.137-.25-.677-.566-2.78-.712-4.674l-.264-3.442 12-1.726c8.154-1.172 12.364-1.735 14.63-1.35m77.178 12.307c10.875.242 12.818 2.388 5.375 5.934-4.72 2.248-12.643 2.66-16.463.849-5.267-2.498 2.063-6.984 11.088-6.783m327.738 2.556c1.803-1.097 6.101 2.4 5.758 4.683-.443 2.955-2.082 3.122-4.617.466-2.396-2.51-2.758-4.166-1.141-5.149m55.777 2.62c-1.796-.198-3.7.257-5.85 1.351-3.72 1.893-4.973 4.253-4.973 9.321 0 2.984.645 4.683 2.455 6.464 3.676 3.618 10.208 3.391 13.972-.475 4.068-4.178 3.903-10.315-.383-14.086-1.73-1.522-3.424-2.377-5.22-2.575m.676 5.596c3.163 1.419 3.52 6.46.566 8.016-2.364 1.245-3.083 1.237-5.32-.045-2.348-1.345-2.216-5.112.255-7.313 1.656-1.474 2.436-1.582 4.499-.657z" style="fill:#000;stroke-width:.992029" transform="matrix(.16052 0 0 .1579 -221.964 -1.241)"/><g style="fill:#000"><path d="M-26.845 90.822v129.995H103.15V90.822Zm2.3 2.3H100.85v125.396H-24.546Z" style="color:#000;fill:#000;stroke-width:.811363;-inkscape-stroke:none" transform="translate(45.39 6.384)"/></g><g style="font-size:64px;font-family:NumbersDeuce;-inkscape-font-specification:NumbersDeuce;fill:#000;stroke-width:2.83465"><path d="M-67.967-72.24h-4.672v-4.352h14.4v4.352h-4.544V-46q0 8.192-3.328 11.648-3.264 3.392-8.896 3.2-5.248-.192-8-3.072t-2.752-8.32v-3.904h4.736v3.648q0 3.84 1.856 5.504 1.6 1.536 4.16 1.536 4.352 0 5.76-2.752 1.28-2.496 1.28-8.832zv-.064z" aria-label="J" style="fill:#000" transform="translate(136.062 121.288)scale(1.40813)"/></g></svg>