<svg xmlns="http://www.w3.org/2000/svg" xml:space="preserve" width="222.783" height="323.556" viewBox="0 0 167.087 242.667"><defs><filter id="a" width="1.147" height="1.101" x="-.074" y="-.051" style="color-interpolation-filters:sRGB"><feGaussianBlur in="SourceGraphic" result="result3" stdDeviation="4"/><feGaussianBlur in="SourceGraphic" result="result4" stdDeviation="1"/><feBlend in2="result3" mode="darken"/><feComponentTransfer result="result1"><feFuncR tableValues="0 0.2 0.4 0.6 0.8 1 1" type="discrete"/><feFuncG tableValues="0 0.2 0.4 0.6 0.8 1 1" type="discrete"/><feFuncB tableValues="0 0.2 0.4 0.6 0.8 1 1" type="discrete"/></feComponentTransfer><feTurbulence baseFrequency="1" numOctaves="7" result="result0" type="fractalNoise"/><feConvolveMatrix kernelMatrix="-2 0 -2 0 -10 0 -2 0 -2" order="3 3" result="result5"/><feColorMatrix in="result5" result="result4" type="saturate" values="0"/><feComposite in="result1" in2="result4" k1="1.5" k2=".5" k3=".5" operator="arithmetic" result="result2"/><feComposite in2="SourceGraphic" operator="in"/></filter></defs><g style="fill-rule:nonzero;clip-rule:nonzero;stroke:#000;stroke-miterlimit:4"><path d="M166.837 235.548c0 3.777-3.087 6.869-6.871 6.869H7.11c-3.775 0-6.861-3.092-6.861-6.87V7.12C.25 3.343 3.336.25 7.11.25h152.856c3.784 0 6.87 3.093 6.87 6.87z" style="fill:#fff;stroke-width:.5"/></g><path d="M3.243-4.725C1.126-7.59 0-10.5 0-10.5s-1.126 2.91-3.243 5.775C-5.361-1.862-8 0-8 0s2.639 1.861 4.757 4.726C-1.126 7.59 0 10.5 0 10.5s1.126-2.91 3.243-5.774C5.361 1.861 8 0 8 0S5.361-1.862 3.243-4.725" style="fill:navy;fill-opacity:1" transform="matrix(2.04014 0 0 2.29598 39.275 126.435)"/><g style="fill:navy"><path d="M-26.845 90.822v129.995H103.15V90.822Zm2.3 2.3H100.85v125.396H-24.546Z" style="color:#000;fill:navy;stroke-width:.811363;-inkscape-stroke:none" transform="translate(45.39 6.384)"/></g><g style="font-size:64px;font-family:NumbersDeuce;-inkscape-font-specification:NumbersDeuce;fill:navy;stroke-width:2.83465"><path d="M-67.967-72.24h-4.672v-4.352h14.4v4.352h-4.544V-46q0 8.192-3.328 11.648-3.264 3.392-8.896 3.2-5.248-.192-8-3.072t-2.752-8.32v-3.904h4.736v3.648q0 3.84 1.856 5.504 1.6 1.536 4.16 1.536 4.352 0 5.76-2.752 1.28-2.496 1.28-8.832zv-.064z" aria-label="J" style="fill:navy" transform="translate(136.062 121.288)scale(1.40813)"/></g><path d="M3.243-4.725C1.126-7.59 0-10.5 0-10.5s-1.126 2.91-3.243 5.775C-5.361-1.862-8 0-8 0s2.639 1.861 4.757 4.726C-1.126 7.59 0 10.5 0 10.5s1.126-2.91 3.243-5.774C5.361 1.861 8 0 8 0S5.361-1.862 3.243-4.725" style="fill:navy" transform="translate(124.296 45.438)scale(3.23036)"/><path d="m120.146 99.519-.342.388c-.189.214-.724 1.018-1.19 1.787s-1.362 2.181-1.993 3.139c-1.49 2.26-5.018 7.655-5.306 8.11-.33.522-.826.575-2.153.228l-4.63-1.21c-1.891-.494-3.495-.934-3.563-.976-.185-.112-.153-.488.115-1.388.133-.443.715-2.441 1.294-4.44s1.11-3.745 1.182-3.88.18-.545.242-.912l.111-.666 1.548-.053c.852-.028-.004-.065-1.904-.084l-3.454-.033-.368 1.623c-.448 1.977-2.104 8.661-2.222 8.968-.097.253-2.445.181-6.38-.195-1.222-.117-2.439-.212-2.703-.211-1.023.005-6.115-.23-6.616-.306-.644-.098-.651-.117-1.57-3.547-.748-2.795-.936-3.465-1.289-4.605-.124-.4-.241-.953-.26-1.228l-.037-.5-12.895.023c-7.092.011-12.75.053-12.575.092.177.039.933.826 1.682 1.75 1.308 1.615 4.191 5.15 5.524 6.777a89 89 0 0 0 1.614 1.887c2.261 2.566 4.376 5.13 4.966 6.017l.631.95-.024 2.374c-.038 3.612-.539 7.326-1.254 9.286-.74 2.027-1 2.322-1.777 2.03-.225-.085-.791-.154-1.257-.154-1.038 0-1.581.422-1.859 1.441-.476 1.749.933 3.296 3.009 3.305 1.052.004 2.127-.472 2.752-1.222.635-.76.88-.572.75.575a22 22 0 0 1-.246 1.6 89 89 0 0 0-.326 1.722c-.1.555-.331 1.299-.515 1.654-.312.606-.346.627-.553.347-.122-.164-.222-.392-.222-.505 0-.335-1.157-1.505-1.716-1.736-.284-.118-.971-.214-1.528-.214-1.343 0-2.245.45-2.999 1.498-.561.78-.564.8-.564 2.454 0 .917.06 1.854.132 2.082.12.374.064.453-.595.835-.995.576-6.752 3.401-9.39 4.608a374 374 0 0 0-5.284 2.493c-5.304 2.554-6.561 3.126-9.211 4.191-1.41.567-2.758 1.13-2.996 1.251s-.588.22-.778.22h-.345l.05-6.451c.029-3.549 0-6.601-.065-6.784s-1.143-1.298-2.397-2.477a612 612 0 0 1-4.026-3.823c-.961-.924-1.808-1.68-1.883-1.68s-.134.285-.134.634c0 .586.091.718 1.24 1.776 3.01 2.774 5.707 5.407 6.044 5.902.18.263.225 7.461.27 42.542.03 24.322.015 36.225-.056 40.404h11.124c.264-.46.344-.552.67-1.146 5.098-9.3 6.96-19.757 5.358-30.107-.306-1.973-1.23-6.006-1.723-7.52-1.183-3.632-2.956-7.736-4.284-9.917-.3-.49-.544-.97-.544-1.065 0-.096.373-.464.828-.82.793-.619.837-.634 1.098-.36.71.747 3.513 6.755 4.53 9.708 2.382 6.921 3.514 14.644 3.006 20.525-.632 7.303-2.785 14.18-6.46 20.702h9.975l-.704-.664.218-.652c.295-.885.562-1.087 1.046-.795.168.102 1.335 1.206 2.302 2.11h4.17a137 137 0 0 0-3.948-3.748c-1.262-1.134-1.801-1.724-1.802-1.972-.002-.405.463-1.628.617-1.623.19.006 5.29 5.019 7.533 7.344h4.184c1.035-1.018 2.282-2.264 3.187-3.15 2.137-2.09 4.62-4.548 5.52-5.462s3.363-3.351 5.474-5.414 5.027-4.937 6.48-6.387 3.953-3.919 5.552-5.487l2.91-2.85.615.559.615.56-22.986 22.719c-2.682 2.65-2.574 2.526-4.993 4.912h5.438c10.082-10.005 25.062-24.762 25.208-24.762.13 0 .444.215.698.476l.461.475-16.422 16.22-7.686 7.59h3.362c-.452-.522-.78-.928-.78-1.009 0-.058.177-.271.394-.473.369-.342.42-.35.777-.118.257.166.78.682 1.667 1.6h1.242c-.809-.783-2.072-2.146-2.224-2.459-.11-.226-.053-.396.229-.693.205-.216.44-.394.521-.394.193 0 2.342 2.05 2.55 2.433.11.204.099.513-.036.99-.014.049-.033.078-.048.124h1c.127-.74.356-1.54.655-2.119.946-1.833 3.88-3.236 5.956-2.847 2.06.386 3.651 1.56 4.495 3.32.304.632.402 1.068.452 1.646h.829c-.188-.434.342-.86 4.104-3.456.921-.636 1.268-.595 1.084.128-.071.281-.762.866-2.346 1.99-1.03.73-1.612 1.118-2.018 1.338h2.07c.469-.323.916-.65 1.36-.936.705-.455 1.108-.396.903.131-.028.075-.449.406-.977.805h2.073c-.048-4.07-.101-8.461-.136-11.937l-.09-8.946.806.792.806.791.082 1.742c.171 3.68.218 7.213.264 17.558h3.433c-.008-.934-.018-.996-.026-2.057-.088-10.87-.07-13.337.1-13.441.144-.088.577.244 1.365 1.044l1.154 1.17.11 8.234c.025 1.91.054 3.148.085 5.05h10.066c.056-.278.108-.508.14-.54.076-.07.875-.153 1.775-.183 1.185-.038 1.702-.118 1.875-.29.131-.13.397-.985.59-1.9s.421-1.75.507-1.86c.106-.134.66-.198 1.721-.198 2.035 0 2.126-.074 2.555-2.049.178-.822.415-1.55.526-1.62.15-.094 3.469-.084 3.773.012.027.008.027.354 0 .767l-.048.753-1.155.08c-.634.043-1.234.158-1.333.256-.098.097-.325.773-.505 1.503s-.39 1.395-.47 1.48c-.08.083-.92.225-1.866.316l-1.72.165-.277.554c-.152.305-.356 1.064-.453 1.687a7 7 0 0 1-.25 1.067h2.152a61 61 0 0 1 3.373-3.052c1.933-1.617 2.408-1.947 2.615-1.82.147.09.176 2.285.035 2.648-.05.132-1.005.987-2.12 1.901-.11.09-.248.227-.361.323h.991c.8-.663 1.378-1.057 1.486-.884.019.03.034.594.054.884h.946c.01-25.26.073-59.329.148-59.45.047-.074.445.237.885.692l.8.827-.094 8.312c-.063 5.627-.125 27.746-.184 49.619h3.042c.78-3.09.7-4.74-.33-9.246-.373-1.634-.596-3.09-.668-4.354-.124-2.2-.042-2.735 1.27-8.433.378-1.64.058-4.658-.723-6.822-.741-2.052-.921-3.03-.917-5.011.004-2.038.095-2.44 1.075-4.75.296-.696.66-1.94.812-2.763.323-1.762.195-3.001-.579-5.627-.815-2.761-.983-4.107-.971-7.747.006-1.891.076-3.38.164-3.466.202-.2 1.642-.56 1.88-.47.243.09.328 1.39.193 2.951-.06.684-.05 2.252.02 3.484.104 1.803.223 2.533.608 3.744.831 2.612.902 3.013.896 5.065-.005 2.05.015 1.94-1.08 5.597-.363 1.21-.426 1.742-.46 3.88-.044 2.655-.035 2.708 1.215 6.515.28.85.337 1.401.327 3.167-.01 1.885-.073 2.361-.527 4.037-1.401 5.167-1.334 4.828-1.234 6.188.084 1.131.354 2.484 1.168 5.844.827 3.418.83 4.795.02 7.837-.05.185-.054.213-.098.38h1.09v-64.198l-.441.405c-.46.423-1.506.863-3.094 1.3-1.08.296-1.43.156-1.43-.572 0-.234-.107-.565-.237-.734-.342-.447-.306-.519.322-.635.313-.058 1.224-.346 2.025-.64 1.92-.706 2.423-.688 2.736.1.051.13.099-.485.106-1.366l.013-1.603-.681.673c-.545.538-.95.757-2.03 1.094-.743.232-1.447.384-1.564.34-.127-.049-.21-.336-.21-.725 0-.478-.106-.75-.402-1.042-.668-.66-.767-.594 2.323-1.556 1.014-.315 1.892-.57 1.952-.57.06.002.221.114.36.251.229.226.252-.785.252-11.139v-11.389l-.762-.095-2.122-.265c-1.956-.245-3.346-.653-5.555-1.633-4.904-2.176-9.223-5.612-11.773-9.365-1.096-1.612-2.855-4.984-2.855-5.471 0-.527.429-.538 1.24-.033 1.261.785 4.557 2.525 5.327 2.813.396.148 1.55.61 2.563 1.027 2.447 1.006 6.18 2.092 8.65 2.516l2.87.496c.477.082 1.216.15 1.642.15h.775l-.009-8.431-.007-8.43-3.034 3.086-3.034 3.088-.001 4.295c-.001 3.333-.048 4.333-.21 4.466-.233.191-.93.067-1.111-.198-.065-.094-.12-2.17-.12-4.614-.003-4.36.005-4.45.358-4.92.355-.472 2.062-2.313 5.447-5.877 1.587-1.67 1.72-1.86 1.72-2.435 0-.552-.032-.606-.29-.47-.252.134-5.948 6.025-7.628 7.891l-.607.672.027 4.594c.023 4.104-.003 4.606-.235 4.694-.443.168-4.018-.971-6.884-2.193-1.396-.595-4.99-2.516-6.167-3.296a19 19 0 0 0-1.392-.844c-.463-.235-.533-.236-.76-.012-.59.582-.086 2.329 1.592 5.53 1.343 2.562 2.267 3.826 4.317 5.91 2.29 2.33 4.878 4.22 8.044 5.88l1.308.685.06.887c.163 2.415.139 10.304-.033 10.62-.156.29-.275.323-.858.236-.963-.142-1.324.198-1.686 1.588-.159.61-.398 1.323-.532 1.584a5 5 0 0 0-.344.89 2.3 2.3 0 0 1-.391.77l-.292.355-2.666-1.355c-2.908-1.478-3.483-1.812-3.483-2.024 0-.077.26-.407.579-.734.825-.847 1.175-1.684 1.179-2.821.007-2.042-.944-3.642-2.581-4.338-.815-.346-.86-.348-1.884-.098-.577.141-1.324.397-1.66.57s-.702.315-.816.315c-.34 0-2.561-4.922-4.037-8.946a482 482 0 0 0-1.365-3.672c-.655-1.731-1.243-3.686-2.068-6.878l-.517-2 .411-.692c.345-.58 1.533-2.273 3.148-4.49a167 167 0 0 0 5.57-8.075c1.244-1.916 2.736-4.16 3.314-4.987l1.052-1.504-3.006-.046zm-38.488.01.467 1.702c.257.936.544 2.058.637 2.493.23 1.07.789 2.6 1 2.728.093.057.749.088 1.457.07 1.38-.036 8.049.507 8.212.668.191.19 1.306.093 1.535-.133.128-.127.612-1.783 1.076-3.682.465-1.898.877-3.54.917-3.648.059-.157-1.531-.198-7.614-.198zm34.6 0-4.624.012c-2.543.006-4.534.048-4.425.092.13.052.15.172.062.344-.076.145-.37 1.048-.654 2.005-.284.958-.848 2.796-1.252 4.083-.656 2.088-.71 2.366-.494 2.58.133.131 1.03.445 1.992.695 2.292.598 2.569.574 3.183-.265a65 65 0 0 0 2.84-4.242c.89-1.44 2.55-4.058 3.137-4.948zm-35.088.05c-.116-.046-.253-.04-.306.013-.053.052.04.089.21.082.186-.008.224-.045.096-.095m-1.831.003c-.11.044-.021.08.2.08.22 0 .31-.037.2-.08a.62.62 0 0 0-.4 0m-15.765.105h1.808l.699 1.07 1.687 2.572a73 73 0 0 1 1.41 2.216c.23.392.612.917.849 1.167.421.445.457.453 1.617.349.652-.058 1.371-.176 1.598-.26.378-.143.404-.21.315-.824-.053-.368-.524-1.935-1.044-3.48l-.945-2.81h1.563c1.56 0 1.564 0 1.724.435.289.786 1.609 4.83 2.2 6.741.319 1.03.558 2.063.53 2.296-.049.42-.063.425-1.971.616-1.057.106-2.895.304-4.084.438-2.453.278-2.425.276-2.65.119-.14-.098-2.979-4.237-6.09-8.881-1.263-1.887-1.32-1.764.784-1.764m79.11 12.271c.088-.01.16.042.269.15.211.209.218.442.05 1.787-.343 2.73-.21 3.937.81 7.324.274.914.503 1.948.51 2.297l.011.632-.84.049c-1.017.058-.888.303-1.823-3.453-.632-2.537-.69-2.945-.696-4.843-.005-2.038.003-2.081.466-2.742.259-.37.65-.81.869-.981.178-.14.284-.21.373-.22m-58.869 3.16c1.131.008 2.338.032 3.652.073 5.698.178 7.756.36 8.01.705.088.12.44 1.454.782 2.967.69 3.05 1.007 4.152 2.82 9.797.686 2.134 1.294 4.035 1.352 4.225.084.274-.094.563-.863 1.402-.532.58-.968 1.13-.968 1.22s-.202.492-.448.893c-.94 1.532-1.19 2.464-1.273 4.768-.074 2.031-.057 2.188.34 3.151.33.8.378 1.062.228 1.241-.235.28-3.793 2.6-5.395 3.519-1.455.833-3.785 1.782-5.702 2.32-1.998.56-5.034.675-6.362.24-1.206-.394-3.648-1.93-4.66-2.931-2.097-2.073-3.907-5.187-4.841-8.332-.936-3.148-1.207-4.629-1.29-7.044-.043-1.22-.108-2.703-.146-3.295-.084-1.335.015-1.391 1.46-.82.864.342 1.32.424 2.29.41.667-.01 1.45-.097 1.742-.192s.57-.136.615-.09c.046.045-.464.595-1.132 1.222-1.13 1.061-1.516 1.735-.996 1.735.12 0 .478-.196.797-.435.318-.24.879-.65 1.248-.911.369-.262.763-.543.877-.627s.26-.1.325-.036c.143.141-.177 2.112-.594 3.661-.651 2.418-.431 2.83 2.198 4.106 1.432.695 1.983 1.047 2.189 1.402.228.392.316.441.513.28.343-.282.292-.61-.232-1.49-.409-.687-.65-.874-2.035-1.584-1.96-1.003-2.026-1.154-1.435-3.306.22-.8.508-2.133.64-2.96s.36-2.145.505-2.928c.18-.959.242-1.906.19-2.893-.064-1.263-.148-1.613-.603-2.498-.707-1.376-1.588-2.154-2.944-2.6-1.314-.432-2.21-.362-4.107.322-2.045.738-1.984.78-1.855-1.238.078-1.218.176-1.752.346-1.879.429-.32 3.268-.885 5.84-1.162 2.83-.304 5.53-.432 8.922-.408m13.483.725c.26.006.544.098.696.27.134.153.286.527.338.831.337 1.97.874 4.317 1.81 7.916.569 2.193 3.347 10.674 4.33 13.22 2.038 5.285 4.094 9.334 5.842 11.504.186.23.29.497.23.593-.277.443-1.48-.068-2.154-.915-.835-1.05-2.929-5.06-3.897-7.46-1.209-3-1.466-3.657-1.97-5.066a208 208 0 0 1-1.604-4.83c-.586-1.828-1.38-4.287-1.762-5.462-1.336-4.103-2.66-9.756-2.425-10.361.066-.168.305-.247.566-.24m2.263.432c.702.054.893.302 1.03 1.345.186 1.415 2.28 9.379 3.048 11.595.12.349.483 1.488.806 2.533 1.217 3.939 2.317 6.9 3.53 9.5.959 2.053 2.053 4.21 2.609 5.146.628 1.055 2.537 3.583 2.984 3.949.137.112.25.303.25.423 0 .133-.171.217-.44.215-1.461-.011-2.936-1.726-5.217-6.061-1.627-3.092-1.722-3.307-3.562-8.066-1.603-4.143-4.13-12.307-4.867-15.714-.536-2.484-.822-4.13-.78-4.489.043-.373.109-.415.609-.376m2.146.511c.891 0 1.16.372 1.535 2.126.186.864.48 2.076.655 2.692.174.616.428 1.614.562 2.22.975 4.37 3.887 13.185 5.46 16.527.383.814.696 1.5.696 1.526 0 .16 2.486 4.496 2.808 4.897l.832 1.043c.766.968 2.177 2.227 3.088 2.756.484.281.88.613.88.738 0 .355-1.166.343-2.065-.022-1.104-.448-1.792-.983-2.915-2.272-1.515-1.738-2.426-3.147-3.59-5.553-2.146-4.433-3.031-6.753-5.62-14.725-1.128-3.475-2.87-10.418-2.87-11.439 0-.479.038-.514.544-.514m2.47.633c.79 0 .968.287 1.48 2.376.266 1.088.66 2.583.874 3.324s.533 1.88.706 2.534c.875 3.298 3.136 10.142 4.289 12.983.887 2.185 2.822 5.884 3.76 7.188 1.296 1.8 3.016 3.401 4.358 4.054 1.05.511 1.3.823.809 1.01-.651.247-1.828-.1-2.996-.884-2.125-1.426-2.86-2.323-5.423-6.62-1.334-2.236-4.083-9.203-5.404-13.694-1.41-4.8-2.903-10.87-2.903-11.808 0-.401.06-.463.45-.463m2.449.643c.256.023.525.116.658.268.134.152.403.954.597 1.781.654 2.78 1.942 7.588 2.343 8.747.218.632.605 1.754.858 2.495 1.487 4.344 3.997 9.985 5.634 12.663 1.72 2.813 3.577 4.4 5.472 4.677.79.116.91.23.548.526-.116.096-.71.217-1.321.268-1.442.121-2.089-.193-3.87-1.882-1.334-1.265-1.971-2.099-2.924-3.825a22 22 0 0 0-.64-1.107c-.107-.147-.82-1.754-1.969-4.434-.772-1.803-2.997-8.157-3.715-10.607a49 49 0 0 0-.411-1.346c-.074-.218-.392-1.464-.706-2.77-.315-1.307-.64-2.625-.724-2.93-.34-1.24-.51-2.21-.412-2.367.083-.132.326-.18.582-.157m-18.445.642c-1.06-.018-2.055.095-2.786.357-2.103.754-3.54 1.876-3.425 2.673.079.552.895.546 2.264-.016 2.24-.92 4.508-1.116 6.917-.599 1.207.26 3.178.874 4.086 1.273.697.307 1.342.263 1.41-.097.051-.265-1.523-1.372-3.56-2.506-1.197-.666-3.14-1.057-4.906-1.085m20.513.013c.114-.005.269.042.468.123.48.197.798.845.817 1.667.01.4 1.073 4.378 1.756 6.571.542 1.738 2.302 6.247 3.648 9.347a93 93 0 0 1 1 2.369c.117.305.372.838.567 1.186.196.349.648 1.191 1.005 1.871.916 1.742 2.354 3.657 3.132 4.172.512.339.897.451 1.717.5 1 .059 1.088.035 1.637-.441 1.239-1.075.858-3.22-.646-3.638-.416-.115-.593-.082-.921.173-.615.478-.54.83.154.72.447-.072.657-.01 1.041.31.265.22.482.532.482.694 0 .515-.368 1.118-.824 1.35-1.073.55-2.352.055-2.873-1.11-.269-.6-.287-.803-.135-1.504.097-.445.352-1.016.567-1.268.818-.961 2.576-1.213 3.954-.566.466.22.722.504 1.082 1.21 1.025 2.007.252 4.133-1.885 5.19-.506.25-.966.332-1.843.327-1.238-.007-2.06-.294-2.821-.985-.567-.514-2.504-3.126-2.92-3.937-.195-.381-.48-.87-.634-1.089-.38-.537-2.019-4.079-2.563-5.541-.243-.653-.673-1.757-.957-2.454-1.748-4.298-3.443-9.863-4.088-13.428-.242-1.335-.259-1.805.083-1.82m2.328.76c.636 0 1.137.623 1.35 1.679.104.513.252 1.148.33 1.409.601 2.022 1.355 4.407 1.601 5.067.163.435.365 1.04.451 1.345s.423 1.267.747 2.138c.325.871.794 2.153 1.04 2.85.582 1.642 1.86 4.552 2.895 6.591.706 1.392.801 1.684.68 2.102-.153.526-.539.705-.81.377-.309-.373-2.778-5.4-3.484-7.092-.381-.914-.927-2.196-1.213-2.849-.551-1.26-1.58-4.062-2.499-6.808-.65-1.942-1.495-5.483-1.495-6.265 0-.477.05-.544.407-.544m-38.372 1.865c1.723.014 3.645.957 4.183 2.05.18.368.281.742.225.831-.148.237-.25.206-1.016-.307-1.558-1.044-4.162-1.324-6.23-.671-.82.258-1.028.276-1.172.104-.611-.728 1.979-2.024 4.01-2.007m53.058.896c-.308.305 2.192 3.351 4.002 4.875 1.29 1.085 4.438 3.287 5.092 3.561.309.13.855.368 1.213.528s.936.394 1.282.523c.346.128 1.13.421 1.742.651 1.282.482 2.888.849 4.494 1.026.616.068 1.14.133 1.161.145s.04-1.51.04-3.382v-3.405l-1.483-.003c-1.466-.002-3.23-.157-5.245-.463-1.573-.238-6.017-1.48-7.316-2.043-.631-.274-1.187-.498-1.234-.498-.048 0-.886-.363-1.865-.807s-1.826-.763-1.882-.708m-37.483.01c-.772.094-3.074 1.033-4.036 1.647-.218.139-.652.253-.962.253-.5 0-.56.043-.523.377.023.207.25.657.505.999.38.51.447.731.378 1.238-.144 1.063.666 2.105 3.37 4.327 1.13.93 1.495 1.071 1.66.646.065-.168-.205-.552-.822-1.168-.505-.505-.853-.958-.773-1.007.08-.05.632-.007 1.226.093.916.155 1.292.14 2.465-.098 1.331-.27 2.035-.536 3.242-1.217.455-.257.73-.298 1.46-.217.973.108 1.465-.053 1.747-.573a.6.6 0 0 0 .005-.613c-.204-.378-4.412-2.421-5.75-2.792-1.153-.32-3.509-.253-4.95.142-1.057.289-1.085.07-.056-.446.54-.27 1.185-.426 2.057-.498 1.623-.133 2.999.234 5.825 1.556 1.933.904 2.527 1.05 2.66.653.06-.175-1.61-1.42-2.484-1.853-1.701-.843-4.976-1.602-6.244-1.448m-16.026 1.57c.495.006.974.057 1.386.163 1.718.444 3.151 1.17 2.867 1.45-.042.041-.462-.065-.936-.234-2.218-.79-4.316-.847-5.829-.16-.44.2-.849.39-.907.42-.247.128-.303-.323-.082-.657.393-.592 2.018-.996 3.501-.981m59.136 1.677c.744 0 .983.712.423 1.265-.176.174-.423.317-.549.317-.279 0-.731-.427-.731-.689 0-.37.502-.893.857-.893m-44.093.865c.132-.077.29.124.382.538.1.45.75 1.17 1.206 1.334.169.061.145.089-.081.093-.797.015-1.87-1.167-1.627-1.792q.053-.135.12-.173m3.684.11c.383-.138-.205 1.133-.674 1.458-.205.142-.424.258-.486.258-.147 0 .966-1.646 1.16-1.716m43.387.132c.565 0 .816.294.923 1.081.07.52.025.66-.29.878-.463.32-.438.321-1.048-.046-.637-.384-.751-.573-.632-1.04.138-.544.532-.873 1.047-.873m-60.132.154c.141-.04.187.098.056.44-.213.552-.587.962-1.137 1.243-.882.45-1.796.17-2.147-.662-.375-.886-.195-1.223.227-.425.584 1.107 1.646 1.124 2.373.04.25-.376.487-.596.628-.636m11.786.03c.322-.067.413.17.689 1.044.146.462-.263.479-.99.04-.626-.377-.663-.677-.113-.925.173-.078.307-.136.414-.158m6.605.01q.194.028.441.131c.584.24.531.468-.187.809-1.293.614-1.673.487-1.158-.385.262-.443.515-.613.904-.556m-23.125.28c.235 0 .32.107.32.398 0 .217-.053.389-.12.382-.579-.06-.764-.78-.2-.78m6.35.021q.182.036.392.147c.418.22.259.43-.606.797-.824.348-.805.344-.913.172-.044-.071.059-.356.229-.632.243-.396.532-.554.898-.484m-8.092.409c.062-.048.117-.041.17.012.547.54.417 3.278-.214 4.526-.388.767-1.317 1.773-1.93 2.092-.858.445-2.795.158-3.27-.485-.272-.368-.283-1.337-.018-1.679.58-.747 1.569-.812 2.2-.145.246.261.525.475.622.475.343 0 1.147-1.336 1.536-2.553.465-1.454.717-2.1.904-2.243m70.559.21c.305-.015.6.113.858.385.298.313.351.502.275.963-.051.316-.178.676-.28.799-.303.36-1.323.28-1.706-.134-.586-.632-.602-1.018-.069-1.545.302-.298.617-.454.922-.469m4.595 1.082c.416.001.81.126.984.373.359.507.308 1.03-.143 1.475-.551.545-1.265.516-1.862-.074-.565-.558-.591-.95-.097-1.41.264-.245.702-.366 1.118-.364m-58.329 3.536c-.15-.032-.245.05-.414.217-.364.36-.33.453.468 1.23 1.158 1.128.933 2.162-.471 2.162-.573 0-.873-.132-1.787-.79-.948-.683-1.202-.793-1.849-.793-.64 0-.81.071-1.165.488-.228.268-.414.557-.414.643 0 .596 1.107 1.419 1.762 1.31.226-.039.89.139 1.522.407 1.956.828 3.534.402 4.15-1.118.512-1.265.142-2.427-1.052-3.295-.39-.284-.599-.43-.75-.461m16.178 2.304a.28.28 0 0 1 .245.08c.121.12.264.484.318.808.074.455.025.669-.219.939-1.67 1.851-2.152 5.195-1.054 7.315.27.523.925 1.418 1.456 1.99 1.137 1.225 2.555 1.957 4.374 2.258.937.155 1.21.269 1.469.611.175.232.274.534.221.671-.075.193-.326.246-1.103.236-2.151-.028-4.073-.762-5.908-2.257-1.156-.943-1.871-1.904-2.424-3.254-.54-1.321-.516-3.88.056-5.637.602-1.852 1.9-3.682 2.569-3.76m36.904.227c.116 0 .263.022.428.07.518.146.53.169.657 1.33.072.65.103 4.844.07 9.319l-.058 8.135-.37.295c-.425.34-.898.384-1.08.098s-.082-18.995.102-19.178c.047-.046.134-.069.25-.069m3.59.816c.126-.024.3-.01.529.027.374.06.763.19.863.291.289.29 1.128 3.185 1.475 5.09.385 2.116.548 5.013.36 6.428-.076.575-.433 1.969-.794 3.098l-.655 2.055-.817.186c-1.023.234-1.105.233-1.201-.014-.043-.11.215-1.161.574-2.335.793-2.596 1.016-4.338.907-7.043-.086-2.13-.412-3.837-1.175-6.14-.383-1.159-.444-1.57-.066-1.643m-39.552 1.53c.46 0 .764 1.129.483 1.795-.895 2.127-.425 4.324 1.18 5.513.433.32 1.084.656 1.447.747.562.14.71.271 1.016.893.197.401.318.796.267.878-.196.312-1.498.022-2.717-.605-.949-.489-2.084-1.723-2.658-2.889-.448-.912-.506-1.19-.517-2.454-.017-2.056.688-3.879 1.499-3.879m-33.085.395c.214 0 .567 1.08.674 2.065.072.664.01.945-.353 1.656-.58 1.131-1.983 2.463-3.19 3.027-1.089.51-1.993.568-3.428.225-2.245-.537-3.143-3.225-1.742-5.21.672-.954 2.631-1.353 3.784-.773.664.335 1.205 1.3 1.205 2.152 0 .5-.106.706-.595 1.148-.662.6-1.276.694-2.03.308-.816-.417-.9-1.32-.171-1.853.264-.193.48-.444.48-.558 0-.292-.496-.252-.902.073-1.349 1.08-.66 3.002 1.18 3.293.884.14 1.848-.356 3.031-1.557.979-.993 1.455-1.9 1.764-3.363.074-.349.205-.633.293-.633m-46.211 2.435.016 6.224.016 6.224.55-2.612c.42-2.007.563-3.127.619-4.83.086-2.663.166-2.743 1.475-1.48l.877.848-.08 1.423c-.045.784-.344 2.744-.665 4.355-.786 3.936-.884 5.816-.402 7.6.2.74.562 1.742.806 2.225.816 1.617 1.004 2.554.9 4.496-.093 1.761-.442 3.334-1.045 4.71-1.51 3.446-1.629 5.86-.476 9.748 1.268 4.277 1.291 4.402 1.312 6.685l.02 2.139-.75 2.137c-1.222 3.488-1.306 6.068-.294 8.97.91 2.608 1.18 4.082 1.174 6.388-.007 2.257-.17 3.2-.964 5.541-.468 1.38-.577 1.967-.648 3.459-.092 1.948.077 3.25.69 5.277.565 1.867.885 3.793.895 5.4.006.785-.054 1.566-.142 2.234h2.15c-.047-1.41-.127-18.019-.184-39.882-.067-25.766-.167-41.509-.264-41.819-.106-.342-.996-1.267-2.87-2.979zm63.86.149c-.092-.059-.441.032-.776.2-.53.268-.692.282-1.29.118-1.142-.314-2.383-.245-3.065.171l-.596.365-.928-.343c-1.023-.378-1.347-.348-2.644.245-.593.27-.877.322-1.172.21-.473-.177-1.009.062-1.014.453-.002.15-.146.585-.322.969-.176.383-.279.827-.227.988.122.383.452.37 1.333-.05.75-.36.81-.363 4.186-.294 1.284.027 2.14-.04 2.826-.217 1.442-.372 2.13-.324 3.168.216 1.245.647 1.744.394 1.308-.664a11 11 0 0 1-.417-1.389c-.112-.478-.279-.92-.37-.978m16.414.057a.4.4 0 0 1 .208.025c.29.11 1.852 3.284 1.852 3.763 0 .424-.33.373-1.083-.165-.481-.345-.735-.695-.984-1.352-.446-1.178-.42-2.192.007-2.27m-32.784 1.42c.162-.024.301.103.408.382.27.698.178 1.357-.266 1.932-.568.736-2.555 1.994-3.784 2.398-.55.18-1.434.373-1.966.428-.89.091-1.007.065-1.482-.33-.847-.704-.702-.837.967-.9 1.145-.042 1.652-.138 2.234-.421.876-.427 2.84-2.172 3.337-2.965.203-.325.39-.5.552-.524m13.74 2.122a5 5 0 0 0-.708.138c-1.691.435-2.944.47-4.299.12-.81-.21-1.292-.263-1.48-.164-.911.477.43 1.266 2.63 1.548.557.072 1.085.134 1.173.14.399.024 3.034-1.028 3.186-1.272.25-.398.074-.57-.502-.51m-12.637.576c.228-.01.355.184.394.581.044.45-.054.63-.65 1.194-.386.366-1.347.993-2.135 1.393-1.905.969-2.412 1.097-3.162.801-.642-.252-.755-.475-.312-.616 2.078-.666 3.623-1.526 4.867-2.709.442-.42.77-.634.998-.644m-11.052.79c.49-.106.852.124 1.466.802 1.518 1.676 4.85 4.515 7.053 6.01 1.567 1.064 4.975 2.864 6.718 3.55.704.276 1.341.602 1.418.722.085.133.043.443-.11.805-.26.616-.606.73-1.307.433-3.379-1.439-4.419-1.92-5.767-2.66-1.92-1.056-2.697-1.588-4.804-3.288-2.456-1.98-5.687-5.295-5.687-5.833 0-.047.212-.195.472-.328.206-.105.384-.179.548-.214m12.067.922c.243 0 .688.545.688.842 0 .483-1.07 1.444-2.364 2.126-.703.37-1.49.674-1.749.674-.536 0-1.11-.349-.962-.585.054-.086.687-.497 1.409-.91.721-.415 1.651-1.068 2.065-1.451.415-.383.826-.696.913-.696m8.94.409c-.891.028-1.87.276-2.56.674-.53.306-.718.784-.386.987.13.08.43-.006.776-.22.487-.299.778-.343 2.088-.326.946.012 1.794.115 2.243.274.97.343 1.281.33 1.281-.055 0-.422-1.34-1.086-2.594-1.286a4.5 4.5 0 0 0-.848-.048m17.35.224c.157 0 .568.29.916.646.627.64 3.32 2.52 3.608 2.52.083 0 .15.09.15.199 0 .481-3.975 2.654-6.974 3.811-.797.307-2.67.855-4.165 1.218-1.681.407-3.277.691-4.185.745l-1.466.088-.328-.634c-.446-.864-1.085-1.59-1.662-1.884-.677-.346-.407-.508 1.168-.702.744-.091 1.82-.332 2.394-.536 1.864-.662 5.352-2.236 6.19-2.792.45-.298 1.242-.82 1.76-1.16l1.625-1.068c.377-.248.814-.451.97-.451m-42.627.475c.106 0 .607.517 1.113 1.148 1.36 1.696 4.61 4.942 5.965 5.959 1.437 1.079 3.654 2.588 4.741 3.229 1.088.64 4.596 2.21 5.904 2.64 1.208.397 1.331.65.643 1.33-.233.23-.54.412-.681.405-.27-.013-3.193-1.22-4.984-2.06-2.288-1.072-4.917-2.799-7.77-5.105-2.142-1.732-6.166-6.101-6.166-6.695 0-.232.897-.85 1.235-.851m79.495.005c.17-.009.332.04.4.148.146.234-.395 1.957-.684 2.182-.335.26-.835.254-.835-.01 0-.342.5-1.914.677-2.128.097-.117.273-.183.442-.192m-61.77.627c.14 0 .37.177.513.391.243.366.238.42-.071.85-.182.252-.789.753-1.348 1.113-.95.612-1.382.725-2.076.545-.486-.125-.31-.606.356-.977.35-.194 1.027-.705 1.505-1.136.477-.432.982-.786 1.122-.786m-20.65.816c.42-.02.26.437-.313 1.524-1.673 3.174-6.025 9.868-8.412 12.939-3.095 3.98-7.033 8.186-9.608 10.26a89 89 0 0 0-2.075 1.727c-1.258 1.093-1.45 1.041-1.45-.402v-1.161l2.255-2.038c4.7-4.25 7.837-7.852 11.297-12.977 2.49-3.69 2.558-3.796 4.158-6.49 1.203-2.027 1.438-2.274 2.734-2.866.704-.322 1.163-.504 1.415-.516m72.115.293c.207 0 4.457 2.131 4.831 2.423.162.126-.055.426-.958 1.324-.642.639-1.222 1.162-1.29 1.162-.164 0-4.128-3.663-4.128-3.814 0-.17 1.306-1.095 1.545-1.095m-50.054.507c.093.02.177.075.261.158.35.346.2.733-.505 1.304-.512.414-.852.564-1.273.564-.91 0-.875-.281.146-1.198.724-.65 1.092-.89 1.371-.828m61.187.126c.241 0 .072 2.017-.235 2.798-.239.607-.238.72-.001 1.408.22.636.228.88.061 1.636-.107.488-.209 1.956-.224 3.262-.024 2.177-.057 2.43-.403 3.025q-.886 1.524.572 1.085l.354-.106-.033 2.985v.001l-.036 2.986-.4.044c-.667.074-1.792-.605-2.337-1.411-.524-.775-.805-2.094-.854-4.017a8.3 8.3 0 0 0-.326-1.9c-.99-3.122-.991-3.135-.823-4.454.178-1.392.465-2.31 1.07-3.423.224-.414.569-1.198.766-1.742l.359-.989.744-.007c.778-.008 1.308-.323 1.488-.885.052-.163.168-.296.258-.296m-31.17.665c.122.002.26.017.436.04.422.054.955.17 1.183.256.398.15.404.168.138.459-.226.247-2.476 1.782-4.41 3.01-2.722 1.727-7.417 3.43-12.014 4.36-1.717.346-4.087.487-4.235.251-.156-.25.048-1.383.283-1.575.103-.084.945-.227 1.87-.319 2.315-.229 4.644-.792 8.088-1.953 1.975-.665 5.9-2.75 7.61-4.044.495-.375.69-.49 1.052-.485m-49.838.318c.21.046.43.214.728.519.477.486.52.594.353.91-.103.198-.207 1.108-.23 2.022l-.04 1.661-.56.277a7.4 7.4 0 0 1-1.26.447c-.384.093-.873.341-1.085.55-.374.37-.382.43-.28 2.09.084 1.36.06 1.743-.117 1.882-.261.204-2.318.851-2.707.851-.629 0-.786.479-.834 2.537-.045 1.952-.05 1.973-.466 2.17-.23.109-1.023.29-1.76.404-1.66.254-1.738.368-1.74 2.497-.002.97-.076 1.604-.204 1.763-.13.16-.83.345-2 .525-.99.153-1.875.369-1.967.478-.158.188-.34 1.104-.56 2.804-.126.976-.4 1.23-1.331 1.23-.412 0-1.242.048-1.844.104-1.242.116-1.173.035-1.872 2.192-.198.61-.46 1.267-.582 1.463-.153.245-.359.348-.66.328-.24-.016-.978-.069-1.638-.119l-1.201-.09v-1.9l.977.052c.69.038 1.042-.013 1.204-.172.125-.125.436-.826.688-1.558.253-.732.542-1.42.645-1.53s.963-.293 1.913-.406c1.001-.12 1.777-.29 1.848-.404.069-.11.213-.817.321-1.574.109-.756.252-1.48.32-1.61.194-.379.878-.637 2.264-.855 1.765-.278 1.816-.344 1.89-2.486.07-2.04-.072-1.897 2.182-2.193.792-.103 1.53-.264 1.643-.356.145-.119.203-.747.203-2.187 0-1.507.055-2.064.217-2.197.195-.16.722-.297 2.3-.595.282-.053.634-.229.782-.39.275-.302.272-.635-.034-2.872-.069-.505-.037-.829.098-.99.111-.132.803-.426 1.536-.652 1.976-.609 1.916-.53 1.872-2.496-.036-1.562-.015-1.682.316-1.912.263-.182.463-.258.672-.212m21.02.126c.364 0 1.987 1 1.926 1.185-.103.31-2.351.145-2.698-.198-.184-.182.446-.987.773-.987m-27.966.158c.32 0 .112.606-.681 1.973-1.612 2.78-6.492 9.747-7.279 10.392-.145.119-.7.784-1.235 1.478-.908 1.18-5.873 6.23-6.898 7.018-.254.195-.596.355-.76.355-.268 0-.302-.15-.322-1.465-.05-3.136-.223-2.664 1.604-4.348 3.35-3.088 6.565-7.11 8.962-11.208.305-.522.707-1.12.893-1.327.302-.336 5.348-2.868 5.716-2.868m63.66.482c.379-.073.724.022 1.05.283l.363.29-.356.476c-.522.698-1.97 1.918-4.112 3.463-6.213 4.482-12.534 7.025-19.037 7.66-1.715.167-5.186.204-5.74.061-.374-.097-.357-.7.033-1.19.295-.37.402-.39 2.042-.407 7.457-.072 15.45-2.97 21.914-7.94a25 25 0 0 1 1.362-.988c.22-.136.772-.578 1.225-.981.463-.412.876-.654 1.255-.727m-42.146.195c.036-.035.812.15 1.724.412 1.858.53 4.491 1.057 6.116 1.221.593.06 1.107.155 1.141.21s-.291.472-.723.927c-.433.455-.841.823-.909.817-.726-.061-2.318-.7-4.366-1.753-2.344-1.204-3.13-1.688-2.983-1.834m51.756.59c.214 0 3.989 3.479 4.056 3.739.027.103-.178.444-.457.757-.278.313-.646.57-.817.57-.297 0-3.673-2.94-4.04-3.519-.142-.223-.06-.388.455-.91.347-.35.708-.637.803-.637m-4.607.302 1.184.047 1.183.047-2.042 1.979c-5.133 4.978-24.792 24.238-29.99 29.382a2719 2719 0 0 1-11.072 10.883c-2.915 2.846-5.37 5.174-5.455 5.174s-.39-.24-.677-.533l-.523-.533 4.856-4.815c5.244-5.198 16.253-15.965 23.84-23.315a2639 2639 0 0 0 11.71-11.446zm-34.77 1.042q.352.035.695.156c1.764.62 2.719 1.855 2.722 3.52.002 1.043-.405 2.125-1.77 4.717-1.067 2.027-1.398 2.914-1.755 4.707-.099.499-.253.953-.342 1.007-.09.055-.358-.087-.598-.315-.24-.227-.512-.413-.604-.413s-.577.357-1.08.793c-.504.435-.93.79-.947.79a2 2 0 0 1-.253-.143c-.17-.106-.204-.421-.145-1.32.085-1.315.11-1.359 2.06-3.68 1.643-1.958 2.768-3.695 3.1-4.785.284-.93.286-1.023.034-1.674-.196-.508-.415-.76-.83-.955-.793-.374-1.29-.332-1.991.167-1.187.843-1.653 1.937-2.239 5.266-.758 4.308-.729 4.212-1.542 5.153-.796.92-1.295 1.1-1.414.507-.039-.196-.16-.818-.268-1.384-.24-1.26-.36-1.426-1.047-1.426-.688 0-.692-.229-.02-1.11 1.574-2.067 2.026-2.815 2.969-4.906 1.335-2.962 1.732-3.526 2.891-4.104.917-.458 1.67-.641 2.375-.568m61.635.435c.194.05.327.17.561.402 1.04 1.028.36 1.95-1.996 2.712-1.89.61-2.16.621-2.16.086 0-.611-.427-1.303-.98-1.586-.274-.14-.434-.311-.358-.382.306-.286 3.083-1.13 4.012-1.22.475-.045.728-.063.921-.012m-103.013.656c.073.027.105.088.105.18 0 .334-1.142 2.212-2.45 4.034-1.317 1.833-2.775 3.528-4.94 5.742-1.002 1.025-1.946 1.863-2.1 1.86-.303-.003-.314-.055-.317-1.556l-.001-1 1.268-1.296c1.515-1.547 3.558-4.039 4.568-5.57.658-.999.848-1.166 1.911-1.69 1.157-.569 1.738-.786 1.956-.704m97.2 1.05c.083.022.137.095.137.232 0 .128.21.34.469.473.692.354.793.852.264 1.302-.53.45-1.266.472-1.694.05-.363-.359-.391-.586-.154-1.204.2-.521.727-.918.977-.853m-20.04.053c.124-.02.237.02.406.11.598.316 3.913 3.746 3.913 4.049 0 .147-.184.507-.409.798s-.504.529-.621.529-1.169-.914-2.338-2.032c-1.905-1.822-2.115-2.077-2.021-2.445.057-.226.325-.566.596-.757.215-.152.35-.232.474-.252m-57.068.447c.543.231 1.62 1.23 1.68 1.557.04.217.091 3.21.114 6.649s.09 7.963.15 10.053c.062 2.09.13 6.988.152 10.885.023 4.21-.02 7.086-.107 7.086-.08 0-.473-.345-.872-.766l-.725-.765-.094-2.6c-.12-3.31-.427-24.133-.424-28.697.001-1.9.057-3.431.126-3.402m20.814.137c.516-.01.96.36 1.189 1.114.183.604.161.69-.497 1.933-.378.716-1.295 2.031-2.037 2.924-1.904 2.289-2.106 2.212-1.64-.63.366-2.222.658-3.117 1.366-4.173.514-.768 1.102-1.158 1.619-1.168m-45.93.654c.304.101-1.992 3.084-3.422 4.445-.803.764-.924.836-1.114.648-.145-.144-.13-2.938.016-3.157.153-.226 4.308-2.007 4.52-1.936m21.153.766c.082 0 .182.16.223.356.12.576.47 28.238.362 28.519-.055.14-.201.256-.324.256-.35 0-1.645-1.461-1.833-2.067-.098-.318-.207-3.146-.262-6.8-.051-3.44-.136-8.676-.189-11.636l-.095-5.384.986-1.623c.542-.892 1.05-1.621 1.132-1.621m7.172.652a.94.94 0 0 1 .419.284c.265.29.262.32-.056.634-.436.431-.628.415-.813-.066-.229-.595.054-.966.45-.852m-41.275.376c-.109-.328-.159 1.537-.16 6.016 0 3.71.057 6.357.135 6.176.075-.174.315-.851.533-1.504a54 54 0 0 1 .77-2.138c.32-.816.372-1.239.376-3.008l.006-2.059-.752-1.504c-.413-.827-.821-1.718-.908-1.979m91.798.237c.193 0 4.89 4.414 5 4.701.052.134-.068.534-.268.888-.199.354-.439.667-.533.697-.295.095-1.358-.796-3.505-2.938l-2.076-2.07.393-.441c.503-.566.822-.837.989-.837m-48.607.671a.34.34 0 0 1 .239.098c.221.22.015.459-1.25 1.454-1.06.833-1.081.845-1.248.68-.283-.279-.029-.73.777-1.38.737-.592 1.193-.86 1.482-.852m72.265.144c.31-.022.63.094.894.356.472.466.515.9.123 1.242-1.071.934-2.665-.033-1.847-1.12.222-.296.52-.456.83-.478m-70.667.927c.649 0 .348.33-1.553 1.702-1.79 1.294-2.251 1.516-2.251 1.084 0-.457 3.18-2.786 3.804-2.786m63.444.406c.192.054.371.45.583 1.254.318 1.206.143 1.866-.797 3.007-.77.934-3.012 4.172-3.949 5.704-.888 1.452-3.455 6.752-4.217 8.707-.918 2.356-1.415 4.13-2.07 7.387-.743 3.693-.962 6.31-.844 10.108.11 3.517.37 5.244 1.478 9.738.925 3.753 2.172 7.008 4.321 11.287.69 1.372 1.023 2.21.96 2.408-.054.167-.375.52-.713.785-1.018.797-1.142.72-2.223-1.38-1.074-2.086-2.828-6.154-3.43-7.955q-1.076-3.218-1.57-5.145c-.278-1.083-.43-1.76-.893-3.96-.129-.612-.521-4.133-.627-5.62-.28-3.946.77-11.064 2.359-15.99 1.565-4.854 5.447-12.215 8.767-16.625a81 81 0 0 0 1.689-2.343c.437-.637.877-1.225.978-1.309q.102-.084.198-.058m-29.011.129c.097.096-5.91 6.124-19.496 19.564-4.361 4.315-9.61 9.538-11.664 11.606s-3.824 3.76-3.933 3.76c-.11 0-.4-.206-.645-.458l-.444-.459 16.74-16.522 16.74-16.522 1.304-.531c.717-.293 1.346-.49 1.398-.438m-32.294.27c.092.026.143.089.143.191 0 .113-.684.701-1.523 1.307s-2.13 1.546-2.87 2.09c-1.427 1.05-1.693 1.162-1.693.705 0-.432.706-1.023 4.358-3.65.67-.481 1.308-.725 1.585-.644m1.752.694c.12-.011.207.028.315.085.506.267.381.509-.604 1.173-1.487 1.003-5.666 3.923-6.417 4.484-.848.633-.989.642-.989.069 0-.354.16-.56.76-.982a336 336 0 0 0 3.485-2.535c2.424-1.782 3.088-2.262 3.45-2.294m39.697.243c.145 0 1.508 1.193 3.028 2.651 2.989 2.868 3.052 2.972 2.443 3.96-.174.283-.413.514-.53.514-.301 0-6.2-5.676-6.2-5.967 0-.312.92-1.158 1.26-1.158m-15.105 1.031c.043.011.07.04.07.082 0 .084-.108.154-.24.154s-.24-.029-.24-.063.108-.102.24-.152a.3.3 0 0 1 .17-.021m42.08.02c.335-.073.571.07.828.458.249.375.19.841-.136 1.062-.272.184-1.13.14-1.342-.07-.106-.104-.192-.388-.192-.63 0-.325.121-.5.47-.679q.206-.106.372-.142m-44.572.525c.732-.185 1.522.558 1.112 1.046-.307.366-.755.264-1.147-.26-.458-.613-.456-.662.035-.786m-2.458.313c.413-.053.845.207 1.402.82.752.826.883 1.198.543 1.534-.448.443-.849.176-2.048-1.368-.431-.555-.49-.715-.309-.829q.206-.13.412-.157m-19.47.169c.08 0-.233.54-.697 1.2-.785 1.117-1.044 1.334-3.796 3.205-1.625 1.104-3.006 2.028-3.07 2.055-.063.026-.164-.031-.225-.128-.224-.358.101-.884.854-1.385.426-.284 2.128-1.512 3.782-2.73 1.655-1.22 3.073-2.217 3.153-2.217m16.706.158c.483 0 .7.17 1.922 1.484 1.381 1.488 1.541 1.775 1.185 2.127a.77.77 0 0 1-.468.189c-.28 0-3.184-3.306-3.184-3.626 0-.095.245-.174.545-.174m-3.264.043c.112-.013.281-.003.516.033.482.074.821.255 1.161.621 1.125 1.21 3.208 3.76 3.258 3.988.03.136-.07.384-.224.552-.153.168-.37.305-.48.305-.111 0-.696-.615-1.298-1.367a89 89 0 0 0-1.661-2.019c-.847-.974-1.436-1.795-1.436-2q-.002-.095.164-.113m-11.282.319c.128-.008.205.037.291.13.27.295.585 1.42.74 2.647.07.551.172 1.047.226 1.1s.512-.308 1.02-.804c.904-.885 1.301-1.095 1.323-.703.007.109.002.749-.01 1.424-.026 1.478.104 1.538 1.124.511 1.02-1.026 1.83-1.55 2.218-1.428.536.168.877 1.326.782 2.657-.16 2.225-1.284 4.042-3.043 4.922-1.062.531-3.16.716-4.205.37-1.635-.54-2.897-1.567-3.624-2.954-.325-.618-.375-.944-.378-2.455-.004-1.949.126-2.403 1.047-3.642.759-1.02 1.043-1.259 1.885-1.59.295-.117.475-.177.604-.185m70.003.15c.345-.039.536.029.743.184.7.526.004 1.427-1.604 2.073-.98.393-1.645.498-1.853.293-.059-.058-.107-.304-.107-.545s-.072-.484-.16-.538c-.44-.27-.064-.559 1.322-1.015.818-.27 1.315-.414 1.66-.453m-60.422.043c.14-.034.317.116.742.566.363.385.957 1.093 1.32 1.571.362.48 1.075 1.351 1.584 1.938 1.334 1.539 1.497 1.81 1.254 2.1-.49.584-1.031.13-3.829-3.22-1.69-2.023-1.788-2.258-1.205-2.864a.3.3 0 0 1 .134-.09m24.362.554c.396 0 6.969 6.459 6.969 6.848 0 .159-.146.57-.324.916-.178.345-.412.625-.52.624-.294-.004-7.326-7.002-7.326-7.29 0-.339.83-1.098 1.201-1.098m31.428 1.036c.395-.033.85.303.85.867 0 .43-.047.471-.54.471-.647 0-.974-.329-.841-.85.08-.317.295-.469.531-.488m-56.42 1.289c.173-.017.466.239.938.761 1.353 1.498 3.008 3.464 3.103 3.687.047.113-.042.345-.198.516-.157.171-.372.31-.48.31-.106 0-.96-.857-1.896-1.905-1.516-1.696-1.703-1.972-1.7-2.495.002-.568.058-.858.232-.874m-13.448.734c.063.01.076.071.076.162 0 .504-.358.988-1.09 1.474-.414.274-1.494 1.003-2.402 1.621-1.7 1.158-1.865 1.237-2.035.966-.232-.37.226-.802 2.574-2.42 2.05-1.413 2.687-1.835 2.877-1.803m34.94.3a.5.5 0 0 1 .191.053c.183.083 2.11 1.859 4.28 3.947l3.948 3.797-.082.602c-.045.332-.198.78-.34.993-.142.215-.347.39-.455.389s-2.157-1.934-4.552-4.294l-4.353-4.29.61-.648c.385-.407.568-.554.752-.55m-21.748 2.182c.29 0 2.742 2.656 2.742 2.971 0 .081-.131.265-.293.409-.467.418-.696.321-1.753-.733-.966-.963-.996-1.018-.996-1.82 0-.703.045-.827.3-.827m-13.435.128c.13-.037.206-.022.241.034.216.344-.134.747-1.402 1.617-.727.5-1.828 1.264-2.444 1.7-1.294.915-1.565.98-1.493.364.041-.352.421-.689 2.054-1.822 1.76-1.224 2.65-1.784 3.044-1.893m31.49 1.715c.229.002.492.025.804.065.607.077 1.51.142 2.006.145 1.292.007 1.546.263 1.738 1.747.084.653.155 1.699.158 2.324.004.994-.047 1.194-.41 1.621-.228.268-.553.488-.72.488-.28 0-.307-.127-.307-1.415 0-.832-.07-1.46-.17-1.52-.094-.058-.197-.08-.229-.049-.03.03-.108.995-.17 2.143l-.115 2.087-.529.506c-.856.82-1.03.604-1.03-1.285 0-1.21-.048-1.586-.199-1.536-.142.046-.225.697-.281 2.228l-.08 2.162-.666.657c-1.005.993-1.176.829-1.176-1.136 0-1.193-.05-1.585-.196-1.537-.321.106-.452 1.053-.37 2.675.076 1.49.066 1.54-.39 2.163-.502.685-1.049.963-1.335.68-.097-.096-.206-.854-.243-1.684-.046-1.027-.126-1.492-.25-1.452-.12.04-.194.805-.223 2.273l-.044 2.215-.717.695c-.46.446-.77.64-.87.542-.085-.085-.176-.865-.202-1.735-.037-1.28-.091-1.582-.286-1.582-.204 0-.232.32-.19 2.123l.05 2.122-.845.847c-.465.465-.927.845-1.027.845-.182 0-.388-2.104-.39-3.987 0-.546-.08-.952-.2-1.03-.11-.07-1.153-.163-2.317-.206-2.573-.097-2.787-.217-1.92-1.073l.6-.59h2.116c1.849 0 2.122-.034 2.168-.265.044-.225-.165-.281-1.403-.377-.8-.062-1.497-.18-1.549-.263s.148-.403.444-.71l.54-.557 1.871.08c1.358.059 1.949.028 2.148-.116.404-.292.024-.463-.964-.432a9.4 9.4 0 0 1-1.414-.067c-.776-.12-.785-.459-.032-1.18l.57-.547 2.34-.08c1.666-.056 2.36-.135 2.407-.275.12-.358-.78-.545-2.081-.432-1.094.095-1.253.075-1.348-.17-.078-.201.101-.471.653-.987l.76-.709 1.819.11c1.3.079 1.923.057 2.18-.08.346-.183.347-.196.058-.405-.19-.137-.733-.217-1.475-.217-1.444 0-1.63-.23-.84-1.035l.528-.54 1.936-.043c1.594-.037 1.935-.086 1.935-.282 0-.18-.231-.247-.96-.278-1.807-.077-2.044-.273-1.243-1.028.502-.474.889-.656 1.576-.65m-30.815.122c.259-.05.304.116.256.44-.037.252-.854.896-2.92 2.298-1.576 1.07-2.927 1.946-3.002 1.946s-.136-.205-.136-.458c0-.346.13-.54.521-.787.287-.18 1.026-.686 1.642-1.125 2.182-1.551 3.207-2.232 3.639-2.314m11.786.652c.285-.108 1.954 1.588 1.954 1.986 0 .137-.167.405-.37.595-.204.19-.41.344-.46.344-.144 0-1.732-1.744-1.732-1.901 0-.304.376-.936.608-1.024m-10.835 1.166c.036.018.06.056.082.11.15.388-.687 1.091-3.742 3.133-1.514 1.012-2.835 1.84-2.934 1.84-.101 0-.159-.188-.13-.432.055-.468.628-.914 3.495-2.73.837-.53 1.902-1.21 2.367-1.514.535-.349.752-.463.862-.407m1.356.751c.42.082 1.044.405 1.138.65.169.434-1.608 3.064-3.239 4.79-.452.48-.961 1.058-1.132 1.285-.17.228-.712.94-1.201 1.584a43 43 0 0 0-2.854 4.296c-.777 1.35-1.07 1.176-.949-.558.116-1.638 1.448-3.977 4.097-7.192.68-.826 1.343-1.655 1.473-1.843.817-1.185 2.151-2.895 2.342-3.002.068-.038.185-.037.325-.01m7.698.047c.502-.081 1.166.377 1.834 1.304.32.445.323.478.053.773-.398.434-.707.385-1.372-.218-.854-.776-1.184-1.325-.958-1.595a.72.72 0 0 1 .443-.264m-1.718 1.12c.295 0 2.09 1.938 2.09 2.257 0 .121-.167.374-.37.563-.205.19-.438.344-.52.342-.172-.004-1.325-1.182-1.624-1.658-.409-.654-.17-1.505.424-1.505m-55.388 1.345.003 7.045c.002 6.435.023 6.978.236 6.255.129-.436.495-1.612.815-2.614.527-1.653.579-1.98.566-3.562-.011-1.48-.09-1.992-.524-3.404-.28-.915-.642-2.125-.803-2.691zm84.944.99c.458.012.996.049 1.634.108l1.832.168.325.712c.353.775.371.599-.405 4.074-.177.797-.476 1.304-.66 1.122-.049-.048-.14-.644-.204-1.323-.07-.76-.19-1.259-.313-1.3-.153-.05-.201.389-.201 1.854v1.919l-.631.666q-.632.668-.793.508c-.089-.087-.22-.793-.29-1.57-.081-.892-.202-1.435-.328-1.476-.153-.05-.2.423-.2 2.024v2.089l-.642.634c-.901.89-1.12.68-1.12-1.077 0-.795-.07-1.36-.178-1.425-.32-.196-.384.19-.353 2.189l.03 1.97-.71.69c-.454.44-.766.633-.864.536-.085-.084-.204-.741-.265-1.462-.168-1.988-.454-1.592-.509.703l-.045 1.9-.624.602c-.888.857-1.128.71-1.128-.691 0-1.087-.21-1.55-.498-1.103-.078.12-.096.93-.042 1.801l.098 1.584-.677.754c-.71.793-1.174 1.123-1.343.955-.056-.055-.101-1.112-.101-2.35 0-1.701-.053-2.293-.217-2.428-.123-.1-1.247-.23-2.59-.297-1.728-.086-2.391-.175-2.442-.325-.038-.114.24-.49.62-.837.53-.483.784-.61 1.097-.552.224.042 1.129.12 2.01.174 1.291.08 1.665.053 1.923-.139.523-.388.126-.55-1.648-.67-.906-.06-1.684-.172-1.731-.247s.129-.35.392-.61l.48-.474h2.223c1.718 0 2.295-.053 2.535-.234.5-.377.02-.553-1.53-.558-.75-.003-1.46-.066-1.58-.141-.307-.193-.094-.737.434-1.109.374-.263.769-.316 2.706-.36 1.58-.037 2.332-.114 2.475-.257.355-.35-.157-.503-1.714-.508-1.937-.006-2.096-.125-1.281-.95l.638-.645 2.083.04c2.1.042 2.486-.024 2.486-.424 0-.257-.96-.411-2.194-.354s-1.39-.201-.602-1.002l.633-.645 1.922.028c2.383.034 2.323.04 2.323-.223 0-.241-.794-.411-1.932-.414-.402-.001-.87-.104-1.04-.23-.302-.222-.296-.246.203-.744.491-.491 1.147-.683 2.523-.65m-30.739.234c.219-.079.458.075.935.533.378.363.576.689.545.893-.027.177-.198.418-.38.536-.297.194-.388.163-.92-.319-.61-.552-.765-1.129-.4-1.49a.6.6 0 0 1 .22-.153m-9.716.213c.04.04-.086.266-.28.504-.193.238-.508.654-.7.925-.192.27-.688.68-1.103.91-.828.46-.846.467-1 .314-.243-.24-.075-.65.414-1.012.95-.702 2.596-1.713 2.67-1.64m8.817 1.886c.419.131.873.793.754 1.098-.048.126-.238.307-.421.405-.284.15-.406.105-.81-.295-.262-.259-.477-.535-.477-.615 0-.313.62-.698.954-.593m-1.693 1.664c.674 0 1.138.809.707 1.235-.31.305-.72.22-1.074-.223-.397-.5-.211-1.012.367-1.012m-1.431 1.634a.6.6 0 0 1 .24.025c.53.167.728.683.397 1.045-.312.34-.501.368-.91.133-.537-.31-.258-1.141.272-1.203m-1.344 1.726c.098.01.188.09.35.25.331.328.333.344.046.658v.002c-.333.363-.73.414-1.015.132-.3-.296-.228-.572.22-.862.195-.127.301-.19.4-.18m38.735.823c.18.11.084 1.299-.16 1.951-.102.274-.254.356-.657.348-.596-.012-1.245-.235-1.245-.427 0-.255 1.894-1.974 2.062-1.872m-53.884.567c.776 0 .883.34.883 2.829 0 1.401.063 2.103.207 2.298.166.224.497.291 1.652.334 1.782.067 2.625.216 2.625.463 0 .104-.247.426-.55.716-.613.587-1.255.694-3.043.506l-.95-.101-.436-2.058c-.24-1.133-.592-2.615-.784-3.296s-.309-1.34-.26-1.465c.053-.138.31-.226.656-.226m13.708.317c.491 0 .583.475.158.816-.438.35-.63.368-.747.067-.133-.342.228-.883.589-.883m37.538 1.793c.112.042.602.126 1.087.186 1.14.14 1.307.258 1.292.896-.114 4.645-.278 7.919-.403 7.995-.28.171-.434-.324-.437-1.397-.002-1.107-.1-1.557-.34-1.557-.078 0-.143.919-.143 2.043v2.045l-.498.415c-.614.51-.943.328-.946-.525-.003-1.006-.187-1.762-.428-1.762-.189 0-.207.237-.104 1.386.197 2.203.194 2.219-.713 3.074-.83.783-1.115.915-1.23.567-.037-.109-.104-1.148-.149-2.31s-.159-2.205-.253-2.317c-.117-.139-.919-.241-2.502-.32-2.702-.133-2.907-.254-1.926-1.142l.593-.538 2.156.11c1.85.095 2.155.077 2.155-.124 0-.178-.357-.278-1.468-.413-.808-.099-1.54-.249-1.626-.334-.198-.196.223-.861.77-1.215.334-.216.556-.23 1.479-.088 2.176.335 2.73.37 2.849.18.196-.315-.152-.485-1.3-.64-2.097-.282-2.19-.373-1.271-1.252l.554-.53 1.569.1c.862.056 1.712.14 1.888.185.176.046.429.01.56-.08.404-.274-.186-.574-1.359-.693-1.227-.124-1.523-.22-1.523-.49 0-.297 1.43-1.546 1.667-1.455m-38.899.112c.136-.01.237.07.2.252-.064.322-.771.819-.771.542 0-.103.074-.325.165-.493.101-.187.27-.29.406-.3m-6.286 4.313c.127.041.214.813.268 2.389.059 1.698.138 2.365.293 2.46.118.07 1.197.18 2.4.241 1.202.062 2.28.19 2.396.284.169.138.105.283-.316.72l-.529.547-2.121-.1c-1.829-.088-2.123-.068-2.123.137 0 .273.276.345 1.842.48 1.257.11 1.467.224 1.223.674-.392.724-.905.87-3.02.854-1.803-.013-1.984.01-1.937.258.042.22.323.301 1.453.416.77.079 1.4.207 1.4.286 0 .257-.872 1.252-1.289 1.47-.322.17-.685.18-1.737.055-.731-.088-1.51-.114-1.727-.06-.729.18-.28.48 1.002.668a75 75 0 0 1 1.308.197c.217.065-.092.568-.677 1.1-.75.684-1.018.743-2.326.515l-.561-.098.056-4.433c.042-3.377.105-4.484.265-4.65.377-.389.56-.028.576 1.136.018 1.325.146 1.878.455 1.98.185.061.203-.285.111-2.084l-.11-2.158.54-.58c.296-.32.616-.534.712-.476s.224.82.287 1.693c.17 2.384.454 1.982.552-.785l.08-2.257.534-.47c.293-.26.617-.443.72-.41m-3.8 1.223c.993 0 1.075.325.285 1.13-1.128 1.15-1.503 1.102-1.503-.195 0-.846.115-.935 1.219-.935m-35.898 2.137-.036 29.274h1.69v-.012c.097-1.102.11-2.425.032-3.217-.149-1.513-.693-4.446-.948-5.105-.188-.485-.52-2.784-.579-4.012-.05-1.052.395-3.49 1.054-5.766.485-1.678.527-1.993.52-4.037-.007-1.999-.051-2.333-.441-3.404a140 140 0 0 1-.862-2.454zm87.046 2.471c.214.063.312.44.422 1.168.086.561.059.784-.107.888-.222.139-.967.152-1.782.03-.664-.099-.553-.532.353-1.37.571-.528.9-.778 1.114-.716m-41.208.277c.293.002.359.7.44 2.432.063 1.325.182 2.49.264 2.588.09.108 1.078.218 2.502.279 1.294.055 2.425.173 2.515.262.111.11-.01.338-.376.712l-.54.549-2.334.044c-1.95.036-2.337.083-2.337.281 0 .188.363.267 1.723.38 1.107.091 1.721.206 1.721.323 0 .1-.274.447-.61.77l-.609.59-2.108-.106c-1.656-.083-2.163-.06-2.368.109-.24.196-.238.23.025.42.161.117.715.205 1.276.205 1.269 0 1.992.146 1.992.4 0 .11-.213.426-.475.703l-.476.504-2.225-.111c-1.68-.085-2.254-.066-2.345.08-.216.345.133.471 1.724.616.86.078 1.609.184 1.662.237.13.127-.679 1.165-1.066 1.37-.207.109-.821.105-1.926-.014-1.883-.202-2.768-.102-2.69.302.05.253.5.345 3.211.65.305.035.063.504-.534 1.038-.607.541-.712.578-1.402.498-1.852-.215-3.007-.254-3.229-.109-.39.256-.003.467 1.043.569 2.32.225 2.374.28 1.313 1.31-.703.681-.9.733-1.875.497-.309-.074-1.21-.148-2.003-.165-1.942-.042-2.21-.127-2.336-.739-.126-.61.808-5.127 1.08-5.216.189-.062.277.24.455 1.578q.1.754.33.753c.285 0 .285-.065-.005-1.973-.263-1.732-.235-1.842.658-2.617.56-.486.607-.499.807-.228.118.16.212.691.212 1.197 0 1.07.246 1.857.501 1.605.12-.117.114-.689-.017-1.915-.207-1.933-.185-2.023.694-2.859.843-.801 1.006-.63 1.1 1.16.083 1.564.14 1.778.432 1.6.114-.07.136-.804.066-2.241l-.104-2.139.781-.782c1.123-1.127 1.352-1.031 1.352.556 0 1.107.161 1.854.382 1.78.124-.041.163-.695.125-2.103l-.056-2.045.645-.615c.915-.873 1.079-.736 1.192.994.099 1.5.19 1.83.459 1.666.104-.064.12-.84.048-2.198l-.111-2.097.599-.657c.392-.429.651-.679.828-.678m38.295 2.215 1.621.195c1.1.132 1.69.275 1.834.447.118.139.303.715.412 1.281.11.566.412 1.867.671 2.89.26 1.022.472 1.994.472 2.16 0 .165-.09.327-.201.359-.383.111-1.478-.05-1.597-.235-.066-.102-.122-1.192-.123-2.423-.001-1.595-.059-2.283-.202-2.398-.11-.088-1.12-.249-2.243-.357-1.325-.127-2.042-.26-2.042-.38 0-.1.315-.488.7-.86zm-31.986 4.524a.26.26 0 0 1 .178.127c.072.112.138 1.022.148 2.023.029 2.803-.156 2.594 2.397 2.713 1.185.055 2.282.108 2.436.118.445.03.328.42-.286.953-.563.489-.576.492-2.417.492-1.408 0-1.833.047-1.783.198.041.122.43.213 1.014.238 1.924.083 2.063.272.943 1.292l-.725.661-1.797-.042c-.988-.024-1.888.014-2 .083-.385.238-.015.42.893.438 1.11.023 1.83.165 1.9.376.028.088-.207.436-.522.775l-.573.617-1.885-.086c-1.042-.048-1.986-.02-2.11.06-.407.264.248.555 1.319.584 1.764.048 1.944.254 1.01 1.147l-.57.545h-1.949c-1.729 0-1.955.031-2.004.277-.047.237.08.28.878.293 1.846.031 2.217.394 1.255 1.229-.532.462-.663.498-1.809.513a51 51 0 0 1-1.717-.003c-.546-.022-.97.193-.827.42.052.084.614.197 1.248.25.633.052 1.221.164 1.31.251.105.105-.032.348-.41.72l-.568.562-1.658.003c-.912 0-1.803.026-1.98.055-.486.082-1.572-.062-1.783-.235-.109-.09-.23-.865-.287-1.848a51 51 0 0 0-.186-2.367c-.08-.625-.036-.724.622-1.412.907-.949 1.177-.871 1.305.372.318 3.078.65 3.057.65-.04v-2.227l.509-.504c.86-.852 1.019-.696 1.157 1.14.082 1.087.143 1.29.399 1.338.287.054.295-.033.184-1.727-.064-.98-.154-1.878-.199-1.995-.103-.266 1.154-1.53 1.431-1.438.132.043.262.621.365 1.634.134 1.315.207 1.58.45 1.625.272.051.282-.08.178-2.218l-.11-2.272.679-.606c.472-.422.73-.556.846-.441.204.2.417 1.412.43 2.437.01.754.194.963.45.51.121-.213.064-1.256-.18-3.297-.066-.542 0-.691.573-1.307 1.052-1.127 1.28-.958 1.405 1.044.071 1.141.129 1.354.378 1.4.278.053.287-.06.179-2.08l-.114-2.135.43-.557c.37-.48.686-.713.9-.676m23.822.366c.238-.08.203.205-.115.822-.32.619-.68.819-.885.49-.138-.22.161-.712.674-1.11a1.3 1.3 0 0 1 .326-.202m4.688 1.041c.216.008.311.403.313 1.237.002.773-.114 1.114-.898 2.61-.495.946-1.178 2.113-1.517 2.593l-1.122 1.586c-.278.392-1.054 1.382-1.726 2.2s-1.438 1.81-1.702 2.202-.625.797-.801.896c-.42.239-1.104.138-1.421-.209-.233-.254-.218-.328.176-.902.236-.344.972-1.311 1.637-2.15 3.036-3.832 3.727-4.778 4.87-6.67.673-1.111 1.32-2.25 1.44-2.533s.342-.615.495-.74q.148-.122.256-.12m-44.761.005c.318.092.239.471-.266.986-.709.723-.952.704-.947-.077.003-.578.178-.785.763-.9q.29-.057.45-.01m38.194.928c.09.002.199.063.387.185.488.316.526.66.1.886s-.45.218-.754-.242c-.246-.37-.247-.426-.013-.657.117-.116.19-.173.28-.172m-1.286 1.294c.089.003.17.04.26.114.426.35.582.775.373 1.024-.27.321-.525.283-.926-.14-.435-.457-.44-.681-.018-.904a.63.63 0 0 1 .31-.094m-1.418 1.418c.114.024.235.133.464.35.504.477.593.841.281 1.15-.332.329-.855.208-1.22-.28-.448-.599-.44-.732.057-1.055.197-.127.304-.189.418-.165m9.29 1.214c.303 0 .132 1.057-.223 1.377-.504.454-1.082.735-1.082.526 0-.24 1.141-1.903 1.305-1.903m-10.912.352c.161.042.34.209.62.524.544.612.578.737.33 1.193-.261.484-.88.382-1.347-.223-.484-.628-.51-.914-.115-1.267.208-.187.351-.27.512-.227m-1.781 1.648c.174-.058.298.045.643.405.648.678.774 1.16.407 1.56-.415.454-.63.387-1.188-.363s-.574-1.16-.063-1.494a1 1 0 0 1 .201-.108m12.667.769c.504.308.074.737-2.768 2.757-2.833 2.014-3.06 2.077-1.634.462.484-.549.88-1.045.88-1.101 0-.197 3.36-2.217 3.522-2.118m-14.056.896c.199.026.388.189.582.49.182.284.448.671.59.862.223.299.23.409.046.781-.316.64-.52.623-1.202-.103-.959-1.022-1.055-1.274-.654-1.697.233-.247.44-.359.638-.333m14.19 1.34c.332.046.292.473-.33 1.05-.608.561-4.42 3.375-5.267 3.887-.319.193-.623.35-.675.35-.092 0-.426-.538-.426-.684 0-.089 2.805-2.206 4.084-3.082.528-.362 1.277-.88 1.662-1.148.421-.294.753-.402.952-.374m-15.97.378c.283 0 2.063 1.883 2.063 2.183 0 .093-.113.282-.252.419-.138.137-.313.248-.387.248-.196 0-2.084-2.071-2.084-2.287 0-.269.344-.563.66-.563m-1.507 1.426c.308 0 1.794 1.596 1.802 1.935.003.15-.21.384-.476.52-.48.245-.487.242-1.116-.432-.952-1.019-1.08-1.32-.727-1.705.16-.175.393-.318.517-.318m17.37.56q.109-.02.154.027c.446.44.04.826-3.685 3.484-.759.54-1.425.987-1.48.99-.167.009-.494-.449-.435-.61.061-.167 2.023-1.653 4.084-3.095.723-.505 1.144-.755 1.362-.795m-19.05 1.023c.295 0 1.888 1.761 1.88 2.079-.002.119-.1.341-.217.494s-.322.276-.456.276c-.25 0-2.045-1.91-2.045-2.176 0-.228.555-.673.838-.673" style="fill:navy;fill-opacity:1;stroke-width:.159253"/><g style="clip-rule:nonzero;opacity:.198728;fill:#b3b3b3;fill-opacity:1;fill-rule:nonzero;stroke:#000;stroke-miterlimit:4;filter:url(#a)" transform="translate(0 .616)"><path d="M166.837 235.548c0 3.777-3.087 6.869-6.871 6.869H7.11c-3.775 0-6.861-3.092-6.861-6.87V7.12C.25 3.343 3.336.25 7.11.25h152.856c3.784 0 6.87 3.093 6.87 6.87z" style="fill:#b3b3b3;fill-opacity:1;stroke-width:.5"/></g></svg>