<svg xmlns="http://www.w3.org/2000/svg" xml:space="preserve" width="222.783" height="323.556" viewBox="0 0 167.087 242.667"><defs><filter id="a" width="1.147" height="1.101" x="-.074" y="-.051" style="color-interpolation-filters:sRGB"><feGaussianBlur in="SourceGraphic" result="result3" stdDeviation="4"/><feGaussianBlur in="SourceGraphic" result="result4" stdDeviation="1"/><feBlend in2="result3" mode="darken"/><feComponentTransfer result="result1"><feFuncR tableValues="0 0.2 0.4 0.6 0.8 1 1" type="discrete"/><feFuncG tableValues="0 0.2 0.4 0.6 0.8 1 1" type="discrete"/><feFuncB tableValues="0 0.2 0.4 0.6 0.8 1 1" type="discrete"/></feComponentTransfer><feTurbulence baseFrequency="1" numOctaves="7" result="result0" type="fractalNoise"/><feConvolveMatrix kernelMatrix="-2 0 -2 0 -10 0 -2 0 -2" order="3 3" result="result5"/><feColorMatrix in="result5" result="result4" type="saturate" values="0"/><feComposite in="result1" in2="result4" k1="1.5" k2=".5" k3=".5" operator="arithmetic" result="result2"/><feComposite in2="SourceGraphic" operator="in"/></filter></defs><g style="fill-rule:nonzero;clip-rule:nonzero;stroke:#000;stroke-miterlimit:4"><path d="M166.837 235.548c0 3.777-3.087 6.869-6.871 6.869H7.11c-3.775 0-6.861-3.092-6.861-6.87V7.12C.25 3.343 3.336.25 7.11.25h152.856c3.784 0 6.87 3.093 6.87 6.87z" style="fill:#fff;stroke-width:.5"/></g><path d="M1201.718 326.44c-109.45 0-199 .203-199 .459 0 .255 2.627 4.87 5.833 10.253 3.206 5.381 11.383 19.235 18.181 30.785s13.8 23.25 15.554 26 8.468 13.72 14.929 24.382l11.75 19.394-.542 7.11c-.298 3.913-1.91 16.156-3.583 27.213-5.82 38.465-9.124 54.67-11.447 56.105-.577.357-5.418.733-10.758.846-11.639.245-18.336 2.81-25.136 9.618-6.842 6.852-8.291 10.708-8.213 21.829.058 8.267.412 10.178 2.747 14.718 1.476 2.869 2.683 5.703 2.683 6.302 0 1.037-2.011 2.05-16.997 8.489-8.69 3.733-32.603 14.775-40.864 18.87-6.137 3.043-14.319 7.37-28.14 14.883-26.32 14.307-65.282 40.203-93.496 62.141-6.05 4.705-11.611 8.559-12.357 8.572-1.128.02-1.271-6.884-.836-41.103l.524-41.13-15.315-16.115a5122 5122 0 0 0-28.884-30.124l-13.56-14.001.009 4.502c.01 4.48.09 4.578 18.062 22.995 9.929 10.175 21.607 22.44 25.953 27.249l7.9 8.736.047 70.263c.026 38.642.061 73.634.073 77.76.012 4.124-.006 107.038-.036 228.702-.027 108.431-.678 86.135-.937 114.517h6.192c-.006-2.425-.1-1.162-.101-3.859-.011-41.408.08-43.682 1.874-45.476 1.038-1.038 2.896-1.891 4.134-1.901 1.237-.008 3.264-.284 4.502-.616 3.56-.954 2.81 2.067-1.746 7.01-2.2 2.387-4.006 4.67-4.006 5.071s2.662.573 5.917.386c3.255-.188 6.176-.08 6.486.23s-1.228 2.308-3.418 4.446c-6.16 6.016-5.664 6.902 3.657 6.523 2.826-.115 5.393.202 5.705.707.313.506-1.435 2.896-3.886 5.301s-4.456 4.728-4.456 5.163 2.92.79 6.495.79 6.505.393 6.505.873-2.027 2.744-4.502 5.026-4.501 4.587-4.501 5.126c0 .538 2.446.974 5.438.974 2.993 0 5.748.493 6.119 1.093.237.383-1.048 1.884-1.957 3.133h95.206c1.742-2.678 3.678-5.468 7.873-10.869 3.479-4.479 6.32-9.062 6.32-10.188 0-1.366-2.904-4.4-8.746-9.132-4.812-3.898-10.256-8.314-12.099-9.812-2.667-2.167-3.455-3.639-3.85-7.22-.42-3.824.069-5.556 3.253-11.503 6.616-12.357 11.447-22.444 11.447-23.905 0-1.76-2.766-4.07-16.252-13.596-10.615-7.5-11.676-8.783-13.67-16.454-.929-3.573-.611-5.066 3.371-15.5 2.424-6.35 5.143-13.278 6.036-15.397.894-2.118 1.492-4.716 1.323-5.769-.2-1.252-5.285-4.938-14.69-10.648-14.01-8.506-14.435-8.865-16.252-13.735-2.525-6.768-2.359-10.264 1.075-22.168 4.222-14.636 4.518-16.701 2.59-18.3-.89-.74-7.564-4.122-14.827-7.516-9.487-4.432-13.622-6.904-14.681-8.782-2.883-5.116-.733-4.687 19.77 3.94 5.663 2.383 10.933 4.328 11.714 4.328 2.595 0 2.87-.915 7.993-26.992 2.324-11.827 2.36-12.587.726-14.157-.95-.912-8.85-3.815-17.557-6.45-12.012-3.634-16.235-4.536-17.501-3.738-1.156.728-2.213 4.247-3.436 11.447-3.85 22.661-5.241 26.267-7.892 20.45-.943-2.07-.834-4.585.515-12.329.931-5.35 1.964-12.765 2.306-16.472l.624-6.734-3.39-1.424c-1.866-.78-9.018-3.083-15.893-5.127-11.672-3.469-17.374-6.43-15.664-8.14.716-.716 2.8-.327 19.66 3.694 4.675 1.115 10.387 2.298 12.697 2.627 4.89.697 4.251 2.276 6.715-16.656 1.938-14.887 2.002-18.416.34-19.78-1.003-.822-16.75-4.025-32.798-6.67-4.556-.75-5.231.563-6.026 11.705-1.054 14.769-2.026 21.746-3.023 21.746-.474 0-1.661-1.213-2.637-2.701-1.498-2.289-1.773-5.038-1.773-17.75v-15.039l-3.454-1.12c-1.9-.618-3.626-1.647-3.84-2.288-.648-1.944 1.872-4.098 4.795-4.098 1.516 0 3.234-.57 3.813-1.268s1.581-9.752 2.233-20.12c1.296-20.632 1.317-20.566-4.355-20.597-5.421-.03-8.5-3.305-5.439-5.788 1.998-1.62 13.822.553 16.5 3.032 2.537 2.35 2.85 6.296 1.295 16.243-.515 3.3-1.218 11.2-1.57 17.556-.503 9.045-.358 11.787.689 12.633.735.594 5.164 1.631 9.839 2.306 4.675.674 10.746 1.606 13.496 2.076s8.055 1.168 11.787 1.543c5.91.594 7.115 1.066 9.334 3.703 1.65 1.961 2.361 3.763 2.012 5.108-.297 1.14-2.222 10.295-4.272 20.349-3.229 15.828-3.539 18.46-2.297 19.633.789.745 6.39 2.8 12.44 4.556s12.93 3.83 15.286 4.612c2.357.782 6.07 1.424 8.26 1.424 3.411 0 4.27.457 5.99 3.243 1.103 1.788 2.278 4.292 2.609 5.559.359 1.376-1.62 10.431-4.915 22.499-3.633 13.302-5.221 20.748-4.658 21.81.47.887 8.626 5.067 18.135 9.288 22.881 10.156 21.933 9.597 23.317 13.615 1.157 3.36.857 4.296-6.642 21.002-4.317 9.615-7.855 18.018-7.865 18.677-.03 2.021 5.857 5.776 20.534 13.1 7.727 3.857 14.547 7.622 15.158 8.361s1.415 2.95 1.782 4.915c.542 2.9.11 4.512-2.278 8.562-7.646 12.969-17.34 33.314-16.546 34.727.699 1.243 22.764 17.265 31.457 22.84 3.192 2.047 4.479 6.303 2.673 8.856-.713 1.009-5.91 7.876-11.548 15.26s-10.253 14.368-10.253 15.517 1.244 3.267 2.756 4.713c4.102 3.92 23.308 17.455 24.769 17.455.319 0 .25 1.038.514 1.222h90.658c-.338-.282-1.297-1.092-1.497-1.259-1.915-1.59-2.257-2.713-2.003-6.615.172-2.651.85-4.873 1.562-5.108.742-.244 6.525 6.76 12.66 12.982h8.369c-2.139-2.099-2.13-1.524-5.09-4.64-7.533-7.93-13.698-14.804-13.698-15.268 0-1.86 28.592-29.316 30.529-29.316 1.23 0 6.277 4.345 13.073 11.254 15.105 15.357 16.67 17.385 15.324 19.899-.59 1.103-6.98 7.822-14.194 14.929-2.059 2.028-2.02 1.57-3.702 3.142h7.414c9.484-9.476 11.985-10.985 13.054-4.41l.699 4.309-.11.1h3.803l-.055-17.445c-.118-38.35.066-70.017.413-70.364 1.037-1.037 10.75 7.88 11.53 10.583.396 1.375.726 32.87.726 69.987 0 6.327-.151 2.023-.156 7.24h90.336l8.066-8.324c4.813-4.96 9.531-9.455 10.483-9.986 2.394-1.337 6.77-.064 6.77 1.966 0 .913-4.504 6.142-10.004 11.622-2.292 2.282-2.332 2.866-3.97 4.722h20.984c.112-.008.138-.22.248-.22.14 0 .15.21.285.22h19.265c-2.133-2.907-3.067-5.096-5.732-7.68-4.75-4.605-5.164-6.542-1.406-6.542 3.162 0 11.243 8.698 14.286 14.222h86.717c.265-1 .559-1.668.734-2.72.368-2.2 1.812-9.938 3.207-17.188 1.395-7.251 2.382-14.384 2.205-15.857-.308-2.55-1.285-2.997-20.322-9.15-11-3.556-20.784-7.172-21.746-8.04s-1.755-2.55-1.755-3.738 2.495-11.104 5.54-22.031 5.333-20.399 5.08-21.057c-.486-1.268-8.847-5.518-19.614-9.968-18.93-7.824-21.792-9.484-23.445-13.615-1.48-3.7-1.456-4.08.413-6.642 3.126-4.285 15.07-31.95 14.47-33.515-.48-1.252-12.822-8.767-25.44-15.49-12.911-6.878-14.233-10.483-7.992-21.855 10.457-19.053 15.955-30.275 15.434-31.512-.312-.74-6.464-5.625-13.67-10.85-16.182-11.732-20.772-15.714-20.772-18.025 0-.988 5.399-8.477 11.998-16.637 6.6-8.16 11.998-15.677 11.999-16.702 0-1.026-1.235-2.92-2.747-4.217-1.513-1.298-7.924-6.699-14.25-11.999-14.086-11.803-15.24-13.069-14.386-15.801.363-1.161 4.119-5.936 8.341-10.611 11.748-13.005 18.044-20.942 18.044-22.73 0-.89-6.301-7.97-14.001-15.737l-14.001-14.12v-11.19l9.251-8.507c5.088-4.682 11.84-10.64 15.003-13.239 3.928-3.227 5.75-5.447 5.75-7 0-1.29-5.193-9.67-11.998-19.357-6.6-9.397-12.007-17.735-12.007-18.53s1.179-2.378 2.618-3.51c2.569-2.02 4.382-1.99 4.382.073 0 1.357 20.48 31.062 22.968 33.313 1.832 1.658 2.356 1.314 13.873-8.912 6.585-5.847 12.23-11.285 12.54-12.09.768-2.002.052-3.697-5.54-13.073-2.659-4.459-4.841-8.623-4.841-9.252 0-3.69 6.938 2.253 11.08 9.49 2.753 4.814 3.104 6.222 2.71 10.98l-.46 5.456-12.687 12.835c-11.866 11.992-12.632 12.992-11.714 15.406.941 2.476 10.692 17.577 17.042 26.395 5.064 7.032 4.436 9.6-5.154 21.038-4.5 5.368-9.669 11.45-11.493 13.514s-3.316 4.206-3.316 4.76c0 .552 2.358 3.627 5.245 6.834 13.174 14.635 20.753 23.902 20.736 25.357-.009.711-4.514 7.3-10.005 14.644s-9.977 14.117-9.977 15.048c0 1.688 4.82 6.756 10.473 11.006 1.637 1.231 5.801 4.87 9.251 8.085 5.158 4.805 6.275 6.406 6.275 9.022 0 2.023-2.912 8.797-8.002 18.613-4.4 8.485-7.991 16.203-7.974 17.152.017.948 2.725 3.744 6.008 6.22a958 958 0 0 1 9.821 7.505c2.118 1.65 5.947 4.462 8.517 6.247 8.765 6.089 8.789 9.881.193 30.492-3.612 8.66-6.57 16.41-6.57 17.226 0 1.719-.099 1.65 19.248 12.476 13.991 7.83 14.796 8.454 15.93 12.237 1.408 4.7.417 10.596-4.208 25.072-5 15.651-5.749 14.336 13.588 23.831 13.95 6.85 16.915 8.71 18.852 11.778 3.28 5.196 3.67 7.008 2.7 12.641-4.605 26.791-4.575 26.458-2.838 28.195.904.904 8.492 3.932 16.858 6.725l15.214 5.08 3.353 4.888c1.845 2.69 3.14 5.62 2.885 6.505-.701 2.43-.774 10.543-1.13 18.328h4.53c.519-2.693.837-2.767.927 0h5.715c.315-66.855.667-147.913.836-230.595.245-120.366.761-194.232 1.35-194.821.522-.522 2.423-.812 4.226-.634l3.28.33-.11 293.996c-.027 71.5.138 80.049.202 131.724h41.332c.008-2.764.267.11.267-3.638v-26.725l-2.747 2.03c-1.513 1.112-8.827 7.659-16.252 14.552-12.405 11.517-16.021 13.958-17.391 11.741-.278-.45-.239-3.365.082-6.477l.588-5.659 17.612-16.72c14.524-13.787 17.657-17.25 17.878-19.77.227-2.587.072-2.825-1.001-1.535-4.014 4.826-32.08 30.039-33.074 29.71-.709-.233-1.318-2.992-1.506-6.816l-.322-6.413 18.071-17.602 18.062-17.602v-12.65c0-7-.412-12.652-.919-12.652-.504 0-1.066.446-1.25.984-.183.537-1.742 1.253-3.472 1.598-5.938 1.183-9.582-5.952-5.797-11.355 1.75-2.498 8.131-3.141 10.244-1.03.933.934 1.194-4.556 1.194-24.712v-25.917l-5.246 5.035c-16.732 16.03-25.193 23.399-26.863 23.399-1.668 0-1.892-.803-1.892-6.927 0-6.475.216-7.15 3.26-10.253 4.95-5.043 17.527-16.67 24.512-22.664 4.982-4.276 6.229-5.931 6.229-8.25 0-1.596-.165-2.903-.368-2.903-.368 0-3.65 3.056-15.728 14.644-8.926 8.563-14.848 13.358-16.5 13.358-1.094 0-1.406-1.84-1.406-8.305v-8.305l11.75-11.447c6.463-6.296 14.119-13.612 17.006-16.262l5.246-4.823v-12.127c0-9.435-.261-11.866-1.195-10.932-.66.66-2.902 1.194-4.979 1.194-2.903 0-4.151-.563-5.383-2.444-1.379-2.103-1.417-2.844-.267-5.255 1.065-2.233 2.117-2.864 5.154-3.114 2.097-.173 4.46.22 5.246.873 1.234 1.024 1.424-2.43 1.424-25.219v-26.413l-5.751 5.44c-17.197 16.271-27.398 25.158-28.269 24.62-.539-.333-.983-3.902-.983-7.928v-7.313l17.253-16.316c10.973-10.378 17.365-17.156 17.566-18.622.174-1.268.043-2.306-.294-2.306s-7.35 6.19-15.581 13.753-15.746 13.744-16.702 13.744c-1.42 0-1.793-1.076-2.04-5.843l-.303-5.843 6.991-6.652c3.846-3.662 11.71-10.935 17.474-16.16l10.483-9.5.073-13.247c.073-12.078-.553-15.27-2.416-12.256-1.064 1.721-6.406 1.091-8.498-1-1.111-1.112-2.003-3.332-2.003-4.999 0-5.54 5.912-8.723 11.07-5.962 1.89 1.01 1.93.437 1.93-24.603v-25.641l-2.811 2.857c-2.556 2.597-8.73 8.42-22.885 21.599-7.512 6.994-9.307 6.315-9.307-3.519 0-5.07.055-5.153 8.25-13.22 4.538-4.467 12.456-11.96 17.593-16.656 7.384-6.75 9.272-9.024 9.004-10.84-.298-2.016-2.248-.553-15.839 11.841-8.525 7.775-16.18 14.008-17.005 13.854-1.16-.215-1.454-1.602-1.296-6.118l.212-5.852 17.042-16.454 17.042-16.464v-14.028c0-12.316-.182-13.882-1.489-12.798-.945.785-2.772.989-5.006.57-6.22-1.167-8.27-7.652-3.822-12.1 1.241-1.241 2.805-1.554 5.999-1.194l4.318.487v-56.932l-14.736 14.13c-17.3 16.585-18.597 17.079-19.063 7.23-.345-7.261-2.647-4.352 20.579-26.009 10.553-9.84 13.22-12.862 13.22-14.984 0-2.366-1.345-1.332-12.247 9.408-15.926 15.688-18.57 17.798-20.367 16.307-.78-.648-1.388-2.983-1.388-5.338 0-4.097.385-4.571 17.006-21.01l16.996-16.813v-11.576c0-9-.261-11.305-1.195-10.372-3.192 3.193-11.805-.841-11.805-5.53 0-4.75 5.75-8.076 10.703-6.193l2.297.873v-26.045l-10.253.018c-30.06.051-65.743-1.235-65.743-2.37 0-.654 17.098-18.794 37.998-40.313l37.998-39.128v-9.472l-6.257 6.431c-3.444 3.538-13.006 13.63-21.25 22.426s-23.137 24.318-33.091 34.497c-28.008 28.643-29.616 30.651-26.826 33.441 1.28 1.28 4.217 1.571 15.94 1.571 10.416 0 14.58.344 15.14 1.25.92 1.488.763 164.091-.166 170.842-.59 4.285-.981 4.827-4.796 6.541-2.284 1.027-7.398 4-11.355 6.606-10.75 7.08-11.222 7.222-17.464 5.402-2.954-.861-12.57-5.76-21.37-10.887-8.8-5.126-20.388-11.741-25.75-14.699-5.363-2.958-9.757-5.702-9.757-6.1s1.584-1.922 3.51-3.39c4.977-3.797 6.494-7.358 6.494-15.205 0-13.173-5.278-18.695-18.034-18.88-3.591-.051-7.062-.421-7.717-.826-1.344-.831-2.354-2.95-13.376-28.158-7.914-18.099-9.44-23.038-6.312-20.442.861.715 2.252 2.62 3.087 4.236 2.533 4.898 9.489 11.743 14.525 14.295 5.972 3.026 10.937 3.038 17.363.046 4.267-1.987 5.522-3.26 8.25-8.379 3.39-6.36 3.995-11.045 2.233-17.189-2.11-7.354-11.138-12.528-19.817-11.364-3.845.515-4.067.382-6.532-3.831-2.824-4.828-10.666-26.65-14.322-39.863-2.059-7.439-2.352-10.691-2.352-26.192 0-11.099.39-17.937 1.038-18.338.568-.35 4.166-6.905 8.002-14.561 3.835-7.657 7.384-13.919 7.882-13.919s2.94 2.86 5.43 6.349c8.248 11.559 21.025 21.677 34.378 27.24 6.24 2.598 7.815 2.825 19.945 2.866 11.856.04 13.458-.168 16.004-2.058 3.967-2.946 4.126-5.96.514-9.757-4.46-4.689-9.336-15.386-14.644-32.136-6.891-21.747-10.603-32.62-12.21-35.775-2.273-4.465-12.967-20.175-14.726-21.635-2.315-1.922-2.011-4.357 1.387-11.089 1.65-3.269 3.004-6.186 3.004-6.477 0-.29-89.551-.524-199-.524m188.61 23.996c1.563 0 6.85 6.098 11.3 13.027 3.658 5.695 7.101 14.567 13.56 34.975 5.35 16.904 10.3 29.306 13.8 34.59 2.97 4.483 3.01 4.72 1.212 6.036-4.917 3.595-25.507-.35-37.014-7.093-6.364-3.73-23.456-21.019-26.468-26.77l-2.48-4.732 2.47-4.511c1.358-2.485 2.985-4.52 3.62-4.52 1.248 0 2.349 3.143 2.37 6.752.021 3.4 1.71 2.69 3.014-1.258.635-1.925 1.779-3.491 2.535-3.491 1.519 0 3.44 5.81 3.473 10.491.012 1.65.424 3.633.91 4.4.681 1.077 1.254.671 2.508-1.754.894-1.73 2.244-3.142 2.995-3.142 1.897 0 4.506 7.012 5.246 14.084.667 6.385 1.17 7.01 3.105 3.914 2.55-4.083 6.175-1.457 8.856 6.412 1.393 4.089 1.92 4.674 3.813 4.199 1.208-.304 4.53.33 7.386 1.415 8.35 3.172 9.117 2.475 3.133-2.885-4.636-4.153-5.243-5.087-4.143-6.413 1.106-1.333.516-2.06-4.171-5.172-6.183-4.104-7.695-6.47-4.649-7.267 2.829-.74 2.519-1.357-2.59-5.117-4.846-3.566-5.523-6.438-1.645-6.992 3.374-.481 2.773-1.391-3.317-5.034-6.353-3.8-6.99-6.442-1.681-6.955 1.783-.172 3.222-.623 3.206-1.001s-2.732-2.233-6.036-4.125c-7.254-4.155-7.722-6.712-1.148-6.293 2.39.152 4.217-.18 4.217-.763 0-.565-2.93-2.472-6.505-4.235-7.25-3.575-8.255-5.803-3.5-7.772 3.668-1.52 3.7-1.867.35-4.539l-2.656-2.122 1.865-3.17c1.03-1.743 2.41-3.169 3.06-3.169m134.389 49.821-22.564 22.84c-12.406 12.562-23.031 23.702-23.62 24.759-.845 1.519-.693 2.2.745 3.252 1.38 1.01 7.067 1.332 23.629 1.332h21.81zm-359.922 24.18c2.86 0 4.915 2.862 4.915 6.845 0 2.038-.86 10-1.91 17.685-1.052 7.685-2.862 23.868-4.024 35.968-3.949 41.112-9.274 71.124-15.132 85.219-1.176 2.83-2.772 5.39-3.546 5.687s-2.772-.68-4.437-2.178l-3.032-2.728 2.444-7c3.121-8.948 5.219-18.93 7.138-34.002.84-6.6 2.179-16.043 2.977-20.993s1.954-13.729 2.572-19.504a893 893 0 0 1 2.48-20.496c.746-5.5 2.13-16.978 3.07-25.503 1.745-15.848 2.816-19 6.485-19m29.05.01c3.889-.023 4.842 1.749 3.84 7.11-.475 2.541-1.584 10.64-2.471 17.998-.888 7.358-2.267 18.012-3.06 23.666-.792 5.654-1.441 12.849-1.451 15.995-.017 7.548-3.4 37.03-6.018 52.449-2.856 16.82-11.16 48.549-15.278 58.374-4.318 10.306-7.923 15.514-15.93 23.005-4.551 4.257-8.161 6.635-12.44 8.195-13.057 4.76-26.337.872-31.575-9.243-2.9-5.598-3.598-19.449-1.259-24.942 2.221-5.218 11.074-14.473 16.013-16.74 4.835-2.218 12.561-2.411 16.427-.413 6.78 3.507 10.841 11.904 9.637 19.936-1.298 8.652-10.977 17.603-19.027 17.593-4.139-.005-9.128-3.242-9.93-6.44-1.617-6.439 4.362-16.555 9.783-16.555 3.748 0 5.168 3.265 3.556 8.15-1.508 4.569-.724 5.863 2.03 3.37 2.876-2.601 3.626-8.03 1.681-12.108-2.705-5.672-8.835-5.825-15.03-.386-11.644 10.224-7.106 27.975 7.148 27.975 6.838 0 12.813-2.754 17.639-8.121 9.875-10.984 17.309-27.727 22.573-50.878 4.384-19.282 9.037-52.537 10.5-75.003.665-10.207 2.12-23.105 4.052-35.995.783-5.225 1.844-13.05 2.361-17.392.988-8.289 1.82-9.574 6.229-9.6m-19.017 1.35c1.59-1.917 7.796-1.76 8.553.212.545 1.42.112 5.8-2.756 27.928-1.35 10.41-2.772 23.256-4.373 39.496-3.547 35.955-10.299 74.763-15.435 88.737-1.593 4.336-3.509 7.902-4.336 8.067-2.254.45-7.272-9.996-5.972-12.43 1.756-3.287 6.977-22.508 9.059-33.368 2.733-14.257 5.691-35.623 8.103-58.503.58-5.5 1.742-16.527 2.59-24.502.849-7.975 1.972-18.946 2.49-24.382.519-5.437 1.453-10.503 2.077-11.254m29.858.267c1.014-1.015 49.832.651 70.529 2.407 33.531 2.844 62.226 6.958 63.648 9.123 1.026 1.563.114 13.935-1.121 15.195-.466.475-3.891.098-7.68-.854-13.223-3.323-23.748-.421-33.68 9.297-8.446 8.264-11.459 14.76-12.284 26.495-.727 10.346.266 17.652 4.29 31.705 3.944 13.77 6.33 24.791 6.33 29.252 0 3.87-.502 4.638-6.99 10.712-7.29 6.822-13.512 15.434-12.422 17.198.368.595 2.165-.416 4.272-2.407 2-1.889 7.274-5.96 11.714-9.04 10.514-7.294 12.313-10.76 10.556-20.294-.66-3.584-2.147-8.853-3.298-11.714-2.888-7.172-6.802-22.635-6.156-24.318.78-2.032 1.86-1.73 5.65 1.599 4.875 4.28 16.738 11.015 19.403 11.015 4.06 0 2.383-2.412-5.052-7.249-7.908-5.144-13.368-10.205-11.953-11.08.488-.3 2.654-.135 4.823.368 5.989 1.389 17.55 1.14 22.986-.496 7.168-2.157 7.479-1.597 6.845 12.292-.686 15.028-3.83 43.554-5.861 53.138-2.46 11.597-8.145 27.568-13.267 37.281-6.779 12.858-19.018 25.126-30.73 30.795-4.713 2.281-10.924 4.775-13.8 5.54-4.859 1.294-26.174 1.813-31.226.763-17.41-3.62-25.86-7.957-58.246-29.886-4.897-3.316-8.24-6.272-8.24-7.276.003-.93 1.152-5.062 2.562-9.187 7.172-20.978 15.429-63.144 17.915-91.503 1.026-11.702.92-11.502 6.045-11.502 3.163 0 6.1.908 9.895 3.05 6.901 3.895 17.599 6.954 24.318 6.954 5.703 0 6.879 1.427 2.535 3.078-2.94 1.118-14.196 4.318-21.029 5.972-2.642.64-4.253 1.589-4.253 2.517 0 2.36 2.18 2.635 11.134 1.415 9.549-1.302 20.55-5.722 30.75-12.366 9.24-6.02 10.326-7.407 9.104-11.668-1.31-4.565-1.405-4.212 2.058-7.836l3.04-3.188-2.287-3.041c-5.702-7.552-11.637-10.81-23.73-13.046-11.768-2.176-28.528.596-37.685 6.238-4.071 2.508-6.385 2.471-6.385-.11 0-2.745 6.22-5.342 21.7-9.05 15.14-3.626 25.685-3.861 35.82-.817 3.838 1.153 8.668 2.32 10.73 2.6 3.518.477 3.748.346 3.748-2.14 0-5.67-10.114-12.114-21.23-13.524-10.815-1.37-20.918.548-39.965 7.607-5.309 1.968-8.023 2.533-8.736 1.82-1.188-1.189 3.285-30.213 4.906-31.834m-49.877.992c1.25 1.506.15 13.482-4.171 45.384-3.381 24.965-4.138 30.608-5.494 40.993-.826 6.325-1.72 13.308-1.993 15.508-1.478 11.9-4.775 27.32-7.056 33.018-2.774 6.93-4.798 8.082-8.902 5.08-1.833-1.34-1.842-1.597-.248-6.743 3.068-9.904 9.008-45.778 11.74-70.86.57-5.225 1.71-15.128 2.527-22.003.816-6.875 1.971-17.892 2.572-24.492.602-6.6 1.476-12.967 1.939-14.14.99-2.506 7.428-3.742 9.086-1.745m-18.549.882h3.95l-.32 9.996c-.18 5.5-.714 13.606-1.195 18.006-1.294 11.826-4.754 38.635-6.385 49.5a4237 4237 0 0 0-3.151 21.498c-2.18 15.156-4.998 28.778-6.67 32.283-1.653 3.465-5.675 4.093-8.223 1.277-1.79-1.98-1.775-2.188.34-7.717 2.568-6.71 5.314-22.968 8.094-47.846 1.107-9.9 2.906-25.423 3.997-34.498s2.476-20.774 3.077-25.999c1.896-16.478 1.904-16.5 6.486-16.5m-10.06.248c1.032.395 1.516 1.302 1.516 2.756 0 1.262-.855 8.304-1.901 15.646s-2.423 18.296-3.06 24.346-1.62 13.926-2.177 17.5c-.558 3.576-1.635 12.125-2.398 19-2.904 26.167-5.466 39.214-9.095 46.257-1.72 3.338-3.448 3.46-6.826.496l-2.563-2.251 1.993-6.495c3.608-11.764 6.07-28.094 10.483-69.5 1.348-12.65 2.72-26.155 3.05-30.005s1.072-9.131 1.644-11.732c.93-4.223 1.413-4.83 4.52-5.687 2.206-.61 3.783-.726 4.814-.33m-13.982 1.746-.267 5.007c-.342 6.51-1.897 21.95-3.73 36.996-.803 6.6-2.177 18.75-3.05 27-3.003 28.384-6.106 45.882-8.939 50.465-.82 1.328-3.467 1.276-6.017-.12-4.056-2.217-4.342-3.449-2.407-10.426 1.839-6.632 2.579-11.514 7.91-52.422 1.613-12.375 3.41-25.198 3.996-28.498.587-3.3 1.478-10.446 1.975-15.885.497-5.438 1.347-10.331 1.893-10.877s2.713-1.045 4.814-1.112zm-19.495 2.168c5.82-1.342 6.011 1.717 1.966 30.84-1.146 8.25-2.515 19.269-3.041 24.494s-1.154 10.402-1.396 11.502c-.243 1.1-1.36 8.525-2.49 16.5s-2.788 17.328-3.675 20.78c-1.946 7.58-3.707 8.875-8.177 6.046-1.76-1.115-3.197-2.536-3.197-3.17s1.327-7.68 2.95-15.654c2.865-14.087 4.468-24.187 7.615-48.003.836-6.325 2.175-16.06 2.977-21.635s1.46-11.9 1.46-14.057c0-4.558 1.49-6.832 5.008-7.643m-12.274 2.352c3.253-.023 3.687 3.323 1.856 14.148-.869 5.135-2.03 13.839-2.582 19.339-3.172 31.603-7.873 59.876-10.795 64.879-2.104 3.603-3.727 4.124-7.212 2.324-2.97-1.535-3.083-4.242-.542-13.128.932-3.257 2.347-9.78 3.152-14.498 2.812-16.496 4.417-26.66 5.86-37.079 2.562-18.483 4.539-30.864 5.22-32.705.86-2.331 2.29-3.261 5.043-3.28m248.51 28.755c5.704 1.255 9.533 3.753 8.36 6.808-.687 1.79-.956 1.758-11.511-1.066-7.507-2.008-14.821-1.071-23.96 3.06-6.063 2.74-6.137 2.756-6.137 1.543 0-2.212 8.203-8.04 13.643-9.692 6.325-1.923 13.9-1.907 19.605-.653m-87.204 8.507c6.355.733 11.842 2.181 14.488 4.116 3.752 2.744.396 2.96-8.792.56-5.157-1.346-11.88-2.382-15.232-2.342-7.199.085-20.841 3.508-27.57 6.918-5.308 2.69-6.523 2.949-7.387 1.552-1.774-2.871 11.659-8.62 24.815-10.62 6.1-.927 13.324-.916 19.678-.184m238.019.726c1.55 0 3.175.562 3.601 1.25.837 1.35.477 173.217-.368 175.417-.778 2.03-7.033 1.677-8.176-.459-1.341-2.506-.265-173.287 1.103-174.958.562-.688 2.29-1.25 3.84-1.25m30.648 1.314c4.821 1.04 7.733 7.618 2.655 11.612-1.45 1.14-2.905 2.005-3.243 1.93s-1.643-.33-2.894-.57c-5.465-1.049-6.588-8.697-1.746-11.87 1.805-1.182 3.62-1.449 5.228-1.102m-190.053.542c9.634.115 17.424 3.467 14.607 6.284-.743.744-2.7.583-6.568-.542-6.14-1.785-14.889-2.009-21.691-.551-9.41 2.016-11.006 2.194-11.006 1.23 0-2.573 15.21-6.534 24.658-6.421m-107.121 13.138c2.744 0 3.721.502 4.382 2.25.468 1.238.647 2.592.404 3.005-1.249 2.12-8.323-1.176-8.323-3.877 0-.911 1.203-1.378 3.537-1.378m11.098.165c.941.457 2.139 1.812 3.142 3.84 1.325 2.679 1.575 3.996.771 3.996-1.737 0-5.549-4.334-5.549-6.311 0-1.541.694-1.982 1.636-1.525m17.86.818c.984 1.592-2.164 5.945-5.108 7.064-4.496 1.71-4.46 1.457.523-3.94 2.42-2.621 4.161-3.81 4.584-3.124m8.204.624c2.879 1.755 2.782 4.855-.193 6.21-1.426.65-3.022 1.186-3.547 1.186-1.458 0-1.134-4.376.487-6.56 1.152-1.55 1.808-1.716 3.253-.836m59.11.625c.649-.217 1.613.745 2.14 2.131 1.917 5.043 8.643 6.255 11.879 2.14 1.081-1.374 2.46-2.498 3.068-2.498 2.12 0 1.09 2.84-1.966 5.411-4.55 3.829-9.195 3.52-13.615-.9-3.4-3.4-3.9-5.486-1.507-6.284m-9.133.772c2.484 0 5.921 4.22 4.85 5.953-1.244 2.014-8.477.55-10.077-2.04-.963-1.558 2.188-3.913 5.227-3.913m200.912.027c5.263.864 8.807 6.581 4.419 10.97-2.687 2.687-9.05 2.715-11.466.046-2.228-2.463-1.354-8.536 1.443-10.033 1.907-1.02 3.85-1.27 5.604-.983m-158.863.8c1.218-.366 3.144 4.428 6.165 14.258 3.856 12.549 9.656 25.453 12.494 27.81 1.22 1.01 2.292 1.036 5.1.11 13.512-4.46 21.967 9.987 12.126 20.725-2.826 3.084-4.019 3.634-8.691 3.997-4.703.365-6.022.026-10.05-2.563-6.626-4.26-13.049-14.238-17.474-27.167-1.579-4.61-1.833-7.924-1.599-20.487.201-10.798.712-16.318 1.93-16.683m-8.874 1.387c.86-.287 1.222.192 1.001 1.332-.19.98-.95 1.986-1.69 2.232-.861.287-1.223-.192-1.002-1.332.19-.98.95-1.986 1.69-2.232m170.282 16.132c1.559-1.878 9.351-1.728 11.3.22 2.374 2.375 1.954 7.142-.882 9.978-3.169 3.169-6.968 3.129-10.207-.11-2.054-2.054-2.442-3.188-1.948-5.66.34-1.698 1.123-3.688 1.737-4.428m-461.503 23.84c5.756.485 5.102 2.365-1.994 5.752-10.749 5.13-16.496 14.631-17.529 28.985-.332 4.631-1.08 8.572-1.662 8.764-1.84.607-5.258-4.014-6.431-8.7-1.509-6.023.049-15.52 3.51-21.424 4.628-7.898 15.765-14.078 24.106-13.376m214.307 2.288c-2.61-.828-9.48 3.752-11.503 7.662-.804 1.556-1.433 5.57-1.433 9.178 0 7.275 2.038 10.926 7.414 13.266 3.886 1.692 6.188 1.687 10.593-.027 1.925-.75 6.872-2.661 10.997-4.245 5.759-2.21 7.814-3.528 8.847-5.677 1.22-2.54 1.13-3.027-.928-5.219-3.428-3.648-8.518-3.27-14.562 1.084-6.812 4.91-8.838 5.656-12.09 4.42-3.364-1.28-4.233-2.584-4.253-6.349-.012-2.196 1.11-3.98 4.483-7.12 5.006-4.662 5.477-6.007 2.435-6.973m-202.162 3.648c3.019-.035 5.239.68 5.19 2.15-.021.676-2.528 2.806-5.566 4.73-3.039 1.926-7.3 5.588-9.472 8.15-5.909 6.965-7.876 12.284-8.6 23.289-.535 8.157-.88 9.554-2.36 9.554-4.479 0-7.58-11.372-5.926-21.727 1.823-11.41 7.452-19.429 16.73-23.831 3.17-1.505 6.986-2.281 10.004-2.315m7.662 7.35c4.689-1.791 9.576-1.381 9.555.798-.007.677-2.474 2.935-5.485 5.026-10.107 7.016-15.547 17.526-16.417 31.695-.476 7.754-.886 9.544-2.242 9.803-4.998.953-8.8-10.811-7-21.673 1.977-11.93 9.704-21.11 21.59-25.65m11.797 5.906c3.323-1.718 9.27-1.48 9.27.368 0 .684-2.329 3.153-5.173 5.494-11.241 9.25-15.324 18.04-15.324 32.954 0 10.064-1.034 11.076-5.411 5.337-5.294-6.94-5.117-16.86.496-28.323 3.065-6.26 9.114-12.196 16.141-15.83m17.62 3.62c7.564 0 7.977 2.49 1.231 7.442-10.414 7.644-17.202 19.08-17.832 30.041-.19 3.31-.559 7.031-.817 8.269-.616 2.948-1.826 2.84-4.364-.386-3.894-4.95-4.608-9.627-2.71-17.676 2.184-9.266 6.276-16.367 12.329-21.397 6.114-5.08 8.454-6.293 12.163-6.293m245.662 1.553c1.482.085 5 6.797 9.132 17.418 4.31 11.08 12.13 27.243 13.643 28.196.578.364 2.65-.198 4.612-1.25 7.338-3.933 15.356-.934 18.034 6.753 1.281 3.675 1.244 4.574-.322 8.672-1.181 3.094-2.868 5.27-5.208 6.716-11.264 6.961-22.416.091-31.861-19.624-7.973-16.641-10.513-24.815-10.4-33.431.114-8.697.965-13.53 2.37-13.45m-235.464 6.467c4.192-1.211 8.007-.869 9.94 1.461.975 1.174.204 2.061-4.272 4.924-6.74 4.312-12.865 11.154-16.334 18.246-2.095 4.282-2.71 7.186-2.986 14.12-.38 9.563-1.42 11.007-5.062 7.01-3.544-3.89-4.65-7.027-4.594-13.027.067-7.091 4.874-17.883 11.08-24.86 3.459-3.889 8.035-6.662 12.228-7.874m18.595 7.745c7.217-.33 8.257 1.667 2.553 4.906-7.984 4.534-14.753 11.023-18.236 17.474-3.173 5.877-3.428 7.01-3.399 15.103.035 9.843-.746 10.699-5.071 5.559-5.386-6.402-5.59-11.744-.919-23.988 4.216-11.048 14.088-18.55 25.072-19.054m-355.64 6.422v52.816h2.691c3.333 0 7.313 3.588 7.313 6.597 0 2.73-4.377 6.403-7.635 6.403h-2.37v44.227l7.249-6.983c12.359-11.91 23.206-21.265 24.254-20.919.55.182 1.127 3.682 1.286 7.773l.285 7.432-15.674 14.488c-8.62 7.966-16.096 14.757-16.619 15.094-.523.338-.801 1.595-.615 2.802.286 1.862 2.467.142 14.34-11.355 9.535-9.231 14.711-13.558 16.243-13.56 2.146-.002 2.251.372 2.251 8.002 0 6.453-.35 8.336-1.828 9.747-1.008.963-8.412 7.826-16.454 15.251l-14.626 13.496-.046 12.614-.046 12.613 2.48-.477c6.135-1.173 10.497 2.722 9.133 8.158-.785 3.127-5.896 5.987-9.215 5.154l-2.398-.597v53.211l15.03-14.166c8.264-7.789 15.569-13.976 16.243-13.753.761.251 1.342 2.923 1.525 7.046l.294 6.633-12.798 12.384c-7.037 6.812-14.483 13.849-16.546 15.637-2.45 2.125-3.748 4.112-3.748 5.732 0 2.115 2.173.406 14.755-11.603 8.112-7.743 15.537-14.071 16.5-14.074 1.498-.005 1.745.987 1.745 6.89 0 6.729-.09 6.976-3.748 10.124-2.063 1.775-8.26 7.558-13.772 12.853-5.512 5.294-11.251 10.636-12.751 11.87-2.689 2.21-2.72 2.411-2.72 14v11.75l3.988.056c4.56.055 6.922 2.32 6.973 6.697.047 4.065-3.39 7.039-7.57 6.55l-3.4-.394v54.846l7.754-7.322c4.263-4.028 8.326-8.113 9.03-9.086 2.438-3.362 14.49-12.976 15.251-12.163.42.448 1.081 3.664 1.47 7.138l.708 6.311-6.854 6.716c-3.77 3.69-11.498 11.096-17.17 16.463-8.392 7.941-10.26 10.22-10.005 12.228.282 2.223 1.798 1.078 15.214-11.53 8.196-7.702 15.272-14.01 15.719-14.01 2.476 0 3.727 7.722 1.975 12.192-.499 1.273-8.145 9.012-16.996 17.207l-16.096 14.901v20.745l2.499-.634c3.975-.998 7.337.373 9.05 3.684 1.447 2.8 1.442 3.273-.037 5.53-2.148 3.278-6.255 4.812-9.233 3.455l-2.279-1.03v53.561l7.313-7.055c27.747-26.754 28.017-26.895 26.955-14.553-.343 3.987-1.063 6.007-2.618 7.35-1.18 1.02-8.16 7.55-15.508 14.506-7.349 6.956-13.99 13.001-14.755 13.441-.772.445-1.387 2.371-1.387 4.336v3.537l15.223-14.589c8.371-8.02 15.978-14.58 16.904-14.58 1.313 0 1.768 1.153 2.086 5.246.223 2.888.26 5.707.073 6.257-.186.55-7.943 7.975-17.235 16.5l-14.414 13.22h37.419c-.265-53.408-.562-85.475-.708-189.07-.23-163.16-.642-297.675-.91-298.92-.266-1.243-9.02-10.986-19.457-21.653zm535.495 3.978c-.302-.302-2.163.031-4.135.744-2.393.865-5.652 1.078-9.802.634-4.704-.504-7.236-.256-10.4 1.01-2.732 1.094-5.306 1.435-7.423.993-7.388-1.543-12.15-1.691-16.353-.515-3.862 1.082-4.96 1.01-8.36-.523-4.555-2.054-6.684-1.54-8.002 1.929-.52 1.368-2.144 4.306-3.61 6.523-2.23 3.37-2.456 4.278-1.379 5.576.709.854 1.87 1.33 2.582 1.057s3.91-1.031 7.101-1.69c4.859-1.004 7.477-.926 16.087.514 10.95 1.83 13.382 1.66 22.453-1.599 7.156-2.57 14.486-2.127 18.916 1.149 2.65 1.958 3.227 2.064 4.484.808 1.255-1.256 1.244-2.389-.083-8.755-.838-4.02-1.774-7.553-2.076-7.855m31.254 6.036c.819.165 3.216 4.69 5.411 10.207 2.169 5.45 4.598 10.836 5.393 11.97s1.442 2.642 1.442 3.344c0 1.843-3.92 1.49-8.112-.725-2.794-1.477-4.133-3.184-5.898-7.534-1.256-3.095-2.253-7.009-2.205-8.69.125-4.38 2.23-8.922 3.969-8.572m-306.232.8c.606 0 1.949.619 2.986 1.377 1.755 1.284 1.767 1.54.275 3.748-.882 1.305-6.13 7.097-11.668 12.872s-10.074 10.93-10.087 11.456 5.822 6.863 12.972 14.084c12.495 12.618 13 13.294 13 17.308 0 4.51-.14 4.682-17.823 23.151-4.37 4.564-7.175 8.343-7.175 9.656 0 2.266 3.745 7.154 12.503 16.335 10.795 11.314 11.493 12.392 11.493 17.464 0 4.612-.189 4.89-12.494 18.145-6.875 7.405-12.504 13.882-12.504 14.396 0 1.309 4.869 6.926 15.701 18.117l9.297 9.61v10.794l-10.647 10.74c-10.342 10.43-13.736 12.51-15.012 9.187-.412-1.073 2.745-4.961 10.078-12.403l10.676-10.831-1.296-3.078c-1.625-3.864-22.538-25.127-24.713-25.127-2.086 0-27.083 26.32-27.083 28.517 0 .92 3.602 5.522 8.002 10.225s8.001 8.939 8.001 9.408-1.633.845-3.628.845c-3.212 0-4.652-.998-12.504-8.682-5.886-5.76-8.875-9.424-8.875-10.896 0-1.476 5.017-7.599 15.003-18.319 8.25-8.856 15.002-16.839 15.002-17.74s-6.3-8.284-14-16.399-14.002-15.39-14.002-16.178c0-.787 1.178-2.525 2.618-3.859 8.315-7.695 26.386-28.112 26.386-29.812 0-1.193-5.735-7.836-14.498-16.794-7.973-8.15-14.497-15.382-14.497-16.077-.001-.695 6.513-8.035 14.488-16.307s14.507-15.762 14.507-16.638c0-.875-2.054-3.782-4.566-6.467-4.741-5.069-5.42-8.114-1.92-8.618 1.282-.185 3.585 1.336 6.449 4.254 2.45 2.495 4.976 4.538 5.622 4.538s6.045-4.956 11.999-11.006c5.953-6.05 11.328-10.997 11.934-10.997m6.164 10.004c.84 0 1.314 1.27 1.314 3.518 0 2.788-.497 3.716-2.37 4.429-8.38 3.185-9.016 17.185-.937 20.56 2.72 1.137 3.307 1.93 3.307 4.438 0 1.802-.516 3.05-1.268 3.05-1.7 0-18.074-16.511-17.602-17.75.807-2.12 16.324-18.245 17.556-18.245m477.286 1.01c1.97-.02 3.93.797 5.577 2.444 2.884 2.885 3.145 6.469.698 9.463-.962 1.177-3.326 2.39-5.264 2.7-7.14 1.143-11.654-7.04-6.642-12.053 1.68-1.68 3.662-2.534 5.631-2.554m-222.997 4.989c-1.115 0-5.698.949-10.189 2.113-6.84 1.773-8.99 1.95-13.229 1.075-11.21-2.315-12.542-2.378-13.211-.634-.778 2.027.62 2.958 7.405 4.952 2.887.848 5.255 1.911 5.255 2.36 0 .45-.903 1.633-2.003 2.628s-2.003 2.42-2.003 3.16c0 1.738.92 1.688 5.595-.266 2.832-1.183 6.183-1.51 12.78-1.25 9.944.394 12.077-.842 6.715-3.894-1.692-.964-3.078-2.08-3.078-2.481-.003-.401 1.788-1.643 3.988-2.765 4.245-2.166 5.365-4.998 1.975-4.998m-307.638 2.554c1.107-.699 2.62.062 5.834 2.93 2.383 2.129 4.703 4.492 5.163 5.256.6.997-2.33 4.609-10.437 12.825-6.204 6.289-11.647 11.428-12.09 11.428s-.808-1.528-.808-3.399c0-2.928.53-3.661 3.757-5.292 2.777-1.402 4.498-3.388 6.642-7.643 2.71-5.377 2.815-6.023 1.636-9.959-1.531-5.11-1.543-4.982.303-6.146m-10.703 4.75c4.212-1.617 7.032 3.853 4.548 8.828-1.026 2.054-2.557 3.49-3.932 3.684-2.123.302-2.251-.023-2.251-5.778 0-4.726.368-6.248 1.635-6.734m64.034.689c1.083 0 1.369 1.061 1.139 4.18-.33 4.471-2.234 6.204-3.261 2.967-.888-2.795.404-7.147 2.122-7.147m-254.757.036c1.805-.115 3.65.528 5.09 1.966 2.717 2.718 2.607 7.464-.221 9.445-3.197 2.239-6.507 1.918-9.325-.9-2.995-2.995-3.062-4.497-.377-7.91 1.268-1.612 3.027-2.485 4.833-2.6m393.62.993c.564-.012 3.462 1.805 6.44 4.042 2.977 2.237 9.62 6.622 14.763 9.747a4135 4135 0 0 1 14.056 8.581c6.344 3.898 23.145 11.153 28.985 12.522 6.136 1.438 21.878 2.987 24.2 2.38 3.544-.927 3.034 1.684-.865 4.418-8.273 5.803-16.988 11.666-28.01 18.852-6.27 4.088-12.206 7.433-13.194 7.433-1.65 0-18.796-12.516-51.125-37.327-6.996-5.37-12.984-10.2-13.312-10.73-.657-1.063 16.41-19.885 18.061-19.918m-93.957 1.001c4.302 1.42 5.872 4.545 6.918 13.771.935 8.246 3.034 9.902 10.52 8.296 6.415-1.376 15.528-1.41 18.043-.064 3.002 1.607 4.725 5.922 5.503 13.817 1.047 10.626 1.756 11.212 14.47 11.824 17.554.845 18.518 1.569 20.045 15.012.534 4.695 1.432 9.384 1.985 10.418 1.433 2.677 4.846 3.24 14.791 2.462 14.229-1.113 16.608.856 18.218 15.02.555 4.884 1.633 9.536 2.416 10.4 1.218 1.346 4.87 1.55 26.009 1.452 13.523-.062 24.982-.518 25.466-1.02.485-.5 1.567-4.94 2.407-9.857 2.481-14.525 4.663-16.032 21.7-15.03 12.153.714 12.375.597 13.468-7.028.942-6.574 3.117-11.787 4.704-11.264 1.605.53 2.044 7.991 1.038 17.713-.714 6.904-.996 7.574-3.84 9.233-2.86 1.669-3.638 1.687-11.502.303-9.58-1.686-12.851-1.819-14.764-.606-.787.499-1.86 4.707-2.6 10.234-1.51 11.287-2.878 14.453-6.853 15.839-3.509 1.223-10.55 1.178-19.716-.129-3.575-.51-13.345-.666-21.718-.34-21.41.834-23.052-.182-23.96-14.837-.287-4.63-1.146-9.146-1.984-10.464-1.431-2.251-1.84-2.315-13.772-2.021-13.59.335-14.793-.076-17.207-5.852-.733-1.753-1.63-6.385-1.993-10.3-.453-4.871-1.304-7.927-2.692-9.691-2.018-2.566-2.078-2.574-13.597-2.058-8.602.385-12.25.167-14.203-.836-3.106-1.595-3.607-2.695-4.401-9.665-1.031-9.057-2.618-14.767-4.364-15.7-1.009-.54-5.046-.492-10.096.119-9.45 1.142-15.275.067-16.987-3.133-.555-1.037-1.479-5.176-2.049-9.196s-1.496-7.762-2.058-8.324-3.13-1.029-5.714-1.029c-4.145 0-4.737-.263-5.026-2.297-.18-1.267.176-2.923.8-3.674 1.707-2.058 8.465-2.861 12.595-1.498m243.825.175c3.746.537 2.64 3.228-3.115 7.551-5.435 4.084-9.669 5.752-7.588 2.995 6.313-8.364 8.807-10.819 10.703-10.546m180.268 3.794c5.707 0 8.3 6.519 4.3 10.813-4.205 4.513-11.962 1.72-11.962-4.309 0-4.059 2.875-6.504 7.662-6.504m-498.471 5.007c-1.931 0-5.088 2.829-16.445 14.745-5.363 5.627-9.748 10.846-9.748 11.594 0 .749 5.44 7.053 12.09 14.01 6.651 6.958 12.64 12.65 13.303 12.65 1.641 0 26.606-25.335 26.606-27 0-1.79-24.03-26-25.806-26m-216.282 7.267c2.08-.611 4.505.058 6.633 2.186 2.89 2.89 3.139 5.618.707 7.81-3.253 2.931-6.715 3.1-9.765.477-2.218-1.907-2.66-2.932-2.141-4.998.746-2.971 2.485-4.864 4.566-5.475m542 3.73c5.476 0 8.124 6.462 3.868 9.444-4.453 3.118-9.785.973-9.785-3.941 0-3.156 2.522-5.503 5.917-5.503m-184.045 1.791 20.313 15.343c43.255 32.661 50.381 37.834 52.109 37.85.982.01 6.15-2.756 11.493-6.146 11.939-7.575 46.116-30.292 52.118-34.644 7.028-5.097 8.368-4.162 7.405 5.172l-.57 5.53-35.269 23.547c-19.396 12.955-35.678 23.556-36.178 23.556s-9.428-6.414-19.844-14.259c-17.481-13.163-26.43-20.018-55.692-42.674-5.913-4.577-10.75-8.909-10.75-9.618 0-1.318 1.901-1.88 10.18-3.014zm228.234.211c.608 0 4.134 1.591 7.837 3.537 5.205 2.735 7.267 4.49 9.086 7.745 1.295 2.317 5.194 8.616 8.663 13.992s6.312 10.649 6.312 11.714c0 1.25-2.655 3.897-7.497 7.478-4.125 3.05-7.506 6.021-7.506 6.605s2.93 4.811 6.505 9.39c3.575 4.578 6.495 9.32 6.495 10.537 0 1.386-2.617 4.915-7 9.435-3.85 3.97-6.987 7.862-6.973 8.645.014.784 3.616 3.593 8.002 6.247 4.385 2.655 7.974 5.483 7.974 6.284s-3.411 6.048-7.58 11.668c-4.167 5.62-7.88 10.72-8.25 11.328-.369.608-4.665 2.966-9.554 5.245-8.791 4.1-10.61 4.715-10.61 3.556 0-1.005 4.02-6.456 12.264-16.61 5.196-6.4 7.775-10.391 7.56-11.723-.196-1.223-3.665-4.304-8.773-7.8-4.641-3.177-8.615-6.35-8.838-7.056s3.69-5.432 8.691-10.5c5.002-5.07 9.086-9.792 9.086-10.492s-1.718-3.178-3.822-5.503c-6.816-7.534-11.27-14.07-10.969-16.114.161-1.097 3.441-4.413 7.285-7.359s7.349-6 7.791-6.79c1.083-1.934-.21-4.318-13.027-23.987-4.246-6.514-5.234-9.472-3.152-9.472m137.678 1.002c2.264-.085 4.507.428 5.65 1.57 2.184 2.185 1.96 7.035-.432 9.427-1.238 1.238-3.327 2.003-5.494 2.003-6.522 0-9.851-6.658-5.503-11.007 1.232-1.231 3.515-1.908 5.779-1.993m-444.828 4.18c1.075.176 7.717 4.678 14.754 10.014s38.223 28.7 69.298 51.916 58.027 43.536 59.9 45.154c2.686 2.322 4.063 2.834 6.504 2.417 1.702-.292 13.893-7.696 27.093-16.454 33.95-22.527 38.48-25.356 39.55-24.695.521.322.946 3.22.946 6.44 0 5.835-.016 5.862-4.75 9.297-8.123 5.895-55.57 37.364-58.944 39.091-5.41 2.77-3.934 3.538-24.805-12.834-6.05-4.746-17.75-13.79-26-20.092s-20.423-15.616-27.055-20.699c-6.632-5.082-21.703-16.633-33.496-25.668-46.97-35.987-44.943-34.192-44.943-39.744 0-3.874.252-4.42 1.947-4.143m299.8 1.764c.626-.771 1.375-.558 2.509.33 2.987 2.34 15.835 23.045 15.535 25.035-.17 1.135-3.242 4.023-7.193 6.762-6.832 4.736-8.56 6.446-8.59 8.48-.009.578 3.141 5.154 6.991 10.17 3.85 5.015 7 9.888 7 10.831s-4.094 5.89-9.094 10.988c-6.124 6.244-8.976 9.865-8.737 11.107.195 1.015 4.4 4.546 9.343 7.846 5.514 3.681 8.985 6.67 8.985 7.726 0 .947-4.231 7.138-9.399 13.753-10.612 13.587-12.58 14.663-13.66 7.451-.773-5.151.147-7.857 4.62-13.505 1.616-2.04 2.94-4.132 2.94-4.649 0-.516-1.805-2.384-4.005-4.152l-3.997-3.216v-22.196l4.502-4.814c2.475-2.646 4.502-5.218 4.502-5.714s-1.867-3.018-4.144-5.604l-4.134-4.695.67-11.19.672-11.19 3.977-3.5c2.19-1.925 3.98-3.917 3.97-4.419s-1.403-3.066-3.097-5.705c-2.987-4.656-3.041-4.959-1.929-10.317.64-3.078 1.14-4.842 1.764-5.613m-362.86.073c2.029.212 3.993 1.313 4.896 3.207 1.345 2.82.402 6.283-2.186 8.01-2.246 1.5-5.513.684-7.524-1.873-2.492-3.168-2.562-4.219-.478-7.194 1.174-1.677 3.263-2.361 5.292-2.15m-224.44 4.98c4.011 0 5.549 1.57 5.549 5.668 0 2.205-.633 3.6-1.939 4.3-2.507 1.342-4.005 1.285-7.065-.258-5.232-2.637-2.716-9.71 3.455-9.71m519.344 3.5c2.542 2.735 16.206 22.906 16.206 23.923 0 1.459-5.523 6.804-13.918 13.478-6.722 5.343-7.567 5.74-8.6 4.07-1.356-2.195.766-6.836 4.493-9.83 3.372-2.71 3.962-3.817 4.548-8.508.734-5.875-.187-8.593-4.18-12.338-1.402-1.315-2.343-3.347-2.343-5.053 0-3.478 2.45-7.188 3.794-5.742m177.77 4.502c8.485 0 10.98 1.089 12.412 5.43 1.433 4.342 4.394 6.568 8.746 6.568 4.429 0 4.124-1.365-.726-3.27-2.881-1.132-3.996-2.15-3.996-3.648 0-1.803.608-2.085 4.566-2.085 5.826 0 8.433 1.4 8.433 4.529 0 5.78-13.54 11.297-24.4 9.94-4.661-.582-5.675-.388-7.47 1.406-1.142 1.142-2.37 3.324-2.728 4.85-.36 1.527-2.038 5.406-3.721 8.618-2.069 3.947-2.756 6.253-2.122 7.11 5.163 6.99 4.942 5.796 4.942 26v19.045l-5.503.193c-6.253.214-15.807-1.87-20.046-4.373-7.575-4.475-12.507-33.676-8.378-49.61 2.445-9.438 4.64-12.835 11.08-17.19 3.216-2.175 7.683-5.424 9.93-7.22 5.435-4.343 11.32-6.293 18.98-6.293m-507.852 2.995c1.813 0 22.288 21.623 22.288 23.537 0 2.433-22.456 25.154-23.381 23.657-.347-.563-.43-2.972-.184-5.356.247-2.385.474-4.639.506-5.007.031-.37 1.412-.969 3.068-1.333 3.854-.846 8.034-6.282 8.618-11.208.628-5.302-2.983-11.402-7.653-12.917-3.3-1.07-3.489-1.378-3.776-6.247-.167-2.818.064-5.126.514-5.126m386.123 4.005c1.533 0 1.49 2.221-.082 4.153-.688.845-2.714 2.534-4.502 3.757-1.789 1.224-3.714 3.082-4.272 4.125-1.742 3.255.017 9.953 3.675 14.001 1.84 2.037 3.344 4.631 3.344 5.77 0 4.44-2.022 2.794-7.965-6.495-4.394-6.866-5.942-10.12-5.356-11.245 1.244-2.393 13.824-14.066 15.158-14.066m-320.536.634c1.676 1.676.385 4.545-3.813 8.48-6.107 5.724-7.417 10.147-4.621 15.627 1.147 2.247 3.445 5.054 5.108 6.238s3.022 3.026 3.022 4.088-.347 1.93-.771 1.93c-1.441 0-17.226-16.535-17.226-18.044 0-1.892 17.355-19.264 18.3-18.319m391.626 1.553c.648-.216 3.002.874 5.227 2.416 3.576 2.479 3.977 3.16 3.491 5.852-.302 1.676-1.286 7.094-2.195 12.044-2.076 11.306-1.496 26.149 1.561 39.78 1.207 5.378 1.94 10.796 1.627 12.045-.64 2.548-7.602 6.94-9.307 5.87-1.437-.902-5.055-12.682-6.302-20.533-1.78-11.205-2.254-26.057-1.121-35.196 1.167-9.41 5.012-21.61 7.019-22.278m-130.19 3.996c.956.184 1.87 1.017 2.03 1.847.361 1.874-2.057 5.338-3.04 4.354-.398-.397-.726-2.03-.726-3.629 0-2.222.407-2.828 1.736-2.572m-323.88 7.616c1.664 1.107 3.141 3.29 3.141 5.696 0 1.13-.696 3.059-1.552 4.281-1.505 2.148-4.406 2.926-5.779 1.553-.834-.833-.872-8.62-.055-10.749.735-1.916 2.58-1.888 4.244-.78m381.501.046c.436.58.643 1.842.643 3.822 0 3.136-1.593 4.406-3.335 2.664-1.15-1.15-.722-5.038.68-6.201.917-.76 1.577-.864 2.012-.285m-320.794 2.095c1.06-.88 1.486-.582 1.976 1.369.343 1.367.477 3.508.294 4.759-.457 3.119-2.65 3.594-3.685.799-1.003-2.712-.463-5.369 1.415-6.927m294.05 4.235c-1.018-.202-6.619 4.542-14.68 12.458-9.964 9.783-12.96 13.315-12.734 15.002.163 1.213 5.889 8.315 12.715 15.784 6.827 7.468 12.918 13.578 13.542 13.578 2.44 0 22.535-23.907 22.545-26.817.004-1.564-4.896-9.097-15.416-23.684-2.38-3.3-5.066-6.141-5.971-6.321m-322.814 5.825c-1.764 0-5.518 3.314-14.341 12.65-6.577 6.958-11.962 13.498-11.962 14.534 0 1.076 5.15 7.013 11.998 13.845 6.597 6.58 12.216 11.96 12.495 11.952 2.449-.074 26.018-25.667 25.99-28.222-.037-3.32-20.977-24.76-24.18-24.76m319.71 16.114c1.334-.144 2.705.345 4.271 1.442 2.64 1.849 2.985 6.533.653 8.866-2.479 2.478-6.978 1.974-9.362-1.057-2.634-3.349-2.598-3.924.386-6.909 1.419-1.418 2.717-2.198 4.051-2.342m-498.26.882c1.972 0 7.099 5.628 6.301 6.918-.847 1.371-1.468 1.347-4.547-.203-2.788-1.403-4.176-6.715-1.755-6.715m178.67 3.059c4.505-.218 8.041 4.705 4.528 9.72-1.843 2.632-5.99 2.926-9.223.661-2.873-2.011-2.834-5.52.091-8.268 1.494-1.403 3.101-2.04 4.603-2.113m506.987 16.94c7.143 0 10.968 7.445 6.266 12.192-4.59 4.634-13.175 1.898-13.175-4.198 0-3.235 4.114-7.993 6.91-7.993m-542 .561c1.121-.692 21.094 20.22 21.094 22.086 0 .741-4.783 6.296-10.63 12.347-5.847 6.052-11.024 11.007-11.502 11.007-1.02 0-1.087-2.065-.23-7.25.439-2.653 1.134-3.747 2.361-3.747 2.583 0 6.526-3.49 8.388-7.414 3.085-6.5-.941-15.672-7.515-17.116-2.63-.577-2.875-.998-2.875-4.988 0-2.4.41-4.616.91-4.925m324.414.441c.723 0 5.475 4.246 10.565 9.435 10.865 11.08 10.96 9.263-1.268 23.317-4.426 5.088-8.354 9.252-8.728 9.252s-.952-.72-1.286-1.59c-1.339-3.489-.484-6.47 2.784-9.738 5.968-5.968 5.642-14.691-.763-20.597-1.958-1.806-2.627-3.408-2.627-6.257 0-2.496.464-3.822 1.323-3.822m-168.326 1.884 3.005 1.773c1.651.975 3.016 2.012 3.04 2.306.4 4.95.751 135.048.368 136.29-.772 2.502-2.653 2.164-5.577-1.002l-2.535-2.747-.184-65.604c-.118-43.03.179-66.529.854-68.306zm226.884.634c1.507 1.45.252 5.307-1.957 6.008-3.377 1.072-5.926 5.436-5.926 10.16 0 5.382 1.986 9.451 5.99 12.302 1.659 1.181 3.014 2.796 3.014 3.583s-.358 1.433-.8 1.433c-1.157 0-14.639-14.753-15.002-16.417-.168-.769 1.629-3.595 3.996-6.284s5.501-6.44 6.964-8.342c1.83-2.378 2.994-3.143 3.721-2.443m-318.763.486c.488 0 .881 1.56.881 3.473 0 2.712-.601 3.849-2.746 5.182-4.234 2.63-6.205 5.524-6.23 9.14-.028 4.313 2.214 8.52 5.963 11.19 1.659 1.181 3.013 2.994 3.013 4.025 0 1.03-.365 2.1-.817 2.379-1.313.812-17.416-15.935-17.024-17.703.402-1.81 15.626-17.686 16.96-17.686m-183.742 4.961c1.04-1.992 2.686-.66 5.614 2.674 2.532 2.884 3.055 4.176 2.517 6.247-1.407 5.413-1.653 10.975-.57 13 1.692 3.16 6.974 5.445 12.293 5.328 4.108-.09 4.98.27 6.743 2.747 1.115 1.566 2.03 3.339 2.03 3.941 0 1.485-6.427 1.194-17.997-.826-14.639-2.556-13.42-1.033-12.632-15.857.528-9.951.962-15.261 2.002-17.254m-66.973.037c5.016 0 7.616 2.389 7.588 6.973-.019 3.087-.832 4.384-3.675 5.88-5.442 2.865-13.312-.596-13.312-5.852 0-3.751 4.363-7 9.399-7m569.643 8.994c.535.825.86 2.59.717 3.923-.363 3.396-2.504 3.74-3.923.625-.998-2.19-.911-2.892.524-4.327 1.503-1.503 1.83-1.536 2.682-.22m-381.17.202c3.666.429 5.21 4.95 2.654 7.773-1.853 2.047-4.99 2.7-5.898 1.23-.27-.436-.24-2.71.074-5.052.52-3.875.81-4.226 3.17-3.95m322.373.056c.688.229 1.25 1.684 1.25 3.243s-.562 3.023-1.25 3.252c-.848.283-1.25-.763-1.25-3.252 0-2.49.402-3.526 1.25-3.243m-259.856.073c.436.514.606 1.868.606 4.171 0 4.251-1.348 5.808-3.325 3.831-1.105-1.105-.75-5.846.533-7.13 1.057-1.056 1.75-1.385 2.186-.872m413.326 1.029c3.182.93 9.557 2.088 14.167 2.572 5.087.536 8.72 1.406 9.242 2.224.472.74.748 20.926.615 44.85l-.239 43.502-3.656.303c-2.011.167-3.946-.15-4.29-.708-.345-.557.968-2.782 2.912-4.933 5.257-5.82 4.816-6.549-3.464-5.733-8.642.852-9.023-.31-1.883-5.75 2.753-2.099 4.823-4.346 4.603-4.999-.257-.76-2.847-1.185-7.212-1.185-7.5 0-8.999-1.169-4.768-3.72 4.15-2.504 8.37-6.776 7.726-7.819-.323-.523-3.794-.65-8.02-.294-9.41.796-9.89-.765-1.883-6.082 5.344-3.548 6.688-6.268 2.93-5.925-.983.09-4.928.487-8.764.873-8.52.855-8.638-.24-.653-5.825 2.984-2.086 5.577-4.515 5.77-5.393.305-1.39-.539-1.503-6.56-.91-6.666.658-10.29.18-10.29-1.35 0-.402 2.959-2.624 6.57-4.942 3.61-2.319 6.375-4.754 6.146-5.412-.284-.815-3.008-1.142-8.563-1.029-9.853.202-10.397-.854-3.15-6.173 2.752-2.02 4.73-4.119 4.39-4.667-.339-.55-3.337-.847-6.67-.662-3.8.21-6.19-.08-6.421-.771-.455-1.363 7.13-7.684 12.017-10.014 3.405-1.624 3.947-1.621 9.398-.028m56.262.634c5.249 2.174 6.777 8.252 3.022 12.007-2.192 2.193-5.263 2.464-8.774.772-4.292-2.069-4.31-8.883-.036-12.062 2.375-1.767 3.045-1.853 5.788-.717m-365.02.652c1.224-1.224 26.897 23.105 27.717 26.266.54 2.087-1.189 4.186-12.917 15.747-7.445 7.338-14.263 13.348-15.15 13.348-1.296 0-1.608-1.127-1.608-5.76v-5.76l8.499-8.425c4.675-4.63 8.497-8.829 8.497-9.325s-3.878-4.93-8.617-9.857c-7.997-8.313-8.564-9.186-7.974-12.136.35-1.749 1.048-3.594 1.552-4.098m-275.263 1.626c1.28-.42 4.308 4.63 4.308 7.185 0 2.274-3.749 1.897-5.034-.506-1.323-2.471-.921-6.137.726-6.679m462.33 3.73c-1.48 0-4.83 3.448-12.945 13.312-11.867 14.423-11.624 12.991-3.482 20.487a872 872 0 0 0 13.68 12.274c3.726 3.26 7.204 5.926 7.726 5.926 1.802 0 18.998-22.418 18.998-24.768 0-1.538-3.813-6.392-11.594-14.764-6.373-6.858-11.943-12.467-12.384-12.467m-170.623.267c1.27-1.27 18.595 12.015 18.595 14.258 0 .887-.945 1.48-2.37 1.48-1.656 0-4.555-2.296-9.583-7.59-3.963-4.172-6.95-7.84-6.642-8.148m-358.828 1.194c5.158 3.38 5.043 9.026-.23 11.429-1.34.61-2.534 1.096-2.646 1.075-3.025-.584-6.763-3.367-7.276-5.412-1.394-5.556 5.331-10.25 10.152-7.092m717.362 9.545c5.056 0 8.568 9.641 4.31 11.824-4.157 2.13-7.002 2.159-9.629.092-2.587-2.035-3.472-6.095-1.856-8.516 1.09-1.633 4.823-3.4 7.175-3.4m-731.547 7.993c4.029 0 7.285 2.472 8.167 6.201.494 2.086.05 3.285-1.92 5.255-3.344 3.345-7.893 3.38-11.18.092-4.742-4.742-1.836-11.548 4.933-11.548m398.71.763c2.463 1.03 6.3 3.725 12.2 8.378l11.704 9.233v5.31c0 4.414-.299 5.32-1.764 5.32-2.706 0-26.523-24.304-26.082-26.615.386-2.023 1.478-2.657 3.941-1.626m143.106 1.957c1.832-.97 4.12-.953 5.963.532 2.834 2.284 2.957 4.714.367 7.304-4.004 4.004-9.536 2.589-9.536-2.444 0-2.46 1.375-4.423 3.206-5.392m-318.598 2.425c3.996 1.915 5.415 6.3 2.839 8.774-2.76 2.65-5.545 3.24-8.443 1.782-3.578-1.8-3.511-7.232.129-9.95 2.35-1.754 2.942-1.82 5.475-.606m166.626 2.857c2.395 0 28.765 25.982 28.765 28.342 0 .722-6.633 8.148-14.746 16.51-8.112 8.36-15.32 15.191-16.013 15.176-2.29-.049-30.244-27.033-30.244-29.196 0-2.42 29.708-30.832 32.238-30.832m-343.697 1.378c1.436.551 1.618 1.455 1.093 5.283-.348 2.54-.625 6.356-.625 8.48 0 2.632-.446 3.858-1.396 3.858-1.978 0-2.608-2.265-2.59-9.325.016-7.008.977-9.27 3.518-8.296m343.449 9.251-9.591 9.592c-7.009 7.008-9.368 9.981-8.747 11.024.468.785 4.666 4.88 9.325 9.095 4.66 4.216 8.922 7.662 9.472 7.662 1.997 0 17.71-16.933 17.382-18.732-.177-.972-4.27-5.568-9.086-10.207zm182.63 2.279c1.397-1.16 1.565-1.09 1.249.542-.201 1.037-.93 2.077-1.617 2.306-1.784.594-1.544-1.262.367-2.848m-460.3.395c1.23-.76 6.527 5.274 7.295 8.305.305 1.207-.35 3.559-1.535 5.503-1.137 1.866-2.076 4.526-2.076 5.917-.008 5.483 6.67 10.612 12.568 9.655 3.545-.575 5.981 1.198 6.596 4.814.24 1.408-.254 2.058-1.663 2.178-3.086.262-24.496-6.243-26.22-7.966-1.372-1.373-1.362-2.439.13-10.372 2.282-12.145 3.68-17.276 4.905-18.034m-31.622.717c4.127 2.343 4.944 4.36 2.968 7.377-1.348 2.056-2.51 2.609-5.559 2.609-6.627 0-8.233-5.347-2.81-9.38 2.556-1.902 3.018-1.96 5.401-.606m433.657 1.396c1.48-.568 20.104 13.711 21.03 16.123.292.762-1.456 3.992-3.878 7.175-7.031 9.243-11.942 14.522-12.751 13.707-1.604-1.615-.666-6.149 1.736-8.406 2.742-2.576 4.082-7.603 3.087-11.566-.354-1.412-2.589-4.518-4.97-6.9-4.7-4.7-6.603-9.232-4.254-10.133m-85.761.717c.663-.222 1.53.544 2.673 1.69l2.242 2.242-.156 81.498c-.117 62.47-.434 81.842-1.37 82.968-1.699 2.049-3.606 1.835-5.31-.597-1.223-1.747-1.384-8.084-1.01-40.754.244-21.274.534-58.123.643-81.884.16-34.938.3-44.498 2.288-45.163m-241.895.55c.671-1.086 5.31 3.27 5.31 4.99 0 .73-1.076 1.331-2.389 1.331-1.805 0-2.506-.668-2.903-2.746-.289-1.51-.301-3.117-.018-3.574m64.722 1.627c2.311.77 1.335 2.859-3.776 8.094-5.547 5.682-6.986 6.472-8.204 4.501-.77-1.247 10.495-13.09 11.98-12.595m316.495.689c.462 0 .65 1.916.413 4.254-.536 5.28 1.978 10.491 6.174 12.779 1.65.9 3.148 2.38 3.326 3.298.475 2.453-1.793 1.93-6.321-1.46-6.12-4.584-9.5-8.078-9.5-9.822 0-1.864 4.689-9.05 5.908-9.05m-178.413 3.004c1.4 0 7.506 6.509 7.506 8.002 0 .986-1.593 3.19-3.537 4.897s-3.886 3.096-4.309 3.096c-1.415 0-7.157-6.576-7.157-8.195 0-1.354 6.197-7.8 7.497-7.8m186.176 1.571c.776 1.061 1.281 3.012 1.12 4.346-.41 3.405-2.586 3.75-3.785.597-.701-1.846-.67-3.284.12-4.76 1.11-2.075 1.16-2.076 2.545-.183m-413.675 5.218c23.213-.052 37.74 1.592 59.385 6.707 5.831 1.378 11.593 2.499 12.807 2.499 1.213 0 8.122 2.01 15.36 4.465 34.284 11.63 59.986 25.847 86.45 47.818 22.278 18.495 26.515 23.224 62.436 69.72 17.392 22.514 21.446 27.048 35.673 39.854 14.468 13.023 27.01 21.199 50.887 33.184 17.72 8.894 49.9 15.941 73 15.976 6.876.011 12.961.35 13.524.754 1.638 1.176 4.474 6.028 4.474 7.653 0 1.341-2.046 2.008-8.994 2.912-1.244.162-1.636 3.496-2.278 19.605-.461 11.56-.399 19.785.147 20.331 1.03 1.03 21.844 1.132 29.849.147 4.95-.61 5.286-.5 6.43 2.012 2.041 4.48-.092 5.463-14.194 6.56-21.763 1.691-45.053-.024-69.454-5.109-53.484-11.144-96.795-33.977-132.257-69.739-17.93-18.082-22.213-23.49-48.958-61.792-13.849-19.834-30.215-35.796-50.786-49.536-31.592-21.102-71.02-34.447-107.617-36.409-10.507-.563-12.726-.974-14.635-2.71-2.935-2.669-2.85-4.511.267-5.696 1.384-.526 2.96-2.125 3.5-3.546s.983-10.172.983-19.449c0-16.152-.086-16.894-2.058-17.52-1.133-.359-7.84-.528-14.901-.367-13.57.308-16.041-.346-16.041-4.263 0-3.326 4.538-4.01 27-4.06m-39.652 1.332c1.023-.848 1.72-.69 2.876.634 1.583 1.816 3.776 5.696 3.776 6.68 0 1.08-5.606.558-6.799-.635-1.605-1.605-1.524-5.291.147-6.679m395.568 1.323c.597.37 1.084 1.772 1.084 3.115 0 3.024-2.597 3.274-3.528.34-.745-2.347.77-4.49 2.444-3.455m-266.912.056c.55-.34.992.08.992.937s-.442 1.561-.992 1.561-1.001-.42-1.001-.937.45-1.222 1-1.562m297.55 3.803c-1.813.58-20.551 25.072-20.551 26.863 0 1.689 4.807 5.959 12.494 11.098 2.2 1.47 7.101 5.146 10.887 8.167 5.134 4.097 7.296 5.279 8.507 4.63 2.469-1.32 16.288-26.79 15.921-29.343-.466-3.253-24.646-22.25-27.258-21.415m-127.838.937c2.077-.847 2.255 1.315 2.27 5.779.014 4.332-.323 4.86-7.984 12.476-4.804 4.776-8.002 8.775-8.002 10.004 0 1.232 3.204 5.226 8.039 10.024 7.863 7.803 8.035 8.067 7.754 12.393-.166 2.545-.853 4.611-1.608 4.86-1.632.537-28.184-25.6-28.167-27.727.006-.851 6.326-7.837 14.047-15.526 7.603-7.572 11.575-11.436 13.651-12.283m-238.542 1.681c-1.407.787-1.861 3.968-2.848 19.752-.646 10.352-.877 19.141-.505 19.523s6.981 1.634 14.681 2.793 15.798 2.49 17.998 2.949 4.552.883 5.227.946c1.648.155 3.917-3.589 4.777-7.882.386-1.925 2.3-9.047 4.254-15.82 3.551-12.307 3.556-12.32 1.562-14.314-1.474-1.474-5.5-2.598-15.407-4.318-23.502-4.08-27.962-4.622-29.739-3.629m174.536 2.582c1.621 0 26.303 23.316 26.266 24.814-.016.647-5.612 6.915-12.43 13.928-14.74 15.161-15.544 15.525-15.544 6.963 0-4.224.42-4.89 8.093-12.751 6.037-6.185 7.94-8.768 7.497-10.161-.326-1.028-3.11-3.987-6.192-6.578-7.815-6.57-9.59-9.068-9.215-12.963.173-1.793.86-3.252 1.525-3.252m-152.321 6.615c.893.028 1.856.7 3.261 2.02 1.252 1.177 3.308 2.653 4.566 3.28 1.306.651 2.331 2.121 2.398 3.427.064 1.258.626 2.794 1.25 3.418 1.564 1.565 1.424 4.253-.304 5.687-.793.658-1.585 2.626-1.754 4.373-.268 2.757-.725 3.214-3.482 3.482-1.747.169-3.715.961-4.373 1.754-1.732 2.087-4.702 1.764-5.99-.643-.612-1.143-2.435-2.536-4.043-3.096-2.284-.796-2.921-1.621-2.921-3.794 0-1.529-.673-3.34-1.498-4.024-1.89-1.57-1.909-3.413-.055-4.952.793-.657 1.576-2.405 1.746-3.877.253-2.19.882-2.727 3.454-2.976 1.73-.168 3.938-1.182 4.906-2.251 1.122-1.24 1.946-1.857 2.839-1.828m-134.765 1.139c5.654 1.034 14.904 4.079 16.49 5.43 1.334 1.134 1.45 2.194.68 6.09a269 269 0 0 0-1.607 9.141c-1.352 8.75-5.116 4.995-4.428-4.419.55-7.525-1.64-10.82-8.517-12.825-5.263-1.534-7.37-4.286-2.618-3.417m80.883 1.525c3.32-1.651 3.495-1.645 4.474.183.56 1.047 1.02 2.462 1.02 3.142s.743 2.054 1.653 3.06c1.498 1.655 1.506 1.999.101 3.583-.853.962-1.707 2.61-1.901 3.665-.704 3.818-2.811 2.608-5.807-3.325-1.676-3.322-3.036-6.61-3.022-7.313.013-.703 1.58-2.05 3.482-2.995m92.752.404c-2.25.262-2.969 1.137-4.373 5.31-3.654 10.863-8.884 28.393-8.884 29.785 0 .809 1.235 1.942 2.747 2.517 1.513.574 6.58 2.472 11.254 4.217 4.675 1.745 12.075 4.944 16.445 7.101s8.414 3.768 8.994 3.583c1.424-.454 8.59-11.746 16.803-26.486 2.524-4.53 2.75-5.52 1.6-6.927-3.139-3.835-40.017-19.633-44.586-19.1m309.724 2.811c4.258 0 6.645 7.227 3.445 10.428-3.575 3.574-10.428.568-10.428-4.576 0-2.03 4.56-5.852 6.983-5.852m-296.66 10.575c1.196.42 4.068.747 6.376.725 3.705-.034 4.309.287 5.163 2.738.533 1.527 1.863 3.06 2.958 3.408 1.578.501 2.061 1.69 2.334 5.733.298 4.425.045 5.3-1.948 6.606-1.264.828-2.931 3.015-3.702 4.86-1.38 3.303-3.75 4.38-5.044 2.287-.363-.588-2.45-.939-4.64-.78-3.066.22-4.363-.2-5.65-1.82-.917-1.155-2.677-2.61-3.913-3.243-1.65-.844-2.239-2.011-2.196-4.373.032-1.769-.228-4.612-.588-6.32-.601-2.86-.418-3.16 2.389-3.721 2.069-.414 3.569-1.616 4.667-3.74 1.332-2.576 2.005-2.99 3.794-2.36m431.829 5.43c.465 0 .845.893.845 1.993 0 1.497-.667 2.002-2.655 2.002-2.592 0-2.612-.05-.845-2.002.995-1.1 2.19-1.994 2.655-1.994m-300.426.991c1.47.005 31.656 28.547 32.053 30.308.154.68-5.956 7.413-13.578 14.966-8.346 8.27-14.627 13.72-15.783 13.698-2.206-.042-31.43-27.76-31.42-29.803.006-1.689 27.075-29.174 28.728-29.169m194.912.01c2.06 0 1.585 3.03-1.166 7.496-4.582 7.438-2.777 15.221 4.198 18.135 3.193 1.334 5.329 4.515 5.329 7.929 0 .789-.332 1.422-.744 1.405-1.35-.054-18.127-12.437-18.696-13.799-.757-1.81 9.375-21.167 11.08-21.167m-466.85 1.065c1.786-.081 3.548.406 4.64 1.498 2.39 2.39 2.02 8.005-.652 9.876-2.859 2.002-3.601 1.96-7.524-.432-3.828-2.334-4.327-5.935-1.25-9.013 1.196-1.196 3.002-1.848 4.787-1.929m615.81 4.74c6.618.25 8.923 7.06 3.766 11.117-1.449 1.14-3.135 2.047-3.748 2.012-2.464-.14-5.544-1.932-6.55-3.813-2.62-4.894.637-9.537 6.532-9.315m-582.065.139c1-1.619 2.795.352 5.393 5.898l2.306 4.905-2.71 4.612c-2.2 3.755-2.575 5.344-2.04 8.508.88 5.208 4.866 8.885 10.859 10.004 2.612.488 4.869 1.046 5.007 1.25 1.232 1.817 2.56 6.207 2.104 6.945-.916 1.482-2.241 1.074-15.949-4.915-12.586-5.498-12.998-5.77-12.908-8.663.09-2.902 6.634-26.434 7.938-28.544m148.573 1.653c-2.779 3.02-18.108 29.047-18.108 30.75 0 .848 1.686 2.782 3.749 4.29l9.251 6.761c3.025 2.212 7.84 6.178 10.694 8.81 2.854 2.634 5.994 4.787 6.982 4.787 2.656 0 26.33-23.955 26.33-26.642 0-1.353-1.986-3.961-5.255-6.909-6.307-5.686-23.294-18.66-28.305-21.617-3.524-2.08-3.628-2.087-5.338-.23m226.277 2.398c.76 0 4.924 2.628 9.252 5.834s9.107 6.624 10.62 7.607c1.512.982 2.747 2.655 2.747 3.711s-2.514 6.622-5.586 12.375-6.413 11.475-7.423 12.715l-1.837 2.26-1.075-2.82c-1.587-4.145-1.335-6.421 1.084-9.693 1.388-1.877 2.33-4.929 2.627-8.507.52-6.27-.866-8.533-8.038-13.11-3.307-2.11-3.749-2.87-3.749-6.385 0-2.725.434-3.987 1.378-3.987m-135.307 1.001c-1.708 0-18.08 15.848-18.08 17.502 0 1.14 12.608 13.647 17.354 17.216 1.622 1.22 3.446 1.892 4.052 1.498 3.436-2.236 15.724-16.288 15.434-17.649-.488-2.296-16.929-18.567-18.76-18.567m196.18 2.26c.654.25 1.359 1.347 1.563 3.069.174 1.47-.094 2.673-.588 2.673-1.51 0-2.233-1.223-2.233-3.757 0-1.644.606-2.234 1.259-1.985m-584.462.524c2.182.124 4.334.88 5.42 2.223 2.449 3.024 2.24 5.625-.67 8.535-2.878 2.878-8.564 3.342-10.62.864-1.818-2.19-1.66-8.097.266-10.023 1.212-1.213 3.423-1.723 5.604-1.599m388.466 8.213c2.379 0 8.737 5.61 8.737 7.708 0 .613-1.376 2.279-3.069 3.703-1.692 1.424-3.855 2.59-4.804 2.59-1.962 0-8.122-5.95-8.122-7.845 0-2.108 4.773-6.156 7.258-6.156m331.037 1.994c1.905-.077 3.855.524 5.044 1.837 2.09 2.31 2.14 6.551.092 8.6-.864.864-3.097 1.57-4.952 1.57-5.492 0-8.118-5.215-4.924-9.775.981-1.4 2.836-2.155 4.74-2.232m-413.647.514c1.659 1.087 3.485 1.368 5.88.92 3.335-.627 3.472-.529 3.472 2.342 0 1.85.75 3.514 1.976 4.364 1.726 1.196 1.901 2.111 1.36 7.138-.527 4.884-.963 5.852-2.867 6.33-1.237.31-3.198 1.646-4.355 2.976-2.375 2.733-3.203 2.943-4.924 1.222-.662-.662-3.334-1.454-5.944-1.754-4.124-.474-4.793-.869-5.09-3.041-.187-1.375-.936-3.18-1.663-4.006-.844-.959-1.19-3.298-.955-6.495.203-2.75.39-5.339.414-5.751.024-.413.991-.754 2.15-.754 1.157 0 3.468-1.14 5.126-2.535 2.838-2.388 3.154-2.44 5.42-.956m-147.452.69c1.138-.217 2.372 1.004 3.748 3.702 1.129 2.213 2.058 4.49 2.058 5.062 0 1.906-3.621 1.074-5.907-1.36-2.574-2.74-2.52-6.905.1-7.405m368.428 1.975c.88.142 1.897.998 2.444 2.48.501 1.358.315 2.81-.505 3.932-1.23 1.682-1.364 1.66-2.435-.34-.622-1.163-1.13-3.077-1.13-4.253 0-1.393.746-1.962 1.626-1.82m34.195 2.894c-1.997-.227-2.864 1.432-4.548 4.75-1.03 2.028-4.935 9.686-8.682 17.023-4.992 9.774-6.518 13.638-5.705 14.451.61.61 7.974 5.057 16.362 9.876 8.388 4.82 15.52 8.78 15.848 8.801 1.453.094 3.997-4.46 10.225-18.263 3.672-8.138 6.68-15.185 6.68-15.664 0-1.177-5.3-5.233-18.844-14.424-6.207-4.213-9.34-6.324-11.336-6.55m-551.582 1.13c2.848-.245 3.946.223 5.65 2.388 2.679 3.406 2.654 4.71-.138 7.782-2.889 3.177-5.623 3.91-8.737 2.342-6.317-3.177-4.07-11.886 3.225-12.512m410.919 7.018c.737.243 1.48 2.13 1.653 4.19.29 3.46-.258 4.34-7.248 11.658-4.16 4.355-7.561 8.524-7.561 9.27 0 1.326 7.929 10.954 12.705 15.425 1.946 1.822 2.352 3.074 2.104 6.495-.534 7.358-2.698 6.372-15.949-7.23-6.524-6.697-11.86-12.903-11.86-13.799 0-2.228 24.472-26.562 26.156-26.009m-318.746.184c2.214-.85 17.607 6.612 17.51 8.49-.044.885-1.057 5.177-2.25 9.535-3.1 11.333-6.132 11.45-4.97.193.687-6.658-.735-9.387-6.624-12.696-4.337-2.438-5.834-4.69-3.666-5.522m143.585 1.82c2.812-.958 4.275-.153 6.955 1.543l2.462 1.552-3.353 2.591c-1.843 1.426-4.856 3.494-6.689 4.594-1.832 1.1-13.124 8.591-25.099 16.637s-22.758 15.13-23.96 15.747c-2.728 1.4-2.85 1.396-4.07-.129-2.064-2.58-2.33-5.524-.652-7.202.913-.913 6.67-4.899 12.789-8.857s18.077-11.807 26.578-17.446c8.071-5.354 12.227-8.074 15.039-9.03m484.535 1.782c5.588 0 8.17 5.127 4.915 9.775-3.133 4.472-12.449 1.538-12.449-3.923 0-2.742 4.003-5.852 7.534-5.852m-383.018 2.002c-.678 0-3.908 2.81-7.175 6.248-3.267 3.437-9.408 9.563-13.643 13.615s-7.69 7.653-7.69 8.002c.014 1.59 15.874 21.897 23.345 29.885 3.71 3.968 5.9 4.068 10.52.496 1.955-1.512 4.54-3.42 5.75-4.244 12.054-8.213 18.383-13.378 18.383-15.012 0-3.23-4.32-9.868-16.215-24.924-6.844-8.664-11.944-14.066-13.275-14.066m-214.545 3.63c-1.322 1.321-8.18 25.705-8.728 31.033-.504 4.896-1.156 4.348 16.38 13.8 6.532 3.52 12.39 6.43 13.01 6.467s1.644-.55 2.278-1.314c1.022-1.232 12.414-28.397 13.79-32.88.436-1.423-1.445-2.68-9.83-6.57-20.202-9.369-25.858-11.58-26.9-10.537m-130.944 2.103c3.206.87 5.969 3.507 5.926 7.267-.023 1.986-1.934 4.398-4.63 5.834-3.186 1.697-5.704 1.433-8.682-.91-2.98-2.344-3.304-4.742-1.176-8.856 1.71-3.307 5.357-4.205 8.562-3.335m561.229 2.297c2.47-1.375 3.024-1.375 5.494 0 2.06 1.147 2.825 2.422 3.05 5.071.252 2.98-.109 3.716-2.297 4.713-3.427 1.561-4.608 1.494-7.331-.413-3.235-2.266-2.654-7.29 1.084-9.371m-36.877 10.97c1.572 0 3.819 5.33 3.068 7.284-.26.679-7.552 5.715-16.206 11.19a3013 3013 0 0 0-29.738 19.1c-7.7 5.027-19.988 13.023-27.304 17.777s-14.1 8.645-15.076 8.645c-2.384 0-6.32-4.314-5.613-6.155.31-.81 3.714-3.47 7.56-5.907 7.578-4.804 16.674-10.644 38.43-24.65 24.887-16.02 43.418-27.285 44.879-27.285m-180.112.79c3.348-.993 4.012-.88 6.063 1.047 1.267 1.19 3.512 2.159 4.989 2.159 2.27 0 2.682.436 2.682 2.783 0 1.528.717 3.798 1.59 5.044 1.415 2.02 1.424 2.505.091 4.538-.821 1.254-1.648 3.379-1.837 4.713-.268 1.9-1.03 2.49-3.491 2.729-1.73.168-3.938 1.181-4.906 2.25-2.235 2.47-4.092 2.475-5.411.01-.625-1.168-2.33-2.062-4.29-2.251-2.832-.273-3.28-.713-3.547-3.454-.168-1.73-1.141-3.903-2.159-4.824-1.654-1.497-1.7-1.956-.45-4.354.77-1.475 1.406-3.91 1.406-5.411.005-2.173.568-2.846 2.756-3.299 1.513-.312 4.445-1.068 6.514-1.68m252.295 2.287c1.163-1.22 1.524-1.007 2.499 1.497.96 2.47.806 3.5-.965 6.624-1.3 2.29-2.095 5.47-2.095 8.351 0 3.957.507 5.156 3.4 8.048 1.87 1.87 4.255 3.4 5.3 3.4 2.395 0 4.3 1.86 4.3 4.198 0 .99-.332 1.78-.744 1.745-1.571-.129-19.442-10.632-20.212-11.879-.867-1.403 6.14-19.493 8.517-21.984m-454.41 1.01c2.347-1.317 2.894-1.286 5.236.248 3.379 2.214 3.582 6.872.395 9.105-2.934 2.055-5.057 1.963-7.901-.34-2.006-1.624-2.202-2.293-1.35-4.713.546-1.553 2.177-3.49 3.62-4.3m150.336.91c1.567 0 6.514 4.237 6.514 5.576 0 1.756-18.968 14.425-21.608 14.433-1.042.003-6.388 2.915-11.888 6.477s-11.35 7.333-13 8.37c-9.436 5.93-15.184 9.6-25.503 16.297-6.325 4.105-13.132 8.45-15.122 9.656s-4.11 2.196-4.713 2.196c-1.165 0-3.17-3.139-3.17-4.961 0-.599 3.943-3.618 8.756-6.716a4462 4462 0 0 0 19.752-12.825c6.05-3.951 14.368-9.334 18.493-11.97 4.125-2.638 9.754-6.242 12.504-8.003 2.75-1.76 10.236-6.643 16.638-10.859 6.401-4.216 11.959-7.671 12.347-7.671m208.519 1.433c0 .275-.903.982-2.003 1.571s-2.002.845-2.002.57.902-.983 2.002-1.571c1.1-.589 2.003-.845 2.003-.57m-321.584 5.567c.885 0 1.99 1.65 2.701 4.024 1.07 3.572.967 4.512-.955 8.36-4.328 8.665-1.606 15.784 7.524 19.698 3.067 1.314 4.309 2.439 4.309 3.886 0 3.123-2.41 2.451-14.498-4.024-10.172-5.45-10.98-6.097-10.776-8.654.334-4.182 9.929-23.29 11.695-23.29m216.447 2.003c1.407 0 22.132 20.39 22.132 21.774 0 .634-.825 1.598-1.837 2.14-1.502.804-2.59.21-5.88-3.215-2.22-2.31-6.264-7.35-8.994-11.2-6.204-8.748-6.633-9.499-5.42-9.499m205.515 2.995c1.635 0 4.093 5.422 3.151 6.946-.855 1.382-1.854 1.342-3.335-.138-1.678-1.678-1.539-6.808.184-6.808m-300.334 2.003c1.456 0 1.745 1.881 2.26 14.754.788 19.741.164 150.671-.726 152.11-1.059 1.714-1.945 1.41-4.924-1.699l-2.729-2.839.643-79.918c.57-71.291.808-80.043 2.223-81.159.873-.687 2.335-1.249 3.253-1.249m238.634.257c1.64.326 4.872 1.874 10.748 4.86 15.46 7.855 14.901 6.508 8.59 20.827-4.075 9.248-5.75 12.054-7.193 12.054-1.098 0-2.278-1.065-2.848-2.564-1.36-3.577-1.244-4.52 1.02-7.937 1.268-1.915 1.993-4.685 1.993-7.671.006-3.944-.523-5.24-3.362-8.25-1.853-1.964-4.27-3.574-5.375-3.574-2.422 0-3.864-1.58-4.786-5.255-.48-1.916-.428-2.815 1.213-2.49m-230.485 1.296c.793-.52 1.98.112 3.527 1.91l2.389 2.784-2.232 2.38c-3.446 3.667-4.879 3.057-4.879-2.067 0-2.813.4-4.487 1.195-5.007M966.1 941.439c1.556 0 4.971 7.6 4.07 9.058-1.706 2.76-5.467-1.112-5.467-5.632 0-2.262.479-3.426 1.397-3.426m199.285.055c-2.538.128-31.187 20.699-31.474 22.6-.34 2.242 5.928 10.944 19.513 27.093 5.205 6.187 9.92 11.245 10.473 11.245 1.88 0 26.808-25.382 26.808-27.295 0-1.032-4.399-7.569-9.775-14.534s-10.801-14.134-12.063-15.921c-1.26-1.788-2.832-3.221-3.482-3.188m-65.072 3.105c1.909.368 7.761 7.869 17.006 21.792 4.24 6.385 5.382 8.84 4.648 10.004-.534.85-1.624 1.672-2.416 1.829-1.704.336-26.844-24.96-26.844-27.01 0-2.16 5.576-7.006 7.607-6.615m257.293 1.837c-1.335 0-3.207 3.697-7.827 15.48-3.339 8.516-6.073 16.1-6.073 16.85 0 2.368 3.078 4.31 19.835 12.53 8.983 4.408 16.967 7.767 17.74 7.47.774-.297 1.893-2.405 2.49-4.685.598-2.281 2.175-7.744 3.5-12.146s2.689-10.061 3.032-12.568l.625-4.556-6.358-4.034c-10.012-6.35-25.038-14.34-26.964-14.34m-31.272 1.002c.981 0 1.402.757 1.194 2.168-.396 2.693-2.354 3.474-3.197 1.277-.783-2.041.032-3.445 2.003-3.445m-419.528.432c1.068-.66 15.843 7.148 17.575 9.288.91 1.122.828 2.392-.367 5.613-.85 2.29-2.504 6.829-3.675 10.087-2.046 5.69-3.471 7.407-4.943 5.935-1.023-1.023-.829-6.154.258-6.826.518-.32 1.238-2.596 1.607-5.062.584-3.892.322-4.939-1.993-7.974-1.467-1.923-3.933-4.159-5.485-4.961-2.877-1.488-4.631-5.078-2.977-6.1m256.54 8.066c.822 1.1 1.878 2.664 2.343 3.473.514.895 2.058 1.376 3.96 1.23 2.98-.227 3.118-.09 2.893 3.244-.169 2.512.427 4.194 2.132 6.008 2.28 2.428 2.296 2.594.578 4.493-.98 1.083-2.076 3.454-2.443 5.264-.565 2.783-1.157 3.331-3.813 3.592-1.727.17-3.678.961-4.336 1.755-1.813 2.184-4.53 1.733-6.358-1.057-1.114-1.7-2.55-2.499-4.492-2.499-3.397 0-5.538-2.222-4.814-4.988.302-1.158-.333-3.074-1.507-4.566l-2.021-2.564 2.058-2.195c1.129-1.205 2.514-3.43 3.087-4.943.705-1.861 1.759-2.747 3.261-2.747 1.221 0 3.515-1.234 5.099-2.747 2.842-2.715 2.898-2.727 4.373-.753m-73.157 3.5c1.842 0 24.52 22.178 24.52 23.978 0 .723-5.003 6.084-11.116 11.916s-11.704 10.945-12.43 11.364c-1.608.93-2.003.317-2.885-4.566-.668-3.703-.479-4.021 6.872-11.575 4.156-4.27 7.561-8.116 7.561-8.553s-3.15-4.292-7-8.563c-5.51-6.111-7-8.433-7-10.886 0-2.085.49-3.115 1.478-3.115m-178.48 2.003c.55 0 1.002.894 1.002 1.994s-.452 2.002-1.002 2.002-.992-.902-.992-2.002.442-1.994.992-1.994m26.698.202c-1.486.224-3.334 3.416-7.414 12.798-8.393 19.295-8.466 19.545-6.468 21.957.93 1.123 7.31 5.868 14.185 10.537s13.24 8.498 14.139 8.498c1.57.007 5.39-6.825 8.388-14.993.706-1.925 2.9-7.016 4.878-11.31 1.978-4.292 3.601-8.403 3.601-9.14 0-2.342-28.13-18.826-31.31-18.347m382.282.22c1.176.525 2.047 2.079 2.885 4.778 1.178 3.792 1.218 4.996.202 6.22-1.078 1.299-17.247 11.6-47.037 29.968-4.111 2.534-7.934 4.592-8.498 4.566-2.341-.107-10.632-5.152-10.28-6.257.209-.658 8.454-6.28 18.318-12.485 22.344-14.054 36.102-22.839 39.734-25.384 2.028-1.42 3.501-1.93 4.677-1.405m50.153 5.742c3.376.482 4.722 4.886 2.517 8.25-2.29 3.496-6.97 3.546-9.233.092-3.258-4.972.203-9.271 6.716-8.342m31.925 11.365c1.223.756 1.228 4.783.009 6.017-.516.523-1.242 3.228-1.608 6.009-.644 4.897-.547 5.156 2.977 8.25 2 1.756 4.744 3.188 6.1 3.188 2.973 0 6.468 3.24 6.468 5.999 0 1.1-.341 1.965-.754 1.92-2.455-.27-19.384-9.122-19.871-10.39-.59-1.536 3.02-16.472 4.786-19.808.518-.978 1.37-1.508 1.893-1.185m106.45 1.47c1.227 0 3.411.927 4.86 2.067 3.445 2.71 3.524 7.133.184 10.473-3.452 3.452-7.899 2.874-11.263-1.47-3.23-4.17.647-11.07 6.22-11.07m-382.696 1.056c1.452.05 9.83 9.76 12.43 14.406 1.995 3.565-1.88 1.14-8.507-5.32-6.742-6.57-7.887-9.22-3.923-9.086m-182.262.625c2.259-1.124 5.266-.732 7.395 1.975 2.27 2.885 1.992 5.95-.734 8.094-2.93 2.302-8.64.52-9.555-2.977-.872-3.332.635-5.968 2.894-7.092m256.41 1.185c-2.207-.37-3.827 1.536-7.735 5.246-10.437 9.909-18.218 19.556-18.218 22.582 0 1.834 1.422 3.95 4.75 7.055 5.855 5.465 15.796 13.47 23.703 19.082 6.354 4.51 8.179 4.828 9.94 1.709.61-1.079 5.045-8.011 9.858-15.398 4.812-7.387 8.746-14.012 8.746-14.727s-2.81-3.445-6.247-6.063c-3.438-2.619-9.524-7.593-13.524-11.052-6.263-5.417-9.064-8.063-11.272-8.434m-81.369 5.136c1.887 0 31.41 28.668 31.41 30.5 0 .6-5.997 7.034-13.33 14.296-8.445 8.362-14.09 13.202-15.397 13.202-1.194 0-4.146-2.218-7.01-5.255-16.07-17.044-23.262-25.02-23.262-25.816 0-1.716 25.832-26.927 27.589-26.927m-340.794 1.047c1.793-.098 3.733.571 5.576 2.021 3.07 2.414 3.546 7.176 1.075 10.703-2.187 3.123-8.299 3.073-11.272-.092-2.737-2.913-2.774-6.653-.101-10.05 1.275-1.621 2.928-2.484 4.722-2.582m202.694.946c1.356 0 3.51 6.386 3.51 10.4 0 1.475-.684 2.926-1.535 3.252-2.034.78-4.465 5.595-4.465 8.847 0 4.312 2.672 8.13 7.975 11.392 3.73 2.295 5.07 3.743 5.181 5.604.083 1.38.193 3.06.248 3.74.224 2.768-3.364 1.425-11.989-4.493-11.328-7.774-12.848-8.927-13.79-10.5-.922-1.541 13.132-28.242 14.865-28.242m425.903 1.002c1.31 0 2.61 2.027 2.61 4.079 0 1.553-2.747 1.017-3.39-.662-.947-2.464-.732-3.417.78-3.417m-64.162 5.448c1.485-1.486 29.426 10.479 30.4 13.018.33.862-.528 5.273-1.902 9.802a1363 1363 0 0 0-4.3 14.48c-.992 3.437-2.283 6.256-2.866 6.255-.583 0-2.353-2.305-3.932-5.117l-2.867-5.108 2.215-4.446c1.674-3.354 2.055-5.338 1.543-8.067-.895-4.77-6.074-9.905-10.914-10.813-3.163-.593-4.088-1.384-5.87-5.053-1.164-2.394-1.838-4.621-1.507-4.951m-142.427.661c1.15-.17 2.306.315 3.28 1.488.91 1.098 2.317 1.439 4.501 1.084 3.455-.56 5.42.7 5.42 3.492 0 .977 1.124 2.516 2.5 3.417 2.597 1.702 3.311 4.791 1.387 5.98-.639.395-.883 2.07-.58 3.942.603 3.712-.69 5.485-3.986 5.485-1.326 0-2.96 1.044-3.914 2.499v.009c-2.076 3.167-4.73 3.185-6.78.055-1.136-1.733-2.688-2.526-5.365-2.747-3.362-.278-3.796-.64-4.089-3.316-.192-1.758-1.428-3.878-2.976-5.127-2.066-1.667-2.388-2.436-1.498-3.51.627-.754 1.288-2.936 1.47-4.86.298-3.138.602-3.468 3.014-3.187 1.982.231 3.124-.359 4.363-2.251.956-1.458 2.102-2.283 3.253-2.453m-79.763 1.893c-.873 0-5.134 3.565-9.471 7.928-9.17 9.224-9.331 7.685 2.122 19.816 3.764 3.988 7.444 7.258 8.176 7.258 1.457 0 14.769-12.46 16.243-15.204.725-1.35-.79-3.578-7.285-10.75-4.507-4.975-8.91-9.048-9.784-9.048m381.18.79c2.616 1.119 4.778 3.433 4.778 6.21 0 1.893-.88 3.55-2.627 4.924-3.527 2.775-6.915 2.613-10.005-.477-2.793-2.794-2.663-6.339.367-9.702 1.807-2.004 4.873-2.075 7.488-.955m-711.565 7.23c1.996 0 4.027.654 5.347 1.975 2.467 2.467 2.593 7.174.248 9.233-3.259 2.862-8.975 3.008-11.235.285-1.771-2.134-1.51-7.311.486-9.518 1.195-1.321 3.159-1.975 5.154-1.975m196.466 2.784c.62.607 1.164 2.137 1.552 4.529.46 2.827.253 3.666-.882 3.666-2.273 0-4.034-4.676-2.7-7.166.706-1.321 1.409-1.637 2.03-1.03m134.067.367c1.374.184 2.762 1.206 4.62 3.124 3.802 3.922 3.978 5.617.883 8.525-3.318 3.117-6.991 2.79-10.097-.9-3.285-3.904-3.273-6.237.046-8.847 1.814-1.427 3.173-2.085 4.547-1.902m267.49.717c-2.457.144-3.03 2.356-4.19 6.77a7895 7895 0 0 1-4.446 16.74c-2.904 10.903-3.035 12.039-1.57 13.504.878.88 8.894 4.144 17.813 7.258 8.918 3.115 16.504 5.703 16.849 5.751 1.796.25 3.407-4.248 5.98-16.674 3.186-15.38 3.443-18.555 1.636-19.982-.687-.543-8.149-4.033-16.583-7.754-8.697-3.837-13.032-5.757-15.489-5.613m-461.962 1.993c.845-.845 3.186.324 9.205 4.566 4.443 3.13 8.085 5.847 8.085 6.045 0 .199-1.973 4.612-4.382 9.803-2.41 5.19-4.852 9.73-5.43 10.087-2.212 1.367-2.3-1.712-.184-6.633 1.62-3.767 2.075-6.34 1.7-9.692-.438-3.91-1.197-5.167-5.32-8.801-3.584-3.16-4.52-4.53-3.674-5.375m425.765.12c2.021 0 4.714 4.342 3.941 6.357-.93 2.425-2.18 2.002-3.895-1.314-1.916-3.705-1.926-5.043-.046-5.043m-110.915 1.947c-.81.672-3.583 5.12-6.156 9.886s-5.958 10.538-7.533 12.834c-5.093 7.426-5.285 8.912-1.516 11.787 3.675 2.803 14.11 7.783 28.526 13.615 11.256 4.554 14.782 4.929 16.022 1.681 1.614-4.225 7.184-22.528 9.683-31.805.722-2.679-1.826-4.552-10.087-7.414-4.4-1.525-12.378-4.81-17.731-7.295-7.903-3.666-10.013-4.28-11.208-3.289m267.435 3.05c.952 0 2.915.937 4.364 2.077 3.194 2.512 3.607 7.739.808 10.27-2.471 2.238-8.427 2.138-10.519-.174-2.58-2.85-2.11-7.663.983-10.096 1.45-1.14 3.412-2.077 4.364-2.077m-730.5 6.413c6.622-1.662 11.295 7.985 6.394 13.202-4.419 4.703-12.248 2.21-13.505-4.3-.494-2.559-.119-3.675 1.911-5.705 1.39-1.389 3.73-2.828 5.2-3.197m313.71.276c2.442 1.112 25.789 25.423 25.789 26.853 0 1.102-14.102 15.652-21.489 22.169-3.296 2.908-6.262 5.292-6.587 5.292-2.315 0-2.62-6.452-.533-11.282.765-1.77 4.145-5.904 7.506-9.187 3.36-3.283 6.11-6.718 6.11-7.635s-3.381-5.405-7.506-9.968c-5.928-6.557-7.49-8.938-7.479-11.364.023-4.648 1.335-6.179 4.19-4.878m-162.72 1.488c.873-.873 3.613 2.849 2.92 3.969-.29.469-.915.854-1.396.854-1.143 0-2.394-3.953-1.525-4.823m317.54.027c.913-.23 1.974.233 3.428 1.333 1.274.964 3.065 1.266 5.163.872 2.548-.478 3.43-.197 4.263 1.36.577 1.08 2.32 2.224 3.877 2.536 2.782.556 2.83.682 2.83 7.57 0 5.806-.299 7.075-1.737 7.45-.955.25-2.414 2.085-3.243 4.07-1.613 3.861-3.02 4.367-5.944 2.15-1.134-.855-3.104-1.185-5.145-.854-2.894.47-3.47.183-4.667-2.324-1.089-2.282-2.125-2.932-5.108-3.18-4.186-.346-4.433-.958-2.159-5.355 1.14-2.204 1.276-3.364.496-4.144-1.789-1.789-1.234-3.677 1.369-4.667 1.349-.513 3.158-2.304 4.024-3.978.871-1.685 1.642-2.609 2.554-2.839m-95.03 2.058c.928.158 1.617 1.588 1.8 3.758.265 3.124-.422 4.25-6.256 10.317-3.6 3.745-6.541 7.531-6.541 8.406s2.668 4.361 5.926 7.754c6.146 6.4 7.967 10.787 6.66 15.995-.346 1.378-.984 2.508-1.424 2.508-.99 0-24.52-23.625-25.034-25.136-.525-1.543 23.044-23.91 24.869-23.602m-195.225.478c-1.5.714-4.809 6.07-9.757 15.811l-7.487 14.736 3.987 3.344c2.191 1.838 7.58 6.03 11.98 9.316s8.71 5.995 9.573 6.017c1.986.051 21.31-28.522 20.579-30.427-.547-1.425-5.506-5.241-18.88-14.516-6.72-4.66-8.022-5.22-9.995-4.28m445.71 1.663c2.781.698 4.417 4.942 2.857 7.414-4.166 6.605-13.216 2.659-10.868-4.74.753-2.372 4.38-3.585 8.011-2.674m-577.287 1.599c.52 0 .8.973.625 2.168-.36 2.44-2.285 3.506-3.317 1.837-.736-1.19 1.158-4.005 2.692-4.005m467.548 1.855c-.89.89-6.3 20.157-8.985 31.99-1.074 4.732-1.018 5.491.468 6.578 1.56 1.14 24.851 6.057 32.77 6.917 1.926.21 5.979.328 9.004.267l5.503-.11.753-12.495c.42-6.875.65-15.866.505-19.972-.31-8.835 1.93-7.689-22.664-11.549-10.31-1.618-16.76-2.22-17.354-1.626m140.93 7.139c1.86 0 3.356 3.343 2.268 5.062-1.319 2.085-1.123 9.076.322 11.566.68 1.17 1.81 3.087 2.517 4.254 1.122 1.852 1.062 2.112-.496 2.067-3.397-.098-9.288-3.143-9.288-4.805-.012-4.393 3.532-18.144 4.676-18.144m-124.954 1.12c.973.089 1.892.884 2.885 2.398 1.181 1.804 2.393 2.443 4.272 2.251 2.176-.222 2.676.185 2.93 2.38.169 1.455 1.182 3.442 2.251 4.41 2.6 2.353 2.445 3.84-.56 5.447-1.85.99-2.5 2.149-2.5 4.465 0 4.232-1.463 5.418-5.961 4.814-2.234-.3-4.058-.052-4.465.607-1.083 1.75-4.085 1.307-6.082-.9-1.003-1.11-3.211-2.385-4.906-2.83-2.813-.74-3.058-1.125-2.765-4.42.176-1.984-.215-4.612-.873-5.842-1.05-1.963-.881-2.474 1.424-4.153 1.444-1.052 2.627-2.787 2.627-3.858 0-2.437 2.233-3.365 4.796-1.994 1.54.824 2.334.634 3.74-.919 1.19-1.316 2.214-1.944 3.187-1.855m-479.06 1.48c.25.435-.368 1.498-1.79 3.298-2.411 3.049-4.3 3.83-5.31 2.196-1.053-1.702.593-3.948 3.683-5.026 2.047-.713 3.167-.904 3.418-.468m133.7 4.4c5.264 0 7.498 6.145 3.638 10.005-4.128 4.128-9.995 1.312-9.995-4.796 0-3.447 2.144-5.209 6.357-5.209m392.471 1.36c1.159-.264 2.799.057 4.76.992 2.454 1.17 4.172 3.162 6.109 7.11 2.628 5.36 2.65 5.583 1.01 9.023-1.735 3.638-3.001 4.17-5.898 2.48-.926-.54-3.174-.87-4.998-.726-3.12.247-3.312.075-3.344-2.967-.018-1.779-.59-3.787-1.258-4.456-1.659-1.658-1.528-4.311.284-5.815.825-.685 1.507-2.101 1.507-3.151 0-1.382.67-2.226 1.828-2.49m84.016 4.391c1.43-1.43 4.784 1.425 3.712 3.16-.936 1.515-2.084 1.368-3.593-.45-.974-1.173-1.005-1.823-.12-2.71m-443.432 7.552c.599.196 1.224 1.788 1.396 3.537.254 2.564-.378 3.83-3.252 6.541-2.994 2.824-3.555 4.033-3.555 7.589 0 4.284.92 5.546 9.095 12.43 1.045.88 1.902 2.731 1.902 4.106 0 1.72-.552 2.5-1.755 2.49-2.332-.016-20.248-12.86-20.248-14.515 0-.714 1.727-3.475 3.83-6.137 2.104-2.662 5.543-7.442 7.654-10.62 2.11-3.18 4.334-5.617 4.933-5.42m383.036 2.802c1.925-.265 6.172.795 13.873 3.041 15.86 4.626 15.285 3.732 12.172 18.861-1.414 6.875-2.814 13.287-3.105 14.25-.755 2.503-1.847 2.18-4.887-1.434-2.104-2.5-2.552-3.834-2.077-6.247 1.485-7.529 1.597-12.183.35-14.57-1.612-3.085-7.196-6-11.503-6-2.558-.001-3.539-.608-4.75-2.949-1.596-3.088-1.997-4.687-.073-4.952m65.826.35c2.05-.788 4.722.067 4.722 1.515 0 1.28-2.992 1.325-4.97.074-1.261-.798-1.228-1.024.248-1.59m-323.238 3.545c-2.169 0-18.043 16.11-18.043 18.31 0 1.02 3.778 5.641 8.387 10.271 4.61 4.63 8.988 8.425 9.73 8.425 2.17 0 17.887-16.217 17.887-18.457 0-2.339-15.696-18.549-17.961-18.549m299.425 5.063c-.651 1.053-5.501 27.736-6.091 33.165h39.835c.142-3.295.411-7.623.91-11.842 1.387-11.77.997-12.334-11.007-15.903-4.736-1.408-10.81-3.443-13.496-4.52-5.42-2.173-9.16-2.505-10.151-.9m-423.717 4.189c1.37-.456 3.605 4.372 2.701 5.834-.875 1.415-3.443 1.084-4.06-.524-.796-2.072-.09-4.827 1.36-5.31m391.672 1.36c1.96.752 3.566 4.235 2.839 6.146-.816 2.144-2.748 1.371-4.649-1.847-1.995-3.378-1.131-5.428 1.81-4.3m-444.369.395c1.534 0 8.948 5.137 8.948 6.2 0 .519-2.512 4.286-5.585 8.37-5.249 6.974-7.414 8.837-7.414 6.376 0-.58 1.124-2.708 2.499-4.731 2.657-3.91 3.24-9.139 1.525-13.652-.643-1.69-.63-2.563.027-2.563m178.376 1.12c1.436-.144 2.76.424 3.923 1.71 2.306 2.547 2.058 4.85-.808 7.716-3.071 3.071-5.577 3.111-8.37.138-2.814-2.995-2.74-3.767.634-7 1.635-1.567 3.186-2.42 4.621-2.564m137.374 2.674c1.38-1.38 3.25-.102 2.545 1.736-.31.808-.938 1.47-1.396 1.47-1.452 0-2.216-2.139-1.149-3.206m12.2 3.353c0 .63-2.121 3.44-4.712 6.247s-5.29 5.458-6 5.898c-2.059 1.278-1.58-2.973.506-4.492.987-.719 3.068-2.99 4.621-5.053 2.73-3.626 5.586-4.954 5.586-2.6m-306.406 4.456c-1.006.386-6.629 8.237-12.375 15.618h33.992c-2.137-1.968-2.682-2.855-5.962-5.476-13.857-11.072-13.618-10.924-15.655-10.142m465.343.432c2.884-1.544 5.548-1.261 7.405.79 1.936 2.139 2.175 6.258.459 7.974-1.454 1.453-5.65 1.516-8.048.12-2.492-1.452-2.366-7.52.184-8.884m-112.624 3.316c.875-.876 2.682.612 2.682 2.205 0 .793-.461 1.442-1.029 1.442-1.197 0-2.476-2.824-1.653-3.647" style="fill:green" transform="translate(-98.977 46.864)scale(.15945)"/><path d="M50.291 22.698s2.375-1.9 2.375-4.534c0-1.542-1.369-4.102-4.534-4.102s-4.534 2.561-4.534 4.102c0 2.634 2.375 4.534 2.375 4.534-2.638-2.055-7.34-.652-7.34 3.455 0 2.056 1.68 4.318 4.317 4.318 3.165 0 4.534-3.455 4.534-3.455s.402 3.938-1.943 6.046h5.182c-2.345-2.107-1.943-6.046-1.943-6.046s1.37 3.455 4.534 3.455c2.64 0 4.318-2.263 4.318-4.318 0-4.107-4.703-5.51-7.34-3.455" style="fill:green" transform="translate(-56.309 72.549)scale(2.07389)"/><path d="M50.291 22.698s2.375-1.9 2.375-4.534c0-1.542-1.369-4.102-4.534-4.102s-4.534 2.561-4.534 4.102c0 2.634 2.375 4.534 2.375 4.534-2.638-2.055-7.34-.652-7.34 3.455 0 2.056 1.68 4.318 4.317 4.318 3.165 0 4.534-3.455 4.534-3.455s.402 3.938-1.943 6.046h5.182c-2.345-2.107-1.943-6.046-1.943-6.046s1.37 3.455 4.534 3.455c2.64 0 4.318-2.263 4.318-4.318 0-4.107-4.703-5.51-7.34-3.455" style="fill:green" transform="translate(-44.957 -33.937)scale(3.36871)"/><g style="fill:green"><path d="M-26.845 90.822v129.995H103.15V90.822Zm2.3 2.3H100.85v125.396H-24.546Z" style="color:#000;fill:green;stroke-width:.811363;-inkscape-stroke:none" transform="translate(45.39 6.384)"/></g><g style="font-size:64px;font-family:NumbersDeuce;-inkscape-font-specification:NumbersDeuce;fill:green;stroke-width:2.83465"><path d="M-67.967-72.24h-4.672v-4.352h14.4v4.352h-4.544V-46q0 8.192-3.328 11.648-3.264 3.392-8.896 3.2-5.248-.192-8-3.072t-2.752-8.32v-3.904h4.736v3.648q0 3.84 1.856 5.504 1.6 1.536 4.16 1.536 4.352 0 5.76-2.752 1.28-2.496 1.28-8.832zv-.064z" aria-label="J" style="fill:green" transform="translate(136.062 121.288)scale(1.40813)"/></g><g style="clip-rule:nonzero;opacity:.198728;fill:#b3b3b3;fill-opacity:1;fill-rule:nonzero;stroke:#000;stroke-miterlimit:4;filter:url(#a)" transform="translate(0 .616)"><path d="M166.837 235.548c0 3.777-3.087 6.869-6.871 6.869H7.11c-3.775 0-6.861-3.092-6.861-6.87V7.12C.25 3.343 3.336.25 7.11.25h152.856c3.784 0 6.87 3.093 6.87 6.87z" style="fill:#b3b3b3;fill-opacity:1;stroke-width:.5"/></g></svg>