<svg xmlns="http://www.w3.org/2000/svg" xml:space="preserve" width="222.783" height="323.556" viewBox="0 0 167.087 242.667"><defs><filter id="a" width="1.147" height="1.101" x="-.074" y="-.051" style="color-interpolation-filters:sRGB"><feGaussianBlur in="SourceGraphic" result="result3" stdDeviation="4"/><feGaussianBlur in="SourceGraphic" result="result4" stdDeviation="1"/><feBlend in2="result3" mode="darken"/><feComponentTransfer result="result1"><feFuncR tableValues="0 0.2 0.4 0.6 0.8 1 1" type="discrete"/><feFuncG tableValues="0 0.2 0.4 0.6 0.8 1 1" type="discrete"/><feFuncB tableValues="0 0.2 0.4 0.6 0.8 1 1" type="discrete"/></feComponentTransfer><feTurbulence baseFrequency="1" numOctaves="7" result="result0" type="fractalNoise"/><feConvolveMatrix kernelMatrix="-2 0 -2 0 -10 0 -2 0 -2" order="3 3" result="result5"/><feColorMatrix in="result5" result="result4" type="saturate" values="0"/><feComposite in="result1" in2="result4" k1="1.5" k2=".5" k3=".5" operator="arithmetic" result="result2"/><feComposite in2="SourceGraphic" operator="in"/></filter></defs><g style="fill-rule:nonzero;clip-rule:nonzero;stroke:#000;stroke-miterlimit:4"><path d="M166.837 235.548c0 3.777-3.087 6.869-6.871 6.869H7.11c-3.775 0-6.861-3.092-6.861-6.87V7.12C.25 3.343 3.336.25 7.11.25h152.856c3.784 0 6.87 3.093 6.87 6.87z" style="fill:#fff;stroke-width:.5"/></g><path d="M3.676-9C.433-9 0-5.523 0-5.523S-.433-9-3.676-9C-5.946-9-8-7.441-8-4.5-8-.614-1.42 3.294 0 9 1.352 3.299 8-.614 8-4.5 8-7.441 5.946-9 3.676-9" style="fill:maroon;fill-opacity:1" transform="matrix(2.28884 0 0 2.14214 42.062 121.334)"/><g style="fill:maroon"><path d="m1976.572-49.599 6.205 11.751c3.41 6.462 7.54 13.727 9.181 16.137l2.987 4.378 6.111-.64c16.542-1.739 22.102-2.682 23.4-3.979 1.22-1.221.695-3.224-3.822-14.533l-5.24-13.114h-19.41zm69.502 0c-12.516 0-13.6.147-13.133 1.753.28.963 3.577 9.784 7.327 19.606 6.193 16.221 6.667 17.972 5.156 19.077-.914.67-7.645 1.754-14.959 2.402-7.313.649-17.345 1.84-22.295 2.653l-15.868 2.606c-8.296 1.366-7.241 2.242-18.122-15.09-7.579-12.07-14.524-22.987-18.91-29.742l-2.106-3.246-17.287-.01c-16.91-.006-17.256.042-16.22 1.976.922 1.724 12.674 18.146 23.982 33.517 2.023 2.75 7.89 11.078 13.04 18.503s12.556 18 16.462 23.5c6.44 9.07 7.217 10.689 8.337 17.408.68 4.075 2.408 9.564 3.84 12.196 4.482 8.235 3.632 11.47-10.591 40.343-12.96 26.307-15.062 31.241-15.062 35.335 0 3.75 6.076 8.957 18.818 16.119 6.18 3.473 11.355 7.056 11.685 8.096.326 1.026-.105 4.547-.955 7.828-2.19 8.45-1.989 12.493.798 15.85 1.772 2.134 2.247 3.69 1.92 6.37-.366 2.995.212 4.383 3.728 8.83 4.488 5.678 7.011 10.775 7.011 14.199 0 1.963-.321 2.078-3.756 1.289-6.803-1.563-19.328-1.022-24.744 1.066-5.396 2.081-14.67 10.134-17.324 15.052-1.187 2.199-1.67 5.989-1.78 14.014l-.15 11.008-10.878 5.63c-5.98 3.098-12.902 6.783-15.377 8.19a552 552 0 0 1-10.442 5.73c-3.271 1.746-11.147 6.334-17.5 10.193-6.355 3.86-12.805 7.744-14.339 8.634-7.4 4.296-31.7 20.006-50.062 32.368-11.234 7.562-20.87 13.753-21.415 13.753s-1.546-1.467-2.216-3.255c-5.244-13.98-5.718-14.774-14.811-24.725-5.835-6.385-13.81-11.107-21.962-13.003-2.889-.672-5.478-1.582-5.75-2.021-.904-1.464 6.26-6.766 12.168-9.006 4.942-1.874 8.957-2.344 26.33-3.07 33.64-1.405 40.588-2.993 52.835-12.13 6.552-4.888 12.042-13.17 15.943-24.058 3.648-10.183 4.491-16 2.68-18.437-1.455-1.957-1.136-2.08-8.412 3.422-8.897 6.729-17.488 8.456-51.082 10.276-23.638 1.28-32.291 3.37-44.702 10.814-12.428 7.454-19.828 15.76-22.685 25.448-.424 1.437-1.578 1.732-6.372 1.623-3.222-.072-6.813.375-7.985 1.002-3.132 1.676-6.877 7.055-8.096 11.62-.88 3.294-1.821 4.355-5.333 6.038-2.346 1.125-5.332 3.609-6.631 5.51-2.135 3.121-2.315 4.212-1.846 11.37.492 7.503.398 8.023-1.91 9.84-4.85 3.814-6.632 10.372-4.405 16.23.741 1.95.613 3.364-.501 5.518-2.025 3.915-1.936 12.882.157 16.016.909 1.36 2.947 3.866 4.536 5.565l2.893 3.088-1.14 13.68c-1.015 12.18-.963 13.96.482 16.165 1.295 1.977 2.457 2.476 5.768 2.476 4.657 0 7.804-2.172 7.828-5.407.01-1.152.437-2.761.955-3.58.78-1.234 1.54-.9 4.48 1.948 1.948 1.889 3.552 3.848 3.552 4.35 0 .5-7.434 8.101-16.509 16.897l-16.499 15.998v47.401c0 30.513.357 47.391.993 47.391.543 0 4.748-3.344 9.348-7.437 41.925-37.302 68.932-85.129 79.091-140.06 3.768-20.376 3.8-20.472 9.47-24.66 2.721-2.012 5.21-3.396 5.527-3.08 1.715 1.716-2.263 28.941-6.947 47.55-4.218 16.759-13.93 42.632-18.799 50.062-.921 1.406-1.678 2.834-1.678 3.172 0 1.197-12.095 20.263-17.26 27.21-13.622 18.324-33.993 38.764-51.49 51.658l-8.255 6.084v25.04l5.945 2.356c7.942 3.154 9.483 2.504 8.616-3.654-.367-2.606-1.584-7.72-2.708-11.36-2.35-7.618-2.173-10.379.668-10.379 3.25 0 7.229 8.777 9.19 20.274 2.65 15.525.558 17.857-11.49 12.845-10.884-4.528-10.22-4.72-10.22 3.088v6.835l7.252 2.699c7.76 2.887 16.014 5.222 21.86 6.195 4.905.817 5.912-.698 6.612-9.951.987-13.049-2.368-31.6-7.902-43.682-1.688-3.686-2.803-7.402-2.476-8.254.855-2.23 6.558-1.944 10.155.51 11.339 7.734 26.362 12.858 40.13 13.68 11.407.68 12.372.113 12.372-7.234 0-13.144-8.505-35.628-17.946-47.438-2.81-3.516-4.953-6.878-4.757-7.475.68-2.078 6.387-1.67 14.273 1.02 6.998 2.387 9.752 2.74 23.426 3.051 12.888.293 16.336.062 20.422-1.4 2.704-.967 5.384-2.53 5.964-3.469 1.499-2.432-.365-8.657-6.112-20.413-4.001-8.184-6.154-11.142-13.318-18.316-4.701-4.708-9.99-9.609-11.75-10.888-3.576-2.598-4.077-4.658-1.456-6.01.962-.496 7.153-1.148 13.753-1.456s15.323-1.279 19.383-2.152c8.472-1.82 23.498-8.516 24.401-10.87 1.492-3.886-9.943-19.76-20.2-28.044-6.533-5.278-19.175-12.641-21.701-12.641-.723 0-1.825-.95-2.448-2.115-1.692-3.16.231-4.321 10.563-6.371 10.148-2.014 20.54-6.387 28.12-11.834 5.524-3.97 8.406-4.562 10.415-2.143 1.065 1.284.821 2-1.457 4.378-1.498 1.564-5.054 4.1-7.901 5.639-5.028 2.716-15.674 10.112-15.674 10.888 0 .211 4.618 5.037 10.267 10.72s12.63 13.86 15.506 18.169c8.776 13.145 7.188 17.801-8.634 25.31-6.083 2.886-18.467 7.262-30.893 10.925-2.277.67-1.298 3.916 2.838 9.422 4.816 6.409 12.394 21.771 13.847 28.073 2.215 9.612.034 16.76-5.973 19.606-2.51 1.19-19.356 3.061-33.044 3.673-10.847.484-11.364 1.055-8.013 8.783 1.044 2.407 3.117 10.666 4.61 18.353 3.227 16.62 2.982 22.776-1.04 26.274-2.406 2.095-3.515 2.245-16.072 2.245-7.819 0-17.64-.682-23.361-1.633-12.41-2.06-13.526-1.716-12.576 3.905 2.127 12.59 2.397 17.969 1.428 28.732-1.15 12.773-2.15 15.733-6.047 17.917-2.295 1.287-3.57 1.3-9.367.149-3.69-.733-10.138-2.666-14.338-4.303-12.583-4.905-13.142-5.001-13.142-2.31 0 1.948 1.304 2.857 8.255 5.787 4.537 1.914 10.502 4.06 13.252 4.767 6.115 1.575 7.035 2.303 5.027 3.97-1.764 1.464-9.592.197-19.439-3.144-2.973-1.01-5.787-1.837-6.25-1.837-.465 0-.845 6.53-.845 14.505 0 10.29.34 14.496 1.16 14.496 3.396 0 36.776-21.448 52.844-33.953 18.517-14.41 29.774-25.318 46.622-45.184 13.725-16.183 15.076-17.934 23.492-30.364 23.145-34.182 41.32-78.972 49.895-122.995 1.962-10.071 2.846-14.834 3.478-18.753.652-4.036 1.547-4.614 3.506-2.254 1.42 1.71-.39 16.455-4.025 32.766-4.79 21.487-17.196 55.86-28.055 77.746-6.604 13.311-23.235 39.811-34.556 55.053-13.37 18-44.101 49.13-59.216 59.995-5.694 4.093-12.892 9.265-15.998 11.49-5.514 3.953-25.168 15.796-34.148 20.58-3.693 1.968-4.551 2.962-4.804 5.555-.294 3.025-.177 3.144 2.82 2.671 2.427-.382 4.745.453 10.313 3.738 14.065 8.3 20.672 14.53 20.672 19.476 0 2.279-1.972 1.69-6.39-1.901-5.678-4.614-25.31-17.668-26.57-17.668-.57 0-1.027 1.92-1.012 4.257.03 4.541-.013 4.494 10.554 11.528 15.633 10.407 26.882 18.921 28.51 21.59 1.807 2.966 2.553 6.632 1.353 6.632-.632 0-21.88-14.56-29.686-20.339-2.849-2.109-6.466-4.495-8.032-5.305l-2.847-1.474.315 4.247c.343 4.699-.465 4.042 33.842 27.693 11.563 7.972 14.547 11.2 13.754 14.858-.258 1.188-21.862-12.793-38.33-24.8-2.726-1.987-5.97-4.14-7.207-4.785-2.172-1.132-2.254-1.014-2.254 3.292v4.461l9.673 6.826c5.321 3.753 13.843 9.526 18.93 12.826 23.921 15.52 28.275 18.848 30.873 23.622 1.39 2.553 2.523 4.92 2.523 5.258 0 1.635-3.174.145-10.007-4.693-4.121-2.917-11.991-8.398-17.491-12.186s-13.827-9.63-18.502-12.975-10.18-7.115-12.243-8.384l-3.756-2.309.028 4.331c.032 5.234-5.36 1.183 61.971 46.631 3.575 2.413 7.526 5.327 8.774 6.483.431.4.716 1.27 1.27 1.938h8.838c-.891-1.422-1.435-2.466-2.318-3.784-5.77-8.604-18.26-33.15-23.956-47.067-8.63-21.088-15.947-46.196-19.067-65.439-2.245-13.841-2.15-14.673 1.873-16.591 5.486-2.617 6.137-1.73 8.04 10.832 4.69 30.945 18.08 69.722 35.206 101.961 3.39 6.38 8.488 13.315 12.79 20.088h149.825c9.032-2.27 15.27-6.45 16.137-13.475.288-2.335.758-12.683 1.048-23 .562-20.02 1.136-22.746 6.019-28.537 3.95-4.686 9.253-7.055 20.607-9.219 5.453-1.039 11.489-2.64 13.411-3.552 4.326-2.053 9.098-7.375 11.101-12.381 1.454-3.632 1.745-3.814 7.206-4.378 3.131-.323 6.115-.164 6.632.353 1.586 1.587-2.132 11.253-6.121 15.914-6.486 7.577-16.65 12.822-28.315 14.607-9.179 1.405-15.436 6.344-17.25 13.606-.597 2.39-1.146 12.216-1.215 21.84-.118 16.578-1.706 22.495-5.509 28.222h146.126c-9.272-24.076-15.19-42.18-22.129-70.716-4.975-20.46-5.33-23.885-2.513-24.29 4.141-.593 5.24 1.843 10.025 22.287 4.256 18.183 11.926 44.034 16.471 55.497 2.61 6.582 5.172 11.19 7.717 17.222h30.122c-3.043-1.992-3.556-3.464-8.829-6.14-14.52-7.367-18.986-13.826-19.003-27.507-.01-8.382.267-9.552 5.713-24.595 3.117-8.61 3.405-10.294 2.996-17.5-.249-4.387-1.047-10.145-1.771-12.8-1.543-5.652-.483-7.102 4.553-6.194 3.992.719 5.25 2.644 6.084 9.32 1.372 10.981-.191 24.805-4.034 35.697-4.053 11.484-4.403 17.027-1.475 23.482 2.865 6.317 4.336 7.646 12.873 11.677 8.545 4.034 16.238 9.828 20.681 14.56h14.941c-1.934-4.173-4.552-8.215-6.334-12.4-8.198-19.248-14.824-38.837-13.93-41.168.35-.91 1.72-1.65 3.051-1.65 2.104 0 2.839 1.078 5.63 8.253 9.151 23.529 13.816 33.568 20.273 46.965h8.746c.489-1.473 1.5-2.458 18.576-10.22 10.937-4.972 18.007-5.37 26.042-1.465 4.636 2.253 8.06 6.705 10.443 11.685h5.36c-14.164-24.873-25.872-50.838-33.396-75.752-2.215-7.335-4.034-14.171-4.034-15.2 0-2.352 6.156-8.432 7.568-7.476.576.39 2.083 4.535 3.348 9.21 4.039 14.93 8.902 29.677 13.447 40.742 6.534 15.904 15.487 32.399 24.92 48.476h11.306c.063-2.722-1.117-2.162 1.604-13.716 4.9-20.806 8.678-33.332 13.142-43.506 5.608-12.785 19.02-39.287 25.866-51.12 7.767-13.427 24.323-37.62 29.687-43.375 1.54-1.654 5.007-5.932 7.706-9.507 6.201-8.212 30.021-32.708 40.816-41.975 15.977-13.715 33.146-26.216 48.848-35.576 9.045-5.392 9.747-6.041 9.747-8.968 0-2.297-.616-3.442-2.253-4.201-1.238-.574-8.634-5.393-16.434-10.712-11.754-8.016-14.29-10.187-14.84-12.687-1.282-5.84-.455-5.53 18.503 7.02 15.345 10.158 15.212 10.12 14.83 4.878l-.307-4.21-19.002-12.632c-16.154-10.742-19.171-13.147-20.153-16.035-.636-1.868-.796-3.78-.353-4.247.817-.862 8.594 3.828 28.51 17.185l10.998 7.373.316-3.756c.39-4.581-.092-5.074-13.318-13.476-28.48-18.092-32.647-21.085-34.083-24.52-.778-1.864-1.419-4.097-1.419-4.953 0-1.39.357-1.37 3.255.11 1.788.915 6.398 3.782 10.248 6.372 16.251 10.936 33.629 22.017 34.529 22.017 1.43 0 1.18-6.935-.307-8.42-1.219-1.22-8.621-6.096-28.045-18.466-20.918-13.322-29.072-19.685-31.43-24.54-2.52-5.187-2.617-5.573-1.364-5.573 1.073 0 5.46 2.809 37.079 23.77l24.54 16.267.306-4.034c.181-2.38-.23-4.56-1.002-5.324-.72-.711-12.778-8.956-26.803-18.317-45.853-30.605-46.72-31.22-48.912-34.936-1.15-1.949-2.087-3.744-2.087-3.988 0-1.284 2.864.107 10.758 5.222 10.41 6.745 46.046 30.18 58.734 38.618l9.005 5.982.307-3.645c.352-4.125-.097-4.681-7.819-9.673-3.021-1.954-23.597-15.627-45.731-30.392-37.047-24.713-40.645-27.362-45.268-33.35-2.762-3.578-4.877-6.651-4.702-6.826s2.045-.036 4.155.306c4.998.811 15.427 7.858 18.224 12.316 6.031 9.612 11.266 13.184 13.948 9.516 1.22-1.67 1.63-1.568 6.585 1.604 8.03 5.14 11.557 8.606 12.891 12.678 1.836 5.601 3.824 8.118 8.162 10.332 4.16 2.122 6.751 1.915 6.751-.538 0-2.774 2.006-2.707 6.251.204 2.337 1.601 5.399 3.61 6.808 4.46 1.554.94 3.055 3.18 3.811 5.704 1.704 5.686 7.55 12.038 11.083 12.038 4.9 0 6.97-9.32 3.005-13.54-1.123-1.196-2.14-3.474-2.254-5.064-.173-2.412.163-2.876 2.04-2.81 1.96.069 2.254-.42 2.254-3.784 0-2.974-.695-4.54-3.005-6.798-1.839-1.798-2.995-3.96-2.995-5.583 0-2.373.307-2.602 2.995-2.207 2.917.428 2.999.327 2.987-3.636l-.01-4.071-18.688-12.001c-13.382-8.595-20.73-14.06-25.903-19.254-6.408-6.431-7.648-7.252-10.98-7.252-5.295 0-14.07-6.14-16.444-11.5-.974-2.2-3.668-5.907-5.982-8.245-4.966-5.016-8.506-5.62-9.997-1.697l-.974 2.56-4.804-4.137c-2.699-2.324-5.836-6.3-7.15-9.07-2.787-5.87-9.266-12.15-11.612-11.25-.883.34-1.989 1.566-2.458 2.727-.622 1.54-.872 1.668-.918.473-.035-.902.776-2.676 1.808-3.95l1.883-2.32 9.868 6.567c41.618 27.685 97.116 64.099 100.227 65.764 2.212 1.183 2.26 1.107 1.957-3.024l-.306-4.238-16.5-10.768c-9.074-5.918-21.447-13.982-27.497-17.927s-13.787-9.035-17.186-11.314-13.887-9.095-23.315-15.145-18.467-12.06-20.088-13.355l-2.95-2.356 2.18-3.645c1.198-2.005 2.504-4.03 2.912-4.498s6.078 2.643 12.595 6.91c6.516 4.266 21.838 14.324 34.046 22.35 40.73 26.783 52.787 34.584 54.55 35.308 1.663.682 1.754-7.32 1.754-159.777V12.354l-3.256 1.66c-1.787.915-5.043 2.905-7.243 4.414-2.2 1.51-6.481 4.31-9.506 6.223-21.656 13.692-19.992 12.28-20.032 16.981-.02 2.349-.185 48.594-.362 102.769-.413 126.346-.78 151.578-2.244 153.043-1.59 1.591-5.173-.427-5.89-3.32-.302-1.221-.644-59.635-.76-129.812-.171-103.032.036-128.054 1.085-129.997.714-1.323 8.958-7.36 18.317-13.41l23.204-14.997c5.635-3.644 6.212-4.346 6.501-7.874l.315-3.877-4.312 2.458c-4.773 2.72-44.091 27.433-47.41 29.798-3.82 2.723-4.41 5.349-4.424 19.68-.015 15.036-.48 18.308-2.615 18.308-.77 0-4.437-2.204-8.152-4.906-16.961-12.336-31.033-36.626-33.712-58.187-1.099-8.839-1.834-9.186-7.197-3.404-5.765 6.216-13.777 18.414-19.189 29.223-9.428 18.831-14.251 40.55-14.161 63.743.084 21.764 2.768 35.74 10.572 54.94 8.136 20.016 22.552 41.923 26.571 40.38.982-.376 2.108-3.911 3.31-10.424 3.314-17.933 9.888-31.484 22.148-45.63 7.277-8.395 18.643-17.25 20.988-16.35 1.249.48 1.456 12.262 1.456 85.509 0 46.722-.279 85.659-.613 86.529s-1.09 1.576-1.678 1.576c-2.327 0-60.71-40.589-60.71-42.207 0-.508 1.088-2.357 2.421-4.108 7.493-9.841 9.562-29.114 4.285-39.861-5.437-11.07-18.078-19.82-28.64-19.82-5.604 0-13.614 2.921-19.68 7.17l-5.842 4.08-4.155-4.6c-6.787-7.496-15.163-26.638-18.335-41.91-.484-2.33-1.62-7.585-2.523-11.676-.902-4.092-2.957-16.023-4.563-26.506s-4.571-26.257-6.594-35.057c-2.022-8.8-3.878-17.43-4.127-19.179-.644-4.532 1.293-9.57 5.964-15.479 2.23-2.82 9.695-13.047 16.582-22.73 25.208-35.443 42.237-58.954 46.26-63.863.813-.993-3.098-1.253-18.984-1.253h-20.014l-19.355 29.252c-10.65 16.087-20.294 30.07-21.433 31.068-2.01 1.764-2.436 1.722-14.422-1.335-14.632-3.732-32.147-7.538-43.626-9.488-4.55-.773-8.745-1.694-9.32-2.05-1.374-.848-.54-5.749 3.802-22.443 1.93-7.425 3.93-15.3 4.442-17.5s1.165-4.788 1.456-5.75c.489-1.613-.65-1.754-14.495-1.754h-15.025l-1.975 6.752c-1.088 3.713-3.663 13.056-5.722 20.756s-4.226 14.52-4.814 15.154c-.807.871-4.994.821-17.074-.204-8.8-.747-26.684-1.674-39.75-2.059-15.273-.45-24.056-1.094-24.585-1.799-.453-.603-1.814-4.698-3.033-9.098-3.107-11.219-7.125-24.582-8.19-27.248-.869-2.18-1.321-2.254-14.532-2.254zm31.374 0 .724 2.755c.395 1.512 1.514 6.504 2.485 11.092.972 4.588 2.51 9.085 3.423 9.998 1.393 1.394 4.877 1.75 21.868 2.225 11.119.311 23.45.65 27.406.752s7.46-.255 7.79-.789c.33-.533 1.495-4.692 2.588-9.246s2.423-9.91 2.958-11.899.974-3.899.974-4.248c0-.348-15.794-.64-35.103-.64zm134.273 0-1.623 5.75a1614 1614 0 0 1-3.97 13.754c-3.865 13.156-4.01 15-1.325 16.88 1.271.89 3.225 1.626 4.34 1.632s9.446 1.765 18.52 3.913c9.076 2.148 16.834 3.942 17.242 3.988.983.112 7.948-10.697 16.044-24.91 3.603-6.325 7.715-13.365 9.135-15.637 1.42-2.271 2.579-4.407 2.579-4.748s-13.707-.622-30.466-.622zm143.492 71.004c.526.275.804 1.179.621 2.004s-.569 11.969-.862 24.771c-.481 20.945-.713 23.379-2.31 24.234-.976.522-4.194 3.015-7.14 5.546-6.125 5.258-8.326 6.634-9.21 5.75-1.58-1.58 2.496-24.338 6.798-37.932 2.98-9.416 10.758-25.077 12.103-24.373m10.897 6c1.408 0 2.56.452 2.56 1.002s-.88 1.002-1.948 1.002-2.22-.452-2.56-1.002c-.35-.567.497-1.001 1.948-1.001M2084.367 29.9c30.089 0 42.522.334 43.33 1.141.622.623 3.07 7.821 5.434 15.998 10.491 36.28 11.547 41.953 11.528 62.184-.013 13.672-1.279 20.376-5.138 27.285-4.342 7.774-11.248 10.731-16.119 6.9-2.34-1.841-2.735-2.88-2.735-7.252 0-2.809.531-6.59 1.187-8.403 1.41-3.898.809-4.812-2.625-3.95-4.236 1.063-6.905 7.626-6.334 15.608.787 11.001 4.835 14.533 16.517 14.412 3.438-.035 6.251.285 6.251.714 0 1.128-13.963 19.508-19.513 25.68-6.349 7.062-29.787 24.5-39.851 29.65-15.288 7.824-29.825 13.253-41.197 15.396-8.84 1.666-13.39 1.414-18.307-1.02-4.769-2.36-7.118-6.333-7.141-12.057-.015-3.876-3.3-14.81-5.64-18.77-2.247-3.807-1.228-5.699 3.822-7.059 5.714-1.538 13.447-.428 18.057 2.597 6.908 4.534 9.073 2.806 5.314-4.257-1.397-2.624-2.541-5.509-2.541-6.408 0-2.8-2.615-4.123-6.761-3.422-2.802.473-5.155.07-8.783-1.494-2.739-1.18-8.199-2.39-12.205-2.698-7.784-.601-7.73-.537-6.27-6.77 1.985-8.47-1.315-13.314-14.977-21.962-9.391-5.945-12.011-8.333-12.001-10.962 0-1.142 4.99-12.172 11.074-24.512 17.971-36.451 18.312-37.82 12.752-50.397-1.743-3.942-3.37-9.495-3.617-12.344l-.445-5.184 3.867-1.02c4.39-1.164 17.622-3.238 37.366-5.843 11.116-1.466 20.953-1.78 55.701-1.78m51.63 1.846c1.526-1.526 3.383.98 5.027 6.789.99 3.502 2.438 7.943 3.218 9.868 4.142 10.225 10.52 36.32 12.835 52.501a3253 3253 0 0 1 3.636 26.497c3.306 24.9 10.245 52.671 19.504 78.006 1.91 5.225 3.469 9.835 3.459 10.248s-1.302.751-2.884.751c-2.484 0-3.156-.647-4.888-4.748-5.215-12.346-15.508-46.162-19.253-63.251-.422-1.925-1.516-6.874-2.43-11-.914-4.124-2.091-15.283-2.616-24.799-1.045-18.956-5.099-41.812-10.97-61.803-4.709-16.026-5.287-18.41-4.638-19.059m10.665 1.41c0-1.237 3.682-.848 4.749.5 3.217 4.066 14.7 49.929 18.715 74.751.757 4.675 2.115 14.8 3.014 22.5 3.871 33.155 9.684 55.208 22.203 84.247.348.807-.335 1.252-1.92 1.252-2.038 0-2.72-.805-4.043-4.748-.877-2.613-3.64-10.066-6.14-16.564s-5.662-15.503-7.02-20.005c-2.914-9.657-9.104-40.4-10.007-49.682-.348-3.575-1.066-8.524-1.586-11-.52-2.474-1.625-10.124-2.458-17-2.213-18.272-3.227-23.44-6.659-33.999-3.419-10.517-8.848-29.078-8.848-30.252m14.552.25c1.934 0 2.88.782 3.904 3.246 3.254 7.833 13.387 53.103 16.397 73.248 8.047 53.862 11.544 69.919 20.153 92.465 2.197 5.754 3.997 11.267 3.997 12.251 0 6.279-5.854-4.513-13.67-25.207-7.992-21.16-9.148-27.025-15.451-78.006-1.669-13.497-6.977-36.683-14.755-64.494-1.693-6.05-3.085-11.563-3.098-12.25-.012-.688 1.12-1.253 2.523-1.253m12.585 2.18c2.442.365 3.419 3.07 7.336 20.32 1.374 6.05 3.196 13.473 4.043 16.498 2.878 10.275 6.732 32.467 7.475 43.005.408 5.775 1.452 14.319 2.319 18.994a752 752 0 0 1 2.764 15.998c1.952 12.323 9.606 38.44 15.015 51.213 2.784 6.574 4.825 12.593 4.526 13.373s-.992 1.419-1.54 1.419c-1.247 0-11.7-21.501-12.965-26.673-.515-2.103-1.631-6.305-2.486-9.33-4.071-14.41-7.566-31.503-10.526-51.5-4.865-32.867-8.538-52.24-14.162-74.704-4.61-18.414-4.674-19.044-1.8-18.613m193.897.816c4.514 0 6.179.394 6.622 1.549.325.848.428 1.708.222 1.91-.739.728-7.435 1.29-10.127.853-1.898-.307-2.745-1.04-2.745-2.374 0-1.698.732-1.938 6.028-1.938m-182.685 1.001c2.932 0 2.514-1.141 8.088 21.999a690 690 0 0 1 12.01 62.5c4.942 34.196 12.477 64.104 21.906 87.001 1.358 3.298 2.26 6.337 2.003 6.752-.721 1.167-2.994.886-4.09-.501-.543-.688-2.2-4.395-3.682-8.245s-3.625-9.235-4.758-11.964c-8.584-20.676-16.141-55.806-19.16-89.042-.488-5.373-8.015-41.521-11.24-53.995-4.1-15.847-3.998-14.505-1.077-14.505m12.094 2.004c1.343 0 2.805.564 3.246 1.252 2.01 3.13 6.518 23.102 9.19 40.741 3.867 25.515 8.186 52.52 10.24 64.002 4.302 24.062 13.713 55.848 19.448 65.68 1.34 2.298 2.439 4.434 2.439 4.749s-.902.575-2.003.575c-1.547 0-2.987-2.11-6.335-9.256-2.384-5.087-5.067-11.27-5.954-13.744-5.03-14.042-12.744-45.13-14.644-59.003-1.195-8.728-2.873-19.941-5.602-37.496-1.586-10.208-8.206-39.912-10.943-49.089-2.123-7.117-1.986-8.411.918-8.411m14.18 2.8c2.027 1.134 4.247 10.378 9.293 38.702 1.666 9.35 3.726 20.82 4.582 25.495s1.999 12.52 2.54 17.436c.933 8.449 2.036 14.405 7.05 38.061 2.73 12.884 8.955 31.484 14.523 43.385 2.414 5.161 4.396 9.772 4.396 10.248 0 2.364-4.017.446-6.307-3.014-8.645-13.063-14.667-31.636-20.301-62.61-.8-4.4-2.097-10.705-2.884-14.005-1.502-6.295-6.912-39.07-8.004-48.504-.825-7.124-5.24-30.817-7.15-38.386-1.62-6.42-.9-8.577 2.262-6.808m9.015 2.504c2.356-.903 3.986 1.413 5.24 7.43.66 3.168 2.051 9.588 3.088 14.263 2.488 11.212 4.616 22.662 6.038 32.497.636 4.4 1.57 10.159 2.077 12.799s.928 6.92.928 9.506c0 2.585.408 6.273.9 8.198.49 1.925 1.654 8.003 2.587 13.503 4.148 24.451 4.89 27.147 12.965 47.494 7.744 19.513 23.511 38.582 38.321 46.334 22.482 11.767 36.26 11.476 48.774-1.039 5.665-5.664 7.615-10.162 7.707-17.788.09-7.553-3.377-14.848-9.302-19.54-11.19-8.864-25.81-1.441-22.027 11.184.642 2.141.89 4.33.557 4.87-1.074 1.736-4.254 1.05-7.41-1.605-4.225-3.555-4.226-9.014-.01-15.73 4.031-6.42 8.87-8.632 18.984-8.661 6.613-.02 8.122.336 12.066 2.837 6.446 4.089 10.384 9.372 12.956 17.371 1.99 6.19 2.12 7.64 1.14 12.9-1.359 7.31-4.566 14.115-9.134 19.375-4.515 5.197-7.406 6.917-15.85 9.432-8.026 2.39-17.01 2.556-25.579.482-9.564-2.316-22.977-10.443-30.855-18.697-9.44-9.89-21.889-30.82-25.727-43.246-1.104-3.574-2.527-7.456-3.153-8.625-3.723-6.957-9.053-33.156-15.433-75.854-1.356-9.078-3.376-20.557-4.488-25.505-1.112-4.947-2.701-12.59-3.534-16.99s-1.895-9.945-2.365-12.326c-.665-3.367-.545-4.453.538-4.869zm-218.427 1.262c-5.898-1.336-8.071 2.793-4.118 7.818 3.825 4.863 7.265 5.865 21.386 6.242 7.166.19 15.722.863 19.022 1.493 6.858 1.31 21.157 7.61 26.431 11.648 1.961 1.501 6.045 4.422 9.07 6.483 5.944 4.048 7.76 4.534 8.607 2.328 1.776-4.627-12.35-18.554-26.107-25.746-12.352-6.456-23.065-9.087-37.997-9.32-7.15-.112-14.484-.536-16.294-.946M2371.61 47.4c5.962 0 10.205.427 10.6 1.067.362.586.499 1.229.306 1.419-.64.631-16.317 1.357-18.604.862-1.237-.268-2.244-1.124-2.244-1.91 0-1.145 1.987-1.438 9.942-1.438m-138.54.306c2.367 1.73 8.88 27.555 11.65 46.195 9.189 61.855 12.614 76.947 21.553 94.746 9.815 19.546 23.088 33.962 37.338 40.556 8.967 4.15 13.544 4.888 19.67 3.172 6.317-1.768 9.94-5.116 11.88-10.962 1.517-4.565 1.517-5.179 0-8.375-1.976-4.166-4.029-6.065-7.929-7.317-3.864-1.24-4.337-3.012-1.178-4.452 3.345-1.524 10.105.95 14.162 5.185 2.49 2.598 2.943 3.96 3.274 9.821.605 10.706-3.686 16.858-15.043 21.581-10.486 4.362-29.836-1.037-42.365-11.815-9.584-8.245-19.783-22.935-27.284-39.304-6.839-14.924-10.342-29.277-15.09-61.832-.642-4.4-1.575-10.704-2.077-14.004-.503-3.3-1.608-10.95-2.449-17-1.45-10.435-3.053-18.247-7.67-37.366-2.098-8.69-1.655-11.179 1.559-8.829m9.47 2.699c3.456 0 4.069 1.703 8.653 24.002 1.413 6.875 3.001 14.12 3.524 16.11.522 1.988.946 4.892.946 6.445s.458 5.326 1.01 8.384c1.177 6.51 4.92 29.304 6.02 36.652 1.571 10.506 8.877 35.1 12.742 42.902 4.55 9.184 20.594 26.74 30.318 33.174 3.277 2.17 5.326 2.755 9.664 2.755 5.18 0 5.711-.232 8.903-3.96l3.394-3.97 1.883 2.254c2.313 2.76 1.762 5.211-1.975 8.792-2.151 2.06-4.056 2.819-7.66 3.051-8.411.542-14.197-1.596-24.8-9.163-7.697-5.492-11.238-9.277-16.768-17.927-9.791-15.314-15.123-29.003-18.697-48.004-.62-3.3-1.54-8.023-2.05-10.498-1.033-5.024-3.316-18.855-4.868-29.501-2.469-16.934-3.319-22.245-4.146-25.996-.485-2.2-1.606-7.827-2.486-12.502s-2.474-11.473-3.542-15.108c-2.373-8.07-2.371-7.892-.065-7.892m10.025 3.71c.797-.813 6.103.775 6.103 1.827 0 .325 1.299 6.53 2.884 13.781 3.443 15.75 6.771 34.197 8.152 45.157 2.456 19.498 12.52 55.372 18.595 66.292 1.919 3.45 5.714 8.94 8.43 12.205 3.538 4.25 4.934 6.807 4.934 8.987 0 4.422-1.798 3.821-8.152-2.708-8.773-9.016-14.154-18.33-19.485-33.75-2.738-7.917-9.548-41.162-11.37-55.506-2.383-18.753-4.907-32.15-9.33-49.497-.841-3.3-1.185-6.355-.76-6.788m125.379 2.819c8.316.535 11.287 1.118 13.003 2.55 2.138 1.785 2.146 1.859.222 1.902-1.1.024-3.575.194-5.5.38-6.805.656-23.322-.809-23.751-2.105-.814-2.463 4.936-3.44 16.026-2.727m-345.179 7.725c-6.758-.823-13.016-.068-19.439 2.198-5.539 1.955-7.313 2.206-9.283 1.308-1.837-.837-2.731-.8-3.654.13-.966.973-.203 3.17 3.617 10.433 5.26 10.004 5.933 14.834 2.16 15.516-2.716.492-5.5 3.105-5.5 5.157 0 2.084 4.013 4.006 8.366 4.006 2.096 0 5.582 1.454 9.701 4.044 7.294 4.585 18.268 9.997 24.93 12.298 2.474.854 4.949 1.426 5.499 1.27 1.82-.514 1.69-3.606-.176-4.21-5.228-1.693-8.037-3.066-13.466-6.576-3.279-2.119-5.704-4.262-5.398-4.758.306-.495 2.47-1.217 4.804-1.604s7.819-1.994 12.186-3.58c4.368-1.586 8.672-2.884 9.571-2.884.9 0 4.407 1.12 7.79 2.495 7.316 2.972 8.302 3.039 11.14.742 3.074-2.49 1.93-4.452-5.278-9.024-18.328-11.626-23.256-14.578-27.98-16.777-4.709-2.193-4.91-2.423-2.19-2.412 4.37.018 10.562 3.119 23.224 11.612 10.98 7.364 14.774 8.658 14.774 5.045 0-2.351-13.937-12.731-23-17.13-8.39-4.071-15.64-6.475-22.398-7.299m350.706 3.766c16.3.019 19.24.265 22.945 1.947 2.337 1.061 4.248 2.41 4.248 2.987 0 1.277-47.606 1.478-48.394.204-.284-.46.16-1.806.993-2.996 1.462-2.087 2.167-2.163 20.208-2.142m-1.585 12.872c29.564.25 33.426.664 32.487 3.478-.632 1.897-62.397 1.282-64.307-.64-.42-.421-.24-1.29.398-1.929.843-.843 9.468-1.093 31.422-.909m-351.523 5.11c1.885 0 1.538 3.14-.64 5.75-2.457 2.947-3.06 2.832-3.06-.556 0-2.988 1.574-5.193 3.7-5.193m7.753 2.653c1.17-.51 2.65-.225 4.832.686 4.336 1.812 4.767 3.86 1.169 5.5-1.401.638-4.298 1.16-6.446 1.16h-3.904l1.363-3.247c.96-2.282 1.817-3.588 2.986-4.099m341.09 3.58c33.722-.278 36.71.07 35.158 4.118-.565 1.473-3.27 1.63-25.912 1.465-13.905-.1-28.886-.44-33.286-.751-7.144-.506-8.003-.783-8.003-2.57 0-1.952.757-2.005 32.042-2.262m-41.614 2.93c.51.184 5.507 4.38 11.1 9.33l10.175 9.006-.686 4.498c-1.62 10.64-2.408 20.16-2.458 29.687-.03 5.605-.497 10.47-1.039 10.804-2.523 1.56-11.89-21.1-15.534-37.58-2.46-11.12-3.387-26.402-1.558-25.744m24.41 10.165c.927-.927 44.628-.695 45.564.241.326.326-.278 1.233-1.345 2.013-1.518 1.11-6.196 1.419-21.553 1.419s-20.045-.309-21.563-1.42c-1.066-.78-1.561-1.795-1.103-2.253m17.825 10.758c13.115-.2 16.214.698 12.297 3.562-1.014.741-3.214 1.255-4.896 1.14-1.683-.115-7.446-.358-12.808-.538-7.382-.247-9.757-.65-9.757-1.678 0-2.041 1.412-2.276 15.164-2.486m-372.214 1.429c-3.37 1.07-2.19 4.12 3.033 7.873 5.712 4.104 7.452 8.093 4.48 10.267-3.122 2.283-6.966 1.514-15.906-3.163-11.562-6.048-17.164-5.922-19.374.418-1.45 4.162-.443 7.012 2.69 7.614 4.81.924 9.558 2.303 16.628 4.823 8.524 3.036 9.919 3.105 15.006.77 6.623-3.042 7.799-5.041 7.327-12.456-.324-5.08-.986-7.178-3.172-10.044-3.265-4.28-7.985-6.968-10.712-6.102m365.277 10.016c8.433.45 10.766.893 9.691 1.836-1.044.916-16.732 1.314-18.252.464-3.46-1.937-.34-2.774 8.56-2.3m-9.646 10.072c2.372-.91 10.723-.703 12.317.306 2.17 1.374.616 3.733-2.931 4.442-3.655.73-7.87.724-9.71-.019-1.78-.718-1.556-4.008.324-4.73m-214.476 1.623c.571.382 1.032 1.72 1.4 4.025 1.453 9.108 6.759 28.388 13.476 48.968 3.862 11.835 7.02 21.973 7.02 22.536 0 1.357-2.393 2.236-3.774 1.382-2.208-1.364-6.547-13.124-13.346-36.142-7.859-26.604-9.257-34.556-6.845-39.063.812-1.517 1.497-2.088 2.069-1.706m-99.569 3.515c-1.09.327-1.53 1.077-1.53 2.318 0 1.332 1.192 2.184 4.247 3.014a832 832 0 0 1 5.519 1.512c1.793.51 3.453 5.406 2.763 8.152-.332 1.323-2.035 3.01-3.969 3.932-3.131 1.493-3.908 1.488-10.23-.092-3.76-.94-10.27-3.257-14.467-5.148-10.41-4.687-15.133-5.194-20.858-2.244-5.3 2.731-8.077 6.88-6.4 9.553.873 1.39 2.966 1.863 9.998 2.272 4.893.284 9.4.841 10.016 1.233.617.392 3.769 1.44 7.003 2.328 3.233.889 7.225 2.003 8.875 2.476 3.95 1.134 13.605.35 17.927-1.456 3.999-1.67 8.43-7.815 9.163-12.706 1.01-6.75-4.673-13.443-12.66-14.903-2.569-.47-4.308-.569-5.397-.241m316.54 6.26c3.339 0 4.019.309 3.747 1.743-.341 1.8-5.705 3.032-7.104 1.633-1.945-1.945-.52-3.376 3.357-3.376m-226.014 10.248c1.2-.248 2.43 2.613 5.37 12.464 4.725 15.83 8.618 27.112 11.834 34.287 1.356 3.025 2.785 6.507 3.172 7.744.605 1.937.34 2.254-1.901 2.254-2.15 0-2.958-.825-4.656-4.748-12.467-28.809-18.381-51.06-13.819-52.001m-9.293 13.614c.485-.73 1.17-.633 1.994.4.937 1.17 5.598 13.008 12.4 31.504 1.672 4.546 2.79 8.931 2.476 9.747-.7 1.824-3.017 1.923-4.451.195-3.411-4.11-13.188-31.742-13.188-37.283 0-2.275.285-3.832.77-4.563m-6.705 9.136c1.045 0 1.281.518 5.259 11.5 1.394 3.85 3.701 10.062 5.128 13.809s2.332 7.237 2.013 7.753-1.458.937-2.532.937c-1.414 0-2.667-1.59-4.526-5.75-6.386-14.29-8.941-23.368-7.4-26.246.59-1.103 1.516-2.003 2.058-2.003m-8.848 10.192c1.88-.356 2.869 1.587 7.225 14.208 1.454 4.213 2.37 8.093 2.04 8.625-.329.533-1.717.974-3.088.974-2.75 0-3.917-2.081-6.863-12.242-1.974-6.81-1.715-11.11.686-11.565m-9.617 8.004c1.666-.238 2.449.62 3.803 4.164.936 2.452 1.96 6.075 2.28 8.05.545 3.351.413 3.589-2.02 3.589-3.684 0-6.079-4.07-6.122-10.406-.03-4.425.24-5.138 2.059-5.397m-9.83 7.039c1.42-.467 4.638 6.305 3.709 7.809-.868 1.404-3.056 1.166-4.424-.483-1.481-1.785-.996-6.764.714-7.326m-8.756 6.27c.564.348.762 1.055.446 1.567-.75 1.213-5.454 1.204-5.454-.01 0-1.222 3.694-2.37 5.008-1.558zm-102.211 4.302c4.465-.004 9.225.924 13.197 2.773 12.055 5.612 12.25 9.98.241 5.417-2.893-1.1-6.431-2.004-7.864-2.004-2.247 0-2.54.356-2.124 2.532.265 1.388.16 2.72-.241 2.968s-3.516-.04-6.919-.64-6.471-.8-6.817-.454c-.345.345.095 2.144.984 4.006 1.84 3.858 1.48 4.59-2.236 4.59-1.453 0-3.434.58-4.405 1.29-1.532 1.12-1.591 1.658-.491 4.071 1.057 2.32 1.028 2.94-.177 3.7-1.693 1.073-5.323 1.234-6.278.28-1.145-1.146-.735-7.758.807-12.948 1.528-5.146 4.245-8.327 10.915-12.789 2.774-1.856 6.943-2.787 11.408-2.792m264.65 10.137c13.733.061 13.99.102 16.75 2.745 5.399 5.173 4.878 5.31-20.45 5.342-12.788.016-57.444.12-99.244.242-93.982.273-130.508-.05-130.508-1.169 0-1.522 5.267-2.979 14.654-4.062 5.03-.58 10.874-1.648 12.993-2.365 3.57-1.209 56.663-1.395 205.805-.733m-377.147 13.958c1.12 1.12-3.664 11.749-7.466 16.582-3.839 4.88-13.77 11.412-20.681 13.606-5.352 1.698-10.769 2.281-27.656 2.977-11.55.475-23.358 1.302-26.237 1.836-6.735 1.25-16.47 5.627-19.356 8.7-2.063 2.196-4.906 3.236-4.906 1.799 0-1.78 4.611-6.592 9.052-9.442 7.411-4.755 13.943-5.933 37.95-6.853 19.226-.738 22.27-1.097 28.769-3.376 8.267-2.899 17.232-9.17 17.232-12.057 0-1.585-.474-1.794-2.755-1.224-1.512.378-4.326.945-6.25 1.252-1.926.308-4.35 1.156-5.398 1.883-1.4.972-2.428 1.035-3.877.26-1.396-.748-2.684-.729-4.405.055-1.76.802-2.997.807-4.47.019-1.141-.611-3.204-.776-4.693-.371-4.254 1.155-16.535 1.272-17.937.167-.876-.692-2.54-.6-5.258.296-3.21 1.06-4.431 1.07-6.325.056-1.997-1.069-2.965-.946-6.455.835-2.256 1.15-5.538 2.096-7.299 2.096-4.735 0-11.993 5.17-17 12.112a1782 1782 0 0 1-5.601 7.735c-1.064 1.447-1.224 1.293-1.252-1.15-.11-9.577 14.582-22.482 31.477-27.666 11.51-3.531 15.992-4.108 38.998-4.98 19.264-.73 23.167-1.162 31.393-3.496 6.348-1.802 9.72-2.336 10.406-1.651m205.258.093h15.442v30.002l-3.747.056c-2.063.032-8.706.274-14.756.528-6.4.27-11.628.046-12.501-.528-1.242-.818-1.439-3.357-1.16-14.756.186-7.574.548-14.113.807-14.533.26-.419 7.422-.77 15.915-.77m-70.058.194 9.998.307.278 13.364c.188 8.999-.096 13.81-.872 14.746-1.372 1.654-13.45 1.891-16.156.315-2.944-1.715-1.964-3.49 2.477-4.48 10.882-2.424 11.605-16.613 1.076-21.07-5.042-2.135-10.263.937-12.354 7.27-.608 1.845-1.41 3.351-1.78 3.34s-1.928-1.81-3.47-3.989l-2.8-3.96 3.302-2.03c5.398-3.323 9.749-4.14 20.301-3.813m159.09.575c1.246.84 1.287 27.005.047 29.01-.546.884-5.071 1.225-16.165 1.225-14.848 0-15.448-.079-16.583-2.198-1.57-2.934-.388-26.875 1.382-28 1.555-.987 29.862-1.02 31.32-.037zm73.397.214c1.144.72 1.584 3.633 1.865 12.483.201 6.349.085 12.667-.26 14.041l-.63 2.495h-31.922l-.66-2.606c-.875-3.49.155-24.35 1.253-25.356 1.312-1.203 28.615-2.154 30.354-1.057m-17.166 2.04c-2.252.291-4.311 1.361-6.029 3.2-2.748 2.942-2.963 3.691-2.55 8.671.378 4.562.964 5.902 3.617 8.273 3.616 3.23 6.826 3.559 11.825 1.187 3.917-1.859 5.314-4.621 5.314-10.48 0-5.04-1.28-7.444-4.98-9.358-2.501-1.293-4.946-1.784-7.197-1.493m-144.15.436c-3.333-.837-9.662 2.269-11.463 5.63-2.921 5.45.448 14.547 6.288 16.962 3.139 1.298 4.525 1.107 8.161-1.14 3.979-2.46 6.344-6.552 6.344-10.963 0-3.689-5.11-9.43-9.33-10.489m71.977.668c-1.82-.163-3.783.323-6.111 1.428-6.28 2.98-7.693 12.451-2.616 17.528 2.436 2.436 3.743 2.922 7.828 2.922 3.793 0 5.38-.513 7.011-2.254 5.043-5.383 4.677-12.516-.872-17.185-1.746-1.47-3.42-2.276-5.24-2.44m-111.569 2.875c4.009 0 5.121.44 6.928 2.736 2.695 3.426 2.065 7.82-1.567 11.018-6.083 5.352-15.56.584-14.032-7.058.987-4.938 3.262-6.696 8.671-6.696m76.095 0c1.869.303 3.71 1.272 5.231 3.079 3.913 4.65 3.152 8.97-2.087 11.76-4.698 2.502-10.642.555-12.232-4.007-2.314-6.638 3.483-11.741 9.088-10.832m69.734.009c4.922-1.368 5.45-1.299 8.458 1.066 3.193 2.513 3.645 8.546.88 11.714-3.345 3.833-10.02 3.582-13.224-.492-3.713-4.72-1.823-10.702 3.886-12.288m76.596.167 2.708.324-3.413 4.934c-4.623 6.69-6.798 7.198-6.798 1.577 0-3.609 4.004-7.257 7.503-6.835m-260.041.677c2.392-.06 4.718.626 5.5 2.086 1.586 2.965 1.24 5.855-.965 8.06-2.703 2.702-6.57 2.518-9.543-.455-2.86-2.86-3.036-4.268-.9-7.317 1.055-1.507 3.515-2.314 5.908-2.374m223.213.148c5.675 0 8.283 6.036 4.321 9.998-3.884 3.884-10.999 1.357-10.999-3.905 0-3.541 2.802-6.093 6.678-6.093m-147.331 1.002c6.098 0 8.762 5.953 4.46 9.96-1.203 1.122-3.372 2.04-4.822 2.04-2.918 0-6.984-3.678-6.984-6.315 0-2.812 3.713-5.685 7.346-5.685m-99.856.584c1.338.775 3.012 2.695 5.759 6.167 17.958 22.703 34.807 49.177 51.676 81.243 13.026 24.76 19.429 39.665 29.121 67.748 9.08 26.307 20.246 72.437 18.586 76.764-.882 2.299-4.551 1.798-5.592-.76-.504-1.238-1.674-6.3-2.597-11.25-4.51-24.172-14.956-57.927-27.239-88.013-19.011-46.57-38.416-81.302-65.652-117.487-8.327-11.062-9.225-12.638-7.79-13.744 1.392-1.074 2.39-1.443 3.728-.668m167.734.974c3.03-2.122 6.004-1.96 9.144.51 3.145 2.474 3.36 5.201.631 7.93-2.554 2.553-8.102 2.64-10.34.166-2.363-2.61-2.092-6.745.565-8.606m186.598 3.44c3.684 0 4.184 1.218 4.174 10.332-.016 15.269-4.444 29.006-10.805 33.536-3.927 2.796-12.298 5.699-20.69 7.178-11.026 1.943-20.553 5.496-23.205 8.662-5.572 6.654-5.73 7.432-5.843 28.296-.1 18.571-.226 19.768-2.643 25.282-4.515 10.299-9.842 14.086-21.312 15.145-18.847 1.74-26.597 4.926-30.466 12.51-1.776 3.48-2.18 6.858-2.903 24.3-.587 14.162-1.287 21.32-2.337 23.788-3.394 7.975-14.585 15.078-26.858 17.055-11.664 1.878-27.343 11.95-31.626 20.31-.874 1.708-2.088 3.436-2.698 3.84-1.58 1.045-8.833.912-10.582-.195-1.27-.802-1.28-1.455-.102-4.739 2.152-6.003 7.345-13.493 12.52-18.047 5.098-4.488 14.691-8.676 28.138-12.28 19.253-5.159 22.088-10.515 20.886-39.564-.616-14.87-.52-16.396 1.326-20.004 4.805-9.399 11.797-13.245 29.835-16.425 12.743-2.247 18.776-4.992 22.787-10.35 3.7-4.94 3.973-6.97 3.691-27.396-.4-28.978 1.21-32.2 18.057-36.17 26.912-6.34 31.919-8.038 36.55-12.38 5.492-5.15 7.28-10.343 7.28-21.137 0-10.458.643-11.546 6.826-11.546m-380.588 7.643c.42.26.487 3.535.14 7.27-1.528 16.439 5.486 24.514 30.382 34.992 15.719 6.616 21.334 11.506 24.67 21.461 1.32 3.94 1.592 8.772 1.465 25.495-.086 11.35.205 21.99.64 23.64 1.72 6.528 8.562 14.445 14.403 16.666 1.398.532 6.146 3.368 10.554 6.306 6.166 4.112 8.743 6.574 11.184 10.684 6.841 11.52 7.188 21.864 1.308 38.832-4.555 13.145-5.01 19.352-2.031 27.98 1.039 3.01 1.674 5.823 1.41 6.251-.265.428-2.258.78-4.433.78-3.387 0-4.244-.465-5.954-3.247-5.484-8.922-5.27-21.356.62-35.752 3.343-8.17 3.89-10.55 3.868-17-.04-12.673-4.32-18.247-19.272-25.133-20.28-9.34-25.527-20.012-23-46.761 1.21-12.806.672-22.577-1.474-26.617-3.918-7.376-8.723-10.907-22.982-16.926-11.83-4.992-14.578-6.601-19.578-11.435-6.887-6.658-9.953-14.066-10.86-26.283l-.566-7.66 4.368-2.004c2.405-1.103 4.717-1.8 5.138-1.54m351.792 4.442c5.855 1.36 9.242 7.756 4.896 13.28-4.215 5.36-15.923 2.148-15.923-4.368 0-2.87 2.576-7.62 4.544-8.374 2.303-.884 4.53-.992 6.483-.538m-334.338 4.915c6.624 0 9.742 7.37 5 11.825-4.188 3.934-10.559 2.475-12.54-2.875-1.689-4.561 2.004-8.95 7.54-8.95m38.312 6.947c0-1.006 233.86-.979 234.482.028.247.4-.174 1.58-.937 2.624-1.339 1.83-3.732 1.901-67.712 1.901-36.481 0-88.03-.266-114.546-.593-47.989-.593-51.287-.848-51.287-3.96m-86.352.26c1.425.05 2.639.845 3.756 2.392 1.15 1.594 4.815 6.272 8.143 10.397 10.307 12.778 29.143 41.376 39.35 59.726 14.2 25.527 37.107 80.33 37.107 88.782 0 2.248-5.399 5.574-7.735 4.767-.678-.234-1.733-2.305-2.347-4.6s-4.26-12.726-8.105-23.176c-15.028-40.847-43.524-92.517-65.977-119.638-2.115-2.554-5.48-7.014-7.475-9.914-3.476-5.053-3.547-5.331-1.744-6.65 1.965-1.437 3.601-2.137 5.027-2.087M1744.92 287.4c3.456 0 6.313 1.377 9.997 4.813 4.038 3.766 3.505 5.61-2.624 9.117-2.955 1.69-5.595 3.08-5.87 3.08s-2.402-2.066-4.721-4.582c-3.485-3.78-4.103-5.042-3.571-7.253.82-3.406 3.14-5.175 6.789-5.175m161.826 3.404c1.832-.569 2.861-.172 3.812.974 1.782 2.146.556 3.752-6.993 9.125-13.563 9.656-17.096 12.72-18.493 16.064-2.795 6.69-1.102 15.913 3.896 21.265 6.156 6.594 14.584 7.008 26.255 1.271 4.37-2.148 10.404-5.526 13.41-7.503 6.012-3.952 8.136-4.385 10.082-2.04 1.086 1.308.901 1.934-1.132 3.923-3.472 3.397-18.24 12.123-24.456 14.45-6.766 2.53-14.05 3.272-18.289 1.854-8.144-2.725-17.022-14.414-18.53-24.391-1.465-9.695 5.655-19.532 21.823-30.16 4.155-2.732 6.784-4.263 8.615-4.832m441.363 5.787c.998.115 2.505 1.06 5.184 2.903 4.33 2.98 6.998 7.096 5.824 8.996-.914 1.48-1.745 1.14-8.105-3.339-5.45-3.837-5.948-4.478-5.046-6.501.651-1.46 1.144-2.174 2.143-2.06m-577.982 6.344c6.987.025 8.748.41 13.41 2.967 2.953 1.62 7.382 5.211 9.85 7.976 4.967 5.565 12.01 19.086 12.947 24.855.735 4.531.236 5.138-12.724 15.655-5.256 4.265-10.49 8.057-11.64 8.421-2.807.891-4.695-1.172-7.206-7.883-3.14-8.395-.986-16.273 6.196-22.592 5.679-4.998 4.769-6.928-3.265-6.928h-6.028v-4.999c0-3.404-.415-4.999-1.29-4.999-.706 0-3.7 2.45-6.658 5.444-5.89 5.963-10.486 8.518-12.215 6.79-.735-.736-.418-1.386 1.048-2.171 3.716-1.989 5.434-6.774 4.758-13.244-.574-5.496-.473-5.888 2.078-7.558 2.019-1.322 4.706-1.757 10.74-1.734m148.75.686c1.905.53 3.678 2.243 6.232 5.379 4.77 5.856 5.622 9.198 2.996 11.825-2.006 2.006-14.25 9.929-19.402 12.557-4.685 2.39-7.539 2.441-11.314.185-3.415-2.04-5.499-8.053-4.137-11.926 1.05-2.986 12.947-13.42 18.623-16.332 3.061-1.571 5.097-2.219 7.002-1.688m-190.651 2.402a9.93 9.93 0 0 1 10.1 1.762l2.773 2.383-3.72 4.536c-4.545 5.548-4.651 8.136-.528 12.39 4.334 4.471 3.27 4.75-2.189.575-8.746-6.692-11.991-10.44-11.991-13.819 0-3.782 2.398-6.606 5.555-7.827m187.238 1.938c-2.592.817-13.375 8.671-16.044 11.686-2.168 2.448-2.253 6.595-.195 9.534 2.013 2.874 3.57 2.8 9.265-.436 14.79-8.404 17.741-11.553 15.228-16.249-1.736-3.244-5.606-5.37-8.254-4.535m424.335.668c.767-.153 5.21 2.322 9.877 5.5 7.4 5.039 8.528 6.189 8.801 9.023.222 2.303-.105 3.256-1.122 3.256-.79 0-6.004-2.993-11.593-6.64-9.701-6.333-10.104-6.725-8.764-8.746.772-1.165 2.034-2.24 2.8-2.393m-420.245 5.277c.883.135 1.06.854.037 2.087-.644.776-1.663 1.41-2.263 1.41s-2.019 1.172-3.162 2.605c-1.144 1.434-3.86 3.23-6.038 3.988-2.177.758-4.524 1.384-5.212 1.392-2.236.026-1.316-1.898 1.632-3.423 1.584-.818 3.144-2.178 3.469-3.023s1.339-1.54 2.254-1.54c.914 0 3.165-.93 5.008-2.068 1.802-1.114 3.392-1.563 4.275-1.428m454.634.111c1.11-.003 2.92.896 5.704 2.68 6.225 3.991 8.057 5.996 7.604 8.329-.52 2.686-1.928 2.562-7.79-.668-6.007-3.31-6.998-4.392-7.02-7.642-.013-1.792.392-2.696 1.502-2.699m-624.882.39c2.324 0 2.744 2.917.742 5.128-2.962 3.274-4.895 3.953-6.965 2.44-1.76-1.287-1.677-1.526 1.475-4.47 1.828-1.708 3.964-3.098 4.748-3.098m109.863 4.618c1.032.594 2.408 2.071 5.009 4.934 2.97 3.271 5.419 6.284 5.444 6.696.025.413.967 1.673 2.096 2.801 10.24 10.24 35.848 50.976 47.428 75.446 5.347 11.299 13.528 31.247 19.272 47.002 3.1 8.505 6.43 21.783 6.613 26.367.096 2.407-.46 3.767-1.967 4.776-2.894 1.94-3.761.678-6.269-9.144-4.935-19.329-18.745-55.006-28.639-74-13.766-26.426-28.008-48.161-47.085-71.847-4.054-5.033-7.382-9.635-7.392-10.23-.01-.594 1.137-1.697 2.541-2.448 1.229-.658 1.918-.946 2.95-.353m471.829.38c1.768 0 21.786 20.389 31.523 32.108 21.768 26.2 34.05 45.53 47.827 75.27 8.056 17.39 10.824 24.836 16.62 44.628 5.317 18.157 8.07 30.681 9.766 44.442l1.224 9.942-3.358 2.801c-1.848 1.543-3.719 2.81-4.164 2.81-1.442 0-2.558-4.266-4.312-16.499-2.476-17.257-10.616-48.365-16.545-63.232-17.027-42.687-41.011-80.089-72.553-113.146-5.971-6.258-11.001-11.753-11.176-12.205-.418-1.086 3.92-6.918 5.148-6.918m-35.345 2.978c2.061-.011 4.116.972 6.094 2.949 1.762 1.762 2.921 3.974 2.921 5.574s-1.16 3.811-2.921 5.574c-3.521 3.52-6.632 3.697-11.185.64-4.752-3.192-5.144-7.627-1.039-11.732 1.998-1.999 4.07-2.994 6.13-3.005m-448.03 6.019c2.28 0 8.04 6.408 8.04 8.94 0 1.884-5.19 5.582-9.997 7.123-1.375.44-5.873 2.215-9.998 3.941-9.077 3.799-16.024 4.877-17.778 2.764-1.77-2.131 1.052-4.176 7.78-5.639 3.026-.657 8.417-2.636 11.992-4.405 6.15-3.044 6.502-3.413 6.502-6.724 0-4.241 1.016-6 3.459-6m-124.303 1.001c2.957 0 10.473 4.273 13.605 7.735 1.48 1.634 1.396 2.208-1.075 7.503-1.474 3.156-2.907 5.737-3.182 5.731-1.428-.033-14.085-9.265-14.968-10.915-2.69-5.027.117-10.054 5.62-10.054m258.752 0c5.135 0 7.596 2.22 7.596 6.845 0 2.521-.684 3.597-3.256 5.165-3.364 2.052-4.206 2.213-6.742 1.28-4.87-1.79-6.436-6.8-3.45-11.064 1.197-1.709 2.554-2.226 5.852-2.226m390.604 2.977c.977-1.824 1.254-1.772 6.26 1.16 7.275 4.26 8.727 5.755 8.727 8.959 0 1.532-.36 3.015-.806 3.292-1.36.84-12.996-6.725-14.134-9.19-.731-1.584-.747-2.912-.046-4.22zm31.579 1.206c1.203.14 3.225 1.32 6.492 3.598 3.964 2.764 5.5 4.512 5.732 6.502.382 3.291-.837 3.398-6.316.556-5.836-3.027-7.494-4.803-7.494-7.994 0-1.9.383-2.801 1.586-2.662m-650.089 1.818c2.158 0 3.374.405 3.005 1.001-.34.55-1.695 1.002-3.005 1.002s-2.655-.452-2.995-1.002c-.369-.596.838-1.001 2.995-1.001m13.16 1.39c.665 1.016.888 4.198.872 9.86-.027 9.673.15 10.61 3.274 16.647l3.31 6.399-3.802 3.96c-2.095 2.178-7.965 7.286-13.04 11.352s-10.05 7.391-11.054 7.391c-2.335 0-9.494-5.244-11.649-8.532-1.996-3.046-1.326-4.47 2.106-4.47 1.644 0 3.96-1.4 6.482-3.923 3.454-3.454 3.898-4.424 3.682-8.078-.216-3.665.187-4.532 3.376-7.327 4.442-3.892 5.787-6.477 5.787-11.129 0-2.919.47-3.764 2.523-4.544 1.388-.528 3.459-2.546 4.6-4.48 1.764-2.99 2.869-4.14 3.533-3.125m593.108.965c.624.386 2.092 2.04 3.255 3.673 3.019 4.239 1.757 3.687-1.585-.696-1.54-2.019-2.294-3.362-1.67-2.977m-410.33 7.234c.857.858 1.567 1.934 1.567 2.402s-3.265 2.97-7.253 5.556c-21.02 13.634-23.306 15.75-24.623 22.796-1.707 9.139 2.672 18.136 10.898 22.37 4.007 2.062 5.1 2.213 9.728 1.335 2.867-.544 10.735-3.66 17.482-6.919 12.247-5.915 12.27-5.92 14.05-3.876.981 1.126 1.643 2.465 1.475 2.967-.59 1.773-18.366 10.577-26.561 13.16-8.603 2.712-10.968 2.979-15.21 1.688-11.423-3.474-19.061-14.822-19.309-28.685-.11-6.165.24-7.66 2.56-11.166 2.707-4.091 18.764-15.653 28.815-20.747 4.37-2.214 4.97-2.292 6.38-.88m294.3.863c2.499 1.427 4.266 4.136 4.266 7.558 0 2.495-.71 4.291-2.254 5.704-3.353 3.07-5.879 3.466-9.756 1.53-6.765-3.377-7.248-10.888-.937-14.616 2.947-1.74 6.182-1.603 8.68-.176m-499.846.528c2.014-.348 4.166.394 4.702 2.532.362 1.442.105 3.145-.603 3.998-2.445 2.946-7.994 1.202-7.994-2.514 0-2.23 1.881-3.667 3.895-4.016m659.354 4.016c.687 0 4.318 2.092 8.06 4.647 5.812 3.968 6.76 5.024 6.5 7.252-.453 3.912-3.481 3.62-10.053-.964-5.118-3.571-5.75-4.396-5.75-7.475 0-2.1.484-3.459 1.243-3.46m-686.63 1.345c1.78-1.181 2.692-.883 8.19 2.69 3.405 2.212 6.195 4.377 6.195 4.804 0 .426-1.488 2.211-3.302 3.969s-3.544 3.2-3.849 3.2c-1.336 0-7.345-4.749-9.228-7.29-2.248-3.035-1.747-4.889 1.994-7.373m716.78 1.465c1.097.095 2.99 1.136 6.177 3.163 5.594 3.556 8.43 7.111 8.43 10.582 0 2.256-2.009 1.658-8.356-2.467-6.448-4.192-7.61-5.521-7.632-8.774-.012-1.751.285-2.599 1.382-2.504m-563.81 4.192c5.467 0 4.2 4.104-3.07 9.905-3.031 2.42-5.518 4.916-5.518 5.556s1.4 2.493 3.107 4.108 4.883 5.538 7.058 8.718c3.142 4.595 3.89 6.528 3.645 9.422-.17 2.003-.808 3.807-1.42 4.007-.61.2-4.52-3.878-8.69-9.061-4.168-5.183-9.651-11.616-12.186-14.292l-4.61-4.86 2.802-2.346c5.398-4.528 16.612-11.157 18.882-11.157m86.121 1.595c2.07 1.307 9.216 14.501 9.256 17.093.048 3.139-9.066 8.925-20.135 12.78-5.064 1.764-5.27 1.767-9.803.13-6.048-2.184-8.554-8.732-5.564-14.514 2.325-4.498 23.687-17.103 26.246-15.489m-4.387 4.944c-2.739.955-6.522 3.21-11.324 6.76-3.025 2.237-5.828 4.552-6.232 5.139-1.244 1.806-.839 6.01.798 8.346 2.255 3.22 5.24 2.778 15.237-2.235 10.543-5.286 11.617-6.324 10.248-9.923-.548-1.442-1.247-2.625-1.558-2.625-1.473 0-6.807 4.752-7.577 6.752-.622 1.617-1.681 2.254-3.765 2.254-1.595 0-4.413.276-6.27.62l-3.375.632 4.33-4.128c2.497-2.377 5.31-4.127 6.632-4.127 1.261 0 2.849-.677 3.533-1.502.685-.825 2.093-1.502 3.126-1.502 1.974 0 2.273-.8 1.27-3.413-.635-1.655-2.334-2.004-5.073-1.048m70.244.463c7.446 0 9.994 6.666 4.358 11.408-3.305 2.78-4.186 2.965-7.688 1.558-3.876-1.557-4.941-7.911-1.966-11.714.538-.687 2.92-1.252 5.296-1.252m-282.235 3.654c.362.362.149 1.266-.464 2.004-2.101 2.532-7.011 1.011-5.36-1.66.691-1.119 4.806-1.362 5.824-.344m694.476 2.347c1.456 0 15.492 9.788 16.424 11.454.424.757.502 2.086.167 2.958s-1.124 1.577-1.753 1.567c-1.431-.022-11.73-5.644-13.317-7.27-1.615-1.654-2.848-8.71-1.521-8.71m-708.322 6.13c1.03 1.092 1.066 2.96.157 9.284-1.07 7.446-2.554 10.147-4.155 7.558-.896-1.451.409-13.888 1.716-16.341.836-1.57 1.197-1.65 2.282-.5m564.227.677c1.01-.646 2.305-.204 3.914 1.299 2.529 2.362 5.85 7.754 5.184 8.42-.188.189-2.637.648-5.444 1.02-6.007.798-6.811.045-5.87-5.527.48-2.837 1.206-4.566 2.216-5.212m-472.913 5.37c4.298-.612 21.252 11.576 25.272 18.168 3.638 5.966 2.64 7.035-9.496 10.128-12.258 3.123-26.455 2.717-25.328-.724.468-1.43 3.66-2.19 15.96-3.802 4.79-.628 9.176-1.696 9.739-2.374 1.95-2.35-5.911-10.415-15.72-16.128-3.68-2.143-3.894-4.774-.427-5.268m486.5 13.021c2.588.388 6.153 5.185 5.37 7.225-.749 1.95-7.92 2.174-9.478.296-1.663-2.003 1.56-7.903 4.108-7.521m-67.646 4.804c4.759 0 7.267 1.545 8.93 5.528 1.49 3.562.831 7.06-1.724 9.172-1.681 1.39-7.841 2.403-9.859 1.623-3.143-1.216-6-4.746-6-7.42 0-4.31 4.462-8.903 8.653-8.903m-258.446 4.628c2.062-.328 2.791.48 2.791 2.337 0 1.574-2.087 3.061-9.246 6.548-18.071 8.8-23.273 14.505-23.223 25.485.037 8.074 2.365 13.181 7.79 17.111 5.737 4.156 9.45 3.816 23.937-2.207 14.793-6.15 15.748-6.451 15.748-4.99 0 .632-.79 1.428-1.753 1.772-.962.343-6.25 3.21-11.75 6.371-14.407 8.281-20.853 8.605-31.486 1.568-10.236-6.774-12.992-22.943-5.741-33.703 3.227-4.788 9.994-9.613 22.156-15.794 5.32-2.704 8.714-4.17 10.777-4.498m291.1 3.867c1.279.704 2.79 2.683 5.092 6.251 16.398 25.421 26.59 57.148 29.678 92.372 2.351 26.828-2.145 58.196-12.242 85.379-8.073 21.733-16.106 35.214-34.677 58.196-4.087 5.058-7.99 9.411-8.671 9.673-2.003.768-3.482-1.503-3.46-5.314.017-2.916 1.422-5.324 7.902-13.448 17.642-22.118 30.55-48.993 37.514-78.108 3.88-16.222 4.734-24.576 4.721-46.371-.011-18.203-.32-22.135-2.606-33.443-4.499-22.256-12.028-42.333-23.547-62.768-4.907-8.704-5.066-9.202-3.423-11.018 1.39-1.536 2.44-2.105 3.72-1.4m44.953 4.378c1.957.328 3.683 2.328 4.368 5.87.47 2.43.277 3.218-.751 3.098-.757-.088-2.954-.33-4.879-.538-5.984-.647-6.249-.907-4.516-4.257 1.631-3.154 3.82-4.502 5.778-4.173m-290.535 4.322c7.498-.55 10.967 6.208 5.824 11.351-2.738 2.738-4.858 3.028-8.532 1.169-3.52-1.78-4.86-6.117-2.95-9.534 1.192-2.132 2.348-2.744 5.658-2.986m-38.934 2.003c2.304.445 8.878 17.49 7.578 19.643-1.318 2.18-8.273 5.62-16.472 8.133-7.735 2.372-7.451 2.36-11.685.52-2.183-.949-3.803-2.67-4.823-5.11-3.052-7.306.66-12.211 14.2-18.8 5.301-2.58 10.344-4.552 11.202-4.386m272.135 1.363c3.923-3.55 6.725-.433 16.035 17.853 6.603 12.97 10.406 24.72 15.572 48.087 2.499 11.304 3.106 45.364 1.057 59.495-4.647 32.048-16.99 62.688-34.64 86-20.757 27.416-41.493 44.423-72.626 59.568-6.146 2.99-11.868 5.435-12.724 5.435-1.646 0-3.16-4.107-2.319-6.297.274-.713 6.065-4.068 12.864-7.466 19.561-9.777 39.287-23.84 50.656-36.105 21.203-22.873 35.725-47.48 43.654-73.971 5.95-19.88 6.937-27.123 6.937-50.665 0-15.996-.455-24.589-1.66-31.496-3.244-18.582-10.826-40.059-20.339-57.602-4.948-9.126-5.19-10.372-2.467-12.836m-75.427.037c3.623-.746 8.99 2.19 10.646 5.824 1.557 3.417.235 9.276-2.494 11.065-5.493 3.599-11.529 2.583-14.097-2.384-3.495-6.758-.9-13.095 5.945-14.505m-196.967 4.424c-2.308-1.915-19.153 5.352-21.09 9.098-1.999 3.866-1.8 6.52.677 8.996 1.718 1.718 2.955 2.019 6.548 1.614 6.336-.714 17.834-6.662 17.834-9.228 0-3.048-4.045-3.09-8.384-.084-2.047 1.42-4.494 2.579-5.434 2.579s-2.578.548-3.645 1.215c-1.068.666-2.299.828-2.736.361s-.216-1.055.491-1.307c.708-.253 2.565-1.544 4.137-2.866s3.774-2.402 4.887-2.402c2.986 0 8.17-3.253 8.18-5.129 0-.895-.655-2.175-1.465-2.847m-116.902.269c.337.338.323 1.762-.028 3.163-.74 2.944-5.491 6.156-14.097 9.524-10.092 3.95-10.209 4.293-5.008 15.145 4.31 8.994 5.103 12.95 3.598 17.974-.643 2.147-1.57 3.904-2.059 3.904s-1.613-2.484-2.495-5.518c-2.045-7.037-7.763-19.593-11.74-25.792-1.718-2.676-2.686-5.153-2.19-5.583.49-.425 2.914-1.319 5.389-1.985 5.311-1.428 9.74-3.161 20.255-7.93 4.266-1.934 8.037-3.24 8.374-2.902zm454.467 5.815c1.258.16 2.326 1.478 3.32 3.96.894 2.236 1.365 4.485 1.048 4.999-.656 1.06-9.776 1.288-10.796.269-1.256-1.256-.667-3.186 1.92-6.26 1.793-2.13 3.249-3.127 4.508-2.968m-73.796 3.895c3.182 0 4.702 1.814 4.702 5.62 0 4.009-3.863 7.373-8.467 7.373-4.46 0-4.853.834-2.003 4.22 3.399 4.04 3.326 8.965-.167 11.714-2.88 2.265-6.747 2.625-9.868.918-2.16-1.182-4.498-3.774-4.498-4.98 0-.412 4.048-6.175 8.996-12.808 6.954-9.324 9.524-12.057 11.305-12.057m-450.748 7.336c3.883-1.49 17.641 11.802 22.184 21.424 2.59 5.485 2.847 8.51.854 10.164-1.52 1.261-13.161 2.186-18.085 1.438-1.65-.251-6.053-1.37-9.775-2.495-14.802-4.471-11.248-9.324 3.932-5.37 6.544 1.705 14.93 1.979 15.831.52.333-.54.064-1.998-.593-3.246-1.765-3.354-13.925-17.77-14.988-17.77-1.553 0-.998-4.036.64-4.665m125.036 6.78c.84.175 1.486 1.017 1.864 2.522.813 3.237-.187 4.255-3.376 3.432-3.065-.792-3.62-2.39-1.549-4.461 1.18-1.18 2.22-1.67 3.06-1.493m406.574.482c1.511.934 3.84 6.917 3.84 9.868 0 2.878-.65 2.957-7.252.927-3.448-1.06-4.749-1.965-4.749-3.32 0-2.254 6.692-8.383 8.161-7.475m-317.606 2.439c3.503 2.907 1.304 5.263-11.036 11.806-52.914 28.058-84.48 70.665-97.167 131.157-2.56 12.209-2.608 52.734-.074 64.994 4.926 23.838 11.408 41.73 21.1 58.224 2.729 4.646 2.747 4.76 1 7.716-3.59 6.079-4.865 5.083-12.186-9.441-8.64-17.142-13.74-31.673-17.741-50.61-3.236-15.312-4.408-43.49-2.495-59.949 3.405-29.29 12.606-55.576 28.49-81.437 16.154-26.3 37.953-47.142 65.55-62.666 15.392-8.658 22.505-11.5 24.56-9.794zm42.059 7.392c3.906-.782 8.395 2.642 8.374 6.39-.018 3.236-.8 4.516-3.672 6.028-5.336 2.809-10.313.014-10.313-5.787 0-4.251 1.286-5.767 5.61-6.631m-142.564 1.066c1.9 0 3.367 6.299 1.882 8.087-1.377 1.66-7.517 1.902-8.485.334-.816-1.32 4.753-8.42 6.603-8.42m422.925 8.505c1.544 0 3.023 3.604 3.023 7.373 0 1.928-.338 3.698-.751 3.932-1.383.785-10.748-2.965-10.98-4.396-.222-1.365 6.768-6.91 8.708-6.91m-437.449 7.994c1.365 0 3.478 4.279 3.478 7.048 0 1.615-.702 1.957-4.034 1.957-2.575 0-4.23-.523-4.582-1.437-.627-1.636 3.4-7.568 5.138-7.568m347.553 1.002c5.845 0 7.92 2.291 7.92 8.727 0 4.647.221 4.79 4.758 3.209 4.189-1.46 10.53.325 12.65 3.56 1.969 3.005 1.23 9.494-1.456 12.809-1.414 1.745-2.791 2.18-6.742 2.124l-4.953-.065.121 5.397c.105 4.558-.245 5.712-2.235 7.327-3.486 2.827-7.496 2.418-11.602-1.187-3.026-2.657-3.543-3.734-3.543-7.447 0-2.386.452-4.613 1.002-4.953 1.698-1.05 1.106-2.504-1.02-2.504-3.151 0-9.54 4.735-12.586 9.33-5.764 8.694-4.075 19.722 4.294 28.092 6.345 6.345 10.537 6.09 6.817-.418-2.09-3.656-1.82-6.372.946-9.357 3.12-3.368 9.034-3.631 12.919-.575 2.263 1.78 2.634 2.838 2.634 7.456v5.38l5.75.296c5.521.288 5.816.442 7.54 3.97 1.623 3.319 1.654 4.009.334 7.168-.804 1.923-2.368 3.988-3.478 4.582-2.791 1.494-8.154 1.294-11.148-.417-3.628-2.075-3.867-1.905-3.292 2.383.905 6.75-5.398 10.776-11.982 7.651-6.59-3.127-7.44-9.202-1.985-14.199 3.077-2.818 3.48-3.592 2.253-4.368-4.672-2.954-15.698 2.012-20.635 9.293-4.017 5.924-6.717 14.818-5.796 19.086 1.104 5.118 4.18 10.332 7.475 12.678 3.433 2.445 5.026 1.913 3.172-1.057-1.79-2.866-1.47-7.424.705-10.109 1.563-1.93 2.851-2.365 7.085-2.365s5.522.434 7.086 2.365c3.202 3.954 2.516 8.449-1.837 12.02-3.112 2.553-3.498 3.246-2.253 4.08.825.553 3.349 1.012 5.601 1.02 4.997.02 7.745 2.623 7.614 7.197-.267 9.404-12.566 13.034-17.686 5.222-2.115-3.228-3.152-3.017-3.913.788-1.36 6.8-6.914 8.754-13.485 4.748-3.123-1.904-3.332-2.353-2.838-6.037.643-4.793 2.138-6.762 6.529-8.597 2.223-.93 3.205-1.943 2.986-3.089-.268-1.404-1.701-1.764-8.003-2.003-11.606-.44-19.162 3.529-24.141 12.678-3.932 7.225-4.367 12.585-1.447 18.038 3.21 5.995 4.412 6.096 5.054.4.394-3.496 1.24-5.362 3.19-7.04 5.573-4.793 14.543-1.493 14.543 5.351 0 4.828-1.415 7.018-6.038 9.377-2.181 1.113-3.96 2.41-3.96 2.884s1.999 1.37 4.443 1.985c4.98 1.254 7.558 4.115 7.558 8.402 0 3.902-1.526 6.422-4.98 8.208-3.55 1.835-8.078 1.95-10.23.26-.875-.688-2.452-2.964-3.496-5.055l-1.892-3.802-2.458 3.802c-2.924 4.532-7.14 5.419-13.049 2.754-4.942-2.228-6.557-5.934-4.618-10.572 1.886-4.514 4.062-6.16 9.051-6.826 2.618-.35 4.165-1.066 4.165-1.938 0-2.38-9.153-9.29-14.7-11.092-4.654-1.512-5.331-2.074-5.592-4.656-.267-2.635.456-3.458 7.02-8.04 26.927-18.8 44.188-51.738 46.418-88.58.527-8.712.226-12.242-2.022-23.575-3.412-17.2-3.077-17.94 4.897-10.582 6.6 6.091 13.263 9.405 18.892 9.405 2.46 0 4.767-.473 5.128-1.058.362-.584-1.187-2.77-3.44-4.85-3.33-3.074-4.1-4.454-4.1-7.364 0-4.963 3.607-7.725 10.081-7.725m-259.614 11.12c3.823.523 7.416 3.296 8.161 7.957.751 4.696 1.791 4.952 3.858.955 1.815-3.509 4.329-5.042 8.199-4.999 5.6.064 8.924 5.191 7.262 11.213-.971 3.516-3.553 5.45-7.949 5.963-1.686.197-2.592.996-2.8 2.458-.25 1.749.927 2.86 6.093 5.75 3.523 1.97 7.737 3.58 9.367 3.58 3.797 0 6.664 2.1 6.195 4.535-.202 1.047-3.746 4.447-7.874 7.55-21.796 16.377-36.976 39.408-44.108 66.922-3.04 11.724-3.268 37.88-.464 52.214 1.55 7.922 1.66 10 .621 11.25-1.901 2.291-2.762 1.918-5.471-2.374-5.54-8.776-13.904-14.097-22.175-14.097-4.123 0-5.007 1.383-2.495 3.895 4.932 4.932 5.312 9.072 1.196 13.188-1.607 1.608-3.978 2.911-5.258 2.903-5.721-.036-10.327-5.075-9.265-10.137.685-3.268-.642-4.254-3.163-2.346-2.363 1.79-7.34 1.862-9.608.139-4.02-3.055-4.258-10.233-.482-14.384 1.536-1.689 3.149-2.254 6.483-2.254 4.154 0 4.402-.15 3.728-2.254-1.761-5.496-1.686-8.285.278-10.062 3.303-2.989 8.21-3.18 12.205-.483 4.098 2.768 5.013 6.941 2.56 11.686-2.232 4.316-1.971 5.116 1.688 5.11 10.738-.018 19.715-8.852 19.745-19.43.015-5.324-3.502-14.083-7.114-17.695-3.58-3.58-11.154-6.93-12.538-5.546-.358.358.14 2.415 1.112 4.572 2.324 5.153 1.146 8.93-3.598 11.519-3.457 1.887-3.562 1.887-7.382 0-4.716-2.33-6.065-6.071-3.979-11.064l1.41-3.357h-5c-3.968 0-5.496-.498-7.446-2.449-3.477-3.477-3.265-7.892.565-11.723 2.62-2.62 3.587-2.968 7.253-2.596 2.325.236 5.06.8 6.084 1.252 1.668.734 1.792.488 1.159-2.393-1.001-4.559 1-8.821 4.498-9.59 4.457-.979 9.815.477 12.001 3.256 3.043 3.868 2.534 7.636-1.67 12.288-4.428 4.903-3.57 6.495 3.45 6.371 11.86-.209 22.208-11.3 22.194-23.788-.01-6.814-1.513-11.9-4.619-15.59-3.442-4.091-5.37-3.95-5.37.399 0 4.772-1.482 8.175-4.377 10.072-4.956 3.247-14.625-2.02-14.625-7.967 0-1.205 1.129-3.243 2.504-4.535 3.328-3.127 3.15-4.576-.724-5.926-4.384-1.529-8.782-5.94-8.782-8.81 0-3.101 2.501-7.86 4.544-8.645 3.758-1.442 9.324-.602 12.233 1.846l2.93 2.467 2.43-3.719c2.287-3.508 2.706-3.71 7.577-3.673 3.592.028 5.79.603 7.225 1.902 4.154 3.76 1.575 11.234-4.906 14.208-5.324 2.443-4.827 4.502 1.484 6.14 11.056 2.868 20.872-1.34 25.875-11.093 3.748-7.307 4.436-13.997 1.966-19.17-2.427-5.083-3.61-5.309-5.62-1.094-2.3 4.822-5.847 6.957-10.202 6.14-4.094-.769-6.538-3.803-6.538-8.125 0-3.188 2.366-6.096 6.816-8.393 3.022-1.56 2.354-3.263-1.697-4.312-4.002-1.037-6.655-6.207-5.175-10.1 1.648-4.333 5.702-6.051 9.525-5.528m353.294.074c1.42.273 1.743 1.426 1.743 6.241 0 3.247-.451 6.03-1.001 6.186-1.61.457-10.503-4.54-10.48-5.889.03-1.79 7.69-6.932 9.738-6.538m-403.394.12c2.926 1.123 1.79 5.372-3.18 11.88-22.55 29.527-34.59 55.643-41.392 89.803-2.033 10.21-2.29 14.422-2.29 37.505 0 23.365.225 27.059 2.28 36.495 2.934 13.46 6.652 27.119 9.136 33.591 2.848 7.42 13.216 28.265 16.35 32.868 2.377 3.49 2.543 4.2 1.355 6-2.825 4.278-4.862 3.116-10.786-6.167-6.74-10.562-11.56-21.368-17.297-38.785-15.26-46.325-12.283-104.43 7.633-148.982 6.964-15.58 19.046-35.495 28.463-46.927 5.578-6.773 7.431-8.162 9.728-7.28m115.131 3.19c34.825 0 129.683 1.475 137.75 2.143 4.263.353 7.754.922 7.754 1.27 0 .35-.702 1.635-1.558 2.857-1.332 1.901-2.475 2.226-7.93 2.226-7.473 0-6.925-.548-15.998 16.202-3.187 5.884-6.468 10.953-7.29 11.268-2.002.769-8.226-.452-8.226-1.614 0-.508 2.51-5.869 5.574-11.908s5.422-11.76 5.24-12.715c-.399-2.098-7.254-2.94-25.337-3.116-9.078-.088-12.542.243-14.115 1.345-2.423 1.697-9.11 12.675-12.382 20.33-2.203 5.154-5.081 8.207-7.734 8.207-3.012 0-2.117-3.641 3.654-14.95 3.357-6.58 6.102-12.41 6.102-12.956 0-1.987-7.802-3.084-22.054-3.089-10.156-.004-15.03.371-16.119 1.243-.857.687-4.78 7.397-8.708 14.904-3.93 7.506-7.846 13.914-8.709 14.245-2.38.914-8.221.726-8.847-.287-.305-.493 2.173-6.007 5.5-12.252 6.791-12.75 7.793-15.894 5.657-17.667-.96-.797-6.644-1.287-16.833-1.447-14.64-.23-15.386-.342-15.386-2.244 0-1.934.662-1.994 19.995-1.994m155.836.427c1.536 1.537 4.563 17.023 4.618 23.631.073 8.788-2.51 26.83-4.999 34.936-2.725 8.874-9.832 23.104-15.738 31.505-4.777 6.794-8.225 10.36-19.485 20.125-6.878 5.965-10.274 7.214-11.426 4.21-.457-1.188.757-2.81 4.275-5.685 29.973-24.489 44.277-60.782 38.414-97.49-1.128-7.067-1.09-7.432 1.104-9.766 1.45-1.544 2.627-2.075 3.237-1.466m-319.926.065c1.546 0 4.95 7.62 4.053 9.07-.794 1.286-9.19 1.185-9.997-.12-.858-1.388 4.165-8.95 5.944-8.95m-119.786 1.54c3.729 1.324 8.684 8.484 13.42 19.819 4.137 9.9 4.773 13.432 2.764 15.441-1.352 1.352-11.232 1.513-14.301.232-1.1-.459-4.11-1.575-6.687-2.485s-7.482-3.46-10.897-5.667c-5.738-3.708-6.077-4.143-4.572-5.648s2.172-1.375 8.884 1.67c13.398 6.076 18.726 7.767 19.67 6.25.813-1.304.183-5.492-1.455-9.645-.434-1.1-3.21-5.572-6.158-9.933-4.64-6.86-5.165-8.116-3.932-9.348.916-.917 2.021-1.128 3.264-.686m676.057 2.383c.903-.903 14.794 7.535 17.222 10.462 1.08 1.3 1.1 1.914.102 3.116-1.886 2.273-3.996 1.776-9.738-2.291-5.252-3.72-9.233-9.64-7.586-11.287m-606.528.603c2.575-1.034 3.145 1.171 1.169 4.517-2.037 3.447-2.32 3.54-15.321 5.24-10.937 1.429-10.205.093-7.902 14.504 1.182 7.399 1.15 8.583-.306 10.981-3.046 5.02-3.971 4.183-5.314-4.767-.371-2.475-1.957-9.221-3.515-14.996s-2.448-10.89-1.985-11.361 7.745-1.437 16.184-2.152 16.083-1.602 16.99-1.966m504.78 11.481c.79 0 1.074 1.975.872 6.168-.164 3.394-.749 6.306-1.299 6.473-1.51.459-10.498-4.805-10.498-6.149 0-1.215 8.877-6.492 10.925-6.492m-300.904 1.002c2.19 0 3.979.451 3.979 1.011s-2.253 5.51-5.008 11-5.183 9.988-5.388 9.988c-.779 0-1.583-4.681-1.596-9.293-.01-2.857.808-6.384 2.013-8.746 1.843-3.611 2.37-3.96 6-3.96m-164.525.992c1.785 0 4.85 5.665 4.108 7.596-.325.848-1.965 1.41-4.108 1.41s-3.774-.562-4.1-1.41c-.74-1.931 2.315-7.596 4.1-7.596m259.707 0h3.923c2.621 0 4.13.52 4.526 1.55.336.874-2.126 6.883-5.685 13.864-3.455 6.778-6.027 12.991-5.713 13.81.7 1.822 5.902 2.758 15.488 2.773 7.22.01 9.004.998 5.323 2.967-1.852.992-22.418 1.356-24.632.436-.587-.244-22.191-.542-48.004-.667-46.19-.224-46.937-.258-46.937-2.226 0-1.91.837-2.027 18.456-2.504l18.456-.501 3.135-5.5a4477 4477 0 0 0 7.938-13.995c2.64-4.675 5.298-8.833 5.908-9.237 1.605-1.064 5.394-.933 6.103.214.333.54-2.153 6.382-5.519 12.984-8.696 17.057-9.137 16.337 10.777 17.398 13.918.742 16.583.654 18.586-.658 1.286-.843 5.829-8.098 10.1-16.12zm310.252 4.387c1.97-.756 4.07.96 3.098 2.532-.923 1.493-2.08 1.355-3.543-.408-1.003-1.208-.919-1.6.445-2.124m25.273 7.614c-.697 0-4.341 1.807-8.106 4.007s-7.088 3.997-7.382 3.997c-.488 0-7.132 4.414-14.292 9.497-3.227 2.29-14.332 11.34-24.206 19.726-8.848 7.515-32.151 31.15-40.705 41.28-6.084 7.205-15.084 19.03-27.387 35.993-12.021 16.576-33.877 63.73-41.947 90.499-1.41 4.675-4.205 15.477-6.214 24.002-.641 2.72-.837 2.924-1.428 5.22h10.498c-.407-1.075-2.875-4.203-2.856-4.887.21-7.444 2.743-7.045 7.79 1.234.57.934 2.13 2.438 3.042 3.654h6.78c-15.537-17.484-16.846-30.507-2.412-36.967 6.95-3.11 17.705-6.597 25.597-8.291 9.408-2.02 10.618-3.884 6.465-9.961-3.096-4.53-12.804-24.4-14.478-29.631-1.616-5.053-1.609-5.212.835-10.035 2.52-4.972 4.395-6.406 10.675-8.19 4.355-1.236 21.182-3.143 27.73-3.143 2.688 0 5.733-.624 6.77-1.382 1.666-1.218 1.754-1.829.742-5.25-2.533-8.56-5.352-23.322-5.917-30.966l-.603-8.097 3.886-4.303c2.138-2.371 5.692-5.137 7.892-6.14 5.506-2.507 16.18-2.388 30.151.335 6.208 1.21 11.519 1.966 11.806 1.678.288-.287.071-6.468-.482-13.735-1.535-20.167.508-28.856 7.976-33.888 4.795-3.232 12.334-2.998 22.86.714l8.31 2.93-.305-2.643c-.28-2.371-1.258-2.968-9.321-5.703-4.95-1.68-8.983-3.503-8.968-4.053s1.35-1.63 2.958-2.402c2.386-1.143 3.666-1.173 6.965-.186 9.362 2.803 8.551 3.397 8.551-6.297 0-6.284-.347-8.616-1.27-8.616m-604.441 6c1.395 0 5.524 6.526 4.665 7.374-1.136 1.12-7.78 1.724-8.375.76-.942-1.524 2.072-8.133 3.71-8.133m474.87 1.596c.974.602 1.127 6.495.232 8.83-.913 2.376-3.215 1.896-8.681-1.81-1.533-1.038-2.637-2.329-2.458-2.865.422-1.264 9.802-4.838 10.907-4.155m-316.076 6.501c.488.771.89 1.784.9 2.245.01.46-5.151 5.794-11.464 11.852-16.042 15.395-24.067 28.236-29.872 47.809-4.645 15.66-5.648 31.153-3.098 47.642.376 2.433.173 5.01-.491 6.25-1.245 2.326-3.87 2.814-4.563.854-3.346-9.462-4.272-29.237-2.004-42.717 2.27-13.485 4.457-20.222 10.573-32.525 6.164-12.4 12.72-21.238 22.601-30.466 9.394-8.773 16.116-12.999 17.418-10.944m-167.28 12.15c.921-.354 2.454.518 3.923 2.225 1.986 2.31 2.182 3.029 1.094 4.044-1.782 1.662-6.56 2.716-7.252 1.595-.966-1.562.652-7.257 2.235-7.864m479.887.12c2.157-.541 2.31-.287 2.31 3.942 0 2.49-.279 5.241-.613 6.111s-1.384 1.586-2.337 1.586c-2.174 0-8.965-5.081-9.014-6.742-.035-1.197 4.922-3.71 9.654-4.897m111.31 4.962c-7.02-.852-8.232 1.123-8.19 13.373.05 14.336 3.081 27.026 9.655 40.464 1.824 3.727 2.933 7.195 2.514 7.874-1.235 1.997-5.745 1.374-9.22-1.27-13.808-10.514-49.495-17.527-53.892-10.592-2.64 4.164.275 21.302 5.824 34.268 4.09 9.556 6.4 13.496 11.584 19.718 3.23 3.876 3.715 4.992 2.838 6.63-1.628 3.043-3.597 3.288-9.97 1.253-7.393-2.362-25.242-5.052-33.424-5.036-7.048.013-16.608 2.249-17.928 4.192-1.505 2.216.05 9.691 3.58 17.231 5.936 12.676 14.09 22.736 24.002 29.632 5.44 3.784 6.611 6.047 4.48 8.615-1.072 1.291-2.653 1.464-8.672.956-10.121-.856-32.262 1.797-39.258 4.702-10.298 4.275-11.926 5.452-11.926 8.625 0 5.932 5.723 15.446 13.076 22.258h20.255c-2.236-1.2-3.581-1.271-5.676-2.662-5.347-3.549-11.657-11.099-11.657-13.948 0-3.589 11.722-6.613 25.624-6.613 8.975 0 13.383 1.131 13.383 3.422 0 2.393-1.67 2.796-12.344 3.024-5.588.119-11.397.574-12.91 1.001-2.925.827-3.688 3.54-1.502 5.352 2.434 2.018 13.604 8.002 17.065 9.144.981.324 1.317.845 1.975 1.28h9.024c.714-3.947 1.279-9.095 1.706-10.721 8.442-32.115 21.96-60.977 39.74-84.823 8.486-11.378 36.036-39.494 43.738-44.637 9.998-6.675 9.506-5.549 9.506-21.58v-14.19l-4.285-1.632c-2.356-.9-4.892-1.633-5.638-1.633-2.183 0-.695 9.723 2.745 17.909 2.645 6.295 2.82 7.297 1.512 8.606-.816.816-1.829 1.484-2.254 1.484-1.514 0-4.013-3.627-7.215-10.47-2.93-6.261-3.258-7.882-3.311-16.49l-.056-9.543 4.33-.306c2.918-.21 5.606.353 8.273 1.743 2.175 1.134 4.392 2.069 4.925 2.069 1.443 0 1.193-10.579-.278-11.76-1.995-1.602-16.821-6.32-21.748-6.919m-358.58.9c8.207-.153 15.267.073 15.692.5.425.428.862 8.358.964 17.63.14 12.593-.131 17.062-1.066 17.64-1.234.763-15.067.901-24.178.241-2.569-.186-5.17-.937-5.778-1.669-.734-.884-1.018-6.838-.835-17.705l.278-16.36zm-334.922.278 3.997.074c14.145.263 34.159 1.722 35.001 2.55.663.652.155 1.638-1.502 2.94-2.199 1.728-4.002 1.957-14.996 1.874-6.875-.053-13.05-.061-13.726-.019-.876.055-1.062 1.355-.631 4.498.333 2.431.283 7.429-.111 11.11-.608 5.675-1.223 7.25-4.053 10.332-2.61 2.842-3.468 3.298-3.932 2.096-.33-.845-.476-9.163-.325-18.493zm671.392 5.045c.489.52 1.055 7.694 1.252 15.933.406 16.941.784 16.253-7.642 13.893-2.75-.77-9.167-1.69-14.254-2.04-5.088-.35-9.247-.937-9.247-1.308s1.058-1.675 2.356-2.894c2.129-2 3.224-2.192 11.25-1.929l8.893.297.501-9.395c.47-8.822.671-9.529 3.256-11.453 1.704-1.27 3.085-1.69 3.635-1.104m-89.534 8.217c.328.53-.182 3.348-1.131 6.27-.949 2.92-2.177 5.45-2.727 5.61-2.218.65-10.498-5.89-10.498-8.291 0-1.945 13.315-5.274 14.356-3.59m-485.832.213c1.269-1.053 1.957-.877 4.006 1.048 3.138 2.947 3.112 4.36-.083 5.815-4.297 1.958-5.453 1.489-5.453-2.216 0-1.858.69-3.949 1.53-4.647m-3.348 18.688c.822-.473 1.965-.105 3.728.937 3.757 2.219 3.915 3.705.547 5.24-1.4.638-3.485 1.159-4.627 1.159-1.807 0-1.988-.42-1.429-3.218.465-2.325.959-3.645 1.78-4.118m481.473 1.335c2.775 0 2.88 1.069.752 7.318-1.117 3.276-2.138 4.683-3.413 4.683-2.197 0-8.632-7.795-7.373-8.93 1.353-1.222 7.398-3.07 10.034-3.07m-237.801 10.666c32.61-.137 59.48.062 59.717.445s.686 4.777.992 9.766c.593 9.658-.595 14.146-5.592 21.164-1.915 2.689-5.646 3.943-7.178 2.41-.3-.3 2.084-5.588 5.305-11.75s5.866-11.998 5.88-12.974c.038-2.937-4.311-3.729-20.58-3.729-18.635 0-17.227-.905-26.367 16.778-6.174 11.945-6.39 12.223-9.673 12.223-1.847 0-3.357-.408-3.357-.909 0-.5 2.741-6.371 6.093-13.04 4.958-9.861 5.868-12.394 4.878-13.586-.988-1.19-4.662-1.466-19.587-1.466-21.247 0-20.004-.521-25.866 10.721-4.004 7.68-6.41 11.943-8.866 15.693-1.278 1.95-2.536 2.587-5.11 2.587-1.88 0-3.653-.387-3.942-.853-.288-.467 2.267-6.35 5.685-13.077 6.007-11.82 6.152-12.277 4.276-13.652-1.256-.92-4.5-1.419-9.191-1.419-7.633 0-8.522-.392-7.466-3.292.616-1.69 3.995-1.805 59.949-2.04m-246.241 6.65c1.495-.574 8.393 3.328 8.393 4.748 0 .498-1.634 1.588-3.626 2.42-4.446 1.858-6.014 1.909-6.668.204-.797-2.075.424-6.806 1.9-7.373m475.454 1.678c4.613 0 4.814.769 1.892 7.373-1.125 2.545-2.652 4.628-3.394 4.628-1.73 0-7.559-6.6-7.559-8.56 0-1.909 4.033-3.441 9.061-3.441m85.24 5.027c7.913.037 30.86 9.79 32.442 13.79.286.725 0 1.835-.631 2.467-.867.867-4.338.053-14.088-3.31-9.544-3.293-13.224-4.165-14.05-3.34-.826.827.099 3.558 3.543 10.416 2.567 5.112 5.592 10.53 6.714 12.047s1.77 3.466 1.438 4.331c-.898 2.338-4.12 1.914-7.596-1.01-3.382-2.847-11.148-17.885-13.457-26.061-1.95-6.906-.453-9.36 5.685-9.33m-32.21 1.817c.694.806 1.093 2.86 1.28 6.251.165 2.976.796 6.6 1.4 8.06 1.474 3.552 3.455 14.671 2.802 15.729-.287.463-5.821 1.114-12.298 1.447s-13.01.894-14.523 1.252c-3.204.757-3.656-.847-1.215-4.332 1.588-2.267 9.795-5.249 14.449-5.249 1.445 0 3.43-.586 4.405-1.298 1.665-1.218 1.671-1.66.186-7.392-2.045-7.889-1.957-10.275.491-13.216 1.343-1.612 2.33-2.057 3.024-1.252m-349.862 3.172c5.735.039 5.648 1.246-1.02 14.236-3.46 6.74-6.273 12.798-6.25 13.466.021.669.91 1.685 1.975 2.254 2.198 1.177 34.978 1.417 36.615.269.575-.404 4.327-6.813 8.337-14.236 4.01-7.422 7.81-13.83 8.449-14.236 1.58-1.005 6.859-.928 8.514.12 1.056.67.012 3.496-4.814 13.114-3.384 6.745-5.913 12.887-5.62 13.652.434 1.13 3.838 1.344 18.131 1.122l17.603-.278 5.045-9.497c9.641-18.145 9.538-18 13.095-17.983 6.299.03 6.319.856.232 12.41-3.71 7.042-5.537 11.624-5.332 13.391l.306 2.68 17.324.279c17.262.273 17.315.276 17 2.495-.31 2.183-.671 2.243-18.818 2.856-18.602.629-107.05.715-131.75.13-9.885-.234-13.253-.638-13.253-1.586 0-2.265 2.314-3.672 6.047-3.672 7.447 0 9.041-1.3 14.95-12.215 8.6-15.887 10.65-18.788 13.234-18.77m446.018.696c-3.084 1.145-21.903 18.072-30.42 27.359-19.585 21.357-37.268 50.594-46.825 77.43-3.432 9.637-4.893 21.136-7.494 33.722h43.311c2.39-1.746 5.908-5.125 7.559-4.795 1.573.315 2.732 2.86 4.99 4.795h14.996c.202-1.644-.036-1.549.25-3.469.569-3.818 3.312-5.407 3.46-2.003.085 1.99-.3 3.193-.372 5.472h6.121c1.063-11.437-.951-16.17-9.042-16.202-4.202-.017-5.778 1.876-5.778 6.918 0 3.973-2.293 4.01-6.983.12l-3.487-2.883 15.738-15.238 15.73-15.228v-48.319c0-45.6-.102-48.292-1.754-47.679m-626.226 7.78c1.125-.694 7.976 3.177 7.976 4.508 0 .46-1.514 1.777-3.367 2.922-3.718 2.298-3.998 2.382-4.961 1.419-1.057-1.057-.774-8.152.352-8.848m465.781.845c6.329-.75 7.269.651 4.313 6.445-1.115 2.186-2.726 4.24-3.57 4.563-2.696 1.035-8.892-7.394-6.9-9.385.553-.554 3.324-1.288 6.157-1.623m-579.112 11.287c4.963 3.086 7.308 5.667 7.308 8.05 0 1.279-.34 2.324-.752 2.318-1.767-.026-14.746-8.98-14.746-10.174 0-2.021 5.054-2.144 8.19-.194m568.93 6.566c5.813.37 6.488 1.862 3.125 6.853-3.82 5.67-6.026 5.102-9.108-2.337-1.879-4.535-1.29-4.98 5.982-4.516m-453.568 1.818c2.522 0 7.948 2.708 7.948 3.969 0 .508-1.508 2.075-3.348 3.478-4.11 3.135-5.244 3.188-6.019.297-1.284-4.792-.743-7.744 1.42-7.744m442.216 14.43c2.878.379 5.64 1.094 6.14 1.586.538.532-.607 2.734-2.82 5.435-2.048 2.499-4.304 4.544-5.018 4.544-1.644 0-4.962-8.528-4.145-10.656.502-1.307 1.552-1.473 5.843-.909M1846 667.6c.82-.686 2.49-.456 5.268.491 5.221 1.78 5.637 3.751 1.595 7.624-4.418 4.232-5.494 3.765-7.03-3.07-.619-2.753-.653-4.36.167-5.045m519.025 5.397c8.014-1.503 32.109 3.117 34.24 6.566.351.568-.06 1.73-.908 2.579-1.393 1.392-2.182 1.386-8.069-.093-6.495-1.631-16.722-2.216-17.918-1.02-1.127 1.127 2.103 6.016 8.82 13.336 5.356 5.837 6.378 7.457 5.416 8.616-1.607 1.936-1.81 1.883-7.642-1.827-5.976-3.802-11.95-10.735-16.341-18.975-3.53-6.624-3.126-8.145 2.402-9.182m-241.585 2.3c2.632-.153 5.215.438 6.492 1.855 4.168 4.626 2.814 11.485-2.727 13.8-3.878 1.62-5.115 1.698-8.069.501-5.208-2.111-6.525-9.232-2.495-13.522 1.483-1.578 4.166-2.48 6.799-2.634m209.858 2.217c.752.624 1.372 1.643 1.382 2.263s2.716 6.507 6.018 13.076c4.807 9.562 5.756 12.183 4.74 13.142-.699.66-7.188 3.046-14.422 5.305s-13.402 4.108-13.698 4.108c-1.288 0-1.442-1.787-.343-3.95.833-1.641 3.733-3.311 9.691-5.565 4.675-1.768 8.628-3.846 8.783-4.628.155-.781-.852-3.432-2.235-5.889-4.071-7.232-4.735-9.282-4.173-12.808.716-4.493 2.448-6.555 4.257-5.054m-61.507.269c1.718.344 3.987.621 5.036.621 3.405 0 3.304 2.927-.223 6.566-1.83 1.89-3.9 3.432-4.59 3.432-1.256 0-3.328-5.82-3.34-9.367 0-1.567.505-1.775 3.117-1.252m-325.11.24c3.394-.115 6.752 1.278 7.79 4.258 1.202 3.447 1.012 3.812-9.097 17.37-5.073 6.804-8.687 10.759-9.84 10.759-2.779 0-5.17-4.357-4.378-7.967.856-3.895 3.963-6.038 8.737-6.038 4.184 0 5.215-2.158 1.882-3.941-2.647-1.417-4.274-6.503-3.079-9.645 1.162-3.055 4.592-4.68 7.985-4.795m280.38 7.893c4.701 2.103 8.05 6.421 10.647 13.225 3.135 8.21 3.028 15.456-.334 21.962-3.35 6.482-8.075 9.828-23.91 16.935-6.577 2.952-12.282 5.37-12.677 5.37-1.3 0-3.116-2.368-3.116-4.063 0-1.085 2.164-2.603 6.241-4.368 11.842-5.125 22.862-11.075 25.384-13.707 4.658-4.86 4.403-16.533-.52-23.863-3.603-5.366-7.672-7.986-12.408-7.994-4.087-.007-16.55 3.589-26.117 7.54-5.993 2.475-8.649 2.436-5.203-.084 4.486-3.28 17.61-9.42 23.26-10.879 8-2.065 14.052-2.176 18.753-.074m-374.143 3.024c1.238.37 3.302 1.337 4.591 2.151l2.347 1.484-2.273 2.412c-4.051 4.312-6.859 2.525-6.9-4.396-.01-1.938.354-2.213 2.235-1.651m408.996 4.155c3.16.62 3.515 2.014 1.001 3.923-2.52 1.913-4.014 1.685-4.776-.715-.88-2.774.402-3.87 3.775-3.208m-43.302 5.444c3.759 1.31 6.056 5.376 6.056 10.73 0 3.24-.597 4.454-3.255 6.696-1.788 1.507-4.818 3.392-6.743 4.183s-6.544 2.974-10.257 4.85c-8.372 4.23-11.135 4.373-12.548.659-5.581-14.67-5.932-17.374-2.411-18.725 19.807-7.606 26.168-9.436 29.158-8.393m-1.196 3.774q-2.157-.877-5.787.102c-6.958 1.874-16.905 6.974-18.577 9.525-1.651 2.52-1.284 6.678.816 9.21 1.597 1.922 5.31 1.517 12.558-1.383 12.673-5.07 15.362-7.762 13.837-13.837q-.689-2.738-2.847-3.617m-217.658 5.38c4.933.66 6.489 1.903 7.957 6.352 1.538 4.66-.173 8.712-4.544 10.786-4.05 1.922-4.206 1.92-8.347-.12-5.9-2.908-6.887-9.724-2.105-14.505 2.657-2.658 3.56-2.98 7.039-2.514m212.733.12c2.322-1.626 5.175-1.302 5.175.584 0 .58-1.233 1.574-2.745 2.217s-3.658 1.936-4.758 2.865-3.349 1.938-4.999 2.245-4.181.855-5.63 1.215c-1.53.38-2.917.2-3.31-.436-.953-1.543.232-3.098 2.365-3.098.993 0 2.951-.903 4.35-2.003s3.612-1.994 4.915-1.994 3.39-.721 4.637-1.595m-352.515.593c1.82 0 4.096.57 5.055 1.271 1.638 1.198 1.597 1.481-.566 4.674-3.065 4.525-4.378 4.773-6.242 1.169-2.605-5.038-2.092-7.114 1.753-7.114m297.611 7.058c1.97.023 4.027.871 6 2.532 3.847 3.236 4.186 8.074.826 11.778-3.917 4.32-11.306 4.184-13.68-.25-1.922-3.593-1.276-9 1.392-11.667 1.619-1.619 3.493-2.416 5.462-2.393m-449.83 1.14c-.878-.048-1.094.874-1.094 2.755 0 2.219.91 3.656 3.627 5.75 1.992 1.536 4.805 3.816 6.25 5.064l2.625 2.272-2.68-1.15c-2.28-.976-3.083-.834-5.37.965-1.478 1.163-3.085 1.876-3.57 1.576-.486-.3-.882 1.199-.882 3.33 0 3.172.641 4.438 3.506 6.974 3.567 3.158 4.132 4.715 2.606 7.123-.658 1.039-1.33 1.097-2.912.25-3.049-1.632-3.2-1.487-3.2 3.21 0 1.408.944 1.98 1.215 2.902h46.9c-.019-.327-.936-1.982-.677-1.883.107.041 2.526 1.73 2.792 1.883h11.973c-20.326-13.473-51.112-34.163-56.026-37.913-2.659-2.03-4.204-3.058-5.082-3.107m160.946 10.601c6.118.406 6.779 1.452 3.57 5.658-1.487 1.95-3.142 3.542-3.672 3.542-1.387 0-5.008-6.227-4.655-8.003.222-1.12 1.427-1.418 4.757-1.197m75.641 2.671c3.188-1.24 7.074-.81 9.868 1.985 3.519 3.519 3.435 9.634-.176 12.474-6.228 4.899-15.368 1.077-15.368-6.427 0-3.881 2.488-6.792 5.676-8.032m-220.644 5.528c.467 0 4.936 2.763 9.933 6.14 8.616 5.821 8.978 6.213 7.058 7.558-1.114.78-2.022 2.063-2.022 2.856 0 .794-.339 1.438-.751 1.429-1.53-.034-8.584-4.534-9.377-5.982-2.74-5.005-5.563-12.001-4.84-12.001m159.443 10.971c.329.531-.324 2.78-1.456 5-1.132 2.218-2.455 4.033-2.94 4.033-1.128 0-5.082-6.659-5.082-8.56 0-1.674 8.475-2.097 9.478-.473m362.03 3.163c-4.892-.107-11.412 1.995-21.228 6.27-2.421 1.054-3.028 1.095-4.823 1.817h37.886c-.235-.362-.11-.743-.371-1.104-3.305-4.561-6.571-6.876-11.463-6.983" style="fill:maroon;fill-opacity:1" transform="translate(-246.356 106.861)scale(.15795)"/><path d="M3.676-9C.433-9 0-5.523 0-5.523S-.433-9-3.676-9C-5.946-9-8-7.441-8-4.5-8-.614-1.42 3.294 0 9 1.352 3.299 8-.614 8-4.5 8-7.441 5.946-9 3.676-9" style="fill:maroon;fill-opacity:1" transform="matrix(3.574 0 0 3.34492 119.072 45.438)"/></g><g style="fill:maroon"><path d="M-26.845 90.822v129.995H103.15V90.822Zm2.3 2.3H100.85v125.396H-24.546Z" style="color:#000;fill:maroon;stroke-width:.811363;-inkscape-stroke:none" transform="translate(45.39 6.384)"/></g><g style="font-size:64px;font-family:NumbersDeuce;-inkscape-font-specification:NumbersDeuce;fill:maroon;stroke-width:2.83465"><path d="M-67.967-72.24h-4.672v-4.352h14.4v4.352h-4.544V-46q0 8.192-3.328 11.648-3.264 3.392-8.896 3.2-5.248-.192-8-3.072t-2.752-8.32v-3.904h4.736v3.648q0 3.84 1.856 5.504 1.6 1.536 4.16 1.536 4.352 0 5.76-2.752 1.28-2.496 1.28-8.832zv-.064z" aria-label="J" style="fill:maroon" transform="translate(136.062 121.288)scale(1.40813)"/></g><g style="clip-rule:nonzero;opacity:.198728;fill:#b3b3b3;fill-opacity:1;fill-rule:nonzero;stroke:#000;stroke-miterlimit:4;filter:url(#a)" transform="translate(0 .616)"><path d="M166.837 235.548c0 3.777-3.087 6.869-6.871 6.869H7.11c-3.775 0-6.861-3.092-6.861-6.87V7.12C.25 3.343 3.336.25 7.11.25h152.856c3.784 0 6.87 3.093 6.87 6.87z" style="fill:#b3b3b3;fill-opacity:1;stroke-width:.5"/></g></svg>