<svg xmlns="http://www.w3.org/2000/svg" xmlns:xlink="http://www.w3.org/1999/xlink" xml:space="preserve" width="222.783" height="323.556" viewBox="0 0 167.087 242.667"><defs><radialGradient xlink:href="#a" id="b" cx="-42.758" cy="197.406" r="61.62" fx="-42.758" fy="197.406" gradientTransform="matrix(-.42395 .00628 -.00629 -.42467 39.35 201.489)" gradientUnits="userSpaceOnUse"/><linearGradient id="a"><stop offset="0" style="stop-color:#fc0;stop-opacity:0"/><stop offset="1" style="stop-color:#ff8500;stop-opacity:1"/></linearGradient><filter id="c" width="1.147" height="1.101" x="-.074" y="-.051" style="color-interpolation-filters:sRGB"><feGaussianBlur in="SourceGraphic" result="result3" stdDeviation="4"/><feGaussianBlur in="SourceGraphic" result="result4" stdDeviation="1"/><feBlend in2="result3" mode="darken"/><feComponentTransfer result="result1"><feFuncR tableValues="0 0.2 0.4 0.6 0.8 1 1" type="discrete"/><feFuncG tableValues="0 0.2 0.4 0.6 0.8 1 1" type="discrete"/><feFuncB tableValues="0 0.2 0.4 0.6 0.8 1 1" type="discrete"/></feComponentTransfer><feTurbulence baseFrequency="1" numOctaves="7" result="result0" type="fractalNoise"/><feConvolveMatrix kernelMatrix="-2 0 -2 0 -10 0 -2 0 -2" order="3 3" result="result5"/><feColorMatrix in="result5" result="result4" type="saturate" values="0"/><feComposite in="result1" in2="result4" k1="1.5" k2=".5" k3=".5" operator="arithmetic" result="result2"/><feComposite in2="SourceGraphic" operator="in"/></filter></defs><g style="clip-rule:nonzero;fill-rule:nonzero;stroke:#000;stroke-miterlimit:4"><path d="M166.837 235.548c0 3.777-3.087 6.869-6.871 6.869H7.11c-3.775 0-6.861-3.092-6.861-6.87V7.12C.25 3.343 3.336.25 7.11.25h152.856c3.784 0 6.87 3.093 6.87 6.87z" style="fill:#fff;stroke-width:.5"/></g><g style="display:inline"><path d="m56.906 90.98-.435 12.972.252.007zm-2.491.06.802 12.973.252-.015zm4.975.118-1.666 12.874.251.027zm-7.448.177 2.031 12.843.249-.046zm9.905.237-2.88 12.655.245.055zm-12.34.293 3.242 12.585.242-.076zm14.746.351-4.07 12.323.24.079zm-17.118.407 4.417 12.207.239-.082zm19.453.464-5.226 11.881.233.1zm-21.743.517 5.563 11.741.23-.103zm23.984.572-6.331 11.331.223.12zm-26.171.622 6.659 11.167.216-.13zm28.298.674-7.38 10.678.21.142zm-30.36.723 7.688 10.483.199-.156zm32.354.77-8.359 9.927.193.162zm-34.276.816 8.645 9.697.178-.178zm36.12.86-9.268 9.088.18.178zm-37.881.901 9.519 8.824.178-.178zm39.557.942-10.09 8.167.163.193zm-41.143.98 10.326 7.887.155-.198zm42.636 1.014-10.82 7.17.143.21zm-44.033 1.049 11.035 6.873.13-.215zm45.33 1.079-11.451 6.108.119.223zm-46.524 1.107 11.636 5.793.104-.231zm47.612 1.133-11.981 4.993.099.233zm-48.593 1.157 12.125 4.657.081-.24zm49.463 1.177-12.402 3.832.079.24zm-50.221 1.195 12.51 3.483.073-.241zm50.866 1.212-12.71 2.636.055.246zm-51.396 1.223 12.797 2.28.044-.249zm51.81 1.233-12.9 1.416.026.25zm-52.105 1.241 12.958 1.054.015-.253zm52.282 1.245-12.979.182.006.253zm-39.362.81-12.98.436 12.996-.184zm26.344.626-.015.252 12.973.802zm-26.268.627L30.29 120.26l12.907-1.417zm26.134.621-.044.249 12.84 2.031zm-25.926.618-12.674 2.886 12.72-2.638zm25.684.613-.075.241 12.584 3.242zm-25.367.6-12.345 4.079 12.42-3.838zm24.994.599-.081.24L80.81 126.3zm-24.572.583-11.897 5.231 12-5.001zm24.079.571-.104.23 11.74 5.563zm-23.555.568-11.333 6.333 11.465-6.117zm22.962.537-.131.216 11.166 6.658zm-22.312.538-10.686 7.384 10.818-7.169zm21.624.512-.156.198 10.482 7.69zm-20.873.494-9.944 8.374 10.1-8.175zm20.094.49-.178.179 9.697 8.646zm-19.26.445-9.102 9.282 9.282-9.104zm18.373.444-.178.178 8.823 9.52zm-17.457.415-8.174 10.098 8.373-9.943zm16.492.385-.2.156 7.888 10.328zm-15.502.388-7.17 10.818 7.385-10.687zm14.47.326-.216.13 6.874 11.036zm-13.396.324-6.116 11.465 6.332-11.333zm12.304.296-.23.103 5.793 11.637zm-11.179.257-5.001 12 5.232-11.897zm10.035.258-.24.081 4.657 12.124zm-8.864.193-3.838 12.42 4.079-12.345zm7.667.186-.241.075 3.482 12.51zm-6.461.16-2.638 12.719 2.887-12.674zm5.237.113-.25.045 2.28 12.797zm-4.002.113-1.416 12.906 1.667-12.878zm2.758.05-.252.016 1.054 12.959zm-1.507.038-.183 12.996.436-12.98z" style="opacity:1;fill:url(#b);fill-opacity:1;stroke:none;stroke-width:1.13258;stroke-linecap:round;stroke-linejoin:miter;stroke-miterlimit:4;stroke-dasharray:none;stroke-opacity:1;paint-order:markers stroke fill" transform="translate(1.257 -72.092)"/><path d="m72.215 133.57-2.963 6.998-7.541-.933.87 7.021q-.239.364-.454.739l-6.48 2.744 4.228 5.595c-.006.208-.014.416-.014.627 0 .107.005.211.006.317l-4.22 5.59 6.357 2.691q.264.466.56.916l-.853 6.896 7.541-.933 2.963 6.996 6.062-4.578 6.065 4.578 2.963-6.996 7.54.933-.87-7.03q.241-.363.463-.735l6.472-2.74-4.222-5.59c.002-.138.01-.273.01-.412 0-.18-.008-.356-.012-.534l4.224-5.591-6.525-2.762a16 16 0 0 0-.416-.662l.877-7.08-7.541.933-2.963-6.998-6.065 4.578zm6.174 9.729q5.588-.001 9.412 3.724 3.847 3.702 3.847 9.143 0 5.588-3.847 9.338-3.824 3.75-9.559 3.75-5.71 0-9.51-3.678-3.798-3.675-3.798-9.215 0-5.71 3.775-9.386 3.798-3.676 9.68-3.676M64.7 168.5c.103.104.201.21.307.313a17.4 17.4 0 0 0 5.017 3.384 17.4 17.4 0 0 1-5.02-3.383c-.105-.102-.201-.21-.304-.314m17.104 4.953" style="font-size:37.6457px;font-family:&quot;Gill Sans MT&quot;;-inkscape-font-specification:&quot;Gill Sans MT&quot;;fill:#fc0;fill-opacity:1;stroke:none;stroke-width:4;stroke-linecap:round;stroke-linejoin:round;stroke-opacity:1;paint-order:markers stroke fill" transform="matrix(.75 0 0 .75 -1.169 -72.092)"/><path d="M89.122 104.349h4.596l-11.14 12.168 13.879 13.511H91.42l-13.106-12.683v12.683h-3.676v-25.68h3.676v11.747zm10.165 0h14.559v3.272h-10.882v7.83h10.514v3.29h-10.514v7.978h11.23v3.272H99.288Zm18.933 25.679v-25.68h6.434q3.897 0 6.176 1.93 2.298 1.931 2.298 5.221 0 2.243-1.121 3.879-1.122 1.636-3.217 2.445 1.232.808 2.408 2.205t3.309 4.872q1.342 2.187 2.15 3.29l1.36 1.838h-4.374l-1.122-1.691q-.055-.092-.22-.313l-.717-1.01-1.14-1.875-1.231-2.004q-1.14-1.58-2.096-2.518-.937-.938-1.71-1.342-.753-.423-2.554-.423h-.956v11.176zm4.78-22.554h-1.103v8.106h1.397q2.794 0 3.823-.478 1.048-.478 1.618-1.434.588-.974.588-2.205 0-1.214-.643-2.188-.644-.993-1.82-1.397-1.158-.404-3.86-.404zm-88.765-3.125h3.676v25.348q0 3.548-.735 5.239-.717 1.71-2.335 2.72-1.617 1.03-3.897 1.03-.349 0-1.195-.11l-.68-3.42h.938q1.58 0 2.408-.385.845-.387 1.323-1.36.497-.975.497-4.137z" style="font-size:37.6457px;font-family:&quot;Gill Sans MT&quot;;-inkscape-font-specification:&quot;Gill Sans MT&quot;;stroke:#000;stroke-width:3;stroke-linecap:round;stroke-linejoin:miter;stroke-opacity:1;paint-order:markers stroke fill" transform="translate(1.257 -72.092)"/><path d="M81.694 217.128h3.677v25.348q0 3.548-.735 5.239-.717 1.71-2.335 2.72-1.618 1.03-3.897 1.03-.35 0-1.195-.11l-.68-3.42h.938q1.58 0 2.408-.386.845-.386 1.323-1.36.496-.974.496-4.136z" style="font-size:37.6457px;font-family:&quot;Gill Sans MT&quot;;-inkscape-font-specification:&quot;Gill Sans MT&quot;;fill:#000;stroke:#000;stroke-width:3;stroke-linecap:round;stroke-linejoin:miter;stroke-opacity:1;paint-order:markers stroke fill" transform="translate(1.257 -72.092)"/><g style="fill:#fc0"><path d="m56.906 90.98-.435 12.972.252.007zm-2.491.06.802 12.973.252-.015zm4.975.118-1.666 12.874.251.027zm-7.448.177 2.031 12.843.249-.046zm9.905.237-2.88 12.655.245.055zm-12.34.293 3.242 12.585.242-.076zm14.746.351-4.07 12.323.24.079zm-17.118.407 4.417 12.207.239-.082zm19.453.464-5.226 11.881.233.1zm-21.743.517 5.563 11.741.23-.103zm23.984.572-6.331 11.331.223.12zm-26.171.622 6.659 11.167.216-.13zm28.298.674-7.38 10.678.21.142zm-30.36.723 7.688 10.483.199-.156zm32.354.77-8.359 9.927.193.162zm-34.276.816 8.645 9.697.178-.178zm36.12.86-9.268 9.088.18.178zm-37.881.901 9.519 8.824.178-.178zm39.557.942-10.09 8.167.163.193zm-41.143.98 10.326 7.887.155-.198zm42.636 1.014-10.82 7.17.143.21zm-44.033 1.049 11.035 6.873.13-.215zm45.33 1.079-11.451 6.108.119.223zm-46.524 1.107 11.636 5.793.104-.231zm47.612 1.133-11.981 4.993.099.233zm-48.593 1.157 12.125 4.657.081-.24zm49.463 1.177-12.402 3.832.079.24zm-50.221 1.195 12.51 3.483.073-.241zm50.866 1.212-12.71 2.636.055.246zm-51.396 1.223 12.797 2.28.044-.249zm51.81 1.233-12.9 1.416.026.25zm-52.105 1.241 12.958 1.054.015-.253zm52.282 1.245-12.979.182.006.253zm-39.362.81-12.98.436 12.996-.184zm26.344.626-.015.252 12.973.802zm-26.268.627L30.29 120.26l12.907-1.417zm26.134.621-.044.249 12.84 2.031zm-25.926.618-12.674 2.886 12.72-2.638zm25.684.613-.075.241 12.584 3.242zm-25.367.6-12.345 4.079 12.42-3.838zm24.994.599-.081.24L80.81 126.3zm-24.572.583-11.897 5.231 12-5.001zm24.079.571-.104.23 11.74 5.563zm-23.555.568-11.333 6.333 11.465-6.117zm22.962.537-.131.216 11.166 6.658zm-22.312.538-10.686 7.384 10.818-7.169zm21.624.512-.156.198 10.482 7.69zm-20.873.494-9.944 8.374 10.1-8.175zm20.094.49-.178.179 9.697 8.646zm-19.26.445-9.102 9.282 9.282-9.104zm18.373.444-.178.178 8.823 9.52zm-17.457.415-8.174 10.098 8.373-9.943zm16.492.385-.2.156 7.888 10.328zm-15.502.388-7.17 10.818 7.385-10.687zm14.47.326-.216.13 6.874 11.036zm-13.396.324-6.116 11.465 6.332-11.333zm12.304.296-.23.103 5.793 11.637zm-11.179.257-5.001 12 5.232-11.897zm10.035.258-.24.081 4.657 12.124zm-8.864.193-3.838 12.42 4.079-12.345zm7.667.186-.241.075 3.482 12.51zm-6.461.16-2.638 12.719 2.887-12.674zm5.237.113-.25.045 2.28 12.797zm-4.002.113-1.416 12.906 1.667-12.878zm2.758.05-.252.016 1.054 12.959zm-1.507.038-.183 12.996.436-12.98z" style="opacity:1;fill:#fc0;fill-opacity:1;stroke:none;stroke-width:1.13258;stroke-linecap:round;stroke-linejoin:miter;stroke-miterlimit:4;stroke-dasharray:none;stroke-opacity:1;paint-order:markers stroke fill" transform="translate(-48.016 -111.633)scale(2.33746)"/><path d="m72.215 133.57-2.963 6.998-7.541-.933.87 7.021q-.239.364-.454.739l-6.48 2.744 4.228 5.595c-.006.208-.014.416-.014.627 0 .107.005.211.006.317l-4.22 5.59 6.357 2.691q.264.466.56.916l-.853 6.896 7.541-.933 2.963 6.996 6.062-4.578 6.065 4.578 2.963-6.996 7.54.933-.87-7.03q.241-.363.463-.735l6.472-2.74-4.222-5.59c.002-.138.01-.273.01-.412 0-.18-.008-.356-.012-.534l4.224-5.591-6.525-2.762a16 16 0 0 0-.416-.662l.877-7.08-7.541.933-2.963-6.998-6.065 4.578zm6.174 9.729q5.588-.001 9.412 3.724 3.847 3.702 3.847 9.143 0 5.588-3.847 9.338-3.824 3.75-9.559 3.75-5.71 0-9.51-3.678-3.798-3.675-3.798-9.215 0-5.71 3.775-9.386 3.798-3.676 9.68-3.676M64.7 168.5c.103.104.201.21.307.313a17.4 17.4 0 0 0 5.017 3.384 17.4 17.4 0 0 1-5.02-3.383c-.105-.102-.201-.21-.304-.314m17.104 4.953" style="font-size:37.6457px;font-family:&quot;Gill Sans MT&quot;;-inkscape-font-specification:&quot;Gill Sans MT&quot;;fill:#fc0;fill-opacity:1;stroke:none;stroke-width:4;stroke-linecap:round;stroke-linejoin:round;stroke-opacity:1;paint-order:markers stroke fill" transform="translate(-53.686 -111.633)scale(1.7531)"/><path d="m51.735 100.178-2.222 5.248-5.656-.7.652 5.266q-.177.273-.34.554l-4.86 2.058 3.171 4.197c-.004.156-.01.312-.01.47q.001.12.005.237l-3.166 4.193 4.768 2.018q.198.35.42.687l-.64 5.173 5.656-.7 2.222 5.246 4.547-3.433 4.548 3.433 2.223-5.247 5.655.7-.653-5.273q.181-.27.347-.55l4.855-2.056-3.167-4.192c.002-.103.007-.205.007-.31q-.001-.2-.009-.4l3.169-4.193-4.894-2.071q-.15-.252-.312-.497l.657-5.31-5.655.7-2.222-5.248-4.549 3.433zm4.631 7.296q4.191-.001 7.059 2.794 2.886 2.775 2.885 6.857 0 4.19-2.885 7.003-2.868 2.812-7.17 2.812-4.282 0-7.132-2.758t-2.849-6.911q0-4.283 2.832-7.04 2.85-2.757 7.26-2.757M46.1 126.375c.077.078.15.158.23.234l-.001.002c-.08-.077-.152-.158-.229-.236m12.828 3.715" style="font-size:37.6457px;font-family:&quot;Gill Sans MT&quot;;-inkscape-font-specification:&quot;Gill Sans MT&quot;;fill:#fc0;fill-opacity:1;stroke:none;stroke-width:3;stroke-linecap:round;stroke-linejoin:round;stroke-opacity:1;paint-order:markers stroke fill" transform="translate(-48.016 -111.633)scale(2.33746)"/></g><path d="M-26.845 90.822v129.995H103.15V90.822Zm2.3 2.3H100.85v125.396H-24.546Z" style="color:#000;fill:#000;stroke-width:.811363;-inkscape-stroke:none" transform="translate(45.39 6.384)"/></g><g style="display:inline"><path d="M83.542 133.416c-15.887 0-28.787 12.901-28.787 28.789 0 15.887 12.9 28.787 28.787 28.787 15.888 0 28.79-12.9 28.79-28.787 0-15.888-12.902-28.79-28.79-28.79m0 2c14.807 0 26.79 11.982 26.79 26.789 0 14.806-11.983 26.787-26.79 26.787s-26.787-11.98-26.787-26.787 11.98-26.79 26.787-26.79" style="color:#000;display:inline;opacity:.998822;fill:#fff;stroke-linecap:round;-inkscape-stroke:none;paint-order:markers stroke fill"/></g><g style="clip-rule:nonzero;opacity:.179772;fill:#b3b3b3;fill-opacity:1;fill-rule:nonzero;stroke:#000;stroke-miterlimit:4;filter:url(#c)"><path d="M166.837 235.548c0 3.777-3.087 6.869-6.871 6.869H7.11c-3.775 0-6.861-3.092-6.861-6.87V7.12C.25 3.343 3.336.25 7.11.25h152.856c3.784 0 6.87 3.093 6.87 6.87z" style="fill:#b3b3b3;fill-opacity:1;stroke-width:.5"/></g></svg>