<svg xmlns="http://www.w3.org/2000/svg" xml:space="preserve" width="222.783" height="323.556" viewBox="0 0 167.087 242.667"><defs><filter id="a" width="1.147" height="1.101" x="-.074" y="-.051" style="color-interpolation-filters:sRGB"><feGaussianBlur in="SourceGraphic" result="result3" stdDeviation="4"/><feGaussianBlur in="SourceGraphic" result="result4" stdDeviation="1"/><feBlend in2="result3" mode="darken"/><feComponentTransfer result="result1"><feFuncR tableValues="0 0.2 0.4 0.6 0.8 1 1" type="discrete"/><feFuncG tableValues="0 0.2 0.4 0.6 0.8 1 1" type="discrete"/><feFuncB tableValues="0 0.2 0.4 0.6 0.8 1 1" type="discrete"/></feComponentTransfer><feTurbulence baseFrequency="1" numOctaves="7" result="result0" type="fractalNoise"/><feConvolveMatrix kernelMatrix="-2 0 -2 0 -10 0 -2 0 -2" order="3 3" result="result5"/><feColorMatrix in="result5" result="result4" type="saturate" values="0"/><feComposite in="result1" in2="result4" k1="1.5" k2=".5" k3=".5" operator="arithmetic" result="result2"/><feComposite in2="SourceGraphic" operator="in"/></filter></defs><g style="fill-rule:nonzero;clip-rule:nonzero;stroke:#000;stroke-miterlimit:4"><path d="M166.837 235.548c0 3.777-3.087 6.869-6.871 6.869H7.11c-3.775 0-6.861-3.092-6.861-6.87V7.12C.25 3.343 3.336.25 7.11.25h152.856c3.784 0 6.87 3.093 6.87 6.87z" style="fill:#fff;stroke-width:.5"/></g><path d="M7.989 3.103C7.747-.954.242-8.59 0-10.5-.242-8.591-7.747-.955-7.989 3.103c-.169 2.868 1.695 4.057 3.39 4.057 1.835-.022 3.35-2.8 3.873-3.341.242.716-1.603 6.682-2.179 6.682h5.811c-.576 0-2.421-5.966-2.179-6.682.457.496 1.797 3.258 3.874 3.341 1.694-.001 3.557-1.189 3.388-4.057" style="fill:#000" transform="matrix(2.26533 0 0 2.07121 39.955 121.332)"/><path d="M1374.356 224.856c-3.767-.018-6.744.404-6.744.951 0 .54 1.505 3.356 3.353 6.254s12.485 21.687 23.63 41.762 23.105 41.492 26.585 47.591c5.78 10.134 10.642 19.018 23.093 42.187l4.444 8.277-1.599 8.554c-2.467 13.167-6.958 30.18-12.073 45.753-5.36 16.317-16.551 44.248-19.842 49.53-1.236 1.985-3.753 6.603-5.598 10.263-4.03 8-10.048 17.081-11.657 17.588-.641.202-1.451-.505-1.792-1.58-1.337-4.211-6.822-10.376-10.863-12.211-8.992-4.083-18.414-2.034-25.597 5.56-7.389 7.813-8.846 15.706-5.1 27.657 1.094 3.487 1.986 6.837 1.996 7.446.007.608-8.42 4.062-18.733 7.676-24.71 8.66-43.885 16.867-65.253 27.943-38.67 20.044-62.678 34.76-88.873 54.473-3.506 2.638-8.254 6.146-10.558 7.796-4.24 3.036-13.018 10.01-15.316 12.175-.688.648-1.247 2.793-1.247 4.757 0 2.934.367 3.566 2.05 3.566 2.523 0 6.729 2.14 13.376 6.79 36.3 25.39 58.029 46.603 82.185 80.217 31.13 43.317 54.837 106.19 55.415 146.994.192 13.523.258 13.01-1.782 12.933-2.562-.097-14.577-6.223-15.02-7.658-.237-.766 1.149-1.468 3.695-1.875l4.073-.656v-4.619c-.005-6.253-2.648-22.176-3.889-23.417q-1-1.002-9.302 0c-4.566.552-9.015.643-9.884.204-1.71-.866-4.572-14.047-3.445-15.87.353-.572 1.725-1.044 3.048-1.044 2.537 0 4.48 2.525 4.48 5.82 0 3.698 2.43 4.535 7.88 2.725 2.722-.905 5.18-2.254 5.468-3.003.592-1.542-3.591-19.25-5.302-22.446-1.387-2.592-3.863-2.604-11.454-.065-9.044 3.025-10.358 2.753-12.72-2.587-1.11-2.506-2.264-6.088-2.568-7.962-.479-2.948-.211-3.563 2.004-4.573 3.504-1.596 5.36-.643 7.168 3.686 1.452 3.473 1.731 3.638 5.137 3.085 5.45-.884 8.629-3.32 7.824-5.986-2.034-6.731-8.974-21.956-10.226-22.437-.806-.31-4.795 1.084-8.859 3.094-4.064 2.011-8.034 3.65-8.822 3.65-1.707 0-5.445-4.789-8.535-10.938l-2.235-4.443 2.235-1.81c3.516-2.848 5.737-2.257 7.972 2.124 2.664 5.221 3.301 5.48 7.815 3.178 6.84-3.49 6.944-4.081 2.235-12.831-5.08-9.441-8.649-14.281-10.53-14.281-.775 0-4.236 1.796-7.695 3.99s-7.05 3.995-7.972 4c-1.71.01-6.505-5.16-8.85-9.542-1.12-2.092-1.051-2.7.518-4.434 2.494-2.756 4.008-2.528 6.512.989 1.175 1.65 2.64 3.002 3.261 3.002 2.153 0 8.739-5.285 8.739-7.011 0-2.02-11.818-18.986-13.736-19.722-1.403-.538-2.33.055-10.226 6.484-7.053 5.742-8.834 5.552-14.475-1.505-5.14-6.43-5.48-9.21-1.312-10.67 2.4-.84 3.176-.56 6.05 2.227 1.813 1.756 3.657 3.196 4.102 3.196 1.748 0 8.6-6.27 8.6-7.87 0-2.258-15.709-19.131-17.81-19.131-.904 0-4.634 2.972-8.295 6.605-7.68 7.62-8.26 7.66-14.872.923-4.106-4.183-4.305-4.633-3.067-6.946 1.874-3.5 4.006-3.985 7.196-1.626 4.074 3.012 6.217 2.56 9.367-1.986l2.79-4.027-2.901-3.067c-1.6-1.684-5.733-5.318-9.182-8.074-7.705-6.156-8.868-5.993-16.036 2.162-3.476 3.954-6.076 6.041-7.52 6.041-1.212 0-4.555-1.589-7.436-3.529l-5.237-3.528v2.873c0 2.374.914 3.47 5.247 6.262 2.887 1.862 5.8 3.749 6.466 4.185.783.513 3.788-1.692 8.498-6.226 7.393-7.117 9.194-7.928 13.108-5.921 3.57 1.83 8.683 7.14 8.683 9.016 0 3.005-2.135 3.252-6.706.766l-4.415-2.401-4.434 4.692c-2.443 2.58-4.444 5.532-4.444 6.559 0 1.645 14.803 16.248 16.47 16.248.345 0 3.96-3.152 8.028-7.002 4.067-3.85 7.8-7.002 8.295-7.002 1.835 0 12.35 12.026 12.018 13.746-.524 2.72-3.256 2.6-6.697-.296-3.97-3.34-6.36-2.836-11.52 2.448l-3.879 3.981 5.894 6.864c3.24 3.775 7.046 8.387 8.461 10.244l2.568 3.371 7.972-6.18c4.383-3.397 8.659-6.17 9.496-6.17 3.205 0 10.689 10.47 9.57 13.385-.91 2.373-4.001 1.964-6.679-.887-1.292-1.375-2.759-2.503-3.26-2.503-1.767 0-9.737 6.36-9.737 7.769 0 1.565 10.355 17.715 12.018 18.742.57.352 2.486-.273 4.258-1.395 7.2-4.555 12.944-7.178 14.577-6.66.95.302 3.364 3.586 5.367 7.298 2.773 5.137 3.408 7.166 2.66 8.498-1.567 2.792-3.667 2.048-6.383-2.254-1.389-2.2-3.026-4-3.64-4-2.327 0-11.86 6.223-11.86 7.741 0 .874 1.305 3.648 2.9 6.171 1.596 2.523 3.905 6.95 5.127 9.838 2.687 6.347 3.86 6.543 13.44 2.198 9.446-4.283 10.436-3.943 13.894 4.785 3.25 8.205 2.998 10.56-1.1 10.087-2.059-.237-3.2-1.26-4.517-4.064-1.159-2.47-2.432-3.75-3.732-3.75-2.95 0-9.784 2.964-10.373 4.498-.637 1.66 5.963 20.469 7.86 22.4 1.428 1.454 1.86 1.376 15.252-2.761 4.313-1.333 5.535.002 7.602 8.23 1.728 6.877 1.487 9.095-1.1 10.088-1.995.766-3.443-.646-4.867-4.748-1.082-3.116-1.261-3.204-6.448-2.975-7.995.353-8.216.948-5.099 13.478 1.466 5.89 3.108 11.122 3.658 11.63.608.56 3.864.567 8.286.018 11.013-1.367 12.17-.252 12.535 12.073.152 5.117-.155 6.504-1.626 7.427-2.455 1.541-4.692-1.487-4.692-6.355 0-1.985-.541-4.144-1.201-4.804-1.565-1.565-6.638-1.515-9.8.102-2.103 1.074-2.448 1.871-2.172 4.988.363 4.094-.72 4.626-5.256 2.559-2.92-1.33-2.78-.942-5.57-15.353-7.284-37.62-26.297-78.912-50.815-110.377-14.987-19.235-37.103-41.23-52.431-52.136l-5.755-4.092v3.39c0 2.548.565 3.65 2.254 4.425 3.486 1.597 18.44 13.803 26.585 21.689 9.725 9.416 23.634 25.358 30.687 35.176 14.326 19.944 29.31 49.203 37.383 73.003 4.363 12.862 10.346 37.204 9.487 38.594-.873 1.413-3.3.922-5.284-1.063-1.19-1.19-2.337-4.618-3.085-9.246-1.768-10.948-7.692-30.014-14.41-46.363-2.551-6.207-13.389-27.46-15.039-29.495-.67-.825-3.05-4.657-5.293-8.507-11.817-20.285-45.119-57.187-60.237-66.759l-3.048-1.93v211.194l7.75.139c9.148.168 9.883.226 29.56 2.263 14.33 1.483 33.89 2.192 48.847 1.764l6.66-.194-.083-6.734c-.108-9.066.674-10.903 6.06-14.318 8.024-5.089 16.186-3.18 21.384 5.007 2.619 4.124 2.83 5.107 2.226 10.068-1.297 10.684-8.515 20.012-18.114 23.399-6.746 2.38-22.677 3.956-31.638 3.122-13.502-1.257-14.648-1.36-28.654-2.531-7.425-.62-19.435-1.773-26.696-2.559-18.145-1.963-17.302-2.056-17.302 1.866 0 3.09.234 3.314 3.704 3.547 2.036.137 4.286.73 4.998 1.321.393.327.133 65.379.397 82.62h9.015c.23-13.654-.123-82.163.314-82.61 1.918-1.962 12.498.125 14.808 2.918 3.212 3.885 6.884 17.838 7.87 29.911 2.038 24.945 1.873 33.106-.129 49.78h7.99c2.561-23.754 3.074-44.176-.037-65.456-1.059-7.245-1.93-13.397-1.93-13.671 0-2.094 26.627-.763 29.569 1.478.294.224.18 58.13.323 77.65h25.745c17.683-22.623 32.413-45.946 48.385-79.026 4.086-8.464 7.704-14.753 8.498-14.753 2.484 0 6.485 2.29 6.485 3.714 0 2.082-7.418 19.26-13.94 32.285-10.383 20.741-23.182 39.673-37.078 57.78h5.247l5.127-6.78h6.198c3.408 0 7.591-.278 9.302-.62 4.479-.896 4.267 1.77.84 7.4h6.568c.137.063.409-.156.527 0h4.739c-.466-7.864-.035-9.7 7.657-22.53 2.72-4.538 5.536-8.25 6.263-8.25 1.509 0 2.077 2.586 3.575 16.212l1.072 9.718-3.15 4.85h3.279c12.492-19.675 26.088-43.694 34.575-63.535 1.76-4.112 2.737-5.247 4.5-5.247 3.353 0 6.696 2.765 6.696 5.542 0 2.887-9.788 26.09-17.477 41.42-3.519 7.017-9.121 14.483-13.505 21.82h69.89c5.645-11.255 11.655-21.938 14.549-28.609 10.707-24.676 20.978-57.843 25.717-83.035 1.934-10.285 2.66-12.483 4.323-13.061 1.1-.382 11.899-.446 23.999-.139l22.003.564.314 3.297c.175 1.817-.41 7.45-1.302 12.508a1820 1820 0 0 0-2.614 15.195c-3.24 19.598-9.516 47.48-14.522 64.496-2.872 9.763-6.62 17.057-10.872 28.783h46.252l-.342-1.635c-2.433-11.56 2.826-19.331 13.237-19.555 7.702-.166 13.38 8.327 11.805 17.653l-.591 3.537h3.113l1.358-.203c.53-.08.858.248 1.376.203h35.99c-1.223-4.448-2.916-8.908-4.02-13.283-5.693-22.586-10.567-57.318-12.747-90.905-1.179-18.163-1.144-18.966.675-20.332 1.577-1.184 5.977-1.307 26.39-.73 13.476.382 24.998 1.1 25.607 1.59s1.4 4.152 1.764 8.138c2.083 22.838 10.857 61.23 20.96 91.745 3.48 10.51 6.993 16.512 9.81 23.777h24.94c-.714-.988-1.082-2.696-1.56-6.752-.894-7.59-1.989-8.655-5.709-5.524-7.42 6.243-14.623-.452-13.45-12.508.582-5.981 8.03-21.994 10.226-21.994.668 0 3.84 1.822 7.058 4.046s7.283 5.027 9.034 6.235c3.575 2.468 8.323 9.221 8.323 11.843 0 2.738-4.805 7.72-7.778 8.064-3.9.451-3.828 2.901.23 7.76 1.95 2.333 3.548 4.64 3.548 5.126s-1.785 1.79-3.963 2.9c-1.527.78-1.849.483-2.753.804h38.816c-17.756-37.488-29.086-74.64-35.518-120.778-4.132-29.638-3.337-77.664 1.838-111.616 3.785-24.833 8.587-44.07 11.26-45.097 1.998-.766 4.456 1.71 3.788 3.815-2.531 7.975-7.822 36.61-8.942 48.395-.313 3.3-.861 7.804-1.21 10.004-1.165 7.347-.38 57.647 1.127 72.495 2.507 24.687 9.889 58.881 19.214 89.002 5.604 18.104 13.871 36.064 21.892 53.78h12.47c3.673-37.968-7.634-70.914-33.891-97.731-7.73-7.896-10.134-11.766-10.134-16.295 0-3.361 2.74-1.699 12.767 7.76 26.121 24.641 39.58 53.774 40.893 88.484.265 6.98-1.165 11.45-1.773 17.782h33.291c-3.397-3.146-8.177-5.64-14.013-6.272-7.998-.867-10.16-1.408-10.16-2.53 0-1.296 14.729-1.247 22.862.073 8.23 1.336 13.987 4.541 17.67 8.73h85.243c-13.08-9.992-27.842-21.082-36.413-29.939-14.722-15.211-32.964-38.79-43.832-56.671-6.785-11.164-20.11-37.573-24.571-48.69-13.105-32.658-21.944-71.376-23.445-102.683-.504-10.522.082-11.947 3.935-9.422 2.05 1.342 2.455 2.601 2.966 9.339 1.55 20.467 5.652 46.328 9.727 61.29 4.42 16.233 14.665 43.38 22.142 58.666 9.205 18.821 26.63 46.5 36.118 57.383 1.704 1.955 4.886 5.778 7.076 8.498 5.082 6.316 23.358 25.346 30.52 31.777 3.025 2.716 6.177 5.71 7.002 6.65 1.071 1.222 10.511 8.085 18.207 13.801h6.78c-9.45-6.491-21.011-15.349-31.99-25.098-19.078-16.943-41.369-43.667-54.712-65.594-24.77-40.705-38.174-78.477-45.263-127.587-2.61-18.07-2.672-24.498-.25-24.498 1.897 0 23.322 10.002 25.763 12.028 1.49 1.235 2.04 9.286.85 12.387-.715 1.864-4.474 2.093-6.189.379-.66-.66-1.2-2.371-1.2-3.806 0-4.936-1.85-6.139-8.01-5.229l-5.487.804.204 5.967c.301 8.625 2.26 19.294 3.833 20.868 1.143 1.143 2.276 1.14 7.16-.01 7-1.647 12.94-1.779 13.846-.314.366.593 1.313 3.857 2.106 7.252 1.398 5.986 1.373 6.228-.72 7.925-3.713 3.01-6.11 1.889-7.455-3.473-1.043-4.153-2.64-4.979-7.491-3.889-6.59 1.481-6.748 1.964-4.111 12.258 2.945 11.498 4.758 15.852 6.614 15.852.806 0 4.854-1.14 8.997-2.531 9.482-3.183 10.621-2.662 13.57 6.198l2.226 6.688-2.29 1.856c-3.06 2.477-4.127 1.954-6.458-3.131-1.868-4.075-2.15-4.264-5.505-3.787-5.614.796-9.035 2.488-9.035 4.461 0 2.761 8.636 22.613 10.291 23.657.994.627 3.524.047 7.916-1.82 9.338-3.968 12.34-3.416 15.833 2.91 3.877 7.02 4.323 8.998 2.43 10.891-2.575 2.575-4.21 1.906-7.02-2.891-1.451-2.475-3.06-4.499-3.576-4.499-1.423 0-10.872 4.937-10.872 5.681 0 .955 8.927 17.35 11.196 20.563 2.518 3.566 4.103 3.469 10.817-.675 9.071-5.6 10.139-5.57 13.92.324 3.583 5.583 3.655 7.645.333 9.847-2.092 1.387-2.425 1.284-4.979-1.626-3.358-3.827-4.827-3.858-9.247-.194-3.089 2.561-3.335 3.12-2.346 5.293 2.07 4.545 12.8 17.778 14.42 17.782.887.002 3.326-1.353 5.413-3.012 2.087-1.658 5.378-3.994 7.316-5.191l3.52-2.18 5.32 5.857c5.395 5.936 6.284 8.163 4.12 10.327-2.136 2.136-5.556 1.345-7.797-1.801-2.733-3.839-4.184-3.77-8.72.388-3.07 2.813-3.529 3.722-2.734 5.45 1.667 3.623 15.516 18.16 17.302 18.16.942 0 4.383-2.695 7.648-5.995 3.584-3.62 6.79-6.004 8.083-6.004 2.035 0 9.054 4.839 10.641 7.334 2.737 4.302-.774 5.98-6.105 2.92l-3.04-1.746-4.535 4.452c-2.662 2.613-4.545 5.369-4.545 6.66 0 1.534 2.416 4.205 7.963 8.794 8.628 7.139 11.805 8.102 14.309 4.342 2.052-3.083 11.597-12.757 12.59-12.757.443 0 3.36 1.79 6.475 3.972l5.663 3.972v-3.473c0-2.14-.48-3.464-1.266-3.464-.7 0-2.844-1.273-4.757-2.827-4.02-3.266-6.281-4.263-7.574-3.335-.504.362-3.321 3.478-6.263 6.92-6.22 7.274-8.718 8.282-13.376 5.403-5.549-3.429-8.37-6.98-7.122-8.96 1.558-2.475 4.116-2.653 8.073-.554l3.483 1.847 3.898-4.499c2.146-2.475 3.907-5.245 3.907-6.16.002-.917-2.135-3.246-4.748-5.174-2.612-1.928-6.307-5.116-8.202-7.085-1.896-1.969-3.88-3.584-4.416-3.584-.535 0-4 2.928-7.704 6.503s-7.549 6.503-8.544 6.503c-2.712 0-12.552-10.818-12.185-13.394.468-3.274 3.947-3.108 7.261.351 1.602 1.672 3.597 3.04 4.434 3.04 1.866 0 9.099-6.911 9.099-8.693 0-1.612-14.673-17.696-16.535-18.124-.752-.173-4.338 1.972-7.972 4.757-3.634 2.786-7.252 5.062-8.036 5.062-1.874 0-10.562-11.062-10.208-12.997.512-2.792 4.858-2.406 7.325.656l2.291 2.836 4.619-2.41c5.72-2.991 7.207-5.386 5.228-8.407-.786-1.2-3.538-5.452-6.124-9.45l-4.702-7.27-8.581 4.675c-6.264 3.414-8.992 4.42-10.097 3.722-2.17-1.368-9.104-14.447-8.498-16.027.942-2.456 5.147-1.519 6.706 1.497 2.517 4.868 3.989 5.549 7.935 3.676 7.302-3.465 7.415-4.203 2.078-14.678-7.07-13.88-6.077-13.272-16.054-9.662-6.242 2.258-8.755 2.765-9.727 1.958-.722-.599-2.604-4.28-4.175-8.184-2.161-5.367-2.595-7.506-1.802-8.766 2.084-3.31 4.249-2.526 6.31 2.281 1.083 2.528 2.677 4.861 3.537 5.192 1.677.643 10.086-2.197 11.03-3.723.577-.934-6.215-22.738-7.547-24.23-.4-.447-4.72.35-9.607 1.774l-8.886 2.586-1.69-2.06c-1.803-2.197-4.173-11.852-3.622-14.742.183-.96 1.342-1.893 2.577-2.07 1.839-.262 2.61.534 4.259 4.379l2.004 4.692 4.24-.674c2.328-.371 5.183-1.302 6.356-2.069l2.133-1.395-1.866-9.302c-3.137-15.587-2.315-14.154-7.694-13.376-2.585.374-7.266.93-10.402 1.238-5.62.554-5.713.526-6.429-2.3-.4-1.577-.754-5.792-.794-9.367-.07-6.274.014-6.503 2.41-6.503 2.068 0 2.58.587 3.058 3.529.864 5.316 1.621 5.967 6.938 5.967 7.773 0 8.018-.252 8.018-8.212v-7.002l2.752.675c5.221 1.283 6.968 3.158 7.695 8.24 5.179 36.193 18.808 73.556 38.04 104.299 4.3 6.875 8.975 14.074 10.392 15.999 11.947 16.233 30.105 36.354 41.605 46.085 4.407 3.73 10.153 8.646 12.766 10.928l4.748 4.148V987.9c0-2.243-.394-3.962-.878-3.825-1.858.529-17.73-13.104-29.596-25.421-30.514-31.673-51.83-67.779-64.847-109.832-6.546-21.153-9.563-39.998-6.401-39.998 3.493 0 5.618 3.156 7.251 10.761 2.55 11.876 8.438 33.98 10.984 41.236 4.772 13.601 15.215 36.081 17.043 36.69.59.197 1.043-1.965 1.09-5.218.066-4.604.595-6.196 3.066-9.265 4.674-5.804 9.664-8.165 17.283-8.185 5.818-.014 7.028.35 11.658 3.538 5.518 3.8 8.627 9.452 9.94 18.069 1.903 12.492-15.214 23.32-28.248 17.874-1.975-.825-3.755-1.497-3.963-1.497-2.69 0 8.399 15.682 21.874 30.927 5.314 6.013 14.974 15.705 21.458 21.532l11.787 10.596.259-105.196c.138-57.853.135-105.3-.01-105.444-.144-.145-4.534-.372-9.754-.5-5.22-.126-12.2-.585-15.5-1.024s-15.84-1.487-27.87-2.328c-19.264-1.347-22.658-1.36-28.497-.074-3.646.803-7.528 1.362-8.628 1.238-1.486-.169-1.925.287-1.709 1.773 1.322 9.064 1.262 10.089-.748 13.293-2.553 4.068-10.135 7.598-14.743 6.863-4.79-.764-10.25-3.657-12.018-6.355-2.635-4.022-4.529-13.959-3.159-16.572 4.425-8.439 13.23-14.428 25.477-17.32 7.303-1.724 16.925-1.577 39.896.61 16.067 1.529 33.445 2.898 46.252 3.64l11.251.646v-2.956c0-2.777-.26-2.97-4.25-3.187-2.392-.13-4.755-.9-5.403-1.755-2.147-2.834-2.452-27.602-2.651-216.1l-.194-188.193-7.99-7.307c-4.395-4.019-12.413-11.475-17.82-16.562-5.406-5.088-10.467-9.247-11.25-9.247-1.53 0-11.3 8.446-26.253 22.696l-9.312 8.868.305 118.673c.215 81.27-.007 118.995-.72 119.707-.721.721-3.332-.285-8.499-3.27-4.102-2.37-14.663-8.463-23.463-13.542-8.8-5.078-25.77-14.05-37.716-19.934-21.243-10.464-21.767-10.794-23.98-15.196-2.802-5.572-2.75-10.134.277-23.823 2.148-9.715 2.206-10.958 1.016-21.006-2.458-20.756-9.29-40.692-17.736-51.766-2.072-2.718-2.848-5.037-3.168-9.468-.539-7.45-.057-9.222 4.323-15.842 4.002-6.048 3.977-8.506-.065-7.492l-2.586.647.314-16.877.323-16.877 6.097-9.496c3.355-5.225 11.185-17.375 17.394-27s16.458-25.824 22.78-35.999c12.171-19.591 19.273-30.843 30.372-48.126 9.368-14.59 9.259-13.885 2.217-13.838l-5.866.037-10.346 16.97-10.346 16.959h-4.443c-7.624 0-16.339 6.054-16.378 11.38-.03 4.108-1.498 4.992-8.572 5.155-6.522.15-6.862.285-10.577 4.268-3.428 3.675-3.833 4.669-3.833 9.31 0 6.452 3.267 11.232 9.597 14.032 5.53 2.447 4.93 4.271-2.152 6.503-4.555 1.436-6.162 1.51-10.715.49-2.946-.659-6.989-2.308-8.988-3.667-4.46-3.03-4.45-3.04-8.84-.056-6.46 4.39-15.383 4.25-21.043-.332l-2.328-1.885 4.425-1.191c11.978-3.226 15.938-17.048 7.343-25.643l-3.611-3.612 1.745-4.84c2.735-7.606.404-14.916-6.18-19.39-4.492-3.052-8.96-3.225-14.197-.554-4.878 2.489-7.638 5.97-8.536 10.77-.884 4.733-2.131 6.255-5.135 6.255-4.01 0-10.031 6.344-11.39 12.008-1.036 4.32-.947 5.414.665 8.656 2.285 4.597 6.07 7.447 10.946 8.24 2.053.333 3.91 1.145 4.13 1.8.426 1.28-5.407 4.57-10.097 5.7-4.488 1.08-13.165-1.216-18.743-4.97-2.801-1.885-5.428-3.427-5.838-3.427s-1.603.952-2.651 2.116c-6.5 7.22-18.404 11.165-25.163 8.341-5.27-2.202-6.511-3.432-5.136-5.09.625-.752 1.947-1.367 2.938-1.367 2.42 0 7.654-4.528 9.607-8.304 3.906-7.555-1.02-17.994-9.718-20.6l-3.935-1.182v-6.004c0-3.422-.658-7.277-1.524-8.951-2.878-5.566-12.762-8.612-18.89-5.82-4.022 1.832-7.679 8.313-8.305 14.715-.606 6.19-1.625 8.138-4.25 8.138-2.639 0-8.823 6.574-9.92 10.55-1.593 5.767 1.02 12.854 5.94 16.11 3.46 2.29 4.668 2.554 9.458 2.06 6.038-.624 6.61-.1 3.243 3.01-5.746 5.309-17.615 6.878-25.375 3.354-2.27-1.03-4.438-2.367-4.813-2.974-1.26-2.04-4.148-1.133-7.547 2.374-1.856 1.914-4.931 4-6.836 4.627-3.66 1.208-14.255.58-18.696-1.108-3.28-1.247-3.17-3.606.203-4.452 6.463-1.622 11.34-7.786 11.288-14.263-.06-7.684-6.178-14.341-13.31-14.484-4.94-.1-6.67-1.448-6.67-5.192 0-4.376-3.567-9.455-8.388-11.944-3.465-1.788-4.39-1.87-8.498-.785-5.766 1.525-8.81 4.485-10.54 10.235-1.137 3.777-1.132 5.103.028 8.434 1.824 5.242 1.89 4.989-1.996 7.39-3.472 2.146-6.619 8.048-6.577 12.332.04 4.037 3.756 10.62 7.169 12.701 4.008 2.444 7.452 2.559 12.83.407 2.234-.894 4.338-1.344 4.684-.998.847.847-3.568 5.477-6.854 7.187-7.004 3.644-13.227 3.463-23.583-.693-3.07-1.232-3.404-1.136-6.568 1.93-5.647 5.474-13.867 6.67-21.643 3.141-6.078-2.757-7.536-4.024-5.857-5.09.714-.452 2.278-.832 3.473-.84 3.262-.023 7.969-4.524 9.829-9.395 3.35-8.77-1.913-16.893-11.833-18.253-5.255-.72-6.127-1.487-7.02-6.198-1.545-8.142-7.892-12.73-16.397-11.851l-5.385.554-2.688-4.333c-1.478-2.38-6.736-12.013-11.686-21.403l-8.997-17.07zm216.57 47.332c3.229.81 6.07 4.84 5.247 7.436-.331 1.044-1.732 2.415-3.122 3.049-3.372 1.536-3.739 1.492-6.8-.915-3.24-2.549-3.308-4.046-.313-7.528 1.858-2.16 2.866-2.574 4.988-2.042m91.118 1.044c2.422-.72 5.263-.407 6.918 1.423 2.362 2.61 2.084 6.757-.572 8.618-1.223.856-3.044 1.552-4.046 1.552-2.387 0-6.734-4.388-6.734-6.799 0-2.321 2.011-4.074 4.434-4.794m-183.15 7.602c4.56.159 8.617 5.092 4.766 8.942-2.603 2.604-6.469 2.63-9.043.056-2.491-2.492-2.558-5.197-.176-7.353 1.356-1.227 2.933-1.697 4.453-1.645m260.254 5.995c1.766 0 1.941 3.121.268 4.795-1.456 1.455-2.483 1.525-3.289.221-.873-1.413 1.296-5.016 3.021-5.016M1425.974 293c1.376 1.224 1.928 3.409.702 5.7-1.73 3.234-4.92 2.683-6.558-1.127-1.238-2.88-1.21-3.392.24-4.5 2.044-1.561 4.24-1.297 5.616-.073m164.12 3.824c.756 0 2.418 1.297 3.696 2.882 3.008 3.734 12.128 11.06 17.837 14.328 7.964 4.558 14.694 6.248 24.987 6.262 15.045.021 22.895-3.606 35.472-16.396 3.282-3.338 6.304-6.069 6.724-6.069s1.879 2.186 3.234 4.859c3.386 6.683 11.948 15.786 17.477 18.586 10.786 5.462 20.14 6.727 30.095 4.055 6.795-1.824 8-1.86 8-.194 0 2.22-5.291 6.447-9.506 7.593-9.46 2.572-25.29.053-35.86-5.7-2.676-1.456-7.458-5.47-10.622-8.923-3.165-3.453-6.09-6.281-6.503-6.281s-2.372 1.432-4.36 3.177c-4.505 3.956-17.91 10.254-24.95 11.723-16.855 3.515-36.43-1.73-51.074-13.672-2.98-2.43-4.766-3.267-5.616-2.642-.686.505-4.24 3.436-7.889 6.513s-8.893 6.818-11.658 8.323c-18.17 9.89-44.329 8.554-61.253-3.132l-3.796-2.623-6.392 7.011c-7.942 8.701-17.043 13.828-27.14 15.288-3.785.547-8.234.966-9.884.933-6.07-.12-15.83-2.856-18.253-5.118-2.784-2.597-6.448-9.237-5.58-10.105.318-.318 3.228.762 6.476 2.401 15.693 7.922 29.486 7.506 43.212-1.302 5.579-3.58 13.644-13.808 13.644-17.302 0-3.066.98-5.468 2.226-5.468.555 0 3.635 2.432 6.845 5.404 9.472 8.77 21.895 13.6 34.89 13.579 15.155-.026 31.671-9.193 40.487-22.475 2.013-3.032 4.279-5.515 5.035-5.515m286.369 15.63 6.762 5.94c3.72 3.265 10.168 9.139 14.327 13.061l7.565 7.14.203 73.364c.46 162.885.347 328.975-.221 329.895-1.402 2.267-12.176.072-14.65-2.984-1.943-2.399-3.78-8.293-6.864-22.04-4.136-18.435-3.71-63.437.794-83.783 1.367-6.173 1.71-12.825 1.7-33.218-.009-27.35-.862-34.07-6.928-54.5-4.985-16.79-5.844-23.687-5.229-42.003.353-10.492 1.317-20.829 2.522-27 4.66-23.867 6.17-46.936 4.988-76.496-.384-9.625-.784-21.776-.886-27-.103-5.226-.386-10.29-.629-11.252-.574-2.284-3.01-2.255-3.74.047-.315.989-.524 17.075-.462 35.748.13 40.025-.908 54.84-5.238 74.453-3.07 13.909-3.201 15.424-3.224 37.005l-.028 22.493 4.61 18.004c2.533 9.9 5.142 21.96 5.8 26.798 1.842 13.518 1.74 32.617-.24 45.697-5.009 33.12-7.237 73.424-4.821 87.09.526 2.98 1.701 9.563 2.614 14.632 1.752 9.727 1.356 15.71-1.109 16.655-.815.313-3.618.175-6.226-.305s-8-1.184-11.99-1.57-7.567-1.201-7.944-1.81c-.376-.61-.784-60.078-.905-132.15s-.283-160.51-.36-196.535-.119-66.35-.093-67.387c.055-2.16 21.894-23.614 26.724-26.252zm-248.846 41.448c38.052.946 54.468 2.044 76.864 5.136 14.874 2.054 16.433 2.459 17.19 4.452.864 2.27.151 9.34-.941 9.34-.34 0-3.065-.931-6.06-2.07-6.189-2.352-16.204-2.31-26.327.111-4.807 1.15-6.317 1.154-9.006.056-6.007-2.455-7.2-2.066-7.445 2.401-.121 2.2-.75 9.642-1.395 16.544-1.296 13.866-1.34 13.42 4.683 41.458 5.247 24.423 5.173 23.976 4.379 26.077-.81 2.145-4.05 5.273-8.194 7.907l-2.753 1.746-.646-3.233c-.498-2.49-1.471-3.566-4.25-4.73-3.554-1.488-3.727-1.446-12.618 3.113-9.896 5.076-13.466 5.636-16.488 2.615-3.726-3.726-1.674-11.303 3.962-14.632 3.564-2.106 4.397-3.83 2.578-5.34-3.44-2.854-11.592 3.081-13.644 9.93-2.498 8.337 2.273 16.844 10.623 18.946 3.926.989 5.779.803 14.198-1.385 10.506-2.731 12.908-2.324 10.337 1.755-4.183 6.636-4.555 7.62-3.326 8.85.948.948 2.397-.016 6.66-4.453 2.995-3.117 6.119-5.672 6.947-5.672s4.061-2.335 7.186-5.191l5.681-5.192-.47-6.558c-.26-3.606-1.293-10.254-2.3-14.77-1.009-4.518-1.585-8.467-1.276-8.776.31-.31 3.236.952 6.504 2.799 8.218 4.645 11.955 5.865 13.227 4.332 1.441-1.736.328-2.965-5.884-6.512-3.025-1.728-7.072-4.527-8.997-6.217l-3.5-3.067 3.999.628c11.59 1.817 15.084 1.746 22.853-.434 4.303-1.207 8.117-1.896 8.48-1.533 1.176 1.175.7 50.595-.619 64.209-2.534 26.162-11.54 44.38-28.96 58.546-6.556 5.333-16.367 10.743-19.48 10.743-2.484 0-9.1 3.068-10.457 4.85-.69.905-2.434 4.681-3.87 8.387-1.438 3.707-5.082 11.454-8.093 17.219-6.238 11.945-10.96 16.755-18.743 19.066-16.065 4.77-31.492-5.626-35.61-23.999-1.406-6.277.665-13.966 7.04-26.114 2.724-5.192 4.96-10.058 4.96-10.808 0-1.897-2.467-3.745-4.139-3.103-.764.293-4.28 6.62-7.814 14.059-3.535 7.44-7.93 15.27-9.755 17.403-6.376 7.45-17.426 9.422-27.343 4.877-11.661-5.344-18.955-15.613-18.955-26.686 0-6.67 2.214-12.417 14.004-36.414 3.398-6.915 6.023-13.403 5.829-14.41-.606-3.148-4.157-2.169-6.07 1.672-.958 1.925-5.14 10.468-9.292 18.992-8.028 16.485-12.135 21.933-18.964 25.107-7.385 3.431-17.99 1.505-24.35-4.416-2.314-2.154-8.157-12.652-8.157-14.66 0-2.26 3.203-.83 4.804 2.144 2.507 4.658 8.123 10.741 11.556 12.516 3.739 1.934 10.889 1.254 16.405-1.56 6.428-3.28 10.054-9.169 20.757-33.708 5.435-12.461 6.332-15.771 4.572-16.858-1.972-1.219-3.721.789-6.595 7.602-1.65 3.912-6.006 13.27-9.681 20.793-5.487 11.235-7.368 14.156-10.55 16.36-7.396 5.126-15.757 2.827-20.765-5.718-2.462-4.202-2.644-6.596-.499-6.596.488 0 2.888 2.117 5.33 4.702 3.64 3.851 5.07 4.693 7.926 4.693 7.346 0 11.751-5.99 21.976-29.892 6.633-15.508 7.782-19.899 5.45-20.794-2.366-.907-3.85 1.652-11.704 20.175-8.893 20.972-13.473 26.734-18.586 23.352-1.336-.884-4.397-6.67-4.397-8.314 0-1.318 10.134-14.124 10.716-13.542.205.206-.814 3.36-2.273 7.002-2.72 6.794-2.7 9.616.074 9.616 1.422 0 6.566-9.8 10.235-19.5.625-1.65 3.199-8.295 5.718-14.77 4.617-11.865 4.858-14.787 1.33-15.963-.933-.31-.814-1.821.5-6.336 7.88-27.09 10.295-37.317 19.546-82.897l4.655-22.964 3.501-.794c7.697-1.728 37.21-2.465 68.006-1.7m-82.342 2.928h4.59l-.655 3.243c-.361 1.787-1.08 6.18-1.598 9.754-1.298 8.97-6.296 33.882-9.93 49.503-11.164 47.981-21.147 72.81-36.1 89.797-3.705 4.209-5.967 5.772-5.967 4.12 0-.32 1.48-3.136 3.288-6.254 9.098-15.677 18.333-41.426 28.571-79.663 3.094-11.554 7.775-36.025 9.663-50.5.896-6.876 2.067-14.187 2.595-16.25.936-3.648 1.08-3.75 5.543-3.75m-19.159 2.494h3.502c3.119 0 3.473.276 3.297 2.504-1.47 18.637-1.48 18.717-5.902 42.002-2.294 12.079-11.613 46.679-15.76 58.5-11.95 34.072-21.196 52.376-31.933 63.249-10.33 10.461-11.682 9.77-3.843-1.968 13.759-20.599 28.68-59.052 38.982-100.429 5.485-22.032 8.76-38.808 10.512-53.946zm-12.091 1.266c1.497-1.012 5.358-.953 6.004.092.875 1.415-5.398 39.685-8.84 53.947-14.972 62.026-40.829 118.011-58.787 127.282-2.04 1.053-3.952 1.912-4.249 1.912-1.558 0 .074-2.995 5.764-10.577 15.035-20.033 30.402-53.052 41.846-89.917 4.967-16.003 11.856-46.965 14.9-66.999 1.253-8.25 2.764-15.336 3.362-15.74m-12.646 2.125c2.891-1.07 5.237-.145 5.237 2.069 0 1.795-3.291 23.628-4.905 32.543-1.348 7.448-5.788 26.037-8.12 34.003-1.126 3.85-2.906 9.92-3.953 13.496-1.736 5.931-3.77 11.203-14.346 37.097-5.604 13.723-16.416 34.65-22.945 44.404-7.224 10.793-10.667 14.934-16 19.25-2.436 1.974-5.136 3.252-6.872 3.252-3.615 0-3.795-2.343-.351-4.6 5.6-3.67 17.612-20.713 25.089-35.6 19.87-39.565 37.902-95.93 43.73-136.696 1.03-7.205 1.515-8.508 3.436-9.218m-9.662 2.447c.914.509 1.255 1.56 1.08 3.187-.782 7.3-6.378 35.278-8.738 43.702-21.014 74.985-50.301 130.812-72.061 137.36-2.587.779-4.968 1.367-5.293 1.303-4.926-.967-5.302-2.143-1.22-3.834 14.06-5.823 34.776-36.867 50.418-75.552 14-34.623 22.965-66.134 27.805-97.769 1.035-6.766 1.476-7.833 3.464-8.332 2.136-.536 3.63-.573 4.544-.065m-12.785 1.386-.619 6.392c-.625 6.494-5.315 27.451-10.605 47.388-2.531 9.542-6.279 20.169-16.636 47.166-6.31 16.448-21.792 45.983-29.005 55.332-6.707 8.692-12.494 14.405-18.697 18.447-5.1 3.324-6.62 3.788-13.505 4.185-7.455.429-11.251-.472-11.251-2.68 0-.522 1.007-.961 2.245-.97 2.85-.018 12.326-3.04 16.257-5.19 3.749-2.05 14.025-12.657 18.688-19.288 8.033-11.426 16.309-27.231 23.315-44.506 2.342-5.775 4.747-11.622 5.339-12.997 8.143-18.903 18.72-55.093 23.066-78.943 1.147-6.295 2.421-11.775 2.836-12.174.414-.4 2.515-1.046 4.665-1.441zm120.225.554c-12.637.552-18.06 1.917-28.35 7.132-5.995 3.037-13.191 9.156-13.191 11.214 0 1.514 4.007 1.9 5.542.535 1.637-1.454 12.693-5.031 18.89-6.115 8.947-1.564 18.299-1.264 32.886 1.063 7.25 1.156 16.728 2.163 21.07 2.244l7.898.148 1.404 4.822c1.052 3.608 1.83 4.722 3.104 4.47 1.4-.275 1.713-1.565 1.764-7.306.035-3.838.436-8.96.897-11.371l.84-4.379-3.4.72c-9.19 1.958-15.661 1.715-26.492-.997-9.705-2.43-12.051-2.652-22.862-2.18m-139.291 3.187c4.436-.815 4.38-1.087 2.208 10.679-8.377 45.374-33.342 108.49-53.596 135.512-6.396 8.534-13.938 15.31-19.195 17.255-3.708 1.372-12.034 1.963-15.038 1.063-14.618-4.379-20.074-22.833-10.041-33.938 8.55-9.465 22.566-6.692 26.372 5.219 2.514 7.866-4.567 14.954-11.592 11.602-3.71-1.77-4.498-6.382-1.45-8.517 1.141-.8 2.078-2.341 2.078-3.427 0-4.474-7.106-3.535-9.589 1.265-3.973 7.683 1.59 16.949 11.03 18.364 6.895 1.034 12.21-2.621 21.153-14.567 20.802-27.787 43.001-84.309 50.824-129.406.852-4.913 1.896-9.265 2.319-9.672s2.455-1.053 4.517-1.432m251.063 10.503c7.326 1.844 10.688 3.743 10.688 6.06 0 2.455-.332 2.451-7.594-.102-8.85-3.111-18.497-2.946-25.125.425-2.867 1.458-6.764 4.012-8.665 5.681-3.94 3.46-4.998 2.752-4.11-2.762 1.429-8.885.943-8.35 6.983-7.64 3.662.431 8.268.05 14.05-1.163 7.485-1.57 9.265-1.633 13.773-.499m-108.355 3.04c-12.787 2.318-22.927 7.133-36.192 17.19-7.888 5.981-10.322 8.912-9.403 11.307.907 2.364 6.979 4.529 12.165 4.332 3.683-.14 6.781.616 11.972 2.919 15.05 6.676 27.69 8.691 35.961 5.745 2.179-.776 4.116-1.25 4.305-1.062.532.532-7.64 6.923-14.023 10.974-5.343 3.391-6.725 5.274-5.08 6.919 1.25 1.25 2.874.674 10.401-3.732 4.14-2.423 10.995-7.644 15.223-11.593 6.39-5.967 7.94-8.045 9.21-12.322 1.452-4.89 1.434-5.28-.48-7.87-2.54-3.437-2.542-3.448.6-7.982 3.41-4.921 2.664-7.162-2.078-6.272-3.023.567-4.03.178-7.649-2.919-5.816-4.978-15.936-7.266-24.932-5.635m100.023 5.052c3.507-.112 7.081.64 11.02 2.235 5.773 2.339 7.656 5.446 2.993 4.933-14.062-1.547-19.024-1.41-25.67.712-3.757 1.199-7.499 2.443-8.324 2.761-3.894 1.502 4.087-5.083 9.349-7.713 3.681-1.84 7.124-2.816 10.632-2.928m-91.533.185c4.417.387 8.582 1.35 10.512 2.725 3.673 2.616 4.178 5.603.785 4.619-1.238-.36-5.496-.932-9.469-1.266-8.802-.74-16.874.793-27.776 5.265-4.4 1.805-9.688 3.99-11.75 4.86-4.328 1.823-4.935.63-1.173-2.329 3.1-2.438 21.331-11.358 26.834-13.126 2.947-.947 7.62-1.135 12.036-.748m106.617 19.214c1.634-1.01 2.24.185 1.534 3.002-.352 1.4-1.086 2.54-1.626 2.54-1.326 0-1.247-4.715.092-5.542m-100.308.341c.692 2.036-1.774 7.072-4.527 9.238-1.374 1.081-3.679 1.945-5.117 1.921-2.459-.041-2.389-.167 1.127-2.023 2.369-1.25 4.528-3.517 5.902-6.198 1.193-2.328 2.371-3.653 2.615-2.938m7.094.204c1.461 0 3.376 2.825 2.679 3.953-1.068 1.729-4.359 3.138-4.98 2.134-.732-1.186 1.12-6.087 2.3-6.087m86.148 0c.733-1.135.967-.687.979 1.829.01 2.356-.83 4.173-2.9 6.244-2.22 2.22-3.854 2.928-6.78 2.928-4.483 0-8.305-2.298-8.305-4.997-.616-1.21-1.028-2.813-1.996-4.065 0-.517.448-.942.998-.942s.998.59.998 1.312c0 1.716 4.911 6.29 7.639 7.113 2.513.757 8.354-3.611 8.378-6.263.009-.914.456-2.334.989-3.16m-120.465 2.42c1.282.675 2.227 2.104 2.91 4.332.904 2.95-1.714 3.002-6.198.13-3.61-2.313-4.02-3.373-1.663-4.278 2.052-.787 3.669-.86 4.951-.184m93.445.59c2.248-1.202 5.016 1.032 5.016 4.056 0 2.367-2.687 2.535-5.792.36-2.401-1.682-2.204-2.82.776-4.415m42.945 22.54c1.985 2.043 10.868 20.511 11.371 23.639 3.76 23.353 4.473 33.666 2.836 41.226-.724 3.346-2.593 4.431-3.51 2.041-.343-.893-.628-7.642-.628-15.001 0-15.327-1.817-24.936-7.482-39.434-3.363-8.607-4.594-14.536-2.587-12.47m-1.062 23.103c.64-1.627.887-1.51 2.041.997 1.632 3.548 4.082 18.28 4.092 24.544.006 7.456-2.166 7.23-5.394-.563-1.679-4.051-2.19-21.294-.74-24.978m-123.735 12.304c-2.565.62-5.07 2.066-7.473 4.332-9.444 8.907-5.795 23.353 6.845 27.094 7.613 2.253 12.725 1.788 20.996-1.913 10.792-4.828 19.41-7.371 25.218-7.436 3.629-.04 5.284-2.179 5.284-6.817 0-4.342-3.11-6.61-8.932-6.521-4.868.073-11.145 2.732-27.907 11.851-9.9 5.386-16.957 4.645-19.158-2.023-1.497-4.537-.565-7.21 3.335-9.588 3.632-2.215 6.484-2.434 10.142-.767 3.25 1.481 5.03-.006 4.157-3.482-.422-1.685-1.91-2.976-4.701-4.093-2.625-1.05-5.241-1.257-7.806-.637m103.496.628c-7.176-1.346-9.113 2.433-2.587 5.044 6.99 2.796 8.513 10.004 2.744 12.988-4.513 2.333-9.884 1.105-19.787-4.527-10.341-5.881-12.915-6.565-17.486-4.655-3.09 1.29-3.51 1.895-3.51 5.062 0 4.574 3.646 8.498 7.888 8.498 1.64 0 4.253.52 5.801 1.146s6.632 2.172 11.307 3.445c10.062 2.74 9.453 2.685 14.503 1.312 10.995-2.99 14.919-15.8 7.445-24.313-1.792-2.04-4.284-3.618-6.318-4m19.038 20.415c1.111 0 11.705 21.865 14.42 29.753 2.442 7.1 3.51 20.432 2.06 25.745-1.269 4.64-6.152 10.946-9.986 12.895-5.567 2.831-9.154 2.83-9.154-.009 0-.799 1.944-2.287 4.323-3.307 6.544-2.805 10.912-10.126 10.964-18.364.048-7.528-1.99-14.839-8-28.7-4.467-10.307-6.445-18.013-4.627-18.013m-55.369 6.143c-1.673.023-3.223.68-5.838 1.986-3.985 1.99-4.404 2.02-6.577.498-3.162-2.214-9.323-2.04-17.514.49-5.525 1.706-7.658 1.921-11.048 1.146-2.31-.529-4.647-.675-5.2-.333-.885.547-1.584 2.728-3.797 11.805-.3 1.229-.287 2.903.027 3.723.476 1.24 1.457 1.029 5.839-1.238 4.96-2.566 5.896-2.705 16.285-2.383 20.595.638 25.02.576 31.25-.462 4.887-.814 7.037-.736 10.004.36 8.125 3.003 7.65 3.198 6.864-2.826-1.3-9.96-1.426-10.2-5.312-9.57-2.231.362-5.205-.124-8.406-1.386-3.108-1.225-4.904-1.834-6.577-1.81m-106.877 9.19c-2.402-.92-3.641.971-10.946 16.665-9.64 20.712-11.336 28.597-7.916 36.783 2.611 6.252 9.935 12.863 15.805 14.263 9.869 2.354 16.598-.577 23.084-10.069 5.853-8.566 12.554-22.086 12.554-25.329 0-2.741-2.47-4.216-3.963-2.365-.54.67-3.809 6.802-7.26 13.626-7.573 14.969-11.27 18.642-18.623 18.511-8.955-.16-16.088-5.998-17.625-14.42-.906-4.964 2.423-14.973 10.078-30.28 6.625-13.245 7.487-16.358 4.812-17.384m159.502 1.58c.572.341 1.403 1.544 2.494 3.834 8.626 18.087 9.558 30.208 2.809 36.441-5.9 5.449-9.585 3.837-4.12-1.8 2.983-3.078 3.377-4.139 3.713-10.162.32-5.715-.096-7.896-2.725-14.503-3.235-8.13-3.886-14.832-2.17-13.81m-152.87 7.086c-2.232 0-3.984 3.037-11.509 20.008-2.5 5.638-4.545 11.752-4.545 13.588 0 4.45 2.603 9.68 5.857 11.768 3.757 2.411 9.593 1.525 13.394-2.032 3.529-3.303 13.986-24.721 13.551-27.758-.203-1.424-1.036-2.07-2.65-2.07-2.022 0-3.052 1.533-7.354 10.993-2.75 6.05-5.949 12.04-7.113 13.302-2.846 3.089-6.738 2.59-8.489-1.08-1.654-3.468-.938-5.87 6.577-21.921 5.517-11.783 5.987-14.798 2.282-14.798m70.584.97c-1.694 1.693.308 3.975 6.3 7.177 7.354 3.93 16.543 4.026 23.666.259 5.845-3.092 8.397-5.233 8.397-7.058 0-1.964-2.75-1.65-7.935.905-6.55 3.228-18.752 3.193-24.95-.064-3.16-1.66-4.698-2-5.478-1.22m77.178 5.172c.93.149 1.872 1.24 2.716 3.261 2.503 5.992 2.902 11.284 1.071 14.078-2.297 3.506-3.401 3.172-5.625-1.727-2.206-4.859-2.493-9.524-.813-13.21.801-1.758 1.722-2.55 2.651-2.402m-8.452 17.856c2.322 0 7.327 18.62 9.173 34.132 1.113 9.363-4.322 18.94-13.034 22.974-4.682 2.167-12.707 2.395-16.997.48-1.65-.736-4.261-2.685-5.801-4.323-2.965-3.154-8.97-17.998-10.18-25.163-.681-4.034-.604-4.25 1.534-3.935 1.91.281 2.59 1.582 4.397 8.342 4.754 17.794 13.761 24.213 25.578 18.243 10.66-5.385 12.078-17.16 5.071-42.214-1.985-7.098-1.946-8.536.259-8.536m-252.07 8c1.783 0 7.304 11.849 17.172 36.875 17.99 45.62 28.33 86.077 34.447 134.755 2.816 22.415 4.713 57.717 3.27 60.884-1.113 2.443-1.176 2.46-14.401 2.226-7.304-.129-18.443-.464-24.757-.739-13.418-.584-12.185.811-14.022-15.944-1.552-14.156-8.088-47.659-12.406-63.59-10.194-37.615-19.88-63.29-35.832-94.97-8.167-16.218-13.777-25.669-29.43-49.632-4.77-7.302-4.98-7.86-2.928-7.86 3.38 0 9.446 4.478 12.637 9.338 29.998 45.69 51.429 94.634 64.864 148.159 4.118 16.402 9.397 43.922 10.651 55.498.388 3.575 1.154 7.063 1.7 7.75 1.583 1.994 27.092 1.74 28.774-.286.975-1.175 1.125-5.016.638-16.249-1.993-45.962-13.402-99.897-31.786-150.209-6.3-17.239-6.85-18.56-15.122-36.377-3.798-8.181-6.54-15.21-6.087-15.61 1.052-.932 10.746-4.02 12.618-4.02m154.865 0c-2.598 0-3.332 1.175-6.891 11.002-5.141 14.191-5.539 15.975-5.007 22.603.823 10.247 6.337 17.518 15.51 20.452 7.541 2.412 17.257-1.504 23.102-9.311 5.772-7.708 15.49-28.024 14.66-30.64-1.219-3.842-4.44-2.562-6.697 2.65-10.164 23.467-13.464 28.299-20.987 30.798-6.617 2.198-11.287.913-16.101-4.416-6.237-6.903-5.822-13.655 1.94-31.906 3.638-8.554 3.748-11.232.47-11.232m89.178 0c1.725 0 6.669 18.184 6.669 24.534 0 6.696-2.365 10.98-7.408 13.422-2.323 1.125-4.65 2.038-5.164 2.023-2.625-.075-6.785-4.033-8.923-8.48-2.94-6.113-5.098-17.303-3.621-18.78 1.153-1.152 1.918.468 4.59 9.672 2.875 9.9 9.33 13.634 14.346 8.295 2.712-2.886 2.746-6.157.176-17.181-2.344-10.052-2.515-13.505-.665-13.505m-354.254 3.769c.64-.146 2.165 2.66 3.38 6.235 2.394 7.034 4.509 8.558 6.328 4.563 2.404-5.276 10.476-4.417 13.524 1.441 2.115 4.065 1.805 11.958-.924 23.186-.91 3.745-1.934 6.764-2.272 6.716s-4.978-2.189-10.31-4.758c-10.522-5.07-15.337-8.915-16.09-12.858-.598-3.122 2.288-6.29 5.727-6.29 5.629 0 4.074-2.892-5.441-10.106l-3.427-2.596 4.166-2.633c2.295-1.449 4.698-2.755 5.339-2.9m275.339.628c-.91-.378-2.053-.183-2.993.757-2.704 2.704-8.78 19.212-9.228 25.08-.418 5.47-.274 5.887 3.085 9.246 2.974 2.975 4.207 3.52 7.98 3.52 6.485 0 8.847-2.425 15.187-15.611 5.82-12.104 6.655-15.744 3.87-16.812-2.281-.876-3.707.89-6.198 7.694-5.218 14.26-8.966 18.735-14.53 17.339-4.982-1.25-4.657-5.49 1.524-19.777 1.587-3.668 2.882-7.613 2.882-8.776 0-1.33-.67-2.282-1.58-2.66m-121.841 1.071c9.758 1.22 15.917 7.553 21.513 22.124 1.672 4.353 3.376 8.254 3.788 8.674s2.223.25 4.027-.379c5.374-1.873 14.096 1.637 14.096 5.672 0 .775-2.13 2.428-4.73 3.676-6.792 3.261-8.492 6.751-8.553 17.56-.027 4.79.141 9.607.37 10.707.301 1.45-.183 2.086-1.746 2.309-4.731.675-12.544-15.369-13.792-28.313-.917-9.513-4.518-16.626-10.392-20.516-5.657-3.747-10.261-3.898-14.743-.48-4.329 3.302-5.239 3.165-7.002-1.053-1.973-4.724-.953-9.768 2.864-14.115 4.587-5.224 8.055-6.646 14.3-5.866m193.781.416c1.573 1.305 4.198 15.24 3.307 17.56-.73 1.905-2.051 1.996-3.5.25-1.168-1.407-4.167-12.038-4.167-14.78 0-2.546 2.69-4.416 4.36-3.03m80.329 4.914.61 8.6c1.179 16.715-2.851 26.604-10.836 26.604-4.708 0-6.333-.846-8.064-4.194-2.012-3.889-3.659-2.55-6.522 5.302-1.18 3.239-2.44 5.894-2.808 5.894-1.114 0-9.071-6.117-9.071-6.974 0-.44 1.24-1.581 2.753-2.54 3.473-2.204 8.248-6.623 8.248-7.63 0-.422-1.987-1.642-4.415-2.716-7.02-3.106-8.126-7.589-3.215-12.988 4.343-4.774 11.993-7.271 26.724-8.711zm-471.347 2.208c1.727 0 7.818 7.123 17.653 20.646 32.932 45.285 60.466 108.745 71.441 164.656 6.362 32.405 6.956 39.33 6.984 80.698.024 35.975-.074 38.144-2.623 53.493-4.146 24.96-5.722 33.312-8.092 42.927-1.21 4.907-2.656 9.029-3.206 9.163-1.353.33-6.494-1.587-6.494-2.42.002-.367 1.131-6.434 2.513-13.487 6.896-35.21 8.586-75.088 4.896-115.68-3.25-35.735-6.643-54.695-14.873-83.016-12.564-43.24-33.683-89.217-55.331-120.483-3.047-4.4-8.601-12.504-12.35-18.004-3.75-5.5-7.546-10.98-8.425-12.184-1.545-2.113-1.456-2.258 2.448-4.249 2.222-1.134 4.679-2.06 5.459-2.06m515.206 10.438c4.884 3.2 4.402 4.117-8.84 16.674-17.023 16.14-35.935 38.282-47.74 55.886-16.427 24.5-29.123 47.378-38.981 70.25-2.908 6.748-4.711 9.736-5.847 9.709-2.124-.052-7.14-2.77-7.14-3.87 0-3.93 18.67-43.11 24.59-51.6 1.147-1.648 2.38-3.81 2.743-4.813.883-2.443 20.145-31.122 24.294-36.174 23.667-28.82 37.84-44.2 49.734-53.946 4.528-3.71 4.685-3.755 7.187-2.116m8.027 7.168c1.718-.659 11.203 4.216 13.431 6.9 1.574 1.897.734 2.952-7.408 9.358-3.355 2.64-6.638 5.114-7.298 5.497-1.936 1.122-3.298-2.745-3.298-9.349 0-6.449 1.804-11.343 4.573-12.406m-527.732 7.39c3.574 0 7.237 4.23 5.589 6.457-3.92 5.298-4.702 7.046-4.702 10.476 0 6.37 3.568 12.286 10.244 16.969 3.254 2.282 7.401 4.798 9.22 5.588 3.045 1.323 3.116 1.43.812 1.45-3.26.03-17.583-5.79-22.022-8.95-7.463-5.315-11.892-11.725-11.944-17.274-.076-8.084 5.692-14.716 12.803-14.716m517.442 4.259c.788.26 1.317 3.269 1.505 8.563l.296 8.156-9.69 10.263c-5.329 5.643-10.245 10.394-10.919 10.559-1.841.449-2.475-2.187-2.475-10.272 0-6.786.23-7.587 3.242-11.168 5.363-6.378 16.74-16.532 18.04-16.101m24.081 4.027c.725.242 1.137 3.262 1.137 8.295v7.917l-3.003.12c-6.747.275-13.495-1.248-13.495-3.048 0-1.798 13.861-13.784 15.361-13.284m-462.405 6.716c.572 0 1.044 1.362 1.044 3.03 0 4.12 2.663 10.244 4.231 9.727.695-.23 1.8-1.49 2.457-2.8.658-1.308 2.19-2.739 3.4-3.186 8.083-2.99 11.041 8.65 7.242 28.479-.922 4.812-2.16 8.729-2.753 8.71-2.38-.072-18.37-9.203-22.826-13.033-3.916-3.368-4.757-4.67-4.757-7.446 0-4.179 2.918-6.484 8.221-6.484 5.162 0 4.872-1.707-1.284-7.464-2.786-2.606-4.921-4.864-4.748-5.016.983-.86 8.898-4.517 9.774-4.517m306.294 1.34c1.141-.706 11.684 1.563 13.43 2.89.865.657.118 2.553-2.752 6.993-2.164 3.348-3.935 6.496-3.935 6.993s-1.288 2.56-2.873 4.591c-1.584 2.03-4.902 7.518-7.371 12.193a1791 1791 0 0 1-8.628 16.092c-15.01 27.583-36.578 90.075-40.635 117.74-1.08 7.362-2.072 11.053-3.215 11.916-1.975 1.491-43.381 1.687-47.027.221-2.921-1.174-2.96-5.493-.204-22.696 6.342-39.587 18.618-84.888 31.232-115.255 2.175-5.235 5.203-12.764 6.725-16.729 4.838-12.6 6.984-15.012 15.75-17.726 3.463-1.073 2.923 1.722-2.836 14.577-9.662 21.564-21.436 55.663-29.301 84.9-3.269 12.15-10.272 46.804-10.873 53.78-.616 7.156.728 7.95 13.58 8.037l9.81.065 1.33-3.215c.726-1.767 1.625-5.238 2.004-7.713 1.854-12.106 9.575-38.582 18.521-63.498 11.593-32.292 18.617-46.888 39.305-81.77 3.84-6.475 7.422-12.053 7.963-12.387m-93.584.175c4.089-.01 5.704.487 7.722 2.383 3.745 3.518 5.117 8.45 3.686 13.228-1.35 4.504-3.278 4.94-8.304 1.875-1.875-1.143-5.04-1.993-7.409-1.995-3.057-.003-5.414.868-9.006 3.335-8.152 5.596-9.48 3.14-3.797-7.02 4.602-8.23 9.761-11.789 17.108-11.806m-37.91 5.782c3.863.816 7.489 3.176 9.412 6.762 2.236 4.17 2.374 11.184.277 14.383-2.076 3.169-.385 4.095 3.659 2.004 7.839-4.053 18.89 2.082 18.89 10.485 0 6.48-2.244 10.638-7.067 13.098-4.13 2.107-7.177 2.214-12.72.444-2.269-.725-2.289-.667-1.635 5.718.746 7.273-.608 11.11-5.19 14.715-3.398 2.672-10.531 2.714-15.492.092-4.592-2.426-6.457-6.778-6.161-14.364l.221-5.856-4.507.674c-5.946.891-10.613-.748-14.392-5.053-4.804-5.471-3.665-14.417 2.457-19.232 3.107-2.444 9.741-2.924 13.948-1.007 3.384 1.542 4 .684 2.827-3.935-1.409-5.551.656-12.894 4.628-16.443 2.879-2.572 6.981-3.3 10.844-2.485m179.279.702c1.274 0 2.029 1.922 3.307 8.425 2.903 14.779 1.839 21.927-3.954 26.484-3.582 2.817-7.98 2.2-11.03-1.543-1.176-1.444-2.56-2.36-3.075-2.042-.517.32-2.025 3.754-3.344 7.63-1.32 3.877-2.632 7.027-2.92 7.002-1.645-.139-8.027-4.178-8.027-5.08 0-.59 2.275-3.119 5.053-5.616 6.11-5.494 6.516-8.742 1.09-8.794-2.29-.023-3.973-.772-5.256-2.356-5.576-6.887 1.379-14.942 18.198-21.08 4.569-1.667 9.049-3.03 9.958-3.03m-450.655 1.996c1.092 0 9.217 9.946 8.452 10.346-.183.095-2.59.982-5.34 1.976-8.193 2.962-8.498 3.015-8.498 1.488 0-2.943 4.24-13.81 5.386-13.81m536.119 2.836 8.914.674c9.437.71 13.588 1.769 13.588 3.482 0 .574-4.168 5.082-9.256 10.014l-9.246 8.97-7.002-.13c-9.19-.167-14.752-1.07-15.214-2.476-.431-1.31 4.935-7.734 12.775-15.288zm-28.94 3.63c.787-.397 1.205.045 1.93.98 1.024 1.319 1.505 4.255 1.505 9.172 0 6.635-.27 7.587-3.288 11.556-1.81 2.38-4.73 6.435-6.494 9.006s-3.919 5.378-4.785 6.245c-.866.866-1.977 1.58-2.466 1.58-1.059 0-2.614-5.553-3.51-12.508-.62-4.805-.461-5.254 3.88-11.002 2.488-3.295 6.578-8.242 9.089-10.992 2.196-2.405 3.35-3.64 4.138-4.037m51.553 7.538c1.635 0 1.884.794 1.884 6.05 0 6.948-1.34 10.033-6.503 14.946-7.842 7.464-24.465 28.664-35.684 45.504-6.424 9.643-21.551 38.353-27 51.249-1.909 4.514-3.156 6.235-4.48 6.189-2.488-.087-8.136-2.978-8.702-4.453-.886-2.308 14.621-34.478 25.098-52.071 8.008-13.449 18.658-28.495 28.23-39.878 11.952-14.214 25.089-27.536 27.157-27.536m-551.924 4.406c7.305-1.49 8.191-1.468 18.41.563 11.027 2.193 14.4 3.38 14.4 5.062 0 1.37-3.074 1.202-11.038-.61-6.267-1.425-7.433-1.424-12.24-.027-12.686 3.688-15.581 15.652-5.782 23.897 3.47 2.92 6.714 4.02 16.812 5.69 3.987.66 7.251 1.606 7.251 2.106s-.568.837-1.256.749c-.687-.088-5.975-.458-11.75-.832-16.415-1.063-24.504-4.232-28.876-11.306-4.058-6.567-2.088-17.391 3.99-21.93 1.325-.988 5.858-2.501 10.079-3.362m259.302 3.288c-1.824.527-3.48 1.689-4.997 3.492-4.42 5.252-2.77 12.646 3.39 15.205 1.987.825 3.716 1.533 3.843 1.56.126.03 2.006-.665 4.175-1.532 8.888-3.557 8.636-15.432-.388-18.41-2.208-.73-4.199-.84-6.023-.315m-218.03 1.303c.656 0 2.602 2.816 4.323 6.254 2.851 5.693 3.044 6.643 2.125 10.696-.555 2.448-1.064 11.447-1.127 20-.092 12.58.293 17.328 2.014 24.839 5.15 22.481 16.083 42.442 32.525 59.415 5.416 5.592 6.676 7.566 7.593 11.842.605 2.82.847 5.537.535 6.041-1.177 1.905-3.283.689-11.99-6.91-17.61-15.368-29.164-33.025-36.423-55.673-4.475-13.965-6.038-23.993-6.004-38.502.045-19.215 3.221-38.002 6.43-38.002m222.067 1.367c4.621 1.06 7.715 7.397 3.473 11.64-1.99 1.988-6.5 2.63-8.6 1.228-3.948-2.637-3.832-9.248.213-11.898 1.667-1.092 3.373-1.323 4.914-.97m252.55 6.235c11.611.8 12.82 1.791 8.194 6.716-1.646 1.751-4.859 5.759-7.141 8.905s-5.02 6.185-6.078 6.752-5.214.978-9.237.915c-7.76-.123-10.798-.593-12.148-1.866-.903-.853 12.364-19.901 14.817-21.274.827-.463 6.04-.53 11.593-.148m-635.43 1.598c2.604-.373 16.055 8.588 33.384 22.253 41.593 32.8 79.798 84.73 99.616 135.392 12.584 32.173 18.793 59.494 20.996 92.411.619 9.238.554 9.746-1.302 9.746-4.363 0-5.09-1.875-5.792-15.002-3.165-59.071-31.477-125.358-75.682-177.2-18.855-22.113-53.74-52.676-70.832-62.048-3.61-1.979-3.827-5.06-.388-5.552m597.455 2.8c1.375 0 2.75 4.177 3.695 11.269.919 6.891.232 8.8-7.565 21.163-2.056 3.26-4.295 6.105-4.98 6.327-1.585.517-2.998-3.222-4.48-11.86l-1.173-6.845 6.78-10.023c3.73-5.514 7.205-10.032 7.723-10.032m-365.67 7.167c.144.184.755 3.404 1.357 7.16 1.536 9.574 3.918 12.154 6.41 6.927 2.002-4.197 6.892-4.314 10.947-.258l3.122 3.122-.563 8.692c-.36 5.523-1.485 11.247-3.085 15.695-1.386 3.85-3.11 7.1-3.825 7.233-1.853.341-16.933-9.928-20.091-13.681-1.457-1.732-3.18-4.907-3.824-7.057-1-3.335-.916-4.293.563-6.55 1.376-2.1 2.34-2.558 4.665-2.217 4.617.678 5.295-1.32 2.088-6.096-1.538-2.29-3.786-4.86-4.998-5.709s-2.198-1.99-2.198-2.54c0-.959 8.888-5.407 9.431-4.72m-240.542 2.8c-1.11.142-1.894 1.107-1.894 2.835 0 2.282.64 3.032 3.445 4.046 1.893.684 4.844 2.555 6.559 4.157 2.64 2.466 2.949 3.221 2.023 4.951-1.278 2.388-3.73 2.587-6.466.518-3.263-2.469-5.561-1.881-5.561 1.431 0 2.266.39 2.813 1.755 2.476.963-.238 3.322.422 5.247 1.469s3.986 1.965 4.582 2.032c1.57.178 7.417-7.424 7.417-9.644 0-2.103-2.75-4.863-8-8.018-1.924-1.157-4.28-3.025-5.237-4.157-1.318-1.558-2.76-2.24-3.87-2.097m110.857 6.05c.413.01 2.735 1.362 5.155 3.002s4.78 2.984 5.247 2.984c1.853 0 .707 2.91-1.404 3.565-1.238.384-3.446 1.54-4.905 2.568-4.308 3.033-4.84 2.459-4.84-5.136 0-3.85.335-6.993.747-6.983m256.412 1.33c1.399-.717 2.553-.633 3.159.406.24.413-.184 4.32-.942 8.684-1.318 7.581-1.284 8.132.776 12.387 1.185 2.449 3.436 5.172 4.997 6.06q5.322 3.029.212 7.048c-5.44 4.28-15.087 1.357-17.92-5.423-2.885-6.904-.883-16.685 5.071-24.756 1.602-2.171 3.248-3.689 4.647-4.406m45.78.84c.757-.723 2.244.414 4.804 3.067 3.937 4.082 8.236 13.216 8.249 17.533.014 4.988-2.508 9.95-6.19 12.193-3.138 1.914-10.392 2.63-13.578 1.349-1.749-.704-4.23-5.728-3.4-6.882.373-.517 2.027-1.63 3.677-2.466 5.086-2.578 6.72-7.142 6.004-16.73-.355-4.76-.323-7.34.434-8.063m124.779 4c1.304.251 1.96 1.672 2.448 5.33.365 2.743 1.369 7.236 2.235 9.986s1.579 7.332 1.589 10.189c.02 9.52-6.969 13.668-14.124 8.378-1.694-1.253-3.446-1.894-3.917-1.422-.47.469-.99 4.196-1.154 8.276-.165 4.08-.744 7.495-1.294 7.593-1.97.354-10.503-2.895-10.503-4 0-.62 1.54-2.622 3.428-4.452 4.428-4.292 6.471-8.89 4.489-10.115-.77-.476-2.398-.619-3.612-.314-2.697.677-7.307-3.513-7.307-6.642 0-3.026 2.335-7.033 6.162-10.576 4.595-4.256 19.389-12.648 21.56-12.23m84.272 1.986c7.506-.301 10.443-.08 11.011.841.477.771-1.09 4.19-4.073 8.868-7.408 11.615-7.091 11.302-12.47 12.184-2.73.448-7.544.845-10.707.878-5.172.053-5.755-.147-5.755-2.014 0-2.11 6.256-13.55 9.81-17.94 1.786-2.204 2.824-2.44 12.184-2.817m-480.685 2.07c7.697-.34 12.042-.129 13.542.674 3.556 1.903 1.506 3.085-5.367 3.085-6.895 0-15.473 2.631-19.88 6.097-1.406 1.107-3.068 3.722-3.694 5.81-.968 3.231-.843 4.46.84 8.268 3.044 6.88 6.89 8.346 21.505 8.23 6.463-.05 11.75.257 11.75.684 0 .976-1.495 1.412-12.008 3.5-14.53 2.887-22.191 2.542-29.55-1.311-4.945-2.589-6.548-5.781-7.197-14.355-.476-6.292-.353-6.73 2.716-10.226 1.764-2.009 6.085-5.074 9.607-6.808 5.73-2.82 7.595-3.2 17.736-3.648m444.697 5.496c1.702-1.07 2.808.702 4.166 4.766 2.981 8.928 2.465 11.959-4.305 25.357-3.373 6.676-6.718 12.138-7.436 12.138-.772 0-2.402-3.578-3.981-8.748l-2.67-8.748 6.457-12.498c3.765-7.284 6.066-11.197 7.769-12.267m29.384 21.08c.707 1.145-8.574 20.56-10.355 21.661-.565.349-4.744 1.725-9.284 3.058-9.268 2.72-12.743 3.047-12.757 1.21-.005-.688 2.307-6.264 5.136-12.397 3.802-8.24 5.803-11.455 7.686-12.313 3.639-1.658 18.722-2.598 19.574-1.22m-452.392 13.052c0 .476-2.583 1.82-5.746 2.993-13.157 4.877-19.75 11.108-19.75 18.66 0 12.51 14.101 17.065 29.92 9.662 3.594-1.682 6.773-2.679 7.058-2.217.639 1.033-13.38 10.006-19.306 12.36-9.041 3.59-20.027 2.836-25.07-1.728-3.34-3.022-6.42-11.104-5.7-14.946.971-5.177 6.424-12.699 11.806-16.295 8.657-5.786 26.788-11.532 26.788-8.489m405.91.628c1.689 0 7.337 15.696 6.465 17.967-.82 2.137-3.073 1.852-8.71-1.081-4.353-2.265-4.784-2.779-4.194-5.127 1.203-4.794 5.02-11.759 6.438-11.759m-451.653.868c.687.294 3.83 1.312 6.992 2.254s5.734 1.969 5.709 2.291c-.025.323-2.26 3.021-4.97 5.995-3.374 3.705-5.09 4.965-5.44 4-3.863-10.611-4.637-15.543-2.291-14.54m139.216 2.051c5.052-1.268 9.045-1 8.683.582-.598 2.618-.895 13.451-.406 14.752.638 1.699 2.735 1.576 4.249-.25 1.574-1.896 7.014-1.944 9.56-.082 1.578 1.153 1.94 2.645 1.94 7.925 0 5.876-.492 7.435-5.108 16.277-2.809 5.38-5.504 9.898-5.995 10.04-.94.274-8.604-5.641-14.235-10.992-4.168-3.96-7.478-10.26-7.371-14.031.13-4.576 3.767-7.678 8.637-7.381 3.816.233 4.057.086 3.778-2.254-.164-1.375-1.618-5.086-3.233-8.24l-2.937-5.736zm343.714 13.367c.564.564-.177 3.208-1.903 6.808-1.552 3.237-3.49 5.98-4.305 6.087-2.149.284-13.477-5.455-13.477-6.826 0-1.573 18.483-7.271 19.685-6.07m-87.192.221c1.733 0 8.98 16.9 9.635 22.466.713 6.064-.732 10.986-3.695 12.572-2.608 1.395-6.173 1.173-8.6-.527-3.405-2.385-4.606.095-4.185 8.628.21 4.261-.053 7.283-.646 7.427-.882.213-5.685-.866-9.247-2.079-.867-.295-.185-2.368 2.245-6.79 4.581-8.334 4.603-10.133.12-9.292-10.919 2.048-13.847-8.94-5.108-19.149 3.193-3.73 17.195-13.256 19.481-13.256m-124.04 1.866c5.143 1.541 9.61 5.357 12.277 10.503 2.453 4.733 2.817 13.472 1.349 32.303-.87 11.158-.875 11.189 1.727 14.281 2.72 3.232 2.647 5.932-.166 6.199-3.867.366-6.79-.437-9.016-2.476-4.442-4.069-5.218-7.683-5.053-23.5.105-10.004-.248-15.551-1.108-17.412-2.39-5.173-8.23-4.759-10.53.748-1.047 2.504-1.237 6.019-.767 14.225.803 14.035-.458 19.687-5.478 24.553-4.342 4.209-7.92 5.36-10.586 3.409-1.847-1.352-1.837-1.47.388-4.48 2.98-4.031 4.068-11.283 2.965-19.842-1.353-10.499-1.146-23.98.425-27.74 3.252-7.783 15.252-13.264 23.574-10.77m-210.122 15.648c1.385.558 1.091 1.123-1.755 3.326-16.262 12.583-19.525 21.751-10.642 29.91 6.127 5.628 15.003 4.014 26.151-4.748 3.504-2.753 6.829-5.006 7.39-5.006 5.363 0-13.596 17.766-23.481 22.003-12.87 5.517-26.364-1.141-27.204-13.422-.29-4.242.188-6.063 2.928-11.057 2.806-5.114 4.847-7.112 14.115-13.828 7.471-5.415 11.346-7.641 12.498-7.178m-43.831 15.048c0-.626 12.919.015 13.578.674.228.228-.817 2.96-2.327 6.07-1.51 3.108-3.086 5.66-3.492 5.671-1 .026-7.76-10.79-7.76-12.415m572.108 8.535c7.494.17 9.102 1.026 10.66 5.7 1.906 5.72 7.38 8.699 14.456 7.86 5.613-.664 5.575.665-.092 3.105-2.525 1.087-6.297 1.503-12.388 1.367-8.662-.193-8.784-.162-12.045 3.085-3.115 3.102-6.677 5.213-12.951 7.667-3.762 1.471-3.441 3.243 1.007 5.616 2.845 1.519 3.962 2.893 4.656 5.7.788 3.193.487 4.565-2.245 10.115-1.74 3.534-3.169 7.149-3.169 8.027 0 .879 1.358 2.593 3.012 3.815 3.675 2.718 4.978 7.05 4.988 16.535.003 3.955.464 7.477 1.025 7.824.562.347 2.393-.535 4.074-1.949 5.377-4.525 8.028-3.358 12.138 5.312 1.727 3.643 3.17 7.051 3.205 7.583.035.533-1.735 1.518-3.935 2.18-4.475 1.349-15.671 1.593-19.51.425-4.104-1.248-8.354-3.728-10.678-6.226-5.015-5.39-14.054-37.67-16.451-58.75-1.825-16.047.544-21.31 13.2-29.282 3.992-2.515 16.177-5.819 21.043-5.709m24.044 2.107c7.373.301 8.823 1.17 6.615 3.98-1.687 2.148-4.465 2.715-9.062 1.84-4.498-.858-6.198-2.295-5.349-4.509.505-1.315 1.932-1.552 7.796-1.311m-526.188 2.79c2.328 0 1.591 2.065-2.54 7.075-5.8 7.033-8.17 14.489-6.44 20.267 2.663 8.885 11.853 12.853 20.295 8.766 5.596-2.709 5.718-2.69 5.718.989 0 3.664-3.826 7.674-10.336 10.826-5.757 2.786-14.92 2.825-19.417.083-6.37-3.884-9.62-13.187-7.224-20.683.672-2.103 2.703-6.071 4.517-8.821 4.379-6.639 14.27-18.503 15.427-18.503m-162.08.175c8.377-.474 13.695 1.881 18.133 8.009 2.628 3.627 2.984 4.949 2.984 11.01 0 9.369-2.375 13.951-8.951 17.284-5.848 2.963-14.306 3.987-18.604 2.254-8.872-3.578-12.72-9.031-12.859-18.226-.113-7.544 2.493-12.88 8.296-16.978 3.438-2.429 5.445-3.04 11.001-3.353m227.526 5.025c3.083.226 4.056.706 3.963 1.958-.068.913-.434 4.624-.822 8.25-.784 7.324-.155 8 4.25 4.535 1.821-1.433 3.385-1.857 5.154-1.414 4.085 1.026 5.049 2.434 5.016 7.344-.026 3.838-1.115 6.503-6.383 15.593-3.494 6.028-6.747 11.069-7.224 11.205-1.228.35-16.727-16.518-18.715-20.369-3.04-5.887-1.661-10.698 3.38-11.805 2.057-.452 3.844-.157 5.479.914 1.333.874 2.661 1.59 2.956 1.59 1.171 0 .434-5.26-1.432-10.171-2.45-6.45-1.531-8.063 4.378-7.63m479.227.175c4.918-1.234 11.096 5.995 9.874 11.556-.938 4.274-5.522 8.253-14.835 12.868-10.112 5.01-12.11 5.2-14.115 1.321-1.189-2.3-2.621-3.16-7.085-4.25-3.078-.75-5.65-1.814-5.708-2.364-.059-.55 2.107-1.843 4.812-2.873 15.919-6.061 17.525-6.92 21.09-11.27 1.976-2.411 4.66-4.66 5.966-4.988m-710.309 2.125c-2.67.671-5.283 2.063-7.575 4.25-2.486 2.371-3.855 7.3-2.004 7.223.412-.017 2.548-1.14 4.748-2.494 6.684-4.117 14.139-2.986 19.25 2.928 3.077 3.558 4.66 3.359 3.89-.49-1.792-8.958-10.3-13.431-18.309-11.417m340.86 7.833c3.459-.97 6.72.552 11.167 4.176 9.156 7.458 17.357 18.358 20.895 27.758 2.912 7.735 3.106 9.088 3.16 22.234.05 12.34-.219 14.682-2.236 19.713-4.776 11.912-15.23 25.471-25.209 32.7-2.347 1.7-4.762 3.088-5.367 3.086-5.617-.02-24.067-20.933-29.947-33.948-2.832-6.267-3.039-28.32-.36-38.049 2.15-7.811 7.778-17.57 15.51-26.89 5.264-6.346 8.927-9.81 12.386-10.78m117.72 5.672c2.663 0 12.267 17.302 13.533 24.378 1.408 7.862-4.45 13.806-10.013 10.16-4.35-2.85-5.784-1.396-5.154 5.229.299 3.15.852 6.52 1.237 7.482.588 1.47.168 1.733-2.65 1.635-4.353-.15-6.864-.824-6.864-1.847 0-.45.898-2.785 1.986-5.182s1.983-5.424 1.995-6.725c.023-2.465-.547-2.52-6.697-.61-3.314 1.03-8.277-4.241-8.277-8.794 0-3.661 3.777-11.7 7.335-15.602 2.768-3.036 12.27-10.124 13.57-10.124m-317.331 1.238c.213.213-.05 1.93-.591 3.815s-.989 5.12-.989 7.187c0 2.066-.41 3.76-.914 3.76-1.183 0-11.282-8.605-12.36-10.531-.642-1.147-.167-1.47 2.19-1.47 1.657 0 5.101-.705 7.648-1.57 2.546-.864 4.802-1.405 5.016-1.191m202.483 2.522-5.21 4.36c-7.5 6.28-14.984 15.823-17.69 22.548-3.514 8.74-4.055 21.672-1.283 30.945 2.865 9.585 11.186 21.58 19.528 28.137 1.574 1.238 3.37 2.245 3.98 2.245 1.738 0 16.14-15.322 18.947-20.156 4.202-7.238 6.67-16.087 6.67-23.915 0-7.422-2.048-17.139-4.712-22.383-2.539-4.996-12.013-16.08-16.267-19.029zm374.077 5.551c.348-.157 1.803.641 3.243 1.774 6.858 5.395-.104 14.753-15.38 20.673-7.438 2.883-12.555 4.138-13.727 3.372-.535-.35-1.254-3.154-1.608-6.235l-.646-5.608 13.745-6.844c7.558-3.766 14.025-6.974 14.373-7.132m-375.185.398c1.947-.605 3.616.263 6.272 2.217 7.063 5.194 12.338 12.554 15.186 21.172 5.225 15.81 2.366 29.125-9.607 44.745-2.742 3.578-6.022 7.33-7.297 8.333-2.835 2.23-4.058 2.243-8.388.11-4.277-2.107-8.261-7.505-13.496-18.29-3.773-7.774-4.151-9.296-4.47-17.828-.571-15.237 1.944-21.38 13.846-33.827 3.778-3.95 6.006-6.028 7.954-6.632m339.612 1.45c2.28.448 3.915 3.159 3.132 5.2-.415 1.081-1.749 1.614-3.917 1.562-4.69-.113-5.783-.778-5.783-3.492 0-2.489 2.99-3.974 6.568-3.27m-339.003 7.842c-1.777 0-8.806 8.611-11.777 14.43-2.618 5.125-3.44 15.591-1.783 22.705 1.324 5.687 3.54 10.006 8.267 16.11 1.598 2.062 3.393 3.75 3.991 3.75 2.626 0 9.59-9.086 12.71-16.581 3.007-7.221 3.22-8.442 2.624-14.89-1.015-10.984-9.006-25.524-14.032-25.524m-327.631 3.15c10.709-.413 15.723.812 19.445 4.74 4.183 4.413 11.462 20.013 12.646 27.102a842 842 0 0 0 2.106 12.008c.56 3.025 1.24 12.92 1.515 21.994l.499 16.498-3.012 4.702c-3.306 5.15-6.026 6.867-16.498 10.43-11.125 3.783-26.999 2.831-30.954-1.858-2.798-3.316-5.716-4.752-9.857-4.84-1.823-.039-4.22-.44-5.32-.896-3.916-1.62 4.502-4.037 14.068-4.037 8.207 0 8.925-.177 14.623-3.695 3.34-2.061 8.495-4.201 11.648-4.83 4.486-.896 5.663-1.52 5.663-3.021 0-1.323-1.32-2.386-4.388-3.52-6.042-2.232-7.59-5.334-6.134-12.35.607-2.924 1.748-6.161 2.531-7.196 2.138-2.824 1.796-5.109-1.385-9.191-3.764-4.831-5.127-9.18-5.127-16.378 0-6.826-1.7-8.388-5.367-4.942-1.245 1.17-2.729 2.124-3.307 2.124-2.065 0-6.112-4.017-6.78-6.734-.374-1.52-2.3-4.436-4.286-6.484l-3.612-3.732 5.93-2.762c4.849-2.262 7.645-2.834 15.353-3.132m328.648 1.358c2.032.396 3.953 2.861 6.272 7.5 4.005 8.016 4.788 14.755 2.66 22.965-1.955 7.547-3.707 11.2-6.706 13.995-3.057 2.847-5.194 2.537-8.37-1.22-8.74-10.341-9.103-27.447-.812-38.316 2.782-3.647 4.923-5.32 6.956-4.924m332.305 2.984c4.36 0 5.638.399 6.771 2.106 1.225 1.844 1.177 2.375-.379 4.25-4.265 5.139-12.675 2.915-12.082-3.197.302-3.11.388-3.16 5.69-3.16m-493.747 3.085c.985.61 1.178 9.437.258 11.833-.333.87-.893 1.576-1.247 1.561-1.703-.07-12.035-6.347-11.602-7.048.894-1.446 11.704-6.894 12.59-6.346m-207.112.434c3.671-1.397 7.661-1.479 8.942.915 1.616 3.018 1.228 6.898-.794 7.98-1.005.539-4.07 1.271-6.817 1.636-3.964.526-5.349.314-6.679-1.016-.922-.922-1.672-2.056-1.672-2.522 0-2.881 3.35-5.596 7.02-6.993m741.873 4.84c1.429.55 2.106 2.08 2.106 4.638 0 4.408-2.44 6.669-10.817 10.022-6.873 2.752-15.158 4.224-16.433 2.92-1.233-1.262-.85-8.253.499-9.09.687-.427 3.951-1.734 7.251-2.9 3.3-1.167 8.144-3.109 10.762-4.315 3.025-1.393 5.204-1.824 6.632-1.274m-726.067 1.913c1.603-1.603 4.649-.383 4.988 1.995.209 1.465-.193 2.236-1.173 2.236-2.207 0-4.976-3.07-3.815-4.231m688.48 6.41c1.546-.177 3.458.212 4.25.869 1.923 1.596 1.837 5.588-.14 6.346-4.013 1.54-7.78-.771-7.26-4.452.259-1.831 1.045-2.521 3.15-2.762m-452.123 2.818h4.341c2.393 0 4.639.47 4.988 1.035s-.106 3.993-1.016 7.62c-1.833 7.31-1.168 9.312 2.439 7.381 1.182-.633 3.817-1.01 5.856-.84 3.662.303 3.71.368 4.01 5.043.463 7.216-2.298 12.237-11.012 20.036-7.424 6.645-8.794 7.555-8.794 5.866 0-.474-2.312-4.378-5.145-8.674-4.777-7.246-7.9-14.57-7.824-18.373.098-4.919 6.954-7.221 10.891-3.658 4.034 3.65 5.179-.72 2.66-10.18zm-238.01 1.164c.92.735 1.825 3.072 2.004 5.191l.323 3.852-5.505 1.774c-3.026.977-7.175 2.507-9.22 3.4-2.044.891-4.846 1.625-6.226 1.625-3.476 0-5.947-3.95-5.043-8.064.567-2.583 1.653-3.577 6.087-5.607 6.584-3.014 15.183-4.08 17.58-2.171m10.234 3.002c3.666-.71 6.586.774 6.586 3.353 0 2.077-.477 2.485-2.928 2.485-4.952 0-8.073-4.982-3.658-5.838m501.544 4.37c1.125-.696 13.458 4.706 14.466 6.336.41.665-.451 1.571-2.116 2.226-1.543.608-4.733 1.958-7.085 3.003-4.875 2.165-4.665 2.124-5.552 1.237-1.034-1.034-.786-12.14.287-12.803m212.192 1.533c1.511.152 1.857 1.045 1.857 2.762 0 1.67-.964 3.726-2.347 5.025-2.822 2.651-6.842 3.775-11.962 3.344-4.23-.357-5.496-2.13-3.954-5.515.725-1.591 2.784-2.668 7.538-3.935 4.673-1.245 7.356-1.834 8.868-1.681m-261.87 4.101c1.416-1.161 2.308-.606 6.927 4.305 7.51 7.983 11.772 15.843 11.787 21.745.01 3.645-.426 4.945-1.921 5.745-2.463 1.318-6.76 1.34-7.566.037-.715-1.157-4.507-1.367-4.489-.25.037 2.353 3.007 11.438 4.379 13.395 2.185 3.12 2.046 3.613-1.146 4.221-1.512.289-4.167.8-5.903 1.137-1.855.36-3.428.169-3.824-.471-.37-.6.1-4.393 1.053-8.434s1.437-8.129 1.072-9.08c-.622-1.622-.827-1.624-3.206-.065-1.62 1.06-4.054 1.552-6.734 1.358-3.936-.286-4.295-.57-5.634-4.443-1.286-3.72-1.25-4.605.36-8.822 1.658-4.343 11.102-17.31 14.844-20.378m234.195.878c.963-1.56 4.1-1.257 5.588.535 1.084 1.307 1.07 1.732-.12 2.485-.79.5-1.948.916-2.568.924-1.637.022-3.655-2.723-2.9-3.944m-691.474 2.706v4c0 2.201.286 5.403.628 7.113.496 2.479.236 3.237-1.256 3.75-1.03.354-6.03 2.388-11.113 4.517-15.235 6.383-22.092 4.94-19.389-4.083.603-2.014 2.116-4.623 3.362-5.792 3.113-2.916 17.235-8.457 23.02-9.034zm9.32 1.82c5.578-1.988 11.596 4.825 7.141 8.083-3.168 2.316-8.182 1.694-10.115-1.257-2.027-3.093-1.018-5.403 2.975-6.826m516.814 2.07c6.344.041 10.914 2.183 14.262 6.687 1.726 2.321 2.096 4.224 2.06 10.558-.037 6.498-.497 8.594-2.891 13.173-3.217 6.152-6.553 10.942-10.947 15.694-3.579 3.87-6.839 4.634-4.258.998 5.34-7.524 7.872-13.171 8.37-18.65.508-5.617.401-5.956-3.206-9.95-4.687-5.186-9.935-6.855-16.11-5.126-4.884 1.368-6.411.792-6.411-2.41 0-4.98 10.548-11.031 19.13-10.975M1283.93 875.02c1.678.239 2.39 1.303 3.085 4.61 1.039 4.941.14 6.386-3.168 5.117-4.904-1.881-4.83-10.427.083-9.727m458.266.138c1.537-.59 13.392 8.627 13.404 10.42.004.709-1.216 1.247-2.827 1.247-1.562 0-4.937.633-7.5 1.404-2.564.772-4.857 1.098-5.09.72-.939-1.518.786-13.32 2.013-13.79m-539.49 3.668c2.773 0 3.656 2.979 1.376 4.646-3.03 2.216-8.47 1.407-8.47-1.256 0-1.543 3.865-3.39 7.093-3.39m-15.325 4.572c1.441.297 2.29 1.259 3.085 3.002 1.38 3.03 5.57 4.76 9.875 4.074 1.777-.283 3.5-.082 3.824.443.734 1.188-4.829 3.57-11.787 5.044-6.54 1.386-11.42 3.812-15.685 7.796-3.902 3.646-6.985 3.903-9.773.822-6.786-7.497-1.068-15.861 13.8-20.183 3.182-.925 5.22-1.295 6.66-.998m700.295 2.115c-.645.438-1.13 2.157-1.552 5.22-.445 3.238-1.472 5.649-3.03 7.112-3.173 2.981-10.24 3.752-14.576 1.59-6.78-3.383-5.545 3.204 1.394 7.435 6.121 3.732 15.475 2 19.103-3.538 2.59-3.952 3.168-11.505 1.173-15.361-1.062-2.056-1.868-2.895-2.512-2.458m-132.16 6.337c4.082.035 10.586 3.453 12.988 6.827 7.697 10.808-.212 27.907-17.865 38.63-7.05 4.283-11.164 4.848-6.53.896 8.996-7.673 10.795-9.539 12.562-13.006 3.633-7.125 1.717-15.709-4.249-19.02-3.293-1.827-12.307-1.66-16.11.296-1.76.906-5.178 3.377-7.593 5.496-4.28 3.756-6.106 4.68-6.106 3.067 0-1.494 9.609-12.158 14.124-15.676 4.739-3.692 14.379-7.547 18.78-7.51m-197.134 2.014c2.15-.383 4.049.045 5.154 1.376.932 1.124.642 1.912-1.44 3.843-3.934 3.647-4.572 8.36-3.308 24.544.862 11.034.84 15.557-.101 19.768-1.398 6.244-5.015 11.094-9.746 13.07-5.07 2.12-13.161 1.702-17.828-.914-7.63-4.277-9.644-12.716-8.803-36.922l.526-15.306-2.706-3.935c-2.566-3.726-2.617-4.018-.924-5.256 2.588-1.892 5.754-1.606 8.794.785 5.323 4.187 6.073 7.035 6.614 25.135.49 16.426.54 16.781 3.122 19.362 3.154 3.152 5.986 2.656 7.815-1.358 1.271-2.79 1.574-17.342.453-21.81-.337-1.343-.062-5.354.61-8.914 1.04-5.511 1.793-6.99 5.108-9.985 2.107-1.904 4.51-3.1 6.66-3.483m-139.365 11.223c.6-.6 10.787 1.838 12 2.873.508.434-.893 3.719-3.197 7.501-2.254 3.702-3.86 7.111-3.574 7.575.286.463 2.115.74 4.064.61 4.582-.31 7.298 2.797 7.298 8.34 0 6.951-2.837 10.537-15.177 19.168-3.674 2.57-7.05 4.674-7.51 4.674-.89 0-6.58-11.67-8.915-18.29-2.195-6.223-1.807-11.383 1.063-14.253 2.837-2.837 7.065-3.208 9.68-.84.986.891 2.42 1.384 3.188 1.09 1.993-.766 2.875-7.868 1.653-13.32-.578-2.56-.834-4.866-.573-5.128m359.067 6.226c.986.837 2.469 2.934 4.48 6.319 2.224 3.744 4.046 7.12 4.046 7.5 0 .381-3.376.693-7.501.693s-7.5-.176-7.5-.397c0-.22 1.124-2.813 2.493-5.755 1.37-2.942 2.504-6.132 2.504-7.094.009-1.672.491-2.102 1.478-1.266m-589.28 1.83c.797.319.554.561-.61.61-1.055.043-1.644-.195-1.312-.527.332-.333 1.2-.372 1.921-.084m409.927 3.685c-10.805 0-14.135.31-15.057 1.423-.903 1.087-.928 4.725-.111 15.25 2.302 29.684 9.3 63.484 18.05 96.106h41.097c-1.147-3.043-1.395-3.315-2.984-7.583-7.248-19.47-20.4-74.688-22.64-95.062-1.08-9.815-1.668-10.134-18.355-10.134m-108.558 2.106c-1.057-1.71-22.011-1.48-23.454.259-.624.752-2.722 7.616-4.665 15.25-8.713 34.246-20.945 67.002-34.077 95.164h34.705c9.726-27.228 18.414-55.681 23.279-81.28 3.763-19.802 4.963-28.178 4.212-29.393m165.765.065c1.276.159 2.94 1.183 5.246 3.104 2.162 1.8 5.668 4.564 7.797 6.143 4.583 3.398 9.152 12.354 8.212 16.1-.914 3.641-4.51 6.485-8.212 6.485-1.789 0-3.517.424-3.843.951-.326.528 1.009 4.143 2.965 8.028 3.207 6.367 3.382 7.117 1.783 7.62-.976.308-2.81.973-4.074 1.479-2.779 1.111-5.929 1.19-6.512.166-.235-.413.033-4.03.591-8.046 1.231-8.853.32-10.573-4.194-7.907-6.04 3.568-11.355 1.135-12.655-5.792-1.053-5.617.059-9.698 4.647-17.135 2.33-3.777 4.727-7.875 5.33-9.108.752-1.54 1.642-2.247 2.919-2.088m122.727 12.83c8.097 0 9.044.212 12.01 2.707 7.024 5.912 8.81 15.411 4.11 21.893-5.997 8.269-13.826 13.366-26.53 17.283-7.972 2.458-7.64 2.413-7.64 1.09 0-.564 3.255-2.525 7.243-4.36 10.372-4.774 13.754-9.126 13.754-17.699 0-5.008-4.834-10.71-10.013-11.815-4.184-.892-11.879.732-17.699 3.732-2.316 1.194-4.787 2.148-5.496 2.125-2.468-.078 7.483-7.957 14.456-11.445 6.429-3.216 7.755-3.51 15.805-3.51m-450.516 9.996c1.808 0 13.08 5.567 13.875 6.854.305.494-.46 2.408-1.7 4.249-1.862 2.763-3.563 3.734-9.736 5.552-10.244 3.016-10.974 2.96-10.974-.841 0-3.065 6.879-15.814 8.535-15.814m18.096 9.31c.863-.33 4.675.908 8.47 2.744 5.012 2.425 6.901 3.868 6.901 5.275 0 1.066-2.091 6.601-4.637 12.304-2.678 5.999-5.215 10.374-6.023 10.374-1.344 0-3.37-3.866-3.316-6.319.014-.651-.964-5.016-2.17-9.699-2.306-8.948-2.057-13.591.775-14.678M1802 958.832c.745 0 3.612 9.268 3.612 11.676 0 2.58-.883 2.691-5.995.757-1.925-.728-4.294-1.345-5.256-1.376s-1.746-.426-1.746-.878c0-.836 8.614-10.18 9.385-10.18m-474.746 5.524c7.696-1.917 8.36-1.902 8.36.11 0 2.85-8.705 20.13-10.67 21.182-1.035.554-5.392 1.5-9.68 2.097-4.287.596-8.21 1.08-8.72 1.08-1.894 0-.822-4.264 2.984-11.833 4.332-8.617 5.804-9.667 17.726-12.636m12.748 3.473c1.53 0 3.244 4.576 6.18 16.498l1.727 7.002-6.235 11.75c-5.8 10.926-8.363 13.735-9.598 10.503-.263-.688-1.306-6.39-2.319-12.665l-1.847-11.408 5.32-10.836c3.117-6.349 5.923-10.844 6.772-10.844m60.634 3.482c1.046-.646 10.974 2.254 10.974 3.206 0 .289-1.284 2.162-2.854 4.166-3.927 5.011-5.49 8.202-4.49 9.182.464.454 2.63.97 4.813 1.145 4.637.37 7.27 3.763 6.207 8-.966 3.852-8.785 10.824-17.43 15.555-4.26 2.33-8.247 4.24-8.86 4.25-.612.007-2.487-5.592-4.175-12.443-3.26-13.239-3.142-17.648.592-21.847 2.43-2.732 7.36-1.88 8.997 1.552 2.556 5.36 5.2 1.991 5.2-6.623 0-3.029.464-5.795 1.026-6.143m386.972 4.831c9.579-.38 10.848-.214 14.41 1.885 5.856 3.449 7.733 6.604 8.287 13.93.424 5.615.194 6.756-1.95 9.607-3.606 4.795-6.683 6.887-13.523 9.19-4.772 1.608-8.673 2.07-17.357 2.07-11.843 0-14.197-.962-3.834-1.57 8.315-.488 16.264-4.17 18.558-8.591 2.36-4.548 2.254-11.221-.24-14.623-3.805-5.191-7.725-6.421-18.595-5.829-5.362.293-9.754.164-9.754-.286 0-2.057 13.775-5.376 23.998-5.783m-228.533 8.296c3.351.905 6.331 3.09 7.99 6.3 2.56 4.949 2.001 13.632-1.33 20.673-1.582 3.344-4.118 7.056-5.634 8.249s-3.65 2.17-4.739 2.17c-1.65 0-1.878-.463-1.349-2.752 3.447-14.898 2.2-21.88-4.526-25.31-4.874-2.487-5.093-5.232-.628-7.954 3.138-1.913 6.865-2.282 10.216-1.376m-49.493 2.632c3.37-.66 6.9-.133 9.394 1.83 3.439 2.704 3.333 4.628-.379 6.724-4.609 2.602-7.265 8.948-6.678 15.953.264 3.163.802 6.986 1.2 8.498.606 2.3.413 2.753-1.2 2.753-2.622 0-6.616-4.4-9.838-10.845-3.262-6.524-3.68-15.386-.924-19.592 1.843-2.812 5.055-4.66 8.425-5.32m-191.011 5.894c1.035.21 1.044.798 1.044 1.986 0 2.517-8.727 17.457-11.732 20.082-1.137.993-4.893 1.788-10.53 2.226-7.38.573-8.852.434-9.349-.86-.71-1.852 9.914-19.081 12.988-21.06 1.168-.752 5.836-1.683 10.374-2.07 4.11-.35 6.17-.515 7.205-.304m596.042 15.149c-.994.365-2.148 1.61-4.101 3.963-6.38 7.688-6.26 8.052 5.598 16.211 1.053.726 1.041.685 1.976 1.321h6.05c-.184-1.564-.368-2.776-1.819-3.14-1.265-.318-4.233-2.354-6.586-4.527-3.733-3.446-4.131-4.216-3.16-6.032 1.29-2.41 4.447-2.639 8.046-.582 3.522 2.013 3.992 1.866 3.991-1.247 0-2.244-.471-2.78-2.559-2.9-1.407-.082-3.35-.865-4.323-1.746-1.287-1.165-2.119-1.686-3.113-1.321m-103.061 1.718c.781 0 1.05 2.415.85 7.667-.162 4.246-.764 7.825-1.35 8.018-.58.192-2.157-.825-3.5-2.263s-3.68-3.259-5.192-4.046-2.731-1.754-2.715-2.152c.036-.934 10.403-7.224 11.907-7.224" style="fill:#000;fill-opacity:1" transform="translate(-161.58 63.929)scale(.15858)"/><path d="M7.989 3.103C7.747-.954.242-8.59 0-10.5-.242-8.591-7.747-.955-7.989 3.103c-.169 2.868 1.695 4.057 3.39 4.057 1.835-.022 3.35-2.8 3.873-3.341.242.716-1.603 6.682-2.179 6.682h5.811c-.576 0-2.421-5.966-2.179-6.682.457.496 1.797 3.258 3.874 3.341 1.694-.001 3.557-1.189 3.388-4.057" style="fill:#000" transform="matrix(3.53993 0 0 3.2366 121.48 45.436)"/><g style="clip-rule:nonzero;opacity:.198728;fill:#b3b3b3;fill-opacity:1;fill-rule:nonzero;stroke:#000;stroke-miterlimit:4;filter:url(#a)" transform="translate(0 .616)"><path d="M166.837 235.548c0 3.777-3.087 6.869-6.871 6.869H7.11c-3.775 0-6.861-3.092-6.861-6.87V7.12C.25 3.343 3.336.25 7.11.25h152.856c3.784 0 6.87 3.093 6.87 6.87z" style="fill:#b3b3b3;fill-opacity:1;stroke-width:.5"/></g><path d="M-26.845 90.822v129.995H103.15V90.822Zm2.3 2.3H100.85v125.396H-24.546Z" style="color:#000;fill:#000;stroke-width:.811363;-inkscape-stroke:none" transform="translate(45.39 6.384)"/><path d="M-241.53-27.27h-3.776v-4.095h12.352v4.096h-3.136l-8.896 13.376 8.896 23.04h3.328v4.288h-12.992V9.147h4.8l-7.104-18.368-4.736 7.104V9.147h3.072v4.288h-11.712V9.147h3.904V-27.27h-3.904v-4.096h11.712v4.096h-3.072v17.216h.384zv-.064z" aria-label="K" style="font-size:64px;font-family:NumbersDeuce;-inkscape-font-specification:NumbersDeuce;stroke-width:2.83465" transform="translate(387.676 58.245)scale(1.42857)"/></svg>