<svg xmlns="http://www.w3.org/2000/svg" xml:space="preserve" width="222.783" height="323.556" viewBox="0 0 167.087 242.667"><defs><filter id="a" width="1.147" height="1.101" x="-.074" y="-.051" style="color-interpolation-filters:sRGB"><feGaussianBlur in="SourceGraphic" result="result3" stdDeviation="4"/><feGaussianBlur in="SourceGraphic" result="result4" stdDeviation="1"/><feBlend in2="result3" mode="darken"/><feComponentTransfer result="result1"><feFuncR tableValues="0 0.2 0.4 0.6 0.8 1 1" type="discrete"/><feFuncG tableValues="0 0.2 0.4 0.6 0.8 1 1" type="discrete"/><feFuncB tableValues="0 0.2 0.4 0.6 0.8 1 1" type="discrete"/></feComponentTransfer><feTurbulence baseFrequency="1" numOctaves="7" result="result0" type="fractalNoise"/><feConvolveMatrix kernelMatrix="-2 0 -2 0 -10 0 -2 0 -2" order="3 3" result="result5"/><feColorMatrix in="result5" result="result4" type="saturate" values="0"/><feComposite in="result1" in2="result4" k1="1.5" k2=".5" k3=".5" operator="arithmetic" result="result2"/><feComposite in2="SourceGraphic" operator="in"/></filter></defs><g style="fill-rule:nonzero;clip-rule:nonzero;stroke:#000;stroke-miterlimit:4"><path d="M166.837 235.548c0 3.777-3.087 6.869-6.871 6.869H7.11c-3.775 0-6.861-3.092-6.861-6.87V7.12C.25 3.343 3.336.25 7.11.25h152.856c3.784 0 6.87 3.093 6.87 6.87z" style="fill:#fff;stroke-width:.5"/></g><path d="M3.243-4.725C1.126-7.59 0-10.5 0-10.5s-1.126 2.91-3.243 5.775C-5.361-1.862-8 0-8 0s2.639 1.861 4.757 4.726C-1.126 7.59 0 10.5 0 10.5s1.126-2.91 3.243-5.774C5.361 1.861 8 0 8 0S5.361-1.862 3.243-4.725" style="fill:navy" transform="matrix(2.04014 0 0 2.29598 38.837 124.668)"/><g style="fill:navy"><path d="M2072.103 480.37c-6.408 0-6.73.104-5.306 1.748.833.963 3.672 5.804 6.307 10.754a6653 6653 0 0 0 8 14.995c1.768 3.3 9.4 18.102 16.963 32.888 13.095 25.605 13.728 27.1 13.204 31.498-.985 8.283 2.466 14.766 11.658 21.904.914.709 1.657 2.193 1.657 3.293s.902 3.768 2.002 5.924c1.547 3.034 2.001 5.904 2.011 12.705.006 5.112.66 10.881 1.565 13.79 3.002 9.646 5.218 23.192 4.441 27.174-.888 4.556-5.204 17.088-9.237 26.825a995 995 0 0 0-6.215 15.501c-1.825 4.675-4.24 10.08-5.36 12.005s-2.583 5.391-3.259 7.7c-2.273 7.77 1.206 11.87 16.245 19.135 3.813 1.841 6.96 4.059 7.308 5.151.335 1.055.107 4.663-.5 8.013-1.061 5.849-1.005 6.204 1.446 9.116 2.983 3.545 3.123 4.633.956 7.728-1.11 1.583-1.396 3.272-.928 5.473 1.938 9.136 1.755 12.433-.956 17.856-1.465 2.93-3.869 6.62-5.342 8.206-3.11 3.349-13.983 11.619-15.28 11.619-.485 0-2.124-1.451-3.64-3.23-10.587-12.409-15.85-14.57-26.965-11.066-7.903 2.49-12.36 6.786-15.735 15.17-2.413 5.993-2.742 7.878-2.184 12.621.593 5.052.43 5.783-1.757 7.81-1.328 1.231-4.596 3.329-7.262 4.655s-11.475 6.486-19.566 11.472c-14.873 9.163-36.077 21.508-47.524 27.662-5.817 3.127-6.349 3.243-7.899 1.693-.914-.915-3.192-6.98-5.06-13.477-3.245-11.29-3.387-12.432-3.103-25.814l.3-13.992-3.904-.322c-2.148-.175-4.954-.054-6.234.267-3.798.953-8.952 6.188-10.766 10.938-2.836 7.427-5.836 7.01-10.101-1.407-1.295-2.556-5.005-8.656-8.236-13.56s-6.651-10.164-7.6-11.683c-2.517-4.037-10.665-9.686-14.014-9.715-1.632-.014-4.154 1.07-5.888 2.53-1.67 1.404-3.691 2.302-4.487 1.996-7.955-3.053-14.306-.422-16.09 6.66-.743 2.952-1.917 4.854-3.54 5.723-1.336.714-3.43 2.652-4.66 4.314-2.036 2.754-2.19 3.845-1.747 12.318.398 7.612.19 9.582-1.11 10.883-2.328 2.328-2.72 14.656-.719 22.464.88 3.437 1.593 7.138 1.593 8.225s1.525 5.667 3.385 10.174 4.17 10.664 5.133 13.689c1.616 5.078 3.714 9.4 10.884 22.4 3.03 5.492 3.06 8.557.1 10.073-1.1.564-6.269 3.548-11.494 6.624-17.876 10.52-22.151 12.906-23.079 12.906-.533 0-.928 6.866-.928 16.108 0 12.495.286 15.986 1.256 15.584.687-.285 7.318-2.993 14.743-6.026 15.066-6.153 22.657-9.315 54.503-22.685 12.1-5.08 24.477-10.236 27.502-11.453 8.726-3.512 40.764-17.281 48.998-21.058 10.954-5.024 25.112-10.468 27.21-10.468 1.093 0 2.48 1.379 3.468 3.45 2.167 4.544 1.18 5.669-8 9.134-3.947 1.49-11.456 4.62-16.681 6.946s-11.522 4.933-13.997 5.795-10.125 4.114-17 7.222c-21.173 9.571-117.188 47.738-120.5 47.9-.641.032-1.097 12.217-1.266 33.9l-.263 33.853 3.267-2.677c8.392-6.888 22.864-20.69 28.275-26.963 10.714-12.418 31.205-40.363 35.51-48.434 1.065-1.995 3.632-6.068 5.707-9.052 4.43-6.372 9.428-8.761 15.28-7.295 4.522 1.133 5.703.678 7.562-2.916 1.99-3.85 6.176-5.555 8.336-3.395 1.41 1.41 1.03 2.574-3.931 12.254-12.77 24.918-40.112 61.63-61.948 83.17-13.75 13.564-27.805 25.996-33.28 29.43-4.37 2.74-4.751 3.29-4.751 6.945 0 3.631.152 3.857 1.738 2.603 19.61-15.508 50.67-45.61 63.85-61.875 18.312-22.598 32.943-45.011 43.218-66.235l5.197-10.744 6.68-3.027c4.404-1.997 7.02-2.694 7.671-2.042 2.677 2.677-12.88 34.102-27.993 56.548-19.132 28.413-21.963 31.962-43.537 54.506-16.599 17.345-27.747 27.454-41.68 37.8-15.976 11.862-15.332 11.201-14.962 15.436.38 4.355.198 4.404 11.858-3.735l7.153-4.986 1.902 2.346c1.446 1.786 1.903 3.957 1.902 8.997-.003 13.282-4.626 16.742-15.635 11.702-3.081-1.411-5.996-2.567-6.48-2.567-.483 0-.882 1.36-.882 3.017 0 3.368 3.433 6.079 10.356 8.188 2.12.645 4.078 1.755 4.35 2.465.735 1.914-5.1 8.771-10.22 12.005l-4.477 2.824.009 133.492h93.19c-7.432-9.797-22.51-30.028-31.506-42.345-10.797-14.783-11.262-15.408-24.199-32.17-6.6-8.551-13.738-18.32-15.862-21.71l-3.859-6.164 2.22-1.803c1.223-.99 3.476-1.794 5.006-1.794 2.45 0 4.132 1.9 14.133 15.906 10.629 14.885 17.742 24.472 52.602 70.945a4194 4194 0 0 1 14.288 19.135h62.066c-.292-.376-.443-.623-.728-.985-2.387-3.025-9.813-12.93-16.5-22.005-10.215-13.863-19.979-26.553-24.362-31.663-.55-.642-4.159-5.505-8.009-10.81-7.69-10.596-22.268-29.908-38.495-50.982-16.075-20.878-15.549-19.373-8.527-24.415l4.359-3.128 2.876 3.753c1.583 2.063 3.53 4.72 4.332 5.906 4.219 6.254 13.855 19.463 17.409 23.872 5.59 6.936 13.554 17.387 26.292 34.47 5.946 7.975 13.081 17.427 15.853 21.002 2.771 3.575 10.835 14.145 17.919 23.495s15.506 20.318 18.72 24.37c3.231 4.073 4.452 5.854 4.805 7.12h8.154c4.472-7.295 10.045-15.446 12.131-19.558 5.447-10.74 15.456-35.792 18.975-47.478 16.748-55.623 20.433-124.905 9.564-179.947-3.84-19.453-11.598-45.457-19.384-65.003-7.332-18.409-26.028-54.622-35.1-67.973-1.307-1.923-2.376-3.844-2.376-4.278s-4.501-7.588-10.001-15.897c-5.5-8.308-10.002-15.465-10.002-15.905 0-1.636 5.367-4.95 8.018-4.95 2.327 0 3.568 1.255 8.217 8.252 26.357 39.669 43.313 73.101 57.434 113.253 3.807 10.825 10.887 37.97 11.867 45.5.323 2.475 1.219 7.87 1.993 11.996 3.023 16.1 4.669 34.523 5.197 58.25 1.443 64.874-9.992 118.378-36.703 171.75-1.999 3.995-5.326 7.988-7.58 11.988h6.279c7.018-12.388 13.264-24.701 17.983-36.99 5.628-14.659 17.232-52.199 19.32-62.5 5.06-24.964 5.273-27.613 5.242-65.5-.022-27.203-.455-40.194-1.684-51.001-1.764-15.524-4.904-35.424-7.262-45.996a993 993 0 0 1-2.785-13c-2.288-11.109-13.976-45.118-20.276-59.004-9.609-21.18-25.012-50.511-30.723-58.498-1.18-1.65-4.287-6.602-6.899-11.002-2.61-4.4-6.745-11.131-9.191-14.968s-4.45-7.335-4.45-7.773c0-1.492 9.38-6.752 12.04-6.752 3.182 0 4.078.987 11.048 12.216a3399 3399 0 0 0 10.639 17c16.861 26.737 25.318 45.793 41.607 93.778 3.084 9.084 9.932 34.68 12.04 45.003 6.657 32.595 8.127 49.201 8.127 91.497 0 38-.02 38.3-6.043 73.502-3.747 21.9-8.636 38.705-19.93 68.498-3.507 9.253-10.048 20.41-15.926 31.49h7.563c1.063-2.39 1.266-3.078 2.812-6.348l5.97-12.64 5.278.028 5.278.037-2.584 2.217c-1.421 1.22-4.302 3.581-6.407 5.252-4.166 3.307-3.73 5.802.446 11.454h16.9c1.878-2.022 4.15-4.335 4.15-5.07 0-1.052-1.58-4.109-3.504-6.788-1.925-2.68-3.504-5.377-3.504-5.998 0-1.406 14.608-1.572 15.471-.175.615.995-5.044 10.647-9.282 18.03h91.124c1.592-1.278 3.902-3.104 4.686-3.753 10.086-8.342 29.396-19.188 52.502-29.502 15.652-6.987 15.66-6.988 16.982 1.021.811 4.92.277 5.135-6.608 2.705-8.33-2.94-10.227-.543-10.329 13.044l-.045 5.998 4.505 2.282c5.97 3.03 13.039 2.768 14.488-.534.543-1.237 1.285-2.244 1.656-2.244.931 0 2.16 7.697 1.42 8.895-.174.281-2.744 1.316-4.387 2.089h12.932c-5.686-25.117-10.936-51.47-12.049-64.984-4.06-49.284-3.644-75.27 2.039-128 2.852-26.472 2.837-26.439 6.279-26.834 1.573-.18 3.237.048 3.695.506s-.073 10.282-1.183 21.83c-1.612 16.765-2.038 28.955-2.103 60.495-.075 36.778.105 41.077 2.603 62.454 1.476 12.627 3.108 24.777 3.622 27s1.888 9.222 3.058 15.547c1.973 10.664 5.503 21.161 8.336 31.986h3.258c-.596-1.966-1.51-5.257-1.738-5.814-3.885-9.504-10.864-53.285-14.534-91.175-1.784-18.42-1.526-72.843.428-89.5.58-4.95 1.582-14.17 2.22-20.496.64-6.325 1.623-12.063 2.185-12.75.561-.688 2.989-1.251 5.396-1.251 2.79 0 4.406.454 4.46 1.25.243 3.568-.242 15.09-1.784 42.06-1.62 28.335-1.617 31.117.073 56.005.978 14.403 2.402 31.134 3.167 37.184 1.6 12.67 7.156 41.19 11.002 56.502 1.45 5.775 3.024 12.298 3.504 14.498s2.242 8.266 3.913 13.487h17.437c1.562-6.343 4.44-12.99 6.097-12.99 1.815 0 14.459 6.994 19.312 10.68 1.007.766 1.021 1.62 1.483 2.31h12.213c-2.921-6.233-6.965-14.233-9.037-19.99a5380 5380 0 0 0-5.988-16.495c-11.18-30.665-19.576-60.02-24.016-83.999-5.107-27.579-6.97-75.771-3.968-102.397 3.056-27.105 9.005-58.052 14.543-75.61 1.734-5.5 3.606-11.546 4.159-13.44.552-1.893 2.595-7.289 4.532-11.995 1.936-4.707 4.394-10.81 5.47-13.56 3.485-8.916 14.82-30.663 23.451-45.003 12.397-20.596 22.613-34.414 43.574-58.931 4.246-4.966 7.394-9.356 6.998-9.751-.396-.396-38.053-.84-83.68-.994l-82.951-.276-1.957 3.478c-19.523 34.657-48.809 59.469-91.424 77.467-11.702 4.942-12.776 4.8-14.753-1.996-.88-3.028-1.447-6.276-1.264-7.222.222-1.153 2.963-2.63 8.318-4.461 13.352-4.57 23.33-9.657 38.013-19.393 11.541-7.652 16.218-11.555 26.5-22.106 10.393-10.663 13.664-14.81 19.485-24.7 3.847-6.536 7.92-12.49 9.055-13.238 1.7-1.12 19.344-1.376 100.498-1.444 54.14-.045 99.226.224 100.188.598 2.96 1.151 2.004 3.462-4.523 10.855-39.477 44.713-69.929 89.416-84.553 124.117-11.482 27.244-21.163 62.12-23.316 84-4.59 46.643-5.462 64.768-4.023 83.75 1.825 24.057 5.625 47.499 10.739 66.244 10.152 37.208 21.802 65.809 37.64 96.492h5.388c-4.283-8.096-9.31-16.333-12.505-23.422-11.607-25.76-13.058-29.658-22.615-60.568-3.255-10.529-8.222-31.554-9.446-39.999-.678-4.675-1.848-11.46-2.603-15.077-4.271-20.471-3.722-68.034 1.147-99.417 4.49-28.941 5.595-34.855 9.082-48.38 4.891-18.967 8.235-28.317 16.136-45.122 2.198-4.675 4.736-10.302 5.642-12.502 1.603-3.89 12.418-22.311 20.877-35.564 4.043-6.335 20.9-29.01 32.298-43.44 6.696-8.477 35.353-39.257 37.221-39.98.734-.284 4.45-.805 8.254-1.159 9.058-.842 9.1.547.282 8.289-3.644 3.2-11.366 11.228-17.163 17.837s-11.805 13.363-13.35 15.013c-3.197 3.412-13.146 15.114-19.913 23.413-5.926 7.267-23.92 32.988-24.954 35.665-.44 1.14-3.29 5.925-6.334 10.644-6.803 10.546-15.124 27.12-20.012 39.87-8.592 22.416-15.879 52.361-17.628 72.408-.432 4.95-1.336 11.925-2.002 15.5-.752 4.036-1.253 17.692-1.329 36.006-.16 38.73 1.525 53.155 10.293 88.001 9.24 36.722 23.95 68.693 43.073 101.984h17.392c2.647-1.082 5.84-2.411 8.063-3.45 2.75-1.286 10.625-4.7 17.5-7.58s15.302-6.514 18.73-8.077c6.866-3.133 47.73-20.562 64.267-27.414 19.94-8.263 37.533-15.713 46.277-19.595 4.826-2.142 10.789-4.429 13.25-5.087l4.469-1.196v-66.723l-9.064 7.691c-11.785 9.998-29.108 27.756-37.659 38.61-7.164 9.093-17.04 22.867-18.856 26.291-1.67 3.15-7.422 12.615-10.211 16.807-1.57 2.36-4.207 4.528-7.053 5.787-4.246 1.878-4.803 1.906-8.418.46-4.586-1.836-5.153-1.574-7.763 3.541-2.654 5.203-8.973 6.853-8.973 2.346 0-2.116 14.094-29.232 19.612-37.735 9.16-14.115 23.284-33.882 29.386-41.121 12.207-14.484 26.269-27.645 44.51-41.646 9.298-7.135 12.496-8.111 12.496-3.817 0 1.054.442 1.922.992 1.922 1.412 0 1.249-3.361-.237-4.848-.99-.988-.975-1.404.073-2.051.777-.48 1.183-2.144.992-4.057l-.328-3.238-11.203 7.847c-25.997 18.2-48.167 41.27-72.395 75.342-8.826 12.412-14.813 22.842-25.472 44.36l-7.854 15.859-5.47 2.42c-8.32 3.679-10.101 3.96-10.101 1.6 0-2.14 6.642-17.605 12.895-30.017 10.37-20.586 28.98-48.261 45.876-68.222 14.487-17.114 40.923-41.208 61.102-55.684 13.762-9.873 13.33-9.424 12.959-13.182l-.337-3.358-5.997 4.397c-3.3 2.418-8.21 5.68-10.912 7.25-4.758 2.763-4.954 2.793-6.343.965-1.8-2.369-1.12-18.814.956-23.072 1.156-2.372 1.95-2.792 5.087-2.695 2.044.063 6.59 1.523 10.092 3.247 3.504 1.725 6.645 3.137 6.99 3.137s.628-1.322.628-2.935c0-3.32-2.834-5.779-10.384-9.015-2.894-1.24-4.614-2.616-4.614-3.68 0-1.703 9.977-12.252 13.25-14.01 1.664-.893 1.741-14.037 1.502-259.835l-.255-258.896-9.492 9.89c-5.225 5.44-15.013 15.591-21.75 22.556l-12.259 12.659v143.076c0 103.579-.299 143.262-1.1 143.758-.61.377-2.748-.96-4.751-2.962l-3.64-3.643-.501-70.734c-.275-38.903-.5-103.486-.5-143.518v-72.785l10.492-10.211c5.775-5.619 18.044-17.343 27.257-26.053l16.745-15.84v-5.41c0-5.258-1.288-7.207-2.421-3.661-.308.962-3.825 4.998-7.818 8.969-24.728 24.6-48.15 48.286-48.879 49.437-.467.738-.854 11.297-.864 23.467-.017 24.452-.201 25.188-6.043 24.02-7.381-1.476-28.29-19.63-33.09-28.73-4.494-8.518-11.826-32.725-11.867-39.17-.024-3.792-3.352-1.274-12.732 9.65-19.517 22.73-29.876 45.39-33.836 73.98-1.2 8.667-1.3 13.251-.491 22.567 2.942 33.886 12.164 55.351 35.383 82.361 3.216 3.741 6.295 6.65 6.844 6.467.548-.183 2.019-3.24 3.267-6.798 3.955-11.276 8.595-22.304 11.557-27.47 4.13-7.2 14.056-18.641 19.667-22.666 7.181-5.152 16.106-9.11 18.938-8.4l2.385.599.036 16.733c.019 9.202.188 45.755.373 81.23s.059 66.491-.282 68.921-1.236 4.618-1.984 4.867c-.79.262-8.856-7.102-19.23-17.553-19.748-19.895-18.564-19.195-31.906-18.775-28.876.908-63.045.894-63.968-.028-.762-.761-.133-2.903 2.193-7.415l3.267-6.347-.054-15.087c-.052-12.972-.424-16.422-2.649-24.654-2.528-9.358-3.412-11.834-12.25-34.424-2.366-6.05-5.537-14.606-7.043-19.006-9.825-28.712-11.897-35.155-14.543-45.113-1.624-6.115-2.957-11.413-2.957-11.766s2.255-2.028 5.014-3.726 5.49-3.955 6.061-5.023c.572-1.068 1.064-5.15 1.101-9.06.05-5.2.602-8.01 2.048-10.46 1.991-3.376 2.018-5.35.227-15.474-.502-2.838-.117-4.456 1.784-7.497 1.334-2.134 4.144-7.033 6.243-10.883s8.311-14.873 13.806-24.498c19.658-34.436 26.546-46.597 30.268-53.494 2.078-3.85 6.817-12.295 10.539-18.757l6.77-11.748h-6.716c-5.71 0-6.74.271-6.852 1.776-.074.973-1.97 5.01-4.214 8.97-2.244 3.959-4.077 7.415-4.077 7.68 0 .266-3.082 5.783-6.844 12.272-3.761 6.49-8.943 15.693-11.521 20.45-5.392 9.95-5.7 10.27-11.33 11.776-5.114 1.367-9.772 6.603-11.613 13.063-1.237 4.342-1.411 4.506-4.777 4.213-7.887-.687-12.904 4.426-12.914 13.155-.003 4.212.455 5.304 3.494 8.344 1.926 1.925 3.504 3.647 3.504 3.827s-2.565 1.545-5.697 3.026c-4.783 2.263-6.581 2.606-11.248 2.144-5.607-.556-14.06-3.386-14.06-4.71 0-.395 1.913-.975 4.25-1.288 7.497-1.006 12.28-9.667 9.837-17.82-1.213-4.048-4.41-8.152-7.025-9.024-1.064-.354-1-1.064.309-3.597 4.96-9.59-1.309-22.223-11.813-23.798-9.086-1.363-17.501 6.711-17.536 16.834l-.019 4.802-3.376-.634c-6.372-1.196-12.338 3.611-13.733 11.076-1.426 7.633 2.266 13.41 10.857 17 1.788.747 3.25 1.807 3.25 2.346 0 1.512-10.744 3.384-16.61 2.897-5.225-.433-18.513-6.191-19.102-8.279-.154-.55 1.669-1.799 4.05-2.778 6.166-2.535 9.165-6.914 9.165-13.394 0-5.818-2.33-9.918-6.908-12.162-2.585-1.267-2.64-1.452-1.128-3.505 4.91-6.67 5.524-12.673 2.047-19.999-2.29-4.825-10.748-9.165-16.39-8.408-8.955 1.2-15.102 6.834-15.134 13.863-.021 4.731-.94 5.715-5.233 5.593-7.065-.2-12.116 5.853-12.131 14.544-.01 5.362 2.138 9.026 7.171 12.245 1.72 1.1 3.146 2.3 3.167 2.668.069 1.19-8.962 2.63-13.778 2.198-5.568-.5-13.244-3.687-18.438-7.663-4.176-3.197-4.155-4.17.11-5.023 1.593-.318 4.531-2.122 6.525-4.001 3.01-2.84 3.622-4.1 3.622-7.48 0-5.752-1.508-9.02-5.07-10.993-6.395-3.543-6.356-3.468-4.04-7.267 3.726-6.112 1.867-14.436-4.095-18.325-3.538-2.308-11.058-3.683-14.598-2.668-7.335 2.104-12.703 9.13-12.003 15.722.292 2.748.141 2.851-5.197 3.367-6.979.673-9.808 2.26-11.585 6.513-3.102 7.423-.868 15.062 5.251 17.966 1.789.849 3.478 1.91 3.759 2.364 1.779 2.879-15.261 5.2-23.161 3.156-14.111-3.654-23.487-10.037-14.743-10.037 5.556 0 11.163-4.109 12.531-9.19 2.24-8.314-1.603-14.26-10.82-16.743-3.98-1.071-4.202-1.317-3.504-3.854 3.902-14.191-11.932-25.868-23.98-17.681-5.18 3.52-6.99 7.45-6.58 14.314l.337 5.62-3.668.599c-8.253 1.346-11.266 5.722-10.593 15.372.386 5.52.712 6.199 4.715 9.75 2.365 2.1 5.14 3.819 6.17 3.819 2.882 0 2.225 1.768-1.347 3.615-7.084 3.663-23.71 3.525-27.73-.23-1.248-1.167-.87-1.848 2.721-4.922 5.329-4.56 6.748-9.112 4.56-14.58-2.303-5.755-5.88-7.884-13.269-7.884-4.958 0-6.232-.332-6.68-1.748-3.28-10.37-7.06-13.714-15.553-13.753-3.13-.014-5.892-.248-6.142-.515-1.697-1.816-12.557-23.78-12.022-24.314.366-.367-2.4-.672-6.152-.672m361.675.322c-.722-.289-1.588-.258-1.92.074s.256.568 1.31.524c1.165-.048 1.408-.278.61-.598m-261.196 38.775c1.321-.002 2.646.6 4.132 1.803 2.313 1.873 2.32 1.942.61 5.53-2.132 4.47-2.27 13.635-.264 17.515 3.091 5.978 17.402 14.292 27.638 16.053 11.673 2.007 27.321-2.562 34.728-10.138 3.95-4.04 4.863-7.235 3.23-11.288-2.192-5.441-2.25-6.243-.573-7.92 2.962-2.962 11.503-1.536 11.503 1.922 0 .828-.975 2.824-2.165 4.434-1.366 1.848-2.33 4.927-2.612 8.335-.403 4.855-.101 5.905 2.92 10.386 4.575 6.783 15.216 15.597 21.287 17.626 5.673 1.895 15.262 2.132 21.068.524 9.401-2.604 14.81-9.79 14.952-19.88.05-3.574.449-7.058.883-7.745 1.127-1.784 8.222-1.558 10.102.322 2.27 2.27 2.011 3.068-2.357 7.35-4.482 4.393-6.637 10.254-5.67 15.409.902 4.806 9.465 12.506 19.339 17.387 7.52 3.717 7.848 3.782 19.202 3.78 9.916-.002 12.128-.31 15.59-2.161 2.217-1.187 4.547-3.212 5.177-4.499 2.138-4.366 3.447-12.59 2.749-17.249-.837-5.58.474-7.589 4.96-7.589 5.855 0 7.565 5.064 3.112 9.209-2.886 2.685-5.533 9.607-5.533 14.452 0 10.134 22.034 19.65 34.491 14.893 2.48-.946 4.999-1.56 5.597-1.361 2.136.712-2.605 4.91-6.589 5.832-6.562 1.52-15.801.511-21.313-2.327-1.477-.76-4.715-2.431-7.19-3.708-2.475-1.276-5.506-3.216-6.734-4.314-2.18-1.948-2.334-1.957-6.498-.212-11.03 4.623-14.451 5.47-22.36 5.502-13.705.055-24.662-4.823-32.963-14.664-7.1-8.42-5.275-7.876-16.945-4.959-4.692 1.173-8.179 1.313-15.999.644-15.973-1.365-21.233-3.72-31.488-14.056l-6.943-6.992-3.786 1.684c-13.888 6.153-22.757 7.456-34.346 5.06-9.948-2.058-17.273-4.88-23.77-9.163-2.936-1.935-5.866-3.523-6.507-3.523-.642 0-3.301 1.517-5.916 3.376-8.052 5.725-14.291 7.92-23.944 8.417-12.186.627-21.669-1.736-25.79-6.43-1.657-1.887-3.013-4.15-3.013-5.023 0-1.437.22-1.429 2.257.046 1.238.896 3.24 2.335 4.45 3.201 7.127 5.104 24.094 5.568 32.953.902 11.997-6.318 17.695-14.45 15.563-22.216-.57-2.075-1.638-5.276-2.376-7.112-1.252-3.114-1.184-3.467 1.02-5.252 1.491-1.209 2.81-1.81 4.131-1.813m-67.854 11.214c.244-1.304 1.558-1.374 3.822.46 1.76 1.425 2.115 2.616 1.857 6.247l-.319 4.48-2.748-4.223c-2.025-3.115-2.856-5.66-2.612-6.964m399.407 25.998c1.553-.478 2.544.509 3.358 2.842 1.97 5.651 1.33 7.844-4.305 14.737-5.604 6.856-14.816 22.063-19.72 32.566-3.84 8.223-7.882 29.08-7.882 40.67 0 11.21 3.953 31.46 8.054 41.277 3.135 7.505 11.664 21.775 20.085 33.596 3.384 4.75 4.123 9.777 1.838 12.53-1.823 2.196-3.248 1.821-6.761-1.803-9.494-9.795-22.374-31.893-27.157-46.586-4.559-14.007-5.577-21.831-5.396-41.636.146-16.064.454-19.018 2.803-27.496 1.447-5.225 3.07-11.22 3.604-13.312 2.548-9.983 13.865-28.935 24.744-41.443 3.066-3.525 5.18-5.465 6.735-5.942m-332.035 2.097c2.576-.647 7.49 1.726 7.49 3.615 0 .975-2.053 1.055-7.254.267-3.438-.52-3.59-3.04-.236-3.882m66.425 6.624c2.328-1.246 4.51-.405 7.48 2.879 1.873 2.069 1.869 2.095-.509 1.978-7.48-.368-10.901-2.754-6.971-4.857m272.253 9.585c1.834 1.134-.062 6.274-5.042 13.634-11.363 16.795-14.41 25.056-16.781 45.61-1.38 11.96-1.378 14.582-.028 25.003 2.4 18.514 8.264 34.24 18.493 49.585 2.944 4.416 3.767 6.477 3.203 8.003-1.27 3.44-3.35 2.737-7.362-2.484-8.713-11.336-15.32-27.168-20.54-49.225-1.639-6.923-1.415-30.76.382-40.238 2.927-15.432 5.866-22.173 16.864-38.71 7.012-10.546 8.812-12.413 10.811-11.178m-206.556 8.4c1.264-.009 3.196 1.383 4.75 3.421 1.443 1.892 2.28 3.63 1.866 3.864-1.158.655-12.54-3.685-12.959-4.94-.389-1.166 2.744-2.323 6.343-2.346m212.708 11.158c5.923-.678 8.482 5.453 4.905 11.738-.962 1.691-2.27 3.079-2.912 3.082-1.392.008-4.308-7.257-4.614-11.49-.189-2.615.147-3.047 2.621-3.33m-144.836 4.075c1.987.23 3.732 1.277 5.997 3.23l3.996 3.449-5.998-.147c-17.533-.431-19.904-1.433-11.457-4.857 3.24-1.314 5.475-1.905 7.462-1.675m135.08.755c1.026 0 3.413 6.965 3.413 9.962 0 .596-1.14 1.52-2.54 2.052-5.549 2.11-7.462 2.27-7.462.616 0-2.496 5.287-12.63 6.59-12.63m-333.081 5.602c19.391.02 27.122.413 34.491 1.766 15.481 2.842 24.185 4.68 29.695 6.256 5.695 1.629 6.503 2.921 7.854 12.548.361 2.572 3.045 13.826 5.961 25.003 9.287 35.602 10.244 38.776 20.494 67.827 5.244 14.86 10.255 35.363 11.504 47.1.863 8.117-.273 8.965-6.444 4.82-6.937-4.658-13.736-5.065-21.659-1.306-4.735 2.247-10.232 7.734-12.013 11.996-1.663 3.98-1.821 14.84-.282 19.255.607 1.741.82 4.302.473 5.685-.697 2.78-20.463 22.7-24.844 25.04-2.497 1.333-2.836 1.311-3.413-.193-.352-.917-.124-2.487.5-3.487 3.73-5.97 17.055-31.867 17.583-34.166 1.347-5.869-1.509-2.264-6.735 8.5-12.18 25.09-28.951 45.779-39.205 48.352-3.953.992-3.08-1.72 3.331-10.322 14.636-19.635 30.73-50.274 26.4-50.274-.443 0-1.612 1.913-2.593 4.25-3.062 7.297-11.38 23.24-14.816 28.398-8.778 13.182-22.286 28.97-27.292 31.904-4.618 2.706-10.477 3.067-11.258.69-.227-.692 2.49-4.296 6.034-8.004 12.109-12.672 32.726-44.14 32.726-49.943 0-3.533-2.503-.256-7.617 9.954-5.61 11.2-15.753 25.83-24.363 35.141-6.582 7.119-13.633 11.98-20.958 14.443-7.185 2.415-11.575 2.753-12.668.984-.771-1.247 2.215-4.1 11.612-11.112 7.845-5.855 15.263-13.046 20.185-19.567 2.341-3.102 5.454-7.062 6.926-8.804 3.036-3.594 11.189-19.368 10.41-20.146-1.011-1.013-4.798 3.422-7.526 8.812-1.53 3.025-4.771 8.2-7.207 11.5-6.666 9.03-23.58 25.56-30.032 29.355-15.362 9.034-33.274 12.63-41.763 8.39-5.124-2.56-4.552-4.616 1.502-5.4 6.164-.8 21.065-6.015 28.685-10.046 10.063-5.324 27.374-22.393 36.575-36.062 4.5-6.684 5.486-10.456 1.32-5.04-9.104 11.832-17.66 21.629-21.742 24.883-2.658 2.12-5.617 4.628-6.57 5.575-3.911 3.886-11.282 8.133-20.613 11.876-9.04 3.627-10.674 3.965-19.166 3.965-8.003 0-10.035-.368-14.68-2.64-15.676-7.67-19.037-25.98-6.834-37.23 5.835-5.378 10.839-6.827 18.038-5.216 8.799 1.97 14.488 8.065 14.488 15.52 0 7.69-5.517 15.565-10.903 15.565-2.675 0-2.8-3.08-.19-4.71 1.047-.655 2.443-2.823 3.102-4.82 1.002-3.036.926-4.358-.49-8.068-3.257-8.525-12.887-9.943-19.385-2.852-3.104 3.387-3.33 4.08-2.93 8.905.548 6.616 3.383 10.68 9.5 13.642 10.818 5.237 23.656 2.629 38.669-7.856 10.173-7.104 24.626-23.033 24.626-27.138 0-3.297-3.203-1.137-6.398 4.315-3.922 6.693-14.272 16.547-22.405 21.333-10.307 6.065-12.384 5.575-10.157-2.383.965-3.445 2.213-5.13 5.452-7.36 6.466-4.448 18.105-17.466 21.122-23.632 2.584-5.281 2.65-5.83 1.538-11.858-.64-3.475-.9-7-.582-7.829 2.452-6.39 28.882-4.52 36.184 2.558 4.831 4.683 5.933 2.668 2.93-5.336l-2.403-6.412-4.14.34c-3.072.25-6.326-.6-12.532-3.265-4.61-1.98-11.019-4.09-14.242-4.683s-6.43-1.54-7.117-2.106c-.724-.597-1.247-3.35-1.247-6.541 0-3.725-.632-6.533-1.956-8.675-2.224-3.599-8.763-8.586-14.26-10.883-4.451-1.859-5.41-4.616-3.769-10.8 1.177-4.43 6.788-18.172 12.095-29.612 1.59-3.426 2.885-6.491 2.885-6.808s.935-2.604 2.066-5.087 2.76-7.375 3.622-10.864c1.761-7.138 1.433-10.444-3.067-30.864-3.146-14.28-3.339-19.927-.755-22.51 3.394-3.395 13.872-4.563 40.643-4.536m355.36 3.413c.752-.007 3.107 1.72 5.232 3.845l3.868 3.864-3.03 8.886c-2.712 7.953-3.04 10.2-3.104 21.389-.069 12.132.043 12.787 3.695 22.28l3.768 9.78-2.403 2.566c-4.522 4.846-7.419 6.439-9.264 5.087-2.235-1.636-6.153-13.528-8.746-26.549-1.903-9.557-2.007-11.76-1.037-21.168 1.531-14.854 7.078-29.944 11.02-29.98m-276.504 8.39c5.003.938 6.298 2.634 7.09 9.291.38 3.19 2.058 10.304 3.731 15.804 2.992 9.836 10.878 37.113 14.789 51.158 1.096 3.937 3.821 12.483 6.06 18.996 4.309 12.532 7.473 23.85 11.695 41.848 2.055 8.76 2.597 13.746 2.675 24.498.089 12.146-.124 13.96-2.175 18.122-3.542 7.19-12.645 15.273-19.411 17.24-7.536 2.19-11.457 2.06-16.773-.57-11.904-5.893-17.194-18.3-12.55-29.42 8.013-19.18 36.13-14.556 35.912 5.906-.045 4.146-.553 5.29-3.84 8.657-7.05 7.22-15.346 7.148-20.932-.175-3.47-4.55-3.382-8.167.29-11.84 3.996-3.995 9.985-4.124 13.006-.285 1.14 1.45 2.075 3.288 2.075 4.085 0 2.192 2.452.92 2.803-1.454.424-2.866-5.09-8.875-8.828-9.622-7.397-1.48-15.81 5.81-14.688 12.722 1.07 6.597 3.276 10.129 7.872 12.567 3.646 1.934 5.266 2.224 9.055 1.655 6.234-.934 12.15-5.405 15.261-11.545 2.215-4.37 2.521-6.244 2.521-15.38 0-10.58-1.848-23.898-4.586-33.082-1.375-4.608-7.73-24.679-17.137-54.082a2000 2000 0 0 0-6.461-19.806c-1.617-4.842-3.548-11.587-4.296-14.995-.747-3.409-2.734-11.597-4.414-18.197-5.276-20.74-5.13-23.294 1.256-22.096m262.689.248c.52.52.052 3.683-1.129 7.617-1.209 4.03-2.56 6.725-3.376 6.725-3.074 0-8.7-9.322-7.144-11.84.896-1.45 10.614-3.537 11.649-2.502m29.795 1.352c1.63.005 11.463 3.764 13.906 5.318.94.598 1.25 6.41 1.237 23.485-.008 12.48-.368 23.234-.791 23.9s-2.425 1.904-4.45 2.75c-4.454 1.861-9.154 1.988-10.448.286-9.052-11.907-10.911-32.376-4.36-47.993 2.202-5.247 3.784-7.749 4.906-7.746m-279.188 2.99c4.071 0 6.942 3.958 8.792 12.088 1.932 8.498 7.55 28.91 10.984 39.916 1.287 4.125 4.008 13.346 6.052 20.496s4.545 15.475 5.551 18.5c12.924 38.842 16.528 55.223 15.753 71.561-.666 14.054-4.885 22.882-14.151 29.594-3.712 2.69-6.528 3.345-9.392 2.19-2.353-.95-1.247-3.648 3.595-8.767 8.755-9.258 11.222-19.567 8.636-36.153-3.214-20.617-6.246-32.199-17.655-67.422-3.83-11.825-7.618-23.522-8.409-25.997-.79-2.475-3.468-13.055-5.952-23.505s-5.154-21.39-5.933-24.313c-1.675-6.286-1.176-8.188 2.13-8.188m-97.74 3c-14.376 0-22.949 3.738-21.532 9.382 1.074 4.28 3.457 4.812 13.979 3.119 9.758-1.57 19.608-1.41 27.902.45 8.488 1.905 27.044 9.936 34.664 15.005 10.415 6.928 12.073 4.89 2.885-3.542-6.525-5.99-10.579-8.802-18.81-13.054-16.784-8.668-26.044-11.36-39.088-11.36m328.085 1.002c1.287 0 6.575 5.165 7.881 7.7 1.02 1.977.71 2.484-3.121 5.078-6.229 4.218-6.56 4.36-7.299 3.164-.653-1.057.133-10.64 1.165-14.194.28-.963.895-1.748 1.374-1.748m-216.248 1.003c3.216.006 8.173 3.813 8.746 6.715 1.56 7.911 4.017 17.875 6.734 27.285 7.315 25.333 21.685 72.835 26.82 88.645 1.098 3.38 3.079 11.38 4.404 17.773 3.212 15.486 2.411 25.28-2.93 35.794-3.355 6.605-5.991 9.612-10.948 12.502-2.832 1.651-6.525 1.588-7.18-.12-.296-.77 1.07-3.636 3.03-6.365 8.1-11.274 9.857-20.492 7.108-37.304-1.849-11.303-7.436-33.397-10.475-41.424-2.306-6.09-7.245-21.501-9.929-31.002-1.087-3.85-3.602-12.396-5.588-18.996-4.793-15.93-11.548-45.029-11.548-49.74 0-2.92.399-3.766 1.756-3.763m18.948 7.497c3.361 1.433 3.93 2.796 7.298 17.497 2.287 9.98 8.715 31.213 15.29 50.504 19.913 58.432 23.317 73.057 20.803 89.5-1.386 9.068-4.955 16.793-9.665 20.929-2.462 2.162-4.52 3.072-6.962 3.072-4.461 0-4.433-1.23.21-9.024 3.981-6.684 6.227-15.665 6.288-25.151.058-8.868-4.68-27.74-13.505-53.825-3.98-11.761-9.127-28.854-13.405-44.497-.451-1.65-1.951-6.824-3.331-11.5-1.38-4.674-3.92-14.778-5.642-22.446-3.56-15.851-3.26-17.565 2.62-15.059m9.82 4.13c2.315-.888 10.17 2.771 10.783 5.023.278 1.018 1.755 7.024 3.276 13.349 2.951 12.266 8.949 33.191 10.466 36.502.504 1.1 4.087 11.901 7.963 24.001s8.358 26.043 9.956 30.993c4.626 14.33 8.278 33.919 7.763 41.6-.647 9.645-6.432 21.462-12.058 24.616-2.978 1.67-7.616 1.587-8.282-.147-.302-.787.356-2.7 1.465-4.25 1.11-1.55 3.229-6.762 4.705-11.582 2.298-7.5 2.62-10.018 2.221-17.497-.548-10.283-2.896-18.697-18.356-65.738-2.35-7.15-4.72-14.57-5.26-16.494-.54-1.925-3.3-11.156-6.143-20.506s-5.99-20.825-6.99-25.5c-.998-4.675-2.117-9.675-2.493-11.113-.509-1.947-.26-2.78.983-3.257m202.06 3.045c1.03.396 1.42 2.405 1.42 7.378 0 3.759-.412 7.079-.911 7.387-1.489.92-11.251-7.374-10.903-9.263.374-2.023 8.396-6.268 10.393-5.502m-187.109 3.367c.88-1.423 3.962-1.306 7.809.304 3.1 1.297 3.34 1.845 6.634 14.756 5.077 19.905 13.872 47.574 23.161 72.895 6.424 17.512 9.666 29.396 10.984 40.275.55 4.527 1.18 8.749 1.402 9.383s-.043 4.46-.583 8.5c-1.082 8.103-4.54 16.249-9.11 21.453-2.285 2.603-3.761 3.394-6.37 3.394-2.603 0-3.403-.423-3.403-1.803 0-.99.399-2.228.883-2.75.483-.523 1.44-2.75 2.129-4.95.688-2.2 1.579-4.445 1.975-4.995 1.642-2.28 3.259-13.87 2.694-19.272-.863-8.253-4.234-21.994-8.646-35.234-20.1-60.322-31.337-99.078-29.559-101.956m-160.47 2.852c-1.375.383-2.503 1.353-2.503 2.153 0 1.195 2.352 1.47 13.15 1.545 16.545.117 22.684 1.94 38.469 11.398 15.67 9.39 18.994 9.146 4.377-.322-7.376-4.778-25.478-13.426-30.569-14.599-4.944-1.14-19.069-1.247-22.924-.175m177.998.644c1.362-.804 3.631-.664 6.461.626 2.712 1.235 3.427 3.199 12.077 32.841 4.742 16.252 8.745 28.226 17.2 51.498 7.851 21.61 9.62 28.105 11.294 41.498 1.002 8.02.937 10.887-.4 18.399-1.714 9.619-6.024 18.406-10.63 21.664-4.39 3.105-9 3.344-9 .46 0-.722 1.573-4.63 3.494-8.675 3.619-7.62 5.484-17.701 4.97-26.844-.238-4.217-5.391-26.48-7.409-32.004-5.69-15.579-9.14-25.36-10.402-29.502-.838-2.75-3.772-11.56-6.525-19.576s-6.404-20.84-8.109-28.5c-1.704-7.659-3.523-15.236-4.04-16.844-.8-2.487-.343-4.237 1.02-5.04m15.48 2.852c2.123-1.552 5.317-.639 6.99 1.996.738 1.164 2.539 6.616 3.995 12.116 3.125 11.807 8.967 29.497 15.034 45.5 15.244 40.208 19.839 57.713 19.94 76.023.06 11.06-.072 11.787-3.222 18.187-2.255 4.578-4.583 7.619-7.445 9.723-4.628 3.404-4.67 3.42-6.762 2.098-1.263-.8-1.289-1.44-.19-4.241.71-1.812 2.677-7.34 4.368-12.29 2.93-8.579 3.037-9.515 2.448-20-.86-15.283-2.052-20.041-11.185-44.497-4.972-13.313-7.867-21.917-11.43-34-1.216-4.125-3.246-10.658-4.514-14.508s-2.77-8.793-3.34-10.993-2.222-8.492-3.668-13.974c-2.39-9.068-2.484-10.069-1.019-11.14m16.463.607c4.358 0 5.535 1.09 6.534 6.007 1.286 6.323 10.186 34.224 15.471 48.499 8.35 22.554 12.033 33.123 16.718 48.002 4.01 12.732 4.458 15.223 5.005 27.515.49 10.972.297 14.593-1.055 19.245-1.777 6.111-6.132 11.919-10.712 14.287-3.628 1.876-4.591 1.823-5.797-.304-.75-1.323-.288-3 1.893-6.881 1.586-2.823 3.58-7.817 4.432-11.104 1.385-5.345 1.388-7.225.064-17.865-.814-6.54-2.545-15.72-3.85-20.395-2.44-8.742-22.226-66.52-25.099-73.29-2.727-6.427-8.62-29.9-8-31.858.437-1.375 1.566-1.858 4.396-1.858m32.771.258c.527.687 1.523 3.904 2.22 7.148 1.447 6.714 12.051 38.914 21.105 64.1 3.361 9.35 6.483 18.35 6.935 20s1.733 5.928 2.857 9.502 3.257 11.213 4.733 16.973c4.6 17.962 2.547 33.477-5.725 43.301-2.778 3.3-9.837 5.044-9.837 2.429 0-.853 1.687-4.846 3.75-8.877 3.69-7.215 3.749-7.512 3.749-18.831 0-9.034-.507-13.323-2.367-20-2.794-10.035-17.551-52.944-21.15-61.497-1.188-2.826-5.548-15.061-10.092-28.325-4.617-13.479-6.523-23.715-4.805-25.785 1.44-1.735 7.335-1.826 8.627-.138m-19.275.745c2.443 0 4.734.467 5.088 1.04.353.571 1.471 4.507 2.484 8.748s3.475 12.218 5.479 17.718 5.162 14.5 7.016 19.999c1.855 5.5 5.458 15.617 8.009 22.492 7.9 21.29 15.302 44.278 16.535 51.36.649 3.724.994 11.13.774 16.458-.347 8.382-.788 10.407-3.313 15.022-1.604 2.933-4.208 6.416-5.788 7.746-3.674 3.091-8.727 3.31-8.727.377 0-1.122.973-3.93 2.157-6.246 5.513-10.783 6.368-24.893 2.42-39.953-3.277-12.502-5.04-17.826-13.814-41.755-13.618-37.138-22.76-65.548-22.76-70.734 0-2.02.49-2.272 4.44-2.272m-236.442.331c0 .732 1.139 3.54 2.53 6.246 1.789 3.48 2.464 6.223 2.293 9.356-.294 5.398 1.05 6.097 4.014 2.088 3.446-4.661 5.834-3.978 8.81 2.52 1.394 3.048 2.291 6.199 1.983 7.002-.722 1.882-4.697 1.876-7.19-.01-2.787-2.108-4.68-1.824-6.752 1.021-2.732 3.753-1.865 6.655 2.312 7.71 1.925.486 5.082 2.373 7.007 4.194 1.925 1.822 5.966 4.714 8.991 6.421 9.778 5.52 11.169 3.423 2.012-3.035-8.713-6.145-9.314-9.844-1.602-9.844 2.383 0 8.9-1.634 14.688-3.68 10.595-3.743 12.236-3.92 27.903-3.063 3.797.208 4.504-.042 4.504-1.6 0-1.743-6.252-5.836-24.189-15.842-6.505-3.628-18.252-5.76-28.494-5.16-7.942.464-11.888-.623-14.761-4.085-1.587-1.912-4.059-2.06-4.059-.239m345.304.672c1.779 0 7.699 6.229 7.699 8.104 0 .833-1.33 2.504-2.958 3.707-3.73 2.758-4.662 2.744-5.415-.064-1.142-4.264-.714-11.747.674-11.747m14.915 11.213c1.468-.447 2.68-.19 3.331.865 1.177 1.905 3.49 13.053 2.903 14.002-.679 1.098-.647 1.1-6.953-.8-8.681-2.618-9.576-4.935-4.131-10.709 1.659-1.759 3.383-2.91 4.85-3.358m-327.657 2.282c2.745 0 2.934.25 2.83 3.716-.06 2.043-.845 4.843-1.747 6.22-2.321 3.542-4.97 4.773-7.017 3.274-1.522-1.115-1.467-1.679.674-7.203 2.11-5.445 2.592-6.007 5.26-6.007m9.164 2.953c1.507-.445 3.001-.103 4.314 1.085 2.67 2.418 2.481 5.316-.428 6.422-8.802 3.346-12.175 1.783-8.281-3.846 1.37-1.98 2.888-3.216 4.395-3.661m309.284 13.642c.605-.503 8.178 1.856 9.328 2.907.457.419-.119 2.62-1.274 4.885-1.156 2.266-2.57 4.112-3.14 4.112-1.61 0-6.113-10.907-4.914-11.904m17.454 3.91c1.21.008 4.542 5.516 4.542 7.507 0 .743-1.306 2.284-2.903 3.422-3.06 2.179-6.59 2.707-7.563 1.131-.757-1.225 4.57-12.068 5.924-12.06m-357.744 23.182c-3.431-.4-3.402-.023.283 3.662 5.61 5.61 2.88 13.615-4.642 13.596-3.04-.007-5.626-1.213-12.23-5.722-9.118-6.223-8.892-6.138-12.432-4.792-4.886 1.857-4.134 9.897.81 8.656 1.444-.362 3.545.484 6.352 2.548 2.307 1.697 6.322 3.916 8.918 4.931 5.795 2.265 5.28 2.234 9.356.515 5.127-2.161 9.671-7.44 10.402-12.078.806-5.12-2.636-10.829-6.816-11.316m36.867 19.558c-5.53-.352-5.724 1.842-.364 4.14 7.727 3.312 10.044 10.273 5.296 15.915-1.364 1.62-3.852 3.224-5.533 3.56-3.949.79-11.393-2.025-18.1-6.844-6.682-4.8-13.062-7.52-19.876-8.473-6.504-.91-9.789.257-10.675 3.79-1.077 4.29.769 5.539 11.776 7.957 5.715 1.256 12.639 3.409 15.389 4.784s7.026 3.131 9.5 3.9c11.833 3.679 20.213.433 23.49-9.097 1.08-3.146 1.045-4.596-.182-8.823-1.947-6.702-5.702-10.49-10.721-10.809m-284.202 75.26c3.426 0 4.542.612 8.045 4.415 2.238 2.43 5.421 7.04 7.071 10.24 1.65 3.198 4.859 8.586 7.135 11.977s5.551 9.026 7.271 12.52c2.664 5.41 3.03 7.045 2.485 11.03-.525 3.83-1.13 4.882-3.313 5.786-1.913.793-3.458 2.925-5.478 7.562-1.55 3.556-3.106 6.47-3.459 6.476-.352.006-4.238 3.378-8.636 7.498-4.399 4.12-8.341 7.497-8.755 7.497s-.746.675-.746 1.5c0 2.189.95 1.886 6.425-2.006 2.707-1.925 5.265-3.495 5.679-3.495 1.743 0 3.895 3.354 3.895 6.071 0 1.85.513 2.926 1.401 2.926.947 0 1.626-1.72 2.066-5.253.995-7.982 2.265-10.3 8.136-14.83l5.397-4.158v-9.144c0-12.283 3.595-22.48 7.498-21.269.55.171 2.23 2.128 3.732 4.352 1.5 2.224 4.091 4.607 5.76 5.299 1.94.803 3.252 2.204 3.631 3.882 2.112 9.322 4.608 18.33 6.307 22.75 2.397 6.235 2.083 6.765-6.925 11.59-10.926 5.853-43.047 23.953-57.007 32.125-7.36 4.308-8.305 3.958-14.597-5.345-3.082-4.558-10.402-19.426-10.402-21.131 0-.51-1.57-4.173-3.494-8.141s-3.504-8.029-3.504-9.016-.862-4.588-1.92-8.003c-3.668-11.838-3.065-21.066 1.274-19.401 1.213.465 1.647 1.901 1.647 5.473 0 4.261.373 5.123 3.112 7.148 2.952 2.183 3.081 2.552 2.467 7.185-.624 4.7-.56 4.885 1.81 4.885 2.281 0 5.59 2.252 5.625 3.826.008.374.43 1.332.937 2.135.79 1.25 1.221 1.191 2.985-.405 2.893-2.618 2.577-4.639-1.201-7.654-3.216-2.566-8.897-12.935-15.644-28.564-3.554-8.233-4.23-17.049-1.52-19.76 1.888-1.888 6.285-2.001 8.628-.22 2.2 1.672 10.802 19.34 10.802 22.188 0 1.203-.93 3.367-2.066 4.811-1.984 2.523-1.852 5.33.191 4.066.543-.335 2.115-.328 3.495.019 2.844.714 5.378 5.69 5.378 10.56 0 3.764 2.335 4.908 5.033 2.466 2.712-2.455 2.49-3.757-1.538-9.034-4.714-6.175-5.278-8.874-2.63-12.456 2.269-3.069 2.132-3.336-2.148-4.36-5.14-1.23-8.757-10.675-5.215-13.615 2.23-1.851 1.824-2.999-1.064-2.999-4.06 0-6.475-1.834-8.537-6.495-2.35-5.312-1.418-8.636 2.94-10.44 3.697-1.532 6.023-.865 9.4 2.694 3.318 3.496 19.962 36.551 20.705 41.121.65 4.007 1.775 4.645 4.54 2.558 1.963-1.481 1.949-1.556-.755-6.366-3.085-5.49-3.416-7.872-1.228-8.712 2.645-1.015 1.602-3.121-1.866-3.772-4.352-.816-5.476-2.187-11.02-13.504-6.496-13.257-6.1-17.083 1.765-17.083m176.433 6.2c3.48.231 4.917.883 6.443 2.935 1.723 2.316 1.824 3.092.774 6.274-.747 2.263-2.279 4.18-4.068 5.105-4.213 2.178-7.715 1.83-10.612-1.067-2.156-2.156-2.451-3.138-1.902-6.255.917-5.196 3.814-7.361 9.365-6.992m-126.516 18.39c4.453-1.605 6.147.132 6.497 6.697.34 6.356-1.377 8.336-5.57 6.42-2.375-1.085-3.32-3.426-3.576-8.867-.127-2.71.307-3.407 2.649-4.25m102.636 7.405c2.204 0 7.482 5.517 6.616 6.918-1.386 2.242-9.1.425-10.184-2.401-.735-1.917 1.316-4.517 3.568-4.517m222.41 2.999h51.772c29.778 0 51.998.39 52.32.91.66 1.07-3.47 8.487-13.142 23.597l-7.034 10.993-32.553.267-32.562.267-6.498 7.736c-15.848 18.865-37.891 37.82-59.618 51.277-10.21 6.324-33.683 18.105-44.001 22.078-8.798 3.388-7.562 3.155-8.81 1.629-.915-1.12-6.215-29.483-6.215-33.256 0-1.589.64-1.917 15.498-8.03 12.096-4.978 32.63-16.946 45.612-26.587 15.312-11.37 30.885-28.232 38.623-41.82 1.427-2.505 3.5-5.57 4.605-6.807zm133.095 0c10.085 0 17.694.41 18.037.966.327.529-3.133 5.302-7.69 10.607-4.556 5.305-10.012 12.185-12.122 15.289s-4.747 6.434-5.86 7.396c-1.74 1.503-4.2 1.748-17.419 1.748-13.63 0-15.389-.186-15.389-1.647 0-1.802 17.615-28.973 20.94-32.298 1.922-1.922 3.228-2.061 19.503-2.061m-90.56 2.005c-.497 0-1.538.786-2.32 1.748a895 895 0 0 1-5.989 7.194c-6.154 7.33-6.05 9.376.865 15.915 3.459 3.271 6.328 5.142 7.863 5.142 3.188 0 12.704-9.915 12.704-13.238 0-2.35-11.283-16.76-13.123-16.76m34.737 0c-3.694 0-13.614 11.496-13.614 15.777 0 2.318 5.262 10.028 8.855 12.971.839.688 1.848 1.251 2.247 1.251 1.722 0 14.024-11.658 14.561-13.799.718-2.857-.899-6.049-5.988-11.83-2.362-2.683-4.702-4.37-6.06-4.37m-70.639 2.41c-1.979-.342-3.33.193-4.04 1.592-1.294 2.55-2.68 16.376-1.866 18.61.433 1.187 3.989 3.916 8.1 6.21 4.029 2.248 8.07 4.105 8.973 4.13 2.042.058 2.366-.783 3.84-10.018 1.568-9.82.73-11.787-7.19-16.89-3.227-2.08-5.838-3.291-7.817-3.633m113.093.286c-2.116 1.296-12.86 17.3-13.26 19.75-.204 1.26.565 2.393 2.185 3.23 1.375.71 4.588 1.298 7.135 1.306 4.412.014 4.892-.277 10.193-6.145 6.324-7.001 10.296-13.79 9.41-16.099-.735-1.915-13.215-3.542-15.663-2.042m-330.442 11.195c1.097-.91 3.1-.504 9.137 1.85 4.254 1.658 9.457 3.569 11.558 4.24s4.045 1.815 4.323 2.54c.597 1.554-2.357 20.973-3.686 24.23-1.032 2.53-3.27 2.804-6.962.847-1.375-.73-6.185-2.785-10.684-4.563-4.5-1.778-8.408-3.843-8.691-4.582s-.108-2.767.391-4.507c.5-1.74 1.425-6.697 2.057-11.021s1.784-8.392 2.557-9.034m111.637.377c.767.295 3.795 7.404 6.725 15.796l5.324 15.261-2.266 1.84c-2.863 2.32-5.7 2.346-6.916.074-.906-1.693-1.502-3.683-6.025-20.35-1.135-4.182-2.342-8.334-2.685-9.226-.707-1.844 3.506-4.291 5.843-3.395m-16.672 4.26c1.989-.399 3.454-.153 4.122.68 1.214 1.512 8.314 24.773 9.019 29.549.438 2.963.162 3.386-3.094 4.747-4.363 1.822-6.57 1.902-7.135.248-4.862-14.227-9.51-29.54-9.51-31.324 0-2.316.688-2.716 6.598-3.9m307.7.046c1.456 1.778 37.512 49.996 49.343 65.986 4.608 6.228 13.302 17.617 23.307 30.524 1.954 2.52 5.804 7.297 8.554 10.616s7.137 8.908 9.747 12.419c2.61 3.51 7.648 10.21 11.194 14.884 20.944 27.614 20.758 27.268 15.653 30.284-4.52 2.67-6.356 2.125-10.275-3.035a68814 68814 0 0 0-41.144-54.037 79049 79049 0 0 1-59.427-78.12c-8.387-11.04-15.243-20.982-15.243-22.097s1.512-3.68 3.358-5.695c3.258-3.555 3.4-3.6 4.933-1.73m-327.849 1.426c4.25 0 4.304.043 6.844 5.75 4.278 9.612 11.733 35.859 14.697 51.745 1.026 5.5 2.536 13.15 3.358 17 4.936 23.109 10.639 81.258 10.639 108.506 0 29.279-4.796 82.835-8.618 96.253-.349 1.222-1.52 1.748-3.877 1.748-3.48 0-5.084-1.231-3.968-3.036.77-1.246 2.826-14.796 4.932-32.464 2.067-17.334 3.563-52.518 2.949-69.382-1.05-28.843-7.873-76.928-15.435-108.754-2.833-11.926-12.992-46.034-17.036-57.201-3.258-9-2.625-10.165 5.515-10.165m-33.244.202c1.548-1.548 11.276-1.418 15.79.212 4.11 1.484 4.907 3.222 13.34 29.088 15.994 49.054 23.949 99.607 25.264 160.5.444 20.582.22 29.622-1.001 40.495-4.257 37.88-5.727 49.909-6.198 50.67-.282.457-2.527.828-4.987.828-5.202 0-5.898-1.003-5.014-7.24 4.816-33.995 5.859-85.745 2.284-113.252-.786-6.05-1.418-11.677-1.401-12.502.049-2.445-3.303-22.588-5.907-35.5-1.33-6.6-3.12-15.6-3.977-20-4.72-24.265-16.93-61.876-27.966-86.151-1.746-3.843-1.798-5.577-.227-7.148m-190.74 2.806c-3.492 1.152-22.46 18.16-22.46 20.137 0 1.462.856.995 6.262-3.404 2.88-2.343 8.455-6.395 12.385-9.006 9.315-6.188 11.288-10.194 3.814-7.727m347.661 6.384c-3.798-.786-7.663-.645-9 .966-.633.763-1.184 5.401-1.256 10.58-.148 10.624.412 11.642 7.19 12.97 7.659 1.502 10.775 1.279 11.912-.846 1.446-2.703 1.268-16.042-.255-19.061-1.064-2.108-4.793-3.823-8.591-4.609m106.377 12.585-2.676 2.042c-6.77 5.16-7.095 5.556-6.38 7.81.386 1.215 2.228 4.207 4.087 6.642 2.9 3.8 3.136 4.495 1.674 4.94-1.97.6-13.102.492-14.952-.147-2.072-.716-1.483-2.423 4.068-11.794l5.315-8.969 4.432-.267zm10.793.644c.605-1.814 12.114-1.466 12.468.377.158.825-2.428 5.666-5.752 10.754-5.854 8.959-6.16 9.25-9.774 9.218-4.197-.038-4.569.513 4.168-6.265 4.276-3.317 4.537-5.798 1.056-9.935-1.398-1.662-2.372-3.531-2.166-4.15m-139.849 10.809c-7.44-2.24-9.63-.152-12.058 11.453-1.605 7.671-1.236 8.355 5.652 10.515 5.737 1.799 9.462 1.922 10.693.35 1.428-1.826 3.267-10.026 3.267-14.572 0-4.6-1.204-5.835-7.554-7.746m-152.462 2.686c2.197-.228 5.802 1.123 11.44 3.993 11.191 5.696 10.88 5.248 9.137 12.934-.806 3.55-2.054 9.15-2.767 12.447-.83 3.834-1.834 6.083-2.794 6.237-1.613.257-18.61-8.064-20.84-10.202-1.128-1.081-1.01-2.612.746-9.384 1.154-4.45 2.093-9.188 2.093-10.533 0-3.455.789-5.264 2.985-5.492m337.823 12.382 2.694 2.503c1.481 1.375 21.234 27.245 43.892 57.495 49.137 65.602 45.36 60.604 60.6 80.356 4.023 5.214 4.084 5.403 2.321 7.35-.995 1.1-3 2.622-4.459 3.377-2.545 1.316-2.795 1.2-6.043-2.852-1.862-2.323-4.219-5.58-5.242-7.23-4.488-7.24-76.13-102.343-93.69-124.375-3.235-4.059-5.88-7.9-5.88-8.537s1.307-2.723 2.904-4.628zm-221.19.847c-.673.372-.988 1.261-1.565 3.008-.648 1.963-1.263 7.048-1.365 11.306l-.182 7.746 4.496 1.738c6.09 2.361 12.558 2.418 13.496.11.391-.962.953-5.686 1.247-10.496l.537-8.748-4.432-1.96c-2.437-1.078-6.276-2.252-8.528-2.612-2.003-.32-3.03-.464-3.704-.092m140.568 1.518c1.838-1.166 7.571-1.07 8.318.138.34.55-2.335 2.879-5.943 5.179s-6.552 4.666-6.552 5.253c.006 1.68 3.379 6.778 7.344 11.103l3.631 3.965 4.687-2.484c2.576-1.364 6.187-3.904 8.027-5.639 2.966-2.798 3.225-3.453 2.32-5.832-.56-1.476-2.138-4.16-3.513-5.961s-2.502-3.799-2.502-4.434c0-1.436 13.598-1.609 14.479-.184.329.532-2.229 6.374-5.688 12.98l-6.289 12.014-15.252.018c-14.198.02-15.253-.11-15.253-1.84 0-2.37 10.44-23.17 12.186-24.276m-164.138 12.363c-1.45-.077-2.248.949-3.04 3.027-.68 1.788-2.17 5.62-3.312 8.519-2.42 6.145-2.17 6.614 6.006 11.306 2.643 1.516 5.925 2.676 7.299 2.585 3.538-.235 6.2-6.188 5.806-13-.292-5.03-.446-5.26-5.806-8.886-3.402-2.3-5.503-3.474-6.953-3.55m-163.064 3.938c2.174-.322 2.238-.132 1.556 4.498-.392 2.66-2.052 7.195-3.695 10.083s-3.536 5.253-4.205 5.253c-1.172 0-7.635-10.232-7.635-12.088 0-1.755 2.117-.885 4.478 1.84 2.948 3.403 4.281 2.414 6.015-4.444.956-3.781 1.7-4.878 3.486-5.142m-22.333 10.082c1.594.652 2.729 2.633 4.395 6.348 1.627 3.626 2.958 7.438 2.958 8.472 0 2.367-4.05 4.5-12.204 6.421-7.7 1.816-7.992 1.82-10.129.258-1.602-1.172-1.532-1.803 1.047-9.65 2.59-7.882 3.004-8.519 6.77-10.23 3.514-1.596 5.569-2.27 7.163-1.619m109.143 2.08c2.028-.375 4.898 1.502 10.147 5.353 4.363 3.201 8.187 6.517 8.5 7.369s-1.14 5.573-3.23 10.496c-4.842 11.4-5.843 11.66-16.245 4.177-8.769-6.308-8.865-6.752-4.286-19.218 1.9-5.172 3.086-7.803 5.114-8.178m305.762 2.676c8.539 0 18.535 5.65 24.626 13.928 4.89 6.647 6.586 12.834 8.218 29.971.847 8.905 1.805 16.624 2.129 17.148 1.18 1.908 3.323.875 5.37-2.594 2.741-4.647 7.157-6.465 13.386-5.502 8.06 1.247 13.952 8.728 12.068 15.327-1.34 4.692-4.542 4.847-6.189.294-1.511-4.18-5.485-7.571-8.873-7.571-1.366 0-3.725 1.281-5.36 2.916-2.528 2.528-2.93 3.68-2.93 8.473 0 4.763.439 6.029 3.085 9.043 4.325 4.926 11.86 8.884 22.851 11.986 18.197 5.136 28.045 12.8 31.925 24.857 3.578 11.118 3.61 12.238.464 16.181-2.888 3.62-5.115 4.514-5.724 2.291-.188-.687-.92-3.727-1.62-6.752-1.75-7.562-2.8-9.602-5.633-10.892-3.789-1.726-6.212-1.326-9.01 1.472-2.205 2.205-2.502 3.213-2.075 7 .47 4.166.354 4.425-1.956 4.425-3.472 0-8.3-5.119-8.3-8.794 0-5.487 6.844-11.205 13.405-11.205 3.139 0 4.261-1.757 2.348-3.67-1.513-1.514-2.128-1.72-16.754-5.391-12.456-3.127-18.521-6.409-26.365-14.278-9.646-9.678-15.624-23.216-17.063-38.664-1.787-19.177-6.141-29.006-12.86-29.006-3.793 0-9.71 5.73-9.71 9.402 0 4.127-4.483 3.416-6.852-1.086-1.924-3.654-1.314-6.346 2.248-9.907 2.344-2.345 4.326-3.404 6.38-3.404 1.637 0 3.576-.731 4.313-1.62 1.149-1.384 1.012-1.881-.992-3.504-1.286-1.041-4.075-2.172-6.198-2.512-2.122-.339-4.635-1.177-5.578-1.867-1.623-1.185-1.623-1.397 0-3.873 1.509-2.303 2.383-2.622 7.226-2.622m-58.554 1.997c4.4 0 8 .287 8 .643s-.956 3.285-2.13 6.504c-1.173 3.22-2.527 5.851-3.003 5.851a.88.88 0 0 1-.865-.892c0-.494-2.255-3.199-5.005-6.007-2.75-2.809-4.996-5.33-4.996-5.603s3.6-.496 8-.496m-12.995.827c0 .457-2.932 2.546-6.507 4.637-8.28 4.842-8.402 6.447-1.056 13.394 2.992 2.83 5.659 5.143 5.925 5.143.265 0 3.886-1.837 8.054-4.085 6.923-3.734 7.58-3.917 7.58-2.07 0 1.112-.437 3.18-.973 4.59l-.974 2.567h-16.026c-12.695 0-16.026-.276-16.026-1.334 0-1.788 7.67-20.565 9.11-22.299 1.23-1.482 10.893-1.964 10.893-.543m-322.16 8.17c2.885 0 4.722 2.622 3.157 4.507-1.582 1.906-3.412 1.907-4.987.01-1.62-1.952-.584-4.518 1.83-4.518m-10.612 10.201c.742 2.228-1.274 11.965-3.304 15.943-1.108 2.171-3.622 5.727-5.588 7.902-1.965 2.175-4.093 3.956-4.732 3.956-.638 0-2.468-3.007-4.068-6.679s-4.859-8.869-7.244-11.554-4.119-5.24-3.85-5.676c.27-.436 3.783-1.067 7.809-1.408s9.272-1.31 11.658-2.152c5.21-1.839 8.774-1.966 9.319-.332m-73.997 3.864c-2.264-1.031-2.84-.953-3.94.552-1.827 2.498-1.605 6.105.454 7.304 2.518 1.467 2.887 1.364 5.124-1.48 2.396-3.046 1.96-4.736-1.638-6.376m63.55.552c-4.21.126-8.783 2.694-8.783 4.931 0 .823 1.145 3.314 2.548 5.538 1.595 2.526 3.17 3.923 4.196 3.726 2.361-.455 5.24-5.896 5.515-10.423.235-3.873.227-3.882-3.477-3.772m396.011 4.618c.55-.183 7.909 8.96 16.354 20.312s21.198 28.067 28.348 37.147c21.584 27.409 22.46 28.54 28.258 36.31a4858 4858 0 0 0 14.17 18.84c4.714 6.238 9.017 11.963 9.555 12.723.722 1.02-.055 2.436-2.958 5.409-2.162 2.214-4.457 4.03-5.105 4.03s-8.093-9.013-16.545-20.028-20.944-27.1-27.757-35.748c-16.863-21.404-31.31-39.978-33.108-42.575-.819-1.182-4.543-6.108-8.281-10.938-9.382-12.12-9.404-12.178-6.416-19.263 1.364-3.235 2.935-6.035 3.485-6.219m-420.71 2.585c1.14-.848 2.276-.699 3.84.138 4.033 2.159 10.75 19.767 8.427 22.088-1.738 1.735-10.95 1.922-20.103.405-3.895-.646-4.163-2.461-1.092-7.452 1.184-1.925 3.457-6.11 5.05-9.3 1.59-3.184 2.737-5.03 3.877-5.879m350.936 1.187c3.286 0 5.98.41 5.98.92s-2.364 2.311-5.252 4.002c-10.802 6.323-11.083 7.58-3.312 14.93 7.133 6.746 8.124 6.842 15.962 1.564 2.793-1.88 5.639-3.422 6.334-3.422 1.694 0 1.598 2.964-.246 7.378-1.175 2.811-2.126 3.667-4.25 3.808-6.078.404-22.957.285-26.237-.184-4.769-.681-4.923-2.99-.955-14.332 5.22-14.925 5.004-14.664 11.976-14.664m25.49 1.012c.345.557-.096 3.477-.973 6.495-.877 3.017-1.932 5.492-2.348 5.492-1.249 0-11.194-10.47-11.194-11.785 0-1.52 13.584-1.71 14.516-.202m-422.13 2.309c-2.498-1.637-2.69-1.623-4.004.175-1.697 2.32-1.76 4.715-.173 6.301.66.66 1.914 1.196 2.794 1.196 4.358 0 5.282-5.117 1.383-7.672m190.667 1.693c1.193-.034 12.588 7.909 14.86 10.358 2.22 2.392 2.32 2.904 1.211 6.366-.662 2.07-2.424 6.23-3.913 9.254-3.054 6.204-5.286 7.168-9.21 3.965-1.375-1.122-4.857-3.596-7.745-5.492-3.37-2.213-5.25-4.143-5.25-5.4 0-4.364 7.71-18.987 10.046-19.051m-197.674 9.31c-2.547-1.67-2.693-1.65-4.505.588-1.89 2.335-2.425 5.198-1.201 6.421.366.367 1.846.663 3.294.663 5.3 0 6.81-4.791 2.412-7.673m129.774 6.172c2.04 0 2.681 1.064 5.124 8.5 11.306 34.42 17.346 82.128 14.88 117.503-1.52 21.78-5.21 42.595-8.82 49.75-.762 1.512-1.841 2.75-2.402 2.75-1.405 0-6.718-5.802-12.768-13.946-1.453-1.956-6.523-8.503-11.267-14.553s-11.269-14.691-14.506-19.2c-3.237-4.507-8.81-11.89-12.386-16.41-3.575-4.521-8.836-11.633-11.685-15.805-6.059-8.87-6.773-6.295 6.725-24.231 19.283-25.623 28.513-40.14 35.83-56.355 6.428-14.246 8.777-18.003 11.275-18.003m-53.648 2.502c.707 0 1.528.641 1.83 1.426.759 1.98-1.635 3.87-3.077 2.429-1.338-1.339-.524-3.855 1.247-3.855m-88.667 3.652c-2.312 2.093-2.35 4.943-.082 6.265 2.626 1.529 3.448 1.234 6.134-2.19 1.201-1.53 1.152-2.029-.4-3.744-2.184-2.413-3.276-2.48-5.652-.33m49.953 1.049 4.85.874c2.673.483 9.139.916 14.362.957 10.692.085 11.146.442 8.936 7.221-1.767 5.422-6.178 11.457-10.647 14.553-2.14 1.483-4.153 2.696-4.469 2.696-1.097 0-2.47-2.528-3.795-7-.733-2.476-3.111-7.834-5.287-11.905zm17.2 6.302c-6.22 0-8.75 5.733-4.741 10.744 1.868 2.335 4.727 1.28 7.726-2.86 3.853-5.319 2.878-7.884-2.985-7.884m-73.778 1.14c-.941.182-1.808 1.11-2.685 2.806-1.913 3.7-1.908 4.523.046 6.476 2.03 2.03 2.352 1.997 5.114-.598 2.738-2.571 2.924-4.503.665-7-1.177-1.3-2.199-1.865-3.14-1.684m52.701.8c2.771 1.483 3.959 3.35 6.098 9.568 2.786 8.098 2.638 11.29-.574 12.511-4.478 1.703-17.68.8-21.34-1.463-1.766-1.09-1.006-2.46 6.943-12.538 5.921-7.506 7.41-8.86 8.873-8.077m380.086 1.905c5.328.63 5.504.746 5.415 3.652-.05 1.65-.918 7.951-1.92 14.001s-2.125 11.362-2.503 11.803c-.653.76-10.974-11.587-19.366-23.164-3.087-4.259-3.602-5.54-2.503-6.237 1.573-.996 12.69-1.024 20.877-.055m-204.635 7.074c1.333.714 4.974 3.88 8.1 7.038l5.687 5.74-4.095 7.829c-2.254 4.303-4.593 8.416-5.197 9.144s-1.89 1.324-2.857 1.324c-2.152 0-13.978-12.841-13.988-15.188-.009-2.077 5.568-12.605 8.081-15.252 1.604-1.69 2.154-1.767 4.269-.635m-236.625 3.073c-4.225 0-6.423 4.91-3.504 7.828 1.754 1.754 3.657 1.078 5.488-1.95 1.972-3.26 1.093-5.878-1.984-5.878m500.742 5.538c.879-.62 1.846-.455 2.994.211 1.61.934 27.74 33.268 41.016 50.753 10.706 14.098 13.525 17.683 20.75 26.328 2.607 3.12 4.75 6.18 4.75 6.799.005.618-4.15 6.724-9.237 13.569-15.217 20.473-32.75 47.41-41.635 63.962-6.448 12.011-8.029 12.898-11.358 6.348-5.328-10.483-11.294-35.232-15.908-66.005-1.95-13.014-1.666-52.777.483-66.999 3.645-24.125 5.507-33.106 8.145-34.966m-510.143 4.544c-1.07-.049-2.286.472-3.503 1.573-2.075 1.878-2.289 3.616-.792 6.412 1.357 2.537 3.406 2.455 5.924-.248 2.326-2.497 2.441-3.188 1.001-5.879-.634-1.185-1.559-1.81-2.63-1.858m89.405 5.106c.957.184 1.876 1.063 2.047 1.95.366 1.899-1.91 3.03-3.777 1.877-1.815-1.122-.406-4.238 1.73-3.827m-37.804.359c.445-.276 3.364.16 6.488.975 3.15.82 8.887 1.371 12.878 1.232l7.198-.248-.118 3.8c-.17 5.47-6.082 13.669-12.286 17.046-5.417 2.948-6.985 3.24-7.517 1.398-.198-.688-1.366-4.845-2.594-9.245s-2.825-9.457-3.549-11.233-.946-3.45-.5-3.726m-7.918 5.455c2.587 0 8.022 17.85 6.58 21.609-.645 1.68-7.672 1.694-15.307.027-8.261-1.803-8.412-2.55-2.02-10.34 7.233-8.816 9.595-11.296 10.747-11.296m22.86 0c-4.677 0-5.878.957-5.878 4.673 0 1.902.468 4.327 1.037 5.39 1.45 2.71 4.617 2.412 7.508-.708 4.164-4.492 2.778-9.355-2.666-9.355m-79.566.037c-3.517 1.92-4.008 4.84-1.301 7.745 2.275 2.442 4.005 2.067 7.299-1.573 1.728-1.91 1.706-2.072-.701-4.839-2.395-2.752-2.598-2.807-5.297-1.333m174.267 4.967c-.602 0-3.95 4.254-7.444 9.457s-9.903 14.064-14.242 19.687-7.89 10.524-7.89 10.891 1.236 2.284 2.748 4.26c5.53 7.226 20.77 26.343 25.072 31.452 2.432 2.888 4.793 5.253 5.242 5.253.884 0 1.531-4.212 2.475-16.09 1.296-16.288-3.17-64.91-5.96-64.91m-180.619 5.98c-4.327-2.316-8.471 1.693-5.333 5.16 2.07 2.287 3.193 2.33 5.543.203 2.388-2.162 2.316-4.012-.21-5.363m745.038 1.03-2.494 2.171c-2.68 2.33-3.25 5.668-1.301 7.617 2.63 2.63 3.795 1.306 3.795-4.296zm-478.837 1.904c1.978.072 4.248 2.122 7.681 6.182 2.845 3.364 5.16 7.095 5.16 8.326 0 2.634-5.303 10.973-8.327 13.09-1.164.816-2.418 1.481-2.784 1.481-1.11 0-4.391-3.23-8.355-8.233-4.336-5.473-4.289-6.609.71-15.16 2.252-3.853 3.938-5.758 5.915-5.686m451.835 2.08c2.5 0 3.465 1.744 1.966 3.55-1.588 1.914-3.597 1.848-4.36-.138-.812-2.118.093-3.413 2.394-3.413m-260.467 2.005c7.908 0 9.198 1.59 4.914 6.062-3.514 3.668-5.344 3.69-8.755.129-4.588-4.79-3.72-6.191 3.84-6.191m-470.992.12c-1.201.328-2.155 1.619-2.357 3.725-.177 1.84-.084 3.966.21 4.728.694 1.812 4.505.468 6.288-2.216 1.084-1.633 1.031-2.325-.292-4.214-1.205-1.721-2.648-2.352-3.85-2.024m359.964.883c2.03-1.686 32.911-.99 34.683.781.72.72 1.439 5.587 1.765 11.969l.555 10.745 7.5.8c4.124.44 9.427.561 11.784.267 3.319-.415 4.42-.178 4.887 1.04.332.864.028 6.933-.682 13.485l-1.292 11.904-8.6.12c-4.73.065-8.957.064-9.392-.01-.435-.072-1.67.335-2.749.911-1.746.935-1.956 2.148-1.956 11.086 0 5.516-.468 10.895-1.038 11.959v.009c-.96 1.794-2.249 1.932-17.8 1.932-11.706 0-17.127-.368-17.965-1.205-.785-.785-1.201-4.92-1.201-11.96 0-9.619-.201-10.877-1.93-11.802-1.063-.57-8.108-1.04-15.643-1.04h-13.697l.674-4.747c.37-2.612.912-7.675 1.2-11.25.979-12.092-.494-11.003 14.807-11.003 11.273 0 13.467-.24 13.979-1.573.334-.87.61-5.992.61-11.38 0-7.477.359-10.09 1.501-11.038m-304.614 6.945c.523-.835 1.747-.678 3.749.35 3.898 2.001 13.582 3.909 18.165 3.578 5.568-.402 6.366.466 4.532 4.894-2.464 5.95-7.89 11.834-13.514 14.636-6.993 3.485-8.819 3.399-8.819-.395 0-2.937-.995-7.692-3.658-17.46-.802-2.942-.98-4.768-.455-5.603m39.205 1.049c2.434 0 3.704 2.88 1.802 4.084-1.92 1.216-2.464 1.138-3.859-.543-1.52-1.83-.524-3.541 2.057-3.541m459.907 1.067c-.43.787-1.325 7.736-1.993 15.436-1.032 11.899-.967 16.554.41 31.002 1.492 15.67 3.944 32.98 5.16 36.43.67 1.9 3.434-.84 7.744-7.673 4.664-7.393 13.545-20.168 17.218-24.765 5.166-6.462 5.741-8.06 4.068-11.241-.798-1.518-3.63-5.227-6.297-8.252-6.048-6.861-9.255-11.08-16.463-21.618-1.462-2.137-4.1-5.427-5.86-7.314-2.512-2.69-3.374-3.127-3.987-2.005m172.11 1.932c2.785 0 3.048.25 2.421 2.254-.387 1.237-.95 7.307-1.247 13.495-.352 7.35-.922 11.252-1.656 11.242-.618-.006-3.005-1.13-5.297-2.503-2.612-1.566-6.466-2.741-10.338-3.146-6.87-.718-8.042-1.95-5.87-6.145 3.754-7.248 15.252-15.197 21.987-15.197m-677.73.598c2.192.84 3.833 6.646 3.987 14.102.11 5.336-.199 6.711-1.802 7.884-4.656 3.405-20.388-.857-21.36-5.786-.164-.836 2.142-3.36 5.252-5.76 3.049-2.351 5.542-4.622 5.542-5.04 0-1.527 6.898-5.97 8.382-5.4m16.937 1.96c-2.334.815-2.868 1.642-3.13 4.82-.175 2.11-.077 4.467.218 5.234.94 2.45 4.686 1.498 8.281-2.098 3.875-3.875 3.89-5.316.055-7.478-1.94-1.095-3.322-1.214-5.424-.479m404.94 2.915c1.858.101 3.5 2.093 6.124 6.044 5.208 7.843 4.826 10.413-2.703 18.233-2.25 2.338-4.643 4.25-5.314 4.25-1.602 0-3.982-2.438-6.908-7.074-1.304-2.066-2.84-4.043-3.412-4.397-2.634-1.628-.916-5.857 4.777-11.748 3.498-3.619 5.577-5.409 7.435-5.308m247.608 3.56c-7.276 3.77-7.823 7.673-1.61 11.417 6.196 3.734 7.271 3.155 7.125-3.818-.148-7.082-1.89-9.476-5.515-7.599m-326.729 5.042c-2.564-1.373-27.153-1.303-28.822.082-1.434 1.191-1.906 22.37-.546 24.498.405.632 1.856 1.355 3.231 1.61 5.715 1.062 25.62.721 26.801-.46.798-.797 1.202-5.154 1.202-12.97 0-10.464-.205-11.871-1.866-12.76m301.666.726c1.524-1.523 4.411-.134 4.014 1.932-.185.958-1.118 1.895-2.075 2.08-2.067.397-3.463-2.488-1.939-4.012m-571.189 6.2c.678 0 4.298 4.126 8.054 9.163s8.188 10.87 9.838 12.962c7.716 9.782 37.488 49.512 41.498 55.38 5.401 7.902 11.576 16.207 17.1 22.998 8.83 10.856 14.898 19.473 14.898 21.159 0 .973-.738 3.697-1.638 6.053s-1.987 4.287-2.42 4.287c-.434 0-4.955-5.738-10.048-12.75a7758 7758 0 0 0-16.226-22.254 4388 4388 0 0 1-10.065-13.78c-1.707-2.356-6.82-9.1-11.358-14.995s-13.62-18.146-20.185-27.221-15.178-20.689-19.139-25.804l-7.198-9.3 2.83-2.944c1.554-1.623 3.381-2.953 4.06-2.953m158.878 1.5c2.38 0 3.726 1.073 7.372 5.87l4.468 5.869-1.83 3.394c-1.003 1.865-3.363 5.184-5.241 7.378s-4.224 3.992-5.215 3.992c-2.34 0-10.047-10.187-10.047-13.283 0-1.305 1.712-4.82 3.795-7.801 3.111-4.454 4.305-5.419 6.698-5.419m-254.443 2.502c.567 0 2.7.836 4.741 1.859 2.04 1.022 6.979 2.644 10.966 3.606 4.395 1.06 7.244 2.265 7.244 3.054 0 2.876-7.957 11.285-13.113 13.854-6.154 3.067-9.562 3.355-10.211.874-.963-3.682-.65-23.247.373-23.247m683.026 2.162c3.56.398 7.342 1.51 9.856 3.174 5.605 3.71 5.923 5.076 1.938 8.39-1.831 1.523-5.704 4.912-8.609 7.525-2.904 2.612-5.711 4.747-6.243 4.747-1.85 0-3.825-4.555-5.588-12.889-1.734-8.197-1.735-8.415.146-9.824 1.606-1.204 4.94-1.52 8.5-1.123m-17.182 2.272c.609.377 1.11 2.571 1.12 4.876.013 4.924 1.993 12.867 4.331 17.387.91 1.76 1.657 3.45 1.657 3.753 0 .924-3.268.49-8-1.058-2.475-.81-8.072-1.674-12.44-1.922-4.368-.25-8.291-.806-8.719-1.233-1.347-1.348 3.852-10.983 8.346-15.464 4.283-4.272 11.585-7.649 13.705-6.339m-635.13 2.401c1.63-1.63 4.742-.531 4.742 1.675 0 1.3-.782 2.1-2.257 2.309-2.508.356-4.166-2.303-2.485-3.984m-26.683 1.564c-1.224 1.476-.564 6.134 1.184 8.353 1.425 1.81 2.642 1.558 6.397-1.306 4.12-3.143 4.22-4.938.391-6.918-3.678-1.902-6.458-1.952-7.972-.129m657.463 3.975c-2.265-.87-6.373 2.198-8.273 6.181-2.039 4.277-1.06 5.546 4.96 6.43 5.585.822 8.344-.17 8.036-2.888-.404-3.576-3.086-9.095-4.723-9.724m-218.687 3.799c1.61-.235 3.461 1.014 6.68 4.498 2.45 2.654 4.726 5.639 5.05 6.633.386 1.181-1.088 4.308-4.25 9.006-2.982 4.433-5.629 7.306-6.898 7.488-1.457.21-3.515-1.397-7.062-5.5-2.754-3.188-5.308-6.59-5.67-7.563-.856-2.303 8.988-14.101 12.15-14.562m-373.415 4.94c.97-.148 1.56.551 1.565 2.134.014 4.092 3.802 14.809 6.47 18.307 2.275 2.982 3.207 3.45 6.935 3.45 7.455 0 11.99-6.456 8.127-11.564-3.19-4.217-.957-5.744 4.368-2.99 7.682 3.972 7.656 10.707-.054 16.246-7.38 5.301-6.635 6.892 5.123 10.957 19.353 6.689 25.922 12.018 33.081 26.861 2.72 5.639 4.95 11.008 4.95 11.932s.504 2.63 1.12 3.78c.616 1.152 1.428 8.694 1.811 16.771.797 16.796 1.943 19.946 8.464 23.33 3.5 1.816 4.157 1.871 6.497.58 1.433-.792 3.447-3.16 4.478-5.263 1.856-3.786 1.858-3.843-.246-6.688-2.88-3.894-2.682-4.958.947-4.958 3.566 0 8.458 4.288 9.464 8.298.875 3.486-1.325 7.649-5.542 10.487-5.022 3.38-4.743 6.318.755 8.059 4.369 1.382 5.066 2.75 3.213 6.218-1.292 2.414-3.98 2.406-10.82-.055-11.048-3.974-20.14-11.683-23.953-20.303-3.022-6.83-3.531-10.155-3.613-23.403-.09-14.517-1.125-16.736-5.288-11.416-4.774 6.1-12.282 7.693-19.32 4.103-6.879-3.51-9.936-11.332-6.225-15.915 2.239-2.765 3.755-2.235 4.714 1.665 1.14 4.64 3.35 7.14 6.926 7.81 5.679 1.066 8.986-1.83 10.684-9.356 2.107-9.346-8.252-18.116-30.46-25.785-16.853-5.82-26.383-15.578-29.486-30.202-1.47-6.931-1.522-6.578 1.465-10.128 1.53-1.817 2.879-2.814 3.85-2.962m563.517 2.888c2.237 0 3.302 2.337 1.766 3.873-1.484 1.484-2.234 1.419-3.686-.33-1.488-1.794-.537-3.543 1.92-3.543m-379.421 6.375c1.777.682 5.722 8.396 4.941 9.66-.797 1.29-13.187 1.24-13.987-.055-.834-1.348 3.157-7.722 5.678-9.07 1.094-.586 2.61-.825 3.367-.534m475.833.249c-2.513-1.831-2.619-1.827-5.151.064-3.606 2.692-3.744 3.874-.801 6.817 2.455 2.455 2.68 2.496 5.57 1.003 3.77-1.95 3.933-5.296.382-7.884m-732.57 3.174c1.524-1.524 4.411-.135 4.013 1.931-.184.958-1.117 1.895-2.075 2.08-2.066.398-3.462-2.488-1.938-4.011m654.787.202c9.11 0 15.416 1.818 15.416 4.443 0 .85-1.912 3.484-4.25 5.86s-5.828 6.419-7.753 8.979-4.24 4.665-5.142 4.682c-1.791.034-3.963-4.587-6.853-14.553-2.532-8.733-1.91-9.411 8.582-9.411m-679.896.322c-.548.434-.691 1.946-.691 4.738 0 5.273.375 5.462 4.25 2.134 2.27-1.95 2.208-2.696-.437-5.16-1.62-1.51-2.573-2.146-3.122-1.712m662.095 1.969c1.38.467 1.966 2.472 2.375 6.218.36 3.294 1.632 8.465 2.83 11.49 1.2 3.025 2.42 6.287 2.713 7.25.447 1.468-.085 1.727-3.331 1.628-2.127-.065-5.221-.455-6.871-.874-1.65-.42-6.034-.818-9.747-.883l-6.752-.12v-3.11c0-5.482 5.773-14.721 11.63-18.61 3.598-2.388 5.773-3.457 7.153-2.99m82.615 3.054c-1.676-1.113-2.34-1.078-4.195.22-2.822 1.978-2.815 4.888.018 6.872 2.937 2.057 4.102 1.97 6.334-.496 2.055-2.271 1.416-4.224-2.157-6.596m-86.583 5.657c-3.195 0-8.007 5.507-7.635 8.74.27 2.343 1.001 2.935 4.823 3.928 2.475.643 4.577 1.207 4.669 1.251.093.044.877-.2 1.747-.534 3.356-1.287.099-13.385-3.604-13.385m76.536 3.487c-1.535-1.535-1.87-1.437-4.696 1.39-2.977 2.976-3 3.08-1.192 5.077 1.015 1.122 2.59 2.042 3.495 2.042 3.916 0 5.45-5.453 2.393-8.509m-464.849 2.87c.55-.164 6.496 7.9 13.215 17.92 11.1 16.555 14.16 21.624 13.14 21.766-2.69.376-25.328.59-28.11.267-3.672-.428-3.747-.525-3.723-4.628.013-2.304.501-6.209 1.083-8.684s1.578-9.412 2.22-15.418 1.625-11.059 2.175-11.223m201.169.938c1.915-.497 4.163 1.029 7.945 4.26 8.99 7.68 9.08 7.961 4.95 16.448-1.936 3.979-4.04 7.862-4.668 8.62s-2.01 1.37-3.067 1.37c-2.318 0-11.418-8.297-13.487-12.299-1.41-2.725-1.29-3.253 2.384-10.533 2.448-4.85 4.028-7.368 5.943-7.866m250.867 5.833c-1.164.25-2.359 1.1-3.477 2.52-1.958 2.49-1.985 2.768-.418 4.499 2.037 2.252 3.25 2.314 6.133.294 2.446-1.713 2.88-4.386 1.02-6.246-.971-.97-2.095-1.318-3.258-1.067m-88.285 1.049c1.237.175 2.248.985 2.248 1.803 0 1.588-2.64 2.554-3.804 1.389-1.575-1.575-.633-3.503 1.556-3.192m78.565 8.638-2.412 2.263c-2.827 2.656-3.137 6.392-.655 7.838 2.525 1.47 2.883 1.363 5.178-1.555 2.58-3.28 2.578-3.863-.018-6.458zm-53.357.34c10.344 1.243 10.815 2.25 4.742 10.175-2.759 3.599-5.831 7.92-6.826 9.604-2.373 4.018-4.716 3.871-7.398-.47-2.22-3.59-5.956-14.622-5.97-17.616-.01-2.15 6.086-2.819 15.452-1.693m-25.627 2.843c2.304 0 5.17 4.42 5.17 7.976 0 2.266 5.335 13.518 7.671 16.172 2.117 2.405.301 2.98-5.76 1.83-2.912-.553-6.671-.795-8.355-.542-7.751 1.165-13.267 1.53-13.887.91-1.232-1.231-.7-5.191 1.474-11.057 2.436-6.575 10.237-15.29 13.687-15.29m-1.984 7.994c-.553 0-2.323 1.318-3.931 2.925-3.39 3.39-3.966 8.369-1.165 10 2.677 1.552 8.834 1.286 10.274-.45 1.032-1.243 1.015-2.316-.081-5.64-1.396-4.23-3.34-6.835-5.097-6.835m70.83 1.205c-.766.197-1.469 1.093-2.72 2.852-2.084 2.925-2.098 3.14-.41 5.004 2.188 2.418 5.31 2.502 7.062.193 1.964-2.588 1.666-4.943-.838-6.697-1.5-1.05-2.328-1.55-3.094-1.352m-224.966 10.082c2.508-.962 18.31 11.89 18.265 14.857-.012.747-2.15 5.147-4.75 9.78-2.602 4.632-5.276 8.602-5.944 8.821-.667.22-4.492-2.653-8.5-6.384-8.304-7.731-8.751-8.263-8.772-10.478-.021-2.187 8.027-15.953 9.7-16.596m217.13 1.813c-1.227.132-2.41 1.09-3.321 2.851-1.966 3.802-1.941 3.945.728 5.033 3.11 1.266 4.784.866 6.37-1.528 1.156-1.743 1.124-2.372-.19-4.25-1.083-1.545-2.359-2.24-3.586-2.106m-87.638 5.381c1.025-.663 2.545-.484 3.795 1.021.993 1.197.993 1.803 0 3-.685.824-1.883 1.499-2.658 1.499s-1.667-.675-1.983-1.5c-.712-1.853-.18-3.357.846-4.02m-343.529 2.098c.911-.35 8.558-.33 16.99.046 13.374.596 15.335.891 15.335 2.346 0 1.967-2.9 12.032-3.467 12.032-.215 0-2.968-2.698-6.115-5.998s-6.504-5.998-7.454-5.998c-1.62 0-11.254 5.33-14.497 8.022-2.501 2.076-1.656 4.365 3.485 9.43 2.726 2.684 4.724 5.255 4.441 5.712-.282.458-3.88.837-7.99.837-9.13 0-9.431-.475-6.589-10.312 1.144-3.956 2.556-9.062 3.14-11.343.583-2.28 1.81-4.425 2.721-4.774m376.273 3.505c5.786 1.24 6.24 2.477 2.894 7.92-1.183 1.925-3.498 5.972-5.142 8.997s-3.43 6.065-3.968 6.753c-1.273 1.625-1.819 1.58-4.641-.396-2.593-1.816-7.547-11.91-8.6-17.525-.667-3.555-.633-3.596 4.095-5.207 5.598-1.907 8.512-2.011 15.362-.542m48.724.717c-1.232-.461-2.617-.25-3.758.782-2.392 2.164-2.463 5-.164 6.339 3.98 2.318 7.997.017 6.762-3.873-.526-1.658-1.607-2.786-2.84-3.248m-76.617 7.203c1.135 0 2.476 2.226 4.286 7.13 1.448 3.923 4.24 9.1 6.207 11.499 1.965 2.399 3.299 4.81 2.957 5.363-.341.553-2.509 1.012-4.814 1.012s-7.58 1.04-11.722 2.318c-4.14 1.278-8.083 2.147-8.754 1.923-2.138-.713-1.527-12.7.892-17.534 2.579-5.156 8.705-11.71 10.948-11.71m71.485 5.41c-2.573-1.882-4.547-1.776-6.152.34-1.965 2.588-1.676 4.943.828 6.697 3.123 2.188 3.591 2.01 5.524-2.042 1.647-3.454 1.646-3.646-.2-4.995m-392.545 1.72c0 1.085-.68 3.299-1.52 4.921-1.344 2.6-2.063 2.953-6.006 2.953-2.461 0-4.468-.415-4.468-.92 0-.504 2.697-2.717 5.997-4.921 5.286-3.53 5.997-3.772 5.997-2.033m470 3.063-25.746 11.518c-14.162 6.333-31.6 13.963-38.75 16.963-36.956 15.508-46.921 19.762-66.352 28.306-3.458 1.521-9.195 3.847-14.47 6.008h91.315c3.668-1.468 6.454-1.641 8.145 0h6.425c-1.25-2.766-3.233-6.712-3.049-7.01.322-.521 3.821-2.824 7.781-5.115 3.96-2.29 10.356-6.01 14.206-8.27s10.039-5.626 13.751-7.48l6.744-3.375zm-149.85.948c-1.313-.143-2.52.544-3.595 2.079-1.634 2.333-2.078 6.907-.801 8.206 1.173 1.191 9.396-.05 10.356-1.564 1.264-1.995 1.148-2.411-1.692-5.787-1.53-1.817-2.956-2.792-4.269-2.934m63.877 6.062c-1.864-.562-4.193.066-5.26 2.41-1.052 2.308-.915 2.842 1.119 4.49 2.67 2.162 5.563 1.222 6.634-2.153.772-2.433-.63-4.185-2.494-4.747m-187.227 1.315 4.35 2.383c7.116 3.904 12.814 8.453 13.433 10.726.54 1.987-4.529 16.134-6.853 19.126-2.048 2.636-6.444 1.309-13.369-4.039-3.766-2.908-6.994-6.037-7.171-6.954-.443-2.299 4.641-15.012 7.371-18.436zm-226.704 5.373c5.816.682 6.879 1.042 4.941 1.665-1.357.437-4.731 1.971-7.499 3.413-6.939 3.616-7.212 6.372-1.256 12.677 4.234 4.48 4.53 4.621 7.627 3.541 5.062-1.764 13.095-7.357 13.095-9.116 0-.877-1.591-3.955-3.53-6.835l-3.523-5.235h13.315l-.555 3.404c-.304 1.873-2.103 6.936-3.996 11.25l-3.44 7.848-14.888.248c-8.188.137-15.523-.163-16.3-.662-1.191-.767-1.093-1.664.629-5.75 1.121-2.662 2.799-7.163 3.722-10.009 2.314-7.136 2.904-7.465 11.658-6.44m327.402 7.11c.69 0 1.818.675 2.503 1.5.993 1.197.993 1.803 0 3-.685.824-1.813 1.499-2.503 1.499s-1.809-.675-2.493-1.5c-.994-1.196-.994-1.802 0-2.999.684-.825 1.803-1.5 2.493-1.5m36.512 3.248c.01 2.828-5.436 15.928-7.59 18.252-3.032 3.271-5.96 3.18-8.054-.249a690 690 0 0 0-4.096-6.596c-1.33-2.112-2.496-4.996-2.593-6.411-.158-2.316.414-2.751 5.697-4.343 8.39-2.527 16.626-2.851 16.636-.653m-29.741 7.949c2.202.325 9.538 10.943 9.665 13.992.13 3.138-2.085 3.051-5.452-.212-4.101-3.976-6.004-3.46-7.48 2.024-.608 2.257-1.978 4.982-3.049 6.053-5.036 5.036-6.642-.687-2.876-10.266 2.868-7.294 6.585-11.977 9.192-11.591m-210.97 15.05c-1.259 1.659-3.294 11.06-3.294 15.206 0 .24.178.311.19.534h20.395c1.038-3.709 2.523-7.26 2.257-9.99-.313-3.22-.744-3.635-5.342-5.17-6.029-2.014-12.905-2.295-14.206-.58m-27.793 14.25-.218 1.49h7.544c-1.334-.39-3.035-1.152-3.831-1.215z" style="fill:navy;fill-opacity:1" transform="matrix(.16096 0 0 .15923 -277.022 22.37)"/><g style="fill:navy"><path d="M-26.845 90.822v129.995H103.15V90.822Zm2.3 2.3H100.85v125.396H-24.546Z" style="color:#000;fill:navy;stroke-width:.811363;-inkscape-stroke:none" transform="translate(45.39 6.384)"/></g><g style="font-size:64px;font-family:NumbersDeuce;-inkscape-font-specification:NumbersDeuce;stroke-width:2.83465;fill:navy"><path d="M-241.53-27.27h-3.776v-4.095h12.352v4.096h-3.136l-8.896 13.376 8.896 23.04h3.328v4.288h-12.992V9.147h4.8l-7.104-18.368-4.736 7.104V9.147h3.072v4.288h-11.712V9.147h3.904V-27.27h-3.904v-4.096h11.712v4.096h-3.072v17.216h.384zv-.064z" aria-label="K" style="fill:navy" transform="translate(387.676 58.245)scale(1.42857)"/></g></g><path d="M3.243-4.725C1.126-7.59 0-10.5 0-10.5s-1.126 2.91-3.243 5.775C-5.361-1.862-8 0-8 0s2.639 1.861 4.757 4.726C-1.126 7.59 0 10.5 0 10.5s1.126-2.91 3.243-5.774C5.361 1.861 8 0 8 0S5.361-1.862 3.243-4.725" style="fill:navy" transform="translate(124.296 45.438)scale(3.23036)"/><g style="clip-rule:nonzero;opacity:.198728;fill:#b3b3b3;fill-opacity:1;fill-rule:nonzero;stroke:#000;stroke-miterlimit:4;filter:url(#a)" transform="translate(0 .616)"><path d="M166.837 235.548c0 3.777-3.087 6.869-6.871 6.869H7.11c-3.775 0-6.861-3.092-6.861-6.87V7.12C.25 3.343 3.336.25 7.11.25h152.856c3.784 0 6.87 3.093 6.87 6.87z" style="fill:#b3b3b3;fill-opacity:1;stroke-width:.5"/></g></svg>