<svg xmlns="http://www.w3.org/2000/svg" xml:space="preserve" width="222.783" height="323.556" viewBox="0 0 167.087 242.667"><defs><filter id="a" width="1.147" height="1.101" x="-.074" y="-.051" style="color-interpolation-filters:sRGB"><feGaussianBlur in="SourceGraphic" result="result3" stdDeviation="4"/><feGaussianBlur in="SourceGraphic" result="result4" stdDeviation="1"/><feBlend in2="result3" mode="darken"/><feComponentTransfer result="result1"><feFuncR tableValues="0 0.2 0.4 0.6 0.8 1 1" type="discrete"/><feFuncG tableValues="0 0.2 0.4 0.6 0.8 1 1" type="discrete"/><feFuncB tableValues="0 0.2 0.4 0.6 0.8 1 1" type="discrete"/></feComponentTransfer><feTurbulence baseFrequency="1" numOctaves="7" result="result0" type="fractalNoise"/><feConvolveMatrix kernelMatrix="-2 0 -2 0 -10 0 -2 0 -2" order="3 3" result="result5"/><feColorMatrix in="result5" result="result4" type="saturate" values="0"/><feComposite in="result1" in2="result4" k1="1.5" k2=".5" k3=".5" operator="arithmetic" result="result2"/><feComposite in2="SourceGraphic" operator="in"/></filter></defs><g style="fill-rule:nonzero;clip-rule:nonzero;stroke:#000;stroke-miterlimit:4"><path d="M166.837 235.548c0 3.777-3.087 6.869-6.871 6.869H7.11c-3.775 0-6.861-3.092-6.861-6.87V7.12C.25 3.343 3.336.25 7.11.25h152.856c3.784 0 6.87 3.093 6.87 6.87z" style="fill:#fff;stroke-width:.5"/></g><path d="M50.291 22.698s2.375-1.9 2.375-4.534c0-1.542-1.369-4.102-4.534-4.102s-4.534 2.561-4.534 4.102c0 2.634 2.375 4.534 2.375 4.534-2.638-2.055-7.34-.652-7.34 3.455 0 2.056 1.68 4.318 4.317 4.318 3.165 0 4.534-3.455 4.534-3.455s.402 3.938-1.943 6.046h5.182c-2.345-2.107-1.943-6.046-1.943-6.046s1.37 3.455 4.534 3.455c2.64 0 4.318-2.263 4.318-4.318 0-4.107-4.703-5.51-7.34-3.455" style="fill:green" transform="translate(-57.609 72.468)scale(2.07389)"/><path d="m2186.056 624 5.269 9.754c11.759 21.77 32.435 61.855 46.902 90.921 8.437 16.953 16.135 32.323 17.102 34.15 2.084 3.938 1.535 12.39-1.517 23.528-2.555 9.323-2.766 9.514-10.38 8.903-5.484-.44-6.827-.204-9.49 1.691-4.041 2.878-6.077 6.945-6.077 12.157 0 3.759.58 4.78 5.489 9.689l5.489 5.482 5.747-.675c3.163-.372 6.663-1.336 7.77-2.145a628 628 0 0 1 4.21-3.05c1.214-.87 2.74-1.249 3.384-.851 1.921 1.187.454 12.263-2.565 19.414-3.31 7.839-11.109 19.035-13.26 19.035-.858 0-3.085-1.58-4.955-3.504-1.87-1.925-4.398-3.545-5.609-3.606-16.086-.808-22.025 14.039-10.307 25.756 3.239 3.239 5.184 4.312 8.8 4.854 9.53 1.429 22.544-4.042 26.83-11.279 4.222-7.13 7.12-5.14 8.78 6.028 2.512 16.892 2.513 16.497 0 18.12-1.266.817-8.371 3.071-15.796 5.01-30.748 8.03-35.256 9.88-41.146 16.88-4.308 5.12-6.746 11.727-7.742 20.959-.4 3.697-.924 6.903-1.168 7.127s-6.976 2.999-14.95 6.157c-17.566 6.956-30.135 12.322-47.997 20.496a7464 7464 0 0 1-22.242 10.132c-14.816 6.707-36.912 17.85-44.263 22.317-3.85 2.339-11.492 6.848-16.992 10.03-9.48 5.485-13.554 7.982-30.002 18.342-17.078 10.757-38.135 25.477-57.347 40.094-4.04 3.073-8.423 6.17-9.746 6.887l-2.41 1.304v139.946c0 136.058.057 139.946 1.876 139.946 1.54 0 1.985 1.042 2.529 5.852.908 8.03 4.828 13.248 12.642 16.835 3.239 1.486 6.158 3.396 6.492 4.253.11.284.093 46.876.175 63.52h4.027c-.444-5.918-.005-8.459 2.142-8.459 1.122 0 6.464 4.547 12.027 8.459h7.374c-3.007-.929-21.29-14.743-21.34-16.234-.033-.947-.202-3.522-.378-5.722s.086-4.788.589-5.75c.95-1.82 4.33-2.39 5.259-.888.293.475 3.715 3.015 7.604 5.649s7.886 5.824 8.882 7.09c2.26 2.873 3.623 13.064 2.004 15.014-.382.461-.759.59-1.158.841h5.976c-.403-4.453.186-6.737-.505-11.963-2.216-16.75-2.292-51.871-.12-53.97 1.526-1.475 16.442-4.537 21.985-4.512 1.882.009 4.034.405 4.78.879.38.24.03 65.935.222 69.566h41.514c7.727-16.314 15.3-33.176 20.734-49.46 8.195-24.56 15.395-53.28 18.04-71.997.816-5.775 1.977-13.65 2.583-17.5s1.654-13.528 2.326-21.503l1.223-14.496 2.805-.324c4.756-.545 5.691 1.148 5.691 10.345 0 22.484-7.667 68.176-15.438 91.976-.718 2.2-2.558 8.272-4.082 13.497-3.926 13.462-16.783 44.53-23.686 59.462h55.573c-18.47-6.4-24.957-30.06-10.445-44.42 11.14-11.026 28.982-10.669 39.307.785 5.087 5.643 6.967 10.475 7.062 18.175.133 10.828-5.216 19.905-14.5 24.61-1.985 1.005-4.371.348-6.565.85h26.159c.273-1.317.786-2.881.744-3.624-.082-1.468.474-3.29 1.233-4.05.759-.758 2.106-2.788 2.997-4.51.953-1.843 5.226-5.646 10.38-9.236 23.488-16.358 46.218-32.158 54.498-37.885 7.623-5.273 9.69-6.262 12.22-5.842 3.706.615 7.307 2.81 38.8 23.638 24.45 16.17 24.775 16.426 26.15 20.958.767 2.524 2.79 8.32 4.488 12.878 2.305 6.19 2.102 6.98 1.314 7.673h19.705c-4.104-12.719-6.311-24.575-6.832-45.955-.53-21.747-.78-24.378-2.676-28.003-1.288-2.463-2.918-4.12-4.248-4.317-1.9-.281-2.16.151-2.16 3.642 0 4.433-1.576 5.662-5.38 4.216-6.143-2.336-8.644-11.202-4.606-16.335 4.602-5.85 12.568-5.47 19.098.906l3.733 3.633 1.112-3.874c.613-2.13 1.838-9.471 2.731-16.317 1.515-11.609 1.516-13.042-.074-21.336-2.02-10.537-7.391-20.037-11.033-19.516-2.599.371-3.359 4.91-1.131 6.758 2.315 1.922 1.905 3.566-1.646 6.554-2.66 2.238-3.87 2.605-7.163 2.164-7.903-1.06-12.376-7.46-10.629-15.208 1.817-8.053 8.19-12.61 17.626-12.61 13.414 0 24.546 11.902 27.456 29.352 1.573 9.432.437 20.727-4.101 40.788-3.427 15.15-5.055 31.996-3.09 31.996.659 0 2.481-.66 4.046-1.47 7.917-4.094 16.277-3.422 21.902 1.756 8.083 7.442 6.278 20.797-3.466 25.664-4.532 2.263-6.819 2.149-11.135-.573-3.265-2.06-2.996-6.137.487-7.46 3.428-1.304 4.23-2.573 4.248-6.685.033-6.953-9.809-6.327-13.525.86-2.016 3.898-3.549 19.104-2.464 24.461.44 2.175 1.129 5.527 1.526 7.452.366 1.775 2.894 5.83 4.487 9.457h23.787c.24-1.504.273-3.02 1.039-4.474 2.575-4.89 7.208-6.98 15.456-6.98 8.307-.002 14.785 2.92 20.026 9.041.55.643.468 1.698.938 2.413h17.709c-9.312-11.14-19.1-21.9-26.766-34.067l-3.227-5.112.055-59.647.055-59.647 6.206-2.82c5.337-2.42 6.602-3.529 8.965-7.876 1.513-2.783 2.75-6.38 2.75-7.987 0-4.265 1.824-5.93 7.999-7.304 3.025-.673 6.545-1.874 7.815-2.671s3.291-1.309 4.496-1.138c2.015.287 2.251 1.072 2.952 9.81.95 11.839.516 13.996-2.814 13.996-1.814 0-3.09-.97-4.579-3.495-1.135-1.925-2.626-3.504-3.31-3.504-.683 0-2.466 2.252-3.963 5.002-2.698 4.957-2.763 5.001-7.659 5.001-2.716 0-4.937.235-4.937.518s1.323 2.87 2.933 5.75c2.542 4.547 8.28 21.059 11.98 34.483.645 2.337 1.527 4.252 1.968 4.252.44 0 1.345-1.803 2.005-4.002.659-2.2 1.608-4.004 2.114-4.004.507 0 1.417 1.916 2.014 4.253 2.494 9.768 7.248 21.496 11.447 28.233 6.097 9.783 17.965 20.888 29.331 27.448 5.067 2.924 9.213 5.828 9.213 6.453 0 1.31-8.239 13.963-11.383 17.482-1.164 1.303-3.812 3.454-5.875 4.77-4.459 2.845-4.716 5.089-.993 8.523 4.161 3.84 10.4 5.843 18.242 5.843 6.502 0 7.068.175 8.69 2.746 2.503 3.97 12.174 14.45 15.216 16.492 5.903 3.963 10.343 1.797 18.72-9.161 6.996-9.15 7.98-9.903 13.287-10.012 8.363-.172 21.093-6.75 21.093-10.9 0-.926-2.421-4.06-5.38-6.961-5.746-5.637-11.262-14.823-11.796-19.654-.3-2.715.216-3.247 6.409-6.656 3.702-2.039 8.649-5.548 10.997-7.794 2.347-2.245 4.949-4.077 5.774-4.067 1.53.016 6.193 10.442 10.17 22.714 1.113 3.437 2.318 6.242 2.675 6.23.357-.01 2.586-5.97 4.956-13.247 2.37-7.276 5.604-16.143 7.18-19.7 1.577-3.558 2.637-6.838 2.355-7.294-.283-.457-2.423-.544-4.754-.195-3.79.569-4.417.36-5.912-1.922-2.28-3.481-2.082-5.225 1.36-11.621 1.629-3.025 2.961-6.232 2.961-7.128s.774-3.37 1.72-5.5c2.498-5.627 2.517-33.148.027-42.369-2.177-8.065-8.448-21.025-13.176-27.216-1.96-2.568-3.567-5.132-3.567-5.704 0-1.789 3.996-2.163 19.998-1.868l15.502.287v110.502c0 42.678-.121 61.294-.23 81.455h24.615a25779 25779 0 0 1-.101-65.813c-.052-91.814-.097-91.042 4.275-87.085 1.453 1.315 1.613 9.645 1.664 86.197.036 54.742-.445 59.11-1.039 66.701h34.61c5.762-4.323 15.012-9.89 19.299-13.433 2.679-2.213 5.444-4.03 6.142-4.03 1.018 0 1.269-28.733 1.269-145.956v-145.955l-5.25-5.334c-2.888-2.937-7.392-6.338-10.004-7.553l-4.754-2.21v-375.75l-3.87-3.505c-2.132-1.925-5.996-4.744-8.58-6.258s-7.621-4.71-11.199-7.11c-3.577-2.399-6.86-4.363-7.3-4.363-.76 0-16.474 10.848-27.796 19.192l-5.25 3.874-.156 30.71c-.086 16.895-.095 64.004-.019 104.678.121 64.328-.06 74.252-1.37 76.25-.828 1.264-2.056 2.288-2.73 2.284-.675-.004-4.823-2.064-9.223-4.585s-12.503-6.975-18.003-9.892c-5.5-2.918-12.699-6.837-15.999-8.709l-6.004-3.402-.064-12.452c-.038-6.849-.602-14.296-1.25-16.548-2.41-8.37-11.374-18.12-19.3-20.986-5.413-1.957-13.661-1.324-19.944 1.526-2.44 1.107-5.702 2.021-7.245 2.033-2.35.019-3.109-.67-4.69-4.243-3.355-7.587-6.62-25.14-7.474-40.233-.312-5.5-.987-13.824-1.5-18.499a538 538 0 0 1-1.535-17c-.33-4.676-1.212-12.55-1.958-17.5s-1.893-13.562-2.547-19.137l-1.186-10.142 5.655-11.057c3.11-6.081 6.666-12.539 7.898-14.357s4.513-7.13 7.291-11.805 9.68-15.923 15.346-24.998c11.662-18.677 17.323-28.041 32.025-53 5.67-9.625 10.977-18.294 11.797-19.256 1.398-1.643 1.051-1.748-5.664-1.748-5.766 0-7.153.298-7.153 1.535 0 .844-3.142 6.804-6.98 13.248a4604 4604 0 0 0-9.396 15.836c-1.862 3.169-3.2 4.268-5.83 4.76-3.395.638-7.845 4.55-11.015 9.69-1.48 2.4-1.99 2.546-7.678 2.135-6.001-.434-6.152-.384-10.095 3.56-3.53 3.53-4.01 4.549-4.01 8.68 0 5.756 1.127 8.123 5.84 12.305 3.049 2.705 3.418 3.423 2.17 4.252-3.729 2.476-12.163-.676-22.537-8.422-.803-.6-3.093-.132-6.537 1.35-5.574 2.398-12.023 2.352-17.47-.13-3.477-1.584-3.147-3.8.57-3.8 6.418 0 11.972-6.61 11.972-14.254 0-4-.464-4.923-4.01-8.127-2.2-1.989-4.382-3.614-4.854-3.614s-1.111-2.757-1.416-6.12c-.468-5.164-1.064-6.646-3.834-9.504-2.904-2.996-3.878-3.383-8.505-3.383-6.693 0-10.56 3.009-12.891 10.03-1.558 4.688-1.85 4.974-5.122 4.974-4.28 0-8.528 2.111-11.282 5.611-2.542 3.233-2.832 11.054-.57 15.43 1.62 3.132 7.984 6.961 11.567 6.961 3.865 0 .204 2.832-4.588 3.55-6.16.924-14.066-1.04-20.77-5.159l-5.775-3.55-4.542 3.005c-5.865 3.884-15.155 5.122-20.799 2.764-4.423-1.848-4.318-3.788.258-4.724 7.966-1.629 12.523-11.395 8.726-18.693-1.836-3.527-5.47-6.778-8.597-7.7-4.076-1.203-5.002-2.51-5.002-7.045 0-11.112-13.467-15.84-21.433-7.525-2.177 2.272-2.956 4.259-3.439 8.727-.615 5.696-.686 5.799-4.505 6.869-5.737 1.607-10.62 7.354-10.62 12.499 0 7.767 5.794 14.976 12.036 14.976 3.767 0 1.51 2.42-3.614 3.874-4.362 1.238-5.652 1.204-11.374-.315-3.55-.942-7.673-2.576-9.158-3.633-3.518-2.505-3.886-2.463-9.617 1.1-2.951 1.834-6.868 3.258-9.958 3.624-5.107.605-14.695-1.021-17.056-2.894-1.751-1.388-.58-2.754 2.354-2.754 3.286 0 7.885-2.44 9.829-5.214.971-1.387 1.554-4.385 1.554-7.932 0-5.033-.355-6.057-3.071-8.774-1.693-1.692-4.286-3.338-5.756-3.651-4.96-1.056-7.172-2.372-7.172-4.28 0-3.709-3.021-9.109-5.949-10.623-3.866-1.999-11.001-1.95-13.93.102-2.935 2.055-5.112 7.19-5.13 12.092-.014 3.481-.4 3.992-4.846 6.444-5.904 3.255-8.629 8.147-7.834 14.07.81 6.043 7.196 11.769 13.14 11.769 3.796 0 3.086 1.76-1.196 2.949-4.764 1.323-6.375 1.311-13.195-.093l-5.553-1.146-6.409 4.141c-7.119 4.607-12.27 5.356-18.628 2.7-4.34-1.814-4.416-3.192-.22-4.096 5.18-1.115 8.694-3.313 10.794-6.757 3.977-6.524 1.66-15.276-4.929-18.638-4.818-2.458-7.628-2.576-12.532-.527-4.34 1.814-5.581 1.288-5.581-2.348-.009-6.064-7.859-13.183-14.528-13.183-2.352 0-3.193-1.225-8.542-12.406-3.262-6.82-5.93-12.892-5.93-13.497 0-.695-2.548-1.1-6.906-1.1zm204.692 43.08a5.5 5.5 0 0 1 3.733 2.46c1.556 2.374 1.55 2.741-.12 5.842-1.762 3.275-1.75 3.367.902 8.238 3.469 6.373 7.338 10.462 14.399 15.189 7.48 5.007 13.513 7.166 21.874 7.848 12.659 1.033 27.175-4.674 36.466-14.338 6.055-6.298 7.04-8.377 6.262-13.248-.58-3.619-.396-4.113 1.94-5.177 2.116-.964 3.038-.875 5.121.49 3.086 2.022 3.145 2.91.442 7.285-2.849 4.609-1.558 7.558 6.758 15.337 12.948 12.112 28.332 16.62 41.992 12.314 2.929-.924 5.579-1.424 5.884-1.119s-.255 2.247-1.241 4.317c-1.321 2.775-2.974 4.28-6.29 5.723-5.838 2.543-18.928 3.275-24.715 1.377-10.248-3.36-18.204-10.328-23.023-20.153-1.475-3.007-2.995-5.464-3.384-5.464s-2.588 2.364-4.882 5.251c-5.106 6.426-13.923 12.722-22.251 15.883-7.645 2.901-21.106 3.16-29.763.582-9.77-2.909-22.059-12.876-27.667-22.446-1.376-2.349-3.024-4.266-3.66-4.262-.635.004-2.273 1.653-3.64 3.661-6.26 9.19-14.896 15.857-25.893 20.015-5.85 2.212-7.736 2.458-16.127 2.043-5.225-.258-11.815-1.208-14.647-2.108-7.452-2.367-16.808-9.018-22.178-15.753-2.567-3.22-5.123-5.845-5.673-5.842-.55.002-2.24 2.585-3.76 5.74-3.856 7.996-9.21 13.358-17.296 17.334-6.448 3.171-7.56 3.395-16.43 3.328-7.64-.057-10.547-.525-14.767-2.375-5.327-2.335-11.246-7.905-11.246-10.586 0-2.012.866-1.87 7.623 1.24 5.11 2.35 7.18 2.704 15.897 2.745 9.436.044 10.43-.155 17.001-3.384 8.366-4.11 16.546-12.05 18.987-18.443 1.678-4.393 1.665-4.608-.395-7.941-2.597-4.202-2.68-6.865-.285-9.032 2.292-2.075 5.083-2.103 7.953-.093 2.63 1.843 2.743 3.088.671 7.239-1.435 2.877-1.397 3.385.47 7.044 2.457 4.817 10.852 12.411 17.506 15.837 19.582 10.08 40.269 6.552 55.297-9.43 5.864-6.236 8.004-11.017 6.335-14.135-1.68-3.138-1.269-6.934.874-8.08 1.7-.91 3.424-1.215 4.946-.952m-163.876 14.34c0-1.767 2.149-1.457 2.767.397.218.653-.315 1.183-1.186 1.183-.87 0-1.581-.71-1.581-1.58m451.817 48.913c1.16.64 6.385 4.239 11.613 7.997 8.242 5.925 9.596 7.314 10.178 10.418.37 1.97.236 4.264-.294 5.104-1.943 3.08-2.43 2.838-21.285-10.355-3.279-2.293-4.676-4.044-5.214-6.563-1.292-6.051.859-8.888 5.002-6.601m-14.15 3.901c2.254-.515 3.43.299 3.944 2.348.356 1.42.067 8.208-.635 15.088-.876 8.593-1.003 15.844-.413 23.167 1.204 14.965 1.088 27.766-.432 49.228-1.095 15.434-1.086 20.74.027 31.497.867 8.378 1.2 21.039.947 35.934-.91 53.504-.755 60.044 1.802 76.5 2.213 14.239 2.309 16.308 1.186 25.358-.671 5.418-1.652 10.984-2.179 12.37-3.25 8.549-2.774 32.455 1.085 54.275 2.879 16.274 3.527 31.45 1.995 46.474-1.53 15.008-1.226 14.65-14.5 16.954-9.244 1.605-12.073 1.785-14.251.906-.99-.4-1.278-22.962-1.37-108.163a384329 384329 0 0 0-.248-186.817c-.153-91.434-1.78-79.794 12.587-89.48 4.865-3.279 8.2-5.123 10.454-5.639m10.904 12.767c1.775 0 22.3 13.407 24.173 15.79.688.875 1.25 4.193 1.25 7.368 0 6.46-1.808 8.619-5.525 6.6-5.382-2.92-22.442-16.089-22.96-17.721-.325-1.026-.322-3.146.01-4.706.331-1.559.806-3.847 1.057-5.084.251-1.238 1.148-2.247 1.995-2.247m-331.578.934c20.203-1.224 78.127-.875 81.207.49.936.415 2.182 2.2 2.768 3.975 1.338 4.055 2.905 16.683 2.28 18.35-.71 1.894-3.464 1.512-8.533-1.182-6.65-3.537-19.865-7.49-30.269-9.051-7.686-1.154-10.163-1.145-16.366.037-10.746 2.047-19.088 7.555-19.088 12.61 0 2.804 1.566 2.98 7.089.804 16.651-6.563 38.213-6.487 56.41.203 11.384 4.186 12.504 5.076 12.504 9.855 0 4.985-1.667 5.167-9.774 1.1-3.147-1.578-9.328-4.101-13.728-5.611-6.675-2.29-9.155-2.667-14.996-2.265-8.406.578-18.323 4.375-23.998 9.18-4.39 3.716-4.142 6.27.266 2.755 1.504-1.199 5.657-3.567 9.232-5.26 13.115-6.213 29.428-4.515 45.164 4.687 8.55 5 10.33 6.66 9.48 8.875-.914 2.382-3.934 1.794-10.215-1.988-3.197-1.925-6.287-3.5-6.869-3.504-.582-.003-2.246-.63-3.696-1.386-4.742-2.475-12.677-4.73-16.56-4.715-6.338.024-13.832 2.662-19.888 6.998-3.158 2.261-6.553 4.105-7.54 4.105-.986 0-4.11-1.367-6.95-3.042-2.842-1.675-5.4-2.815-5.683-2.533-.827.827 1.896 6.585 4.67 9.883 1.409 1.673 3.507 6.007 4.663 9.623l2.096 6.573 7.64 3.837c4.201 2.113 8.21 3.65 8.91 3.411.701-.24-1.084-1.636-3.972-3.106-5.096-2.594-6.683-5.152-3.87-6.23.756-.291 4.082.168 7.392 1.025 12.468 3.231 26.301 1.131 36.723-5.584 3.851-2.48 6.148-3.241 9.977-3.29 7.057-.092 7.299.716 7.935 25.95.837 33.249 2.617 55.421 5.149 64.148.45 1.554.075 2.463-1.352 3.227-2.468 1.32-5.613-.943-11.291-8.126-2.15-2.72-3.917-4.501-3.917-3.957 0 2.044 7.734 11.1 14.004 16.4 5.388 4.554 6.724 6.307 7.77 10.215 2.245 8.396-.913 8.84-9.968 1.396-7.753-6.373-23.805-22.423-23.805-23.805 0-.557-.472-1.008-1.057-1.008-2.323 0 3.867 8.414 12.228 16.613 4.856 4.761 8.827 8.788 8.827 8.95 0 1.153-3.534 3.429-5.323 3.429-3.134 0-13.124-6.845-20.495-14.043-6.21-6.063-6.296-6.1-4.33-2.246 2.524 4.95 6.1 8.738 13.45 14.255 4.296 3.224 5.72 4.893 5.5 6.444-.447 3.124-4.863 3.168-11.558.11-3.156-1.44-7.316-4.072-9.241-5.842s-4.823-4.332-6.446-5.695l-2.951-2.477 1.848 2.995c3.01 4.886 11.165 11.99 17.111 14.902 6.163 3.018 7.227 4.572 5.59 8.163-2.787 6.12-17.606-.04-29.036-12.073-3.914-4.121-7.117-7.252-7.117-6.952 0 1.045 7.793 10.977 10.639 13.562 5.196 4.719 12.293 8.984 19.05 11.435 6.803 2.468 8.512 3.83 8.055 6.444-.446 2.554-5.117 3.482-10.969 2.173-5.583-1.25-21.31-10.747-25.874-15.624-1.32-1.41-3.936-3.755-5.81-5.214l-3.403-2.653 1.904 3.282c3.546 6.103 20.396 18.707 29.855 22.335 3.977 1.525 7.396 1.92 16.054 1.84 11.66-.109 13.91.481 13.35 3.503-.24 1.3-2.358 2.585-6.85 4.16-5.343 1.875-7.837 2.183-14.003 1.748-6.375-.45-9.089-1.291-18.132-5.649-14.479-6.976-23.319-14.53-31.731-27.115-3.578-5.352-6.699-9.534-6.942-9.29-.243.242.785 2.798 2.29 5.676 8.079 15.45 21.336 27.612 39.518 36.257 6.002 2.854 7.305 3.095 17.001 3.07 9.369-.025 11.042-.314 15.54-2.663 6.559-3.426 13.14-10.577 14.012-15.226.878-4.678-.143-9.911-2.317-11.87-2.274-2.05-7.236-3.306-7.236-1.83 0 .61.673 1.109 1.498 1.109s2.404.906 3.504 2.006c4.877 4.878-.265 12.998-8.23 12.998-3.708 0-4.907-.545-7.824-3.56-3.192-3.296-3.443-4.003-3.338-9.577.134-7.163 2.017-10.208 8.376-13.57 10.69-5.654 21.387-.737 25.534 11.75 3.15 9.482-.357 21.794-8.533 29.97-4.594 4.595-9.515 7.106-18.509 9.449-15.76 4.105-32.328-.27-52.464-13.858-10.431-7.039-25.094-25.873-29.083-37.358-.717-2.063-1.787-3.245-2.942-3.245-1.002 0-2.474-.251-3.265-.555-1.043-.4-1.765.766-2.639 4.253-.661 2.64-1.661 6.6-2.225 8.8-1.183 4.622-6.144 13.972-9.148 17.251-2.626 2.866-6.713 3.04-6.713.287 0-1.08.843-4.116 1.876-6.749s2.169-6.816 2.52-9.29c.534-3.769.012-2.932-3.218 5.13-4.59 11.451-7.378 16.187-10.997 18.693-7.233 5.007-9.252 2.955-5.315-5.39 3.132-6.639 6.692-17.867 7.586-23.934.564-3.83.522-3.788-1.058.998-7.24 21.947-12.632 30.893-20.88 34.64-8.586 3.9-10.458 1.379-4.7-6.323 5.53-7.396 10.937-18.606 12.754-26.44.843-3.636 1.363-6.775 1.158-6.98-.204-.204-1.873 3.336-3.714 7.867-10.793 26.563-18.399 34.742-32.32 34.742-9.062 0-9.475-3.955-.873-8.403 7.714-3.99 20.265-24.277 23.759-38.394 2.387-9.646 1.074-9.806-1.517-.185-2.718 10.092-4.88 14.575-10.657 22.095-13.664 17.79-29.635 24.548-44.668 18.897-8.582-3.227-14.476-8.934-10.573-10.234.637-.213 3.856.05 7.162.582 13.82 2.226 29.259-4.701 38.82-17.426 4.727-6.29 9.677-19.084 10.776-27.836.919-7.313-.093-15.632-3.825-31.358-6.879-28.99-9.835-56.427-6.61-61.348 1.942-2.965 2.383-2.947 17.019.684 8.242 2.045 9.626 2.127 16.495.99 4.125-.684 8.85-1.317 10.5-1.406 2.795-.151 2.988.072 2.841 3.18l-.156 3.338 2.317-2.182c1.275-1.198 3.154-2.013 4.165-1.812 2.505.498 2.318 3.523-1.186 19.312-1.586 7.15-2.862 14.192-2.832 15.642.097 4.65 3.694 8.145 13.14 12.767 6.858 3.356 9.358 5.136 10.536 7.498 1.047 2.097 1.567 2.515 1.61 1.303.095-2.663-3.657-9.486-5.867-10.668-1.06-.568-2.216-1.932-2.565-3.033-.372-1.173-1.543-2.027-2.823-2.052-1.2-.024-3.978-1.072-6.178-2.33-5.838-3.338-6.519-7.031-3.173-17.213 4.059-12.35 6.434-24.902 8.248-43.617.513-5.29.216-8.133-1.416-13.497-2.812-9.242-6.938-14.509-14.767-18.887-5.406-3.023-7.692-3.684-14.362-4.142-9.36-.641-18.357.897-25.818 4.42-5.927 2.796-7.787 2.545-9.223-1.23-1.596-4.199.113-5.917 7.19-7.239 14.346-2.68 53.03-6.963 74.818-8.283m104.378 2.237c7.301-.834 9.925 1.84 11.603 11.824 3.376 20.086 5.215 34.912 5.526 44.504.373 11.463 2.504 56.46 2.934 62.004.653 8.423 4.966 28.941 7.466 35.5 1.152 3.025 2.096 6.21 2.096 7.082 0 .87-1.458 3.222-3.246 5.232-4.187 4.71-5.892 3.81-8.652-4.576-5.662-17.205-7.737-31.912-9.59-67.912-1.659-32.222-4.364-56.904-8.257-75.326-3.492-16.523-3.48-17.92.12-18.332m-7.55.12c1.719 2.07 6.158 20.423 7.182 29.694.517 4.684 1.859 15.493 2.979 24.018s2.477 25.397 3.025 37.497c1.744 38.496 5.03 60.588 11.65 78.45 8.653 23.351 17.165 33.428 26.72 31.636 3.801-.714 8.206-5.096 9.23-9.18 1.226-4.88-.599-11.596-4.1-15.097-3.562-3.562-8.317-4.45-10.4-1.941-.92 1.109-.389 1.489 2.787 1.996 5.527.884 9.103 5.313 9.103 11.26 0 10.276-10.776 12.702-18.693 4.216-5.677-6.085-7.98-17.716-4.745-23.971 3.36-6.496 17.444-8.156 25.552-3.014 9.986 6.332 15.183 17.171 14.418 30.073-.621 10.466-5.095 18.246-12.744 22.169-6.568 3.368-14.707 2.053-23.511-3.79-7.02-4.66-10.287-8.797-16.44-20.81-15.007-29.3-20.678-54.666-22.37-100-1.133-30.324-1.305-33.104-2.456-41.537-.635-4.654-1.772-11.84-2.528-15.966-2.276-12.414-4.77-33.804-4.138-35.453.74-1.927 7.931-2.116 9.48-.25m25.102 1.71c3.349 0 5.617 1.754 6.473 5.002 3.231 12.255 6.454 39.377 7.595 63.992 1.874 40.413 3.45 54.067 8.68 74.928l2.62 10.419-2.261 1.83c-5.072 4.107-7.857 1.928-11.402-8.911-5.452-16.67-7.018-27.989-8.155-58.76-1.06-28.648-3.572-56.622-6.62-73.754-2.31-12.976-1.946-14.745 3.07-14.745m14.74 2.034c1.986.448 4.174 1.408 4.854 2.136 3.369 3.603 7.61 40.409 9.49 82.324 1.067 23.814 3.029 39.362 6.463 51.207 3.423 11.808 3.34 13.816-.625 15.198-1.732.604-3.191 1.06-3.246 1.017s-.67-.31-1.37-.592c-2.305-.927-4.26-6.179-6.712-18.083-4.297-20.861-5.428-30.318-6.5-54.248-.58-12.921-1.483-27.32-2.005-31.995-2.025-18.12-3.957-33.166-5.02-39.032-1.387-7.646-.534-9.105 4.67-7.932m16.237 2.589c1.417.71 2.618 2.22 3.531 4.502 2.852 7.127 6.199 33.154 7.062 54.877 1.297 32.659 4.923 62.416 9.001 73.976 2.146 6.08 1.965 6.75-2.455 9.004-4.885 2.492-4.689 2.498-6.445-.23-5.042-7.833-10.135-39.371-11.07-68.55-.62-19.32-1.234-26.606-4.479-53.204-2.467-20.23-2.468-18.706.046-20.051 1.761-.943 3.392-1.034 4.81-.324m7.852 3.624c.675-1.831 5.685-1.525 8.175.5 1.582 1.286 2.517 3.87 3.53 9.752 2.198 12.754 5.492 42.656 6.556 59.5 1.649 26.096 2.878 35.85 5.977 47.619 1.636 6.217 2.694 12.036 2.353 12.924s-1.716 2.025-3.052 2.533c-6.035 2.294-8.158.392-10.703-9.578-3.367-13.194-5.793-34.304-7.64-66.497-.616-10.725-1.57-22.879-2.125-27.004-2.388-17.794-3.5-28.585-3.07-29.75m167.647 6.832c1.354-1.124 2.838-.447 10.335 4.678a3667 3667 0 0 0 12.744 8.671c2.188 1.479 4.319 3.228 4.735 3.883 1.223 1.924.902 13.17-.414 14.486-.66.66-1.453 1.198-1.756 1.193-1.613-.025-24.993-17.258-25.423-18.74-.28-.961-.801-4.249-1.159-7.302-.516-4.409-.318-5.827.938-6.87m-373.46.823c6.537.91 12.666 3.035 17 6.175 4.686 3.394 8.045 8.312 8.055 11.787.003 2.064-.386 2.302-3.034 1.914l-3.034-.444 3.034 3.134c1.668 1.72 3.034 3.89 3.034 4.826 0 2.672-3.848 1.944-9.994-1.886-9.658-6.02-15.394-7.684-24.55-7.137-7.881.47-10.302 1.312-18.665 6.508-2.122 1.318-2.982 1.425-3.927.48-2.196-2.196.674-5.903 7.54-9.743 5.734-3.207 7.572-3.701 15.31-4.16 8.763-.52 9.715-.343 21.79 4.095 1.595.586 1.488.317-.505-1.313-3.959-3.237-12.688-6.138-18.463-6.138-5.524 0-17.627 3.895-20.706 6.665-2.383 2.144-5.125 1.28-6.271-1.978-1.754-4.986 2.252-8.343 13.939-11.685 5.965-1.706 12.91-2.01 19.447-1.1m-40.282 12.96c2.69-2.233 3.774.654 3.705 9.902-.08 10.747-2.343 17.291-7.383 21.364-6.543 5.288-17.376 4.561-21.02-1.414-2.665-4.373-2.508-8.97.424-12.379 1.951-2.269 3.184-2.77 6.749-2.727 2.399.03 5.36.407 6.574.832 1.887.66 2.651.067 5.305-4.086 1.707-2.67 3.35-6.08 3.66-7.58s1.204-3.262 1.986-3.911m417.236 9.134c1.79 0 22.96 14.177 24.283 16.262 1.448 2.279.92 11.49-.754 13.164-.864.865-1.698 1.572-1.857 1.572-.364 0-6.544-4.151-13.066-8.783-9.797-6.957-11.502-9.083-11.502-14.329 0-5.874.74-7.886 2.896-7.886m-396.327 6.61c2.197-.843 5.165.967 5.976 3.643 1.131 3.73 4.57 6.748 7.678 6.748 2.76 0 7.778-3.767 7.778-5.842 0-1.303 2.688-2.21 4.497-1.516 2.556.98 1.664 4.255-2.318 8.523-3.3 3.54-4.474 4.143-8.744 4.456-6.18.453-8.067-.364-12.716-5.51-4.009-4.437-5.028-9.398-2.151-10.502m126.38 1.461c1.161-.138 2.268.34 2.713 1.498.33.86.087 2.766-.543 4.243l-1.149 2.69 2.308-2.746c2.866-3.425 6.648-3.58 10.325-.416 3.384 2.91 2.703 4.145-3.98 7.258-6.383 2.971-9.63 3.095-10.336.397l-.524-2.006-3.255 2.006q-3.247 2.01-8.128 1.932c-5.548-.09-7.146-.55-9.654-2.736-1.36-1.185-2.05-1.272-2.952-.37-2.689 2.69-7.465.134-6.15-3.291.492-1.285 1.39-1.572 3.52-1.146 2.499.5 2.851.268 2.851-1.803 0-2.897 2.533-4.067 4.248-1.97 3.88 4.745 4.91 5.39 8.579 5.39 3.948 0 6.632-1.993 9.084-6.748.666-1.291 1.883-2.044 3.043-2.182m-132.21 2.93c1.549.332 3.16 1.855 4.744 4.558 2.133 3.638 2.428 4.848 1.472 6-1.552 1.87-2.714 1.82-6.878-.305-4.862-2.482-5.825-4.462-3.733-7.655 1.359-2.073 2.846-2.929 4.395-2.597m37.836 1.997c2.731 0 5.425 2.009 5.425 4.05 0 1.16-1.35 2.804-3.255 3.966-3.56 2.17-7.261 2.589-8.284.933-.905-1.464 4.208-8.949 6.114-8.949m364.956 8.635c2.147.892 5.237 2.835 9.672 6 13.99 9.985 14.795 10.886 14.795 16.474 0 2.602-.273 5.444-.607 6.314-1.134 2.955-4.876 1.58-14.896-5.482-13.912-9.807-13.884-9.774-13.709-16.437.081-3.075.42-6.02.745-6.545.65-1.053 1.852-1.216 4-.324m-2.079 21.383c.94.014 22.395 14.36 25.166 16.825 1.44 1.28 1.687 11.712.34 14.228-1.362 2.547-3.192 2.436-6.629-.407-1.554-1.286-6.653-4.959-11.328-8.163s-9.068-6.51-9.755-7.35-1.25-4.051-1.25-7.136c0-5.347 1.164-8.032 3.457-7.997m-316.25 2.376c-.497 1.095.784 2.95 4.312 4.511 4.712 2.085 6.463 4.757 5.71 8.7-1.305 6.824-8.965 7.61-19.833 2.043-9.554-4.894-12.234-5.347-15.659-2.654-2.96 2.33-3.627 6.479-1.637 10.197.963 1.798 1.683 1.964 5.756 1.34 5.939-.908 7.983-.91 17.194-.008 6.147.602 8.153.432 10.795-.934 9.438-4.88 9.254-19.146-.303-23.14-3.561-1.488-5.839-1.15-6.336-.055m-99.303 5.547c1.253-.036 2.019 1.736 2.381 5.315.678 6.697-1.504 11.933-7.742 18.6-3.355 3.588-5.806 5.228-9.02 6.038-10.513 2.647-18.845.156-22.049-6.592-2.348-4.947-2.284-8.73.212-12.073 4.27-5.72 12.32-4.943 15.318 1.488.825 1.769 2.027 3.436 2.676 3.698 2.067.832 9.26-5.274 12.882-10.937 2.339-3.657 4.088-5.501 5.342-5.537m136.1 13.294c-5.253.409-4.44 2.81 1.461 4.308 8.386 2.129 11.485 7.795 7.972 14.588-3.447 6.666-11.694 7.226-24.761 1.682-3.947-1.674-9.747-3.768-12.89-4.65-5.493-1.54-5.821-1.525-8.396.398-1.474 1.1-3.034 2.956-3.466 4.123-1.454 3.93.971 5.336 13.626 7.886 6.577 1.325 13.301 2.826 14.951 3.337 4.586 1.42 12.288 1.259 15.3-.314 3.074-1.606 7.425-6.044 9.084-9.273 1.813-3.529 1.356-11.422-.873-15.078-2.716-4.455-7.676-7.345-12.008-7.007m278.608.064c1.108-.365 11.56 6.375 20.88 13.47 5.383 4.097 6.988 8.223 5.84 14.986-.425 2.499-1.041 3.237-2.686 3.207-2.345-.041-23.36-14.706-24.825-17.324-1.235-2.206-.59-13.883.79-14.339m-375.612 3.698c-6.57-2.721-14.856 1.871-16.965 9.402-2.255 8.057.96 15.549 8.763 20.412 3.187 1.987 4.69 2.26 10.703 1.905 5.628-.333 8.568-1.191 14.996-4.373 8.703-4.308 11.9-7.892 9.903-11.084-1.893-3.024-5.834-2.518-17.259 2.19-13.393 5.52-18.862 5.998-22.067 1.924-1.365-1.737-2.069-4.106-2.069-6.934 0-3.74.477-4.682 3.724-7.359 3.01-2.48 4.653-3.078 8.505-3.078 5.45 0 6.148-1.19 1.766-3.005m377.69 20.496c1.12-.74 2.865-.14 5.71 1.497 5.835 3.359 18.582 12.921 18.73 14.052.423 3.255.536 11.739.174 13.211-.69 2.803-3.662 2.056-9.94-2.505-3.223-2.342-8.203-5.826-11.07-7.747s-5.424-4-5.673-4.613c-.25-.614-.2-3.919.11-7.34.339-3.738.837-5.816 1.959-6.555m-121.986 8.856c.748-1.949 9.733-1.711 14.15.38 5.327 2.52 11.722 9.554 13.544 14.902 3.832 11.245 2.61 25.504-2.602 30.36-2.123 1.977-5.701 2.747-5.884 1.266-.052-.413-.192-5.252-.313-10.752-.328-14.848-4.672-24.287-13.93-30.285-4.9-3.175-5.657-4.067-4.965-5.87m-218.806 2.117c-3.802-.532-5.513-.18-9.792 1.988-3.431 1.738-6.418 2.53-8.836 2.339-3.579-.282-3.676-.2-4.543 4.077-1.096 5.41-.155 6.532 4.211 5.01 2.262-.788 5.876-.894 11.439-.333 9.96 1.006 17.498 1.035 28.687.12 7.912-.646 8.901-.508 13.001 1.748 2.44 1.343 4.793 2.474 5.223 2.514 1.388.132 1.697-2.31.938-7.423l-.745-5.001-3.99-.102c-2.194-.056-6.46-1.172-9.48-2.478-3.598-1.556-6.871-2.26-9.498-2.043-5.696.473-11.288.33-16.615-.416m209.96 2.718c4.643-.446 13.28 3.994 17.608 9.05 5.74 6.706 7.767 13.543 7.374 24.952-.314 9.144-.5 9.866-3.273 12.758-1.615 1.685-3.756 3.06-4.754 3.06-1.593 0-1.806-.936-1.82-7.747-.033-16.11-5.074-27.212-16.32-35.962-3.77-2.933-3.236-5.686 1.186-6.11m-281.035 2.006c1.819-.175 3.956.214 4.745.87 1.743 1.446 1.888 6.096.239 7.746-2.021 2.021-4.56 1.341-6.804-1.812-2.923-4.104-2.31-6.406 1.82-6.804m-11.87 3.051c2.065-.553 4.973.052 7.061 2.274 1.769 1.883 2.382 3.712 2.428 7.257.054 4.139-.213 4.775-2.134 5.048-1.703.242-2.669-.605-4.275-3.753-1.14-2.235-2.496-4.059-3.016-4.059s-1.443-.936-2.05-2.07c-1.302-2.434-.08-4.144 1.986-4.697m281.936.767c4.576 0 5.39.394 10.694 5.242 6.91 6.316 10.998 14.26 11.962 23.26.822 7.674-.825 16.104-3.752 19.22-4.627 4.926-6.785 2.233-6.785-8.46 0-6.93-.528-9.685-3.117-16.4-2.57-6.662-4.163-9.095-9.121-13.931-7.23-7.052-7.206-8.93.12-8.93m141.663 1.997c2.054 0 23.871 14.861 24.632 16.78.869 2.19.98 9.038.193 11.971-1.007 3.759-4.263 2.641-15.373-5.279-13.497-9.621-14.105-10.366-13.332-16.298.655-5.036 1.81-7.174 3.88-7.174M2240.59 901c6.186.008 12.954 7.175 13.976 14.791.366 2.73 0 4.312-1.352 5.87-2.623 3.026-4.106 1.965-5.903-4.215-1.2-4.13-2.632-6.32-6.123-9.393-5.03-4.426-5.248-7.06-.598-7.053m280.557 2.237c1.863.364 4.144 1.524 7.32 3.577 7.03 4.547 10.938 10.067 13.515 19.082 3.692 12.908 1.701 25.048-4.579 27.91-5.245 2.39-5.479 1.936-4.808-9.3.898-15.064-1.424-21.07-12.67-32.82-5.326-5.563-5.473-5.868-3.614-7.247 1.527-1.134 2.974-1.567 4.836-1.202m-248.872 2.09c1.438.55 1.607 1.44 1.03 5.417-1.073 7.39-5.108 17.132-9.49 22.936-4.446 5.889-12.514 12.404-18.425 14.874-5.462 2.282-20.907 2.912-25.865 1.054-4.99-1.869-8.472-5.132-10.767-10.104-2.118-4.588-2.47-13.498-.736-18.6 2.816-8.278 11.139-14.848 18.85-14.875 1.925-.007 5.797 1.059 8.606 2.366 4.076 1.899 5.534 3.27 7.245 6.804 3.767 7.782 2.176 16.202-3.623 19.165-10.017 5.118-20.888-.148-16.954-8.21 1.172-2.403 1.794-2.639 6.51-2.514 5.73.151 6.5-.75 2.749-3.208-2.064-1.352-3.041-1.421-6.06-.425-7.704 2.542-8.014 13.038-.515 17.407 5.22 3.041 12.91 2.638 18.077-.942 4.245-2.942 5.181-3.969 16.458-17.981 3.85-4.784 7.943-9.85 9.094-11.26 1.413-1.732 2.654-2.35 3.816-1.905m233.83 2.865c5.201-.432 9.531 2.017 14.767 8.366 6.62 8.03 8.288 12.432 8.79 23.084.526 11.168-.62 15.07-5.848 19.793-6.556 5.923-9.1 4.007-6.427-4.844 4.264-14.119-.963-32.679-11.19-39.715-5.451-3.75-5.485-6.236-.092-6.684m-152.99 1.433c-5.927 1.067-16.849 1.121-20.495.102-4.094-1.145-3.343.814 1.002 2.616 4.908 2.036 11.233 2.046 18.426.028 7.12-1.998 7.888-3.975 1.067-2.746m320.36 11.574c2.048-.292 15.947 8.43 23.208 14.56 3.656 3.088 4.971 8.228 3.76 14.681-.998 5.321-3.544 4.662-15.575-4.021-15.094-10.894-14.13-9.646-13.792-17.86.259-6.309.516-7.09 2.4-7.36m.653 22.872c2.027.06 5.849 2.427 13.03 7.146 12.318 8.096 12.555 8.322 12.881 12.268.183 2.21.1 5.588-.175 7.506-.294 2.052-1.113 3.58-1.995 3.717-1.67.257-17.513-10.433-22.683-15.31-2.981-2.81-3.32-3.699-3.32-8.643 0-4.503.235-6.746 2.262-6.684m-89.087 19.996c8.39.7 15.67 7.626 14.528 16.141-.674 5.027-4.92 10.529-8.92 11.565-5.48 1.42-4.574 3.227 1.62 3.227 4.7 0 6.059.438 8.734 2.829 2.676 2.39 3.249 3.706 3.641 8.44.589 7.099-1.944 11.669-8.128 14.662-8.81 4.265-17.137 1.599-20.219-6.471-2.772-7.259-4.325-5.85-5.287 4.789-.352 3.898-1.096 7.237-1.646 7.414-1.532.492-14.49-5.83-14.5-7.072-.004-.602 2.802-3.635 6.243-6.749 4.563-4.129 5.97-5.974 5.177-6.795-.776-.802-1.87-.823-3.816-.083-6.382 2.427-14.617-.234-17.847-5.769-5.6-9.6 1.952-23.195 12.891-23.195 3.593 0 5.043.628 8.35 3.615l4.008 3.615v-5.714c0-6.855 1.963-10.658 6.675-12.905a16.5 16.5 0 0 1 8.496-1.544m-275.17 1.128c0-1.676 2.898-.32 7.743 3.605l4.257 3.44v10.381c0 11.94-.89 12.927-5.324 5.907-1.553-2.458-5.041-7.515-7.75-11.232-4.352-5.968-6.579-11.433-4.01-9.845.506.312 1.578-.093 2.382-.897.803-.804 1.737-1.182 2.078-.841s.625.106.625-.518m218.485.139c2.173-.12 2.508 2.038 2.492 6.388-.019 4.948-.71 7.073-4.772 14.745-3.4 6.421-5.97 9.894-9.057 12.25-4.127 3.147-7.055 4.047-8.487 2.615-.367-.366-.662-5.97-.662-12.452v-11.787l6.951-4.493c7.345-4.752 11.362-7.147 13.535-7.266m150.793 2.385c5.012 2.295 19.976 13.818 20.816 16.03 1.213 3.189 1.148 8.93-.128 11.315-.57 1.064-1.629 1.933-2.345 1.933-2.624 0-21.59-13.996-22.049-16.271-2.204-10.938-.999-15.161 3.706-13.007m-548.564 5.278c.573 0 1.555.624 2.188 1.387s4.174 2.823 7.87 4.576c8.04 3.814 24.847 14.295 35.226 21.966 34.93 25.817 57.83 48.593 81.51 81.076l6.924 9.494-.312 59.508c-.186 35.562-.693 59.956-1.26 60.646-.522.634-3.406 2.358-6.409 3.827-6.749 3.302-10.443 8.947-11.346 17.343l-.607 5.676-5.71.712c-3.14.391-7.572 1.659-9.847 2.82-2.276 1.16-4.707 1.892-5.398 1.627-.732-.281-1.495-3.121-1.83-6.814-.503-5.553-.253-6.928 2.014-11.093 2.63-4.831 5.738-6.288 6.905-3.245 1.005 2.617 3.262 1.63 5.931-2.598 2.392-3.789 2.835-4.057 5.93-3.476 1.842.345 3.603.214 3.918-.296s-.595-4.005-2.023-7.775c-2.578-6.8-3.249-9.007-7.696-25.33-1.932-7.088-2.682-8.557-4.616-9.014-1.884-.445-2.712-1.92-4.487-8.024-5.719-19.663-17.29-33.677-38.838-47.01-5.32-3.291-5.983-5.665-3.126-11.278 1.733-3.407 10.006-13.685 12.054-14.976 3.515-2.218 4.257-3.759 3.08-6.342-1.772-3.889-7.466-6.237-16.91-6.97l-8.348-.648-8.505-8.69c-4.675-4.781-9.948-9.281-11.714-9.994-2.85-1.149-3.583-1.06-6.5.759-1.81 1.127-5.083 4.405-7.283 7.294-6.852 8.996-9.03 10.865-12.68 10.88-8.312.038-22.952 5.266-24.255 8.663-.299.779 2.017 3.934 5.416 7.386 6.965 7.074 13.005 18.139 11.346 20.783-.57.91-3.795 3.224-7.163 5.149s-8.847 6.091-12.183 9.254-6.855 5.75-7.815 5.75c-2.553 0-7.78-9.256-11.668-20.671-1.842-5.406-3.579-9.155-3.862-8.33-4.138 12.046-11.318 37.691-10.72 38.301.432.442 2.42.026 4.413-.924 3.41-1.627 3.74-1.627 5.507-.028 1.033.935 2.68 3.203 3.669 5.038 1.796 3.335 1.792 3.338-1.297 8.737-5.028 8.79-7.4 19.307-7.41 32.763-.012 18.822 5.165 34.582 15.897 48.396 6.82 8.777 6.174 9.223-12.698 8.764-4.675-.114-9.622.225-10.997.749-3.42 1.304-6.8-.162-8.137-3.523-.798-2.003-.926-34.698-.469-117.472.348-63.086.854-115.288 1.131-116.003.739-1.905 18.113-11.476 51.555-28.39 11.321-5.726 21.061-10.41 21.635-10.41m198.761 5.372c1.349-.518 5.24 1.932 17.728 11.176l4.119 3.051-.24 13.414c-.129 7.379-.45 13.768-.716 14.2-1.14 1.844-4.42.401-13.121-5.796l-9.25-6.592v-14.44c0-11.829.268-14.548 1.48-15.013m307.664 1.22c.47.29.855 5.076.855 10.631v10.096l-5.811 8.597c-5.392 7.96-7.98 12.147-13.912 22.585-6.045 10.636-16.824 33.755-23.088 49.505-17.676 44.444-27.033 86.31-30.94 138.495l-.745 10.003-2.997.194c-1.65.109-4.576-.376-6.5-1.081-3.345-1.225-3.515-1.528-3.817-6.703-.514-8.817 2.733-42.399 5.453-56.411 4.048-20.85 10.085-43.882 15.732-59.998 6.901-19.696 8.734-24.708 11.98-32.736 9.475-23.426 21.472-47.03 33.433-65.767 13.09-20.505 18.89-28.316 20.357-27.41m-506.729 2.413c-1.448-.007-2.787 3.08-7.07 16.363-1.975 6.123-4.91 13.764-6.528 16.982-1.62 3.219-2.65 6.152-2.29 6.509.36.356 2.74.647 5.287.647 4.55 0 4.669.085 6.933 4.826 1.267 2.653 2.84 4.646 3.494 4.428.653-.218 2.262-2.56 3.576-5.196 2.289-4.589 2.537-4.77 5.839-4.234 2.373.385 3.61.144 3.963-.776.282-.736-1.238-5.998-3.384-11.695s-4.989-14.29-6.316-19.1c-1.328-4.81-2.904-8.751-3.504-8.754m105.28 1.655c1.198.753 2.316 2.398 3.714 5.158 5.096 10.057 8.866 12.702 19.999 14.061 2.803.342 5.093 1.026 5.093 1.516 0 .491-1.27 1.836-2.822 2.996-2.29 1.71-4.459 2.15-11.503 2.33-15.258.386-25.175-5.212-25.175-14.21 0-3.753 3.698-10.407 6.482-11.676 1.735-.79 3.013-.929 4.211-.175m265.413.406c.525.79.826 6.55.671 12.795l-.275 11.353-4 3.374c-2.2 1.857-6.658 4.961-9.903 6.896-6.647 3.965-8.345 4.283-9.378 1.766-.928-2.26-.91-17.987.027-21.244 1.04-3.615 21.497-16.986 22.858-14.94m177.071 5.935c2.414 0 20.418 12.316 21.626 14.792.912 1.868.695 10.588-.303 12.203-1.163 1.881-3.244 1.015-11.126-4.65-12.779-9.186-14.61-11.214-13.884-15.346 1.054-6 1.585-6.999 3.687-6.999m-319.68 8.348c.55-.173 5.727 2.953 11.502 6.943l10.5 7.248.313 9.485c.172 5.214.027 11.84-.322 14.727-.784 6.49-2.077 6.7-9.102 1.497a464 464 0 0 0-9.756-6.998l-4.69-3.245.286-14.671c.163-8.653.679-14.8 1.269-14.986m111.963 5.002c1.264.485 1.536 2.704 1.536 12.434 0 7.963-.4 12.352-1.242 13.414-.687.869-5.823 4.554-11.41 8.19-5.587 3.637-10.349 6.61-10.583 6.61-1.42 0-1.765-2.623-1.765-13.635v-12.296l9.258-6.147c5.088-3.38 10.019-6.825 10.96-7.655.943-.83 2.4-1.24 3.246-.915m-173.577 2.708c7.593 1.75 17.598 8.476 22.693 15.254 7.537 10.028 13.123 22.701 14.849 33.688 1.306 8.307 1.313 11.258.083 23.5-.774 7.7-1.95 17.793-2.611 22.428-1.82 12.735.889 28.076 4.955 28.076 2.546 0 3.82-1.73 4.68-6.333.817-4.37 2.516-5.427 6.087-3.8 3.674 1.674 5.861 7.583 4.497 12.139-1.813 6.05-5.296 8.496-12.128 8.496-5.117 0-6.243-.376-8.928-2.95-1.91-1.828-3.418-2.582-3.99-1.996-1.542 1.577-3.067 16.392-2.667 25.94.548 13.09 3.044 21.832 7.595 26.616 2.405 2.529 4.584 3.883 6.243 3.883 3.8 0 4.168-2.572.717-5.03-3.722-2.65-3.74-5.064-.055-9.189 2.427-2.716 3.575-3.232 6.979-3.143 4.851.128 8.503 2.305 11.162 6.666 4.212 6.907.933 16.367-7.043 20.31-8.283 4.095-14.765 3.795-22.022-1.007-9.363-6.197-13.484-16.662-14.408-36.61-.59-12.766.344-24.41 2.897-35.998 1.856-8.428 3.826-24.707 3.126-25.84-.3-.484-2.86.273-5.691 1.674-3.898 1.929-6.704 2.542-11.55 2.542-6.218 0-6.519-.124-10.886-4.41-6.582-6.46-8.046-13.108-4.477-20.393 2.387-4.875 7.722-8.57 12.376-8.57 5.145 0 6.269 2.044 4.165 7.553-2.053 5.376-1.44 8.809 1.977 11.047 3.644 2.388 8.385 1.135 12.68-3.355 4.95-5.178 6.295-9.9 6.196-21.744-.095-11.33-2.407-19.49-8.744-30.822-8.295-14.834-23.115-21.838-38.176-18.055-7.664 1.925-11.428 5.104-13.994 11.824-2.457 6.432-1.33 12.895 3.015 17.242 3.943 3.942 6.736 4.183 10.06.86 2.823-2.824 3.15-6.557.873-10.031-1.868-2.85-1.122-6.159 1.581-7.017 2.9-.92 11.882 3.368 13.406 6.397 4.643 9.23 1.276 19.173-7.806 23.047-6.379 2.722-10.633 3.154-16.302 1.646-7.356-1.957-10.89-4.865-14.528-11.935-2.781-5.404-3.172-7.135-3.172-14.154-.004-8.892 1.547-12.969 7.558-19.802 6.58-7.48 25.477-11.699 38.728-8.644m377.497 1.942c1.29 0 3.423.83 4.735 1.849 1.312 1.018 6.544 4.647 11.631 8.061l9.25 6.203v7.95c0 7.589-.093 7.936-2.243 7.877-1.238-.034-7.652-3.997-14.252-8.8l-11.999-8.728-.313-4.89c-.45-7.046.375-9.522 3.191-9.522m-160.383 1.95c0 1.254-11.008 26.192-12.275 27.809-1.121 1.43-42.564 29.31-68.5 46.075-9.504 6.143-18.076 11.168-19.052 11.168s-6.473-3.114-12.22-6.915c-5.745-3.802-19.221-12.62-29.946-19.599-10.725-6.978-20.96-13.655-22.739-14.838-2.433-1.618-4.02-4.132-6.418-10.15-1.753-4.4-4.205-10.258-5.443-13.017-2.909-6.482-3.903-10.484-2.611-10.484.554 0 3.19 1.483 5.857 3.292 6.688 4.534 45.66 31.512 57.853 40.048 14.657 10.26 13.844 10.137 23.713 3.476 15.866-10.71 63.557-41.828 82.044-53.536 6.587-4.172 9.737-5.247 9.737-3.329m-333.086 7.063c-.327-.003-2.015 5.33-3.752 11.861s-4.29 15.337-5.673 19.571c-1.382 4.235-2.255 8.116-1.94 8.626s1.84.934 3.393.934c2.05 0 3.55.951 5.489 3.494 1.468 1.925 2.99 3.503 3.375 3.513.384.005 1.89-1.445 3.346-3.217 1.756-2.136 3.607-3.263 5.499-3.356 2.128-.105 2.823-.628 2.74-2.043-.162-2.734-11.77-39.373-12.477-39.383m207.91 1.988c.92 0 19.52 12.696 21.957 14.986 2.197 2.066 2.25 2.556 1.664 14.329-.334 6.703-.78 12.745-.993 13.433-.213.687-.96 1.232-1.664 1.21-1.771-.053-20.953-13.507-22.05-15.466-.92-1.646.102-28.492 1.086-28.492m-311.801 3.726c-.364-.424-1.881 4.484-3.365 10.908-1.484 6.425-4.31 15.68-6.29 20.57-1.979 4.889-3.302 9.199-2.933 9.568.37.37 2.177.537 4.01.38 2.795-.242 3.7.248 5.645 3.031 1.274 1.825 2.789 3.646 3.365 4.05 1.464 1.026 1.297 1.18 3.53-3.199 2.283-4.474 4.733-6.186 7.743-5.399 3.33.87 3.424-1.03.386-7.775-1.577-3.5-4.79-11.984-7.144-18.859-2.356-6.875-4.583-12.851-4.947-13.275m362.546 1.275c1.264 0 1.45 1.975 1.214 12.749l-.276 12.748-9.424 6.25c-9.214 6.11-11.057 6.94-12.413 5.584-.367-.367-.671-5.958-.671-12.425v-11.76l10.04-6.573c5.519-3.616 10.708-6.573 11.53-6.573m-408.418 4.003c1.735 0 1.79 3.754 1.517 91.246-.245 78.525-.479 91.287-1.72 91.513-1.56.285-7.984-3.31-9.185-5.14-.406-.618-.628-39.31-.497-85.985l.24-84.866 3.916-3.384c2.154-1.862 4.733-3.384 5.729-3.384m641.917 1.22c1.927-.367 26.46 16.089 27.318 18.324.787 2.054.782 10.247-.01 13.201-1.169 4.362-5.532 2.614-21.285-8.524-3.323-2.348-6.52-5.161-7.108-6.258-.587-1.097-.934-5.244-.772-9.217.227-5.596.648-7.295 1.857-7.525m-177.696 20.774c.345 0 .634.748.634 1.654 0 1.736-6.593 21.544-8.21 24.674-.816 1.577-41.49 29.03-63.72 43.007-4.085 2.568-8.136 4.669-9.001 4.668-1.35 0-24.814-14.92-48.576-30.886l-6.997-4.706-4.193-11.454c-4.55-12.42-5.291-16.548-2.786-15.586 1.567.6 38.028 24.789 51.674 34.279 4.234 2.944 8.532 5.353 9.544 5.353 1.936 0 9.863-4.753 23.557-14.117 4.515-3.088 12.253-8.156 17.203-11.27s13.727-8.793 19.502-12.618c11.316-7.495 20.36-12.998 21.369-12.998m179.866 5.223c.954-.196 6.697 2.935 12.762 6.961 12.373 8.212 13.79 10.382 12.266 18.813-.506 2.798-1.399 4.603-2.363 4.789-2.066.398-21.042-13.214-22.619-16.225-.683-1.303-1.37-4.987-1.517-8.181-.223-4.838.027-5.86 1.471-6.157m-141.35.499c12.418-.185 19.863 4.351 25.91 15.78 3.738 7.063 3.847 18.768.24 25.83-2.898 5.673-8.598 11.113-14.399 13.747-5.217 2.37-16.475 2.483-22.132.222-4.177-1.669-10.07-5.618-12.311-8.255-3.714-4.37-6.483-12.482-6.483-18.98 0-16.544 11.878-28.086 29.175-28.344m-4.707 5.5c-5.227 1.108-10.196 3.956-13.645 8.275-4.594 5.75-5.837 9.585-5.342 16.428.731 10.114 6.255 16.968 16.67 20.69 4.742 1.695 7.798 1.696 13.405.008 12.784-3.847 19.139-15.821 15.337-28.899-1.924-6.619-5.204-10.814-11.218-14.338-4.496-2.635-9.981-3.27-15.207-2.163m-377.939 2.672c1.19-.647 2.622-.495 4.506.481 2.494 1.293 11.361 10.184 16.927 16.973 2.047 2.497 2.686 2.654 10.822 2.654 13.148 0 15.21 2 9.066 8.8-1.893 2.096-5.864 7.391-8.818 11.76-3.551 5.254-6.107 8.053-7.558 8.265-4.945.721-3.526-4.782 4.202-16.253 5.52-8.19 5.126-8.928-4.385-8.153-3.575.29-6.984.204-7.577-.195s-2.372-3.11-3.944-6.027c-2.726-5.055-9.415-12.194-11.43-12.194-1.49 0-6.84 6.063-9.709 11.001-4.723 8.13-4.544 8.036-14.334 7.34-10.572-.75-11.513.08-6.611 5.806 4.717 5.511 10.117 16.06 9.305 18.175-1.244 3.241-4.421 1.851-7.614-3.337-1.697-2.758-3.089-5.374-3.089-5.806 0-.431-2.275-3.61-5.057-7.063-4.066-5.045-4.827-6.55-3.88-7.691 1.71-2.06 10.492-4.428 16.43-4.428 5.944 0 7.069-.733 11.512-7.498 3.725-5.67 8.66-11.206 11.236-12.61m382.361 6.111c9.035-.006 14.45 5.447 14.749 14.847.178 5.637-2.96 10.676-7.963 12.767-4.722 1.973-9.221 1.697-14.233-.869-5.101-2.61-7.49-6.6-7.402-12.37.133-8.819 5.866-14.365 14.85-14.375m-542.89 3.226c4.551.378 6.076.98 7.962 3.171 2.725 3.169 3.186 9.646.828 11.603-2.468 2.048-1.7 2.967 1.535 1.84 5.774-2.014 11.796 2.202 12.606 8.828.61 4.997-2.412 9.921-7.365 11.99-3.457 1.445-3.957 1.403-8.1-.61-2.429-1.18-4.668-1.888-4.975-1.58-.307.306.198 2.14 1.122 4.076 2.094 4.392 2.113 6.075.092 6.85-2.401.922-7.703.665-9.636-.462-1.606-.936-1.574-1.296.441-5.445 2.447-5.037 1.933-6.479-1.508-4.225-4.681 3.068-11.038 2.555-14.785-1.192-2.393-2.393-2.924-3.761-2.924-7.572 0-3.855.525-5.182 3.053-7.71 2.779-2.779 3.457-2.991 7.613-2.422 4.391.602 4.536.544 3.834-1.618-.4-1.235-.954-3.923-1.223-5.972-.417-3.18-.03-4.181 2.658-6.869 2.941-2.941 3.51-3.117 8.771-2.68m243.19 2.32c-1.03.32-2.17 3.118-3.568 8.45-1.225 4.676-4.101 13.562-6.39 19.747-4.304 11.633-4.473 14.256-.929 14.256 1.972 0 4.336 1.956 8.23 6.822.957 1.196 1.955 2.173 2.224 2.173s1.386-1.742 2.474-3.874c2.003-3.927 3.671-5.121 7.144-5.121 1.055 0 1.912-.34 1.912-.75s-1.536-7.042-3.42-14.745-4.032-16.93-4.772-20.504c-.953-4.606-1.875-6.772-2.905-6.453m445.749 3.45c2.459 0 19.388 11.989 20.559 14.56.762 1.674.826 4.254.202 8.19-1.199 7.56-2.844 7.758-11.907 1.406-11.258-7.892-11.503-8.212-11.503-15.042 0-6.893.648-9.115 2.649-9.115m-197.465 9.004c2.41 0 2.336.696-1.527 14.995-1.44 5.334-3.265 9.94-4.165 10.501-.882.55-14.746 9.652-30.802 20.228-16.057 10.575-30.088 19.22-31.189 19.201-2.31-.04-40.933-25.74-44.152-29.38-1.184-1.338-2.474-4.345-2.87-6.684-.394-2.338-1.568-6.712-2.601-9.716-2.044-5.94-2.39-9.143-.984-9.143.803 0 20.609 12.845 42.764 27.744 5.297 3.561 8.626 5.21 9.499 4.696.738-.436 15.44-10.17 32.668-21.623 17.227-11.454 32.236-20.82 33.358-20.82m198.798 14.44c2.044.651 5.092 2.486 9.893 5.74 6.874 4.66 9.121 6.733 9.121 8.395 0 1.214-.711 2.486-1.581 2.82-2.842 1.09-22.257.676-22.978-.49-.86-1.392.397-12.72 1.674-15.106.789-1.474 1.826-2.01 3.87-1.36m-377.313 10.576c7.358.762 13.44 9.778 6.795 16.02-1.384 1.3-4.129 2.399-6.722 2.691-3.656.412-4.86.073-7.31-2.034-2.465-2.12-2.933-3.264-2.933-7.192 0-3.88.475-5.087 2.805-7.09 2.311-1.99 4.912-2.65 7.365-2.395m-169.394 5.27c1.04-.46 2.142-.236 2.841.868 1.123 1.772 1.114 54.934-.009 56.707-.554.875-4.238 1.697-10.234 2.274-14.533 1.4-34.868 3.894-40.171 4.928-7.501 1.462-9.7 1.232-9.7-1.008 0-1.067.415-2.197.928-2.514 2.2-1.36 20.806-4.71 35.97-6.48 10.615-1.24 16.68-2.383 17.203-3.227.443-.718.591-11.206.331-23.315s-.095-23.367.368-25.017c.453-1.613 1.433-2.757 2.473-3.217m33.22 1.21h2.502c2.196 0 2.587.55 3.18 4.502.373 2.475.705 8.286.746 12.915.04 4.63.284 8.218.533 7.97.249-.25.633-5.086.855-10.743.472-12 1.738-14.54 5.664-11.362 2.277 1.844 2.31 2.134 2.124 20.514l-.193 18.647 2.299.462c1.263.255 6.793 1.2 12.293 2.099 17.22 2.811 24.681 4.812 26.113 7.007.822 1.261.98 2.537.423 3.439-.753 1.218-1.838 1.24-7.209.176-3.478-.69-13.722-2.533-22.766-4.096-17.123-2.959-19.035-3.804-19.07-8.468-.012-1.696-.194-1.8-.993-.564-1.383 2.14-1.22 7.587.258 8.718.687.527 6.87 1.755 13.746 2.727 18.318 2.59 37.23 8.077 37.827 10.983.407 1.983-4.85 1.98-12.827-.019-10.742-2.691-25.621-5.302-34.002-5.962-4.675-.369-9.29-1.089-10.261-1.6-1.634-.86-1.745-3.042-1.499-29.14zm-42.451 1.572c1.149.05 2.31.72 2.988 1.987 1.44 2.69.528 42.982-.993 43.922-.579.358-5.887 1.21-11.797 1.904-5.91.695-15.863 2.131-22.122 3.19s-12 1.923-12.753 1.923c-1.733 0-1.778-2.413-.074-3.828 1.229-1.019 13.826-3.598 31.143-6.388 7.133-1.149 7.99-1.532 8.578-3.78.36-1.376.76-9.903.892-18.952s.676-17.262 1.205-18.25c.647-1.208 1.784-1.778 2.933-1.728m348.405.934c.851 0 1.553.622 1.553 1.386 0 3.386-4.175 21.224-5.406 23.103-.75 1.144-4.23 3.829-7.733 5.972s-11.992 7.564-18.867 12.046-15.038 9.767-18.141 11.74c-11.03 7.015-10.904 6.986-16.017 3.939-6.857-4.086-31.437-21-32.66-22.474-1.626-1.96-5.298-24.004-4.183-25.118.58-.58 8.213 3.925 20.127 11.88 10.555 7.047 20.366 13.251 21.791 13.783 2.352.879 5.149-.755 30.287-17.648 15.236-10.238 28.397-18.61 29.249-18.61m152.907 0c4.267 0 5.1.4 8.597 4.187l3.871 4.197 8.34-1.173c4.585-.646 11.486-1.655 15.336-2.238 21.477-3.249 40.341-2.696 48.29 1.415 7.2 3.722 11.58 15.34 7.9 20.957-4.211 6.426-13.33 4.785-16.276-2.93-1.17-3.067-2.511-4.639-4.772-5.593-3.957-1.671-21.613-1.636-27.142.055-16.183 4.95-25.846 5.894-36.963 3.596-13.153-2.718-16.541-5.485-16.541-13.524 0-6.26 2.818-8.95 9.36-8.95m-472.993 4.992c7.086 0 9.936 5.798 5.186 10.548-2.324 2.324-6.16 3.057-9.323 1.784-2.362-.95-4.298-6.014-3.301-8.634 1.055-2.775 2.908-3.698 7.438-3.698m-164.778 21.336c8.298-1.112 14.713 5.385 12.524 12.693-1.536 5.124-1.493 5.214 1.958 4.456 4.007-.88 8.847 1.176 10.013 4.244 1.752 4.609 1.077 9.932-1.673 13.201-2.279 2.708-3.204 3.07-7.77 3.07-3.078 0-6.093-.63-7.41-1.554-2.107-1.475-2.226-1.436-2.226.777 0 1.284.717 3.356 1.59 4.604.875 1.248 1.337 2.926 1.03 3.725-.38.994-2.084 1.452-5.388 1.452-6.54 0-7.505-1.174-5.204-6.314 1.01-2.256 1.624-4.448 1.361-4.872-.262-.425-2.145.123-4.174 1.21-4.394 2.356-6.158 2.445-10.703.546-6.3-2.632-7.992-11.149-3.374-17.02 1.707-2.17 2.813-2.55 7.438-2.55 2.985 0 5.425-.265 5.425-.592 0-.328-.744-1.847-1.646-3.375-3.201-5.42 1.208-12.759 8.23-13.7m525.394.879c4.213.747 8.083 2.84 10.022 5.981 4.135 6.701 3.856 10.625-1.15 16.326-1.715 1.954-2.92 3.74-2.684 3.976s2.433-.16 4.882-.879c5.852-1.719 9.905-.57 13.847 3.92 2.584 2.943 3.108 4.37 3.108 8.533 0 10.644-5.361 16.428-15.208 16.428-5.287 0-5.991-.28-9.728-3.93-2.216-2.164-4.34-3.63-4.717-3.254s.112 3.272 1.076 6.435 1.823 6.88 1.912 8.255c.158 2.428-.044 2.505-6.84 2.69-10.903.299-11.269-.243-6.5-9.688 2.812-5.571 3.742-9.004 2.436-9.004-.312 0-2.192 1.233-4.175 2.745-3.019 2.303-4.592 2.755-9.682 2.755-7.233 0-10.708-2.075-13.038-7.774-5.652-13.828 6.021-25.992 18.941-19.738 2.542 1.23 4.904 1.955 5.25 1.609s-.765-2.085-2.473-3.865c-5.89-6.136-4.754-14.521 2.639-19.46 3.31-2.21 7.869-2.808 12.082-2.061m-339.882 3.29c-.367 1.65-.488 4.014-.266 5.252.69 3.857 1.171 2.472 1.048-3.005-.096-4.249-.24-4.674-.782-2.246m494.518.814c7.386-.536 8.306-.402 10.252 1.544 1.176 1.176 2.133 3.266 2.133 4.641 0 4.64 3.165 6.5 11.07 6.5 6.194 0 7.032.214 6.75 1.746-.178.963-2.344 2.797-4.819 4.077-3.922 2.03-5.54 2.275-12.587 1.877-6.783-.383-8.474-.163-10.5 1.387-1.329 1.015-4.772 2.386-7.66 3.041-5.684 1.29-5.84 1.493-4.064 5.39 1.054 2.312.74 3.482-2.749 10.243-2.166 4.198-6.529 10.411-9.691 13.812s-5.747 6.461-5.747 6.804 1.366.62 3.044.62c2.563 0 3.294.589 4.57 3.641 1.88 4.502 3.896 20.183 3.034 23.62-.419 1.667-1.728 2.922-3.798 3.643-9.292 3.24-18.819-1.507-24.614-12.268-3.121-5.795-1.875-40.5 1.876-52.241 3.009-9.419 6.699-12.884 22.03-20.69 12.374-6.3 13.953-6.841 21.47-7.387m23.722 2.09c4.013.012 8.143.64 9.397 1.895 1.605 1.605 1.588 1.82-.266 3.587-2.122 2.02-10.303 3.271-14.372 2.2-3.308-.87-4.914-3.57-3.466-5.833.798-1.249 4.695-1.861 8.707-1.85m-224.681.924c1.083 1.083-2.232 21.383-3.908 23.926-1.29 1.956-24 16.753-28.163 18.35-.834.32-2.771-.291-4.303-1.359-8.786-6.12-17.723-5.575-26.674 1.627-2.138 1.72-4.38 3.113-4.993 3.097-2.056-.054-19.543-12.452-20.173-14.301-1.156-3.393-2.263-19.16-1.407-20.061.875-.921 5.04 1.566 23.033 13.765 5.577 3.781 11.105 6.879 12.284 6.869 1.179-.007 11.824-6.366 23.649-14.126 23.066-15.138 29.545-18.897 30.655-17.787m-314.228.12c1.628.123 3.27.889 4.818 2.284 2.431 2.19 2.19 4.922-.7 7.812-2.987 2.988-6.434 3.141-9.36.416-2.99-2.786-2.777-6.352.525-8.95 1.484-1.167 3.089-1.684 4.717-1.562m557.464 13.507c3.74 1.549 4.39 3.27 3.08 8.135-1.277 4.744-5.785 8.555-13.709 11.593-5.912 2.266-13.712 3.017-14.702 1.415-.306-.495-.502-1.953-.442-3.245s-.213-3.767-.606-5.492c-.702-3.076-.618-3.167 4.634-4.89 2.943-.966 8.378-3.33 12.072-5.251 6.078-3.161 6.993-3.375 9.673-2.265m-34.057 11.047c4.422 0 6.17 1.406 6.17 4.993 0 1.43-.545 3.148-1.205 3.808-2.943 2.943-10.804.441-10.804-3.439 0-3.493 2.038-5.362 5.839-5.362m-528.18 4.105c3.66-1.667 5.769-1.35 8.175 1.211 2.982 3.174 2.787 7.044-.47 9.605-2.884 2.27-4.744 2.482-7.999.906-5.034-2.437-4.86-9.374.295-11.722m33.276.888c3.99 0 5.257.439 6.51 2.227 2.208 3.152 1.942 7.343-.625 9.735-3.464 3.227-9.039 2.756-12.23-1.035-3.1-3.685-3.09-3.585-.597-7.673 1.807-2.964 2.422-3.255 6.942-3.255m-58.662.203c3.259.238 4.476.855 5.6 2.866 2.16 3.867.777 7.768-3.375 9.503-4.028 1.683-3.49 1.659-5.995.222-7.624-4.372-4.972-13.231 3.77-12.591m542.661.259c.56.345 1.732 2.14 2.611 3.993 1.216 2.563 1.374 4.195.653 6.804-.696 2.523-.553 4.467.534 7.34.813 2.15 1.816 6.676 2.234 10.068.476 3.866 1.556 7.19 2.896 8.894 1.618 2.056 2.142 4.102 2.142 8.43v5.723l-6.749.675c-3.712.37-8.173.924-9.911 1.239-3.97.72-5.362-1.466-5.287-8.311.05-4.67.096-4.743 1.618-2.56 3.66 5.247 4.214 1.239 1.839-13.406-1.397-8.613-1.372-9.402.395-13.497 1.033-2.392 2.166-6.455 2.529-9.023.668-4.73 2.64-7.516 4.496-6.37m50.111 2.08c3.527 3.191 1.98 8.54-3.568 12.341-1.877 1.287-7.113 3.409-11.64 4.725-9.96 2.895-11.466 2.953-12.799.462-1.314-2.456-1.342-7.76-.046-8.56.543-.337 3.494-1.265 6.556-2.062 3.062-.798 8.708-3.078 12.55-5.067 6.735-3.485 7.06-3.547 8.947-1.84m-623.5 1.46c6.951 0 9.575 5.04 5.388 10.364-4.102 5.214-11.926 2.45-11.926-4.216 0-4.807 1.416-6.148 6.537-6.148m370.012.38c1.506.577 1.663 1.688 1.195 8.514-.296 4.317-1.019 8.742-1.6 9.827-.58 1.085-3.44 3.601-6.353 5.593-5.22 3.568-12.246 5.51-14.4 3.975-.605-.432-1.403-3.817-1.774-7.516l-.67-6.72 7.438-5.501c8.898-6.58 13.822-9.071 16.164-8.173m-250.794.822c3.553.235 4.968.873 6.519 2.958 2.584 3.475 1.664 7.298-2.244 9.32-4.229 2.186-7.773 1.875-10.583-.935-3.01-3.01-3.1-5.448-.34-8.958 1.824-2.318 2.73-2.644 6.648-2.385m467.752 5.233c4.742.89 6.515 4.354 4.11 8.024-3.209 4.896-11.622 2.348-11.622-3.522 0-3.082 3.594-5.237 7.512-4.502m-298.68 1.174c1.346-.832 14.759 7.825 16.587 10.705 1.584 2.495 1.796 7.348.432 9.938-.565 1.072-2.08 1.747-3.917 1.747-1.648 0-4.609.682-6.583 1.507-4.799 2.005-5.11 1.932-5.729-1.257-1.262-6.496-1.802-22.015-.79-22.64m37.955 2.394c11.273-.01 18.826 9.798 14.859 19.294-1.964 4.7-5.183 4.927-9.995.702-1.879-1.65-3.972-2.995-4.652-2.995s-2.773 1.346-4.653 2.995c-4.311 3.786-8.03 3.958-9.37.435-3.755-9.88 3.369-20.42 13.811-20.43m-299.783 5.01c15.166-1.314 45.267-1.281 54.304.056 17.07 2.527 44.676 8.571 47.71 10.447 1.58.976 1.136 4.04-.845 5.833-2.3 2.08-3.61 1.991-14.638-.97-25.838-6.94-65.817-9.494-93.032-5.945-7.15.933-14.58 2.078-16.504 2.543-7.457 1.799-13.116 2.173-14.565.97-2.454-2.037-1.756-5.59 1.315-6.702 5.162-1.87 24.735-5.232 36.255-6.231m597.424 1.563c4.278 4.278-.786 10.967-10.748 14.2-9.986 3.24-12.243 3.526-13.995 1.775-1.89-1.89-1.22-8.43 1.048-10.243.82-.655 3.761-1.679 6.538-2.274 2.777-.596 7.059-1.964 9.517-3.051 5.385-2.382 5.649-2.398 7.64-.407m-703.917 4.632c8.357-.693 11.818.384 17.406 5.408 7.61 6.843 9.731 16.198 5.535 24.388-1.908 3.722-7.457 8.69-11.668 10.446-4.548 1.897-12.2 1.943-16.431.102-5.074-2.208-11.214-8.38-12.33-12.398-3.828-13.778 4.356-26.857 17.488-27.946m335.919.915c3.862 1.16 7.38 3.611 9.084 6.906 3.509 6.785.863 14.64-6.06 17.99-7.887 3.819-15.182 1.504-19.253-6.12-3.683-6.897-1.726-13.779 5.103-17.944 3.056-1.864 7.263-1.993 11.126-.832m335.486.203c2.725.725 5.084 2.591 5.084 5.076 0 1.258-.823 3.037-1.83 3.947-5.243 4.746-14.483-1.594-10.536-7.23 1.467-2.093 4.557-2.517 7.282-1.793m-669.805 3.31c-3.65 1.284-3.437 4.434.386 5.658 3.978 1.274 7.447 4.471 9.13 8.422 1.875 4.4 1.724 7.17-.643 11.814-1.108 2.174-1.793 4.522-1.527 5.214.789 2.055 2.545 1.463 6.05-2.043 6.512-6.512 5.48-18.996-2.123-25.672-4.052-3.557-7.697-4.65-11.273-3.393m254.472 3.772c3.883.945 7.428 3.489 10.142 7.516 2.978 4.42 3.107 11.249.257 14.098-2.37 2.37-3.609 1.908-9.231-3.448-2.064-1.966-4.134-3.569-4.598-3.569s-2.685 2.018-4.937 4.493c-4.736 5.203-7.51 5.749-9.002 1.757-2.174-5.819-2.226-6.708-.662-11.418 1.294-3.897 2.447-5.336 5.866-7.34 4.06-2.379 8.282-3.034 12.165-2.09m192.288.11c.688.416 1.131 1.468 1.131 3.042 0 1.787-.545 2.44-2.032 2.44-2.661 0-3.654-2.742-1.7-4.695.98-.982 1.913-1.202 2.601-.786m253.636 4.484c3.494 2.9.422 8.178-6.878 11.824-5.953 2.973-10.891 3.788-12.303 2.025-.593-.741-1.016-3.071-.947-5.177.125-3.805.17-3.844 7.126-6.36 9.505-3.438 11.263-3.755 13.002-2.312m-268.448 1.544c3.79.66 7.602 2.436 9.912 5.066 1.653 1.883 3.279 4.549 3.622 5.917 1.425 5.675-2.316 14.272-7.3 16.78-4.29 2.158-8.44 2.618-12.275 1.349-5.068-1.676-4.93-3.965.597-9.873l4.772-5.113-4.073-3.587c-5.068-4.46-6.769-7.457-5.039-8.893 2.22-1.842 5.994-2.306 9.784-1.646m-290.212.879c4.167 2.154 5.158 4.352 5.158 11.5 0 7.204-5.178 24.548-7.604 25.478-2.065.793-1.877.845-3.577-1.155-3.78-4.45-7.824-17.882-7.824-26.006 0-8.758 6.704-13.511 13.847-9.817m238.584.009c2.654-.113 5.072.624 6.675 2.228l2.151 2.154-4.624 4.946c-2.546 2.721-4.635 5.366-4.635 5.88 0 .513 2.03 2.627 4.506 4.696 4.666 3.9 5.573 6.524 2.997 8.662-2.017 1.674-9.405 2.235-12.477.943-6.574-2.765-8.211-6.413-7.365-16.428.617-7.297.708-7.49 4.653-10.225 2.57-1.78 5.464-2.743 8.119-2.856m-271.225.139c2.333-.704 5.094-.472 7.705.878 3.156 1.632 4.635 4.632 6.06 12.286.535 2.88 2.143 8.504 3.576 12.499 1.433 3.994 2.682 8.349 2.777 9.67.236 3.285-1.045 3.406-6.437.6-5.3-2.757-13.48-11.374-15.667-16.501-2.58-6.046-3.96-12.479-3.145-14.68.89-2.407 2.798-4.049 5.13-4.753m52.4 1.932c4.59 0 5.006.215 6.814 3.587 1.742 3.251 1.799 4.047.597 8.338-1.649 5.889-10.589 18.309-15.76 21.892-4.123 2.857-7.256 3.48-7.245 1.433.004-.688 1.073-4.402 2.381-8.256s2.895-10.383 3.522-14.505c1.543-10.14 3.365-12.49 9.691-12.49m240.625 0c7.27-1.783 14.767 2.733 14.767 11.02 0 5.703-2.334 9.937-6.602 11.962-12.353 5.862-24.552-9.525-15.07-19.007 2.085-2.085 4.482-3.381 6.905-3.975m-314.476 1.784c5.488.598 6.527 1.562 10.996 10.067 2.046 3.893 5.415 9.328 7.485 12.083s3.76 5.584 3.76 6.287c0 2.165-3.213 1.409-9.994-2.349-11.346-6.286-20.99-15.74-21-20.588-.003-.94 1.014-2.667 2.252-3.836 1.785-1.686 3.13-2.032 6.5-1.664m580.294.157c1.749-2.107 7.316-1.802 9.416.518 2.328 2.572 1.378 6.334-1.986 7.867-3.07 1.399-2.444 1.408-5.48-.12-2.814-1.416-3.88-5.938-1.95-8.265m-482.068.555c3.164 0 4.68.609 6.565 2.644 4.42 4.768 2.811 8.27-7.493 16.289-2.997 2.332-8.043 5.552-11.218 7.155-5.396 2.724-9.838 3.75-9.838 2.274 0-.353 1.735-3.398 3.852-6.757 2.118-3.36 5.236-9.112 6.933-12.786 3.434-7.435 5.195-8.82 11.2-8.82m328.508 2.366c1.55-.645 2.6-.302 3.117 1.045.297.775-1.017 6.062-2.915 11.75s-3.78 12.363-4.183 14.838c-.918 5.622-3.128 9.51-6.216 10.918-3.61 1.644-8.778 1.317-10.519-.666-5.619-6.399-1.012-16.808 14.602-33.004 2.515-2.608 4.564-4.236 6.114-4.88m11.53 1.137c1.59 0 3.003 3.61 6.06 15.411 2.602 10.048 2.55 18.017-.148 21.448-1.721 2.189-2.885 2.635-6.85 2.635-6.099 0-8.02-2.015-8.762-9.199-.985-9.542 5.661-30.295 9.7-30.295m11.42 1.896c5.782 1.45 20.56 22.329 20.56 29.047 0 1.479-1.085 3.732-2.456 5.103-3.064 3.064-10.359 3.465-12.744.702-.83-.962-2.288-5.801-3.245-10.751s-2.781-12.262-4.046-16.253c-2.406-7.592-2.095-8.859 1.93-7.848m-35.878.693c.322.52-1.651 3.747-4.376 7.174s-6.65 9.388-8.726 13.238-4.907 8.232-6.299 9.744c-2.008 2.184-3.424 2.755-6.85 2.755-5.749 0-8.312-2.53-8.312-8.21 0-3.815.52-4.692 5.48-9.309 8.519-7.927 27.49-17.97 29.083-15.392m46.92.065c1.012-.584 4.175.393 9.499 2.912 6.84 3.236 12.767 7.613 19.768 14.597 4.975 4.963 5.58 8.737 1.94 12.157-3.263 3.065-7.713 2.832-10.85-.573-1.392-1.513-4.91-6.237-7.815-10.502s-7.02-9.738-9.148-12.157c-3.265-3.708-4.404-5.85-3.393-6.434m-273.909 6.499c3.117-.475 5.096-.101 8.44 1.608 6.233 3.186 8.488 6.706 8.488 13.239 0 6.018-1.956 9.484-7.485 13.247-5.116 3.482-16.017 2.74-16.017-1.09 0-.684 2.03-3.23 4.505-5.658 2.475-2.43 4.497-4.905 4.497-5.5 0-.597-2.022-3.072-4.497-5.502-6.475-6.355-5.923-9.128 2.07-10.344m383.124 1.35c4.152.268 8.248 1.374 10.933 3.235 12.74 8.83 11.005 29.479-3.007 35.842-6.926 3.145-16.874 2.076-23.98-2.58-3.86-2.528-6.638-9.175-6.638-15.863 0-8.647 3.813-14.946 11.41-18.841 2.922-1.498 7.13-2.062 11.282-1.794m-432.628.637c3.111-.216 6.007.178 7.319 1.267 2.55 2.116 1.923 4.385-2.381 8.588-2.2 2.148-4.01 4.471-4.01 5.159s1.78 2.678 3.945 4.419c5.078 4.08 5.759 5.934 3.007 8.163-3.108 2.517-12.476 2.393-16.45-.222-8.645-5.69-8.654-19.67-.018-25.007 2.152-1.33 5.477-2.15 8.588-2.367m29.368 1.803c5.615 1.147 10.514 5.48 10.546 12.157.02 4.095-3.67 9.473-8 11.648-6.614 3.323-13.081 1.559-16.89-4.604-2.506-4.055-2.652-7.669-.487-12.23 2.885-6.082 9.215-8.118 14.83-6.971m-231.734 3.485c4.745-1.566 11.342-.69 17.084 2.256 3.968 2.036 5.265 3.489 8.156 9.143 3.922 7.672 3.957 8.15 2.409 34.816-.917 15.785-1.135 16.982-4.202 23.213-2.52 5.12-4.938 8.04-10.942 13.23-4.238 3.663-10.179 7.81-13.204 9.216-4.609 2.143-7.286 2.619-16.504 2.921-6.05.2-11.542-.014-12.21-.471s-1.728-3.22-2.354-6.138c-1.01-4.708-1.541-5.47-4.69-6.786-2.288-.956-5.887-1.366-10.142-1.156-8.316.412-8.914-1.52-1.6-5.177 4.146-2.072 6.476-2.507 13.646-2.542 5.817-.028 9.191-.488 10.307-1.414.912-.757 3.771-1.917 6.353-2.57 4.378-1.11 4.807-1.512 6.455-6.074.972-2.691 2.46-6.764 3.3-9.05.842-2.287 4.246-7.118 7.559-10.734 5.921-6.462 6.627-8.616 2.85-8.616-2.753 0-3.622-2.426-4.312-12-.337-4.675-1.297-10.7-2.133-13.395-1.766-5.688-1.182-6.904 4.174-8.672m622.876 1.46c-4.17-1.599-8.25 8.65-6.52 16.373 1.217 5.43 6.125 11.972 10.372 13.821 4.823 2.1 8.917 1.745 11.503-1.008 2.78-2.958 2.114-4.286-2.584-5.167-4.59-.861-9.9-5.53-11.374-9.994-.688-2.084-.877-5.482-.469-8.45.557-4.05.383-5.07-.928-5.574m-318.973 2.608c5.364 0 5.937.239 9.553 4.04 3.456 3.633 3.843 4.576 3.843 9.282 0 5.935-1.44 8.554-6.371 11.602-9.125 5.639-21.626-1.18-21.626-11.787 0-8.824 4.792-13.137 14.6-13.137m90.154 1.239c1.332-.323 2.368.245 3.586 1.59 4.095 4.526.86 16.47-5.333 19.673-3.787 1.958-9.845 2.612-13.6 1.47-7.104-2.163-11.651-10.373-9.828-17.75 1.27-5.141 4.126-5.381 9.222-.777 2.167 1.958 4.451 3.56 5.085 3.56.633 0 3.111-1.804 5.498-4.004 2.413-2.224 4.037-3.44 5.37-3.762m-413.761 2.662c11.635-.74 13.001.17 13.001 8.709 0 5.82-.886 6.68-3.264 3.143-.832-1.238-1.817-1.956-2.188-1.6-.371.357-.19 5.874.404 12.268.907 9.738.83 12.715-.468 18.314-.853 3.677-2.281 7.492-3.173 8.477-3.349 3.701-5.34 1.023-5.048-6.785.189-5.032-.196-6.543-2.556-10.03-2.284-3.376-2.673-4.791-2.179-7.997.497-3.224.094-4.7-2.363-8.533-2.675-4.174-2.907-5.171-2.317-10.003l.653-5.362zm-25.065 1.137c6.902-3.693 15.225 2.812 10.124 7.914-2.604 2.603-8.138 2.721-10.4.222-2.269-2.508-2.123-6.851.276-8.136m-7.401 1.174c1.454.433 2.37 1.646 3.503 3.865 1.143 2.24 1.94 4.502 1.765 5.029-.175.526-4.14 2.285-8.808 3.91-9.847 3.427-9.249 3.33-10.795 1.785-3.576-3.577 1.06-11.943 7.622-13.766 3.273-.909 5.258-1.255 6.713-.823m323.027 12.018c.6.6 2.255 31.08 1.738 32.024-.816 1.491-2.938.606-11.015-4.594-11.965-7.703-12.284-8.073-12.284-14.21 0-5.365 1.281-7.051 4.431-5.842 1.642.63 9.247-2.525 13.673-5.677 1.657-1.18 3.214-1.944 3.457-1.7m-317.078 1.877c2.575.487 3.544 2.613 2.767 6.351-.761 3.666-.931 3.789-11.254 7.618-11.704 4.341-13.202 4.584-14.997 2.422-2.305-2.778 2.851-8.784 11.09-12.906 5.636-2.82 9.818-3.971 12.394-3.485m234.52 1.895c.55 0 1.001.673 1.001 1.498s-.452 1.498-1.002 1.498-1.002-.673-1.002-1.498.452-1.498 1.002-1.498m51.342 0c2.622 0 4.947 5.724 4.377 10.78-.637 5.648-3.17 9.128-8.735 11.972-6.737 3.442-13.025 2.25-18.003-3.421-3.613-4.115-4.406-7.008-3.531-12.84 1.093-7.29 4.895-8.044 10.473-2.08 3.235 3.458 5.325 3.27 9.948-.907 2.131-1.925 4.59-3.504 5.471-3.504m-279.141.204c1.901-1.902 7.562-1.445 9.801.795 2.681 2.68 2.52 4.443-.634 6.924-3.313 2.607-5.812 2.63-8.367.074-2.238-2.237-2.621-5.972-.8-7.793m604.679 1.867c7.347-2.195 9.88 3.891 2.97 7.137-4.623 2.172-25.516 6.294-42.13 8.311-11.321 1.374-29.715 1.659-44.723.693-7.82-.503-33.175-5.058-41.395-7.432-8.427-2.435-10.913-4.49-8.67-7.193 1.51-1.82 5.06-2.028 10.077-.582 21.871 6.302 62.634 8.828 88.287 5.463 12.924-1.694 30.342-4.83 35.584-6.397m-365.185 2.93c6.07 0 7.211 1.431 7.53 9.44l.276 6.942-9.498 6.777c-9.716 6.938-12.6 8.048-13.673 5.25-.677-1.763.32-17.346 1.27-19.82.332-.866 2.758-3.154 5.387-5.084 3.548-2.605 5.795-3.504 8.708-3.504m-244.156 8.062c3.035-.223 5.386.152 6.372 1.34.886 1.063.886 2.508.01 5.991-1.234 4.898-1.59 5.11-11.917 7.119-1.925.374-6.274 2.215-9.664 4.086h-.009c-7.025 3.877-8.427 4.1-10.528 1.655-2.467-2.873-2.873-5.227-1.397-8.08 2.802-5.419 18.03-11.442 27.133-12.11m9.958 3.347c2.563-1.68 6.7-1.321 9.25.795 2.069 1.717 1.508 6.504-.966 8.237-1.222.856-3.154 1.562-4.284 1.562-6.073 0-8.866-7.406-4-10.594m595.962 3.614c3.391.033 6.538 2.117 6.538 6.231 0 1.617-.991 3.38-2.63 4.669-3.363 2.646-6.395 2.631-9.81-.056-2.145-1.686-2.577-2.68-2.088-4.751.97-4.106 4.6-6.125 7.99-6.093m-428.886.019c.96-.94 16.855.052 17.921 1.119.329.329-1 3.504-2.952 7.053-3.218 5.855-4.417 9.781-2.997 9.781.297 0 1.822-.947 3.393-2.108 6.671-4.932 18.05-2.96 22.049 3.818 3.056 5.18 2.772 13.235-.607 17.251-5.184 6.161-12.131 7.71-18.15 4.04-4.692-2.86-6.048-2.458-2.878.85 6.158 6.429 5.345 15.376-1.848 20.311-7.256 4.978-14.952 4.33-21.065-1.784-5.404-5.404-5.685-12.551-.727-18.443 2.965-3.524 2.627-4.39-1.14-2.959-11.99 4.56-21.41-7.927-15.613-20.698 2.504-5.516 7.015-8.265 13.544-8.265 5.337.003 9.413 1.998 12.183 5.953 3.535 5.047 2.965-4.174-.754-12.24-.78-1.693-.921-3.128-.359-3.68m311.35.434c5.359 1.7 6.782 7.574 2.76 11.353-3.276 3.077-7.99 2.87-10.611-.462-2.357-2.996-2.418-3.337-1.159-6.647 1.077-2.833 6.064-5.179 9.01-4.244m-195.644.527c1.245 0 21.342 13.363 24.137 16.05.873.84 3.438 18.355 3.54 24.193.066 3.834-1.73 3.511-8.607-1.563-16.353-12.067-33.903-23.678-35.758-23.657-2.03.023-6.353 2.871-35.206 23.223-7.603 5.362-14.625 9.753-15.604 9.753-2.146 0-2.325-3.434-.653-12.443 1.797-9.682 2.659-11.127 9.72-16.317 21.484-15.796 22.52-16.254 27.96-12.231 3.687 2.726 11.506 3.699 16.495 2.052 1.943-.641 5.55-2.94 8.018-5.112s5.148-3.948 5.958-3.948m281.946 2.108c1.666-.064 3.392.585 5.14 1.96 3.06 2.406 3.396 5.783.883 8.81-1.81 2.18-6.626 3.462-9.25 2.46-4.45-1.7-5.23-7.206-1.545-10.891 1.5-1.5 3.106-2.275 4.772-2.339m-58.901 1.488c7.173 0 10.35 7.147 5.039 11.325-3.567 2.806-7.869 2.658-10.905-.379-3.067-3.067-3.091-4.704-.092-8.19 1.766-2.054 3.291-2.755 5.958-2.755m28.715.925c5.765-1.438 10.544 6.833 6.206 10.742-4.796 4.323-11.555 2.451-12.045-3.337-.331-3.922 1.573-6.34 5.839-7.405m168.355 4.308c.282.456-.139 3.001-.938 5.658-2.015 6.695-1.882 7.04 1.618 4.095 4.305-3.622 9.17-3.498 13.001.333 3.262 3.262 3.815 6.236 2.382 12.813-.729 3.343-5.905 5.62-11.153 4.9-4.074-.559-4.294-.472-3.329 1.331.568 1.06 1.485 2.204 2.032 2.542 2.89 1.787-.233 10.362-4.478 12.296v.01c-3.85 1.753-8.597 1.445-12.256-.787-4.402-2.684-5.35-7.196-2.795-13.275.638-1.518.132-1.747-3.816-1.747-6.427 0-9.62-2.946-9.82-9.05-.31-9.476 8.341-15.155 15.723-10.318 3.421 2.242 4.04 1.14 2.115-3.763-.897-2.281-1.388-4.536-1.095-5.01.683-1.105 12.128-1.129 12.809-.028m-697.169.166c3.137 0 4.029.464 4.993 2.58.797 1.749.858 3.082.184 4.15-2.85 4.518-11.401 2.902-11.401-2.153 0-3.18 1.902-4.577 6.224-4.577m-15.493.24c6.968-.568 7.06-.486 7.503 6.546l.267 4.28-7.494 2.543c-4.12 1.4-9.37 4.089-11.668 5.972s-5.305 3.42-6.685 3.42c-2.961 0-6.656-4.198-6.656-7.562 0-6.092 13.307-14.266 24.733-15.198m470.75 8.127c.89-.342 8.677.78 17.313 2.487s21.334 3.81 28.21 4.678c6.911.872 13.093 2.168 13.828 2.893 1.934 1.905 3.043 54.814 1.195 57.04-1.459 1.758-2.882 1.913-5.029.555-1.275-.807-1.469-4.528-1.287-24.832.203-22.673.117-24.001-1.784-26.042-1.101-1.182-2.552-2.152-3.218-2.163-10.688-.172-42.013-5.588-47.5-8.21-3.127-1.493-4.195-5.46-1.729-6.406m139.952 1.09c6.355-1.872 9.206-1.837 9.958.121 1 2.606-1.202 5.296-5.159 6.314-7.875 2.027-25.17 5.044-35.234 6.148-5.775.633-11.174 1.494-11.999 1.914-1.26.64-1.54 4.653-1.765 25.071-.175 15.887-.658 24.776-1.38 25.645-1.342 1.618-3.493 1.725-4.422.222-.956-1.548-1.434-54.27-.506-55.774.889-1.437 12.864-4.113 18.399-4.113 4.721 0 25.414-3.575 32.108-5.547m-334.972 3.163c1.122.338 7.884 4.605 15.034 9.485s17.301 11.764 22.554 15.3l9.553 6.425 1.793 9.836c.99 5.409 2.028 10.845 2.308 12.083.831 3.671-1.632 2.752-11.769-4.41-22.501-15.897-37.892-26.338-38.82-26.338-1.2.004-35.973 23.97-52.612 36.258-6.962 5.14-8.664 4.985-8.293-.758.16-2.475.543-4.502.855-4.503.312 0 1.338-3.26 2.28-7.247s2.041-7.74 2.437-8.34c.395-.598 6.92-5.446 14.5-10.77s19.267-13.715 25.965-18.655c9.136-6.738 12.686-8.829 14.215-8.366m197.153 6.378c.77 0 6.007 1.077 11.64 2.385 5.633 1.309 14.747 2.912 20.247 3.569s11.351 1.514 13.001 1.904l2.998.712.634 9.467c1.136 16.855.977 34.46-.331 35.767-1.704 1.705-3.228 1.494-5.24-.73-1.583-1.749-1.688-3.586-1.067-19.256.546-13.802.416-17.642-.653-18.915-.894-1.065-5.18-2.153-12.845-3.273-13.827-2.02-27.682-5.452-29.552-7.322-1.592-1.592-.857-4.308 1.168-4.308m145.616.832c1.356 1.356.114 3.09-3.08 4.308-3.887 1.483-30.572 6.86-34.039 6.86-5.92 0-6.312 1.384-5.995 21.069.22 13.594-.025 18.118-1.039 19.34-1.498 1.805-2.032 1.911-3.88.74-1.025-.651-1.243-5.48-1.002-22.41.168-11.866.595-21.864.947-22.215s5.298-1.286 10.997-2.08 16.149-2.6 23.225-4.022c8.55-1.717 13.203-2.252 13.866-1.59m-73.613 3.273q2.431.043 4.745 2.145c3.576 3.251 4.047 5.962 1.581 9.096-1.599 2.033-2.967 2.654-5.838 2.654-7.265 0-10.811-7.726-5.471-11.926 1.707-1.343 3.363-1.999 4.983-1.969m-548.472 5.112c7.917-.263 8.895-.086 11.457 2.117 2.741 2.358 2.763 2.464 1.076 5.039-1.981 3.023-5.92 3.37-13.875 1.23-5.795-1.56-7.992-3.294-7.604-6.01.272-1.906 1.046-2.113 8.946-2.376m-11.769 13.165c2.776 1.16 4.117 2.614 5.572 6.009 1.055 2.46 2.817 4.949 3.917 5.537 3.53 1.89 11.257 1.17 32.181-3.013 22.568-4.513 29.147-4.687 37.506-.99 3.53 1.562 4.927 2.922 6.454 6.287 1.072 2.361 1.956 5.432 1.968 6.822.022 2.606-2.213 6.55-4.928 8.69-4.102 3.233-12.238.258-14.013-5.121-.621-1.882-1.717-3.647-2.428-3.92-1.766-.678-13.597.73-28.604 3.402-7.91 1.409-16.91 2.26-24.504 2.32-10.907.087-12.458-.13-17.001-2.403-6.5-3.25-9.498-7.732-9.498-14.19 0-8.132 6.133-12.457 13.378-9.43m291.959 1.636c1.885-.01 6.066 2.227 12.495 6.684 5.317 3.685 16.641 11.405 25.166 17.149l15.503 10.437 3.2 11.112c3.524 12.22 3.763 13.6 2.316 13.6-.54 0-9.65-5.69-20.246-12.648-26.582-17.453-34.905-22.825-37.487-24.202-2.344-1.25-4.287-.028-36.779 23.065-5.5 3.91-14.95 10.542-21 14.736-14.203 9.848-13.423 9.418-14.05 7.785-.983-2.562 4.63-22.062 7.153-24.85.918-1.014 9.816-7.457 19.778-14.32a7453 7453 0 0 0 29.616-20.505c7.73-5.395 12.43-8.032 14.335-8.043m270.26 10.317c3.09.552 5.853 2.817 6.215 6.425.212 2.119-.354 3.673-1.84 5.057-2.952 2.751-5.148 3.146-8.826 1.6-4.41-1.855-5.795-5.257-3.742-9.227 1.677-3.243 5.101-4.407 8.192-3.855m-160.669 5.177c3.063-1.042 6.606-.662 9.434 1.563 4.683 3.683 3.038 11.7-3.043 14.81-2.776 1.419-4.227 1.39-7.218-.148-3.9-2.004-6.464-6.16-5.692-9.236.875-3.484 3.456-5.947 6.52-6.989m70.744 9.532c-.642.02-2.072 1.925-3.172 4.243-1.764 3.717-2.439 4.256-5.747 4.53-2.062.17-3.751.66-3.751 1.09s.936 3.445 2.078 6.694c1.892 5.383 6.028 19.44 8.873 30.156.62 2.338 1.546 4.243 2.06 4.243.512 0 1.888-3.26 3.052-7.248 3.702-12.678 6.193-20.089 8.597-25.524 3.598-8.135 3.296-9.226-2.528-9.226-4.844 0-4.873-.022-6.584-4.503-.945-2.475-2.236-4.476-2.878-4.456m-454.006 3.956c8.137 0 9.39.243 10.298 1.942 1.31 2.445 1.35 12.11.065 15.494-1.275 3.352-3.64 3.255-9.103-.37-7.85-5.208-12.928-10.093-12.928-12.443 0-3.892 1.848-4.623 11.668-4.623m703.908 0c5.22 0 6.773 1.586 4.883 5.002-.76 1.373-1.397 3.562-1.416 4.862-.034 2.285.046 2.319 2.427.758 2.905-1.903 11.305-2.117 13.617-.342 4.662 3.58 5.244 10.995 1.233 15.763-2.567 3.05-2.923 3.166-8 2.57-5.368-.631-6.56.117-3.816 2.394 1.976 1.64 1.938 8.399-.064 11.454-.861 1.315-2.957 2.876-4.652 3.467-3.853 1.343-5.482 1.264-9.397-.453-1.838-.806-3.793-2.807-4.782-4.89-1.602-3.377-1.581-3.708.432-7.655 1.158-2.268 1.916-4.306 1.692-4.53s-1.839.09-3.595.703c-6.402 2.231-12.137-2.343-12.137-9.689 0-5.256 2.83-8.983 7.99-10.53 3.43-1.027 4.303-.909 7.568 1.017 2.03 1.199 3.966 1.918 4.294 1.59s-.116-2.578-.984-4.992c-1.923-5.348-1.092-6.499 4.707-6.499m-139.667 8.56c1.935-1.195 3.756.733 6.804 7.212 1.742 3.701 5.263 9.108 7.825 12.009 2.674 3.027 4.432 5.878 4.12 6.693-.695 1.809-12.648 5.528-17.756 5.528-3.67 0-4.188.406-9.323 7.35-2.99 4.043-6.848 8.546-8.579 10.002-4.915 4.136-7.85 3.417-13.727-3.355-2.148-2.475-5.316-6.569-7.034-9.097l-3.127-4.595-8.302-.591c-8.103-.578-14.994-2.584-16.34-4.762-.367-.594 2.23-4.09 5.766-7.765 3.535-3.676 7.683-8.85 9.222-11.491 2.14-3.674 3.295-4.734 4.92-4.502 4.08.582 3.048 4.202-3.762 13.127-7.942 10.41-7.634 11.167 4.23 10.132l7.972-.693 3.052 4.373c11.354 16.22 11.841 16.523 17.213 10.687 2.184-2.374 5.126-6.727 6.528-9.67l2.547-5.353 4.671.776c6.028 1.007 10.045.78 11.787-.665 2.09-1.735 1.706-3.112-1.765-6.388-5.405-5.102-9.827-17.178-6.942-18.961m-573.785 5.806c1.381-.496 3.797.837 8.092 3.708 10.848 7.251 11.787 8.455 11.787 15.032 0 3.152-.273 6.442-.607 7.312-1.22 3.18-3.986 1.953-15.226-6.758l-6.253-4.835.295-7.155c.183-4.48.531-6.807 1.912-7.303m169.164 3.661c-13.529.063-24.294 13.404-21.368 26.477 1.942 8.681 7.76 15.034 16.081 17.565 8.782 2.671 21.064-3.353 25.377-12.443 3.225-6.796 1.171-19.035-4.183-24.96-3.102-3.434-10.835-6.662-15.907-6.639m113.71 3.19c-1.925-.281-6.864 2.798-21.496 13.377a17175 17175 0 0 1-34.995 25.229c-3.345 2.402-4.69 3.419-7.752 5.639h8.432l33.625-23.787c10.617-7.513 20.29-13.91 21.497-14.209 1.656-.41 7.239 2.846 22.73 13.248 11.171 7.502 27.776 18.533 37.256 24.748h9.314c-1.028-.436-1.684-.346-2.933-1.266-12.9-9.517-63.562-42.67-65.677-42.98m-111.439 4.243c13.494 2.024 16.758 21.803 4.607 27.92-4.438 2.233-7.47 2.5-11.595 1.016-7.573-2.726-11.061-7.953-10.335-15.513.892-9.279 8.037-14.815 17.323-13.423m112.58 23.556c-.9.006-7.71 4.259-15.135 9.448-4.907 3.429-5.974 4.136-10.077 6.998h11.962c3.09-1.86 7.859-5.387 8.597-5.103.457.175.323 4.075.552 5.103h8.588c.271-.957.068-5.157.699-5.279.85-.163 4.456 3.052 8.146 5.279h11.733c-7.986-5.14-24.662-16.45-25.065-16.446m334.512 1.239c-.94-.426-1.638.13-2.124 1.664-1.432 4.51-4.553 7.081-8.597 7.081-3.615 0-3.63 1.942-1.885 6.462h25.156c.068-.163.144-.517.212-.675 2.264-5.3 2.06-5.787-2.437-5.787-3.7 0-4.24-.355-6.74-4.493-1.458-2.415-2.645-3.827-3.586-4.252m-102.062 2.015c-1.237-.086-2.34 1.314-3.567 4.178-1.573 3.67-2.575 4.712-4.993 5.196-2.625.525-2.855 1.52-2.142 3.818h23.566c.3-2.159-.253-3.408-2.639-3.642-2.585-.254-3.695-1.173-5.82-4.817-1.794-3.075-3.167-4.647-4.405-4.733" style="fill:green;fill-opacity:1" transform="matrix(.15931 0 0 .15845 -289.23 -1.676)"/><g style="clip-rule:nonzero;opacity:.198728;fill:#b3b3b3;fill-opacity:1;fill-rule:nonzero;stroke:#000;stroke-miterlimit:4;filter:url(#a)" transform="translate(0 .616)"><path d="M166.837 235.548c0 3.777-3.087 6.869-6.871 6.869H7.11c-3.775 0-6.861-3.092-6.861-6.87V7.12C.25 3.343 3.336.25 7.11.25h152.856c3.784 0 6.87 3.093 6.87 6.87z" style="fill:#b3b3b3;fill-opacity:1;stroke-width:.5"/></g><path d="M50.291 22.698s2.375-1.9 2.375-4.534c0-1.542-1.369-4.102-4.534-4.102s-4.534 2.561-4.534 4.102c0 2.634 2.375 4.534 2.375 4.534-2.638-2.055-7.34-.652-7.34 3.455 0 2.056 1.68 4.318 4.317 4.318 3.165 0 4.534-3.455 4.534-3.455s.402 3.938-1.943 6.046h5.182c-2.345-2.107-1.943-6.046-1.943-6.046s1.37 3.455 4.534 3.455c2.64 0 4.318-2.263 4.318-4.318 0-4.107-4.703-5.51-7.34-3.455" style="fill:green" transform="translate(-44.957 -33.937)scale(3.36871)"/><g style="fill:green"><path d="M-26.845 90.822v129.995H103.15V90.822Zm2.3 2.3H100.85v125.396H-24.546Z" style="color:#000;fill:green;stroke-width:.811363;-inkscape-stroke:none" transform="translate(45.39 6.384)"/></g><g style="font-size:64px;font-family:NumbersDeuce;-inkscape-font-specification:NumbersDeuce;stroke-width:2.83465;fill:green"><path d="M-241.53-27.27h-3.776v-4.095h12.352v4.096h-3.136l-8.896 13.376 8.896 23.04h3.328v4.288h-12.992V9.147h4.8l-7.104-18.368-4.736 7.104V9.147h3.072v4.288h-11.712V9.147h3.904V-27.27h-3.904v-4.096h11.712v4.096h-3.072v17.216h.384zv-.064z" aria-label="K" style="fill:green" transform="translate(387.676 58.245)scale(1.42857)"/></g></svg>