<svg xmlns="http://www.w3.org/2000/svg" xml:space="preserve" width="222.783" height="323.556" viewBox="0 0 167.087 242.667"><defs><filter id="a" width="1.147" height="1.101" x="-.074" y="-.051" style="color-interpolation-filters:sRGB"><feGaussianBlur in="SourceGraphic" result="result3" stdDeviation="4"/><feGaussianBlur in="SourceGraphic" result="result4" stdDeviation="1"/><feBlend in2="result3" mode="darken"/><feComponentTransfer result="result1"><feFuncR tableValues="0 0.2 0.4 0.6 0.8 1 1" type="discrete"/><feFuncG tableValues="0 0.2 0.4 0.6 0.8 1 1" type="discrete"/><feFuncB tableValues="0 0.2 0.4 0.6 0.8 1 1" type="discrete"/></feComponentTransfer><feTurbulence baseFrequency="1" numOctaves="7" result="result0" type="fractalNoise"/><feConvolveMatrix kernelMatrix="-2 0 -2 0 -10 0 -2 0 -2" order="3 3" result="result5"/><feColorMatrix in="result5" result="result4" type="saturate" values="0"/><feComposite in="result1" in2="result4" k1="1.5" k2=".5" k3=".5" operator="arithmetic" result="result2"/><feComposite in2="SourceGraphic" operator="in"/></filter></defs><g style="fill-rule:nonzero;clip-rule:nonzero;stroke:#000;stroke-miterlimit:4"><path d="M166.837 235.548c0 3.777-3.087 6.869-6.871 6.869H7.11c-3.775 0-6.861-3.092-6.861-6.87V7.12C.25 3.343 3.336.25 7.11.25h152.856c3.784 0 6.87 3.093 6.87 6.87z" style="fill:#fff;stroke-width:.5"/></g><path d="M3.676-9C.433-9 0-5.523 0-5.523S-.433-9-3.676-9C-5.946-9-8-7.441-8-4.5-8-.614-1.42 3.294 0 9 1.352 3.299 8-.614 8-4.5 8-7.441 5.946-9 3.676-9" style="fill:maroon;fill-opacity:1" transform="matrix(2.29606 0 0 2.1489 41.13 121.334)"/><g style="fill:maroon"><path d="m1318.069 717.167 3.241 4.322c1.784 2.375 6.843 9.356 11.243 15.518s12.047 16.711 17 23.436c10.519 14.285 21.365 29.2 23.5 32.332.825 1.21 6.154 8.205 11.849 15.546s11.744 16.046 13.44 19.346c2.851 5.546 3.08 6.725 2.972 15.565-.165 13.622-1.871 24.968-5.43 36.15-3.736 11.738-5.237 13.363-12.054 13.07-9.199-.397-13.776 3.77-13.776 12.537 0 6.548 2.314 11.772 6.082 13.72 4.16 2.151 12.775 1.87 16.413-.54 3.466-2.295 7.061-2.592 7.806-.652 1.667 4.346-6.804 31.546-11.96 38.405-2.956 3.93-6.05 4.264-6.93.754-.811-3.229-6.435-8.132-10.293-8.98-4.553-.999-11.336 2.413-15.08 7.583l-3.112 4.285.522 11.839c.284 6.512 1 12.743 1.592 13.85 2.315 4.325.915 6.041-7.042 8.608-40.213 12.97-88.017 34.575-123 55.58-9.158 5.5-34.567 22.226-40.184 26.454-14.271 10.744-18.044 13.606-26.78 20.353-5.398 4.17-14.266 11.6-19.71 16.506-10.514 9.475-16.983 14.987-19.141 16.31-.83.508-1.207 2.25-1.007 4.694l.317 3.894 9.008-8.01c39.692-35.319 76.192-61.637 117.244-84.55 14.94-8.34 15.541-8.485 19.794-4.75 2.754 2.418 3.26 3.364 2.366 4.442-.626.754-6.829 4.24-13.777 7.75-38.279 19.333-93.215 58.75-125.879 90.315l-9.25 8.943v5.728c0 5.432.106 5.664 2.022 4.639 2.996-1.604 7.39.775 7.787 4.21.427 3.686-3.412 6.283-7.172 4.853l-2.636-1.006v17.326l9.743-9.501c26.076-25.428 52.672-47.956 73.25-62.036 4.126-2.823 9.304-6.56 11.504-8.31 2.2-1.749 6.248-4.464 8.998-6.035s7.026-4.3 9.501-6.055c10.322-7.317 52.555-30.43 55.6-30.43 1.871 0 4.75 4.644 4.033 6.51-.323.842-1.381 1.792-2.356 2.115-3.33 1.101-12.77 5.845-21.108 10.609-4.58 2.617-8.504 4.76-8.718 4.76s-6.08 3.387-13.031 7.526c-24.336 14.492-54.498 36.785-81.914 60.537-11.539 9.996-38.733 36.73-42.792 42.065l-2.757 3.614.27 19.72.27 19.718 5.095-6.343c20.684-25.748 57.515-60.265 92.766-86.953 19.577-14.821 75.98-50.088 84.922-53.094 1.77-.595 3.832-1.562 4.583-2.152 1.037-.815 1.937-.407 3.754 1.705 3.24 3.768 2.057 5.642-5.813 9.157-3.465 1.547-10.486 5.22-15.593 8.16s-9.474 5.337-9.715 5.337c-.766 0-21.656 12.999-31 19.29-27.908 18.793-61.158 46.002-86.03 70.392-8.704 8.535-37.68 39.91-42.512 46.033-.524.664-.95 3.695-.95 6.735v5.523l4.35-4.238c8.336-8.115 13.888-12.455 35.647-27.888 17.822-12.641 26.768-18.149 44.096-27.134 15.655-8.119 32.853-14.998 36.262-14.512 1.18.168 2.142.958 2.142 1.76 0 2.16-8.953 8.709-17.483 12.79-27.949 13.368-74.204 45.428-98.187 68.053l-6.827 6.445v15.258l9.25.037c43.203.207 49.61.466 51.165 2.021 1.39 1.39 1.563 11.363 1.574 91.462l.01 89.905-2.069 1.109c-1.84.984-2.873.293-9.212-6.185l-7.144-7.303-.037-8.504c-.032-6.782-.342-8.551-1.537-8.719-.825-.116-4.92-.492-9.091-.838-6.206-.515-8.08-1.087-10.303-3.149-1.494-1.386-2.54-3.041-2.328-3.679.247-.75 4.426-1.335 11.801-1.658l11.42-.503.308-4.9c.206-3.245-.13-5.187-.997-5.737-.721-.458-6.769-.838-13.432-.848-10.615-.014-12.424.232-14.652 1.984-1.398 1.1-3.236 2.003-4.08 2.003s-3.47-2.492-5.84-5.533l-4.313-5.524-.289 4.294c-.287 4.183-.07 4.529 8.495 13.302 4.838 4.954 26.61 27.217 48.381 49.48 15.046 15.385 20.914 21.495 28.056 28.894h41.553c-.798-3.035-1.602-6.067-2.273-9.138-3.414-15.628-4.423-47.828-2.03-64.83 4.01-28.503 13.763-56.935 27.04-78.831 12.175-20.079 36.338-47.325 52.572-59.288 16.352-12.05 40.852-25.02 56.774-30.05 7.411-2.34 9.489-1.893 9.044 1.947-.29 2.512-1.313 3.124-12.314 7.322-17.878 6.821-27.315 11.778-44.869 23.566-8.034 5.396-24.31 20.101-32.07 28.978-32.14 36.763-50.56 82.388-50.56 125.227 0 19.088 2.312 37.444 6.78 55.097h23.52c-8.787-4.096-12.657-10.754-12.1-20.912.41-7.477 3.227-12.575 9.203-16.636 3.441-2.338 3.596-2.686 3.596-8.318 0-3.235.26-6.56.577-7.387.58-1.508-.391-2.623-6.222-7.19-8.945-7.008-9.711-22.22-1.556-30.814 2.847-2.998 9.17-6.66 11.504-6.66 2.018 0 4.058-2.775 6.52-8.877 2.792-6.917 2.736-8.314-.521-13.236-6.299-9.518-2.985-23.097 7.163-29.37 4.345-2.685 5.735-3.017 12.752-3.017h7.88l4.946-6.362c5.528-7.112 5.292-6.463 4.015-10.917-1.925-6.71 3.818-18.035 11.038-21.768 3.441-1.78 15.924-1.934 20.576-.252 2.65.958 4.077.93 7.07-.149 6.628-2.39 10.984-5.792 13.273-10.377 2.147-4.297 9.075-10.674 11.597-10.674 1.575 0 2.708 3.413 1.938 5.84-.322 1.012-1.667 2.417-2.981 3.12-2.213 1.185-4.677 5.018-5.999 9.334-.302.987-2.242 2.483-4.313 3.325s-7.541 3.322-12.165 5.505c-4.623 2.184-8.9 3.704-9.5 3.382a157 157 0 0 1-3.596-2.04c-1.722-1.005-3.897-1.264-6.995-.839-7.776 1.067-12.007 6.673-12.007 15.938 0 5.321-.29 6.004-4.816 11.299-2.65 3.1-6.05 7.29-7.554 9.305-3.592 4.81-4.975 5.209-10.982 3.213-4.91-1.63-5.146-1.616-9.194.531-9.669 5.13-11.037 16.326-3.148 25.681l2.599 3.083-4.537 11.57c-4.462 11.375-4.597 11.578-8.169 12.248-14.255 2.674-20.006 17.806-9.882 25.997a812 812 0 0 1 5.858 4.797l2.674 2.217-.56 12.296-.567 12.295-4.36 3c-5.353 3.683-7.358 7.374-7.358 13.515 0 7.928 6.731 14.391 14.987 14.391 2.248 0 3.277.589 3.903 2.245.067.179.516 1.337.643 1.668h14.158c-2.729-7.643-4.936-15.365-6.176-22.412-5.498-31.248-1.444-60.672 12.398-90.017 11.864-25.152 28.06-42.833 54.286-59.26 5.567-3.487 22.285-11.225 24.247-11.225.306 0 .55 1.603.55 3.559 0 3.294-.35 3.703-4.751 5.56-25.562 10.793-48.238 30.282-61.43 52.796-14.765 25.197-19.998 43.71-19.953 70.587.033 19.765 2.593 34.535 8.458 50.412h8.737c-.363-.4-1.062-1.035-1.062-1.174 0-.613.703-4.065 1.556-7.675.852-3.61 1.763-7.575 2.021-8.812.29-1.394 1.199-2.254 2.394-2.254 2.58 0 14.028 9.615 14.028 11.783 0 1.007-.633 4.667-1.276 8.132h17.12c18.47-41.89 31.57-89.265 35.08-127.91 2.059-22.679 3.306-52.718 2.673-64.505-.928-17.266-3.495-43.472-5.067-51.724-1.344-7.05-.768-11.774 1.443-11.774 2.067 0 8.918-7.197 9.539-10.023.352-1.602 1.843-3.818 3.316-4.918l2.673-1.993-3.316-.037c-4.55-.044-7.182-1.655-7.182-4.406 0-3.272 3.047-5.626 7.294-5.626 4.182 0 6.265 2.626 5.263 6.622-.546 2.174-.354 2.369 1.807 1.826 1.944-.488 2.983.091 5.281 2.972 1.572 1.97 3.355 3.586 3.959 3.586s1.891-1.773 2.869-3.94c2.125-4.713 3.712-5.482 8.243-3.987 1.878.62 3.616.93 3.856.69s-2.26-4.45-5.551-9.353c-4.698-7-5.983-9.741-5.999-12.761-.012-2.305-.88-5.054-2.17-6.865-1.183-1.661-2.538-5.108-3.009-7.657-1.235-6.69-3.585-9.321-10.414-11.652-7.536-2.573-8.43-3.163-8.43-5.57 0-3.011 2.801-3.437 6.176-.941 3.444 2.546 4.025 2.17 5.682-3.661 1.135-3.994 1.396-4.207 5.421-4.499 2.34-.17 4.22-.817 4.22-1.453 0-.632-2.495-3.112-5.552-5.505-5.702-4.464-9.955-8.953-15.965-16.85-6.234-8.192-7.451-8.029-6.623.884.7 7.534-.663 17.054-2.617 18.295-1.987 1.262-5.98.96-15.407-1.183-16.51-3.756-15.98-3.501-17.958-8.765-2.27-6.042-16.808-35.487-19.273-39.039-1.027-1.48-5.376-8.317-9.668-15.192-15.762-25.247-37.735-53.631-53.122-68.621-4.021-3.918-7.312-7.85-7.312-8.737 0-1.79 9.192-6.75 21.731-11.728 4.274-1.697 8.3-3.53 8.951-4.07.652-.54 2.677-.837 4.5-.662 3.095.298 3.511.793 6.268 7.583 2.96 7.29 4.749 8.67 5.394 4.154.55-3.857 2.074-4.95 6.501-4.676 3.82.237 4.12.059 4.62-2.701.451-2.49 1.162-3.083 4.48-3.773 2.167-.45 4.106-.985 4.313-1.192.208-.207-1.565-2.2-3.94-4.425-3.792-3.552-4.14-4.212-2.822-5.44 2.363-2.201 22.43-8.709 26.854-8.709 2.357 0 6.847 6.006 18.686 25.001 21.363 34.278 34.793 61.156 48.716 97.497 11.837 30.9 18.406 52.53 25.196 83.004 5.69 25.535 6.398 29.13 8.951 45.493 9.775 62.64 10.244 116.228 1.528 173.999-2.56 16.967-9.256 50.654-12.426 62.501-1.324 4.95-2.697 10.129-3.046 11.504-1.512 5.96-3.695 13.254-6.101 20.912h27.804c6.03-5.992 11.282-11.232 19.599-19.43 60.044-59.201 65.526-64.487 66.982-64.487.595 0 1.397 1.857 1.779 4.117.668 3.955.497 4.304-4.415 9.278-2.809 2.844-5.105 5.768-5.105 6.502 0 .733 3.314 4.77 7.368 8.97 7.167 7.424 9.632 10.785 9.632 13.152 0 1.643-10.505 11.693-13.078 12.51-1.497.475-2.778.054-4.201-1.37l-2.05-2.049 3.698-4.089c2.64-2.921 3.449-4.522 2.841-5.608-1.46-2.607-12.45-13.413-13.646-13.413-.624 0-6.184 4.896-12.351 10.88-7.733 7.503-11.215 11.583-11.215 13.134 0 1.473 2.934 5.243 8.504 10.935 4.848 4.954 8.495 9.533 8.495 10.656 0 1.083-2.406 4.353-5.356 7.266-1.588 1.568-2.528 2.269-3.54 3.046h9.409c7.26-7.354 9.545-10.181 9.072-11.672-.35-1.103-4.45-5.932-9.11-10.74s-8.467-9.295-8.467-9.966c0-1.656 12.477-13.535 14.215-13.535 1.872 0 3.782 2.034 3.782 4.024 0 .894-1.122 2.686-2.497 3.978-1.375 1.291-2.49 3.283-2.478 4.424.025 2.387 10.992 14.568 13.116 14.568.778 0 4.277-2.698 7.777-5.998 6.435-6.066 9.372-7.3 10.48-4.415 1.306 3.405.405 5.326-4.649 9.938-1.385 1.265-12.783 12.53-19.793 19.394h9.24c9.958-9.68 16.505-15.91 16.776-15.91.527 0 1.468.952 2.095 2.124 1.025 1.915.452 2.795-5.71 8.662-.3.287-4.6 4.526-5.216 5.124h21.75c-.096-.316-.192-.596-.289-.913-11.752-38.575-21.908-92.283-24.581-130.006-.565-7.975-1.29-16.06-1.612-17.968-1.023-6.054-.605-68.52.54-80.768 1.823-19.477 3.148-31.457 4.108-37.259.501-3.025 1.606-10 2.46-15.5 5.951-38.338 19.945-88.498 36.047-129.194 8.102-20.477 26.815-60.11 33.794-71.575 3.354-5.51 4.774-6.957 7.629-7.75 7.138-1.983 28.764-.795 29.695 1.63.278.724-.441 2.64-1.593 4.257s-2.095 3.135-2.095 3.372 1.88.392 4.173.345c3.909-.081 4.221.121 5.048 3.25.64 2.42 1.313 3.178 2.431 2.749 5.214-2.001 6.304-1.826 8.085 1.304.97 1.704 2.275 3.101 2.897 3.101.623.004 2.335-3.831 3.8-8.532 4.007-12.85 4.057-12.891 20.372-12.109 7.43.356 18.167.652 23.855.652 6.699 0 10.34.376 10.34 1.071 0 1.027-8.54 10.863-21.601 24.88-20.205 21.684-45.513 59.334-62.884 93.548-9.937 19.571-12.832 26.53-21.536 51.715-9.71 28.097-14.86 49.564-17.95 74.788-.639 5.225-1.607 12.418-2.15 15.993-.544 3.575-1.242 19.776-1.547 36.002-.649 34.545 1.155 59.588 6.138 85.145.66 3.383.354 4.035-4.378 9.26-2.8 3.09-5.085 6.27-5.085 7.069 0 2.388-3.854 3.775-8.533 3.074-2.615-.392-4.552-.228-4.946.41-1.143 1.849-5.227 1.127-6.8-1.202l-1.518-2.254-3.353 3.8c-3.21 3.643-3.49 3.756-6.65 2.636-4.654-1.648-5.048-.516-1.333 3.82 4.97 5.8 7.445 11.831 6.81 16.57-.594 4.423 2.005 10.952 4.778 12.016 1.122.43 1.536 2.044 1.536 5.906 0 6.23 2.012 9.752 5.561 9.752 1.344 0 2.44-.446 2.44-.996s-.65-1.006-1.443-1.006c-1.391 0-4.555-3.622-4.555-5.217 0-1.837 4.238-4.778 6.884-4.778 3.38 0 4.867 1.516 5.728 5.822.549 2.743.298 3.262-2.049 4.154-3.488 1.326-2.445 2.855 2.478 3.642 2.157.345 4.692 1.192 5.635 1.882 1.623 1.185 1.623 1.399 0 3.875-1.941 2.962-3.31 3.207-6.11 1.09-2.802-2.12-4.564-1.807-4.564.81 0 1.252-.73 3.32-1.621 4.592-1.344 1.918-2.187 2.203-4.993 1.677-1.892-.355-3.381-.219-3.381.307 0 .517 2.276 3.342 5.058 6.287 2.782 2.946 7.737 9.3 11.02 14.112.174.257.3.41.474.662h7.675c.076-.844.18-1.427.243-2.338.987-14.49.699-14.294 17.222-12.026 7.045.967 13.759 2.111 14.923 2.534 1.011.367 3.685 4.95 7.33 11.83h130.807c15.316-10.643 25.405-18.51 40.584-31.28 17.965-15.113 43.046-38.5 55.106-51.38 3.729-3.981 7.177-6.99 7.666-6.687.494.305.885-3.723.885-9.082v-9.631l-11.746 11.038c-6.462 6.067-13.41 12.279-15.434 13.813s-6.81 5.358-10.638 8.495c-12.345 10.118-31.304 20.708-55.18 30.813-18.126 7.672-28 9.951-28 6.465 0-2.34 9.399-7.88 24.497-14.447 4.964-2.16 19.491-10.049 31-16.832 15.659-9.23 43.32-30.821 56.251-43.91l9.25-9.361v-15.695l-28.438-.047c-18.288-.03-29.148-.435-30.44-1.127-1.993-1.067-2.015-1.82-1.752-91.647.227-77.3.483-90.698 1.705-91.47 1.997-1.264 2.038-1.235 9.892 6.38 6.59 6.39 8.392 9.721 6.036 11.177-1.153.713-1.324 7.45-.233 9.129.404.621 3.985 1.316 7.955 1.537 7.613.423 12.424 2.728 13.125 6.296.599 3.05-1.541 3.874-11.57 4.462l-9.78.578-.316 3.316c-.555 5.772.504 6.185 15.881 6.185 8.134 0 14.074-.418 14.438-1.006 1.32-2.138 5.11-.812 9.212 3.213l4.285 4.21v-5.272c0-2.897-.368-5.039-.82-4.76-.452.28-9.78-8.581-20.725-19.69-68.628-69.661-79.454-81.013-79.454-83.302 0-.98 1.277-1.397 4.256-1.397 4.241 0 4.335.083 27.749 24.134 12.922 13.274 33.735 34.4 46.247 46.946l22.747 22.812v-98.587l-6.995-.205c-10.02-.293-16.386-1.517-25.504-4.918-7.634-2.848-18.086-7.863-21.676-10.395-1.373-.97-3.28-.42-10.497 3.008-15.46 7.345-29.61 9.792-47.03 8.141-5.875-.556-11.815-1.56-13.2-2.226-3.13-1.508-8.1-9.387-8.382-13.292-.25-3.454.688-3.54 9.79-.978 8.776 2.472 20.155 3.043 30.757 1.546 11.485-1.622 18.326-3.917 26.91-9.016 3.676-2.185 7.627-3.968 8.784-3.968s5.64 2.421 9.966 5.383c10.23 7.007 20.946 11.072 34.52 13.088 5.99.889 11.268 1.848 11.728 2.133s.829-22.288.829-50.16v-50.682l-2.18.578c-1.202.315-4.175.296-6.604-.037-4.17-.572-4.669-1-8.98-7.703-9.402-14.626-20.676-37.495-24.199-49.098-.668-2.2-2.828-8.239-4.797-13.423l-3.577-9.426 2.236-3.885c3.46-6.012 3.949-15.923 1.118-22.504-1.23-2.858-2.86-5.718-3.624-6.353-.909-.754-1.397-3.278-1.397-7.284-.004-3.478-.652-7.362-1.5-8.988-1.879-3.603-1.906-7.05-.074-8.57 2.04-1.694 5.524-9.232 9.044-19.57 2.986-8.77 3.134-8.993 6.046-8.784 13.67.983 15.055.84 19.309-1.975 13.866-9.175 14.106-28.526.475-38.106-3.784-2.66-5.01-2.955-12.985-3.12-8.249-.172-9.332-.454-17.027-4.453-4.518-2.348-8.474-5.085-8.793-6.092-.73-2.301-8.149-5.97-12.081-5.97-1.632 0-5.432-.69-8.44-1.528-7.794-2.175-24.659-3.567-29.117-2.403-5.225 1.363-8.489-.12-9.352-4.257-1.055-5.057-5.298-11.716-8.83-13.87-4.922-3-12.218-2.614-17.838.95-7.936 5.033-11.211 10.83-14.457 25.606-2.397 10.914-1.177 10.507-31.018 10.507-21.187 0-25.51-.245-25.97-1.443-.523-1.366 2.632-5.548 19.655-26.063 5.941-7.16 27.324-34.415 32.462-41.376 4.277-5.795 13.953-17.781 16.85-20.874l3.037-3.251-5.943.065-5.943.056-5.505 7.135c-3.025 3.922-8.329 10.486-11.792 14.587-3.464 4.101-6.95 8.381-7.74 9.51-1.405 2.005-1.552 2.013-6.205.345-5.932-2.126-12.122-2.176-15.043-.13-2.663 1.865-5.216 6.503-5.216 9.482 0 2.03-.319 2.117-5.878 1.472-4.176-.485-6.519-.305-8.085.642-2.628 1.591-6.046 7.837-6.036 11.048.005 2.94 3.295 8.344 5.943 9.761 2.94 1.574 2.55 2.71-1.379 4.006-4.616 1.523-10.507-.105-15.173-4.201-3.354-2.944-3.776-3.065-6.735-1.872-5.278 2.126-10.026 3.035-12.658 2.421-3.014-.702-10.004-4.43-10.004-5.337 0-.356 2.473-.446 5.495-.196 9.92.823 14.513-3.047 14.513-12.23 0-5.534-3.487-9.958-9.436-11.988l-3.931-1.341.242-5.868c.222-5.482.018-6.074-3.074-8.998-6.522-6.17-11.916-7.014-18.07-2.832-2.053 1.395-3.747 2.63-3.763 2.748-.016.117-.845 2.694-1.845 5.719-1.76 5.323-1.95 5.507-5.728 5.775-5.663.402-8.112 2.004-10.442 6.819-1.752 3.62-1.906 4.848-.997 8.085 1.738 6.184 6.249 10.32 11.262 10.32 4.162 0 3.376 1.375-2.487 4.341-7.42 3.754-14.401 3.631-21.648-.363-6.407-3.532-6.62-3.542-12.23-.997-6.269 2.845-14.931 2.662-21.61-.447-2.888-1.344-5.244-2.858-5.244-3.363s1.889-1.213 4.2-1.583c2.313-.37 5.572-1.527 7.248-2.571 11.21-6.987 6.276-23.352-7.042-23.352h-4.434l.596-4.583c1.182-9.089-3.942-14.55-12.92-13.776-3.933.34-5.519 1.095-8.439 4.014-3.177 3.178-3.595 4.181-3.595 8.635 0 3.802-.365 5.049-1.49 5.049-3.115 0-10.234 4.306-11.653 7.05-4.432 8.572 1.823 19.944 10.972 19.944 1.403 0 2.553.393 2.553.875 0 1.63-2.59 3.047-8.309 4.537-5.01 1.305-6.368 1.307-11.317.018-3.093-.805-6.872-2.357-8.402-3.446-3.493-2.488-3.97-2.47-9.194.26-5.874 3.071-17.394 3.685-22.858 1.22-4.459-2.01-5.213-4.46-1.37-4.46 6.724 0 11.448-5.544 11.448-13.433 0-6.501-3.9-10.733-10.61-11.503l-4.89-.569-.651-5.384c-.512-4.192-1.35-6.083-3.773-8.504-2.736-2.734-3.739-3.09-8.234-2.953-4.247.13-5.63.674-8.141 3.186-2.457 2.457-3.109 4.066-3.484 8.588-.448 5.406-.552 5.57-3.437 5.57-4.28 0-8.55 3.438-9.734 7.834-2.188 8.127 3.296 16.17 11.029 16.17 5.8 0 5.107 3.177-1.723 7.843-3.749 2.561-9.285 2.79-15.37.643-4.122-1.454-4.427-1.413-8.634 1.053-2.4 1.406-6.504 2.794-9.11 3.092-5.035.577-10.237-.817-10.237-2.748 0-.64 1.805-3.118 4.005-5.505 3.556-3.858 3.996-4.891 3.996-9.342 0-4.118-.519-5.59-2.915-8.272-2.571-2.877-3.534-3.267-8.216-3.334-5.293-.077-5.307-.088-6.073-3.773-1.71-8.23-6.325-11.341-15.248-10.293l-5.384.634-6.623-9.017c-3.64-4.958-6.868-9.681-7.182-10.498-.414-1.08-2.173-1.49-6.455-1.49zm113.48 28.075c1.433 0 2.864.491 4.276 1.48 2.851 1.994 2.852 5.56.01 10.62l-2.217 3.949 2.375 4.48c3.244 6.116 14.159 16.646 21.079 20.334 6.548 3.49 17.55 6.072 25.792 6.055 15.78-.033 28.75-8.215 35.769-22.56 2.805-5.734 2.66-7.833-.838-12.566-4.124-5.577 1.97-12.219 8.075-8.802 3.504 1.96 3.873 5.262 1.193 10.628l-2.17 4.35 2.244 4.638c1.235 2.55 5.093 7.65 8.57 11.336 13.112 13.9 33.628 18.092 53.028 10.833 6.512-2.436 9.987-5.269 15.91-12.966 5.168-6.715 6.228-10.893 4.406-17.4-1.136-4.055-1.077-4.73.568-6.548 2.559-2.827 7.16-2.212 9.78 1.314l2.04 2.757-3.195 3.297c-4.085 4.215-4.165 8.14-.335 16.236 4.937 10.434 15.749 18.023 29.146 20.464 7.422 1.352 16.886.616 21.787-1.705 1.807-.855 3.528-1.315 3.828-1.015 1.513 1.513-2.565 5.27-9.081 8.365-11.61 5.513-22.401 5.314-31.95-.587-5.683-3.513-13.265-12.77-15.937-19.458-1.342-3.357-3.123-6.24-3.96-6.409-.894-.18-3.8 2.555-7.06 6.641-6.939 8.697-11.389 12.402-19.635 16.348-19.555 9.355-45.409-.326-56.56-21.173-1.614-3.02-3.617-5.604-4.442-5.747-.892-.154-2.716 1.813-4.5 4.844-4.034 6.858-15.175 17.212-21.991 20.436-10.39 4.915-25.039 4.838-34.81-.186-5.902-3.035-14.574-10.363-20.296-17.139-3.121-3.696-6.2-7.028-6.837-7.405-1.955-1.156-3.312.452-6.558 7.712-5.586 12.496-14.92 19.449-26.128 19.468-8.717.015-17.874-3.924-17.874-7.685 0-1.096 1.07-1.218 5.244-.596 7.79 1.161 11.747.911 18.694-1.192 11.489-3.478 20.015-13.927 20.865-25.569.354-4.844.077-5.94-2.198-8.644-3.216-3.822-3.366-7.662-.382-9.752 1.413-.99 2.843-1.481 4.276-1.481m259.583 25.475c.552.341.509 1.356-.112 2.515-1.053 1.969-3.968 2.706-3.968 1.006 0-1.492 3.072-4.144 4.08-3.52m58.804 6.195 5.626.465c8.021.665 10.994 3.912 10.61 11.588-.2 3.999-4.745 7.21-10.21 7.21-2.637 0-5.071-.457-5.411-1.007-.93-1.503-4.5-1.2-4.5.382 0 .76 2.025 3.04 4.5 5.068 3.773 3.091 4.499 4.247 4.499 7.181 0 1.925-.489 4.419-1.09 5.542-1.59 2.971-3.894 18.28-3.894 25.83.002 3.575.689 10.997 1.537 16.497 2.103 13.637 2.127 25.865.056 31.437-2.082 5.602-5.945 10.685-9.976 13.143-4.913 2.996-9.234 2.512-13.227-1.481-6.496-6.497-3.145-14.596 6.036-14.596 4.036 0 4.59-.281 5.17-2.59.357-1.424.365-5.14.018-8.253-2.18-19.577-2.68-25.512-3.576-42.018-1.536-28.284.741-40.822 8.988-49.378zm38.954 18.2c3.487.474 7.311 3.83 9.026 8.961 2.522 7.547.59 22.393-3.064 23.53-.713.22-3.158.66-5.43.977-5.853.817-6.442-.282-5.096-9.622.96-6.662.874-8.48-.652-13.32-1.624-5.153-1.635-5.79-.168-8.03 1.326-2.022 3.292-2.78 5.384-2.495m-15.593.261c.829.175 1.716.757 2.692 1.733 3.45 3.45 1.851 12.786-2.477 14.447-2.282.875-4.708.743-6.428-.345-1.259-.796-1.292-1.628-.195-5.728 1.995-7.46 3.923-10.631 6.408-10.107m31.465.028c3.78-.068 8.055 4.14 9.958 10.684 1.767 6.078 1.43 25.387-.475 27.292-.559.559-2.97 1.387-5.356 1.835-2.386.45-5.05 1.096-5.924 1.435-.892.346-2.184-.092-2.934-.997-1.122-1.352-1.05-3.01.4-10.293 2.137-10.723 2.183-14.221.317-21.05-1.386-5.072-1.36-5.479.503-7.34 1.044-1.045 2.252-1.543 3.511-1.566m16.543 4.462c.814-.125 1.732.016 3.009.382 1.774.509 3.29.922 3.372.922.08 0 1.094 2.02 2.254 4.49 1.681 3.576 2.114 6.41 2.114 13.935 0 10.32-.888 13.917-3.828 15.49-3.484 1.865-9.827 2.439-10.349.94-.259-.744-.02-5.526.532-10.627.762-7.06.689-10.868-.317-15.928-1.274-6.411-1.246-6.706.838-8.393.855-.693 1.562-1.086 2.375-1.211m-40.696 10.973c3.688 1.415 2.729 11.912-1.732 18.946-2.368 3.733-2.857 5.39-2.329 7.815.369 1.692.662 4.546.652 6.343-.011 2.904.523 3.54 4.788 5.7 5.877 2.979 8.687 6.218 13.134 15.147 1.886 3.788 3.542 7.073 3.679 7.302.138.23.558.113.931-.26.374-.374-.044-3.044-.931-5.925-1.47-4.775-2.131-9.21-1.854-12.481.07-.828 1.884-1.249 5.366-1.249 2.89 0 6.683-.412 8.43-.912 2.298-.66 3.675-.542 4.992.437 2.774 2.063.519 4.746-5.197 6.185-5.666 1.427-7.615 2.918-5.096 3.885 2.164.83 11.543-1.014 18.108-3.559 2.75-1.065 7.62-2.704 10.815-3.642 5.08-1.491 5.984-1.522 7.256-.251 3.39 3.391-2.914 19.992-10.312 27.143-2.708 2.618-5.91 4.4-10.339 5.747-5.124 1.558-9.235 1.933-20.418 1.872-15.162-.082-22.64-1.29-29.23-4.722-3.617-1.885-4.795-3.385-8.206-10.442-3.331-6.893-4.234-10.175-5.523-20.045-2.29-17.527-2.073-21.454 1.63-29.938 3.82-8.756 5.04-9.904 9.752-9.175 2.813.435 4.299.017 6.93-1.946 1.843-1.375 3.955-2.263 4.704-1.975m60.09.493c1.245.233 2.564.975 4.052 2.255 2.62 2.254 2.803 2.918 2.803 10.087 0 6.86-.256 7.877-2.366 9.585-2.83 2.292-8.945 2.566-9.762.438-.311-.811-.414-5.778-.223-11.038.259-7.129.735-9.8 1.853-10.507 1.226-.773 2.397-1.052 3.643-.82m-115.26 2.199c2.447.178 3.402.57 4.098 1.267.892.892 1.49 2.584 1.322 3.753-.284 1.997-1.017 2.148-12.09 2.618-7.355.312-12.056.944-12.5 1.667-.392.638-.718 7.831-.718 15.994v14.847l12.603.494c12.578.499 15.9 1.454 15.9 4.555 0 .718-.71 2.014-1.574 2.878-1.308 1.308-4.453 1.568-18.75 1.556-9.448-.009-17.82-.419-18.602-.913-2.014-1.275-1.65-44.865.391-46.946.991-1.01 5.438-1.475 16.87-1.752 6.658-.16 10.602-.196 13.05-.018m-46.733.847c8.086.266 8.85.464 8.85 2.292 0 1.832-.765 2.03-9.101 2.291-6.86.215-9.387-.06-10.265-1.118-2.229-2.685 1.068-3.775 10.516-3.465m-168.913 2.18c7.547.069 13.605.243 16.757.54 6.05.571 14.156 1.256 18.006 1.528 14.497 1.024 24.557 2.783 25.429 4.443.463.881 2.077 7.455 3.586 14.605 4.904 23.238 8.163 32.946 22.495 67.001 11.755 27.933 17.123 44.083 20.176 60.695 1.95 10.613 2.027 12.38.838 19.002-1.482 8.257-3.39 12.07-5.803 11.606-2.315-.446-3.386-5.553-3.828-18.21-.295-8.439-.976-12.621-3-18.5-2.714-7.885-18.127-35.798-16.952-30.7.61 2.647 8.733 20.641 12.016 26.62 1.896 3.455 5.542 18.06 5.542 22.198 0 3.739-1.471 5.784-4.164 5.784-2.16 0-3.837-2.904-3.847-6.678-.01-3.51-2.946-13.014-6.343-20.52-2.71-5.99-9.574-16.21-10.358-15.426-.253.253 1.385 3.969 3.642 8.253 4.87 9.245 10.47 26.625 9.64 29.928-.676 2.697-4.069 4.105-6.007 2.497-.738-.612-1.874-3.236-2.525-5.831-1.764-7.044-4.512-12.725-8.709-17.996-2.067-2.597-3.886-4.913-4.042-5.142-.157-.23-.542-.166-.848.14s1.703 4.494 4.462 9.305c7.508 13.095 8.958 22.269 3.688 23.305-2.398.472-3.875-1.03-8.495-8.634-5.035-8.287-8.712-12.908-9.584-12.044-.832.824 1.1 4.574 7.48 14.53 6.503 10.152 6.55 15.314.139 15.314-2.964 0-9.627-6.61-14.783-14.67-1.931-3.02-3.73-5.278-3.996-5.012-1.09 1.09 5.148 11.274 11.076 18.07 7.135 8.183 8.642 10.833 10.497 18.453 1.936 7.95.387 8.634-6.147 2.71-8.665-7.854-14.604-14.714-17.81-20.548-1.663-3.025-3.902-6.626-4.974-8.001-1.61-2.065-1.957-2.19-1.975-.717-.03 2.371 4.232 10.672 7.424 14.466 3.1 3.683 3.275 6.795.466 8.299-3.285 1.758-7.139-.466-11.914-6.874-2.326-3.122-4.698-6.69-5.272-7.927-1.137-2.45-3.726-3.07-3.726-.894 0 1.457 4.535 8.1 9.212 13.497 3.757 4.334 3.572 8.502-.4 8.96-3.897.45-7.097-2.086-11.849-9.38-4.027-6.182-5.96-7.855-5.96-5.17 0 1.63 6.344 11.155 10.655 15.994 5.456 6.125 3.758 10.2-3.064 7.35-3.533-1.477-10.863-10.271-14.466-17.354-2.981-5.86-4.352-5.344-2.03.764 3.76 9.897 12.928 20.72 19.448 22.96 2.87.988 10.451 9.69 10.451 11.998 0 2.187-7.724.944-14.521-2.338-12.072-5.83-19.611-14.37-25.504-28.885-2.547-6.273-4.5-7.667-3.493-2.496 1.457 7.479 7.842 18.141 15.481 25.848 8.209 8.282 11.438 10.33 19.7 12.482 14.777 3.849 25.89-.392 29.268-11.168 1.147-3.659 1.075-4.5-.764-8.104-2.543-4.984-6.585-6.99-10.498-5.207-4.2 1.913-3.388 3.804 1.36 3.167q7.974-1.068 7.974 6.827c0 4.937-2.707 6.903-9.501 6.903-5.696 0-8.76-1.673-11.001-6.008-6.798-13.146 11.748-26.116 24.32-17.009 7.328 5.308 10.206 15.005 6.325 21.284-3.37 5.454-12.679 13.627-18.601 16.338-6.157 2.819-16.698 3.907-22.859 2.357-8.866-2.231-18.751-9.546-26.09-19.31-5.338-7.1-14.587-24.68-14.587-27.72 0-2.18-4.19-5.934-6.623-5.934-3.538 0-5.24 2.35-7.228 10.004-1.072 4.125-2.488 8.69-3.158 10.144-1.798 3.909-6.646 7.162-9.575 6.427-2.85-.715-3.032-2.543-.997-9.92 1.985-7.198 2.883-14.652 1.77-14.652-.51 0-1.708 3.26-2.673 7.247-4.331 17.897-14.923 30.748-25.336 30.748-4.325 0-4.188-2.39.475-8.495 5.905-7.734 11.4-18.55 11.932-23.483l.484-4.517-1.602 3.996c-3.766 9.37-5.68 12.732-11.047 19.42-10.811 13.476-23.365 18.312-37.324 14.383-6.51-1.833-9.48-4.315-7.517-6.278.57-.57 5.333-1.44 10.59-1.938 14.372-1.36 20.928-5.361 27.814-16.953 4.541-7.643 7.947-17.072 7.983-22.085.034-4.793-1.376-2.722-3.018 4.415-.927 4.032-3.206 8.755-7.042 14.597-8.523 12.98-14.112 16.218-28.037 16.254-9.59.025-15.379-2.185-15.379-5.869 0-1.752.818-1.962 8.225-2.133 12.86-.296 20.896-4.555 27.302-14.465 3.963-6.132 7.45-18.355 6.734-23.594-.43-3.145-.537-2.921-3.735 7.75-2.702 9.014-7.846 17.88-12.687 21.87-4.069 3.354-10.628 5.461-17.334 5.561-5.89.088-16.497-4.992-16.497-7.899 0-1.723.872-1.911 9.492-2.03 11.15-.154 15.01-1.61 20.781-7.871 2.175-2.36 5.307-7.654 7.191-12.156 4.462-10.661 4.978-18.776 1.993-30.98-2.966-12.129-5.926-39.83-6.306-59-.152-7.673-.057-8.01 2.18-8.327 1.283-.182 3.143.405 4.136 1.304 2.935 2.656 11.698 5.527 16.794 5.505 2.607-.012 7.887-1.136 11.737-2.497 8.347-2.95 9.5-3.038 9.5-.708 0 1.861-8.09 12.516-13.878 18.276-2.003 1.993-2.896 3.527-2.19 3.763.657.219 1.312.232 1.454.037 1.718-2.353 13.193-15.519 13.972-16.03 3-1.972 3.398 2.77 1.183 14.177-.801 4.125-2.174 9.893-3.055 12.817s-1.465 6.706-1.295 8.402c.289 2.883.918 3.327 9.771 6.93 10.645 4.331 10.032 4.153 10.032 2.99 0-.476-3.496-2.906-7.778-5.394-11.458-6.657-11.124-5.676-6.902-20.017 5.6-19.02 9.025-38.626 8.43-48.26-.555-8.977-4.186-17.73-9.399-22.653-6.59-6.222-20.02-9.101-31.847-6.837-12.342 2.363-12.258 2.356-12.845.373-.3-1.017-1.102-5.577-1.779-10.135-1.043-7.024-1.015-8.483.196-9.603 1.43-1.323 13.897-4.29 21.424-5.095 2.2-.235 8.281-.874 13.506-1.425 11.082-1.17 47.1-1.91 69.74-1.705m349.107.307c3.807-.328 8.492.645 11.475 2.6 2.74 1.795 5.2 6.55 6.204 11.969.89 4.81-3.343 14.086-7.359 16.123-3.088 1.567-10.75 2.632-13.665 1.9-2.7-.678-4.499-2.234-4.499-3.902 0-1.025 1.615-1.379 6.307-1.379 9.029 0 12.686-3.652 12.686-12.64 0-4.566-.366-5.5-3.074-7.778-3.43-2.886-9.337-3.548-10.255-1.155-.616 1.605.793 3.006 3.996 3.987 5.293 1.62 5.562 7.42.447 9.538-2.4.995-3.448.923-6.008-.4-3.054-1.58-3.102-1.723-3.102-9.129v-7.526l3.428-1.434c.98-.41 2.15-.664 3.418-.774m-280.122 5.496 3.745.307 2.282 11.001c4.229 20.431 8.675 33.91 21.675 65.632 7.86 19.18 20.586 55.687 23.37 67.038.63 2.567 1.44 8.867 1.798 14 .55 7.904.327 10.379-1.462 16.151-4.196 13.544-11.124 23.185-19.915 27.712-2.672 1.376-6.618 2.331-10.498 2.543-9.972.543-14.718-1.232-19.477-7.303-4.552-5.807-5.284-7.745-5.458-14.503-.205-7.947 1.794-11.913 7.964-15.826 8.626-5.47 19.633-2.846 23.352 5.561 2.257 5.101 1.938 7.3-1.77 12.249-2.12 2.83-3.018 3.25-6.958 3.25-3.669 0-5.082-.554-7.452-2.924-1.607-1.608-2.95-3.974-2.99-5.254-.065-2.173-.123-2.194-.866-.326-1.7 4.279 3.09 11.07 8.532 12.09 4.969.933 9.674-1.142 15.621-6.883 7.61-7.346 9.72-12.265 10.46-24.432.523-8.579.234-11.614-2.095-22.085-2.705-12.16-11.618-39.29-15.994-48.688-6.792-14.59-8.472-18.692-14.987-36.495-7.414-20.26-14.57-48.037-13.255-51.464.469-1.221 1.62-1.58 4.378-1.35m11.15.83c3.281.03 4.244 1.866 6.622 12.565 3 13.487 3.463 15.002 10.759 35.414 5.75 16.09 17.053 43.9 24.786 61.002 2.114 4.675 6.209 15.251 9.101 23.501l5.254 14.997.055 14c.046 12.833-.168 14.5-2.505 19.999-4.004 9.42-9.268 15.984-15.193 18.936-5.91 2.946-8.006 3.175-9.752 1.072-1.03-1.242-.308-2.64 4.275-8.253 3.034-3.716 6.756-9.68 8.272-13.255 2.533-5.977 2.751-7.5 2.682-18.993-.057-9.6-.586-14.357-2.272-20.501-1.208-4.4-2.537-9.351-2.953-11.001-1.93-7.649-9.47-28.595-16.012-44.496-13.906-33.796-19.193-49.018-23.576-67.793-3.491-14.96-3.43-17.232.457-17.195m90.958.167c6.1.09 7.163 1.206 7.163 4.462 0 1.658-.79 2.707-2.562 3.38-2.654 1.01-6.628 1.02-19.44.047-6.624-.503-7.532-.82-7.796-2.664-.508-3.56 1.987-4.408 14.708-5.011 3.3-.156 5.893-.244 7.927-.214m-79.594 1.816c1.386 0 2.999.578 3.586 1.286.587.707 3.106 8.79 5.598 17.968 2.491 9.177 5.26 18.386 6.157 20.464s3.352 8.733 5.458 14.783 5.382 14.602 7.275 19.002 4.21 9.797 5.151 11.997c.942 2.2 3.66 8.053 6.036 13.003 14.063 29.284 21.137 47.308 21.871 55.73 1.133 12.997-2.616 26.422-9.603 34.38-2.266 2.582-3.774 3.382-6.316 3.382-4.342 0-4.898-1.11-2.58-5.17 4.629-8.107 6.612-16.807 6.576-28.829-.033-10.993-.237-12.097-4.638-25.066-2.532-7.46-6.165-16.678-8.076-20.492s-3.815-8.06-4.238-9.436-1.897-4.976-3.27-8.001l-5.225-11.504c-11.468-25.234-24.122-63.575-25.663-77.75-.613-5.644-.573-5.747 1.9-5.747m12.332 2.04c1.329.1 2.712.596 3.4 1.425.67.806 2.701 6.545 4.518 12.752 4.646 15.872 8.204 24.845 17.745 44.785 6.075 12.699 14.763 31.8 14.763 32.453 0 .26 2.585 5.776 5.747 12.258s6.35 13.36 7.08 15.285c4.169 10.997 6.467 18.585 8.318 27.488 1.98 9.52 2.001 10.368.493 18.005-3.3 16.72-6.21 22.686-12.705 26.044-6.938 3.588-7.953 1.339-3.502-7.778 4.577-9.375 6.567-17.406 6.567-26.444 0-9.2-4.555-23.254-13.619-41.99-3.506-7.248-6.38-13.455-6.38-13.796s-1.538-3.862-3.428-7.824c-13.128-27.53-23.679-55.31-29.043-76.474-1.99-7.848-3.352-14.709-3.018-15.248.46-.743 1.736-1.04 3.064-.941m11.83 2.012c1.304-.026 2.817.388 4.005 1.258 1.004.733 3.682 7.003 6.092 14.251 2.367 7.117 6.63 18.117 9.473 24.442a34260 34260 0 0 1 8.756 19.496c1.974 4.4 3.948 8.467 4.378 9.035 1.688 2.228 19.042 37.824 23.296 47.784 8.476 19.843 10.4 30.604 8.16 45.587-1.82 12.165-4.928 20.638-9.12 24.842-2.236 2.244-4.187 3.25-6.287 3.25-4.256 0-4.63-1.32-1.779-6.23 6.701-11.545 9.197-28.67 6.185-42.41-2.216-10.112-5.692-19.717-10.991-30.357-2.328-4.675-5.307-11.203-6.614-14.503s-4.12-9.372-6.25-13.497c-13.837-26.79-33.678-77.298-32.042-81.56.345-.9 1.435-1.362 2.738-1.388m93.976.14c1.494-.004 2.501.6 4.052 2.151 3.452 3.453 3.428 7.835-.065 10.582-1.45 1.14-3.86 2.077-5.356 2.077-3.249 0-8.01-4.105-8.01-6.902 0-2.95 4.052-7.016 7.684-7.713.641-.123 1.197-.194 1.695-.195m71.183 2.403c1.02-.1 1.993.086 2.767.652 2.55 1.865 3.28 8 1.201 10.078-3.65 3.651-10.525.756-10.525-4.433 0-3.102 3.5-5.998 6.557-6.297m-152.612.149c1-.024 2.38.211 4.182.615l5.077 1.136 2.794 8.001c3.423 9.801 7.15 18.983 11.085 27.302 1.638 3.463 3.902 8.634 5.03 11.494 1.127 2.86 2.429 5.651 2.887 6.204.46.553 1.725 3.26 2.823 6.008s6.337 13.991 11.634 24.991 10.056 20.902 10.581 22.002 2.557 6.953 4.509 13.003c3.01 9.335 3.636 12.893 4.126 23.501.843 18.274-1.71 31.205-7.927 40.249-1.432 2.083-2.708 2.748-5.263 2.748-1.855 0-3.618-.404-3.921-.894s.315-2.847 1.37-5.245c5.613-12.765 8.057-35.52 5.14-47.859-2.116-8.957-12.423-32.282-29.369-66.442-15.52-31.286-18.966-39.147-24.758-56.53-2.58-7.742-2.997-10.212 0-10.284m23.063 3.418c2.982-.048 6.788-.034 10.694.047 14.478.3 17.187 1.011 15.956 4.22-.513 1.336-2.93 1.557-16.385 1.49-8.68-.043-16.34-.3-17.027-.578-2.129-.858-1.433-4.263.997-4.871.618-.155 2.784-.259 5.765-.308m179.188 2.58c.986.073 1.944.367 2.738.923 2.282 1.598 2.729 5.272.866 7.135-2.913 2.913-9.808.099-9.808-4.005 0-2.503 3.244-4.268 6.204-4.052m-15.053.261c4.226 0 6.415 6.29 3.279 9.427-.865.864-2.625 1.565-3.922 1.565-3.022 0-5.505-2.484-5.505-5.514 0-2.529 3.313-5.478 6.148-5.478m-18.285.177c4.126-.102 6.433 4.196 3.726 8.328-2.114 3.227-7.963 3.534-9.585.503-1.342-2.509 1.03-7.566 3.987-8.505a6.8 6.8 0 0 1 1.872-.326m-286.474.252c-3.004-.146-5.496.055-9.072.53-13.144 1.75-22.083 5.687-24.703 10.88-2.855 5.66.808 6.683 9.566 2.674 7.516-3.441 23.626-6.629 29.584-5.86 9.081 1.174 23.18 5.336 32.927 9.725 10.499 4.728 11.874 5.128 12.752 3.708.972-1.573-7.787-8.398-17.046-13.274-7.786-4.1-10.505-4.942-21.862-6.809-5.623-.924-9.142-1.428-12.146-1.574m160.511 6.436c2.855.052 4.866.192 5.347.41.962.436 1.751 1.856 1.751 3.158 0 1.756-.812 2.65-3.148 3.465-1.733.604-4.09 1.008-5.245.894s-6.354-.357-11.55-.54c-9.988-.352-12.332-1.278-11.848-4.667.282-1.974 1.054-2.119 14.298-2.598 3.85-.14 7.54-.173 10.395-.122m-254.934 6.185c6.415-.276 13.174.89 18.47 3.577 6.479 3.288 8.699 5.638 6.959 7.377-.753.753-1.915.74-3.959-.037-7.88-2.996-16.833-4.077-23.939-2.897-3.85.64-8.211 1.784-9.696 2.543-1.486.76-3.063 1.348-3.503 1.304-4.018-.396-4.405-3.911-.745-6.79 3.923-3.086 9.997-4.8 16.413-5.077m90.734 3.987c-4.53-.03-6.211.508-10.087 2.282-3.09 1.415-8.063 4.89-11.057 7.722-5.39 5.098-5.482 5.131-9.091 3.94-5.601-1.848-6.444-.038-2.413 5.198 1.827 2.373 4.591 5.604 6.139 7.181 1.547 1.578 2.813 3.973 2.813 5.32 0 3.932 1.695 6.04 5.44 6.743 1.924.361 4.194 1.644 5.039 2.86 2.457 3.534 16.733 15.845 20.008 17.25 2.962 1.272 4.508 1.11 4.508-.475 0-.451-3.24-3.013-7.2-5.69-7.835-5.3-15.037-12.187-14.466-13.833.41-1.18 3.264-1.101 9.436.26 5.479 1.21 6.42-.129 1.192-1.695-4.988-1.494-7.333-4.968-7.405-10.972-.047-3.914.242-4.63 1.863-4.63 1.249 0 2.25 1.045 2.878 3 1.512 4.706 3.62 6.5 7.61 6.483 4.672-.02 5.678-.75 7.666-5.524.909-2.18 2.126-4.259 2.702-4.62 2.172-1.364 3.726.42 3.726 4.266 0 5.038-5.501 11.52-10.582 12.472-5.538 1.04-2.79 2.482 3.39 1.78 7.38-.84 16.04-3.598 21.695-6.912 3.99-2.338 5.166-2.569 10.283-1.975 5.015.582 6.015.41 7.591-1.332 1.755-1.938 1.745-2.037-.037-3.046-1.557-.88-15.533-8.173-24.386-12.724-3.59-1.845-16.204-4.373-21.768-4.359-5.707.015-13.085 1.936-19.44 5.058-3.537 1.738-5.035 2.045-5.878 1.202-1.942-1.943-.245-3.927 6.083-7.089 11.722-5.857 24.343-6.602 36.923-2.18 5.41 1.902 21.256 10.15 28.83 15.007 1.212.777 2.53 1.092 2.924.698.73-.73-3.373-5.71-4.704-5.71-.402 0-3.923-1.963-7.824-4.368-10.654-6.569-24.308-10.809-36.737-11.402-2.332-.11-4.153-.176-5.664-.186m157.354.67c9.6.164 12.633.553 13.85 1.77 1.192 1.192 1.308 1.967.476 3.289-.917 1.456-2.988 1.777-13.05 2.012-11.052.258-12.105.122-13.851-1.807-1.463-1.617-1.652-2.473-.81-3.782.936-1.458 2.787-1.661 13.385-1.481m-245.9 6.27c5.584-.196 11.495.457 16.097 2.012 8.003 2.703 14.917 8.902 12.789 11.466-1.631 1.965-1.924 1.94-5.543-.456-1.65-1.094-5.877-2.95-9.398-4.127-5.475-1.828-7.58-2.032-14.503-1.388-13.97 1.3-18.099 1.198-18.099-.466 0-.814 2.034-2.599 4.509-3.968 3.312-1.831 8.565-2.878 14.149-3.073m285.674 4.713c6.039.02 10.752.11 12.677.26l6.995.55v4.937c0 4.697-.152 4.97-3.148 5.747-1.732.449-4.544 2.407-6.25 4.35-2.727 3.106-3.102 4.25-3.102 9.492 0 5.443.311 6.311 3.605 9.957 7.154 7.92 16.415 7.518 24.535-1.07 2.554-2.702 5.116-4.92 5.691-4.92s1.364 2.12 1.751 4.705c.743 4.955.692 5.094-5.002 13.236-4.074 5.826-4.658 13.207-1.546 19.635 2.09 4.319 2.177 5.09 1.015 9.623-1.437 5.607-9.052 24.913-12.556 31.828-6.664 13.15-19.446 32.574-26.528 40.323-4.242 4.642-5.749 5.654-8.402 5.654-5.256 0-5.804-1.919-2.636-9.128 1.058-2.407 2.904-8.426 4.108-13.376 1.789-7.356 2.083-10.734 1.611-18.499-.658-10.832-5.544-31.722-9.361-39.997-4.721-10.236-12.478-26.417-22.281-46.5-5.37-11-10.022-20.775-10.34-21.721-1.368-4.075.94-4.475 28.513-4.937 7.238-.122 14.611-.169 20.65-.15m-312.211 9.734c1.88.284 2.38 4.645 1.574 13.534-1.077 11.893-4.382 19.564-10.088 23.39-6.556 4.395-11.781 4.193-16.85-.644-2.576-2.457-3.25-3.91-3.25-6.986 0-4.928 4.33-9.724 8.783-9.724 3.574 0 8.216 3.43 8.216 6.073 0 1.06.446 1.928.996 1.928s.998-1.235.988-2.748c-.017-3.734 7.197-24.108 8.746-24.702.325-.125.616-.162.885-.121m139.19 1.695c.498.007 1.12.094 1.919.224 6.834 1.108 8.183 4.522 3.027 7.666-1.788 1.09-4.486 1.982-5.999 1.984-3.114.004-3.49-1.594-1.62-6.959.787-2.26 1.18-2.935 2.673-2.915m-36.579.876c1.926 0 4.074 4.187 3.549 6.911-.42 2.184-2.856 2.432-5.524.559-3.655-2.566-2.359-7.47 1.975-7.47m254.934 1.183c.316-.064.691-.054 1.128.009 2.807.401 3.39 3.405 1.145 5.887-1.781 1.968-3.994 2.515-4.732 1.173-.226-.412 0-2.238.494-4.06.536-1.978 1.017-2.819 1.965-3.01m-341.3.838c1.246.19 2.74 1.542 3.977 4.34 1.47 3.324 2.612 4.499 4.797 4.947 3.459.709 7.56-1.888 8.365-5.3.667-2.826 3.159-4.545 5.365-3.698 3.703 1.42.216 10.716-4.937 13.161-7.333 3.48-17.321.428-19.42-5.933-1.62-4.907-.224-7.833 1.853-7.517m-8.076 2.03c.683.161 1.211.653 1.211 1.388 0 .793-.397 1.692-.885 1.994-1.101.68-3.335-1.872-2.431-2.776a2.27 2.27 0 0 1 2.105-.606m35.694 1.118c.362-.05.784-.032 1.285.028 1.393.168 3.028 1.118 3.633 2.115.895 1.472.66 2.18-1.257 3.753-4.59 3.767-7.706 1.974-5.869-3.372.574-1.668 1.122-2.376 2.208-2.524m382.555 7.396c1.74-.08 2.56.254 3.624.95 2.729 1.788 2.821 2.414.95 6.893-1.225 2.933-2.37 3.675-9.259 6.083-6.927 2.42-9.618 2.785-22.849 3.101-10.974.262-16.858-.046-21.917-1.173-12.016-2.678-17.163-6.5-15.798-11.718.945-3.613 4.334-4.087 15.732-2.217 14.388 2.36 27.568 2.233 40.389-.382 4.728-.964 7.389-1.456 9.128-1.537m-64.597 20.81c1.481.356 2.732 1.432 3.148 3.092.701 2.793-2.027 11.836-4.238 14.046-1.791 1.792-5.491 1.942-7.144.289-2.705-2.704-.508-12.408 3.67-16.189 1.36-1.231 3.082-1.596 4.564-1.239m69.394.698c1.427.189 2.842 1.02 3.773 2.44 2.196 3.351 3.028 11.022 1.407 12.976-1.752 2.11-5.363 1.885-7.499-.475-2.264-2.503-3.266-11.4-1.518-13.507.97-1.168 2.411-1.623 3.837-1.434m-17.81 2.925c4.87 0 6.977 3.024 6.977 10.004 0 4.666-.447 6.445-2.002 8-2.49 2.49-5.103 2.546-8.039.169-1.727-1.4-2.38-3.176-2.738-7.49-.59-7.109 1.352-10.683 5.803-10.683m-35.46.279c4.07.698 5.811 7.513 3.027 14.177-.779 1.863-2.327 3.877-3.437 4.471-2.862 1.532-3.87 1.356-6.278-1.052-1.801-1.801-2.03-2.886-1.528-7.126.72-6.084 2.8-9.49 6.334-10.377.67-.168 1.3-.193 1.882-.093m17.372 1.723c4.859 0 7.314 10.921 3.697 16.44-1.263 1.929-2.523 2.562-5.113 2.562-4.273 0-5.514-2.018-5.514-8.98 0-4.092.483-5.597 2.45-7.563 1.35-1.35 3.367-2.459 4.48-2.459m-304.964 3c-3.037 0-2.344 1.611 1.779 4.117 4.728 2.873 5.216 3.606 5.235 7.824.021 4.872-3.235 8.057-8.225 8.057-4.66 0-7.104-1.152-11.755-5.533-1.925-1.813-5.332-4.231-7.573-5.384-3.461-1.779-4.563-1.93-7.322-.968-3.402 1.186-5.5 4.706-4.443 7.46.428 1.114 1.24 1.376 2.72.876 3.766-1.27 7.637-.774 9.902 1.267 1.218 1.098 4.24 3.18 6.716 4.63 6.21 3.637 13.618 3.687 17.856.12 3.629-3.052 5.57-8.388 4.713-12.956-.712-3.797-6.482-9.51-9.603-9.51m-87.717 2.18c2.64-.496 2.303 8.33-.782 20.566-5.73 22.72-11.923 32.375-22.905 35.74-5.925 1.816-6.956 1.824-11.914.057-7.877-2.809-12.141-9.1-11.4-16.804.894-9.315 10.065-14.464 17.473-9.818 3.853 2.417 4.956 5.9 3.084 9.753-1.296 2.667-1.72 2.82-7.592 2.729-6.626-.103-7.27.333-4.396 2.934 3.395 3.073 7.686 3.14 13.646.224 11.11-5.436 15.634-13.418 21.284-37.557 1.282-5.48 2.223-7.585 3.502-7.825m355.645 18.917c.992-.079 2.184.072 3.689.354 2.052.385 3.418 1.228 3.418 2.115 0 5.102-16.226 31.705-26.034 42.69-2.824 3.162-5.531 5.746-6.017 5.746s2.846-7.316 7.405-16.254c4.558-8.937 9.554-20.173 11.103-24.973 2.297-7.12 3.46-9.44 6.436-9.678m70.857.094c3.274.266 4.313 2.506 7.173 10.358 3.258 8.946 13.872 34.263 16.412 39.15.915 1.76 1.658 3.45 1.658 3.753 0 3.856-11.636-10.694-23.38-29.23-2.537-4.004-4.62-7.437-4.62-7.628s-1.568-2.97-3.493-6.167c-4.922-8.173-4.723-9.125 2.087-9.976 1.739-.217 3.072-.35 4.163-.26m-52.479 1.853c1.339-.08 2.754.312 3.465 1.211.544.688 2.208 4.926 3.689 9.427 3.063 9.307 7.6 16.319 10.563 16.319 2.258 0 3.694-2.798 8.467-16.496 2.799-8.033 3.4-9.008 5.589-9.008 2.34 0 2.436.253 2.151 5.505-.504 9.32-8.18 29.382-13.375 34.958-2.678 2.875-4.252 2.564-7.601-1.5-6.845-8.303-17.573-34.49-15.91-38.823.37-.964 1.624-1.512 2.962-1.593m-372.514 11.16c3.876.777-.38 18.033-6.725 27.254-3.642 5.293-8.501 9.022-13.581 10.433-2.173.603-5.755 1.09-7.955 1.08-7.056-.029-17.502-6.05-17.502-10.088 0-2.651 1.508-3.092 6.213-1.825 7.072 1.904 14.788 1.598 19.29-.774 5.4-2.843 10.917-9.754 15.072-18.871 2.61-5.729 3.867-7.475 5.188-7.21m364.122 1.797c.536 0 1.941 2.585 3.12 5.747 5.211 13.976 18.05 34.253 22.197 35.051 2.115.408 11.6-11.359 15.556-19.3 1.644-3.3 4.008-9.039 5.253-12.752 1.246-3.712 2.565-6.743 2.934-6.743s3.573 4.384 7.117 9.743c6.334 9.579 13.838 20.001 19.877 27.609 5.274 6.643 3.332 7.314-4.406 1.518-14.398-10.786-19.116-13.87-21.163-13.87-1.86 0-3.97 2.524-10.795 12.892-4.67 7.093-9.698 13.85-11.169 15.006-1.47 1.157-2.95 2.07-3.288 2.04-1.247-.112-10.04-10.723-16.925-20.437-9.437-13.315-9.85-13.76-11.96-12.593-.95.525-6.164 4.749-11.578 9.39-9.874 8.462-17.651 13.687-17.651 11.847 0-.54 2.413-3.84 5.365-7.321 5.572-6.57 21.855-29.354 24.833-34.744.937-1.696 2.147-3.083 2.683-3.083m-327.142 1.146c-1.029.38-1.744 2.737-2.506 7.526-.672 4.22-.988 7.908-.699 8.197.29.29 1.82-.24 3.4-1.174 3.796-2.242 13.052-2.094 19.561.308 6.693 2.47 11.89 2.43 19.589-.15 7.76-2.599 14.654-2.726 18.303-.335 1.472.965 2.934 1.49 3.251 1.174s.26-3.746-.13-7.629c-.572-5.696-1.042-7.06-2.413-7.06-.934 0-2.2.496-2.813 1.108-.684.684-2.785.881-5.449.503-12.544-1.782-15.533-1.82-18.601-.233-2.835 1.466-3.507 1.462-8.235-.065-4.2-1.356-5.74-1.453-8.392-.494-4.572 1.653-11.101 1.484-12.603-.326-.913-1.1-1.646-1.578-2.264-1.35m-32.835 12.09c1.307.268 1.562 1.635 1.397 7.554-.17 6.119-.754 8.268-3.754 13.972-3.873 7.366-8.315 11.54-14.68 13.786-4.022 1.42-12.87 1.84-15.872.755-8.039-2.908-12.994-6.523-12.994-9.473 0-2.28 2.16-2.332 8.43-.196 4.12 1.404 5.59 1.458 10.433.382 11.709-2.601 16.685-7.008 22.215-19.691 2.316-5.311 3.68-7.323 4.825-7.089m47.04 10.805c-1.472-.126-2.151.148-1.398.885.523.512 3.202 1.844 5.952 2.953 6.34 2.555 16.101 2.758 20.968.438 4.65-2.218 4.54-3.747-.215-2.934-9.932 1.697-14.856 1.741-19.132.195-2.441-.883-4.704-1.41-6.176-1.537m118.771 42.112c.89.078 1.845.802 2.096 2.105.231 1.2-.31 1.742-1.742 1.742-1.43 0-2.068-.646-2.068-2.077 0-1.282.824-1.848 1.714-1.77m-247.78 5.123c-.75-.081-1.494.11-2.478.56-2.823 1.285-3.143 3.74-.904 6.938 1.85 2.64 6.908 3.056 7.834.643 1.195-3.113.573-5.394-1.928-7.032-1.017-.667-1.775-1.027-2.524-1.109m31.101.727c-5.323 0-7.56 4.377-4.48 8.774 2.797 3.994 9.445 1.942 9.445-2.915 0-3.61-1.908-5.86-4.965-5.86m225.892.996c1.552 0 3.413.713 4.135 1.584 1.143 1.376-.833 3.695-15.173 17.754-9.07 8.892-40.09 39.383-68.938 67.764s-53.933 53.02-55.74 54.752c-3.704 3.55-4.735 3.838-5.607 1.565-1.331-3.468-.4-5.664 4.331-10.19 2.718-2.6 34.025-33.638 69.562-68.976 54.87-54.56 65.033-64.253 67.43-64.253m23.538.056c3.414-.3 3.166 1.462-.466 5.598-1.65 1.88-3 4.07-3 4.872s1.594 3.543 3.54 6.092c3.224 4.223 3.407 4.827 2.124 6.762-2.186 3.298-3.93 3.022-8.951-1.397-3.692-3.25-5.01-3.89-6.427-3.12-2.697 1.465-22.29 21.68-22.29 22.998 0 .631 4.048 5.493 8.997 10.805 4.95 5.311 9.008 10.155 9.008 10.768 0 .612-3.547 4.643-7.88 8.951-6.395 6.358-8.282 7.7-10.004 7.154-4.264-1.354-4.286-3.832-.093-8.607 2.141-2.44 3.907-5.12 3.93-5.961.053-1.885-12.355-14.351-13.776-13.842-2.363.846-26.184 24.371-26.184 25.858 0 .891 4.05 5.651 8.989 10.572s8.987 9.629 8.998 10.47c.01.84-2.885 4.406-6.437 7.926-6.028 5.976-6.634 6.326-9.007 5.245-3.369-1.535-3.213-4.18.457-7.694 1.65-1.581 3.008-3.497 3.008-4.257 0-2.326-11.317-14.251-13.525-14.252-2.527 0-24.479 21.802-24.479 24.312 0 .978 3.83 5.816 8.504 10.749 4.675 4.933 8.495 9.676 8.495 10.535 0 2.153-10.907 13.404-12.994 13.404-1.658 0-5.002-2.93-5.002-4.388 0-.406 1.122-2.22 2.497-4.024 1.375-1.802 2.496-3.822 2.496-4.499 0-2.133-11.256-13.198-13.106-12.882-3.001.514-23.892 21.559-23.892 24.07 0 1.473 2.749 4.993 7.992 10.236 4.394 4.394 8.246 8.773 8.56 9.725.802 2.425-.32 4.041-6.399 9.23-2.92 2.494-5.663 4.537-6.082 4.537-1.062 0-4.071-3.445-4.071-4.657 0-.549 1.13-2.053 2.506-3.344 1.375-1.292 2.496-3.205 2.496-4.257 0-2.044-11.57-14.745-13.432-14.745-.611 0-3.8 2.475-7.088 5.495s-6.533 5.496-7.21 5.496c-1.314.009-2.667-3.95-2.105-6.157.186-.731 13.384-14.16 29.332-29.835a61276 61276 0 0 0 76.325-75.216c37.86-37.376 48.058-46.931 50.998-47.748 1.964-.545 3.51-.878 4.648-.978m9.706 5.105c.352-.062.486.333.643 1.146.189.982-.195 2.442-.857 3.241-1.375 1.656-3.96 1.955-3.96.456 0-.55 1.005-2.01 2.236-3.241 1.018-1.018 1.586-1.54 1.938-1.602m-284.406 4.843c-1.097 0-.944 4.397.26 7.564.945 2.485 3.194 12.534 5.98 26.687.623 3.162 1.409 5.747 1.742 5.747.334 0 1.808-1.443 3.28-3.205 2.6-3.116 2.78-3.172 6.687-2.002 5.998 1.797 6.287 1.657 6.287-3.214 0-4.228.16-4.48 3.745-5.635 5.582-1.8 5.8-2.107 2.645-3.735-4.123-2.128-19-12.838-24.88-17.913-2.74-2.365-5.324-4.294-5.746-4.294m334.23 7.992c-4.802 0-6.65 4.525-3.344 8.179 3.287 3.63 8.346 1.703 8.346-3.177 0-1.43-.541-3.14-1.201-3.8s-2.37-1.202-3.8-1.202m-25.336 3.177c-5.44-.623-8.595 5.038-5.011 8.998 2.147 2.372 3.868 2.308 6.409-.233 1.411-1.412 1.962-3.056 1.75-5.244-.258-2.672-.77-3.249-3.148-3.521m-327.142 3.828c-2.875 0-5.506 3.345-4.788 6.092.283 1.081 1.464 2.629 2.618 3.437 2.636 1.846 3.138 1.836 5.076-.102 3.121-3.121 1.177-9.427-2.906-9.427m-47.412.01c1.145.068 2.305.553 3.316 1.564 2.088 2.088 1.993 4.741-.251 6.772-2.907 2.63-7.04 2.14-8.225-.978-1.541-4.053 1.725-7.564 5.16-7.359m328.167 2.99c.78 0 2.194.864 3.148 1.918 1.953 2.158 1.297 4.217-2.421 7.582-4.06 3.675-4.353 5.293-1.556 8.617 1.406 1.67 2.552 3.37 2.552 3.772 0 .403-.613 1.574-1.37 2.608-1.296 1.773-1.734 1.548-7.507-3.959-3.368-3.213-6.12-6.603-6.12-7.535 0-2.01 11.223-13.004 13.274-13.004m64.122 3.995c-.662 0-19.065 16.714-29.686 26.957l-6.79 6.548 4.788.504c4.774.498 4.793.513 5.356 4.731.31 2.328.799 4.46 1.08 4.742.282.281 2.407-.414 4.732-1.537 4.982-2.407 6.975-1.99 9.995 2.095 2.594 3.51 3.785 3.23 3.903-.922.114-4.02 3.983-26.286 5.775-33.253 1.523-5.921 1.858-9.864.847-9.864m-413.88 4.09c1.615.009 3.234.663 4.536 1.965 2.377 2.377 1.906 5.47-1.248 8.197-2.847 2.462-5.322 2.178-7.731-.885-2.592-3.294-2.608-4.825-.075-7.359 1.287-1.287 2.902-1.928 4.518-1.918m469.284 2.347c.688-.138 1.381.138 2.497.736 5.466 2.928 19.919 23.556 30.012 42.829 10.249 19.57 17.966 42.324 21.228 62.595 1.888 11.733 2.648 39.182 1.407 50.82-3.302 30.952-14.943 64.167-31.41 89.6-18.408 28.43-50.062 57.17-77.032 69.943-13.886 6.576-19.124 8.752-26.221 10.899-3.97 1.2-7.79 2.395-8.495 2.654-2.02.741-3.706-.849-4.36-4.117-.754-3.773.153-4.505 9.073-7.377 15.807-5.089 38.188-17.183 52.498-28.363 32.81-25.634 58.06-63.728 67.97-102.537 4.29-16.804 6.016-30.871 6.026-49.051.003-9.592-.439-19.95-.978-23.007-.54-3.059-1.689-9.61-2.553-14.56-5.225-29.943-20.603-62.928-40.258-86.347-6.645-7.917-6.72-8.468-1.89-12.985 1.118-1.045 1.8-1.594 2.486-1.732m-36.206 3.819c-2.155-.227-4.792 1.074-5.775 3.232-.882 1.936-.767 2.951.559 4.974 1.781 2.719 5.394 3.371 7.424 1.341 1.68-1.68 1.495-7.302-.289-8.783-.533-.442-1.2-.688-1.919-.764m-316.057 6.753c-5.641 0-7.145 3.686-3.428 8.411 2.493 3.17 4.471 3.037 7.097-.484 1.638-2.196 1.733-2.964.69-5.254-.947-2.078-1.925-2.673-4.36-2.673m-134.244.186c2.784.27 3.245.725 3.511 3.466.23 2.363-.266 3.554-1.974 4.75-4.549 3.186-8.83 1.456-8.83-3.568 0-3.335 2.744-5.088 7.293-4.648m62.176 3.81c.817-.003 1.63.2 2.338.643 2.429 1.52 2.786 6.449.586 8.057-4.208 3.077-8.793.64-8.215-4.368.287-2.493 2.838-4.322 5.29-4.332m96.22.587c-.739.093-1.504.375-2.254.866-2.947 1.932-3.356 6.914-.689 8.467 4.65 2.709 9.098-.411 7.824-5.486-.676-2.695-2.662-4.126-4.88-3.847m-179.121 7.414c5.358 0 7.54 6.414 3.213 9.446-1.222.856-2.8 1.555-3.502 1.555-1.758 0-5.282-3.673-5.282-5.505 0-1.968 3.579-5.495 5.57-5.495m353.689.42c1.295-.412 2.694.095 4.07 1.471l2.105 2.096-4.22 4.294c-2.318 2.362-4.21 5.103-4.21 6.092 0 2.292 11.775 14.624 13.963 14.624.905 0 3.173-1.576 5.04-3.502s3.756-3.136 4.2-2.692.094 2.887-.773 5.43c-1.36 3.99-5.635 8.575-31.223 33.45-16.305 15.85-43.09 42.208-59.52 58.57-16.432 16.363-30.505 29.742-31.28 29.742-.991 0-1.406-1.266-1.406-4.294 0-3.695.556-4.847 3.996-8.206 2.2-2.148 3.997-4.37 3.996-4.946s-2.991-3.98-6.65-7.554c-6.463-6.314-9.343-10.897-9.343-14.867 0-1.882 10.748-12.127 12.724-12.127.527 0 1.747.864 2.7 1.918 2 2.208 1.323 4.116-2.83 8.002-1.426 1.333-2.6 2.923-2.6 3.53 0 1.914 12.665 13.762 14.317 13.395 2.368-.527 23.687-20.798 23.687-22.523 0-.829-4.048-5.82-8.998-11.094s-9.007-10.081-9.007-10.684c0-1.7 13.36-14.55 15.127-14.55.864 0 2.38.898 3.372 1.994 1.755 1.938 1.706 2.091-1.844 5.44-2.007 1.892-3.652 4.144-3.652 5.01 0 2.044 10.912 13.967 13.153 14.373 1.935.35 24.851-21.295 24.851-23.473 0-.727-4.057-5.7-9.007-11.056s-8.998-10.28-8.998-10.936c0-.655 3.04-3.941 6.753-7.303 5.04-4.563 7.38-6.04 9.24-5.83 3.777.426 3.623 3.36-.41 7.824-1.969 2.18-3.586 4.315-3.586 4.741 0 1.427 13.534 14.224 15.044 14.224 1.841 0 23.957-22.031 23.957-23.865 0-.729-4.048-5.633-8.998-10.907s-8.998-10.003-8.998-10.507c0-1.481 13.098-14.619 15.258-15.304m-291.337 2.58c5.157 0 7.029 5.519 2.86 8.439-3.047 2.134-5.387 1.95-7.145-.559-2.421-3.457-.017-7.88 4.285-7.88m96.436.242c-.415-.182-.756-.176-.988.056-.32.32.113 4.772.96 9.892.846 5.12 1.845 14.622 2.226 21.117l.69 11.81 2.197-2.058c2.63-2.47 4.804-2.6 8.048-.475 2.73 1.789 4.509 1.18 4.509-1.537 0-2.955 3.223-5.972 7.246-6.79l3.736-.755-4.741-3.819c-5.911-4.755-16.738-17.002-19.226-21.75-1.525-2.91-3.415-5.146-4.658-5.691m-175.956 9.874c1.007-.037 1.88.537 2.944 1.714 2.079 2.296 2.108 4.57.084 6.594-1.564 1.564-7.494 2.175-8.765.904-1.525-1.524-.488-5.32 1.974-7.256 1.62-1.275 2.757-1.92 3.764-1.956m496.289.046c.523-.072 1.195.054 1.993.429 1 .469 5.19.863 9.315.885 6.083.032 8.347.514 11.96 2.533 11.256 6.29 14.222 20.818 6.53 31.987-2.376 3.45-2.393 3.59-.83 9.007.873 3.025 1.998 6.005 2.497 6.632s3.61 2.156 6.911 3.39c10.542 3.943 17.11 14.202 15.51 24.22-1.01 6.315-4.956 12.309-10.098 15.322l-4.48 2.617v13.208l6.427 6.055c7.276 6.855 9.209 11.547 8.216 19.962-1.025 8.68-8.231 16.158-17.4 18.07-3.718.775-7.052 4.733-9.65 11.448-1.67 4.311-1.66 4.49.381 6.995 1.153 1.415 3.03 4.559 4.173 6.977 4.344 9.186.273 21.42-8.923 26.826-4.322 2.541-5.514 2.763-14.037 2.627l-9.315-.149-3.922 3.726-3.921 3.726.577 9.426c.566 9.24.528 9.512-2.459 14.13-4.03 6.236-11.19 9.975-19.207 10.051-4.6.044-6.78-.543-11.215-3.046l-5.505-3.11-4.564 1.732c-2.51.953-4.88 2.057-5.272 2.45-.392.392-1.06 3.246-1.48 6.343-.535 3.937-1.631 6.699-3.643 9.184-3.047 3.765-4.45 4.66-5.57 3.54-1.156-1.157-.771-6.302.69-9.157.759-1.485 1.71-4.637 2.104-7.004.714-4.298.731-4.31 11.038-9.436l10.32-5.132 4.08 3.688c3.648 3.296 4.659 3.689 9.502 3.689 4.388 0 6.012-.506 8.532-2.627 5.854-4.926 7.198-10.04 4.89-18.667l-1.155-4.322 8.83-8.774c8.654-8.596 8.91-8.749 12.408-7.964 12.136 2.722 19.753-2.046 20.464-12.808.266-4.022-1.73-9.513-4.545-12.51l-2.059-2.188 2.953-6.325c1.626-3.477 3.776-8.568 4.778-11.318 2.467-6.77 2.878-7.185 8.859-8.923 5.578-1.622 8.84-4.372 10.553-8.896 2.819-7.439-.147-15.222-7.172-18.806l-4.052-2.068.699-13.096.689-13.097 3.977-3.41c5.12-4.381 6.93-7.978 6.93-13.776 0-4.062-.488-5.155-3.763-8.43-2.89-2.89-5.083-4.036-9.463-4.946l-5.701-1.182-3.707-11.458-3.708-11.466 3.046-3.223c1.678-1.773 3.557-4.21 4.173-5.412 2.894-5.644-.104-15.193-6.11-19.477-3.24-2.31-5.524-2.539-16.143-1.593-2.14.191-3.4-.445-4.946-2.496-1.79-2.375-1.562-4.366.01-4.583m-77.843.941c-.755-.027-1.605.129-2.543.456-2.19.765-2.872 1.7-3.12 4.276-.176 1.813.22 3.943.875 4.732s2.425 1.434 3.94 1.434c3.572 0 5.213-2.073 4.816-6.082-.304-3.07-1.703-4.734-3.968-4.816m-260.18 1.071c-5.166-.596-7.529 4.108-4.014 7.992 2.162 2.389 4.595 2.323 6.875-.195 2.633-2.91 1.004-7.35-2.86-7.797m-100.049 1.025c3.572-.261 4.197-.001 4.714 1.975.339 1.296-.038 3.262-.885 4.554-1.084 1.654-2.458 2.273-5.03 2.273h-3.53l.307-4.247c.304-4.206.347-4.257 4.424-4.555m382.072.857c-1.578.014-3.169.747-4.23 2.366-1.453 2.214-1.453 2.694 0 5.505.962 1.859 2.375 3.073 3.568 3.073 2.46 0 5.986-3.408 5.943-5.747-.059-3.24-2.653-5.222-5.281-5.197m-460.231 10.954c1.845.002 3.53.532 3.93 1.574 1.149 2.991.607 5.302-1.61 6.856-2.829 1.98-2.992 1.97-6.149-.513-3.015-2.372-3.305-4.109-1.062-6.352 1.04-1.04 3.045-1.567 4.89-1.565m59.334.14c.937.18 1.854.642 2.637 1.425 2.172 2.172 1.977 6.134-.364 7.386-4.468 2.392-8.066.553-8.066-4.126 0-3.258 2.983-5.226 5.793-4.685m447.73.037c1.095.107 2.367 1.287 4.1 3.558 7.798 10.225 18.265 35.137 23.426 55.758 1.535 6.132 2.705 36.594 1.751 45.493-3.498 32.63-23.168 69.303-47.803 89.114-9.163 7.37-21.27 15.025-30.44 19.263-4.312 1.992-8.447 3.623-9.194 3.623-.911 0-1.36-1.274-1.36-3.865 0-3.837.053-3.89 7.247-7.089 32.851-14.606 61.082-48.731 70.14-84.792 4.066-16.19 4.638-48.453 1.117-63.247-3.46-14.542-12.042-34.593-19.738-46.117-3.784-5.667-3.833-5.857-2.291-8.84 1.035-2 1.952-2.966 3.046-2.86m-50.97 3.027c-.708-.709-30.43 30.152-29.89 31.037.252.412 2.247.745 4.443.745 3.558 0 4.143.354 5.356 3.25.748 1.788 1.7 3.594 2.114 4.006 1.003.997 1.065.98 4.472-.782 2.658-1.375 3.257-1.367 6.045.074 1.7.88 3.362 1.332 3.688 1.006s.934-5.87 1.351-12.323c.417-6.452 1.235-15.054 1.826-19.123.59-4.07.862-7.624.596-7.89m19.636 5.97c-1.823-.174-3.961.212-4.75.867-1.898 1.575-1.833 5.414.13 7.377 3.61 3.61 8.766.82 8.262-4.47-.295-3.103-.666-3.488-3.642-3.773m-492.208 3.233a5.4 5.4 0 0 1 1.649.457c2.626 1.196 3.306 5.793 1.173 7.926-.66.66-2.703 1.202-4.536 1.202-2.537 0-3.535-.541-4.182-2.254-1.47-3.895 2.06-7.76 5.896-7.331m56.522 1.62c1.607.238 3.171 1.065 4.042 2.395 1.813 2.767.817 5.767-2.505 7.545-2.406 1.287-2.181 1.314-4.816-.531-2.449-1.715-3.014-6.255-1.025-8.244 1.047-1.046 2.696-1.402 4.304-1.164m175.219 4.397c-4.343.202-6.656 6.094-2.496 9.008 4.548 3.186 8.14 1.028 7.591-4.555-.248-2.528-.929-3.438-3.12-4.164a5.5 5.5 0 0 0-1.975-.289m-191.995 8.56c2.623 0 3.519.531 4.266 2.497 1.229 3.232.332 5.436-2.692 6.585-4.76 1.81-7.303.39-7.303-4.08 0-3.492 1.73-5.001 5.729-5.001m218.886.215c-.665.068-1.394.276-2.18.633-2.975 1.356-3.164 4.427-.437 7.154 2.472 2.472 3.186 2.49 6.11.121 2.06-1.668 2.186-2.183 1.118-4.527-1.13-2.48-2.614-3.586-4.61-3.381m-276.33.792c1.827 0 3.858.541 4.518 1.201 1.767 1.767 1.455 5.254-.634 7.144-4.695 4.25-10.949-.136-8.346-5.85.882-1.935 1.89-2.495 4.462-2.495m530.985 5.188c1.897-.365 14.076 7.822 15.547 10.451.9 1.609-.68 11.238-2.73 16.627-1.504 3.957-3.702 3.398-11.335-2.85-7.653-6.265-7.91-7.194-4.919-17.903 1.14-4.084 2.234-6.093 3.437-6.325m-295.956 1.984c-2.372.272-2.861.844-3.13 3.642-.175 1.823.221 3.961.876 4.75 1.449 1.746 5.105 1.872 6.744.233 1.651-1.652 1.505-6.299-.243-7.75-.791-.657-2.701-1.052-4.247-.875m-195.684 6.12c1.016.217 1.976.714 2.72 1.537 2.151 2.377 2.092 4.457-.177 6.51-3.775 3.418-9.175 1.237-9.175-3.707 0-3.137 3.585-4.994 6.632-4.34m70.056 1.648c.264.138.509.555.708 1.304 2.304 8.658 5.647 17.764 9.688 26.417 2.707 5.797 4.918 11.06 4.918 11.69-.004.63-3.263 2.92-7.238 5.086-7.775 4.235-16.757 12.385-16.757 15.201 0 2.498 8.544 10.289 15.751 14.364 3.405 1.925 6.197 3.975 6.213 4.555s-1.32 3.179-2.971 5.784c-3.688 5.815-7.484 13.244-9.37 18.331a568 568 0 0 1-3.596 9.324c-4.002 10.105-5.138 9.08-5.263-4.769-.064-7.1.389-10.949 1.677-14.233.97-2.475 1.99-5.927 2.263-7.675.456-2.924.147-3.355-3.856-5.393-6.5-3.31-18.853-13.128-18.853-14.987 0-5.035 13.353-20.198 22.131-25.132 4.567-2.566 5.349-4.68 4.006-10.842-1.677-7.685-2.393-17.735-1.677-23.464.475-3.801 1.436-5.973 2.226-5.56m362.184 4.062c-1.798-.151-3.69.215-4.666 1.192-1.712 1.712-1.483 7.376.372 9.23 1.992 1.993 4.371 2.001 7.2.02 2.394-1.677 2.906-5.314 1.193-8.514-.593-1.109-2.3-1.778-4.099-1.928m44.376 1.602c.745-.136 1.387.716 2.59 3.074 1.072 2.103 3.149 7.382 4.61 11.736 11.772 35.077-1.021 74.801-32.09 99.668-3.377 2.703-6.409 4.918-6.743 4.918s-.615-1.699-.615-3.773c0-3.423.839-4.6 9.063-12.752 10.099-10.007 16.197-18.528 20.754-28.996 3.545-8.145 7.19-24.815 7.19-32.9 0-8.111-2.74-24.327-5.03-29.77-2.335-5.55-2.512-9.114-.53-10.758.296-.246.553-.402.8-.447m-395.876 4.499c.813-.573 3.453 1.459 8.188 5.896 4.402 4.125 10.413 9.676 13.357 12.333 4.497 4.057 5.13 5.037 3.968 6.129-1.86 1.748-10.93 2.743-13.161 1.443-2.364-1.376-5.553-6.724-9.585-16.086-2.569-5.963-3.58-9.143-2.767-9.715m328.204 2.394c-.777.206-1.594.619-2.44 1.248-3.362 2.5-3.81 5.57-1.192 8.187 2.694 2.695 4.613 2.605 7.582-.363 2.123-2.123 2.293-2.807 1.37-5.458-1.04-2.979-2.986-4.233-5.32-3.614m-236.463.94c3.513-.1 7.203.083 11.14.54 5.524.643 11.581 1.701 13.46 2.348 3.613 1.243 7.677 6.448 6.493 8.318-.386.61-4.653 1.374-9.483 1.695-4.83.322-9.264.883-9.855 1.248-2.277 1.408 1.858 2.384 10.135 2.394 4.675.005 12.485.772 17.353 1.705 10.286 1.971 11.959 3.498 11.457 10.479l-.307 4.331h-19.002c-16.223 0-19.002.22-19.002 1.5 0 1.265 2.514 1.531 16.002 1.658 17.337.163 24.81 1.343 28.13 4.462l2.124 2.002.643-2.561c.554-2.209 1.184-2.562 4.62-2.562 4.648 0 7.983 2.7 7.983 6.465 0 4.169-6.578 6.134-10.041 3-1.554-1.407-1.741-1.29-2.273 1.368-.535 2.674-1.005 2.947-5.887 3.447-2.916.298-11.529-.092-19.142-.876-10.073-1.036-14.893-1.149-17.707-.391-6.815 1.835-5.566 2.99 3.242 2.99 9.914.003 25.93 1.811 27.245 3.074.575.552.136 1.777-1.136 3.167-1.14 1.245-2.37 3.26-2.739 4.48-.908 2.998-5.564 4.179-19.058 4.853-12.858.643-15.807 1.132-14.987 2.46.33.533 4.813.968 9.967.968 11.174 0 12.782.958 12.314 7.368l-.298 4.136-6.502 2.124c-8.598 2.812-12.489 3.171-25 2.328-23.267-1.568-35.742-6.546-39.7-15.844-2.365-5.555-4.297-18.943-4.276-29.612.033-16.614 4.887-27.266 15.528-34.073 9.097-5.82 18.021-8.69 28.559-8.989m-191.613.56c5.275 0 7.312 4.061 3.68 7.349-3.612 3.267-9.176 1.537-9.176-2.85 0-2.956 1.884-4.5 5.496-4.5m76.53.213c2.28-.21 3.257.438 4.014 1.854 1.934 3.613-.873 6.11-11.15 9.902-10.197 3.763-31.403 13.912-42.102 20.157-3.689 2.153-13.134 8.34-20.995 13.748-7.861 5.41-15.355 10.392-16.655 11.075l-2.366 1.24 1.788-3.019c3.05-5.163 25.744-25.267 35.443-31.4 12.379-7.827 30.433-16.933 40.156-20.24 5.992-2.04 9.586-3.106 11.867-3.317m582.197 1.891c1.508.02 3.647 2.036 7.639 6.912 4.284 5.233 4.35 5.422 3.725 10.945-.35 3.09-.641 45.07-.642 93.287-.003 77.666-.18 87.84-1.547 89.207-2.08 2.069-8.763 2.01-10.516-.103-1.875-2.253-1.87-197.762 0-199.633.407-.407.839-.62 1.341-.615m-427.853.913c5.082.024 8.132 2.09 8.132 5.515 0 2.874-.167 2.978-5.197 3.269-4.934.285-5.286.141-6.819-2.822-2.017-3.901-.66-5.983 3.884-5.962m215.524 1.984c-.453 0-1.355 1.008-2.002 2.245-1.143 2.185-18.168 27.93-21.536 32.564l-1.676 2.301 5.16-.68 5.15-.69 1.51 3.596c2.239 5.36 1.903 7.406-1.5 9.166-3.46 1.789-4.058 5.67-1.341 8.672.91 1.006 2.652 1.826 3.875 1.826 3.607 0 4.803-2.382 4.052-8.048-.557-4.196-.314-5.525 1.444-7.992 2.37-3.33 5.385-3.805 8.168-1.286 3.238 2.93 3.988.466 2.394-7.861-.795-4.155-1.768-13.468-2.16-20.688s-1.084-13.125-1.538-13.125m19.403 6.996c-5.79 0-8.619 7.265-4.07 10.45 2.724 1.909 2.827 1.905 5.44.075 4.579-3.207 3.627-10.525-1.37-10.525m-325.875 3.241a6.6 6.6 0 0 1 2.086.177c2.99.75 3.687 3.028 2.468 8.085-.53 2.2-1.247 10.98-1.592 19.505-.522 12.882-.342 16.512 1.062 21.499 3.223 11.45 3.366 12.372 2.188 13.907-1.482 1.931-5.577 2.741-8.262 1.63-6.239-2.583-10.376-16.194-10.376-34.148 0-6.485.49-14.047 1.08-16.804 1.68-7.83 6.478-13.486 11.346-13.85m-156.87.745c2.389-.273 4.998.774 5.906 3.372.858 2.454.67 3.122-1.341 4.75-1.288 1.043-3.155 1.892-4.155 1.892-2.515 0-4.964-2.687-4.964-5.45 0-2.701 2.166-4.29 4.554-4.564m543.15 4.648c.483.073.936.452 1.557 1.155 2.433 2.76 8.918 16.316 8.401 17.568-.26.629-3.26 4.405-6.669 8.393-3.41 3.987-6.552 7.256-6.977 7.256s-1.269-.603-1.881-1.342c-1.69-2.035-7.135-15.67-7.135-17.865 0-1.967 7.821-12.276 11-14.503.718-.503 1.223-.734 1.705-.662m-275.892 1.77c4.089-.534 8.412 3.968 6.828 8.095-.665 1.731-6.188 2-8.886.428-2.514-1.464-2.302-6.562.335-7.973a5 5 0 0 1 1.723-.55m-130.2 7.601c1.966 0 2.455.44 2.207 1.984-.222 1.38-3.203 3.445-9.753 6.753-11.47 5.793-12.753 7.427-8.56 10.843 1.65 1.344 5.47 3.16 8.495 4.042 9.763 2.846 10.215 3.118 9.007 5.375-.59 1.102-1.623 1.938-2.291 1.863-13.195-1.48-32.834-11.79-31.092-16.33 1.555-4.052 24.62-14.53 31.986-14.53m-153.796 2.077c3.098-.686 6.185 1.18 6.185 4.592 0 1.498-.988 2.795-2.897 3.782-2.677 1.384-3.104 1.34-5.505-.55-3.07-2.415-3.257-3.993-.764-6.25.922-.834 1.948-1.345 2.98-1.574m308.243 1.053a3.24 3.24 0 0 0-1.882.521c-2.351 1.472-2.682 6.135-.596 8.44 3.424 3.783 7.424 1.731 7.424-3.81 0-2.6-.563-3.58-2.58-4.5-.912-.415-1.68-.63-2.366-.651m-217.713 9.873c1.264 0 .636 2.83-1.76 8.002-2.193 4.73-3.311 5.76-12.25 11.196-23.26 14.145-34.736 23.01-52.45 40.519l-11.626 11.485-6.408.522c-5.198.417-6.671.191-7.797-1.165-1.234-1.487-.57-2.46 6.027-8.877 20.228-19.669 53.529-44.44 76.008-56.53 5.275-2.838 9.893-5.152 10.256-5.152m62.203.27c1.188.246 2.077 1.1 2.273 2.478.267 1.88-.14 2.249-2.496 2.236-1.551-.009-3.497-.473-4.322-1.025-1.295-.867-1.227-1.213.493-2.524 1.382-1.053 2.865-1.41 4.052-1.165m-57.546 18.099c.887.137 1.677.5 2.506 1.043 1.37.899 2.496 2.022 2.496 2.496s-3.269 2.796-7.256 5.17c-17.472 10.402-29.045 19.299-44.245 33.99-6.484 6.267-10.122 9.009-13.003 9.808-5.647 1.566-10.444 1.412-11.122-.354-1.867-4.865 31.28-32.198 56.121-46.275 8.279-4.692 11.84-6.289 14.503-5.878m352.814 1.816c-3.056-.353-6.472 3.649-5.43 6.362.431 1.126 1.662 1.48 4.358 1.258 3.57-.295 3.754-.486 3.754-3.81 0-3.055-.337-3.539-2.682-3.81m-302.999 3.596 6.343 1.37c5.708 1.23 6.344 1.615 6.344 3.837 0 1.981-1.683 3.601-8.505 8.206-4.675 3.156-11.049 8.227-14.167 11.27-3.119 3.044-5.983 5.534-6.362 5.534-2.593 0 8.074-22.206 12.929-26.91zm322.569 2.273c-.732-.728-3.899 3.225-7.135 8.904-1.422 2.496-5.714 9.842-9.539 16.33-3.824 6.486-6.673 12.076-6.334 12.416s1.736.105 3.111-.522c3.213-1.464 6.61-.205 8.905 3.297 1.65 2.519 1.873 2.582 3.931 1.081 3.814-2.781 4.859-2.92 8.309-1.062 1.856 1 3.592 1.605 3.856 1.341.264-.263-.178-3.602-.987-7.414-.81-3.812-1.943-12.977-2.515-20.371-.573-7.395-1.295-13.695-1.602-14m84.102 1.23c2.117-.065 2.482 2.676 2.497 10.87l.018 8.653-7.982 5.113c-4.392 2.817-8.608 5.362-9.371 5.655-2.061.79-2.645-1.777-2.645-11.635v-8.886l5.672-3.623c3.122-1.997 7.203-4.357 9.063-5.244 1.146-.547 2.043-.882 2.748-.904m-443.157 1.182c.788.149 1.54.438 2.087.838 1.798 1.316 1.821 1.644.382 5.3-1.276 3.24-2.948 4.735-9.939 8.896-11.891 7.077-19.565 12.488-28.55 20.139-4.294 3.656-9.258 7.256-11.028 8-4.198 1.766-8.42 1.72-10.843-.12-1.851-1.407-1.566-1.834 6.064-9.25 7.307-7.101 12.849-11.63 27.022-22.076 5.459-4.023 18.47-10.805 22.477-11.718.714-.162 1.54-.157 2.328-.009m158.043.531c5.396 0 7.476 4.014 3.8 7.34-1.005.91-2.966 1.658-4.35 1.658-2.523 0-5.821-2.7-5.821-4.76 0-2.127 3.177-4.238 6.371-4.238m218.961 1.872c-1.657-.212-3.459.464-4.778 2.348-2.057 2.937-1.96 4.374.447 6.78 3.401 3.402 7.36 2.39 8.504-2.17.95-3.784-1.411-6.603-4.173-6.958m-185.782 4.127c-5.51 0-7.476 7.25-2.617 9.66 2.824 1.4 5.433.397 7.116-2.749 1.495-2.793-1.185-6.911-4.499-6.911m437.95 2.002c-14.954 0-15.832.382-15.313 6.679l.307 3.82 10.507.577c5.775.317 12.522.535 14.997.493l4.499-.074.317-4.322c.493-6.855-.195-7.173-15.314-7.173m-631.22 11.476c.39-.035.7.005.903.13.45.279.82 1.991.82 3.8 0 2.969-.892 3.967-9.036 10.191-4.965 3.795-10.477 7.692-12.249 8.654-4.453 2.416-11.718 1.981-11.718-.699 0-3.956 25.425-21.546 31.28-22.076m193.81 1.258c-1.065-.044-2.041 2.526-2.608 7.405-.386 3.327-2.452 11.517-4.592 18.2-3.897 12.174-4.54 15.138-3.139 14.466a438 438 0 0 0 4.527-2.282l3.772-1.918 2.711 2.7 2.71 2.711 2.814-3.008c3.2-3.424 2.923-3.354 8.057-1.928 2.114.587 4.084.824 4.378.53s-1.504-3.815-3.996-7.824c-4.79-7.706-10.647-19.744-12.687-26.081-.636-1.977-1.307-2.945-1.946-2.971m21.22 2.524c-1.334-.195-2.678.426-3.717 1.91-2.018 2.88-2.013 4.274.028 6.315 2.017 2.017 6.306 1.605 7.778-.745.834-1.333.724-2.422-.438-4.5-.996-1.78-2.318-2.785-3.652-2.98m-39.812 1.742c-2.039 0-4.499 2.868-4.499 5.244 0 1.155.748 2.916 1.658 3.921.91 1.006 2.032 1.835 2.497 1.835 1.581 0 4.843-3.998 4.843-5.933 0-2.23-2.52-5.067-4.499-5.067m449.64 4.722c-2.718.008-4.82.097-5.644.261-2.728.543-3 .955-3 4.555 0 3.737.198 3.994 3.503 4.592 1.925.349 8.68.576 15.006.503l11.494-.14v-8.998l-11.997-.55c-3.3-.152-6.643-.23-9.362-.223m-623.75 6.278c1.874 0 3.302 4.709 1.862 6.148-.553.553-2.857 1.253-5.113 1.556-3.246.435-4.234.205-4.741-1.118-.354-.92-.476-1.802-.27-1.956 3.701-2.782 7.004-4.63 8.262-4.63m415.538 3.456c1.913-.002 3.305.075 3.717.233 1.896.728 1.403 2.757-3.092 12.621l-3.503 7.685h-4.88c-2.684 0-7.633.29-11.001.643-8.11.847-8.57-.414-3.642-9.911 5.47-10.54 5.207-10.348 15.574-11.02 2.49-.16 4.915-.249 6.827-.25m-65.23 4.602c-1.155-.138-2.503.359-3.866 1.592-2.245 2.032-2.349 4.684-.261 6.772 3.18 3.18 7.433 1.562 7.433-2.831 0-3.305-1.383-5.303-3.307-5.533m-391.684 4.191c2.137.103 4.332.7 5.356 1.724 1.469 1.469 1.817 196.887.354 198.775-1.69 2.18-4.204 1.368-8.095-2.617l-3.782-3.866-.111-95.56c-.096-80.426.11-95.82 1.285-97.235.778-.938 2.856-1.323 4.993-1.22m671.488 1.78c-14.69 0-15.5.256-15.5 4.964 0 4.866 1.295 5.814 8.533 6.25 3.28.198 6.56.223 7.293.056s4.448-.298 8.253-.298h6.92v-4.89c0-5.993-.244-6.083-15.499-6.083m-354.108 4.526c1.79.056 3.177.214 3.716.503 1.64.878 1.891 2.21 1.891 10.004 0 8.73-.08 9.01-2.57 9.958-2.535.963-10.815 1.111-15.183.27-3.452-.665-4.486-3.688-3.894-11.392.292-3.796.764-7.284 1.053-7.75.616-.997 9.616-1.76 14.987-1.593m-358.933 2.44c-6.925 0-13.458.465-14.522 1.035-2.234 1.196-2.73 7.776-.736 9.77.817.817 5.572 1.193 14.885 1.193h13.693l.633-3.372c.349-1.857.186-4.556-.363-5.998l-.997-2.627zm433.18 2.506c-.472 0-2.606 4.951-4.74 11.001-11.249 31.879-11.14 31.403-6.316 27.609 3.527-2.774 5.817-2.668 7.796.354 2.013 3.072 2.052 4.927.121 6.53-2.015 1.672-1.906 6.898.196 9.221 1.602 1.77 1.6 2.077-.121 5.272-2.216 4.116-3.611 4.746-7.526 3.381-1.654-.576-3.43-.895-3.94-.707-.511.187.945 3.552 3.232 7.489 2.286 3.936 6.634 12.364 9.66 18.722 3.024 6.358 5.78 11.57 6.128 11.588.686.035.684.052 3.689-13.963 1.12-5.225 3.182-13.08 4.573-17.456s2.357-8.122 2.152-8.327-2.23.674-4.499 1.956l-4.126 2.328-2.934-3.502c-3.513-4.19-3.547-4.473-.97-7.75 2.146-2.726 1.913-5.42-.726-8.43-1.71-1.949-1.062-4.81 1.64-7.256 1.774-1.605 2.117-1.585 6.063.429 2.966 1.513 4.076 1.742 3.838.782-.184-.744-2.242-7.188-4.583-14.316-2.34-7.129-5.048-15.656-6.008-18.956-.959-3.3-2.125-5.999-2.598-5.999m19.617 2.58c-1.408.14-2.806.87-3.698 2.143-1.993 2.846-1.972 4.666.094 6.949 2.029 2.242 3.716 2.31 5.775.251 2.237-2.237 3.017-6.186 1.565-7.936-.909-1.094-2.327-1.546-3.736-1.406m-39.475.243c-3.235.245-5.815 4.445-3.4 8.131 3.03 4.624 8.616 2.52 8.616-3.241 0-1.05-.868-2.691-1.928-3.651-1.064-.963-2.21-1.321-3.288-1.24m-133.098 3.195c-.663.08-1.395.37-2.18.885-2.692 1.763-3.24 4.453-1.304 6.39 2.622 2.621 6.8.919 6.8-2.776 0-3.092-1.33-4.74-3.316-4.5m439.263 4.648a218 218 0 0 0-9.445.028l-12.007.307-.298 4.76c-.268 4.178-.03 4.876 1.994 5.7 1.267.517 8.154.847 15.304.736l13.003-.204.298-5.189c.299-5.168.284-5.202-3-5.803-.907-.166-3.076-.28-5.849-.335m-439.897 7.023c-.66-.07-1.191.706-2.04 2.291-1.78 3.327-3.957 3.856-8.346 2.022-3.522-1.472-3.66-1.454-3.66.521 0 1.13.906 3.841 2.02 6.027 1.116 2.186 3.172 8.357 4.565 13.711s3.19 12.1 3.996 14.988c.807 2.887 1.704 5.244 1.994 5.244.678 0 5.413-10.666 5.449-12.277.015-.672 2.296-6.399 5.067-12.724 5.935-13.546 7.044-16.79 5.952-17.465-.445-.275-1.946.389-3.335 1.481-3.545 2.789-6.288 2.473-8.867-1.015-1.346-1.82-2.135-2.733-2.795-2.804m-282.692.904c-13.483-.111-13.526-.08-12.473 6.427l.643 3.977 12.482.55c6.867.3 12.634.633 12.808.745s1.172-.256 2.226-.82c1.503-.804 1.86-1.93 1.64-5.216-.353-5.266-1.146-5.53-17.326-5.663m386.123 3.195c4.661-.12 9.243.068 9.957.66.985.818 1.408 3.968 1.481 11.095l.103 9.957h-10.843c-5.963 0-11.146-.304-11.513-.67-1.11-1.11-.763-19.152.382-19.86 1.031-.637 5.771-1.064 10.433-1.182m-55.069.912c5.656-.21 8.15.08 8.737 1.006 1.306 2.058 1.016 17.223-.353 18.593-1.31 1.309-14.371 1.694-15.137.447-.253-.413-.619-5.022-.81-10.247l-.354-9.5zm387.297 8.952c-2.773-.06-5.731-.06-8.207.028l-9.007.316-.316 3.885c-.176 2.135.187 4.387.8 5.002.614.615 4.357 1.389 8.319 1.723 3.961.334 10.355.562 14.205.503l6.995-.112.298-5.17.298-5.16-6.297-.652c-1.732-.179-4.315-.302-7.088-.363m-715.957 8.066c-11.402-.214-14.78.02-14.857 1.006-.196 2.472.3 8.286.773 9.054.263.427 6.865.646 14.661.494l14.168-.28v-9.994zm261.65 9.976c-.834.202-1.71.674-2.57 1.454-2.27 2.053-2.329 4.143-.178 6.52 3.13 3.459 7.35 1.643 7.35-3.167 0-3.545-2.1-5.412-4.602-4.807m93.52 1.016c7.661-.211 10.633.05 11.233.996 1.308 2.061 1.016 18.22-.354 19.59-1.24 1.24-8.746 1.371-16.803.297l-4.5-.596v-19.999zm-56.792.177c-.743-.128-1.447-.058-1.984.28-2.528 1.586-3.749 5.9-2.198 7.768 2.724 3.282 9.054.848 9.054-3.484 0-2.019-2.643-4.181-4.872-4.564m415.371 2.114c-14.986 0-15-.002-15.332 2.348-.183 1.293-.06 3.43.27 4.75.6 2.386.665 2.394 14.457 2.394 15.42 0 16.473-.41 15.919-6.185l-.317-3.307zm-728.997 6.995-.326 3.391c-.178 1.864-.06 4.462.27 5.775l.605 2.385 14.717-.27 14.727-.28v-11h-29.993m246.458 1.118c1.839-.025 3.196.096 3.586.42.936.776.528 2.795-1.76 8.737-1.637 4.248-3.33 8.095-3.764 8.55-.433.457-2.528 1.21-4.657 1.668-8.901 1.91-16.335 2.257-16.897.792-.577-1.503 4.934-15.495 6.874-17.456 1.228-1.241 11.1-2.636 16.618-2.71m48.716 6.558c-3.21.268-6.155 4.336-3.624 7.386 2.026 2.442 6.25 1.398 7.378-1.825.75-2.15.602-3.124-.653-4.378-.933-.934-2.032-1.272-3.101-1.183m451.968 11.02c6.101-.507 7.672 1.083 4.928 5.001-3.233 4.615-17.005 17.982-26.314 25.541-18.915 15.358-20.863 16.721-41.097 28.699-6.233 3.69-13.338 7.565-15.788 8.616-5.023 2.153-5.349 1.862-5.058-4.527.17-3.753.498-4.152 5.84-7.005 11.374-6.073 32.751-19.902 41.432-26.808 4.898-3.896 13.819-12.033 19.822-18.08 10.801-10.88 10.97-11.001 16.235-11.438m-49.46.25c2.885-.217 5.812.585 5.812 1.938 0 4.427-34.17 28.087-52.582 36.411-9.804 4.433-10.68 4.304-9.38-1.462.998-4.424.94-4.367 9.464-8.942 3.85-2.067 9.028-5.013 11.503-6.54 2.476-1.525 7.645-4.665 11.495-6.976s9.475-6.125 12.5-8.476 6.813-4.768 8.42-5.375c.842-.317 1.805-.505 2.767-.577m-443.065.131c.482.298.876 1.621.876 2.943 0 1.739-1.731 3.818-6.25 7.508-11.418 9.324-20.018 20.905-25.979 34.977-5.48 12.937-6.836 19.146-7.47 34.204-.664 15.754.338 22.58 4.936 33.672 2.367 5.71 2.856 7.957 2.161 9.92-1.883 5.328-4.686 2.968-8.327-7.014-9.876-27.078-6.027-61.475 9.715-86.785 6.653-10.696 27.666-31.076 30.338-29.425m393.342.42c3.043 0 5.533.419 5.533.921 0 .503-1.883 2.299-4.191 3.996-5.06 3.72-5.54 3.767-6.959.652-1.917-4.209-.553-5.57 5.617-5.57m18.834 0h7.35c4.042 0 7.35.406 7.35.903 0 .85-4.796 4.25-14.914 10.572-2.426 1.516-7.91 4.505-12.193 6.641-8.745 4.364-9.692 4.57-10.581 2.255-1.001-2.609.713-4.385 12.183-12.613zm48.512 0h7.656c5.857 0 7.474.3 6.902 1.257-3.049 5.098-13.872 15.392-24.842 23.631-17.548 13.18-20.304 14.977-33.71 22.03-6.359 3.345-12.627 6.082-13.935 6.082-2.682-.004-8.877-3.448-8.877-4.937 0-.536 3.041-2.51 6.763-4.378 15.405-7.731 41.375-25.898 53.383-37.343zm-702.703.223-12.602.28-.317 4.824c-.172 2.702.215 5.455.876 6.25 1.556 1.876 26.886 2.073 28.735.224.66-.66 1.202-3.145 1.202-5.524 0-3.754-.353-4.456-2.645-5.328-1.453-.552-8.314-.88-15.249-.726m282.05.28-3.092 2.952c-3.048 2.908-3.15 2.935-5.99 1.257-4.824-2.85-6.265-2.32-5.533 2.04.346 2.063 1.02 5.104 1.5 6.754 1.1 3.787 2.943 23.99 2.953 32.247.002 3.438.425 6.25.94 6.25.516 0 4.118-6.558 8.002-14.577s8.574-16.914 10.423-19.757c5.1-7.844 7.094-11.545 6.51-12.128-.29-.29-2.725.215-5.402 1.128-4.605 1.569-4.918 1.563-5.915-.121-.579-.98-1.81-2.74-2.729-3.913zm176.374 7.498c-4.227 0-7.262 6.868-4.331 9.799 1.335 1.335 4.707 1.567 6.399.437.605-.404 1.648-1.78 2.32-3.055 1.624-3.084-.88-7.181-4.388-7.181m-37.035 1.006c-2.83 0-4.5 1.848-4.5 4.992 0 1.43.542 3.14 1.202 3.8s2.143 1.202 3.298 1.202c2.83 0 4.508-1.857 4.508-5.002s-1.678-4.992-4.508-4.992m194.305 2.999c.156.187.195.592.195 1.155 0 2.912-7.065 17.795-12.407 26.137-2.042 3.189-4.836 6.23-6.213 6.753-2.684 1.02-11.901 1.164-14.372.224-.825-.314-1.832-1.063-2.236-1.668-1.776-2.66-.486-4.63 5.384-8.197 6.68-4.057 12.62-8.986 23.1-19.178 4.578-4.452 6.08-5.788 6.549-5.226m7.452 3c1.588 0 .247 17.8-1.733 22.997-3.662 9.616-3.843 9.216 6.846 14.978 10.641 5.737 15.096 9.99 14.019 13.386-2.263 7.138-8.25 13.02-19.076 18.74-7.962 4.207-8.412 5.413-5.347 14.299 1.375 3.985 2.04 8.466 2.04 13.758 0 4.314-.418 7.843-.922 7.843-.505 0-1.69-2.138-2.637-4.75-2.989-8.25-5.979-14.539-10.274-21.602-2.29-3.766-3.932-7.22-3.651-7.675s2.193-1.374 4.248-2.04c11.545-3.74 23.23-12.965 23.23-18.331 0-3.258-7.107-9.449-15.388-13.404-3.521-1.682-6.68-3.516-7.023-4.07s1.603-5.2 4.332-10.321c2.728-5.122 6.167-12.574 7.638-16.562 1.47-3.987 3.136-7.247 3.698-7.247m-424.891.567c1.213-.32 1.65.093 2.291.97.874 1.194 1.35 4.75 1.35 10.087 0 9.312-.047 9.368-10.72 14.745-5.748 2.896-8.142 3.275-8.728 1.379-1.123-3.63-1.287-16.721-.224-18.034.642-.792 4.727-3.368 9.073-5.728 3.754-2.04 5.744-3.098 6.958-3.419m-181.358 5.375-14.754.28-14.745.279-.317 4.36c-.172 2.4-.078 4.994.214 5.756.42 1.092 3.61 1.378 15.071 1.378h14.531zm423.755 4.527a4.9 4.9 0 0 0-1.826.568c-2.734 1.464-2.564 6.404.289 8.402 2.893 2.027 4.104 1.963 6.175-.326 3.23-3.57-.416-9.069-4.638-8.644m75.738.046c17.17-.016 24.844 1.383 31.27 5.72 5.719 3.86 6.66 5.61 9.24 17.13 1.87 8.351 2.15 12.027 1.797 23.994-.388 13.196-.634 14.643-3.633 21.713-1.766 4.165-4.66 8.976-6.436 10.693-4.364 4.22-12.938 7.985-22.225 9.762-4.225.808-8.657 1.42-9.846 1.36-5.226-.265-27.438-4.236-28.028-5.011-2.182-2.87-4.638-8.102-4.638-9.893 0-2.265.075-2.278 9.752-1.63 5.363.36 11.72.939 14.13 1.295 3.486.515 4.29.366 3.922-.736-.605-1.814-12.468-3.927-33.16-5.905-5.423-.519-10.654-1.192-11.625-1.5-2.076-.659-5.478-8.87-4.61-11.131.642-1.675 8.088-1.503 29.517.698q9.425.97 10.433-.037c2.256-2.256 1.438-2.413-21.359-4.042-22.087-1.58-21.843-1.499-24.078-7.424-3.037-8.05-3.274-7.983 23.324-7.172 14.165.43 22.756.338 22.756-.252 0-1.216-8.497-2.174-22.812-2.562-6.526-.176-11.777-.776-12.417-1.415-.81-.811-.775-2.593.13-6.642.977-4.361 1.702-5.626 3.42-5.98 1.197-.247 9.828-.734 19.178-1.09 9.35-.355 17.216-.855 17.475-1.108 1.345-1.314-3.416-2.324-11.029-2.338-5.313-.01-9.16-.491-10.144-1.267-1.89-1.49-2.923-7.561-1.686-9.93 1.605-3.07 14.723-5.284 31.382-5.3m-258.912 6.81c-3.123.455-5.145 3.889-3 7.163 1.779 2.714 3.456 3.092 6.484 1.471 2.67-1.429 2.604-6.534-.103-7.982-1.17-.627-2.34-.804-3.381-.652m220.973 1.117c.645.248 1.192.785 1.816 1.677 1.363 1.945 1.398 2.586.252 4.313-1.556 2.342-6.664 3.682-9.017 2.366-3.556-1.99-.844-6.96 4.527-8.3 1.03-.257 1.776-.303 2.422-.056m88.22 2.748c1.425.307 2.925 1.315 4.676 3.065 4.138 4.138 5.72 12.301 5.653 29.21-.058 14.79-.784 20.11-3.306 24.284-1.662 2.751-2.543 3.251-5.757 3.251-5.81 0-6.393-1.367-5.095-12.044 1.219-10.024.577-32.452-1.155-40.37-.951-4.349-.865-5.065.755-6.25 1.45-1.061 2.803-1.453 4.228-1.146m-272.847 3.782c-1.052.129-2.02.52-2.73 1.23-1.682 1.682-1.492 5.363.373 7.228 3.284 3.284 9.427.642 9.427-4.052 0-2.822-3.915-4.793-7.07-4.406m165.569 5.626c6.393 0 9.552 6.738 5.188 11.075-2.122 2.11-7.98 2.563-10.442.81-5.074-3.614-1.417-11.885 5.254-11.885m262.498 7.461c0 2.16-27.817 28.242-36.001 33.757-9.642 6.496-22.442 12.983-38.498 19.514-6.05 2.461-12.906 4.785-15.24 5.16-3.998.644-4.303.523-5.327-2.151-.625-1.633-.724-3.424-.233-4.21.469-.752 6.915-3.493 14.326-6.092 24.581-8.622 47.723-21.573 72.73-40.706 4.537-3.471 8.243-5.84 8.243-5.272m22.01.103c-.543.183-8.981 8.258-18.75 17.94s-20.909 20.2-24.758 23.37-7.457 6.323-8.011 7.005c-1.54 1.896-21.055 17.287-36.914 29.435h44.105c12.241-10.374 20.038-17.306 30.57-27.702l14.746-14.56v-17.911c0-11.364-.36-17.789-.987-17.577m-158.396.959c1.265-.156 3.445-.106 7.135.084 6.908.356 10.333 1.12 16.254 3.623 9.825 4.154 13.482 7.06 12.556 9.976-.916 2.887-7.395 7.186-16.058 10.656-10.544 4.224-26.116 4.771-21.238.746.682-.563 4.166-2.008 7.74-3.205 9.82-3.287 16.004-6.92 15.994-9.408-.013-3.86-8.038-7.767-18.741-9.119-3.754-.474-5.254-1.095-5.254-2.189 0-.644.347-1.008 1.612-1.164m-611.362 2.543c-.992-.481-1.248 9.893-1.248 50.178v24.07h72.952c-6.936-7.28-12.281-12.978-22.43-23.418-16.038-16.5-33.402-34.547-38.59-40.109s-9.997-10.388-10.684-10.721m205.948 4.35c1.765-.013 8.848 10.918 9.082 14.019.069.915-2.102 5.554-4.825 10.311-2.79 4.874-5.62 8.653-6.474 8.653-1.457.003-9.873-11.812-10.665-14.968-.212-.844 1.207-3.78 3.158-6.53s4.553-6.454 5.784-8.234c1.232-1.78 3.004-3.241 3.94-3.251m90.008 1.202c-.652-.284-1.31.204-2.254 1.34-2.911 3.509-4.9 3.72-8.579.914-1.926-1.47-3.762-2.414-4.08-2.096-.317.317-.06 3.139.569 6.269.628 3.13 1.136 13.939 1.136 24.022 0 10.133.4 18.332.894 18.332 1.038 0 5.205-6.499 10.572-16.497 2.067-3.85 6.63-11.386 10.144-16.738 7.756-11.814 8.17-13.566 2.394-10.265-4.281 2.447-6.73 1.874-8.57-2.003-.924-1.948-1.573-2.995-2.226-3.278m177.492 2.785c5.605 0 9.556 6.344 6.101 9.799-3.145 3.145-11.802-.656-11.802-5.18 0-3.123 1.854-4.62 5.701-4.62m139.376.633c1.034-.083 2.278-.062 3.717.084 5.944.604 6.353 2.002 1.145 3.884-4.86 1.757-7.618 1.666-8.364-.28-.834-2.173.402-3.438 3.502-3.688m-179.178.307c.209-.021.454.072.708.326.333.333.418 1.169.187 1.863-.34 1.02-.581 1.02-1.211 0-.626-1.012-.31-2.124.316-2.189m329.35 7.126a7.32 7.32 0 0 1 4.602 1.798c2.754 2.39 2.722 4.614-.075 6.576-6.157 4.303-14.34-1.905-8.942-6.79 1.21-1.096 2.796-1.622 4.415-1.584m-303.501 4.322q-.96-.124-2.161.177c-3.07.77-4.133 3.86-2.664 7.722.794 2.089 1.695 2.71 3.93 2.71 3.808 0 5.502-2.127 4.677-5.886-.645-2.933-1.864-4.475-3.782-4.723m286.8 11.84c4.808-.663 8.413 3.943 4.918 7.805-1.98 2.188-6.425 2.6-8.262.764-2.156-2.157-1.448-6.726 1.23-7.946a7.6 7.6 0 0 1 2.114-.624m-128.99.083c2.287-.087 3.089.462 4.75 2.254 3.686 3.975 11.227 17.27 13.143 23.166 3.074 9.458 1.726 9.39-7.21-.354-4.538-4.95-10.926-10.997-14.204-13.441-9.256-6.9-9.073-10.135.652-11.345 1.181-.148 2.106-.251 2.869-.28m-350.886 1.733c-2.04.053-3.67 1.926-3.67 5.104 0 1.565.756 3.184 1.751 3.763 2.31 1.343 3.24.977 5.617-2.207 1.93-2.585 1.937-2.72.159-4.686-1.254-1.385-2.632-2.006-3.857-1.974m235.14 10.6c1.035-.024 2.005.094 2.786.39 3.114 1.185 5.193 5.487 3.754 7.77-1.244 1.97-5.705 2.981-9.818 2.226-3.53-.65-5.902-4.464-4.452-7.173.95-1.774 4.63-3.142 7.73-3.213m269.187 2.095-4.248 3.922c-2.337 2.156-7.174 6.838-10.749 10.405-3.174 3.167-8.164 7.869-13.58 12.845h28.232c-.367-.793-1.134-.913-2.952-.913-1.815 0-3.84-.542-4.5-1.202-3.089-3.089.128-8.802 4.956-8.802h2.84zm-40.836.54c2.62-.322 5.32 1.03 5.645 4.36.184 1.88-.339 3.748-1.323 4.732-3.42 3.42-9.482 1.247-9.482-3.4 0-3.37 2.54-5.369 5.16-5.691m-425.673.793c-1.056.087-2.002.586-2.916 1.5-2.14 2.14-1.973 5.02.429 7.423 2.408 2.408 2.915 2.45 5.775.447 2.853-1.998 3.023-6.948.289-8.411-1.357-.726-2.52-1.047-3.577-.96m77.62.596-4.304 3.772c-2.367 2.076-6.699 6.315-9.622 9.417s-6.697 7.08-8.392 8.84c-1.547 1.605-2.25 2.447-2.394 3.214h9.93c.542-1.99 2.615-4.43 6.575-8.253 3.797-3.666 7.363-6.66 7.927-6.66 1.15 0 4.174 2.77 4.164 3.819-.003.373-1.57 2.396-3.493 4.49-1.922 2.093-3.493 4.213-3.493 4.713 0 .315.7 1.177 1.21 1.89h10.107c-.567-1.532.28-3.829 2.618-6.492 3.7-4.214 3.54-4.622-4.816-12.835zm-100.367 9.52a2.7 2.7 0 0 0-1.248.176c-2.306.885-2.912 3.476-1.453 6.204 1.433 2.678 2.927 3.062 4.76 1.23 2.454-2.454.73-7.322-2.059-7.61m432.855 4.2c4.591.305 7.278 5.602 3.577 8.952-1.006.91-3.264 1.658-5.02 1.658-6.236 0-6.768-8.872-.624-10.414a6.6 6.6 0 0 1 2.067-.196m-195.134 4.686c-1.405.026-2.821.664-3.94 1.9-1.528 1.688-1.595 2.393-.55 4.937h9.38c.962-1.603.65-3.257-1.005-5.086-1.082-1.195-2.48-1.778-3.885-1.751m-252.866.856c-1.07.069-1.51 2.103-1.621 5.98h18.266c-.249-.543-.48-.968-.764-1.676l-1.704-4.257-3.251 2.012c-4.09 2.528-5.74 2.528-8.02.01-1.264-1.398-2.21-2.113-2.906-2.069" style="fill:maroon;fill-opacity:1" transform="translate(-152.982 -13.834)scale(.15726)"/></g><g style="fill:maroon"><path d="M-26.845 90.822v129.995H103.15V90.822Zm2.3 2.3H100.85v125.396H-24.546Z" style="color:#000;fill:maroon;stroke-width:.811363;-inkscape-stroke:none" transform="translate(45.39 6.384)"/></g><g style="font-size:64px;font-family:NumbersDeuce;-inkscape-font-specification:NumbersDeuce;stroke-width:2.83465;fill:maroon"><path d="M-241.53-27.27h-3.776v-4.095h12.352v4.096h-3.136l-8.896 13.376 8.896 23.04h3.328v4.288h-12.992V9.147h4.8l-7.104-18.368-4.736 7.104V9.147h3.072v4.288h-11.712V9.147h3.904V-27.27h-3.904v-4.096h11.712v4.096h-3.072v17.216h.384zv-.064z" aria-label="K" style="fill:maroon" transform="translate(387.676 58.245)scale(1.42857)"/></g><path d="M3.676-9C.433-9 0-5.523 0-5.523S-.433-9-3.676-9C-5.946-9-8-7.441-8-4.5-8-.614-1.42 3.294 0 9 1.352 3.299 8-.614 8-4.5 8-7.441 5.946-9 3.676-9" style="fill:maroon;fill-opacity:1" transform="matrix(3.574 0 0 3.34493 119.072 45.438)"/><g style="clip-rule:nonzero;opacity:.198728;fill:#b3b3b3;fill-opacity:1;fill-rule:nonzero;stroke:#000;stroke-miterlimit:4;filter:url(#a)" transform="translate(0 .616)"><path d="M166.837 235.548c0 3.777-3.087 6.869-6.871 6.869H7.11c-3.775 0-6.861-3.092-6.861-6.87V7.12C.25 3.343 3.336.25 7.11.25h152.856c3.784 0 6.87 3.093 6.87 6.87z" style="fill:#b3b3b3;fill-opacity:1;stroke-width:.5"/></g></svg>