<svg xmlns="http://www.w3.org/2000/svg" xml:space="preserve" width="222.783" height="323.556" viewBox="0 0 167.087 242.667"><defs><filter id="a" width="1.147" height="1.101" x="-.074" y="-.051" style="color-interpolation-filters:sRGB"><feGaussianBlur in="SourceGraphic" result="result3" stdDeviation="4"/><feGaussianBlur in="SourceGraphic" result="result4" stdDeviation="1"/><feBlend in2="result3" mode="darken"/><feComponentTransfer result="result1"><feFuncR tableValues="0 0.2 0.4 0.6 0.8 1 1" type="discrete"/><feFuncG tableValues="0 0.2 0.4 0.6 0.8 1 1" type="discrete"/><feFuncB tableValues="0 0.2 0.4 0.6 0.8 1 1" type="discrete"/></feComponentTransfer><feTurbulence baseFrequency="1" numOctaves="7" result="result0" type="fractalNoise"/><feConvolveMatrix kernelMatrix="-2 0 -2 0 -10 0 -2 0 -2" order="3 3" result="result5"/><feColorMatrix in="result5" result="result4" type="saturate" values="0"/><feComposite in="result1" in2="result4" k1="1.5" k2=".5" k3=".5" operator="arithmetic" result="result2"/><feComposite in2="SourceGraphic" operator="in"/></filter></defs><g style="fill-rule:nonzero;clip-rule:nonzero;stroke:#000;stroke-miterlimit:4"><path d="M166.837 235.548c0 3.777-3.087 6.869-6.871 6.869H7.11c-3.775 0-6.861-3.092-6.861-6.87V7.12C.25 3.343 3.336.25 7.11.25h152.856c3.784 0 6.87 3.093 6.87 6.87z" style="fill:#fff;stroke-width:.5"/></g><path d="M3.676-9C.433-9 0-5.523 0-5.523S-.433-9-3.676-9C-5.946-9-8-7.441-8-4.5-8-.614-1.42 3.294 0 9 1.352 3.299 8-.614 8-4.5 8-7.441 5.946-9 3.676-9" style="fill:maroon;fill-opacity:1" transform="matrix(2.46042 0 0 2.30272 43.17 123.017)"/><g style="fill:maroon"><path d="m1716.862 639.65.056 36.548.046 36.538-4.48 3.676c-7.737 6.34-30.83 30.493-36.676 38.358a3269 3269 0 0 1-7.805 10.381c-5.244 6.959-12.06 17.19-19.811 29.713-1.472 2.378-5.144 9.487-8.156 15.803-14.843 31.125-25.158 65.064-29.592 97.34l-1.635 11.859-11.97 6.216c-6.585 3.42-15.578 8.265-19.978 10.77s-9.574 5.445-11.499 6.53c-26.283 14.802-27.813 15.728-53.782 32.769-39.762 26.093-78.002 55.59-109.402 84.372l-12.69 11.628-.065 144.435-.055 144.426 3.51-4.11c3.518-4.112 9.282-6.927 12.025-5.875.802.308 1.483 1.814 1.505 3.344l.037 2.78 1.496-2.753c1.238-2.28 2.16-2.743 5.422-2.743 2.736 0 4.204.529 4.83 1.746 1.4 2.721.357 4.128-3.934 5.283-2.174.586-3.747 1.397-3.491 1.81.896 1.45-.977 3.01-8.48 7.057-6.858 3.7-7.747 3.945-9.494 2.623-1.06-.803-2.266-1.47-2.678-1.487-.413-.018-.748 5.933-.748 13.226 0 12.177.158 13.363 1.995 14.51 1.6 1 2.004 2.325 2.004 6.668 0 6.245 1.236 10.101 4.276 13.347 1.178 1.257 3.285 4.39 4.683 6.964s4.392 6.043 6.659 7.712c3.788 2.788 4.263 3.662 5.837 10.788l.176.775h3.944c-.693-.802-1.57-1.399-1.561-2.973.025-4.23 1.483-5.393 7.656-6.078 7.44-.825 9.205-.326 9.994 2.817.65 2.59-1.648 4.669-5.588 6.235h19.59c-1.08-.693-2.482-.884-2.872-1.46-.848-1.249.97-4.192 7.158-11.563 12.962-15.44 23.37-33.276 29.758-51.002 7.438-20.638 9.543-31.91 12.321-66.002.606-7.425 1.96-20.476 3.002-29.001 1.043-8.525 2.152-18.426 2.466-22 .315-3.576.986-9.197 1.496-12.497 1.858-12.017 3.07-20.23 4.572-31.006 1.739-12.48 1.793-12.735 5.062-24.993 8.677-32.545 14.886-47.707 28.475-69.502 9.44-15.141 25.15-35.001 33.296-42.089 2.676-2.329 3.017-3.299 3.334-9.504.626-12.237.067-11.58 9.717-11.277l8.377.258 5.662-4.941c6.8-5.939 10.49-8.43 12.505-8.442 2.24-.012 9.892 4.271 10.511 5.884.296.772-.14 2.158-.98 3.085-.837.926-1.518 2.321-1.505 3.103s3.14 5.128 6.946 9.652 8.158 10.331 9.67 12.912l2.743 4.692-4.442 3.916c-8.915 7.85-17.292 13.752-19.516 13.752-1.264 0-3.194-1.158-4.332-2.604-2.401-3.053-2.05-3.97 3.87-10.17 4.838-5.066 4.873-4.932-4.295-14.657l-6.511-6.918-7.324 6.4c-4.03 3.52-11.949 11.035-17.586 16.7-10.89 10.943-12.245 13.73-8.1 16.634 4.781 3.349 19.858 18.79 19.858 20.338 0 2.179-9.745 19.738-12.174 21.936-1.45 1.312-2.497 1.492-4.507.776-4.832-1.722-5.114-3.703-1.552-10.927 1.776-3.6 3.233-6.955 3.233-7.453 0-1.158-14.606-10.058-16.505-10.058s-8.039 9.182-14.926 22.314c-7.831 14.934-9.769 20.078-8.266 21.945 1.37 1.702 7.836 5.166 18.943 10.15 7.096 3.185 7.75 3.726 7.75 6.392 0 4.109-5.508 25.909-7.002 27.708-1.574 1.898-7.41 1.936-9.282.065-1.085-1.085-1.23-2.566-.619-6.244 2.35-14.115 2.34-15.057-.212-15.867-8.233-2.613-17.387-4.29-18.472-3.39-1.926 1.598-7.822 29.887-8.996 43.142-.832 9.39-1.576 8.87 17.428 12.164 8.132 1.41 13.714 2.856 14.289 3.713 2.05 3.058-.962 28.269-3.602 30.147-1.904 1.354-6.209.781-7.86-1.044-1.321-1.459-1.51-3.089-1.007-8.47.732-7.839.908-7.701-12.155-9.614-9.89-1.448-10.104-1.246-10.982 10.714-.35 4.77-1.31 14.256-2.142 21.077-1.106 9.067-1.216 12.59-.398 13.096.616.381 5.707 1.479 11.315 2.439 17.264 2.956 19.656 3.622 20.836 5.828 1.116 2.084-.73 17.558-3.482 29.232-1.17 4.968-1.197 5.006-5.163 5.006h-3.99v-22.841l-10.27-1.94c-11.1-2.09-13.236-1.663-13.236 2.651 0 2.234-4.017 24.2-6.604 36.095-1.869 8.596-2.536 7.98 14.437 13.485 6.966 2.26 13.298 4.5 14.066 4.978 2.015 1.255.99 6.056-3.888 18.223-4.98 12.422-6.813 14.715-10.465 13.05-3.155-1.437-3.324-4.9-.526-11.064 3.226-7.11 2.886-7.85-5.413-11.684-4.067-1.88-8.848-3.538-10.621-3.685-3.212-.267-3.253-.216-10.89 14.962-4.215 8.379-8.206 15.78-8.876 16.45s-1.203 2.366-1.182 3.768c.042 2.753-.09 2.646 16.191 13.227 5.352 3.477 9.93 6.825 10.17 7.435.17.437-2.252 3.443-2.596 4.415h7.86c.587-1.315 4.96-6.86 4.784-7.316-.327-.853-2.927-2.747-5.772-4.211-7.106-3.655-18.822-11.641-20.052-13.67-.765-1.261-.053-3.829 2.89-10.501 6.863-15.556 9.25-17.78 14.52-13.513 2.089 1.692 2.157 2.102.988 5.755-.691 2.161-1.659 4.354-2.142 4.876-1.486 1.605-.97 6.157.877 7.786 2.031 1.792 15.712 8.765 17.198 8.765 1.477 0 4.35-6.1 10.437-22.176 6.626-17.504 9.083-25.778 7.961-26.803-.467-.427-7.137-2.63-14.824-4.904s-14.643-4.797-15.452-5.607c-1.259-1.259-1.295-2.603-.25-9.245 2.617-16.625 3.4-20.813 4.13-22.26.99-1.967 4.393-2.43 7.139-.96 2.11 1.13 2.167 1.564 1.524 11.518-.607 9.385-.504 10.427 1.154 11.314 2.87 1.536 18.366 5.291 19.71 4.775 1.23-.472 2.563-6.177 4.6-19.654a745 745 0 0 1 2.53-15.36c.766-4.323 1.386-10.457 1.386-13.633 0-6.752.46-6.477-13.587-7.98-11.836-1.266-19.108-2.862-20.809-4.562-1.468-1.469-1.355-5.216.536-18.463.59-4.125 1.526-8.06 2.088-8.747.56-.687 2.52-1.247 4.359-1.247 4.531 0 5.833 2.598 4.997 9.994-.876 7.745-.212 8.161 13.143 8.35l10.769.156 1.727-14.5c.947-7.976 2.023-18.17 2.392-22.648.65-7.876.596-8.177-1.718-9.42-1.314-.707-7.183-2.073-13.032-3.04-14.682-2.424-18.659-3.612-19.063-5.67-.38-1.934 2.29-17.77 4.424-26.221 1.373-5.442 1.435-5.504 5.422-5.8 6.245-.465 6.785.89 4.691 11.812-1.662 8.672-1.667 9.267-.055 10.446 1.729 1.264 10.948 2.758 18.121 2.937l3.907.102 1.238-6.004c.679-3.3 3.3-12.761 5.837-21.03s4.618-15.737 4.618-16.597c0-1.006-4.808-3.994-13.447-8.36-7.397-3.736-13.667-7.354-13.929-8.035-.642-1.674 12.447-27.378 14.538-28.548 2.11-1.181 4.595-.242 5.92 2.235.804 1.502.337 3.427-2.124 8.765-3.554 7.711-3.544 9.958.046 11.748 11.09 5.53 15.438 7.365 16.46 6.973.652-.25 2.803-3.53 4.783-7.296s6.538-11.697 10.132-17.623c3.594-5.925 6.317-11.348 6.05-12.044s-5.193-5.667-10.954-11.046c-5.977-5.582-10.474-10.567-10.474-11.62 0-2.067 18.15-21.151 21.936-23.062 2.175-1.097 2.681-.942 4.747 1.46 1.273 1.48 2.319 3.142 2.319 3.694s-2.256 3.391-5.006 6.299-4.997 5.923-4.997 6.706c0 1.6 13.687 15.886 15.221 15.886.543 0 4.421-2.86 8.627-6.355 4.205-3.494 11.574-9.13 16.366-12.524s9.137-6.933 9.661-7.87c1.15-2.053.21-4.056-4.821-10.251-6.107-7.52-11.056-14.918-11.056-16.533 0-2.542 3.07-2.914 8.414-1.016 11.075 3.933 14.97 6.4 19.054 12.053 2.184 3.022 4.492 5.496 5.126 5.496s3.303-.953 5.93-2.115c4.132-1.828 5.297-1.959 8.627-.961 4.647 1.392 5.128 4.084 1.099 6.142-6.805 3.475-12.883 7.22-31.717 19.534-9.281 6.069-21.476 15.34-25.436 19.341-41.531 41.96-52.371 72.874-59.102 168.56-.62 8.8-1.76 20.042-2.531 24.992s-1.643 11.476-1.94 14.501c-.709 7.232-3.94 26.567-6.022 36.003-5.282 23.95-16.442 51.74-30.82 76.78-.15.258-.747.953-.924 1.246h3.066c8.997-15.42 19.506-35.363 22.915-45.524 7.805-23.262 13.18-47.725 15.267-69.502.606-6.325 1.73-16.897 2.494-23.497s1.66-16.5 1.986-22c.325-5.5 1.26-15.625 2.087-22.5s1.92-16.104 2.42-20.504c3.384-29.738 12.156-59.794 23.21-79.523 7.072-12.62 29.232-36.679 44.297-48.093 18.137-13.741 48.605-30.321 55.722-30.331 3.9-.003 6.45 1.557 5.375 3.297-.348.563-6.363 4.29-13.365 8.285-27.338 15.598-39.22 23.655-55.102 37.36-14.742 12.721-14.396 12.386-19.313 19.008-19.829 26.705-27.86 49.344-33.324 93.996-3.706 30.282-4.456 37.541-6.549 63.499-1.086 13.475-2.582 29.453-3.334 35.503-1.35 10.866-7.168 34.931-11.96 49.497-5.818 17.677-13.688 34.697-22.953 51.03h88.437c1.263-.376 1.836-.73 3.37-1.035 3.3-.654 8.199-1.625 10.89-2.161 5.093-1.014 6.506.315 6.382 3.196h38.801c.406-.272.21-.414.675-.712 9.509-6.089 28.488-15.507 30.479-15.128 1.33.252 1.843 1.475 2.069 4.95.28 4.304.04 4.823-3.5 7.601-.648.508-4.05 2.29-5.69 3.289h15.34c-.804-7.641-1.018-28.897.102-92.528 1.137-64.524 1.424-68.994 4.434-68.994 1.43 0 2.141.837 2.512 2.993.477 2.769.896 3.04 5.505 3.537 5.566.6 8.074 1.735 11.01 4.978 1.943 2.148 1.992 4.007 2.336 82.719.242 55.296-.154 61.97-.822 67.294h9.024l-2.143-1.265.296-6.133c.254-5.3.573-6.165 2.346-6.419 1.127-.161 9.33 3.588 18.232 8.331 6.774 3.61 5.307 3.906 7.712 5.486h42.301c-.092-.32-.188-.945-.268-1.145-1.083-2.734 1.935-4.797 5.7-3.897 5.365 1.283 11.074 3.399 16.606 5.043h13.928c-4.379-2.036-3.542-3.925 7.444-9.985 12.718-7.015 14.168-8.034 39.365-27.44 12.444-9.585 30.144-29.015 37.092-40.722 11.1-18.704 15.13-27.85 20.68-46.883 4.374-15.002 6.38-27.524 9.66-60.46 1.095-10.981 2.203-21.33 2.467-22.998.263-1.668.721-7.989 1.016-14.039.294-6.05.965-14.375 1.496-18.5 3.826-29.731 5.255-39.923 6.086-43.456 3.787-16.085 8.265-32.309 10.853-39.327 12.308-33.381 40.77-80.216 48.748-80.216 3.521 0 6.336 1.764 6.336 3.971 0 1.045-2.874 6.103-6.382 11.24-7.282 10.667-16.625 26.623-16.625 28.402 0 1.439 7.253 6.714 15.507 11.287 6.95 3.85 10.493 6.852 10.493 8.876 0 2.273-11.086 22.32-12.681 22.933-1.891.725-6.208-1.278-6.955-3.224-.323-.84.396-3.81 1.598-6.603 1.2-2.793 1.942-5.693 1.653-6.447-.599-1.56-17.74-10.437-20.153-10.437-.985 0-2.734 2.538-4.628 6.715-4.396 9.696-12.97 36.341-12.625 39.244.325 2.748.731 2.93 17.798 8.155 5.775 1.768 11.15 3.814 11.951 4.545 1.273 1.16 1.18 2.759-.748 12.653-1.214 6.23-2.207 12.967-2.207 14.972 0 5.468-4.62 7.463-9.024 3.898-2.141-1.734-2.191-2.114-1.127-8.248.614-3.538.837-8.129.499-10.197-.577-3.529-.925-3.84-5.727-5.154-2.814-.77-7.273-1.661-9.9-1.976-4.273-.513-4.877-.336-5.736 1.662-2.03 4.723-7.073 37.807-6.78 44.49l.296 6.743 3.5.268c8.25.631 23.678 3.535 25.75 4.849 2.537 1.608 2.738 4.175 1.599 20.227l-.647 9.153h-3.814c-4.994 0-6.163-2.204-5.727-10.834l.342-6.64-3.002-.647c-5.602-1.199-18.195-.957-19.211.37-1.168 1.524-3.246 21.391-3.75 35.882l-.37 10.63 9.163 1.146c11.403 1.418 19.783 3.134 21.418 4.387 2.072 1.586 1.318 11.53-2.17 28.706-1.078 5.309-1.238 5.516-4.6 5.8-1.915.162-4.245-.295-5.181-1.007-1.565-1.19-1.596-2.01-.323-10.289 1.223-7.957 1.214-9.14-.13-10.178-1.924-1.487-16.508-3.878-20.957-3.436-.612.06-1.684 2.926-2.373 6.364-1.769 8.825-5.57 23.237-7.906 29.971-1.865 5.373-1.88 5.83-.296 7.592.927 1.032 6.468 4.013 12.312 6.632 12.245 5.488 16.285 8.629 15.313 11.887-.356 1.193-3.637 7.694-7.287 14.454-7.161 13.264-8.998 14.859-13.66 11.804-3.178-2.082-3.136-2.973.545-11.176 1.671-3.724 2.826-7.324 2.567-7.998-.534-1.392-16.087-9.421-18.25-9.421-.779 0-1.718.792-2.078 1.755-1.146 3.06-12.228 19.603-18.085 26.997-1.757 2.22-3.187 4.648-3.186 5.394s4.99 5.637 11.092 10.862 11.52 10.287 12.035 11.25c1.378 2.572.239 4.098-11.545 15.562-8.752 8.515-11.054 10.264-13.226 10.003-1.447-.174-3.27-1.281-4.046-2.457-1.309-1.984-1.01-2.604 4.138-8.673 3.051-3.596 5.542-7.18 5.542-7.961 0-1.438-11.519-13.323-14.566-15.028-1.278-.715-2.803.194-6.788 4.027-5.685 5.47-17.536 15.117-24.928 20.302-2.631 1.844-4.593 3.833-4.37 4.414.208.539 3.66 5.864 7.473 11.582h9.125c-1.686-2.604-5.939-8.346-5.939-9.199 0-1.97 15.92-16.393 21.29-19.285 3.51-1.89 3.654-1.891 5.652-.083 3.235 2.927 2.504 5.67-2.946 11.037-2.75 2.709-4.997 5.41-4.997 5.995 0 1.266 7.209 7.538 12.016 11.535h8.83c8.712-5.952 30.147-27.694 30.147-31.596 0-.65-4.95-5.384-11-10.52s-11.262-10.185-11.592-11.222c-.413-1.303 1.505-5.022 6.225-12.035 8.56-12.716 9.06-13.107 12.931-10.187 1.891 1.426 1.842 1.645-1.856 8.672-4.483 8.519-4.609 8.248 7.019 14.797 8.485 4.778 10.614 5.006 13.005 1.376 8.133-12.353 21.27-38.272 21.27-41.96 0-1.6-.782-2.697-2.336-3.288-1.286-.489-8.035-3.614-15-6.946-10.796-5.163-12.663-6.396-12.663-8.358 0-3.253 5.966-25.998 7.214-27.505 1.56-1.886 7.721-1.592 8.488.406.35.913.069 5.687-.628 10.612-1.543 10.903-1.492 10.984 9.134 13.152 9.798 2 11.509 1.982 12.663-.175 1.48-2.766 6.3-30.051 7.666-43.4.792-7.748 1.924-6.933-13.032-9.292-5.5-.868-11.42-1.814-13.152-2.097-5.351-.873-5.708-2.07-5.08-17.04.346-8.263 1.037-14.085 1.773-14.972 1.785-2.151 7.664-1.864 8.894.434.577 1.077.752 4.658.407 8.359-.432 4.628-.258 6.693.628 7.24 1.428.884 20.664 1.38 21.899.564.841-.556 1.729-10.538 2.78-31.2l.6-11.656-5.375-1.034c-2.956-.571-9.878-1.627-15.378-2.346l-10.003-1.312-.333-4.996c-.419-6.283 1.587-26.086 3.011-29.75.736-1.891 1.782-2.752 3.362-2.752 5.308 0 5.459.369 5.459 13.05v11.832l4.258.591c2.337.327 7.143.694 10.686.813l6.447.212 2.724-15.498c1.5-8.525 3.646-19.32 4.766-23.995 1.882-7.858 1.91-8.598.388-9.754-.905-.687-2.608-1.247-3.787-1.247-3.635 0-24.149-6.903-25.556-8.599-1.127-1.357-.729-3.348 2.623-13.133 2.174-6.347 4.735-12.833 5.69-14.409 2.03-3.353 4.94-3.686 7.73-.896 1.847 1.847 1.876 2.25.49 6.752-2.529 8.21-2.616 8.903-1.266 9.957 3.032 2.364 18.693 8.313 20.283 7.702.934-.358 3.882-5.208 6.548-10.769 2.667-5.56 6.788-13.629 9.162-17.927l4.323-7.814-2.503-1.976c-1.375-1.088-7.341-5.139-13.254-9.006-7.636-4.994-10.75-7.6-10.75-8.996 0-2.82 3.393-9.097 10.344-19.137 6.478-9.358 8.69-10.589 12.145-6.77 1.742 1.925 1.638 2.213-3.463 9.984-2.89 4.4-5.016 8.609-4.73 9.356.569 1.481 15.748 10.404 19.157 11.26 1.671.419 3.188-.825 7.36-6.032 3.966-4.948 5.865-6.548 7.768-6.548 3.273 0 8.424 2.676 8.424 4.378 0 .73-2.65 3.407-5.884 5.948-9.806 7.704-23.93 30.459-33.712 54.317-7.142 17.422-10.38 30.12-13.355 52.36-1.14 8.525-2.32 16.85-2.623 18.5s-.962 11.318-1.46 21.493c-1.6 32.705-4.413 62.355-7.019 74-10.791 48.217-21.93 76.135-40.953 102.631-8.745 12.182-20.576 25.744-31.948 37.398h57.375l-2.928-1.968c-3.956-2.656-6.991-5.418-6.991-6.354 0-.975 2.872-3.43 6.991-5.958l7.001-4.294.545-5.33c.614-6.09 2.505-8.118 7.583-8.118 5.54 0 7.933-1.616 13.254-8.931 2.83-3.892 5.7-7.067 6.382-7.057s3.509 3.272 6.28 7.25l5.044 7.232 5.818.628c3.227.35 6.216 1.246 6.697 2.005.477.753.876 3.431.886 5.948.018 5.272 1.248 6.711 10.262 12.007 3.162 1.858 5.754 3.854 5.754 4.433 0 .58-2.95 2.755-6.558 4.83-2.838 1.633-3.69 2.558-5.2 3.677h73.04c1.54-.994 1.705-8.176 1.579-142.745-.075-80.18-.317-144.834-.545-143.677-.552 2.805-6.164 8.097-9.44 8.903-2.3.566-2.771.244-3.768-2.614-.625-1.794-1.852-4.051-2.724-5.015-2.111-2.332-1.185-3.524 4.96-6.41 2.836-1.332 5.969-2.993 6.964-3.694 1.528-1.077 2.033-.975 3.25.665 1.299 1.748 1.431 1.206 1.358-5.496-.072-6.655-.211-7.154-1.284-4.738-2.047 4.613-5.778 7.738-11.323 9.486l-5.33 1.68-3.49-3.814c-1.92-2.096-3.492-4.396-3.492-5.117 0-.72 2.757-2.713 6.124-4.424 3.367-1.71 7.749-4.21 9.735-5.56 4.271-2.902 4.912-2.978 7.315-.803 1.762 1.594 1.828 1.215 1.828-10.539v-12.2l-3.879-5.21c-2.133-2.864-4.408-6.879-5.061-8.922-.854-2.67-2.442-4.491-5.625-6.493-2.681-1.686-4.66-3.779-5.015-5.292-.324-1.375-1.449-4.61-2.503-7.186-2.578-6.3-2.429-8.38.933-12.672 5.305-6.773 10.978-16.6 14.057-24.374 2.905-7.335 3.638-10.413 6.16-25.769 1.193-7.257.51-26.054-1.052-28.974-.556-1.04-1.016-2.817-1.016-3.953s-.47-2.069-1.044-2.069c-3.04 0-20.33 19.626-29.953 33.998-2.394 3.576-4.84 6.821-5.43 7.214-2.439 1.619-3.351-2.445-4.443-19.71-1.53-24.194-1.797-22.063 3.122-25.104 4.912-3.037 7.233-5.592 9.226-10.15 1.3-2.973 1.8-3.251 5.902-3.251 2.468 0 5.708.469 7.195 1.034s2.895.827 3.131.591-.292-2.83-1.173-5.772l-1.598-5.348 2.503-2.004c1.379-1.1 3.81-3 5.404-4.221 5.417-4.15 8.154-12.862 6.253-19.923-1.295-4.807-7.792-12.576-11.97-14.306-3.736-1.548-4.569-4.757-2.651-10.262 2.29-6.573 2.261-6.611-4.72-6.059l-6.253.49-5.329-6.576c-4.548-5.62-6.118-6.837-10.714-8.285-4.607-1.452-6-1.51-9.67-.425-5.512 1.629-10.22 5.212-13.337 10.15-2.67 4.23-5.536 4.98-11.028 2.891-1.487-.565-2.876-.856-3.085-.646s.308 3.328 1.145 6.936c1.662 7.166 1.327 9.342-1.57 10.262-4.448 1.411-11.722 8.401-13.448 12.92-3.641 9.536.558 20.506 9.597 25.086 2.58 1.308 4.925 2.983 5.209 3.722.283.74-.112 3.119-.868 5.293-.757 2.174-1.376 4.12-1.386 4.322-.008.202 2.885.056 6.429-.323l6.437-.693 1.958 3.824c1.076 2.103 4.004 5.745 6.512 8.09 3.032 2.838 4.736 5.35 5.08 7.5.874 5.475 2.805 56.662 2.198 58.244-.644 1.678-4.183 2.016-5.126.49-1.105-1.788-16.867-14.478-22-17.716-7.94-5.007-20.344-10.563-22.094-9.892-1.332.512-1.542 2.056-1.256 9.264.235 5.92-.021 8.777-.812 9.052-3.182 1.104-15.5-15.243-16.949-22.49-.56-2.803-.378-2.956 6.761-5.514a753 753 0 0 1 15.341-5.265c15.607-5.136 21.502-7.697 21.502-9.347-.002-.875-2.706-6.026-6.003-11.443-3.299-5.418-5.995-10.032-5.995-10.262s-1.868-3.455-4.147-7.158c-5.278-8.576-8.221-13.62-20.827-35.725a6533 6533 0 0 0-19.646-34.174c-5.16-8.895-9.383-16.834-9.383-17.64 0-1.315 10.952-5.709 24.004-9.625 8.338-2.502 24.3-4.049 41.692-4.055 11.553-.003 18.423-.39 18.833-1.053.355-.574-.017-2.063-.832-3.306-2.5-3.816-11.286-28.431-15.045-42.154-4.637-16.925-9.182-37.823-10.539-48.499-1.844-14.51-3.303-48.936-2.586-60.995 1.22-20.51 6.04-55.999 7.602-55.999.483 0 .877-.457.877-1.007s-2.015-.997-4.48-.997c-3.851 0-4.55.32-4.922 2.253a1925 1925 0 0 1-1.515 7.75c-4.258 21.48-6.493 67.986-4.212 87.66.628 5.41 1.621 14.115 2.217 19.34 2.622 23.004 8.908 50.398 16.496 71.913 2.427 6.881 4.414 13.069 4.414 13.752 0 2.228-7.116 2.67-17.447 1.09-5.527-.845-12.08-1.315-14.556-1.043l-4.498.498 3.196-3.362c5.63-5.904 7.9-14.291 4.95-18.324-1.915-2.62-4.645-1.296-4.645 2.254 0 7.3-13.066 12.835-20.8 8.81-5.39-2.803-7.546-6.178-8.008-12.56-.402-5.557-.227-6.146 2.614-8.987 4.938-4.938 11.448-3.948 11.019 1.68-.251 3.294 1.55 6.272 3.796 6.272.758 0 2.284-.898 3.39-2.004 1.602-1.603 1.88-2.802 1.385-5.902-.541-3.383-.338-3.969 1.533-4.563 3.549-1.126 7.407-7.975 7.407-13.143 0-8.614-7.978-12.508-18.13-8.857-3.923 1.41-5.558 1.547-8.035.683-4.058-1.414-7.826 1.159-6.734 4.6.382 1.203 1.311 2.189 2.06 2.189 1.547 0 4.498 2.674 4.498 4.073 0 2.583-4.164 4.927-8.747 4.923-6.264-.005-10.819-2.841-13.281-8.266-2.595-5.716-2.451-9.006.563-12.59 3.367-4 8.37-5.543 15.545-4.793 4.118.43 5.902.256 6.216-.619.7-1.948-.998-4.384-4.526-6.502-4.315-2.59-8.526-3.293-13.3-2.217-2.151.486-4.097.687-4.332.453s1.2-2.518 3.196-5.08c3.847-4.938 5.586-10.704 3.99-13.235-1.788-2.834-3.085-2.253-5.32 2.364-3.727 7.7-9.831 10.31-18.279 7.832-6.349-1.862-9.168-4.322-11.277-9.845-1.296-3.394-1.395-4.981-.508-8.276 1.435-5.329 6.2-9.438 10.456-9.024 2.794.273 3.162.701 3.61 4.203.941 7.332 7.186 7.54 7.805.259.238-2.796 1.13-4.27 3.815-6.318 6.396-4.878 8.018-11.137 4.424-17.031-2.527-4.145-7.655-5.69-13.78-4.147-3.226.812-5.04.807-6.872-.028-5.556-2.531-10.39-.89-10.39 3.528 0 2.279 3.289 4.896 4.904 3.898.476-.295 1.445.155 2.152 1.006 1.083 1.306.788 2.048-1.903 4.739-2.786 2.786-3.87 3.195-8.506 3.195-4.275 0-6.02-.542-8.978-2.798-4.767-3.637-6.678-7.467-6.668-13.402.004-5.373 2.432-10.226 6.419-12.838 2.36-1.547 10.08-1.765 14.519-.407 2.468.756 2.276-2.686-.314-5.689-2.378-2.757-2.792-2.863-11.046-2.77-4.72.052-8.58-.056-8.58-.241s1.575-2.4 3.5-4.923c1.925-2.522 3.79-5.75 4.147-7.167 1.244-4.96-3.812-8.597-5.56-4-1.288 3.387-6.533 7.54-10.456 8.276-7.043 1.322-14.152-2.477-16.57-8.857-2.566-6.774-.565-12.682 5.792-17.087 5.175-3.587 7.544-3.173 7.98 1.404.407 4.282 1.727 5.994 4.627 5.994 2.603 0 4.921-4.203 3.972-7.195-.468-1.472.533-3.07 3.971-6.364 5.21-4.992 5.683-6.437 2.097-6.437-1.375 0-2.503.443-2.503.979 0 1.313-5.392 4.018-7.999 4.018-1.152 0-3.215-1.12-4.59-2.494-1.986-1.986-3.51-2.503-7.398-2.503-2.693 0-5.14.399-5.44.887-1.13 1.828-7.438 2.193-11.14.646-3.1-1.296-10.075-1.533-44.665-1.533h-40.98l5.024 4.516c5.17 4.65 11.185 12.804 11.185 15.157 0 3.053-3.737.848-11.721-6.918-4.665-4.538-8.877-9.264-9.356-10.502-.593-1.529-1.696-2.253-3.455-2.253h-2.586l2.494 2.752a2490 2490 0 0 1 7.223 8.026c2.601 2.903 9.085 8.874 14.408 13.273 7.459 6.163 10.213 9.145 12.016 12.995 3.352 7.157 1.856 7.72-6.834 2.568-14.74-8.74-29.742-22.973-36.428-34.553-1.909-3.306-3.587-5.061-4.84-5.061-1.054 0-1.92.246-1.92.545 0 1.63 9.621 13.194 17.945 21.566 9.123 9.177 17.14 15.16 31.865 23.792 5.152 3.021 7.261 4.972 9.162 8.488 4.817 8.914-.068 8.11-18.879-3.112-13.233-7.895-23.44-15.825-32.123-24.956-8.004-8.417-17.964-22.132-17.964-24.735 0-.92-.845-1.588-2.005-1.588-1.1 0-1.995.447-1.995.997s.346 1.007.767 1.007 2.288 2.582 4.156 5.745c13.56 22.95 44.966 49.089 67.572 56.239 2.2.696 4.688 1.861 5.532 2.595s4.82 8.026 8.83 16.2l7.287 14.861-4.026 7.99c-6.332 12.555-8.541 21.806-8.34 34.866.092 6.05.828 14.103 1.634 17.89 1.936 9.094 8.039 21.585 14.427 29.528 2.837 3.528 5.154 7.188 5.154 8.137 0 4.132-12.114 17.529-28.494 31.505-26.777 22.848-53.624 35.539-75.293 35.596-9.07.024-9.444-.066-15.997-3.972-10.888-6.488-26.382-24.614-34.007-39.78-10.602-21.086-18.748-59.212-19.424-90.902l-.286-13.004 4.008.13c2.2.066 6.918.619 10.493 1.227 6.93 1.18 14.257.378 22.185-2.42 8.276-2.92 7.716 1.522-1.644 13.07-5.94 7.327-7.747 10.583-5.791 10.446.412-.029 3.353-3.628 6.53-7.999 10.288-14.157 10.668-10.66 2.346 21.548-1.998 7.73-2.047 13.932-.12 15.859 3.191 3.191 20.632 15.84 21.141 15.332.295-.296-.054-2.17-.776-4.166-1.12-3.099-1.098-3.768.157-4.562 2.136-1.351 4.548-1.173 8.756.646 12.233 5.289 19.142 4.825 23.525-1.58 3.559-5.2.91-13.216-5.828-17.631-3.985-2.61-4.72-.573-1.1 3.048 3.649 3.648 5.01 7.966 3.436 10.908-1.491 2.787-10.845 1.88-18.01-1.746-6.563-3.32-9.793-3.137-11.6.647-.723 1.512-1.968 2.743-2.772 2.743-2.752 0-11.955-5.92-13.54-8.71-1.457-2.566-1.436-3.466.277-11.287 1.807-8.247 2.515-11.105 4.785-19.497 3.333-12.326 6.05-28.611 6.05-36.252 0-7.312-.41-9.308-2.947-14.611-3.387-7.078-9.13-12.375-17.826-16.45-7.639-3.58-17.023-3.69-25.981-.305-8.102 3.062-9.464 2.184-9.042-5.782l.295-5.569 6.493-3.556c19.225-10.524 30.495-20.423 42.468-37.314 3.768-5.316 7.23-9.66 7.694-9.66s.84-.484.84-1.072-1.007-.924-2.244-.748c-1.238.175-2.262.761-2.272 1.311s-2.1 4.212-4.646 8.128c-5.265 8.099-19.133 22.482-25.833 26.794a472 472 0 0 0-7.048 4.618c-5.244 3.549-12.898 6.921-14.399 6.345-1.072-.411-1.551-1.927-1.551-4.895 0-4.265.047-4.337 6.557-7.915 12.209-6.711 21.542-15.21 33.297-30.323 3.046-3.916 3.148-4.248 1.228-4.248-1.146 0-2.087.47-2.087 1.044 0 2.311-10.543 14.794-16.884 19.987-17.292 14.16-23.745 15.452-21.659 4.331.505-2.69 1.89-4.366 6.355-7.656 8.869-6.539 19.957-17.706 17.576-17.706-1.103 0-3.28 1.724-4.978 3.934-3.625 4.716-13.154 12.063-15.637 12.063-1.428 0-1.773-.848-1.773-4.313 0-3.42.583-4.861 2.807-6.992 1.543-1.478 3.31-2.688 3.935-2.688s1.415-.457 1.755-1.007c.392-.634-2.235-.997-7.186-.997zm192.5 7.473c0-1.934.93-1.857 6.142.508 2.398 1.088 5.343 1.983 6.548 1.995 3.086.03 3.463 1.18 1.848 5.634-.776 2.138-1.666 5.128-1.986 6.64-.32 1.513-1.143 2.754-1.82 2.753-1.786-.003-10.732-14.615-10.732-17.53m23.69 39.697c.36-.984 1.87-.836 4.6.305 2.005.837 5.915 1.524 8.682 1.524s5.034.295 5.034.655-1.086 2.078-2.41 3.815c-1.326 1.737-3.107 4.816-3.954 6.844-.847 2.027-1.704 3.685-1.912 3.685-.969 0-4.731-5.047-7.693-10.326-1.907-3.399-2.705-5.519-2.346-6.502m-118.223 15.22c-5.991 1.088-11.319 3.57-15.535 7.361-5.309 4.773-6.006 6.965-3.057 9.633 1.771 1.604 2.194 1.557 7.657-.858 6.816-3.015 17.024-5.524 22.453-5.524 10.63 0 33.525 7.323 45.515 14.556 4.957 2.99 5.724 3.024 5.32.24-.667-4.605-29.296-20.935-42.819-24.42-6.885-1.774-13.543-2.076-19.534-.988m-75.164 9.642c4.085-.597 7.994-.515 11.204.333 11.712 3.094 20.495 8.76 20.495 13.217 0 3.436-1.886 3.366-10.502-.397-10.777-4.707-19.597-5.368-29.454-2.198-8.122 2.611-10.32 2.23-9.864-1.728.257-2.236 1.374-3.266 5.893-5.458a42.6 42.6 0 0 1 12.228-3.769m252.535 1.469c2.64-.892 5.721-.645 7.509 1.33 2.186 2.415 2.101 6.455-.176 8.516-3.995 3.615-12.173.69-12.173-4.35 0-2.58 2.2-4.604 4.84-5.496m-166.759 7.426c-7.05.496-13.1 2.398-16.07 5.56-1.417 1.508-3.456 2.512-5.117 2.512-1.522 0-3.044.444-3.38.989-.338.544.982 3.721 2.936 7.056 1.955 3.334 3.556 6.696 3.556 7.472s-1.351 2.951-3.001 4.83-3.002 3.905-3.002 4.498 1.785 1.557 3.962 2.143 4.24 1.525 4.581 2.078c.932 1.508 15.968 11.984 22.36 15.582 3.08 1.733 6.39 3.196 7.353 3.25 3.837.219 1.279-2.692-7.518-8.58-11.408-7.634-16.478-11.877-15.452-12.92.43-.44 3.657-.03 7.167.904 10.9 2.905 18.83 1.992 30.876-3.537 6.38-2.928 7.16-3.06 11.998-2.06 5.674 1.174 8.974.25 8.017-2.244-1.12-2.917-17.748-12.46-28.54-16.376-10.145-3.681-15.351-4.27-21.63-2.457-3.121.902-6.563 2.25-7.648 3.002-2.64 1.83-7.528 1.795-7.528-.055 0-4.287 12.189-9.06 22.5-8.812 9.504.23 18.873 3.791 32.621 12.405 6.104 3.823 11.372 6.676 11.703 6.345 1.543-1.543-20.183-15.729-28.641-18.703-6.997-2.461-15.052-3.378-22.103-2.882m-81.573 3.777c5.614 0 10.068.653 14.575 2.153 6.755 2.247 13.918 7.25 13.918 9.716 0 2.209-3.798 1.476-11-2.124-11.815-5.907-22.248-6.653-32.733-2.346-2.473 1.016-3.51 1.052-4.405.157-3.349-3.349 7.591-7.556 19.645-7.556m216.329 4.692c.916.265 3.582.976 5.92 1.58 4.86 1.256 5.152 2.327 2.226 8.063-1.111 2.178-2.427 3.962-2.928 3.962-1.992 0-8.542-11.398-7.509-13.069.344-.556 1.374-.8 2.29-.536m-205.458 10.797c.982-.29 1.816.3 2.595 1.755 1.286 2.404-1.005 7.714-4.424 10.252-5.3 3.935-12.453 2.575-16.265-3.094-4.854-7.22-1.573-10.406 4.794-4.655 2.234 2.019 4.82 3.522 5.745 3.344s2.77-2 4.1-4.055c1.348-2.082 2.472-3.257 3.455-3.547m69.816.85c1.18.342 2.411 1.463 3.14 3.205 2.852 6.823 10.395 7.489 13.402 1.182 3.074-6.447 7.908-2.871 5.32 3.935-.668 1.755-2.555 3.412-5.293 4.655-6.001 2.724-12.737 1.984-15.923-1.755-2.218-2.603-4.15-8.004-3.482-9.744.529-1.378 1.656-1.82 2.836-1.478m-61.624.96c2.129 0 5.47 3.736 4.83 5.404-.306.799-1.941 1.933-3.63 2.521-1.687.589-3.112 1.041-3.167.998-.055-.044-.661-.314-1.348-.591-3.06-1.235-.236-8.331 3.315-8.331m-33.85.112c.99.153 1.938.951 2.881 2.392 1.323 2.018 1.398 2.794.398 3.999-1.43 1.723-3.735 1.877-6.244.416-2.17-1.265-2.245-3.288-.185-5.348 1.121-1.12 2.16-1.613 3.15-1.46m160.782.896c1.009-.742 1.875-.309 2.78 1.172 6.314 10.328 6.779 12.393 4.148 18.602-.942 2.223-1.803 8.136-2.134 14.713-.88 17.5 3.066 29.375 13.503 40.648 6.863 7.413 14.817 12.919 24.845 17.198 6.708 2.863 7.892 3.772 9.985 7.685 1.306 2.441 2.373 5.235 2.373 6.206 0 1.449-.85 1.754-4.747 1.7-10.362-.144-23.398-5.354-34.756-13.9-8.416-6.335-12.978-11.97-18.306-22.574-4.643-9.241-5.586-12.448-7.546-25.74-2.126-14.425-.476-24.967 6.244-39.836 1.453-3.216 2.603-5.133 3.611-5.874m-39.438.95c2.624-1.404 5.167.452 4.738 3.455-.3 2.101-4.572 3.482-6.086 1.967-1.405-1.404-.678-4.337 1.348-5.421m-31.421 2.245c.9.9 1.358 2.347 1.025 3.214-.772 2.013-3.052 2.026-4.71.028-1.063-1.28-.996-1.84.378-3.214 1.541-1.541 1.791-1.543 3.307-.028m80.557 17.17c1.393-1.393 1.775-1.23 3.861 1.7 1.752 2.46 2.375 4.848 2.577 9.836.754 18.614 3.908 26.793 14.224 36.89 3.54 3.465 7.745 6.975 9.347 7.804 2.945 1.523 7.362 9.656 6.234 11.48-2.012 3.256-15.213-4.734-24.78-15-5.03-5.395-10.646-16.178-12.719-24.41-1.685-6.693-.818-26.225 1.256-28.3m83.052 4.156c1.787.43 6.074 1.05 9.522 1.377l6.272.59-2.633 3.861c-1.447 2.124-3.05 5.387-3.565 7.25-.515 1.865-1.586 3.39-2.374 3.39-1.768 0-10.473-12.766-10.473-15.36 0-1.62.457-1.778 3.25-1.108m-72.144 13.642c1.603.503 14.79 25.435 14.852 28.078.023.963-.351 1.746-.831 1.746-1.787 0-8.874-8.77-11.398-14.104-3.161-6.683-4.78-16.397-2.623-15.72m-190.717 3.824c2.194 0 3.134 16.086 1.164 19.895-.848 1.64-2.02 3.28-2.614 3.648-.594.367-3.006 3.66-5.348 7.315-12.28 19.165-25.072 47.638-30.562 68.024-1.03 3.827-2.028 4.631-9.402 7.574-3.646 1.454-7.63 2.048-7.63 1.136 0-1.779 5.833-21.66 8.636-29.436 5.335-14.797 19.218-42.304 28.088-55.657 9.75-14.678 15.893-22.499 17.668-22.499m315.645 4.563c2.326-.923 5.266-.736 7.74.997 2.189 1.533 2.898 4.93 1.46 7.001-.405.582-1.846 1.822-3.206 2.752-5.039 3.45-10.03.922-10.03-5.08 0-2.714 1.71-4.748 4.036-5.67m-32.474 16.44c2.246 0 11.443 3.107 11.425 3.86-.008.35-.605 2.345-1.33 4.425-2.518 7.23-3.69 7.012-8.451-1.524-3.686-6.609-3.731-6.761-1.644-6.761m-281.37 4.045c1.46-.377 2.712.447 3.649 2.503 1.387 3.045 1.531 8.112.249 8.904-1.113.688-8.83 13.94-14.87 25.547-4.496 8.638-11.534 25.308-12.737 30.175-.364 1.472-1.405 3.322-2.318 4.11-2.104 1.814-7.275 3.547-8.913 2.983-2.102-.724-1.447-3.77 3.695-17.216 7.792-20.378 14.458-33.602 26.369-52.304 1.752-2.752 3.417-4.325 4.876-4.702m4.147 17.318c1.407-.699 2.536-.317 3.002 1.33 2.095 7.41 1.958 8.14-3.62 19.091-3.003 5.893-6.907 14.089-8.673 18.214s-4.122 8.292-5.237 9.255c-2.587 2.232-8.642 2.33-9.476.157-.91-2.37 10.97-28.715 19.35-42.912 1.569-2.659 3.248-4.436 4.654-5.135m89.914 5.865c-3.027 2.658-5.974 2.934-12.847 1.21-5.257-1.318-7.428-1.438-10.28-.582-5.23 1.571-23.088 2.878-27.625 2.023-1.83-.345-2.022.237-2.291 6.872-.185 4.572.097 7.25.757 7.25.577 0 2.723-.904 4.775-2.004 4.541-2.434 6.524-2.467 16.542-.314 7.643 1.642 7.973 1.633 14.52-.462 7.48-2.394 11.692-2.004 17.41 1.616 1.782 1.129 3.394 1.889 3.583 1.7s-.307-2.524-1.099-5.191c-1.76-5.932-1.69-5.545-1.69-10.003 0-3.4-.127-3.544-1.755-2.115m88.953 7.768c1.013 0 3.518 1.039 5.57 2.309 7.938 4.912 27.726 11.693 34.127 11.693 4.72 0 7.634 2.75 6.549 6.179-.405 1.277-2.036 4.876-3.62 7.998-1.586 3.122-3.468 7.401-4.185 9.504-.942 2.763-2.665 4.717-6.197 7.057-13.217 8.752-52.415 22.383-75.45 26.24-3.575.598-14.147 1.744-23.497 2.54-9.35.794-18.346 1.39-19.996 1.32-35.023-1.462-59.739-5.5-84.566-13.808-11.92-3.988-32.018-13.081-32.669-14.778-1.214-3.164.822-4.024 30.23-12.792 4.4-1.312 9.844-2.667 12.09-3.01l4.083-.629 8.737 11.065c15.805 20.007 23.337 25.098 37.093 25.085 18.844-.018 40.453-8.431 65.114-25.353 11.204-7.687 16.868-12.525 29.316-25.067 8.777-8.843 16.224-15.553 17.271-15.553m122.047 2.512c1.787.405 5.61.798 8.497.868s5.255.484 5.255.924-1.91 1.663-4.248 2.724c-5.59 2.537-7.943 2.46-10.576-.341-3.26-3.471-2.854-5.064 1.072-4.175m-294.208 3.491c3.586 0 3.188 2.583-1.986 12.894-3.918 7.808-5.532 10.104-7.093 10.104-3.587 0-3.189-2.573 1.985-12.884 3.919-7.809 5.532-10.114 7.094-10.114m45.248 6.382c-1.003 1.003 2.35 3.963 5.994 5.293 6.998 2.553 21.873.541 22.555-3.048.314-1.654-.091-1.788-3.492-1.192-9.777 1.713-13.463 1.716-18.86.019-3.042-.957-5.83-1.439-6.197-1.072m-41.424 5.616c1.004 0 2.37 1.216 3.057 2.725 1.103 2.422.997 2.929-.952 4.507-2.632 2.131-5.83 2.304-6.576.36-.818-2.132 2.397-7.592 4.47-7.592m217.307 8.783c1.452-.754 2.758.737 4.341 4.25 1.752 3.883 1.741 3.963-1.376 13.364-2.89 8.714-3.14 10.519-3.14 22.868 0 14.829 1.378 20.965 7.222 32.235 9.573 18.455 24.912 31.198 42.782 35.54 3.025.735 6.032 1.728 6.678 2.208 1.68 1.247 5.333 8.926 4.72 9.92-.853 1.379-4.452.82-13.402-2.088-19.547-6.351-31.24-14.436-42.31-29.25-7.422-9.932-12.007-19.496-14.714-30.693-1.97-8.15-2.183-10.95-1.644-21.501.634-12.402 1.758-17.945 5.616-27.635 2.177-5.467 3.776-8.463 5.227-9.218m-167.636 1.146c-7.131 1.01-10.538 2.482-10.538 4.553 0 2.525 1.861 2.638 6.983.434 6.326-2.721 13.003-2.267 19.737 1.349 5.956 3.197 6.501 3.256 6.105.59-.776-5.22-11.281-8.485-22.287-6.926m310.695 14.464c4.01-2.087 11.9-1.978 16.422.23 2.392 1.169 5.072 3.77 7.093 6.872 4.183 6.421 4.308 11.375.425 17.004-3.756 5.444-6.097 5.57-10.39.554-1.909-2.23-3.828-4.055-4.259-4.055-.43 0-2.524 1.576-4.655 3.5-4.594 4.152-7.135 4.393-10.298.98-6.722-7.253-3.81-20.157 5.662-25.085m-134.1.59c1.24.42 2.686 2.509 4.314 6.263 2.402 5.538 2.63 7.002 2.032 12.958-1.28 12.747 2.745 26.992 10.76 38.08 4.036 5.585 12.437 13.003 17.853 15.767 2.71 1.382 4.532 3.399 6.355 7.028 1.406 2.8 2.558 5.68 2.558 6.401 0 2.767-4.38 2.447-10.594-.767-7.793-4.03-19.7-13.256-23.875-18.5-9.48-11.904-15.554-28.801-15.508-43.123.023-7.11.636-11.198 3.057-20.338.78-2.939 1.81-4.188 3.048-3.768m-267.95 4.268c1.983.377 4.743 1.556 8.784 3.648 20.299 10.507 53.634 21.215 75.053 24.106 52.26 7.056 98.17.898 145.728-19.562 6.897-2.967 12.496-4.852 12.829-4.313.779 1.26-1.234 3.626-3.777 4.433-1.676.532-1.93 1.24-1.47 4.083.307 1.889 1.707 4.803 3.113 6.474 4.838 5.75 3.239 8.055-8.94 12.894-17.295 6.872-38.322 12.823-60.506 17.114-15.677 3.033-17.84 3.206-43.493 3.464-41.249.415-57.892-2.312-98.54-16.108-24.615-8.354-50.965-22.037-50.965-26.47 0-3.746 6.055-4.02 11.222-.509 4.336 2.947 6.567 3.145 8.386.748 1.92-2.529 1.689-4.586-.684-6.068-1.667-1.041-1.84-1.583-.877-2.743.948-1.143 2.156-1.568 4.138-1.191m8.184 11.332c-1.255.543-1.951 1.93-2.18 4.212-.269 2.696.183 3.357 3.5 5.108 4.82 2.543 4.895 2.545 6.762-.12 2.714-3.876 1.98-6.288-2.531-8.322-2.473-1.115-4.295-1.42-5.55-.878m-38.524 1.127c2.394.495 5.597 2.25 11.444 5.644 36.56 21.222 68.741 32.128 111.212 37.683 6.03.789 18.74 1.01 38.505.665 25.785-.45 31.133-.829 42.496-2.983 21.198-4.02 41.593-9.928 59.231-17.161 3.427-1.405 7.12-2.558 8.211-2.558 2.66 0 4.453 3.397 3.113 5.901-1.306 2.44-11.793 6.76-30.055 12.386-20.505 6.318-38.336 9.744-66.001 12.663-32.17 3.394-53.018 1.892-96.12-6.9-13.818-2.818-45.881-14.477-59.149-21.51-18.354-9.73-31.726-17.952-31.726-19.507 0-.541 1.007-1.621 2.245-2.402 2.611-1.647 4.2-2.415 6.594-1.92m259.73.527c-.786-.216-1.845.276-4.101 1.219-3.843 1.605-4.175 2.939-1.995 8.155 1.59 3.806 3.218 3.956 8.275.767 2.76-1.74 2.802-2.95.259-7.121-1.146-1.88-1.653-2.804-2.438-3.02m-203.094 5.412c-1.383.531-3.482 4.714-3.482 6.946 0 .825 1.464 2.141 3.251 2.918 1.788.777 3.821 1.428 4.517 1.45 1.197.038 5.227-5.55 5.237-7.26.005-1.156-8.091-4.603-9.523-4.054m-71.922.351c1.097 0 7.283 3.33 13.744 7.398 34.588 21.777 77.426 36.833 119.672 42.062 23.795 2.945 68.34 1.493 92.03-3.002 19.791-3.755 38.347-9.1 53.476-15.397 5.367-2.233 10.363-4.054 11.111-4.054 1.88 0 4.765 4.638 4.046 6.511-.69 1.798-6.306 4.344-20.135 9.125-22.425 7.754-46.4 13.344-72.504 16.912-21.468 2.933-62.762 2.237-82.995-1.404-32.677-5.88-63.918-16.145-92.5-30.396-18.829-9.388-36.502-20.41-36.502-22.767 0-1.783 6.778-4.988 10.557-4.988m324.761 0c1.284 0 20.68 37.995 20.68 40.51 0 2.141-1.154 1.863-5.228-1.256-8.472-6.488-13.321-15.34-16.301-29.768-1.559-7.546-1.391-9.486.85-9.486m-67.553.536c-5.759 1.231-7.056 3.925-4.784 9.9 1.115 2.935 2.659 3.164 7.555 1.119 3.844-1.607 4.17-2.939 1.986-8.165-1.383-3.31-1.712-3.505-4.757-2.854m171.58 4.433c3.448-.12 6.722.39 8.433 1.589 3.008 2.107 2.875 5.97-.277 8.035-3.268 2.141-3.16 3.063 1.006 8.303 1.92 2.415 3.492 5.177 3.492 6.143 0 .965-1.585 3.15-3.529 4.858-3.173 2.786-4.2 3.103-10.002 3.103-6.015 0-6.74-.244-10.447-3.593-8.52-7.697-7.578-20.913 1.866-26.221 2.388-1.342 6.01-2.096 9.458-2.217m57.19.046c9.294 2.603 14.142 9.57 13.06 18.777-.521 4.437-1.313 6.112-4.369 9.292-3.242 3.374-4.445 3.948-9.227 4.369-8.647.76-15.996-2.276-15.996-6.604 0-1.016 1.799-3.592 3.999-5.727s3.999-4.607 3.999-5.495-1.63-3.421-3.62-5.625c-4.24-4.693-3.79-5.916 3.186-8.58 3.81-1.455 5.034-1.508 8.968-.407m-397.163.49c-1.49.452-2.46 1.644-2.882 3.565-.766 3.488 1.286 6.54 4.868 7.241 4.745.928 5.462.66 6.548-2.457 1.7-4.875 1.367-5.836-2.549-7.472-2.487-1.039-4.494-1.33-5.985-.877m155.804.277c-1.244-1.245-6.67-.089-8.192 1.746-1.419 1.709-.431 6.883 1.727 9.042.851.85 2.203 1.295 3.002.988s1.834-.554 2.3-.554c2.401 0 3.766-3.04 2.965-6.595-.453-2.007-1.263-4.089-1.802-4.627m-262.564 2.161c2.392-1.28 5.169-.258 9.143 3.362 3.164 2.881 2.794 3.896-1.136 3.159-4.51-.846-8.9 1.507-10.981 5.893-2.025 4.266-2.046 5.98-.12 10.04 1.904 4.014 6.206 6.603 10.963 6.603 7.366 0 12.55-9.166 9.033-15.97-.914-1.767-1.386-3.49-1.053-3.823.795-.796 11.592 4.946 12.228 6.502.271.663-2.31 5.837-5.735 11.5-8.336 13.778-9.82 15.793-11.62 15.793-1.656 0-9.603-4.555-21.04-12.072l-7.203-4.738-2.356 3.159c-1.295 1.736-3.431 4.949-4.756 7.149-2.515 4.174-7.694 11.392-10.936 15.249-1.04 1.237-2.347 2.253-2.91 2.253-2.72 0-24.133-18.446-24.133-20.79 0-.601 1.898-2.223 4.211-3.602 4.197-2.503 6.789-2.192 6.789.822 0 .653 1.407 2.623 3.122 4.378 2.588 2.647 3.877 3.195 7.592 3.195 10.114 0 15.492-10.552 9.024-17.705-1.1-1.216-1.724-2.893-1.395-3.75 1.032-2.69 4.614-1.698 10.65 2.946l5.846 4.498 3.177-5.246c6.647-10.95 11.53-17.7 13.595-18.805m242.854 2.06c-5.674 0-7.516 1.852-6.742 6.76.325 2.06 1.079 4.067 1.681 4.471 1.548 1.038 3.802.937 7.444-.333 2.68-.934 3.15-1.59 3.15-4.414 0-5.576-.772-6.484-5.533-6.484m-112.726.48c-4.864-.912-6.743.633-6.743 5.56 0 3.23.412 3.939 2.752 4.794 5.21 1.903 6.603 1.217 8.027-3.962 1.252-4.558.648-5.513-4.037-6.392m18.158 3.03c-2.673-.502-4.015-.253-5.246.979-2.229 2.228-2.163 8.11.101 9.43 3.015 1.756 8.063 1.292 9.209-.85 1.203-2.248 1.392-7.74.286-8.423-.417-.258-2.377-.766-4.35-1.136m73.048.166c-4.24.833-4.456 1.053-4.756 4.673-.173 2.087.215 4.432.868 5.219 1.209 1.457 6.502 1.92 9.365.822 1.969-.756 2.144-7.235.268-9.8-1.104-1.51-1.994-1.651-5.745-.914m-13.808 2.512c-1.857-.857-6.128-.79-8.525.13-2.053.787-2.173 6.979-.175 8.977 1.784 1.784 9.168 1.887 10.612.148 1.471-1.773.121-8.317-1.912-9.255m-27.634.314-.323 3.852c-.175 2.12-.066 4.513.24 5.31.403 1.05 1.872 1.357 5.32 1.136l4.756-.304v-9.994zm-17.401.046c-1.914 2.033-2.25 7.162-.582 8.83 2.066 2.066 6.87 2.088 8.913.046 1.73-1.73 2.052-6.112.619-8.377-1.028-1.625-7.548-1.988-8.95-.499m-158.612 1.94c2.543-.904 5.681-.405 8.054 1.967 3.85 3.851 3.156 8.615-1.617 11.084-3.779 1.954-4.274 1.882-7.85-1.127-2.139-1.8-3.076-3.482-3.076-5.505 0-3.215 1.946-5.516 4.489-6.42m-43.567 8.885c2.242-.094 4.282 1.125 5.606 3.685 1.697 3.282 1.15 7.024-1.367 9.292-3.132 2.822-6.657 2.996-9.44.47-3.686-3.345-4.149-6.003-1.606-9.235 2.127-2.705 4.565-4.118 6.807-4.212m504.82 7.61c1.719-.13 3.55.698 5.255 2.513 1.291 1.375 3 2.503 3.787 2.503s2.762-1.128 4.396-2.503 3.803-2.494 4.821-2.494c2.715 0 5.797 4.504 6.558 9.578.9 5.998-3.005 14.304-7.795 16.588-5.225 2.492-8.969 2.87-13.264 1.34-5.056-1.803-9.084-6.236-10.529-11.601-1.272-4.724-.71-7.95 2.19-12.654 1.257-2.04 2.861-3.138 4.58-3.27m-403.786 6.013c.882 0 7.89 2.39 15.572 5.311 16.54 6.288 16.02 5.053 9.033 21.317-2.509 5.84-4.563 11.463-4.563 12.497 0 1.39-.716 1.873-2.752 1.847-2.471-.031-27.198-8.588-30.22-10.455-1.873-1.158-.726-4.907 5.587-18.316 3.832-8.14 6.272-12.2 7.343-12.2m-129.61 3.002c.916 0 4.927 2.83 8.912 6.29 14.389 12.492 37.542 28.777 49.46 34.783 2.87 1.447 5.797 3.107 6.502 3.685 4.889 4.015 43.45 21.768 53.782 24.762 1.375.399 2.95 1.054 3.5 1.46 1.33.98 26.66 9.424 33.001 11 52.542 13.055 108.187 16.04 156.497 8.386 49.271-7.805 88.75-21.283 129.999-44.388 6.584-3.689 12.218-3.617 15.193.203 3.7 4.75 2.664 5.64-19.691 16.865-26.648 13.38-49.649 22.492-71.506 28.336-22.082 5.905-30.242 7.806-42.995 9.994-17.302 2.97-30.287 4.462-44.786 5.163-5.891.285-12.736.65-15.211.803-6.728.418-37.96-1.021-50.504-2.327-28.32-2.948-45.13-6.452-77.999-16.265-33.26-9.93-80.677-33.31-109.836-54.151-14.476-10.347-34.663-26.766-34.663-28.19 0-1.532 7.87-6.409 10.344-6.409m355.618 5.006c2.58 0 3.05.534 4.61 5.246.955 2.888 3.235 9.491 5.06 14.676 2.27 6.445 3.005 9.807 2.328 10.622-1.213 1.461-6.511 3.36-19.017 6.816-5.253 1.452-10.949 2.633-12.663 2.633-2.758 0-3.292-.488-4.655-4.25-.847-2.337-2.745-9.087-4.212-14.999-3.04-12.25-2.796-13.17 3.769-14.279 2.239-.378 8.081-1.994 12.986-3.583 4.904-1.59 10.214-2.882 11.794-2.882m-212.69.139c-2.793-1.495-9.354-1.413-11.323.138-6.921 5.454-6.477 14.43.96 19.442 4.89 3.295 8.604 2.96 12.691-1.127 2.947-2.947 3.39-4.043 3.362-8.247-.035-5.078-1.7-8.072-5.69-10.206m-3.823 3.186c4.63.621 6.548 2.758 6.548 7.287 0 2.306-.755 3.835-2.632 5.311-3.687 2.9-6.994 2.603-10.548-.951-2.424-2.425-2.9-3.57-2.383-5.754 1.029-4.348 4.351-6.518 9.015-5.893m-57.56 1.857c1.94-.196 4.19.447 5.948 1.699 1.555 1.107 7.509 4.297 13.226 7.093s10.776 5.785 11.25 6.632c.523.935.361 2.783-.416 4.71-3.155 7.825-11.204 24.339-12.635 25.926-.868.963-2.514 1.705-3.667 1.644-3.408-.181-31.49-14.957-32.104-16.893-.323-1.016.891-4.223 2.89-7.629 1.896-3.229 5.466-9.696 7.925-14.371 4.013-7.631 4.783-8.53 7.583-8.811m263.34 4.147c-2.586.484-5.056 2.175-6.982 4.996-3.441 5.043-3.04 10.085 1.146 14.27 2.745 2.746 4.178 3.399 7.444 3.399 10.271 0 14.293-13.499 6.077-20.412-2.392-2.013-5.097-2.738-7.684-2.253m-375.079 2.115c2.427-.77 5.6 1.26 13.346 8.525 9.725 9.12 16.283 14.28 36.613 28.798 20.028 14.302 45.581 28.868 68.578 39.096 24.325 10.82 53.866 20.975 55.694 19.147.56-.56 2.274-1.016 3.814-1.016 2.405 0 2.799.397 2.799 2.817 0 1.55.707 5.195 1.57 8.1s1.33 5.917 1.034 6.687c-.914 2.383-6.364 1.482-24.097-3.99-50.88-15.7-90.685-36.113-135.503-69.483-20.032-14.916-33.998-27.375-33.998-30.332 0-1.804 6.574-7.214 10.15-8.35m225.168.923c1.048-1.005 12.777.337 28.429 3.251 1.955.364 2.253 1.034 2.263 5.145.006 2.602-.736 9.759-1.653 15.904-1.27 8.503-2.057 11.26-3.27 11.527-1.958.432-19.588-1.84-27.09-3.491-4.486-.987-5.559-1.618-5.818-3.445-.421-2.964 5.628-27.44 7.14-28.89m152.175 1.072c2.675.255 5.24 1.688 6.373 4.174 1.618 3.551 1.422 4.937-1.118 7.86-2.86 3.292-8.386 4.262-11.499 2.023-2.679-1.926-3.092-7.86-.776-11.166 1.562-2.23 4.345-3.147 7.02-2.891m-258.548.73c-1.816-.27-3.681.15-5.8 1.246-6.717 3.474-7.819 13.064-2.152 18.731 2.293 2.293 3.737 2.854 7.38 2.854 3.957 0 4.844-.429 7.075-3.353 1.956-2.565 2.549-4.52 2.549-8.395 0-4.532-.367-5.372-3.537-8.156-1.934-1.697-3.698-2.658-5.514-2.928m196.453.22c.634-.242 1.95.143 2.919.85 2.51 1.837 7.318 29.545 5.45 31.404-.765.76-6.427 1.682-14.17 2.309-16.619 1.344-19.582 1.317-20.05-.204-.212-.687-.631-7.844-.934-15.904-.408-10.873-.237-14.91.665-15.628.67-.532 6.565-1.283 13.097-1.672 6.532-.388 12.39-.911 13.023-1.154m-197.108 3.723c1.515-.033 3.02.554 4.58 1.755 3.157 2.427 3.572 9.603.675 11.72-7.508 5.49-17.205-5.779-9.91-11.517 1.615-1.27 3.14-1.925 4.655-1.958m454.362.96c1.767.924 2.464 8.609 3.74 31.422 2.528 45.169 2.988 64.34 1.571 66.048-.664.8-1.552 1.45-1.967 1.45-2.643 0-3.194-4.089-4.027-29.694-.48-14.741-1.357-35.771-1.95-46.735-.946-17.515-.89-20.122.453-21.465.885-.885 1.591-1.333 2.18-1.025m-338.015.296c-9.06 3.786-10.16 15.566-1.875 20.061 3.211 1.742 8.558 1.996 11.287.536 2.587-1.384 4.95-6.157 4.95-10.012 0-7.554-7.819-13.318-14.362-10.585m195.576.157c2.098-.451 2.307.342 3.27 1.81 2.408 3.678 10.5 27.54 9.882 29.15-.574 1.494-7.032 4.77-14.87 7.546-2.75.973-6.573 2.427-8.498 3.232-4.885 2.045-8.793 2.876-9.337 1.986-.254-.414-2.6-7.24-5.21-15.166-3.482-10.574-4.474-14.829-3.74-15.997.55-.875 6.799-3.978 13.891-6.899 8.526-3.512 12.513-5.21 14.612-5.662m-124.347.471c-6.138 0-11.868 5.884-11.868 12.183 0 3.754 4.179 8.877 8.968 11 6.624 2.936 14.983-5.59 13.457-13.725-.843-4.496-6.38-9.458-10.557-9.458m-69.954 2.762c2.26-.64 4.776-.534 6.52.61 4.727 3.097 4.141 10.697-.978 12.644-4.068 1.546-6.36 1.176-9.006-1.469-2.678-2.679-2.946-4.11-1.496-7.924.698-1.835 2.7-3.221 4.96-3.861m70.62 1.238c3.365 0 4.707.507 5.91 2.225 2.471 3.528 1.989 8.29-1.08 10.705-3.052 2.4-10.483 2.836-12.238.72-2.552-3.074-2.409-7.162.37-10.464 2.254-2.679 3.372-3.186 7.037-3.186m113.964 5.43c-9.289 1.743-11.484 15.561-3.27 20.57 5.072 3.091 8.4 2.6 12.885-1.885 4.291-4.291 4.805-6.973 2.42-12.681-1.76-4.213-7.17-6.916-12.035-6.004m195.88 1.746c1.272.53 1.621 3.463 1.616 9.042-.006 8.534-2.28 26.365-3.925 30.784a1669 1669 0 0 0-4.147 11.462c-3.75 10.457-10.819 20.827-18.158 26.628-5.021 3.97-7.152 4.71-8.276 2.891-.662-1.072 3.457-8.85 9.514-17.983 10.146-15.301 16.214-30.067 18.38-44.694.698-4.718-.974-6.956-1.94-2.595-2.14 9.659-6.675 20.04-16.385 37.536-5.651 10.182-8.62 14.143-9.984 13.3-.445-.275-1.098-2.674-1.45-5.33-1.779-13.405 9.021-35.18 27.606-55.647 3.678-4.05 5.877-5.924 7.15-5.394m-193.682 1.82c8.256 0 11.053 11.244 3.51 14.112-3.593 1.367-5.698 1.078-8.571-1.182-1.911-1.503-2.632-2.998-2.632-5.43 0-3.878 3.712-7.5 7.693-7.5m-242.134 1.108c1.383-1.383 32.407 7.899 33.804 10.113.899 1.425-3.799 24.534-6.354 31.255-1.327 3.49-.92 3.52-23.303-2.004-15.436-3.808-15.71-3.92-15.71-6.29 0-1.773 10.61-32.121 11.563-33.074m15.036 9.938c-7.744-2.654-17.58 4.9-13.244 15.277.843 2.018 3.004 4.533 4.84 5.652 4.18 2.549 5.38 2.52 10.307-.268 5.698-3.224 7.267-8.18 4.544-14.334-1.516-3.427-3.865-5.442-6.447-6.327m165.974 1.385c1.774 2.427 7.55 20.896 8.164 26.11.63 5.333-.625 6.244-10.316 7.473-4.324.548-11.419 1.67-15.757 2.494-9.53 1.807-8.87 1.798-11.102.166-1.419-1.037-2.265-4.551-3.86-15.942-2.206-15.74-1.907-17.757 2.668-17.705 1.17.013 8.136-.983 15.48-2.217 13.004-2.184 13.393-2.196 14.723-.379m-167.793 2.263c5.744 2.025 8.223 9.182 4.387 12.654-3.633 3.287-11.211 1.39-13.152-3.298-2.136-5.156 3.528-11.201 8.765-9.356m69.723 2.318c4.4.486 11.15.914 15 .952s7.634.476 8.414.97c3.124 1.977 4.494 33.313 1.505 34.46-1.992.764-24.15.542-31.227-.314-2.925-.354-5.75-1.298-6.29-2.106-.539-.807-.75-4.172-.47-7.472.278-3.3.796-9.953 1.154-14.787.902-12.184 1.579-12.843 11.914-11.703m87.494 2.993c-2.638-1.093-3.646-1.014-7.186.582-7.889 3.558-9.625 14.267-3.14 19.368 1.696 1.334 4.084 2.05 6.863 2.05 3.626 0 4.72-.53 7.36-3.537 5.58-6.354 3.686-15.322-3.897-18.463m-83.125 4.138c-1.848.304-3.582 1.374-5.468 3.26-2.902 2.902-3.408 4.09-3.408 8.1 0 3.967.49 5.152 3.113 7.602 4.55 4.25 9.927 4.065 14.491-.5 2.698-2.697 3.399-4.201 3.399-7.277 0-4.525-1.965-7.734-6.013-9.827-2.312-1.196-4.267-1.662-6.114-1.358m75.08.388c3.974-2.055 6.275-1.923 9.412.545 3.302 2.597 3.615 7.948.638 10.926-1.324 1.324-3.339 2.004-5.949 2.004-4.787 0-7.056-2.64-7.056-8.202 0-3.143.484-3.995 2.956-5.273m179.394 2.013c.567-1.477.883-1.474 3.787.028 4.56 2.358 24.495 15.57 30.368 20.125 8.308 6.444 14.657 19.304 9.532 19.304-1.99 0-22.238-16.425-29.482-23.912-2.174-2.248-4.341-4.083-4.812-4.083-.47 0 .524 2.598 2.217 5.773 3.784 7.1 17.417 21.158 26.369 27.2 6.545 4.418 8.224 6.335 7.121 8.119-.618 1-3.114 1.075-5.45.166-2.665-1.038-15.302-11.542-22.563-18.75-5.476-5.435-7.988-8.943-11.157-15.59-4.837-10.143-6.78-16.162-5.93-18.38m-253.366.462c7.236 0 10.834 8.635 5.385 12.921-5.58 4.39-12.764 1.34-12.764-5.421 0-4.41 3.042-7.5 7.38-7.5m-259.97 9.116c8.844-2.65 18.118 3.477 16.617 10.982-.789 3.94 1.371 4.875 11.554 4.997 13.116.157 13.318.283 13.318 7.952v6.447h-26.997l-.295 3.001c-.47 4.854-2.17 8.167-4.821 9.375-1.364.622-4.376 1.127-6.687 1.127-10.946-.01-16.16-10.924-9.615-20.116 2.007-2.82 2.026-3.065.397-5.551-1.252-1.914-1.592-4.02-1.265-7.953.52-6.284 2.291-8.612 7.795-10.26m499.279 4.082c1.102.166 2.457 1.02 3.01 1.903.79 1.261-.534 3.73-6.188 11.5-10.491 14.415-23.02 33.651-28.262 43.4-10.785 20.054-21.955 53.899-24.9 75.422-.609 4.443-1.494 9.872-1.968 12.072-1.399 6.495-3.815 30.384-5.514 54.502-2.383 33.827-3.59 43.332-9.098 72.033-8.673 45.195-26.847 75.238-62.972 104.1-6.545 5.23-14.375 11.326-17.4 13.55-7.109 5.224-29.318 17.818-34.913 19.793-2.385.84-5.064 1.458-5.957 1.376-7.271-.67-10.123-1.886-10.123-4.313 0-.671 3.811-2.922 8.47-4.997 26.422-11.774 50.228-27.486 67.47-44.537 28.118-27.81 34.627-38.926 46.3-79.006 4.106-14.096 6.615-32.13 8.765-63 .594-8.524 1.51-18.649 2.032-22.499 1.935-14.247 3.016-23.377 4.544-38.496 2.503-24.759 3.68-30.82 11.943-61.503 3.407-12.653 11.496-29.862 23.755-50.504 14.853-25.01 27.278-41.355 31.006-40.796m-493.626 1.977c-6.22-.712-8.643 5.687-4.165 11.01 3.168 3.765 3.137 4.225-.462 6.788-3.775 2.688-4.97 7.945-2.623 11.527 3.434 5.24 9.468 1.798 8.063-4.6-1.237-5.631.349-6.226 14.556-5.44 10.385.574 12.799.446 13.79-.748 2.045-2.465-.607-3.4-11.656-4.092-13.412-.84-13.986-1.169-14.362-8.377-.286-5.48-.431-5.758-3.14-6.068m-53.403 11.01c1.011-.195 2.27.943 3.325 3.001.934 1.822 3 5.227 4.6 7.565 2.744 4.012 3.18 4.248 7.74 4.248 5.62 0 6.732.994 7.675 6.89.824 5.152 2.352 6.7 10.714 10.862 3.514 1.75 6.907 3.804 7.536 4.563 1.46 1.76-.054 3.098-9.153 8.1-7.408 4.072-8.783 6.112-8.525 12.709.192 4.894-1.006 5.834-7.472 5.855-5.307.017-6.446.904-13.946 10.77-2.195 2.887-4.378 5.246-4.85 5.246-.944 0-2.472-2.214-6.197-8.996-2.823-5.141-5.652-6.962-10.834-6.983-4.512-.018-5.7-1.411-6.511-7.62-.755-5.783-1.527-6.93-6.28-9.3-7.21-3.595-10.067-5.63-10.077-7.186-.004-.904 2.908-3.33 6.742-5.616l6.752-4.026.498-5.884.5-5.874 6.972-1.007 6.974-1.007 6.096-7.998c3.351-4.4 6.826-8.14 7.721-8.313m259.646 16.772c2.733.385 34.183 19.343 35.18 21.206.558 1.042.878 4.241.712 7.112-.273 4.734-.531 5.248-2.799 5.496-3.187.348-28.157-13.488-32.936-18.25-2.992-2.983-3.488-4.202-3.87-9.477-.447-6.177-.16-6.631 3.713-6.087m21.16 2.041c4.348 0 11.583 1.708 13.577 3.205 1.834 1.378 2.187 5.591.656 7.777-.778 1.11-1.724 2.014-2.106 2.004-.381-.005-4.067-1.93-8.192-4.276-5.329-3.03-7.596-4.904-7.823-6.484-.287-1.996.115-2.226 3.888-2.226m87.568 1.69c2.066.793 1.783 9.601-.388 12.11-.962 1.11-7.824 5.166-15.249 9.005-15.548 8.039-17.158 8.638-18.795 7-1.5-1.5-1.568-8.25-.111-10.972 1.296-2.422 32.521-17.918 34.543-17.142m-26.997.305c7.844 0 8.084 2.109.656 5.875-6.18 3.133-8.294 2.787-8.294-1.34 0-3.354 1.984-4.535 7.638-4.535m-27.533.222c13.346-.322 13.703-.129 14.002 7.334.618 15.414-1.51 163.115-2.365 164.2-1.384 1.754-2.078 1.586-4.636-1.136-1.235-1.314-3.449-2.66-4.923-2.984s-4.766-1.913-7.315-3.537l-4.637-2.956-.6-26.323c-.328-14.476-.711-50.617-.859-80.317l-.268-53.995zm265.548.092c2.122-1.39 2.588-1.38 4.849.102 3.166 2.075 3.15 4.045-.055 8.248-2.904 3.806-5.34 4.224-7.925 1.367-1.56-1.724-1.621-2.37-.499-5.08.707-1.707 2.34-3.79 3.63-4.637m-580.39.693c-2.052 0-15.258 16.06-15.258 18.556 0 1.42 4.31 5.483 11.564 10.889 3.264 2.433 6.651 4.452 7.527 4.489 1.683.07 7.684-6.569 12.368-13.679 2.344-3.559 2.58-4.493 1.496-5.8-2.137-2.574-16.681-14.455-17.697-14.455m428.012 2.457c1.474.615 1.727 2.275 1.727 5.385 0 5.842-.738 6.591-8.515 8.617-11.243 2.928-14.415 1.63-12.543-5.135 1.611-5.823 2.115-6.224 10.252-7.99 4.904-1.064 7.605-1.492 9.08-.877m-111.674 2.734c-6.286-.399-8.684 2.575-5.024 6.234 1.68 1.682 7.063 2.092 9.254.702.756-.479 1.185-2.098.998-3.74-.308-2.7-.65-2.906-5.228-3.196m317.53 3.02c1.924.345 2.872 1.99 2.872 4.941 0 2.196-.887 3.278-4.341 5.302-5.014 2.938-7.336 3.16-10.437.988-3.672-2.572-2.763-4.985 3.15-8.368 3.928-2.248 6.83-3.208 8.755-2.863m-21.567 8.784c.934 0 3.486 1.618 5.67 3.593 4.083 3.687 5.894 3.954 15.231 2.262 1.232-.223 2.088.283 2.31 1.349.351 1.7-.793 2.555-16.857 12.7-4.439 2.803-7.12 5.293-8.247 7.656-.92 1.927-2.345 3.763-3.178 4.083-1.265.485-1.411 2.085-.877 9.725.722 10.341-.765 18.06-5.154 26.72-1.425 2.814-2.344 5.369-2.032 5.68.725.726.55.958 5.468-7.268 2.301-3.85 4.428-8.12 4.729-9.495 2.041-9.344 4.249-10.103 6.031-2.078.899 4.047 1.984 6.02 4.276 7.814 2.268 1.775 3.074 3.24 3.085 5.588.02 4.042.56 4.793 5.736 8.035 2.738 1.715 4.248 3.389 4.248 4.701 0 1.12.666 3.335 1.487 4.923s1.26 3.48.97 4.203c-.618 1.538-12.644 8.487-19.322 11.166-5.432 2.179-23.373 3.144-29.565 1.589-4.099-1.03-12.835-6.358-15.784-9.624-2.807-3.11-4.784-8.936-4.784-14.095 0-4.78 3.406-19.752 4.94-21.714.436-.555 1.737-3.572 2.892-6.705 4.623-12.548 17.652-34.281 24.596-41.027 5.298-5.148 11.987-9.781 14.13-9.781m-351.26.443c.89-.341 6.392 1.94 12.876 5.338 16.665 8.738 20.663 11.161 22.323 13.531 1.794 2.561 1.97 8.818.296 10.493-1.823 1.822-2.438 1.616-14.796-4.886-18.74-9.86-20.23-11.231-21.622-19.932-.489-3.056-.278-4.083.923-4.544m-341.681 1.56c7.137.003 11.287 2.508 14.87 8.96 2.61 4.702 3.562 5.565 6.872 6.253 5.587 1.16 9.246 4.2 11.194 9.3 1.611 4.22 1.614 4.742.027 8.738-1.93 4.86-6.302 8.737-10.907 9.68-4.38.895-4.577 3.544-.573 7.675 2.744 2.831 4.003 3.39 7.62 3.39 2.385 0 5.795-.606 7.574-1.35 3.43-1.432 9.13-7.307 10.935-11.267.596-1.307 1.926-2.383 2.956-2.383 2.626 0 11.791 4.795 12.45 6.511.3.783-.164 3.574-1.035 6.207-2.66 8.042-2.937 13.348-.905 17.29 2.489 4.828 5.197 4.644 6.964-.462 2.968-8.573 9.616-11.935 18.048-9.134 11.05 3.67 15.263 13.844 9.735 23.515-2.403 4.203-2.45 4.6-1.035 8.137 1.943 4.856.615 9.895-3.519 13.374-1.676 1.41-3.446 2.568-3.934 2.568-.489 0-2.41-1.335-4.267-2.965-4.21-3.697-6.37-4.52-15.582-5.948-8.028-1.246-13.825-4.116-18.786-9.292-3.342-3.487-8.322-12.155-8.322-14.482 0-2.078-2.52-2.63-6.29-1.386-5.278 1.742-14.768 1.482-20.781-.572-6.803-2.324-13.518-8.763-17.392-16.68-2.516-5.144-2.818-6.79-2.678-14.53.087-4.8.6-10.283 1.145-12.182 1.928-6.723 1.272-10.79-2.503-15.396-1.925-2.35-3.5-4.756-3.5-5.348s1.51-2.682 3.362-4.646c2.969-3.148 3.953-3.575 8.257-3.574m446.345.998c2.098 0 2.185.292 1.534 5.256-.38 2.887-1.263 6.155-1.968 7.269-.704 1.114-6.95 5.057-13.872 8.755-11.883 6.35-15.437 7.617-16.995 6.06-1.161-1.162-.72-9.893.582-11.518 1.83-2.284 28.115-15.822 30.72-15.822m-48.794.194c-2.378-.17-4.96.218-5.745.869-2.243 1.86-1.769 5.867.822 6.936 1.237.51 3.829.827 5.754.711 3.382-.203 3.5-.347 3.5-4.212v-3.999zm-395.307 4.95c-1.085-.16-2.076.299-3.427 1.303-1.862 1.385-1.865 1.556-.203 4.249 4.842 7.844 5.02 8.917 2.67 15.877-4.985 14.757.859 31.019 13.577 37.757 5.816 3.082 17.371 2.992 23.367-.175 5.272-2.786 6.704-2.37 7.555 2.17 2.228 11.873 13.902 23.795 24.596 25.113 2.475.305 6.745 1.17 9.495 1.93s5.352 1.438 5.782 1.506c1.772.282 1.921-3.35.258-6.438l-1.782-3.306 3.122-3.796c3.651-4.43 4.014-8.366 1.191-12.995-2.431-3.988-5.143-4.869-8.95-2.9-3.925 2.03-4.46 3.055-4.267 8.183.196 5.18-2.032 6.882-7.961 6.086-6.095-.817-10.81-4.349-13.495-10.113-2.857-6.136-2.92-8.42-.397-15.59 1.064-3.026 1.95-6.289 1.968-7.251.054-2.89-2.738-1.983-5.246 1.708-4.376 6.44-11.568 10.55-18.436 10.53-4.878-.014-13.09-2.514-15.6-4.748-4.22-3.755-6.19-13.817-3.435-17.558 1.017-1.381 1.87-1.524 4.562-.748 4.211 1.214 5.893.54 7.786-3.122 3.168-6.126-2.184-13.659-8.839-12.44-4.398.804-5.357-.064-6.17-5.58-.517-3.514-1.465-5.351-3.722-7.25-1.736-1.461-2.914-2.24-3.999-2.401m720.419.333c1.347-.58 2.272-.211 4.165.508 3.528 1.342 4.854 5.176 3.51 10.17-1.183 4.394-6.807 11.199-11.083 13.41-3.852 1.992-5.175 1.817-7.879-1.062-1.507-1.604-3.448-2.511-5.421-2.521-7.097-.036-7.19-3.609-.194-7.574 2.03-1.15 6.633-4.638 10.233-7.75 3.553-3.07 5.322-4.6 6.669-5.18m-325.112 9.717c-6.18-.445-9.407 3.172-5.93 6.65.73.729 3.115 1.124 5.754.951 4.427-.29 4.507-.357 4.507-3.796 0-3.412-.116-3.502-4.331-3.805m-52.037 3.223c1.677-1.036 25.04 11.077 29.251 15.166 2.89 2.806 3.612 4.272 3.612 7.269 0 2.063-.541 4.29-1.201 4.95-1.589 1.59-1.246 1.687-9.597-2.78-18.403-9.843-20.36-11.154-21.797-14.593-1.697-4.06-1.829-9.047-.268-10.012m390.846 2.586c1.603 0 4.018 4.356 4.018 7.25 0 3.249-3.916 11.467-6.641 13.929-1.024.925-4.338 2.832-7.361 4.24-6.578 3.06-7.747 3.126-11 .581-1.375-1.075-3.417-1.964-4.545-1.976-1.995-.022-4.452-1.735-4.452-3.104 0-.373 3.872-2.855 8.608-5.514 4.737-2.658 11.28-7.215 14.538-10.122 3.26-2.908 6.337-5.284 6.835-5.284m-292.425.38c.995.381 1.44 2.111 1.44 5.532 0 6.616-1.883 8.552-15.082 15.507-11.022 5.808-14.282 6.663-15.304 4-.747-1.947-.766-7.226-.037-9.939.645-2.4 26.7-15.976 28.983-15.1m259.461 6.723c1.254-.025 2.266.556 3.325 1.727 2.5 2.762 2.012 4.981-1.588 7.177-3.623 2.208-5.427 2.418-8.008.914-2.926-1.704-2.166-5.696 1.505-7.934 2.02-1.232 3.512-1.86 4.766-1.884m-306.28.896c-5.995 0-8.7 3.889-5.162 7.426 1.855 1.855 7.515 2.08 9.227.37.66-.66 1.2-2.143 1.2-3.298 0-2.9-1.872-4.498-5.264-4.498m-47.362 11.194c1.271-1.271 2.621-.857 10.788 3.307 5.135 2.618 11.137 5.955 13.337 7.416 3.772 2.505 3.999 2.94 3.999 7.62 0 6.581-1.65 6.74-11.998 1.145-14.969-8.091-16.145-9.047-16.902-13.78-.497-3.106-.286-4.646.776-5.708m90.57 3.187c1.925.059 2.19 1.76 1.81 5.135-.278 2.465-1.13 5.223-1.885 6.133s-6.022 3.836-11.702 6.502-10.914 4.849-11.637 4.849c-2.931 0-3.499-8.048-.758-10.751.976-.963 6.551-4.178 12.386-7.149 6.272-3.193 9.86-4.779 11.785-4.72m-42.653 1.062c-.8.306-2.54.554-3.87.554-2.026 0-2.42.498-2.42 3.039 0 2.203.61 3.28 2.244 3.953 4.01 1.65 7.047.778 7.851-2.254.834-3.145-1.378-6.224-3.805-5.292m311.682 3.048c2.42.768 3.705 4.982 2.106 6.908-2.391 2.882-8.264 2.498-10.935-.72-2.854-3.438 3.488-7.884 8.83-6.188m-356.477 11.868c1.929-.74 15.493 5.47 21.714 9.938 3.687 2.648 3.88 3.042 3.593 7.5-.247 3.826-.674 4.75-2.3 4.969-2.31.312-18.035-8.562-21.206-11.97-3.002-3.226-4.094-9.557-1.801-10.437m40.897 1.08c-1.84.463-2.392 1.268-2.392 3.492 0 1.594.56 3.136 1.247 3.427 2.558 1.08 8.065.114 9.144-1.608 2.296-3.665-2.329-6.733-7.999-5.31m317.003 1.423c5.701-2.598 11.945 2.892 8.11 7.13-1.22 1.348-3.082 2.005-5.681 2.005-3.127 0-4.08-.46-4.978-2.43-1.407-3.086-.575-5.282 2.549-6.705m-273.898.37c2.223-.086 3.083 1.222 3.307 3.897.417 4.995-2.324 7.81-13.023 13.356-4.796 2.485-9.627 4.516-10.733 4.516-2.758 0-3.648-4.143-1.884-8.793 1.232-3.246 2.58-4.305 10.825-8.506 5.7-2.904 9.285-4.385 11.508-4.47m-40.593 13.272c-4.501 0-5.878 1.528-4.525 5.052.771 2.01 7.99 1.908 9.688-.139 2.237-2.694-.096-4.913-5.163-4.913m329.952.905c1.57.97 1.44 5.102-.203 6.465-3.676 3.05-10.659 1.887-10.659-1.773 0-3.824 7.222-6.942 10.862-4.692m-368.836 2.586c3.063 0 19.752 8.71 20.939 10.926 1.41 2.634 1.318 8.407-.157 9.883-1.724 1.724-2.45 1.532-11.084-2.882-8.712-4.453-11.71-8.075-11.72-14.168-.004-3.097.354-3.759 2.022-3.759m78.055 2.29c1.661.12 1.98 1.593 1.45 4.47-1.236 6.704-2.76 8.599-10.03 12.46-3.85 2.046-8.232 3.733-9.745 3.75-2.626.03-2.752-.185-2.752-4.812 0-5.753.461-6.236 11.591-12.173 4.823-2.572 7.825-3.813 9.486-3.694m-232.621 3.316c3.126.553 5.541 3.284 5.541 7.897 0 4.061-1.4 5.87-8.719 11.25-7.962 5.852-10.328 7.138-12.025 6.53-3.145-1.128-.178-12.36 5.412-20.486 2.83-4.113 6.664-5.743 9.79-5.19m193.478 5.394c-4.75 0-4.932.108-4.932 2.836 0 1.558.298 3.134.665 3.5 1.25 1.25 8.083.672 9.292-.785.662-.798.911-2.374.554-3.5-.54-1.7-1.486-2.05-5.579-2.05m-375.458 4.637c1.65-.054 3.315 2.311 5.994 7.075 5.175 9.203 5.6 9.599 11.832 10.797 5.167.993 5.203 1.022 5.468 4.996.474 7.115 1.048 8.021 8.247 12.94 4.875 3.331 6.987 5.384 6.78 6.586-.166.96-3.223 3.736-6.798 6.17l-6.502 4.424-1.026 6.437-1.025 6.447-5.458.305c-6.445.366-7.915 1.493-12.238 9.356-1.75 3.185-3.762 6.003-4.461 6.271-.737.283-3.7-2.751-7.057-7.222l-5.79-7.713-5.265-.304c-5.766-.333-6.47-1.096-7.648-8.368-.593-3.665-2.133-5.378-10.899-12.118-4.929-3.79-4.657-5.836 1.183-9.014 7.541-4.105 10.187-7.016 10.187-11.213 0-5.996 1.37-7.481 6.909-7.481 5.66 0 6.001-.314 11.647-10.9 2.633-4.937 4.27-7.417 5.92-7.471m340.444 4.369c1.033 0 5.077 1.65 8.996 3.666 7.395 3.804 8.12 4.794 8.433 11.545.137 2.967-.14 3.318-2.845 3.575-3.93.373-15.602-7.158-16.893-10.899-1.261-3.655-.02-7.887 2.309-7.887m-148.776.47c5.063-.855 7.583.1 9.366 3.547 3.493 6.756.398 13.052-8.239 16.764-15.296 6.573-16.376 6.726-17.706 2.466-.386-1.238-1.57-2.72-2.632-3.288-3.268-1.749-2.19-4.284 4.24-9.984 8.224-7.292 10.509-8.75 14.971-9.504m341.137 1.127c2.066-1.28 3.678.476 3.704 4.027.023 3.29-2.403 4.81-4.434 2.78-2.027-2.026-1.672-5.318.73-6.807m-120.726.444c3.843 3.189.424 9.09-8.035 13.863-3.02 1.704-6.65 3.094-8.063 3.094-2.437 0-2.552-.24-2.263-4.673l.305-4.683 8.303-4.396c6.684-3.544 8.589-4.172 9.753-3.205m-182.302.295c2.184-1.356 20.957-1.268 28.742.13 4.125.74 10.884 1.895 15.01 2.567 8.561 1.396 27.681 7.559 39.484 12.728 16.485 7.22 31.574 15.812 51.066 29.066 19.293 13.119 38.698 21.26 66.445 27.884l7.5 1.792.314 3.814c.173 2.1-.216 4.469-.869 5.255-.652.787-1.697 1.365-2.318 1.293-38.428-4.444-46.326-7.616-90.735-36.51-21.744-14.147-28.42-18.108-35.994-21.345-18.583-7.941-44.145-15.008-54.28-15.008-2.688 0-8.912-.537-13.827-1.192-8.202-1.092-9.053-1.419-10.363-3.953-1.759-3.4-1.814-5.504-.175-6.52m145.746 3.16c-3.947 0-4.542.29-4.83 2.327-.182 1.277-.074 2.988.24 3.805.408 1.066 1.774 1.403 4.83 1.182 4.142-.3 4.258-.41 4.258-3.814 0-3.481-.022-3.5-4.498-3.5m248.553.332c1.643-.42 4.06.028 7.648 1.237 4.709 1.586 7.513 1.948 11.351 1.469 8.267-1.033 17.241.867 20.92 4.433 3.166 3.068 5.896 3.856 7.029 2.023 1.173-1.898 6.674-4.13 12.46-5.062 13.505-2.175 25.933 7.716 26.082 20.754.08 6.962 1.654 12.394 4.434 15.295 2.993 3.124 2.871 5.037-.592 9.44-4.188 5.324-15.794 2.497-19.839-4.831-1.021-1.85-3.056-3.395-5.579-4.249-5.261-1.78-8.469-5.527-8.469-9.892 0-9.063-6.308 1.405-7.841 13.014-.595 4.503-.955 5.047-3.843 5.874-1.75.502-4.333.622-5.745.268-2.086-.524-2.575-1.244-2.595-3.87-.052-6.889-3.354-17.733-5.403-17.733-.655 0-2.225 1.393-3.482 3.094-4.253 5.752-12.057 7.441-17.9 3.88-4.275-2.607-6.489-7.813-5.662-13.329.525-3.5.274-4.516-1.533-6.15-3.048-2.76-5.175-8.368-4.442-11.703.494-2.252 1.36-3.543 3.001-3.962m-100.84.96c2.733 1.186 5.39 4.06 7.62 8.47 3.439 6.796 3.842 15.713.97 21.501-.991 1.998-2.282 3.775-2.863 3.954-1.446.442-4.334-2.916-9.643-11.213-7.432-11.617-8.493-17.022-4.147-21.05 2.529-2.343 5.331-2.848 8.063-1.662m116.366 6.604c-11.81.181-13.013.994-8.164 5.523 2.67 2.495 3.084 3.572 3.084 7.98 0 3.766.528 5.626 2.005 7.103 3.153 3.153 5.819 2.448 11.028-2.928 5.512-5.69 7.279-5.76 11.914-.48 2.002 2.279 3.323 5.287 4.129 9.384.652 3.316 1.5 6.022 1.884 6.022s1.228-2.295 1.875-5.099c1.513-6.555 5.6-12.26 10.742-15.018 7.448-3.995 11.302-.947 8.414 6.65-1.507 3.963.648 7.718 4.923 8.59 1.874.382 3.865 1.526 4.424 2.54s2.465 3.301 4.24 5.089c5.446 5.487 7.632 3.578 5.107-4.461-.827-2.633-1.472-7.488-1.432-10.788.128-10.601-5.767-17.463-15.71-18.288-6.71-.556-11.148.902-16.386 5.385-4.499 3.851-5.004 3.787-9.383-1.2-4.048-4.611-10.036-6.199-22.694-6.004m-134.228 4.544c3.28 1.36 9.345 9.142 14.851 19.063 3.372 6.076 3.317 7.999-.23 7.999-1.57 0-2.8.9-3.667 2.678-.718 1.472-1.76 2.824-2.31 3.002-1.25.404-10.684-10.13-16.504-18.426-3.838-5.47-4.262-6.584-3.418-8.996.545-1.556 2.527-3.6 4.554-4.692 3.143-1.692 3.97-1.769 6.724-.628m-506.833 1.062c-1.176 0-10.467 9.87-13.457 14.298-4.262 6.308-4.197 6.42 9.762 17.031 5.453 4.146 6.322 4.329 9.282 1.903 3.397-2.783 12.395-15.194 12.395-17.096 0-.96-1.463-3.113-3.25-4.794-4.448-4.18-13.746-11.342-14.732-11.342m377.222.194c-4.749-.343-5.917.963-4.812 5.366.578 2.302 1.057 2.52 4.858 2.245 4.094-.297 4.212-.407 4.212-3.805 0-3.405-.116-3.506-4.258-3.806m-172.494.379c2.964-.689 5-.51 6.696.397 2.508 1.342 4.563 4.953 4.563 8.026 0 4.84-9.435 10.257-21.003 12.063-3.025.472-6.463 1.14-7.639 1.487-2.78.82-3.614-.677-2.798-5.025.433-2.308.277-3.519-.453-3.519-.61 0-1.108-.934-1.108-2.069 0-1.624 2.02-3.017 9.495-6.557 5.395-2.556 9.283-4.114 12.247-4.803m204.46.425c2.521 0 3.982 4.162 2.725 7.767-.708 2.032-2.56 3.618-6.484 5.542-5.338 2.618-9.42 3.382-10.778 2.023-.92-.919-.818-6.553.147-8.073 1.076-1.694 12.106-7.26 14.39-7.26m-63.701.148c1.713.225 4.13 1.158 7.398 2.807 5.932 2.995 7.093 4.39 7.093 8.507 0 3.42-2.083 4.728-5.052 3.177-9.714-5.075-13.98-9.494-12.607-13.07.445-1.16 1.454-1.646 3.168-1.421m-183.208 1.431c.92-.494 2.127-.419 3.583.36 2.226 1.192 7.49 12.058 9.052 18.685 5.517 23.42.952 42.397-14.169 58.899-6.136 6.697-10.055 8.354-11.166 4.729-.939-3.062 1.15-9.392 4.165-12.626 5.47-5.866 9.863-15.52 12.608-27.7.99-4.39-1.302-19.908-3.898-26.396-3.155-7.886-2.939-14.47-.175-15.95m87.272.425c1.863.406 4.883 1.889 9.532 4.544 15.18 8.673 13.97 8.231 15.664 5.68.813-1.224 2.269-2.226 3.233-2.226.963 0 5.651 2.983 10.418 6.632l8.664 6.64 2.364-2.216c2.194-2.06 2.554-2.109 5.21-.72 1.568.82 6.295 4.458 10.51 8.081s8.14 6.586 8.719 6.586 1.526-.905 2.115-2.005c.588-1.1 1.796-1.994 2.678-1.994.883 0 5.976 4.286 11.315 9.531 8.406 8.26 9.877 9.33 10.981 7.999 2.237-2.696 4.43-1.69 11.056 5.043 3.56 3.616 7.696 7.46 9.19 8.543 2.503 1.814 2.9 1.85 5.09.416 2.286-1.499 2.763-1.303 12.893 5.449 10.8 7.199 13.16 8.119 14.159 5.514 1.008-2.626 4.275-1.653 15.729 4.683 10.63 5.88 11.239 6.087 12.543 4.304 1.106-1.513 1.884-1.685 4.045-.924 2.996 1.055 4.019 3.724 4.507 11.776l.314 5.163-3.297.102c-1.815.055-3.82.614-4.452 1.247-1.764 1.764-2.471 1.544-14.205-4.48-10.906-5.599-10.97-5.62-12.377-3.5-.777 1.17-1.785 2.133-2.244 2.133-.458 0-5.96-3.15-12.22-7s-11.898-7.002-12.533-7.002-1.714.895-2.401 1.995-1.867 2.005-2.623 2.005-5.18-3.599-9.827-7.999c-8.526-8.07-10.632-9.243-11.684-6.502-1.256 3.273-4.644 1.337-12.275-7.001-7.5-8.196-11.122-10.307-12.857-7.5-.34.55-.996.997-1.459.997-1.033 0-15.814-11.909-18.445-14.86-2.463-2.765-3.391-2.688-4.784.369-.626 1.375-1.77 2.494-2.549 2.494s-5.996-3.598-11.591-7.999l-10.179-7.998-2.115 2.604c-2.689 3.303-4.39 2.826-13.004-3.694-10.821-8.19-14.98-9.708-15.554-5.662-.408 2.877-4.299 3.61-5.643 1.062-1.444-2.736-3.422-13.237-2.799-14.86.41-1.067 1.158-1.202 2.956-.518 2.701 1.027 4.664-.246 4.664-3.03 0-1.642.704-2.308 2.568-1.902m238.902 11c4.768 0 5.517.536 19.275 13.744 6.107 5.862 6.965 9.254 2.328 9.254-2.278 0-3.003.505-3.251 2.254-.368 2.592-3.307 3.32-6.327 1.57-4.815-2.792-17.3-12.877-18.823-15.203-3.954-6.034-.685-11.619 6.798-11.619m-110.779 1.173c-1.545-.177-3.456.22-4.248.878-1.495 1.24-1.978 6.076-.73 7.324.393.393 2.304.588 4.249.425 3.409-.287 3.537-.448 3.537-4.304 0-3.642-.249-4.03-2.808-4.323m29.104 2.965c1.003-.02 1.523.595 2.188 1.838 1.848 3.452-1.017 8.344-6.354 10.853-7.1 3.337-8.626 2.92-8.626-2.346 0-3.576 1.571-5.286 7.702-8.368 2.597-1.306 4.086-1.958 5.09-1.977m-193.22 3.14c4.287.66 7.12 2.572 8.423 5.717 1.577 3.808.345 7.074-3.658 9.699-2.205 1.446-5.23 1.864-15.295 2.096-6.9.16-13.154-.125-13.9-.628-.922-.621-1.147-1.886-.693-3.953.41-1.861.169-3.838-.619-5.098-1.78-2.851-.68-3.62 8.609-6.04 7.109-1.854 12.845-2.452 17.133-1.793m261.53 9.717c3.094 0 9.777 3.258 22.176 10.806 5.988 3.645 6.599 5.021 2.956 6.668-1.371.62-2.248 2.055-2.439 4-.355 3.629-2.4 4.087-8.294 1.865-2.2-.829-7.139-2.677-10.972-4.1-3.834-1.424-8.001-3.614-9.255-4.868-4.958-4.958-1.14-14.371 5.828-14.371m55.334.415c1.127.513 1.56 2.318 1.56 5.542 0 4.602-.402 5.472-4.848 10.381-2.669 2.947-6.155 8.012-7.75 11.26-2.591 5.277-2.9 6.912-2.872 15.405.032 9.437.712 12.273 5.754 24.005 1.21 2.814 1.28 4.177.36 6.992-1.537 4.7-4.674 5.173-7.555 1.127-6.071-8.527-10.057-21.716-10.076-33.325-.02-11.868 10.427-32.65 19.691-39.16 2.784-1.957 4.608-2.74 5.736-2.227m-124.744 3.307c1.635.627 1.699 4.48.102 6.077-2.546 2.546-10.07.07-8.33-2.743 1.048-1.697 6.618-3.952 8.228-3.334m-156.912 6.909c11.124 1.238 22.503 4.136 33.213 8.46 21.715 8.768 32.173 13.992 45.072 22.518 5.736 3.79 10.885 7.123 11.435 7.398s3.688 2.244 6.973 4.378c10.828 7.034 32.97 17.614 48.416 23.127 13.97 4.986 19.047 5.876 35.106 6.151 8.525.146 15.78.284 16.117.305 1.03.065 4.064 8.885 3.704 10.77-.247 1.291-1.681 1.944-5.33 2.428-7.105.944-12.352.8-25.99-.72-15.445-1.722-33.494-6.457-47.501-12.46-4.125-1.767-10.117-4.265-13.319-5.55-6.494-2.608-17.976-9.055-30.46-17.097-4.557-2.935-8.483-5.338-8.72-5.338-.235 0-7.519-3.89-16.181-8.645s-18.683-9.855-22.278-11.333c-8.15-3.35-25.223-8.678-30.544-9.54-7.559-1.227-7.5-1.18-7.5-6.614 0-7.946.992-8.995 7.787-8.238m-59.62.166c2.265-.827 24.41.91 26.61 2.087 3.943 2.11 5.225 4.192 5.209 8.442-.017 4.744-.58 5.903-3.667 7.528-4.081 2.148-15.673.596-25.769-3.446-6.755-2.704-8.037-4.53-4.507-6.419 1.65-.882 1.916-1.717 1.413-4.396-.431-2.302-.218-3.457.712-3.796m489.331 10.206c1.258 0 6.456 5.815 11 12.302.904 1.291 3.217 2.27 6.622 2.808 2.876.455 5.593 1.4 6.041 2.106s.821 3.68.831 6.604c.009 2.923.466 6.157 1.016 7.186s3.926 3.756 7.5 6.068c3.65 2.36 6.484 4.914 6.465 5.818-.018.886-3.057 3.879-6.751 6.65-6.696 5.025-6.723 5.06-7.759 11.5l-1.034 6.455h-6.06c-7.063 0-7.853.518-14.047 9.2-2.474 3.466-4.84 6.308-5.256 6.308-1.283 0-3.723-3.275-6.345-8.507-3.184-6.352-5.914-8.883-8.645-8.016-4.081 1.295-5.754-.186-6.4-5.644-.711-5.998-1.51-6.996-10.668-13.457-3.807-2.685-6.934-5.557-6.955-6.382s2.488-3.296 5.579-5.495c9.642-6.863 9.491-6.671 10.206-12.525l.665-5.477 6.234-.295c6.08-.29 6.309-.409 9.116-4.508 1.583-2.311 3.847-6.113 5.034-8.45 1.186-2.338 2.81-4.25 3.611-4.25m-209.707.48c2.6-.267 5.762.2 9.79 1.376 3.806 1.11 9.51 2.737 12.673 3.611 5.715 1.58 6.89 2.986 4.498 5.385-.688.69-1.247 2.694-1.247 4.452 0 3.042-.193 3.199-4 3.316-2.2.067-5.127-.016-6.502-.194s-6.002-.61-10.28-.96c-6.268-.514-8.355-1.125-10.75-3.141-3.744-3.15-3.972-7.416-.582-10.806 1.77-1.77 3.802-2.772 6.4-3.039m-284.232 5.135c3.381-1.297 25.231 8.031 28.475 12.155 2.874 3.655 2.58 8.605-.665 11.157-2.542 2-6.24 2.533-9.366 1.349-10.95-4.148-23.995-11.693-23.995-13.873 0-.763.895-1.945 1.995-2.632 1.313-.82 2.004-2.336 2.004-4.406 0-1.926.603-3.386 1.552-3.75m92.047 13.3c2.777-2.304 9.942 1.515 8.737 4.655-.318.83-2.156 2.16-4.082 2.965-4.325 1.807-5.898 1.841-6.548.148-.76-1.982.337-6.476 1.893-7.768m-100.203 2.485c2.13-.817 12.864 5.054 21.816 11.933 6.771 5.203 7.387 13.681 1.182 16.274-3.674 1.535-3.455 1.529-8.395.37-2.513-.59-5.687-3.092-11.25-8.867-7.758-8.053-9.06-10.776-6.253-13.106.825-.685 1.496-2.333 1.496-3.658s.632-2.65 1.404-2.946m-160.801.074c3.657 1.528 3.953 2.32 4.867 12.792 1.039 11.883 3.628 14.967 6.863 8.183 3.12-6.542 11.701-8.023 19.331-3.334 3.354 2.061 5.339 6.226 5.339 11.212 0 2.186.976 3.922 3.5 6.235 3.118 2.856 3.5 3.76 3.5 8.275 0 2.788-.525 6.22-1.163 7.62-1.406 3.087-4.735 3.293-9.837.62-2.615-1.371-6.42-1.943-15.064-2.264-11.016-.408-11.877-.6-18.093-4.017l-6.53-3.584-5.403 3.122c-4.984 2.88-6.025 3.104-13.273 2.844-7.937-.284-10.468-1.205-15.48-5.615-3.763-3.311-5.836-8.522-6.585-16.56-.418-4.486-1.675-9.663-3.131-12.876-1.34-2.954-2.438-6.203-2.438-7.222 0-3.004 5.487-5.2 11.711-4.683 4.718.391 5.922.978 9.763 4.747 3.044 2.988 4.897 4.101 6.077 3.649.997-.383 3.546.384 6.18 1.856 2.466 1.379 4.825 2.304 5.236 2.05s1.023-2.772 1.358-5.597c.334-2.824 1.075-5.704 1.653-6.4 1.683-2.029 7.924-2.597 11.619-1.053m462.647.027c13.667.808 16.186 1.58 15.212 4.646-.434 1.37.097 2.814 1.644 4.461 1.988 2.116 2.095 2.62.84 3.833-.793.768-5.495 1.932-10.445 2.586-20.376 2.694-23.646 2.344-25.566-2.706-1.358-3.571.567-9.944 3.602-11.933 2.085-1.366 4.301-1.502 14.713-.887m201.598 2.947c-1.357-.43-2.845.127-4.563 1.708-4.653 4.285-12.284 13.922-12.284 15.517 0 .865 3.424 4.893 7.601 8.95s8.121 7.38 8.765 7.38 4.65-3.263 8.904-7.25c5.3-4.97 7.73-7.976 7.73-9.55 0-2.533-12.634-15.638-16.153-16.755m-669.343 4.054c-1.736 0-2.075.862-2.577 6.503-.688 7.722-3.597 13.834-7.73 16.246-5.768 3.365-8.01 1.948-5.69-3.602 2.65-6.343-1.841-11.242-9.606-10.474-2.993.296-3.546-.089-5.68-3.925-1.507-2.71-3.068-4.249-4.295-4.249-2.342 0-2.413 1.934-.554 14.298 1.997 13.28 7.153 19.657 15.932 19.691 4.045.016 7.643-1.523 14.38-6.133 5.197-3.554 6.422-3.562 8.988-.092 1.122 1.519 4.397 4.038 7.278 5.606 4.555 2.48 6.628 2.924 15.895 3.372 5.862.283 11.308.861 12.1 1.283 2.012 1.074 4.054.086 4.054-1.958 0-1.762-1.638-3.674-5.957-6.955-2.097-1.592-2.409-2.56-2.161-6.585.232-3.773-.164-5.21-1.968-7.13-4.591-4.887-11.446-1.554-10.714 5.209.421 3.889-3.263 5.207-9.208 3.288-6.122-1.976-7.94-4.996-9.32-15.489-1.031-7.849-1.405-8.904-3.167-8.904m274.923.62c1.26.024 2.015.747 2.66 2.16 1.56 3.424-.358 7.234-5.154 10.262-2.28 1.44-5.671 2.865-7.537 3.168l-3.39.554v-4.48c0-5.001 1.047-6.323 7.703-9.67 2.685-1.35 4.457-2.02 5.718-1.995m-119.202 4.876c.55 0 5.114 3.642 10.141 8.09 12.69 11.23 15.178 16.466 10.188 21.456-2.897 2.897-7.949 3.27-11.416.84-2.436-1.705-18.13-20.95-18.13-22.23 0-1.498 2.446-3.15 4.673-3.15 1.599 0 2.47-.75 2.91-2.503.344-1.375 1.083-2.503 1.634-2.503m329.471 4.71c.72.276 1.312 1.783 1.312 3.344 0 2.11.698 3.176 2.743 4.156 1.513.725 2.752 1.932 2.752 2.679 0 .758-5.07 3.676-11.499 6.622-6.325 2.898-13.094 5.5-15.036 5.782-5.025.729-9.462-1.417-10.788-5.219-2.548-7.308 2.763-11.77 18.27-15.34 6.017-1.387 11.527-2.3 12.246-2.024m-192.324 1.469c-3.205.366-4.462 3.81-2.327 6.382 1.452 1.75 7.093 1.903 8.756.24.66-.66 1.2-2.227 1.2-3.482 0-2.543-2.802-3.692-7.629-3.14m-17.853 5.117c1.565.275 2.088 2.023 2.281 5.357.337 5.804-.399 6.626-10.51 11.72-5.968 3.007-5.37 2.865-7.196 1.71-1.116-.707-1.217-1.993-.498-6.217.888-5.214 1.039-5.398 7.407-9.116 4.345-2.536 6.95-3.73 8.516-3.454m-130.673.96c1.2.431 2.78 1.804 4.821 4.138 6.036 6.904 10.539 15.06 10.539 19.1 0 8.676-8.307 10.504-14.769 3.252-3.206-3.598-4.168-2.49-2.42 2.807 1.012 3.067.933 3.85-.572 5.514-1.758 1.943-4.918 2.587-5.782 1.183-.976-1.587-1.85-10.341-1.266-12.672.397-1.579 1.444-2.558 2.956-2.762 2.343-.316 2.341-.316 1.016-6.77-1.22-5.942-1.176-6.618.508-8.497 1.007-1.124 2.108-2.834 2.447-3.796.502-1.422 1.321-1.928 2.522-1.497m169.049.157c1.093-1.296 3.23-1.103 6.52.444 4.014 1.886 4.58 2.603 6.06 7.693 1.262 4.342 1.37 5.944.461 7.038-1.676 2.02-3.845 1.75-8.552-1.071-2.998-1.797-4.29-3.327-4.748-5.616-.88-4.405-.834-7.192.259-8.488m-12.755 8.48-5.31.304c-5.467.313-6.85 1.7-5.422 5.421.423 1.104 1.828 1.417 5.338 1.192 4.583-.294 4.765-.43 5.07-3.611zm193.506.636c.63.862.926 2.413.656 3.445-.353 1.35.378 2.331 2.604 3.482 1.704.881 3.095 2.203 3.095 2.947 0 1.403-6.506 6.684-15.988 12.967-8.303 5.503-15.242 4.948-18.565-1.477-1.992-3.854-.5-9.017 3.38-11.712 3.563-2.473 11.405-6.382 18.177-9.051 4.938-1.947 5.613-2.006 6.641-.6m-218.656 7.879c1.634.283 2.013 2.041 2.013 5.412 0 5.8-.713 6.57-10.723 11.573-7.217 3.607-9.357 4.202-10.612 2.946-.963-.963-.81-4.28.397-8.626.956-3.44 1.81-4.16 9.366-7.906 5.036-2.498 7.924-3.682 9.559-3.4m39.558.96c1.259-.603 3.497.216 7.214 2.217 6.332 3.409 7.156 4.63 7.49 11.102.231 4.473.079 4.838-2.244 5.089-1.454.157-4.81-1.122-8.008-3.057l-5.495-3.334-.305-5.7c-.194-3.689.09-5.713 1.348-6.317m-20.033 5.136c-4.134 0-5.048.326-5.357 1.93-.207 1.075.454 2.54 1.487 3.297 1.022.75 2.76 1.125 3.86.832s2.816-.535 3.815-.545c1.39-.01 1.739-.659 1.497-2.762-.298-2.59-.606-2.752-5.302-2.752m207.139.129c1.935-.768 2.65-.074 3.408 1.589.961 2.109.454 3.8-3.722 12.367-4.373 8.971-5.265 10.128-9.3 12.164-6.466 3.26-11.071 2.461-13.236-2.29-1.917-4.208 1.226-8.514 12.118-16.626 5.642-4.202 8.797-6.436 10.732-7.204m97.146 3.537c1.49.011 3.534 1.13 6.687 3.372 2.737 1.946 7.466 4.216 10.501 5.043 20.66 5.626 24.351 7.954 29.574 18.657l3.048 6.262 7.38-.268c10.294-.374 16.648 1.038 23.774 5.283 6.487 3.864 9.502 7.154 13.263 14.482 2.07 4.034 2.277 5.637 2.013 15.498-.583 21.792-.57 21.942 1.773 25.234 1.207 1.694 2.19 3.713 2.19 4.488 0 1.907-4.85 6.413-8.313 7.722-9.026 3.41-15.735-.806-18.63-11.693-.99-3.725-1.479-4.249-3.943-4.249-7.913 0-12.479-4.672-12.358-12.644.1-6.645 3.467-11.807 8.414-12.894 5.744-1.261 4.907-5.757-1.478-7.952-10.122-3.48-13.336-2.508-20.282 6.133-4.9 6.095-5.363 6.411-8.276 5.68-2.695-.677-10.872-5.08-11.591-6.244-.26-.42.416-3.088 1.496-5.93 2.787-7.334 2.628-15.263-.379-18.758-2.74-3.186-4.876-2.796-6.825 1.256-2.117 4.402-7.35 7.352-13.042 7.352-4.252 0-5.295-.426-7.841-3.214-1.617-1.77-3.222-4.717-3.565-6.548-.814-4.337.238-10.737 2.281-13.855 1.351-2.062 1.434-3.106.48-6.29-1.524-5.085-1.442-8.444.305-12.625.925-2.213 1.854-3.308 3.344-3.298m-582.052 3.63c4.538.647 8.812 1.927 11.813 3.685 5.788 3.393 12.088 10.617 13.567 15.554 1.072 3.577 1.013 5.503-.424 12.487-1.86 9.036-9.832 28.888-14.575 36.298-1.648 2.576-3.48 5.802-4.073 7.177s-2.992 5.634-5.33 9.458c-3.845 6.29-6.388 8.83-17.262 17.29-3.523 2.74-3.587 2.751-6.493.23-2.63-2.28-4.507-2.834-10.963-3.214-3.204-.188-4.575-.721-4.794-1.874-.505-2.669 4.533-7.63 9.569-9.421a985 985 0 0 0 7.407-2.67c1.657-.608 3.101-2.187 3.778-4.128.603-1.73 2.752-4.846 4.775-6.918l3.685-3.768-1.764-2.984c-2.43-4.113-2.004-14.025.98-22.72l2.327-6.78-2.466 2.79c-1.356 1.53-3.432 6.024-4.618 9.993-2.603 8.705-3.581 10.214-5.56 8.571-.777-.645-1.164-1.82-.86-2.614 1.042-2.714-1.73-9.1-5.597-12.875-2.841-2.775-3.87-4.59-3.87-6.872 0-2.23-.982-4.052-3.5-6.493-1.925-1.865-3.5-4.19-3.5-5.172 0-.98-.724-3.616-1.617-5.846-1.534-3.834-1.52-4.163.25-6.142 4.649-5.199 16.767-11.312 25.704-12.959 4.07-.75 8.872-.73 13.41-.083m258.713 4.544c1.92.737 2.13 8.498.295 10.927-.687.91-5.272 3.702-10.187 6.197-8.972 4.554-10.662 5.104-11.896 3.87-1.151-1.151-.726-8.874.582-10.566 1.915-2.478 19.45-11.101 21.206-10.428m18.897 1.663c-5.294 0-8.166 3.786-5.154 6.798.66.66 3.364 1.2 6.004 1.2 4.79 0 4.793-.012 4.793-3.399 0-3.598-1.232-4.6-5.643-4.6m21.419.175c3.28-.465 15.125 6.42 16.283 9.467 1.496 3.936 1.161 9.054-.637 9.745-.87.333-1.663.6-1.755.59-.093-.01-3.765-1.946-8.165-4.303l-7.998-4.286v-5.45c0-4.903.224-5.472 2.272-5.763m285.175.906c-.896 1.448 1.06 5.843 3.5 7.869 1.407 1.167 1.204 1.683-1.884 4.682-5.856 5.684-5.858 14.502-.01 15.97 3.291.826 7.799-2.283 8.285-5.708.864-6.076 7.43-7.71 14.566-3.63 7.694 4.4 10.217 11.512 7.213 20.329-3.707 10.881-1.048 12.994 6.9 5.477 8.285-7.836 13.403-9.38 23.035-6.955 12.414 3.126 22.494 22.444 10.714 20.532-8.175-1.327-12.462 6-6.687 11.425 2.011 1.89 3.55 2.378 7 2.244 4.767-.184 4.703-.273 4.443 6.355-.097 2.483.522 5.222 1.524 6.751 1.252 1.911 2.546 2.577 5.015 2.577 4.342 0 5-1.31 2.9-5.735-1.612-3.398-1.62-4.112-.092-11.222 2.324-10.814 2.15-20.1-.48-25.335-5.784-11.517-11.433-15.362-24.023-16.33-6.71-.515-9.636-.29-13.679 1.053-2.828.94-5.587 1.437-6.133 1.1-.545-.338-1.89-3.634-2.992-7.325-3.527-11.81-10.914-17.733-25.935-20.8-4.194-.856-8.697-2.242-10.003-3.084-1.913-1.234-2.532-1.284-3.177-.24m-306.04 14.112c-5.168-.336-7.496 1.391-6.428 4.757.551 1.737 1.49 2.041 6.151 2.041h5.496l-.314-3.242c-.3-3.098-.532-3.272-4.905-3.556m-21.742.804c3.636 0 5.055 6.807 2.254 10.806-.868 1.239-6.033 4.49-11.48 7.223-10.92 5.48-12.419 5.824-13.846 3.159-1.157-2.163.14-8.878 2.079-10.751 2.076-2.007 19.034-10.437 20.993-10.437m41.424 2.327c1.811-.695 11.929 3.85 17.494 7.86 4.16 2.998 5.572 6.954 3.98 11.14-.559 1.47-1.589 2.657-2.29 2.64-1.47-.033-16.906-8.007-19.22-9.928-2.178-1.808-2.15-10.872.036-11.712m-337.802 7.907c2.244-.613 4.646-.406 6.013.96 1.837 1.837 1.423 5.613-.74 6.77-4.793 2.566-11.755.047-10.334-3.74.726-1.938 2.817-3.378 5.061-3.99m317.742 2.761c-6.255 0-7.61 1.348-5.662 5.625 1.011 2.22 1.652 2.451 5.883 2.18 4.7-.302 4.754-.342 5.062-4.055l.304-3.75zm-331.282 2.873c2.213-.212 4.322.335 6.003 1.856 1.048.948 3.326 2.188 5.07 2.752 4.734 1.53 3.878 3.664-2.825 7.057-3.3 1.67-8.412 4.71-11.36 6.751-8.009 5.546-11.14 4.925-11.14-2.216 0-8.136 7.612-15.564 14.252-16.2m310.408 2.493c2.226-.156 2.924 1.163 3.15 3.88.408 4.93-1.571 6.7-15.72 14.01-14.379 7.43-15.84 7.433-14.51.02.965-5.39 2.622-6.844 14.768-12.94 6.332-3.179 10.085-4.813 12.312-4.97m41.018 1.93c2.484-.953 21.639 9.058 23.312 12.183.736 1.377 1.374 4.417 1.422 6.761.073 3.556-.243 4.297-1.912 4.48-2.362.258-21.436-9.177-23.247-11.5-1.937-2.482-1.628-11.136.425-11.923m-331.134 5.921c2.926-.542 6.162-.273 7.416 1.238 1.695 2.042.34 5.484-2.604 6.603-1.364.519-2.568.888-2.67.813s-1.303-.347-2.678-.6c-3.32-.61-5.006-2.094-5.006-4.415 0-1.743 2.615-3.097 5.542-3.639m311.331 1.986c-6.126-.323-7.249.577-5.754 4.6.767 2.062 1.408 2.275 6.124 2.004 5.113-.294 5.255-.392 5.255-3.307 0-2.943-.107-3.007-5.625-3.297m-325.232 3.768c2.843-.641 3.927-.367 6.262 1.598 1.553 1.306 4.041 2.841 5.533 3.408 4.116 1.565 2.855 4.013-4.175 8.1-3.423 1.99-8.468 5.717-11.203 8.276-7.488 7.003-13.078 6.133-13.051-2.032.023-6.876 9.33-17.703 16.634-19.35m305.901 4.47c3.24 4.323 1.104 9.456-5.745 13.79-2.914 1.844-8.964 5.25-13.448 7.564-8.818 4.553-11.088 5.054-12.007 2.66-.818-2.132.23-9.228 1.608-10.889.622-.75 7.212-4.445 14.639-8.21 13.06-6.624 13.546-6.792 14.953-4.914m41.027 2.79c2.715.305 7.332 2.603 14.935 7.02 10.566 6.136 11.034 6.547 11.887 10.547.64 3.004.54 4.594-.37 5.69-2.078 2.504-1.95 2.556-19.165-7.075-9.846-5.51-10.87-6.575-10.843-11.24.02-3.56.84-5.247 3.556-4.942m-22.804 3.768c-5.072 0-7.598 3.772-4.563 6.807 1.263 1.262 7.524 1.624 10.216.591 2.215-.85 1.98-5.106-.351-6.354-1.064-.57-3.45-1.044-5.302-1.044m-299.25 1.016c2.165 1.798 1.893 6.702-.444 7.952-4.598 2.461-12.072.37-12.072-3.38 0-3.549 9.547-7.036 12.515-4.572m-19.554 7.297c1.935-.51 3.602.292 5.856 2.189 1.634 1.375 3.932 2.503 5.108 2.503s2.41.712 2.743 1.579c.74 1.928-7.161 10.37-13.614 14.547-5.19 3.359-7.935 3.596-11.167.979-1.762-1.427-2.337-2.905-2.337-5.994 0-3.665.623-4.732 5.94-10.105 3.332-3.367 5.536-5.189 7.471-5.698m299.159 1.69c3.278 0 3.85 9.92.785 13.614-1.602 1.93-15.757 10.202-24.264 14.177-7.633 3.568-9.442 3.885-10.252 1.774-.588-1.534 1.182-11.304 2.393-13.199 1.296-2.03 28.747-16.366 31.338-16.366m41.84 4.516c2.256-.716 2.581-.575 18.278 8.322 6.455 3.659 12.021 7.328 12.367 8.156 1.3 3.115 2.218 8.304 1.709 9.633-.859 2.236-5.457 1.438-10.816-1.866-2.75-1.695-8.371-4.85-12.496-7.02-10.344-5.439-11-6.152-11-11.83 0-3.87.369-4.89 1.957-5.395m-20.422.305c-3.1-.443-5.438-.308-6.243.36-1.384 1.148-1.75 5.03-.582 6.198.39.39 3.206.577 6.253.415 5.418-.287 5.532-.356 5.532-3.278 0-2.82-.277-3.025-4.96-3.695m311.046 8.183c-3.1 0-16.993 15.442-15.803 17.568.36.645 3.724 3.633 7 6.456h17.66c3.493-4.21 7.564-7.793 7.564-9.403 0-1.243-1.24-3.351-2.752-4.683a2789 2789 0 0 0-7.066-6.179c-2.37-2.068-5.338-3.759-6.603-3.759m-318.084 8.498-.314 3.26c-.253 2.629.138 3.435 2.005 4.184 2.94 1.18 7.914 1.275 9.633.185.796-.505 1.192-2.189.997-4.23l-.323-3.4h-11.998m-263.424 7.952c-1.543.763-3.462 2.448-5.67 5.006-1.142 1.322-1.732 1.566-2.78 2.568h21.058c-.598-.432-.595-.55-1.229-.989-4.06-2.806-7.642-5.536-7.97-6.068-.694-1.122-1.865-1.28-3.409-.517m410.731 5.55c-.948 0-3.246.955-5.246 2.024h7.583c-.644-.44-2.023-2.023-2.337-2.023m-145.33 1.599c-.212.076-.146.334-.342.425h8.802c-.133-.046-.031-.357-.184-.398-3.2-.857-6.138-.8-8.276-.027" style="fill:maroon;fill-opacity:1" transform="translate(-197.552 -1.606)scale(.1586)"/></g><g style="fill:maroon"><path d="M-26.845 90.822v129.995H103.15V90.822Zm2.3 2.3H100.85v125.396H-24.546Z" style="color:#000;fill:maroon;stroke-width:.811363;-inkscape-stroke:none" transform="translate(45.39 6.384)"/></g><g style="fill:maroon"><g style="font-size:401.225px;font-family:NumbersDeuce;-inkscape-font-specification:NumbersDeuce;stroke-width:17.7708;fill:maroon"><path d="m-211.68 803.352 20.462.802v-84.257q0-40.524 17.253-59.783 16.852-18.456 44.536-18.456t44.937 18.456q17.654 19.66 17.654 59.783v132.404q0 20.463-5.216 36.11 12.84 9.229 33.703 8.025v32.098q-28.888 2.407-47.746-14.043-16.049 16.05-43.332 16.05-28.888-.803-44.536-18.056-17.253-19.259-17.253-60.184V835.05l-20.462-.402zm49.35 5.216q31.697 7.222 55.37 39.32l9.63 13.24 1.203-25.277v-99.504q0-32.098-5.617-47.344-6.821-16.45-27.685-16.45-20.061 0-26.882 16.45-6.018 14.845-6.018 47.344zm35.308 59.381q-16.45-21.265-35.307-27.684 0 29.289 6.42 44.535 6.018 14.846 26.48 15.247 14.444 0 21.666-8.024zv-.401z" aria-label="Q" style="fill:maroon" transform="translate(62.374 -128.718)scale(.22154)"/></g></g><path d="M3.676-9C.433-9 0-5.523 0-5.523S-.433-9-3.676-9C-5.946-9-8-7.441-8-4.5-8-.614-1.42 3.294 0 9 1.352 3.299 8-.614 8-4.5 8-7.441 5.946-9 3.676-9" style="fill:maroon;fill-opacity:1" transform="matrix(3.574 0 0 3.34493 119.072 45.438)"/><g style="clip-rule:nonzero;opacity:.198728;fill:#b3b3b3;fill-opacity:1;fill-rule:nonzero;stroke:#000;stroke-miterlimit:4;filter:url(#a)" transform="translate(0 .616)"><path d="M166.837 235.548c0 3.777-3.087 6.869-6.871 6.869H7.11c-3.775 0-6.861-3.092-6.861-6.87V7.12C.25 3.343 3.336.25 7.11.25h152.856c3.784 0 6.87 3.093 6.87 6.87z" style="fill:#b3b3b3;fill-opacity:1;stroke-width:.5"/></g></svg>