<svg xmlns="http://www.w3.org/2000/svg" xml:space="preserve" width="222.783" height="323.556" viewBox="0 0 167.087 242.667"><defs><filter id="a" width="1.147" height="1.101" x="-.074" y="-.051" style="color-interpolation-filters:sRGB"><feGaussianBlur in="SourceGraphic" result="result3" stdDeviation="4"/><feGaussianBlur in="SourceGraphic" result="result4" stdDeviation="1"/><feBlend in2="result3" mode="darken"/><feComponentTransfer result="result1"><feFuncR tableValues="0 0.2 0.4 0.6 0.8 1 1" type="discrete"/><feFuncG tableValues="0 0.2 0.4 0.6 0.8 1 1" type="discrete"/><feFuncB tableValues="0 0.2 0.4 0.6 0.8 1 1" type="discrete"/></feComponentTransfer><feTurbulence baseFrequency="1" numOctaves="7" result="result0" type="fractalNoise"/><feConvolveMatrix kernelMatrix="-2 0 -2 0 -10 0 -2 0 -2" order="3 3" result="result5"/><feColorMatrix in="result5" result="result4" type="saturate" values="0"/><feComposite in="result1" in2="result4" k1="1.5" k2=".5" k3=".5" operator="arithmetic" result="result2"/><feComposite in2="SourceGraphic" operator="in"/></filter></defs><g style="fill-rule:nonzero;clip-rule:nonzero;stroke:#000;stroke-miterlimit:4"><path d="M166.837 235.548c0 3.777-3.087 6.869-6.871 6.869H7.11c-3.775 0-6.861-3.092-6.861-6.87V7.12C.25 3.343 3.336.25 7.11.25h152.856c3.784 0 6.87 3.093 6.87 6.87z" style="fill:#fff;stroke-width:.5"/></g><path d="M7.989 3.103C7.747-.954.242-8.59 0-10.5-.242-8.591-7.747-.955-7.989 3.103c-.169 2.868 1.695 4.057 3.39 4.057 1.835-.022 3.35-2.8 3.873-3.341.242.716-1.603 6.682-2.179 6.682h5.811c-.576 0-2.421-5.966-2.179-6.682.457.496 1.797 3.258 3.874 3.341 1.694-.001 3.557-1.189 3.388-4.057" style="fill:#000" transform="matrix(2.2448 0 0 2.05244 40.941 123.12)"/><path d="M1726.143 1062.468c-1.52.175-3.002 2.403-4.33 6.68-2.524 8.127-10.185 20.68-16.298 26.699-13.668 13.457-32.328 22.802-45.53 22.802-4.774 0-5.456-1.961-1.106-3.178 12.04-3.37 20.666-6.795 27.418-10.89 10.604-6.432 12.49-8.107 19.025-16.906 9.334-12.57 14.215-25.023 9.812-25.023-1.343 0-2.755 1.703-4.69 5.648-6.607 13.471-14.354 23.303-23.106 29.325-9.477 6.52-25.539 12.765-25.539 9.931 0-1.509 2.934-4.91 4.238-4.91 1.776 0 13.921-6.006 18.583-9.195 7.045-4.818 14.856-13.47 19.237-21.3 4.714-8.427 4.878-9.74 1.188-9.315-2.194.253-3.352 1.46-5.749 5.97-4.41 8.304-12.938 17.35-21.199 22.499-3.992 2.488-7.642 4.37-8.117 4.182-2.11-.832 2.08-7.036 6.496-9.618 6.95-4.065 10.816-7.718 15.284-14.41 4.666-6.987 5.003-8.807 1.622-8.807-1.827 0-3.536 1.573-7.048 6.495-2.551 3.575-5.07 6.505-5.602 6.505-.531 0 .253-2.364 1.741-5.252 1.49-2.887 2.8-5.817 2.92-6.504.175-.985-9.409-1.244-45.19-1.244-24.976 0-45.41.373-45.41.83 0 .946-18.648 35.448-27.658 51.168-3.31 5.775-8.426 15-11.369 20.5s-8.194 14.858-11.664 20.803c-3.47 5.944-6.302 10.993-6.302 11.212 0 .22-1.418 2.782-3.15 5.694-1.733 2.911-6.608 11.592-10.835 19.292-26.532 48.335-35.31 64.14-36.226 65.247-1.383 1.67-3.938 1.574-8.678-.323l-3.925-1.566.156-8.706c.144-7.936-.13-9.276-3.03-15.137-1.75-3.537-2.977-6.755-2.728-7.159.25-.404 3.486-.484 7.186-.175 8.026.67 12.049-.72 18.196-6.274 9.221-8.33 12.056-20.765 7.463-32.734-.375-.977-.078-1.85.718-2.128 18.144-6.354 24.422-12.518 26.304-25.815.766-5.413-1.42-14.462-4.552-18.86-2.18-3.062-2.487-5.85-.654-5.914 14.571-.519 24.6-6.015 29.97-16.427 2.877-5.577 3.464-14.968 1.336-21.374-1.917-5.773-1.521-7.159 2.046-7.159 3.35 0 10.158-3.515 14.234-7.352 3.693-3.477 7.085-9.419 8.218-14.4.619-2.72.447-3.243-1.032-3.243-1.295 0-1.944 1.092-2.423 4.09-1.388 8.682-17.609 20.34-21.291 15.303-2.602-3.557-1.617-6.162 3.114-8.255 4.38-1.937 6.75-4.561 8.043-8.89l.672-2.248h-52.984l-1.189 3.62c-1.925 5.835-.722 12 3.114 15.958 1.817 1.873 4.118 3.664 5.114 3.98 2.555.81 2.293 1.929-1.686 7.14-2.913 3.814-3.501 5.422-3.501 9.545 0 6.574 2.228 10.953 6.919 13.589 4.827 2.713 9.027 2.744 14.206.101 5.513-2.812 8.136-8.693 7.693-17.237-.316-6.116-.282-6.2 2.45-6.514 2.411-.277 3.02.238 4.727 3.998 2.302 5.072 2.366 6.03.875 12.982-.927 4.325-2.071 6.172-6.403 10.401-6.298 6.15-11.61 7.903-20.969 6.9-5.822-.623-6.23-.531-7.822 1.899-2.35 3.588-2.192 4.25 2.322 9.379 3.708 4.212 7.002 11.918 7.002 16.399 0 .98-.903 4.182-2 7.112-3.261 8.718-12.168 15.745-19.955 15.745-2.353 0-3.146-.531-3.62-2.422-1.037-4.13-.125-5.95 3.307-6.652 7.052-1.443 12.253-7.484 12.263-14.225.004-4.59-1.767-8.195-5.98-12.198-2.734-2.599-3.884-2.995-8.586-2.949-6.372.062-9.773 2.135-13.203 8.043-1.505 2.594-2.2 5.26-2.063 7.942.357 7.01-.918 7.339-6.22 1.603-4.405-4.767-5.088-5.14-9.378-5.14-6.415 0-10.863 2.121-13.543 6.458-5.84 9.449-.335 20.751 10.834 22.25 5.369.72 5.978 1.804 2.129 3.795-4.617 2.387-6.984 7.003-6.984 13.626-.003 5.145.325 5.969 3.805 9.665 6.401 6.797 14.963 6.641 21.126-.378 3.673-4.184 4.533-7.197 3.62-12.723-1.332-8.07-1.31-8.168 2.046-8.495 4.505-.439 6.852 3.45 6.827 11.305-.03 9.477-4.14 15.833-13.267 20.545-3.913 2.02-5.256 2.181-13.783 1.621-9.308-.611-9.456-.583-10.549 1.815-1.157 2.54-.892 3.16 4.137 9.517 4.257 5.382 5.66 18.774 2.312 22.12-.508.509-4.463-.323-9.333-1.961-4.645-1.564-12.722-3.871-17.947-5.132s-9.89-2.648-10.374-3.087c-.495-.45.466-6.17 2.211-13.119 3.986-15.861 5.708-26.011 7.325-43.32 1.602-17.145 1.585-48.861-.028-64.943-1.052-10.489-4.179-31.368-5.555-37.064-.266-1.1-1.447-6.384-2.617-11.747l-2.128-9.747h-4.91c-2.705 0-4.92.433-4.92.967s1.572 6.727 3.5 13.755c6.95 25.332 9.469 45.058 9.48 74.276.013 28.276-2.591 48.515-10.014 77.805-2.826 11.154-3.635 15.942-2.985 17.652.988 2.598 2.971 3.381 16.482 6.523 22.522 5.236 52.234 16.71 64.4 24.866 2.28 1.528-.601 5.887-24.894 37.654-17.652 23.083-28.444 34.632-69.973 74.92-5.225 5.07-13.55 12.735-18.5 17.035s-11.245 9.784-13.995 12.18c-16.365 14.262-47.64 37.794-68.499 51.538-28.82 18.99-29.417 19.206-36.852 13.82-4.246-3.076-9.589-9.646-10.706-13.166-.824-2.596.195-6.479 1.87-7.122.733-.28 5.208.953 9.95 2.737 5.113 1.923 9.153 2.917 9.923 2.441 1.041-.643.853-2.544-.949-9.59-2.985-11.674-2.91-13.403.691-15.451 1.607-.914 4.121-3.475 5.583-5.685 5.584-8.437 4.194-18.38-3.75-26.8l-4.855-5.15 2.082-6.182c1.147-3.404 3.42-8.557 5.05-11.443 1.628-2.886 2.957-5.992 2.957-6.91 0-2.287-3.965-2.165-8.716.267-7.3 3.737-15.552 7.058-17.514 7.058-1.09 0-2.877-1.134-3.97-2.525-2.955-3.755-9.47-6.707-14.816-6.707-5.302 0-9.088 1.697-13.727 6.136-1.782 1.706-4.026 3.105-4.993 3.105-.968.003-6.61-2.332-12.53-5.187-7.7-3.714-11.068-4.88-11.84-4.11-.77.772-.082 4.166 2.433 11.932 4.96 15.316 5.183 18.443 1.63 22.913-6.16 7.753-6.078 20.081.176 26.073 2.665 2.553 2.865 3.198 2.248 7.333-.372 2.495-1.738 7.653-3.031 11.461-1.294 3.81-2.35 7.475-2.35 8.145 0 2.416 2.93 2.24 9.886-.59 12.089-4.92 13.383-4.91 18.869.147 4.02 3.707 4.972 5.348 6.412 11.02 2.12 8.345 4.644 13.31 10.236 20.176 2.417 2.968 4.105 5.838 3.75 6.375-.995 1.504-14.808 9.306-16.474 9.306-.81 0-9.51-3.986-19.329-8.854-9.818-4.868-23.25-11.459-29.85-14.649s-12.339-5.985-12.751-6.21c-.413-.224-.746 44.377-.746 99.105v99.502l6.523-3.05c4.684-2.192 7.288-2.868 9.25-2.395 3.27.789 20.722 11.04 42.988 25.244 24.2 15.437 43.659 29.157 59.11 41.67 5.692 4.61 7.737 5.742 8.937 4.985.856-.54 4.059-4.871 7.122-9.628 30.176-46.857 87.54-111.984 116.398-132.143 9.267-6.474 21.725-18.306 27.98-26.58 4.454-5.891 8.257-13.494 12.005-23.99 2.908-8.146 3.039-9.211 3.077-25.005.035-14.477-.24-17.42-2.266-24-2.934-9.526-9.238-22.1-14.207-28.34-3.932-4.938-18.327-18.674-32.522-31.038-16.651-14.505-30.394-27.87-30.394-29.547 0-2.317 7.267-8.08 10.19-8.08 2.928 0 13.407 8.901 37.46 31.813 24.7 23.529 31.113 31.023 37.294 43.587 7.946 16.15 9.518 23.652 9.453 45.098-.046 15.295-.384 19.202-2.239 25.953-3.845 14-12.985 30.802-21.816 40.096-7.891 8.303-18.267 17.135-26.92 22.922-4.91 3.283-12.525 9.598-16.925 14.031-12.195 12.289-57.499 63.001-57.499 64.363 0 .352-1.687 2.49-3.75 4.754-6.144 6.745-27.135 34.303-30.449 39.975-.934 1.599-5.453 8.307-10.042 14.907-5.832 8.388-9.01 12.102-10.568 12.327-1.547.224-4.593-1.628-9.959-6.053-8.186-6.75-18.031-14.124-33.075-24.774-5.05-3.575-13.558-9.67-18.914-13.552-11.559-8.377-44.153-28.88-52.948-33.305-3.414-1.718-7.808-4.527-9.757-6.238l-3.537-3.104v108.17c0 56.513.463 58.966.829 72.535h100.266c-5.715-13.757-9.35-22.526-10.236-27.253-1.69-9.018-.469-21.19 3.547-35.249 1.964-6.875 3.566-14.078 3.566-16.003-.01-5.216-3.822-11.267-7.951-12.613-5.71-1.86-4.773-4.601 2.008-5.868 7.42-1.386 12.147 5.914 12.465 19.246.109 4.543.44 8.501.737 8.798s3.4-.43 6.901-1.612c7.276-2.456 14.2-2.268 18.408.488 3.019 1.979 7.839 11.664 7.121 14.308-.262.967-.75 2.993-1.087 4.505-.917 4.123-3.29 3.417-4.072-1.216-1.627-9.629-12.673-15.142-21.3-10.622-13.3 6.967-17.108 29.287-8.615 50.515 2.28 5.695 4.182 4.957 7.325-2.847 2.213-5.495 3.093-6.6 6.09-7.674 4.961-1.78 5.482-1.712 8.918 1.179 4.463 3.755 4.04 5.417-1.4 5.417-6.6 0-10.241 3.6-11.61 11.498-.286 1.658.794 3.787.756 5.003h36.66c-3.263-5.45 3.496-11.276 11.1-8.099 2.385.996 3.895 3.725 6.137 8.099h3.86c-1.18-3.058-2.079-5.542-4.1-6.505-5.513-2.627-5.09-9.779.673-11.286 4.622-1.208 8.075 6.427 8.89 17.79h16.962c1.445-5.62 3.045-12.608 4.081-16.5 4.555-17.109 5.566-20.002 6.993-20.002.992 0 3.851 2.512 24.47 21.504 5.053 4.654 11.241 10.226 16.556 14.999h25.621c-1.362-3.102-2.008-5.01-2.036-14.658l-.037-12.65 3.105-3.85c3.94-4.894 9.05-6.462 12.88-3.953 6.092 3.992 5.31 9.797-1.98 14.731-5.2 3.519-6.423 7.596-5.879 19.624.02.416-.041.354-.027.756h3.666c.007-.237-.066-.455-.055-.682.256-5.279.656-6.383 2.948-8.09 3.299-2.455 7.293-2.54 9.877-.202 2.752 2.491 2.456 4.983-1.032 8.633-.085.088-.012.256-.092.34h24.073c2.698-1.196 4.82-1.142 7.242 0h59.47c.54-2.544.391-3.942-1.188-3.721-15.387 2.153-17.297 2.251-23.926 1.234-12.473-1.914-20.066-4.917-26.147-10.337-8.315-7.41-11.074-14.346-13.368-33.674-4.272-35.98-8.041-49.004-16.916-58.337-5.171-5.44-8.065-6.67-15.708-6.67-8.106 0-14.506 3.065-18.693 8.955-2.227 3.132-2.782 5.075-2.93 10.208-.202 6.995.544 8.945 5.076 13.258 2.498 2.377 3.94 2.92 7.785 2.92 4.371 0 5.025-.355 8.864-4.717 3.629-4.124 4.306-4.512 5.435-3.15 1.061 1.278.994 2.322-.377 5.914-2.374 6.214-4.305 7.572-11.82 8.273-5.902.552-7.02.342-11.794-2.257-7.915-4.308-10.01-8.17-10.696-19.67-.39-6.535-.216-9.656.571-10.143.626-.387 1.143-1.633 1.143-2.764 0-1.735-.436-1.956-2.755-1.41-11.95 2.816-20.186.943-25.76-5.86-4.488-5.477-5.744-13.1-3.086-18.702 1.7-3.583 8.58-7.85 12.659-7.85 6.499 0 12.958 6.862 9.913 10.531-1.111 1.339-1.678 1.088-4.505-2-3.977-4.341-6.692-4.465-10.67-.487-2.743 2.743-2.973 3.46-2.367 7.25 1.105 6.91 7.984 12.705 15.082 12.705 1.987 0 9.098-1.912 15.8-4.247 11.183-3.896 13.009-4.247 22.185-4.247 11.86-.006 15.07 1.33 23.199 9.664 6.98 7.156 10.836 15.72 12.76 28.33 2.161 14.165 3.697 21.477 4.634 22.056.445.276 2.867-1.066 5.38-2.984 5.248-4.006 9.17-4.983 17.552-4.377 4.737.343 6.7 1.043 9.646 3.428 6.025 4.876 7.496 7.522 8.061 14.556.424 5.285.13 7.173-1.65 10.66-2.18 4.276-5.784 6.6-8.576 5.527-2.099-.805-1.883-2.125.856-5.38 2.84-3.375 4.132-10.152 2.534-13.267-1.98-3.86-7.093-8.602-9.96-9.231-3.698-.812-10.707 1.14-14.584 4.072-1.73 1.31-4.154 4.47-5.39 7.02-6.153 12.712.86 28.776 15.746 36.06 5.378 2.632 6.651 2.837 17.79 2.847 11.823.01 21.001-1.135 33.223-4.155 13.35-3.298 28.75-1.562 39.266 4.432 5.215 2.972 7.217 5.214 9.94 9.738h16.17c-2.663-6.827-6.22-13.094-7.168-18.5-2.702-15.414-.604-39.852 4.616-53.722 6.034-16.034 18.363-35.047 27.537-42.472a786 786 0 0 0 8.642-7.13c2.505-2.101 5.733-4.564 7.168-5.473 17.048-10.799 61.068-55.697 78.652-80.218 3.275-4.567 7.76-10.378 9.96-12.917 5.212-6.016 14.262-18.383 29.49-40.317 7.768-11.186 12.944-17.753 14.014-17.753.933 0 6.782 4.162 12.99 9.25 29.678 24.32 67.478 50.326 105.499 72.571 4.4 2.574 8.006 5.357 8.006 6.182 0 1.76-11 7.928-14.207 7.97-4.497.057-45.993-25.893-68.793-43.016-16.403-12.318-26.93-20.393-33.49-25.705-3.566-2.888-7.032-5.251-7.702-5.251-1.358 0-2.565 1.565-8.513 11-9.445 14.983-11.89 18.41-26.7 37.497-18.003 23.205-20.622 26.327-40.224 47.899-21.133 23.257-35.736 37.057-48.82 46.148-20.35 14.14-31.498 26.562-37.995 42.316-9.45 22.915-8.045 49.53 2.24 71.64h6.458c-2.636-5.066-5.774-9.844-7.297-14.998-3.592-12.152-3.905-32.614-.691-45.098 4.943-19.202 18.83-36.644 39.699-49.861 7.67-4.859 19.471-15.35 36.53-32.486 21.97-22.07 36.084-38.423 53.98-62.556 16.652-22.458 20.06-27.279 28.108-39.746 1.505-2.33 3.168-3.725 4.413-3.694 1.1.027 5.374 2.72 9.499 5.98 31.127 24.597 54.569 40.92 80.32 55.941 5.875 3.428 10.687 6.754 10.687 7.389 0 1.232-21.34 12.985-44.757 24.654-16.88 8.411-19.744 8.767-19.744 2.47 0-3.778-.17-4-3.003-4-2.556 0-3.075.449-3.501 3.004-.325 1.95-2.335 4.708-5.75 7.887l-5.25 4.892-18.252-.691c-20.677-.782-26.711.015-33.747 4.459-5.565 3.514-10.557 8.595-11.876 12.097-.624 1.655-2.74 3.522-5.648 4.975-5.14 2.567-9.48 8.646-9.48 13.285 0 1.828-1.03 3.593-3.132 5.362-5.545 4.666-7.43 12.712-4.358 18.601.841 1.613 1.508 5.546 1.52 9.001.026 7.167 2.27 12.773 6.845 17.072 3.699 3.475 3.956 5.773.876 7.831-1.238.827-4.899 4.105-8.136 7.288s-11.81 11-19.052 17.366a7107 7107 0 0 0-22.61 19.965c-2.314 2.057-2.129 1.857-4.108 3.612h57.969c-.653-10.616.598-21.83 5.297-33.803 2.687-6.845 5.436-9.701 9.342-9.701 7.703 0 11.064 7.932 10.862 25.658-.09 7.901-2.002 12.483-3.252 17.846h46.48c-25.763-10.892-32.54-15.352-38.418-26.875-5.36-10.503-4.124-14.63 4.376-14.63 4.927 0 6.356 1.039 9.84 7.168 4.351 7.657 17.035 17.311 29.417 22.378 14.303 5.854 17.24 7.411 21.733 11.553.115.106.133.294.25.406h7.71c-.273-.304-.389-.843-.672-1.143-2.86-3.024-4.78-5.9-4.478-6.688.63-1.64 9.772-6.94 16.64-9.646l4.864-1.917 29.168 14.446c5.496 2.722 5.824 2.769 10.31 4.948h13.285c-1.125-.055-8.08-3.058-16.178-7.039l-15.11-7.426-2.266-6.274c-3.097-8.546-10.265-22.696-16.141-31.868-2.679-4.18-4.865-8.1-4.865-8.716s2.587-2.987 5.749-5.279c7.365-5.336 16.243-13.925 16.243-15.708 0-1.682-2.87-5.9-8.983-13.193-2.536-3.025-6.12-7.459-7.97-9.849l-3.362-4.34 5.648-11.156c5.662-11.186 12.101-29.07 13.303-36.945.353-2.314 1.013-4.937 1.465-5.822.904-1.767 29.875-16.888 32.356-16.888 2.773 0 1.666 3.802-5.177 17.772-6.593 13.458-18.111 31.814-26.184 41.726-4.72 5.796-5.015 7.477-1.658 9.517 7.3 4.438 26.57 24.247 26.57 27.317 0 .635-5.627 6.638-12.502 13.34-6.875 6.703-12.502 12.581-12.502 13.056s2.299 3.541 5.113 6.817 7.62 9.78 10.678 14.456c7.468 11.416 18.439 32.553 18.02 34.724-.167.87-.912 1.549-1.648 1.778h5.942c.521-6.987.88-76.978.866-197.75l-.018-207.257-3.731-2.69c-20.403-14.734-20.46-14.777-19.57-17.616 1.482-4.724.691-29.174-1.482-45.687-1.159-8.8-2.828-21.63-3.704-28.505-5.148-40.374-8.56-66.922-9.95-77.381-.869-6.537-1.31-12.16-.977-12.493s3.444-.455 6.91-.276c10.191.524 17.218-4.187 19.633-13.157 2.363-8.775-1.222-17.244-9.084-21.457-3.73-1.998-5.48-2.324-10.245-1.916-3.162.27-5.758.19-5.758-.185 0-.374 4.046-6.75 8.992-14.16 5.31-7.957 9.001-14.496 9.001-15.976.004-1.378-2.768-7.459-6.164-13.506-16.19-28.83-17.954-31.388-20.443-29.648-1.107.774-7.461 11.5-13.193 22.278-2.23 4.193-5.89 10.617-8.126 14.27-2.237 3.655-4.056 7.2-4.045 7.878.01.678 3.163 7.052 7.002 14.17 3.84 7.117 6.984 13.223 6.984 13.57 0 .348-2.819.601-6.256.563-7.421-.084-12.08 2.317-15.985 8.218-5.087 7.687-4.371 15.513 2.055 22.36 5.099 5.433 10.81 7.075 18.085 5.205 2.97-.763 5.518-1.272 5.666-1.124s-.147 3.874-.654 8.273c-.508 4.4-1.361 12.948-1.889 18.998s-2.123 21.123-3.547 33.498c-2.707 23.535-3.451 30.26-5.952 53.805-1.766 16.632-2.295 19.19-3.989 19.19-.686 0-7.726-4.857-15.644-10.797l-14.39-10.798-.645-8.946c-.351-4.922-.929-17.28-1.28-27.455-1.529-44.142-4.095-71.93-9.205-99.5-4.947-26.699-12.224-55-20.223-78.653a3826 3826 0 0 1-8.466-25.345l-3.612-11 .498-21.504c.275-11.825.146-28.02-.286-35.995-.759-14.002-.858-14.515-3.031-14.824-1.973-.28-2.257.122-2.257 3.252 0 4.63-1.93 4.659-5.427.074-2.647-3.47-6.569-4.753-6.569-2.147 0 1.743 5.896 9.366 9.904 12.806 3.304 2.836 4.186 6.837 1.511 6.837-2.82 0-10.258-7.027-14.916-14.096-3.212-4.877-5.158-6.901-6.633-6.901-1.775 0-1.987.407-1.41 2.745 1.628 6.592 11.65 18.331 19.79 23.18 6.327 3.77 6.319 10.966-.01 7.693-7.75-4.008-20.124-18.11-25.335-28.873-1.73-3.572-2.855-4.745-4.542-4.745-2.523 0-2.53 1.264-.028 7.25 4.147 9.926 17.9 25.2 28.92 32.117 7.998 5.02 7.894 10.257-.138 6.993-11.145-4.529-28.742-23.78-35.747-39.11-2.524-5.522-3.8-7.25-5.343-7.25-2.584 0-2.554.554.515 8.725 6.515 17.341 24.512 36.7 41.671 44.84 3.713 1.761 5.291 3.815 4.238 5.518-1.927 3.119-13.984-3.261-25.64-13.58-13.862-12.271-23.525-25.661-28.901-40.03-1.479-3.953-3.04-5.833-4.56-5.657m.553 12.18c.472 0 1.454 1.443 2.184 3.206 5.29 12.77 26.47 36.103 40.205 44.296 14.522 8.662 16.207 9.946 16.474 12.511.142 1.371-.175 3.152-.7 3.962-.841 1.294-1.53 1.294-5.759 0-11.866-3.632-25.151-.222-34.143 8.77-6.33 6.33-8.802 12.972-10.218 27.483-1.163 11.924-1.048 13.072 3.925 38.272 3.824 19.38 4.508 24.546 3.556 26.985-.507 1.299-3.619 4.386-6.919 6.863-5.875 4.41-6.012 4.455-6.32 2.1-.173-1.321-1.504-3.345-2.967-4.495-3.357-2.641-6.538-2.128-16.703 2.7-8.388 3.983-11.464 3.942-13.34-.176-1.915-4.202-1.367-6.554 2.33-10.042 5.997-5.655 3.43-9.908-3.012-4.993-6.322 4.821-8.233 12.456-5.03 20.12 2.452 5.87 12.243 9.088 19.227 6.321 1.548-.613 5.508-1.447 8.808-1.852 3.3-.404 6.79-1.069 7.748-1.483 1.632-.706 1.647-.486.23 3.529-1.109 3.143-1.213 4.568-.396 5.352.802.769 1.575.368 2.764-1.428 2.519-3.802 5.85-6.64 11.618-9.894 5.63-3.178 8.54-7.56 8.54-12.871 0-2.838-3.251-20.934-6.421-35.72-.824-3.843-1.144-7.35-.71-7.784s3.824 1.25 7.537 3.74c6.264 4.2 10.595 5.703 10.595 3.676 0-.467-2.706-3.2-6.007-6.071-8.607-7.486-10.49-11.764-3.999-9.075 5.26 2.178 19.179 1.414 26.24-1.437 3.36-1.357 6.54-2.2 7.075-1.87 1.223.755.202 40.803-1.308 51.307-1.597 11.099-4.664 23.113-8.67 33.913-1.956 5.274-4.614 12.453-5.906 15.957-4.109 11.15-12.235 24.598-18.813 31.131-6.863 6.818-13.303 10.293-22.047 11.904-3.263.601-6.638 1.034-7.499.958-16.206-1.423-20.915-2.16-28.017-4.404-39.809-12.576-72.937-40.638-90.85-76.957-2.727-5.53-7.196-18.084-7.196-20.213 0-1.495 13.54-25.765 29.74-53.289 2.752-4.675 6.876-11.878 9.158-16.003 2.283-4.125 7.405-13.117 11.378-19.992l7.223-12.502 11-2.165c14.776-2.906 24.935-7.018 34.651-14.014 12.284-8.844 19.379-17.146 27.833-32.577 1.13-2.062 2.439-3.75 2.911-3.75m-186.684 1.74c2.864-1.167 6.24-.993 8.282 1.263 2.655 2.933 2.184 8.017-.995 10.751-1.438 1.238-3.735 2.248-5.104 2.248-3.247 0-7.398-4.207-7.398-7.499 0-3.089 2.35-5.595 5.215-6.762m144.286 56.79c-11.013.024-12.785.302-21.504 3.372-10.874 3.83-20.015 8.218-21.927 10.521-1.05 1.266-1.06 1.877-.064 3.078 1.594 1.92 2.214 1.9 12.18-.489 10.482-2.512 33.135-4.405 42.315-3.528 3.85.367 9.74 1.763 13.083 3.095 7.45 2.97 9.415 3.06 9.415.424 0-3.116-7.513-9.877-14.842-13.35-6.327-2.997-7.242-3.148-18.656-3.123m84.806 15.082c4.645-.091 9.139.479 11.507 1.741 2.646 1.41 3.243 2.286 2.994 4.376-.17 1.439-.758 2.703-1.308 2.801s-3.924-.863-7.5-2.137c-4.532-1.616-8.922-2.359-14.5-2.442l-7.998-.12 4.386-2.008c2.979-1.367 7.774-2.12 12.419-2.211m-91.78 3.003c-12.162.103-23.024 5.251-40.179 19.053-9.282 7.467-10.717 9.206-9.738 11.756.88 2.295 2.873 2.534 8.55 1.022 7.984-2.125 11.33-1.786 19.716 1.99 10.347 4.661 18.67 6.017 28.542 4.644 4.251-.591 8.235-1.078 8.853-1.078 1.766 0-5.061 6.631-13.018 12.64-7.094 5.359-7.94 6.34-6.587 7.693 1.313 1.313 3.743.61 10.005-2.893 9.231-5.162 16.237-12.525 19.716-20.738l2.875-6.809-3.133-4.358c-1.722-2.398-3.132-4.905-3.132-5.573s1.576-2.965 3.5-5.095c6.098-6.749 4.152-8.238-5.039-3.851-3.606 1.72-7.996 3.12-9.756 3.104-1.76-.015-6.35-.075-10.2-.138-6.347-.104-17.914 1.724-23.004 3.64-4.706 1.77.78-2.475 6.771-5.243 5.822-2.689 7.017-2.87 18.03-2.764 10.188.099 11.758-.1 11.498-1.446-.618-3.208-6.809-5.619-14.27-5.556m86.722 6.652c5.944.42 11.601 2.167 15.248 5.123 4.092 3.317 2.726 4.105-3.824 2.201-5.854-1.701-17.617-2.034-24.175-.681-2.2.453-5.278 1.173-6.845 1.594-4.862 1.305-2.923-2.62 2.662-5.39 4.762-2.361 10.99-3.267 16.934-2.847m-273.757 10.107c1.733-.21 3.419.452 4.956 1.99 3.09 3.09 3.254 6.478.48 10.005-2.55 3.241-6.604 3.463-10.292.562-3.249-2.555-3.392-5.97-.387-9.333 1.727-1.932 3.509-3.014 5.243-3.224m397.7 6.836c.943-.187 4.488 4.764 10.024 14.004 11.015 18.385 11.076 18.504 10.31 21.558-.678 2.702-16.276 27.078-19.827 30.984-2.364 2.6-3.047 2.741-4.542.94-1.68-2.024-15.957-27.486-16.666-29.722-.427-1.345.967-4.788 4.33-10.724 2.725-4.81 7.192-12.794 9.932-17.744s5.637-9.137 6.44-9.296m-218.617 1.087c.555-.057 1.712.735 3.197 2.414 3.098 3.502 6.579 4.658 9.637 3.188 2.036-.979 2.04-.973.148.543-1.068.856-2.644 1.542-3.501 1.52-2.932-.073-7.896-2.796-9.057-4.965-.929-1.737-.978-2.643-.424-2.7m111.654.525c.787.787.73 1.522-.194 2.635-1.976 2.382-4.968 2.003-4.302-.543.656-2.51 2.991-3.596 4.496-2.092m-120.839.175c3.159 0 4.607 1.283 4.607 4.082 0 1.139-1.668 1.065-5.243-.24-3.96-1.446-3.567-3.842.636-3.842m33.36.185c2.473-.352 3.047 1.625 1.05 3.62-1.995 1.996-3.971 1.423-3.62-1.05.205-1.446 1.125-2.365 2.57-2.57m54.837.304c.924.329 1.418 1.144 1.418 2.423 0 1.084-.342 2.132-.755 2.33-1.42.683-5.104-.357-6.283-1.778-.958-1.154-.662-1.63 1.594-2.487 1.738-.66 3.101-.817 4.026-.488m23.41.46c0 .52-1.135 2.207-2.524 3.75l-2.525 2.81 2.129-3.759c2.144-3.785 2.92-4.53 2.92-2.8m-17.993.369c0-2.336 1.722-1.387 2.976 1.64.672 1.622 2.412 3.381 3.87 3.915 1.457.534 1.976.996 1.151 1.023-3.197.103-7.997-3.845-7.997-6.578m134.18 11.48-1.779 2.855c-.974 1.569-3.483 5.49-5.583 8.716s-3.823 6.765-3.823 7.868c0 1.95 5.806 12.501 8.816 16.021.823.963 1.817 1.75 2.212 1.75.394 0 2.607-2.051 4.92-4.56 4.27-4.632 7.057-9.858 7.057-13.248 0-2.946-5.64-13.477-8.882-16.583zm-299.352 49.28c1.177 1.543 2.875 4.763 4.966 9.49 3.307 7.474 4.975 13.158 6.725 22.94 1.28 7.15 3.262 17.435 4.404 22.858 1.143 5.423 2.073 10.03 2.073 10.245 0 .993-5.87.25-6.762-.857-1.441-1.787-13.187-58.726-13.221-64.086-.013-2 .638-2.134 1.815-.59m277.35 5.371c2.237-.442 4.714-.303 7.279.544 10.299 3.399 11.602 19.91 1.935 24.497-3.887 1.845-5.713 1.846-10.89.01-4.778-1.695-7.21-4.423-8.08-9.066-1.526-8.132 3.046-14.659 9.756-15.985m37.617.553c6.075 0 10.413 3.486 12.079 9.71 1.248 4.663 1.196 5.464-.507 8.891-1.03 2.073-3.036 4.619-4.46 5.657-5.944 4.339-15.164 2.66-18.886-3.446-5.667-9.295.845-20.812 11.774-20.812m-322.08 4.404c.735-.228 1.225.548 1.53 2.303.267 1.536 2.614 13.31 5.215 26.156s4.342 23.723 3.878 24.175c-1.452 1.414-7.228-1.725-7.766-4.22-.275-1.272-2.178-11.06-4.22-21.742l-3.713-19.421 2.055-3.53c1.308-2.255 2.287-3.493 3.022-3.721m-9.609 16.602c.345 0 .912 1.455 1.253 3.243.342 1.787 1.668 8.769 2.958 15.515 2.663 13.932 2.296 15.292-3.381 12.456-3.086-1.542-3.603-2.429-5.105-8.716-2.373-9.937-2.226-12.77.912-17.965 1.509-2.498 3.019-4.533 3.363-4.533m315.428 1.207c.873.872 4.85 30.897 8.513 64.289.604 5.5 1.942 15.4 2.967 22s2.356 16.724 2.966 22.499 1.526 14.1 2.037 18.5c2.392 20.606 3.187 38.688 1.897 43.292-1.807 6.455-6.047 10.871-12.188 12.695-2.799.831-5.345 1.469-5.657 1.41-16.73-3.152-22.754-13.48-19.615-33.655.748-4.806 1.647-11.886 1.99-15.736.817-9.174 2.242-22.317 4.56-42.003 1.037-8.8 2.603-23.206 3.483-32.006s2.244-21.399 3.031-27.998 1.926-16.501 2.534-22.001c1.026-9.286 2.078-12.69 3.482-11.286m-142.498 7.315c-1.397.373-4.937.61-7.868.525-2.977-.086-7.3.599-9.785 1.548-3.554 1.357-4.953 1.47-6.965.553-3.465-1.58-7.402-1.447-14.427.506-5.206 1.448-6.516 1.49-10.107.304-3.784-1.249-4.232-1.2-5.5.535-.76 1.04-1.391 2.64-1.391 3.565 0 .926-.68 3.634-1.52 6.016-.841 2.382-1.306 4.918-1.032 5.63.694 1.81 3.004 1.61 7.388-.627 6.278-3.203 10.03-3.41 19.882-1.096l9.103 2.137 7.195-3.059c7.509-3.195 12.693-3.822 16.17-1.962 1.559.834 2.367.776 3.371-.249 1.095-1.117 1.043-2.522-.322-8.181-1.582-6.554-1.754-6.796-4.192-6.145m-136.123 1.474c1.293 0 6.802 7.147 8.172 10.604 1.174 2.966 3.862 16.504 3.897 19.643.024 2.173-5.163 2.451-6.892.368-1.217-1.466-6.09-24.007-6.09-28.164 0-1.347.409-2.451.913-2.451m-49.281 10.89c1.728-1.434 1.919-1.235 2.69 2.819.702 3.69.058 4.388-2.994 3.234-2.392-.905-2.24-3.943.304-6.053m178.337 6.274c-.985-.113-2.91.37-6.67 1.354-7.458 1.953-17.478 2.14-24.101.443-3.932-1.008-5.501-1.06-6.367-.194-1.68 1.681.572 3.977 5.289 5.39 4.656 1.395 4.847 2.202.912 3.832-3.723 1.542-5.43 3.546-4.68 5.5.73 1.906.185 1.974 8.273-1.114 7.354-2.809 16.021-3.534 24.626-2.064 3.96.676 4.745.553 4.745-.728 0-.845-1.687-2.415-3.75-3.492l-3.75-1.962 3.253-1.16c2.442-.875 3.252-1.761 3.252-3.566 0-1.416-.046-2.126-1.032-2.24m-111.69 3.64c.305-.824 1.157-.637 2.69.183 2.885 1.544 6.016 6.887 6.026 10.264.003 2.19-.456 2.748-2.248 2.736-3.662-.025-4.677-1.286-5.887-7.315-.647-3.218-.885-5.046-.58-5.869m-77.777 8.199c.582-.49 7.716 1.222 16.851 4.044 16.333 5.047 31.472 8.718 47.143 11.434 13.486 2.337 43.351 5.518 52.202 5.555 5.351.023 9.528.67 13.303 2.082 8.926 3.338 18.953 5.89 27.428 6.975 9.077 1.16 10.572 1.763 7.978 3.215-2.397 1.341-50.121 1.85-61.414.654-29.37-3.109-39.09-4.416-52.395-7.057-15.989-3.174-26.94-6.053-43.605-11.48-14.393-4.686-14.025-4.364-10.992-9.959 1.375-2.535 2.947-4.996 3.501-5.463m94.37 2.994c.483 0 1.443.677 2.128 1.502 1.04 1.253.889 1.502-.884 1.502-1.22 0-2.12-.64-2.12-1.502 0-.825.393-1.502.876-1.502m-103.334 13.497c1.556-.394 3.978.164 8.2 1.437 46.977 14.165 80.373 19.706 125.26 20.776 25.423.606 41.549-.32 67.726-3.888 18.013-2.456 18.957-2.328 26.091 3.676 3.063 2.577 3.161 2.882 1.76 5.021-1.678 2.56-1.129 8.783.921 10.485.853.708 3.525.708 8.523 0 6.098-.865 7.657-.784 9.627.506 5.038 3.302 2.833 4.618-13.147 7.84-18.77 3.786-23.646 4.477-47.005 6.67-25.441 2.39-78.039 2.61-96 .406-21.014-2.578-50.932-7.88-59-10.457-1.65-.526-6.37-1.881-10.495-3.012-13.441-3.687-35.467-11.136-36.88-12.475-1.166-1.106-1.038-1.784.82-4.394 2.486-3.49 3.999-3.72 10.126-1.557 5.03 1.774 5.738 1.329 8.245-5.187 1.817-4.72 1.563-5.154-4.634-7.72-3.27-1.356-3.724-1.91-3.141-3.852.76-2.534 1.447-3.88 3.003-4.275m348.31.101c-1.108.685-.933 3.582 1.686 26.903 3.1 27.607 6.226 58.783 6.919 69.006.914 13.494-1.744 19.8-9.48 22.498-4.565 1.591-6.127 3.654-3.852 5.095 3.57 2.261 10.366.28 14.538-4.248 5.246-5.693 5.41-17.004.793-53.352-2.757-21.7-4.82-38.623-6.523-53.455-1.14-9.925-2.321-13.534-4.082-12.447m-139.265 8.265c1.593.725 2.436 1.812 2.23 2.883-.259 1.34-2.117 1.969-8.33 2.838-12.834 1.795-26.487 2.523-26.487 1.41 0-.545.343-1.032.756-1.078.412-.047 3.591-.288 7.075-.535 6.144-.436 8.993-1.212 17.929-4.92 3.46-1.435 4.746-1.546 6.827-.598m-188.408 7.14c-1.56 0-2.345.947-3.123 3.75-1.78 6.406-1.511 6.928 4.699 9.093 3.162 1.102 6.542 2.039 7.518 2.082 3.15.14 5.216-9.552 2.478-11.627-1.619-1.227-8.886-3.298-11.572-3.298m28.552 7.978c-1.234.732-1.776 2.34-2.257 5.187-.798 4.72.262 6.196 5.527 7.675 1.925.54 5.168 1.018 7.205 1.068 3.453.084 3.774-.16 4.745-3.657 2.078-7.485 1.488-8.168-8.827-10.218-3.236-.642-5.16-.786-6.393-.055m159.423 4.377c-3.756.35-7.18 1.246-8.043 2.11-1.542 1.541-1.896 7.457-.572 9.6.526.85 2.77 1.004 7.73.543 3.842-.357 7.378-.891 7.859-1.189 1.016-.627 1.136-5.844.212-9.296-.611-2.284-.906-2.355-7.186-1.768m-122.866.94c-6.078-.568-6.256-.512-7.26 2.127-1.33 3.501-1.313 8.284.028 9.112.578.357 3.164 1.002 5.749 1.437 10.027 1.69 11.194 1.059 11.194-6.062 0-5.45-.43-5.748-9.71-6.615m98.294 2.376c-2.033-.78-12.854.415-14.335 1.585-.703.555-1.244 3.182-1.244 6.007v5.03l7.463-.571c4.106-.31 7.935-.847 8.503-1.198 1.62-1.001 1.292-10.209-.387-10.853m-74.321.332-.618 3.75c-1.148 6.947-.867 8.076 2.11 8.55 1.513.24 5.453.388 8.753.322l5.997-.12.295-5.62c.294-5.59.282-5.615-2.874-6.246-1.744-.35-5.537-.636-8.421-.636zm38.897 1.198c-4.552-.184-7.88.15-8.752.875-1.97 1.635-1.763 7.877.34 10.208 1.526 1.69 2.589 1.849 8.256 1.271 3.574-.364 6.86-1.02 7.305-1.465.447-.444.678-3.013.507-5.703l-.313-4.882zm-154.9 3.206c.401-.4 7.594 1.371 15.985 3.934 28.206 8.613 61.01 15.099 90.26 17.845 32.582 3.06 86.418 1.118 118.785-4.284 6.485-1.082 12.223-1.698 12.751-1.372s.958 1.39.958 2.367c0 2.665-5.883 27.945-14.335 61.599-4.144 16.5-7.839 31.805-8.218 34.005-.57 3.296-11.468 48.493-14.225 58.992-.433 1.646-1.531 3.141-2.442 3.316-.912.176-4.293-2.067-7.527-4.993-3.23-2.922-10.547-9.367-16.261-14.317s-13.356-11.7-16.98-15-13.748-12.3-22.498-20-18.405-16.258-21.457-19.026c-3.053-2.767-8.699-7.705-12.549-10.972-3.85-3.268-7.92-6.855-9.038-7.97-2.22-2.216-20.657-18.447-28.836-25.382-2.822-2.391-7.635-6.665-10.697-9.498-3.062-2.834-13.629-12.122-23.484-20.647-22.283-19.275-31.13-27.658-30.191-28.597m-20.277 1.594c3.59 0 7.006 14.71 4.698 20.231-.75 1.796-2 3.775-2.773 4.395-3.197 2.567-5.812 2.562-8.393-.018-3.254-3.255-3.164-4.61.507-8.126 2.761-2.646 5.292-8.718 4.901-11.747-.342-2.655.127-4.735 1.06-4.735m-11.692 4.191c3.456.251 4.268.702 4.524 2.497.174 1.22-.602 3.099-1.75 4.247-3.71 3.71-11.065 2.083-11.065-2.45 0-3.14 2.972-4.68 8.291-4.293m22.812 3.16c.819-.216 2.178 1.821 4.34 6.035 2.384 4.65 2.923 6.933 2.874 12.161-.073 7.719-1.585 11.799-4.93 13.323-2.905 1.323-3.203 1.324-6.015-.037-1.954-.946-4.367-4.7-4.367-6.79 0-.473 1.576-2.736 3.5-5.04 3.359-4.02 3.502-4.514 3.502-12.18 0-4.785.277-7.255 1.096-7.471m272.78 1.954c1.045-.496 3.362.586 7.021 3.215 5.645 4.056 6.632 5.806 4.487 7.951-3.553 3.553-8.545 1.312-10.918-4.901-1.411-3.696-1.634-5.77-.59-6.265m-3.878 3.667c1.066.292 2.177 1.684 2.884 4.044.88 2.942 2.273 4.69 5.205 6.541 5.736 3.621 6.958 8.067 3.077 11.194-1.703 1.373-6.024 1.636-7.794.48-3.612-2.36-7.284-14.482-5.97-19.717.508-2.026 1.532-2.835 2.598-2.542m-257.395 3.215c.674-.05 1.648.79 2.672 2.543 3.009 5.152 4.717 13.918 4.717 24.138 0 11.436-1.79 17.868-5.823 20.85-3.582 2.647-8.159 3.546-10.668 2.09-6.664-3.864-5.967-11.005 1.446-14.786 3.633-1.854 3.983-2.441 5.565-9.25 1.474-6.346 1.886-14.198 1.188-22.775-.148-1.82.23-2.76.903-2.81m-90.27 2.856c3.231.166 6.559 1.065 9.803 2.755 6.368 3.316 10.437 8.912 14.207 19.54 3.255 9.18 3.884 12.081 8.2 37.811 3.694 22.028 5.965 30.192 12.133 43.541 4.501 9.743 13.17 19.136 20.6 22.333 13.773 5.924 30.663-2.455 33.877-16.814 2.897-12.946-6.01-25.117-18.435-25.189-8.58-.05-14.071 4.97-15.267 13.949-.332 2.493-.787 5.111-1.013 5.822-.656 2.066-3.974-.252-5.445-3.805-1.92-4.635.102-10.058 6.062-16.242 2.717-2.82 4.938-5.658 4.938-6.311s-2.809-2.245-6.246-3.529c-12.06-4.505-17.942-8.78-22.563-16.408-3.464-5.719-4.696-10.968-3.759-15.966.86-4.588 2.972-6.533 7.103-6.533 4.705 0 5.998 2.598 3.41 6.855-2.898 4.764-2.496 9.062 1.308 14.013 5.161 6.72 11.928 10.678 24.248 14.179 12.466 3.542 18.106 6.405 24.323 12.336 6.682 6.375 8.654 11.396 8.67 22.12.011 8.083-.288 9.534-2.903 14.253-1.601 2.89-2.605 5.567-2.23 5.943.377.376 9.335.712 19.91.746 17.881.057 19.645.225 25.17 2.45 7.133 2.874 14.274 9.624 18.049 17.073 3.7 7.301 5.189 16.666 5.97 37.534.774 20.678 2.438 29.682 6.55 35.36 6.292 8.685 18.362 13.963 27.815 12.17 6.546-1.241 8.15-2.098 11.93-6.403 6.724-7.657 6.782-16.922.139-24.13-2.178-2.361-5.092-4.583-6.468-4.928-3.984-1-9.71 1.1-13.405 4.91-4.318 4.455-6.016 4.522-6.016.222 0-2.43.862-4.123 3.252-6.385 4.724-4.47 6.901-5.316 13.728-5.316 9.393 0 15.42 3.76 19.209 11.977 2.48 5.377 2.654 14.757.378 20.204-.82 1.963-1.211 3.847-.866 4.192.344.345 3.851.627 7.785.627 14.848 0 22.289 4.664 25.096 15.726 1.475 5.813 1.457 6.316-.534 10.936-1.24 2.876-3.424 5.748-5.38 7.085-2.476 1.692-4.647 2.233-8.735 2.174-2.99-.043-6.112-.324-6.937-.626-3.163-1.156-5.998-4.702-5.998-7.5 0-3.929 2.767-4.849 5.16-1.713 3.531 4.629 3.937 4.92 7.01 4.92 4.435 0 9.831-5.855 9.831-10.67 0-12.529-11.88-16.99-31.5-11.82-18.997 5.008-22.254 5.556-27.022 4.487-23.05-5.165-31.662-20.106-32.42-56.246-.079-3.73-1.969-3.47-6.109.839-4.778 4.974-9.95 7.407-15.662 7.389-14.113-.045-23.504-8.583-23.696-21.55-.077-5.193.318-6.61 2.727-9.775 3.494-4.588 6.112-6.315 10.927-7.195 3.082-.563 3.75-.393 3.75.949 0 .898-1.078 2.127-2.396 2.727-6.5 2.961-9.329 12.55-5.767 19.532 6.39 12.526 21.125 10.237 30.062-4.671 3.074-5.128 2.935-15.435-.295-21.78-3.061-6.014-5.746-8.478-12.704-11.664-5.264-2.41-19.346-5.007-22.13-4.081-.695.23-12.54.938-26.313 1.566-27.997 1.276-32.567.7-41.118-5.16-13.05-8.942-23.484-30.49-27.796-57.378-.881-5.5-2.24-13.825-3.012-18.5-.773-4.675-1.675-10.525-2.009-13-.882-6.538-4.126-16.514-7.223-22.203-6.759-12.418-21.473-13.232-28.192-1.557-3.075 5.344-2.264 9.771 2.45 13.368 3.06 2.332 4.06 2.567 8.412 1.99 4.219-.56 5.079-.38 5.943 1.234 1.668 3.117-.84 5.36-6.624 5.915-9.438.907-14.718-2.63-18.574-12.437-1.562-3.973-1.539-4.488.35-9.978 3.694-10.738 12.585-16.787 22.277-16.289m138.758 3.952c-4.95 0-1.62 4.177 14.078 17.634 3.122 2.677 10.945 9.593 17.376 15.368 6.43 5.775 15.858 14.1 20.95 18.5 15.312 13.229 30.565 26.64 37.534 33 3.617 3.3 11.48 10.281 17.469 15.506s15.312 13.43 20.72 18.242c9.533 8.484 11.956 9.891 13.303 7.712.354-.573 1.703-5.635 2.995-11.25 4.703-20.445 17.563-75.4 19.356-82.705 4.258-17.347 5.458-24.07 4.469-25.06-.662-.661-5.67-.415-14.916.728-10.937 1.352-22.078 1.722-51.925 1.732-35.76.008-39.24-.152-59-2.745-11.55-1.516-25.35-3.637-30.662-4.708s-10.595-1.954-11.747-1.954m202.181 2.396c.996-.996 2.727.624 2.727 2.552 0 2.684 4.798 14.968 7.122 18.232 1.207 1.695 2.933 2.829 4.312 2.829 3.514 0 7.564 3.677 7.564 6.873 0 4.77-2.216 6.624-7.923 6.624-4.843 0-5.077.128-5.077 2.681 0 1.473-.71 3.383-1.575 4.247-1.765 1.766-5.092 1.999-7.601.535-2.936-1.713-5.583-13.058-4.957-21.218.252-3.281 2.238-1.758 4.57 3.5 2.221 5.01 6.023 9.63 7.066 8.588.27-.27-1.083-3.61-3.003-7.417s-3.872-9.49-4.34-12.64c-.802-5.413-.174-14.097 1.115-15.386m-539.554 3.261c3.494.984 6.7 2.99 8.31 5.639 3.135 5.154 3.36 9.353.783 14.547-1.962 3.953-2.756 4.662-5.233 4.662-2.173 0-3.327-.732-4.505-2.856-1.878-3.39-3.054-3.187-5.076.857-1.802 3.602-5.822 4.485-8.182 1.796-7.665-8.734-6.003-19.103 3.87-24.175 2.76-1.418 6.54-1.453 10.033-.47m347.517 2.12c.551-1.085 3.703-.918 9.61.202 19.909 3.776 37.685 5.22 70.793 5.749 28.158.45 37.504.232 53.343-1.244 21.137-1.97 21.475-1.905 19.919 3.879-.465 1.73-2.452 10.113-4.413 18.638-5.879 25.559-8.601 37.03-11.056 46.507-1.282 4.95-3.056 12.599-3.943 16.999s-2.504 11.037-3.593 14.75c-1.563 5.328-2.396 6.744-3.925 6.744-1.762 0-13.904-10.37-51.556-44.048-7.106-6.356-18.344-16.256-24.977-22-19.742-17.098-28.683-24.948-33.443-29.363-2.475-2.295-7.314-6.58-10.752-9.526-4.511-3.866-6.558-6.203-6.007-7.288m-43.31 1.225c1.576 0 3.985 3.678 5.896 9 2.858 7.962 3.3 11.61 2.036 16.63-1.317 5.232-5.046 7.948-8.393 6.118-3.953-2.162-4.592-6.089-1.714-10.485 1.388-2.12 1.71-4.598 1.576-11.967-.094-5.111.178-9.296.598-9.296m12.603 11c2.197 0 9.202 15 10.005 21.43.731 5.85-.992 10.673-4.477 12.539-4.625 2.475-9.934.245-10.18-4.284-.213-3.894.224-4.898 3.196-7.399 3.442-2.896 3.832-7.325 1.428-16.28-.812-3.024-1.482-5.62-1.492-5.757-.007-.138.675-.249 1.52-.249m169.235 4.44c-.365-.364-5.973-.107-12.465.572-10.159 1.063-67.2.88-86.806-.277-2.93-.172-3.999.158-3.999 1.217 0 1.441 17.715 18.096 37.387 35.157 5.711 4.953 13.813 12.1 18.003 15.883s12.766 11.415 19.061 16.961c6.296 5.547 11.881 9.943 12.41 9.766.53-.176 1.983-5.024 3.234-10.77l6.376-29.279c5.055-23.225 7.674-38.354 6.799-39.23m117.246.12 2.56 2.562 2.553 2.552-7.094 5.804c-12.69 10.382-18.422 17.917-21.605 28.404-2.847 9.381-.878 18.26 5.095 22.959 5.855 4.605 13.863 3.503 17.514-2.405 2.47-3.998 4.678-4.428 5.518-1.078.873 3.478-1.839 9.001-5.97 12.152-4.065 3.101-9.396 3.64-14.602 1.484-4.958-2.054-5.286-.35-1.834 9.544 6.32 18.107 6.94 20.086 9.084 28.939 3.358 13.866 2.913 23.332-1.75 37.027-3.187 9.359-3.77 12.373-3.87 20.223-.11 8.772.022 9.363 2.598 11.94 2.073 2.072 3.722 2.725 7.002 2.773 4.965.072 5.859 2.206 1.788 4.266-6.353 3.214-14.902.368-18.178-6.053-1.684-3.302-1.974-5.297-1.575-10.872.268-3.754.068-7.082-.442-7.398-.511-.315-2.133-.088-3.612.507-4.042 1.625-12.22 2.135-16.454 1.023-5.51-1.449-10.452-6.842-11.268-12.282-1.341-8.944 5.374-23.214 9.149-19.44 1.264 1.265 1.193 2.01-.562 5.879-2.278 5.02-2.674 11.82-.811 14.04 3.706 4.419 10.16 6.37 15.948 4.828 4.648-1.238 12.14-9.539 14.28-15.819 3.078-9.032.804-36.115-3.031-36.115-.72 0-2.227 1.292-3.354 2.875-2.348 3.297-7.67 6.126-11.534 6.126-2.894 0-7.555-3.985-7.555-6.458 0-1.119 1.036-1.548 3.75-1.548 4.754-.005 9.67-2.976 11.83-7.15 2.192-4.24 1.464-13.456-1.926-24.35-7.307-23.476-6.546-33.777 3.823-51.464 4.408-7.52 14.166-17.405 21.282-21.567zm-135.34 6.44c3.775 0 4.454 1.937 1.446 4.128-1.036.754-5.51 4.19-9.941 7.628s-8.65 6.207-9.37 6.164c-2.354-.141-36.681-14.384-38.013-15.773-1.088-1.135.153-1.279 7.702-.857 7.657.428 10.418 1.115 18.5 4.58 10.84 4.646 12.97 4.932 15.524 2.109 3.53-3.901 10.763-7.979 14.151-7.979m-19.173 1.005c4.607 0 5.413.686 3.298 2.8-1.967 1.968-7.794.942-7.794-1.372 0-1.025 1.266-1.428 4.496-1.428m-476.685.995c11.123 0 14.346 9.79 3.925 11.921-4.212.862-4.142 3.101.139 4.542 3.24 1.092 7.121 4.742 7.121 6.698 0 .514-1.1 2.04-2.45 3.39-2.043 2.043-3.433 2.451-8.255 2.451-3.983-.002-6.792-.62-8.992-1.962-6.57-4.005-8.62-13.558-4.377-20.425 2.88-4.661 6.69-6.615 12.89-6.615m51.962 0c2.855-.047 5.735.625 8.034 2.027 8.572 5.225 8.13 20.852-.718 25.428-4.195 2.169-7.734 1.843-14.097-1.29-4.458-2.196-5.5-3.178-5.5-5.187 0-2.09.75-2.695 4.754-3.897 5.591-1.68 6.161-3.72 1.29-4.635-6.596-1.237-7.41-6.282-1.64-10.162 2.193-1.474 5.022-2.238 7.877-2.284m456.453 0c1.26 0 .873 7.486-.48 9.259-.687.9-6.594 5.708-13.128 10.687s-12.615 9.03-13.506 9.001c-1.93-.062-8.004-2.349-30.339-11.433-13.697-5.572-17.678-7.665-22-11.553-2.903-2.612-4.944-5.087-4.543-5.5.822-.849 14.49 4.152 38.474 14.068l16.206 6.698 9.664-7.362c12.222-9.311 18.671-13.865 19.652-13.865m-482.627.405c.86.33 1.706.599 1.889.599 1.11 0 10.512 12.5 10.512 13.976 0 1.012-3.005 4.25-6.864 7.407-6.699 5.48-8.602 6.345-10.641 4.846-3.091-2.27-9.499-10.473-9.499-12.16 0-2.795 12.59-15.44 14.603-14.668m333.808 1.898c.6.197 2.654 3.464 4.57 7.26 3.172 6.284 3.522 7.813 3.87 17.182.435 11.784-.43 14.805-5.51 19.265-2.038 1.79-4.505 2.984-6.127 2.966-4.83-.054-9.125-3.607-9.185-7.591-.037-2.464 3.544-7.38 5.37-7.38.69 0 2.34-1.157 3.668-2.57 2.314-2.464 2.408-3.123 2.33-16.031-.055-9.303.26-13.349 1.014-13.101m200.541 3.823c.535-.357 1.19.113 1.668 1.622 1.822 5.764 4.086 9.56 7.084 11.848 2.8 2.136 3.357 3.154 3.105 5.749-.246 2.54-.81 3.215-2.865 3.455-1.51.176-3.19-.438-4.118-1.502-2.196-2.516-5.823-13.606-5.823-17.8 0-1.827.414-3.015.949-3.372m-187.624 6.873c3.728 0 10.198 12.808 11.212 22.185.46 4.246.183 5.945-1.382 8.43-3.224 5.12-10.267 5.061-11.562-.101-.46-1.832-.044-3.675 1.363-5.952 2.468-3.992 2.702-11.442.544-17.56-1.848-5.238-1.893-7.002-.175-7.002m-141.753 1.005c4.887 0 7.832 5.498 5.39 10.06-1.362 2.546-7.048 2.615-9.314.11-3.517-3.885-1.089-10.17 3.924-10.17m324.255 1.768c1.675-1.675 2.69-.208 4.634 6.726.925 3.3 2.774 7.694 4.118 9.757 1.999 3.068 3.042 3.75 5.712 3.75 5.065 0 7.702 2.402 7.702 7.001 0 2.883-.572 4.281-2.22 5.436-5.165 3.618-11.553.763-15.266-6.827-3.364-6.876-6.474-24.05-4.68-25.843m-50.958 3.234c1.79 0 2.063 1.586.921 5.307-.888 2.894-2.926 4.97-9.977 10.162-5.952 4.381-9.788 6.523-11.673 6.523-1.545 0-3.04-.22-3.317-.498-.278-.277-5.191-2.267-10.918-4.422-10.452-3.934-17.91-8.831-17.91-11.756 0-2.314 4.221-1.196 17.69 4.68 6.305 2.752 12.046 5.003 12.76 5.003.713 0 5.828-3.374 11.36-7.5 5.53-4.124 10.508-7.499 11.064-7.499m-116.462 8.025c.967.245 2.356 1.232 3.473 2.8 1.109 1.558 2.961 5.238 4.118 8.173 2.685 6.81 1.975 15.115-1.594 18.684-2.946 2.947-6.826 2.986-8.853.092-2.096-2.991-1.983-3.818 1.04-7.831 2.409-3.198 2.554-3.987 2.046-10.992-.301-4.15-.838-8.312-1.198-9.25-.546-1.423 0-1.922.968-1.676m-372.881 1.372c3.364-.844 5.22.928 6.21 5.934.984 4.98 3.593 5.726 4.1 1.17.464-4.18 2.868-6.505 6.743-6.505 3.863 0 5.835 1.713 7.39 6.422 2.24 6.79-1.804 15.272-8.689 18.205-6.222 2.651-13.756.881-18.315-4.312-5.354-6.097-3.733-19.334 2.56-20.913m537.97 4.837c.55-.142 2.175 2.647 3.611 6.192 1.612 3.98 4.1 7.847 6.495 10.106l3.88 3.658-2.35 1.898c-1.294 1.047-2.643 1.88-2.995 1.842-5.108-.54-9.47-8.458-9.572-17.375-.038-3.334.38-6.178.93-6.32m-51.658 2.46c1.079.218 1.074 1.903.212 5.104-.832 3.088-2.248 4.91-5.952 7.629-2.675 1.964-5.93 3.534-7.232 3.492-3.954-.132-10.529-2.88-13.516-5.648-3.51-3.254-1.85-4.093 3.704-1.87 4.506 1.803 8.53 2.065 9.425.617.331-.536 3.323-3.065 6.643-5.62 3.475-2.674 5.637-3.921 6.716-3.704m-102.256 2.69c.323-.688 1.149-.195 2.488 1.456 2.504 3.09 5.89 14.635 6.808 23.226.8 7.48 1.495 8.953 3.372 7.076 1.569-1.569 1.458-11.463-.184-16.436-.69-2.085-.976-4.514-.636-5.399.532-1.385.973-1.274 3.188.792 7.426 6.927 10.438 21.993 5.454 27.308-2.905 3.098-6.344 3.32-9.084.58l-2.009-2.008-4.32 4.505c-4.58 4.78-7.163 5.492-11.664 3.215-6.464-3.269-6.074-10.953.718-14.142 2.274-1.068 4.672-3.098 5.326-4.505 1.803-3.88 2.34-14.043 1.059-20.02-.663-3.09-.84-4.959-.516-5.648m271.334 3.88c3.303.43 6.621 1.489 8.992 3.058 5.018 3.32 7.16 7.35 7.831 14.75.7 7.71-2.198 13.933-8.089 17.385-6.463 3.788-15.158 4.077-21.365.71-6.392-3.468-9.68-13.307-7.343-21.974 1.343-4.976 6.736-11.405 11.074-13.202 2.316-.959 5.598-1.158 8.9-.728m-122.902 3.73c.875-1.333 1.096-1.333 1.971 0 .542.826.986 1.994.995 2.599.028 1.957 5.988 9.406 7.528 9.406 1.9 0 5.49 3.55 5.49 5.427 0 .785-.71 2.139-1.575 3.003-2.439 2.44-6.996 1.947-9.775-1.05-4.25-4.583-6.944-15.865-4.634-19.384m121.981 1.152c0 .752.828 1.891 1.843 2.524 2.839 1.774 5.328 7.8 4.55 11.038-1.637 6.824-4.168 9.346-11.755 11.728-1.582.497-1.659.829-.534 2.184 2.174 2.62 10.277 1.334 14.068-2.23 3.354-3.153 5.832-8.056 5.832-11.544 0-3.2-3.64-10.071-6.385-12.05-3.4-2.453-7.619-3.365-7.619-1.65m-555.465 2.82c1.301-1.081 2.27-.526 6.292 3.648 3.532 3.663 5.308 6.652 6.947 11.645 4.657 14.187 5.276 29.007 1.76 42.242-1.998 7.516-6.32 16.233-8.965 18.085-1.107.776-2.475 1.363-3.04 1.308-7.025-.681-10.1-5.082-10.927-15.643-1.06-13.544-.024-25.865 3.298-39.23 1.706-6.86 3.105-14.345 3.105-16.63 0-2.514.599-4.653 1.53-5.426m384.461 4.78c-.003.413-.477 2.434-1.05 4.497-1.17 4.211-3.56 4.945-6.293 1.925-2.013-2.225-2.142-4.173-.276-4.173.757 0 1.94-.677 2.626-1.502 1.275-1.537 5.003-2.093 4.993-.746m-464.2 3.023 3.445 5.362c4.84 7.532 11.251 13.05 18.26 15.717 3.3 1.256 8.473 3.22 11.498 4.358 15.648 5.887 28.888 16.276 33.508 26.294 3.487 7.562 3.755 9.089 1.953 10.89-1.086 1.087-3.275 1.583-6.78 1.53-8.094-.124-9.915-1.218-13.055-7.832-1.536-3.233-3.987-7.023-5.455-8.42-4.495-4.283-14.306-9.65-21.669-11.858-16.037-4.807-25.018-10.974-29.804-20.462-2.706-5.365-4.324-12.846-2.957-13.69.483-.299 3.171-.845 5.97-1.217zm180.032 1.225c2.885 0 13.307 11.807 17.45 19.771 6.066 11.664 8.905 23.658 9.406 39.727.432 13.869.408 14.094-2.957 23.66-3.886 11.045-10.528 22.28-18.04 30.513-2.85 3.126-12.834 11.736-22.184 19.136-35.735 28.28-81.33 79.756-112.74 127.287-3.124 4.727-6.286 9.092-7.021 9.702-1.57 1.303-2.975.46-13.322-7.979-20.875-17.022-61.234-44.084-83.167-55.766-3.437-1.832-6.255-3.657-6.255-4.063 0-1.231 2.04-2.513 13.506-8.504a1588 1588 0 0 0 22.609-12.106c13.787-7.552 22.183-11.378 24.995-11.378 1.733 0 1.955.446 1.428 2.847-.422 1.92-.137 3.241.875 4.081 2.235 1.855 5.415.404 5.777-2.635.25-2.104 1.097-2.844 4.311-3.74 2.706-.755 4.654-2.142 6.007-4.284 1.1-1.742 2.503-3.38 3.124-3.64.62-.26 8.722-.049 18.002.461s18.779.644 21.116.304c3.43-.5 4.257-.323 4.257.921 0 2.472 2.897 4.69 6.136 4.69 5.529 0 6.863 1.465 6.863 7.536 0 6.196 1.02 6.737 7.573 3.999 2.683-1.121 3.613-1.188 3.944-.258.238.67 1.01 3.023 1.713 5.223 1.598 5.004 4.629 5.5 6.044.995 1.416-4.506 13.682-36.553 14.769-38.584 1.023-1.911.31-4.91-1.17-4.91-.503 0-2.71 1.131-4.902 2.515-10.041 6.339-30.48 15.308-31.822 13.967-.284-.285.955-2.031 2.746-3.879s3.848-5.099 4.579-7.223 2.162-4.31 3.178-4.855c10.201-5.484 13.35-8.689 13.35-13.617 0-1.098 2.132-4.283 4.745-7.076 4.506-4.817 4.741-5.341 4.523-10.208-.126-2.821-.36-9.893-.516-15.717-.257-9.678-.52-10.96-3.077-14.824-1.539-2.326-4.345-5.14-6.237-6.256s-3.446-2.589-3.446-3.28 5.914-6.391 13.138-12.659a14577 14577 0 0 0 50.69-44.14c10.346-9.046 18.857-15.754 20.002-15.754m331.468 1.308c.638.509 1.374 1.966 2.285 4.441 2.448 6.656 6.068 11.216 10.3 12.963 1.99.821 4.409 2.194 5.371 3.05 2.186 1.942 2.286 7.562.175 9.673-2.676 2.676-9.123 2.024-12.4-1.253-4.725-4.725-9.45-22.307-7.417-27.602.514-1.34 1.049-1.78 1.686-1.272m-119.365.903c.865.16 3.031 3.175 4.819 6.698 4.67 9.203 4.401 17.94-.71 23.051-2.573 2.574-4.092 2.572-7.398-.027-3.31-2.603-3.32-4.348-.018-9.112 2.45-3.535 2.602-4.368 2.183-12.346-.387-7.386-.234-8.513 1.124-8.264m-75.077 4.202c1.643 1.015 1.416 5.764-.405 8.365-.87 1.24-2.61 2.22-3.943 2.22-4.347 0-7.317-7.248-4.073-9.94 1.609-1.335 6.678-1.723 8.421-.645m86.658 5.748c1.276-1.272 5.47 4.969 7.094 10.559 1.218 4.19 1.528 8.171 1.18 15.404-.494 10.26-1.453 12.81-6.57 17.55-5.021 4.655-13.21 1.407-13.21-5.241 0-3.51 2.797-7.426 5.306-7.426 2.181 0 5.536-3.78 6.523-7.352.576-2.085.564-7.07-.028-13.101-.525-5.353-.658-10.03-.295-10.393m-228.42 2.036c-2.892.338-3.943 3.077-2.054 5.353 1.808 2.179 5.71 1.817 6.477-.599.883-2.783-1.29-5.119-4.422-4.754m331.791 5.095c1.09.293 2.481 2.272 3.657 5.814 1.173 3.53 2.458 5.358 4.533 6.43 3.325 1.72 4.606 5.33 2.976 8.375-1.503 2.809-5.54 2.688-8.476-.249-2.388-2.388-4.57-10.047-4.57-16.04 0-3.225.79-4.623 1.88-4.33m-318.487 1.705c-.741-.741-3.414.03-8.973 2.589-4.356 2.004-12.42 5.71-17.92 8.236-11.844 5.439-12.502 5.872-12.502 8.274 0 1.341 1.304 2.231 4.754 3.243 4.614 1.352 4.745 1.502 4.745 5.278 0 3.67.172 3.88 3.003 3.815 1.65-.039 3.85-.261 4.892-.498 1.401-.317 2.157.354 2.884 2.57.541 1.65 1.668 3.783 2.506 4.745 2.95 3.388 3.565 2.626 6.32-7.895 2.07-7.904 8.044-24.009 10.162-27.4.834-1.336.87-2.216.13-2.957m-263.328 2.46c.968-.599 14.578 5.356 27.907 12.207l7.471 3.842 3.575 9.498c1.969 5.226 6.597 15.727 10.282 23.337s6.698 14.212 6.698 14.677-3.565 3.36-7.924 6.43c-8.251 5.815-13.073 10.673-13.073 13.166 0 1.945 2.632 6.106 6.578 10.392 1.773 1.925 5.516 6.386 8.32 9.913l5.094 6.413-2.699 4.588c-6.31 10.698-12.324 24.271-20.435 46.148-.73 1.973-4.381 4.35-15.763 10.254-8.146 4.226-15.55 7.684-16.455 7.684-2.905 0-1.817-3.55 5.565-18.205 8.514-16.902 17.891-32.487 24.23-40.27 2.51-3.082 4.56-6.458 4.56-7.5 0-1.064-2.076-3.548-4.744-5.666-8.525-6.766-22.25-20.798-22.25-22.747 0-2.348 8.658-13.023 17.413-21.466 3.622-3.493 6.588-6.564 6.588-6.827 0-.264-2.206-3.035-4.892-6.155-11.408-13.243-29.421-47.627-26.046-49.713m490.946 1.032c1.077-.666 3.457 2.4 6.376 8.227 2.029 4.049 2.616 6.699 2.616 11.83 0 5.972-.288 6.894-2.93 9.535-3.374 3.374-3.851 3.466-6.854 1.363-2.626-1.84-2.854-5.086-.59-8.319 1.33-1.898 1.542-4.156 1.152-12.263-.263-5.462-.163-10.13.23-10.373m-223.113 4.984c-3.77-1.197-6.524 3.508-3.703 6.33 2.821 2.82 7.535.066 6.338-3.705-.348-1.098-1.536-2.277-2.635-2.625m443.6 1.99c6.217.776 10.326 3.138 14.133 8.126 2.64 3.459 2.866 4.432 2.866 12.336 0 9.988-1.155 28.14-2.515 39.58-.524 4.4-1.394 13.846-1.944 20.996-1.69 21.954-5.035 56.904-5.62 58.752-.689 2.173-3.274 2.29-4.082.184-.33-.86-.32-5.023.028-9.25.348-4.226 1.307-15.786 2.128-25.686 6.724-81.012 7.094-87.988 4.938-93.374-1.685-4.212-5.937-8.126-8.835-8.126-2.321 0-1.95 2.791.802 6.062 2.71 3.22 4.215 13.36 3.224 21.66-.314 2.63-.822 11.53-1.133 19.78s-.986 20.404-1.502 27.004c-.515 6.6-1.204 18.3-1.53 25.999-.795 18.855-1.997 30.439-3.297 31.74-.768.766-2.2.337-4.994-1.512-3.282-2.172-4.016-3.291-4.514-6.91-.752-5.464-2.254-23.704-3.649-44.324-.595-8.8-1.52-20.944-2.063-26.994-2.67-29.735-2.823-37.652-.839-44.085 2.083-6.752 3.635-8.576 9.37-10.972 2.802-1.171 5.345-1.446 9.029-.986m-133.838 1.796c.69-.412 1.717 1.24 2.838 5.095 1.736 5.972 2.514 6.897 6.956 8.329 4.002 1.29 6.073 6.122 3.934 9.176-.864 1.234-2.583 2.147-4.045 2.147-3.134 0-7.998-3.354-8.872-6.109-.358-1.127-.875-1.824-1.142-1.557-.93.93 2.904 12.54 4.818 14.594 1.202 1.29 3.186 2.073 5.26 2.073 7.532 0 11.433 7.979 6.275 12.824-1.494 1.404-3.595 2.175-5.924 2.175-8.83 0-15.746-12.311-15.736-28.008.004-7.757 1.01-10.05 3.483-7.997 1.514 1.257 1.617.807 1.317-5.454-.21-4.398.148-6.876.838-7.288m-496.308 2.156c2.115-.812 25.64 7.349 29.353 10.18 4.484 3.42 11.295 12.592 11.295 15.211 0 1.69-1.058 2.432-5.187 3.658-6.76 2.008-6.417 2.07-10.116-1.861-3.327-3.535-7.298-5.862-11.866-6.956-7.83-1.875-18.72-18.22-13.479-20.232m423.626 1.585c1.297 0 4.384 6.317 5.998 12.272 1.457 5.375.79 14.403-1.207 16.353-2.554 2.494-6.456 2.683-8.715.424-1.168-1.168-1.963-2.436-1.76-2.829 3.418-6.62 3.876-8.848 3.547-17.072-.33-8.25-.117-9.148 2.137-9.148m-136.657 10.014c6.392.045 8.463 8.896 2.792 11.931-3.233 1.73-5.964 1.218-7.703-1.437-2.756-4.207.202-10.526 4.91-10.494m146.11 1.217c1.197-1.195 5.24 4.271 7.37 9.968 2.179 5.826 3.788 20.833 2.801 26.092-.345 1.838-2.143 5.003-3.998 7.03-1.856 2.025-4.217 3.66-5.242 3.638-3.217-.069-7.1-2.79-7.767-5.445-.795-3.167.238-5.138 4.818-9.176 3.49-3.076 3.584-3.366 3.584-10.31 0-3.928-.52-10.276-1.151-14.104-.632-3.828-.819-7.29-.415-7.693m-301.839.976c-2.433.35-3.282 3.265-1.557 5.344 1.747 2.104 4.728 1.777 5.482-.6.833-2.622-1.246-5.128-3.925-4.744m-156.014 1.815c.663-.662 4.003.461 9.96 3.344a1703 1703 0 0 0 12.714 6.1c2.062.969 3.75 2.492 3.75 3.38 0 .89-1.605 4.328-3.566 7.638-1.961 3.311-3.922 6.693-4.358 7.518-1.811 3.43-3.877 2.024-8.375-5.703-7.426-12.756-11.241-21.16-10.125-22.277m166.923 5.694c-2.158.358-5.995 2.023-12.143 5.104-6.524 3.27-15.356 7.189-19.633 8.706-4.278 1.518-8.03 3.16-8.338 3.658-1.008 1.63 1.712 3.72 5.952 4.57 4.474.896 4.713 1.558 3.574 9.747-.344 2.48-.035 3.06 1.77 3.317 1.2.17 3.517-.382 5.15-1.226 3.496-1.808 4.532-.999 5.665 4.413.403 1.925.946 3.861 1.207 4.303.796 1.347 2.733.168 3.925-2.386.62-1.331 1.882-4.814 2.81-7.74.928-2.925 3.225-8.646 5.104-12.713l3.418-7.398 2.911 1.676c2.489 1.429 3.157 1.468 4.57.295 2.49-2.066 1.582-6.277-1.695-7.84-2.232-1.065-2.642-1.778-2.147-3.75.54-2.15.057-3.094-2.1-2.736m101.058 1.29c8.422 0 16.499.45 17.956 1.004s8.124 6.117 14.815 12.364c23.572 22.008 40.288 37.43 51.667 47.66 6.325 5.685 15.337 13.96 20.029 18.398s13.6 12.73 19.79 18.426c9.086 8.36 11.032 10.62 10.097 11.746-2.45 2.954-6.51 1.523-13.414-4.726a3667 3667 0 0 0-11.996-10.77c-15.374-13.748-39.224-35.302-67.006-60.567l-27.999-25.465-12.502-.156c-14.8-.185-18.345-.793-18.813-3.225-.797-4.14 1.25-4.69 17.376-4.69m202.448 1.63c1.61-1.556 9.32 7.184 10.853 12.3 1.992 6.65 1.47 12.829-1.318 15.616-2.602 2.603-3.771 2.843-7.158 1.474-3.24-1.309-3.65-3.856-1.262-7.72 1.741-2.818 2.038-4.46 1.593-8.771-.3-2.919-1.302-6.757-2.22-8.532-1.274-2.465-1.385-3.5-.488-4.367m-432.747 2.368c6.93 0 8.381 3.437 4.228 10.015-6.5 10.296-10.972 23.939-13.054 39.828-1.675 12.775-.94 21.987 2.754 34.66 2.739 9.392 3.347 15.813 1.64 17.182-4.605 3.693-11.015 1.401-13.681-4.892-4.043-9.542-6.265-22.544-6.21-36.309.077-19.017 2.65-30.334 10.245-44.987 5.91-11.405 9.633-15.497 14.078-15.497m51.482 6.495 12.475 6.21c13.882 6.908 19.78 12.049 19.78 17.228 0 8.108-10.732 9.207-29.952 3.078-10.935-3.488-13.97-3.704-17.053-1.207-2.097 1.698-2.134 1.91-.543 3.5.99.992 3.257 1.696 5.463 1.696 2.072 0 9.12 1.576 15.662 3.5 7.054 2.076 14.057 3.502 17.22 3.502 6.953 0 9.203 1.24 9.203 5.095 0 1.666-.438 3.858-.976 4.864-2.408 4.499-14.834 5.232-32.523 1.916-20.128-3.773-20.759-3.702-17.91 2.009 1.963 3.935 4.705 5.429 8.449 4.606 1.606-.352 5.292-.192 8.19.36 2.899.551 9.664 1.541 15.027 2.202 7.18.884 9.747 1.573 9.747 2.616 0 2.52-4.634 6.138-9.84 7.684-4.454 1.323-6.28 1.341-14.87.11-5.385-.771-12.16-2.319-15.054-3.436-7.237-2.794-10.235-2.703-10.235.313 0 1.29.788 3.05 1.75 3.907 2.388 2.124 10.67 4.447 20.536 5.758 11.137 1.479 11.882 1.76 11.516 4.33-.21 1.476-2.028 3.035-5.73 4.91-5.391 2.731-5.575 2.755-25.677 2.755-20.016 0-20.277-.032-23.152-2.45-3.536-2.976-5.816-9.628-7.408-21.587-1.549-11.635-.085-25.433 3.934-37 7.796-22.43 13.604-26.43 38.354-26.45zm312.628 2.506c4.05 0 5.629 1.542 5.629 5.5 0 1.706-.538 3.634-1.198 4.294-1.995 1.994-8.57 1.506-9.766-.728-2.564-4.792-.05-9.066 5.334-9.066m100.837 6.22c14.205-1.017 23.938 6.29 31.121 23.373 9.999 23.777 3.308 50.306-14.759 58.512-4.23 1.921-12.897 2.378-17.68.93-12.921-3.911-22.746-18.824-24.967-37.911-1.509-12.96.982-23.92 7.683-33.785 5.062-7.45 10.21-10.52 18.602-11.12m-254.134 1.777h29.814l16.307 14.621c8.967 8.041 16.752 15.167 17.302 15.838s5.313 5.001 10.577 9.627c23.572 20.717 51.973 47.279 51.639 48.295-.202.614-2.582 1.247-5.288 1.4l-4.93.277-14.492-13.138c-7.975-7.226-18.33-16.84-23.005-21.365s-17.842-16.628-29.26-26.893l-20.758-18.665h-14.427c-8.315 0-14.688-.414-15.036-.977-.332-.537-.117-2.78.48-4.994zm-68.822 1.603c-3.001 1.882-2.727 5.14.609 7.168l2.994 1.824-7.831 4.764c-4.307 2.622-11.81 6.357-16.676 8.3-11.71 4.678-11.848 4.759-11.848 6.947 0 1.503 1.296 2.192 6.311 3.335 6.123 1.396 6.302 1.526 6.145 4.496-.374 7.078-.533 6.907 5.96 6.228l5.916-.617.7 4.229c.384 2.324.916 4.587 1.18 5.03.262.443 1.205.66 2.1.488 1.674-.322 2.558-2.276 8.679-19.163 1.966-5.426 4.93-12.762 6.587-16.307 4.869-10.414 5.117-11.313 3.317-12.005-.87-.333-3.087.117-4.93.995l-3.344 1.594-.313-3.104c-.379-3.795-3.017-5.793-5.555-4.202m330.897 6.947c-8.426-2.973-17.978 2.315-22.35 12.364-3.964 9.11-3.372 27.137 1.206 36.594 2.754 5.69 8.74 12.472 12.429 14.078 6.766 2.947 16.964.543 21.356-5.04 5.873-7.466 7.461-18.505 4.726-32.798-2.564-13.4-8.55-22.087-17.367-25.198m-234.168 6.403 10.088 9.268c5.545 5.102 15.83 14.45 22.858 20.776 30.21 27.191 45.07 41.428 45.07 43.172 0 1.581-.859 1.834-6.357 1.834-8.099 0-3.516 3.574-51.99-40.5-6.048-5.5-14.93-13.504-19.743-17.782l-8.753-7.776-11.71-.405c-13.075-.449-14.728-1.159-12.391-5.326l1.52-2.717 15.708-.267zm-81.398.654c-1.869.717-2.125 5.457-.387 7.196 1.92 1.92 4.626 1.393 6.348-1.235 2.826-4.314-.799-7.942-5.961-5.96m310.6.01c2.283.988 4.38 3.197 5.289 6.19.75 2.474-1.09 11.875-2.727 13.94-2.623 3.306-6.373.616-9.739-6.993-2.212-5.001-1.96-8.848.784-12.004 1.641-1.89 4.11-2.122 6.393-1.134m-495.663 5.573c.29.29.007 4.98-.636 10.42-1.213 10.278-1.706 11.784-3.427 10.595-2.223-1.535-8.458-10.004-8.458-11.488 0-2.477 11.114-10.933 12.521-9.527M1751 1586.646c2.92 0 6.8 3.037 6.8 5.325 0 .729-1.04 2.305-2.313 3.5-2.54 2.386-6.607 2.856-8.485.977-.66-.66-1.207-2.597-1.207-4.302 0-3.843 1.572-5.5 5.205-5.5m-278.797 2.671c4.43-.607 23.082.042 27.53.958 1.336.276 5.832 3.75 9.995 7.721s12.07 11.242 17.57 16.16 12.925 11.737 16.5 15.146 7.806 7.278 9.407 8.605c1.695 1.406 2.612 2.897 2.193 3.575-.96 1.551-11.499 1.476-14.253-.102-2.563-1.468-17.897-14.818-31.85-27.74-16.798-15.557-15.645-14.99-30.449-14.99-14.516 0-15.834-.559-12.935-5.472 1.571-2.663 2.73-3.372 6.292-3.86m260.049.83c2.41.227 4.633 1.701 5.15 4.284.498 2.491.921 2.754 3.842 2.413 2.701-.315 3.638.12 5.27 2.46 4.194 6.019 5.403 13.308 2.819 16.998-1.952 2.786-4.591 3.358-8.283 1.806-3.892-1.636-5.726-6.795-4.827-13.57.688-5.19.515-5.462-2.424-3.889-4.268 2.285-10.028-3.088-7.822-7.296 1.266-2.415 3.863-3.434 6.275-3.207m-377.082 21.088c-4.565-1.751-7.134 2.808-3.713 6.588 2.006 2.216 3.689 2.323 5.334.34 1.553-1.87.566-6.089-1.621-6.928m-111.313 5.814c1.225-.667 2.025.136 2.525 2.349.342 1.513 1.471 5.726 2.515 9.36 1.043 3.635 1.898 7.316 1.898 8.182 0 .96-3.601 3.504-9.25 6.532-11.159 5.981-13.746 6.893-13.746 4.827 0-2.472 6.646-17.445 11-24.774 2.182-3.673 3.834-5.81 5.058-6.476m128.689 11.212c-3.626-2.273-7.543 3.52-4.7 6.947 1.57 1.89 3.428 1.824 5.437-.185 1.986-1.986 1.624-5.282-.737-6.762m433.484 3.584c-1.674.324-1.704.398-5.648 14.584-1.419 5.105-4.657 14.192-7.204 20.195-2.693 6.345-4.37 11.617-3.999 12.585.64 1.668 2.9 1.65 8.301-.064 1.817-.577 2.102-.371 1.677 1.253-.283 1.081.219 2.688 1.133 3.602 3.154 3.153 7.509 1.4 7.509-3.022 0-1.424-.962-2.768-2.589-3.62l-2.598-1.364 2.35-1.53c4.35-2.847 13.287-7.168 23.336-11.285 7.882-3.23 9.996-4.515 9.996-6.063 0-2.236-4.872-4.32-10.337-4.413l-3.344-.055.672-4.938c.375-2.718.387-5.87.028-7.002-.832-2.622-4.207-2.645-7.518-.056-1.375 1.076-3.05 1.96-3.722 1.972s-2.397-2.473-3.842-5.528c-1.764-3.729-3.148-5.456-4.201-5.251m-532.35 15.8c-.615 0-5 2.448-9.747 5.436-6.955 4.378-23.046 11.574-33.389 14.934-2.27.738-2.257 4.292.019 5.51.973.52 3.428 1.26 5.454 1.64 3.625.68 3.686.774 3.98 5.84l.304 5.142 3.501-.074c1.925-.04 4.274-.421 5.224-.848 1.284-.576 1.958-.17 2.635 1.576.5 1.291 1.398 3.582 2 5.095.674 1.7 1.849 2.754 3.067 2.754 1.54 0 2.331-1.257 3.63-5.749 2.865-9.907 5.567-17.402 10.08-27.989 4.508-10.58 5.161-13.267 3.242-13.267m287.172.922c177.277-.26 189.945-.202 189.945.912 0 .458-1.516 2.598-3.371 4.744l-3.372 3.898-171.548.304c-126.081.224-171.72.014-172.23-.811-.693-1.122 3.646-6.385 6.58-7.979.853-.464 70.15-.946 153.996-1.068m-283.68 10.079c-1.644 0-4.376 2.812-4.376 4.505 0 .746.71 2.065 1.575 2.93 2.827 2.826 6.43 1.184 6.43-2.93 0-2.335-1.746-4.505-3.63-4.505m569.8 4.007c-1.575 0-2.618 2.073-5.628 11.25-2.03 6.187-6.4 16.771-9.71 23.53-4.887 9.973-5.786 12.568-4.801 13.755 1.944 2.343.4 2.927 23.466-8.89 2.75-1.41 9.599-4.432 15.22-6.717 5.62-2.285 10.685-4.717 11.258-5.408 1.547-1.865-1.004-3.545-6.67-4.386-4.62-.685-4.792-.83-4.432-3.676 1.07-8.437.762-9.946-2.063-10.272-1.476-.17-4.105.429-5.841 1.327-3.725 1.926-5.97 1.348-5.97-1.52 0-3.815-2.781-8.993-4.828-8.993m-58.567 1.18c-2.837-2.838-6.807 1.244-5.224 5.37.305.794 1.687 1.447 3.068 1.447 3.266 0 4.636-4.338 2.156-6.817m-492.448 12.419c-2.359 1.653-2.847 5.306-.958 7.195 1.715 1.715 5.476 1.487 6.191-.377 2.076-5.408-1.182-9.656-5.233-6.818m16.5 3.4c-.735 0-6.696 2.96-13.248 6.578-6.551 3.617-17.007 8.994-23.235 11.958-9.993 4.756-11.286 5.659-11 7.675.276 1.948 1.203 2.439 6.32 3.316 3.3.566 5.978 1.466 5.951 2s-.42 3.143-.875 5.804c-.66 3.866-.506 5.16.756 6.421 1.439 1.44 2.029 1.344 6.66-1.06l5.086-2.634.959 2.534c.53 1.394.967 2.86.967 3.252s.7 1.707 1.557 2.93c3.05 4.354 4.122 2.96 8.329-10.78 3.86-12.605 6.496-19.571 10.281-27.215 3.04-6.138 3.68-10.78 1.493-10.78m4.524 11.101c-1.322-.348-2.85.086-3.878 1.493-1.72 2.351-1.647 3.918.267 5.832 3.183 3.183 6.81.791 6.247-4.119-.199-1.73-1.313-2.858-2.635-3.206m507.319 4.395c-2.372 0-3.068.481-3.326 2.303-.18 1.268.206 2.955.866 3.75 1.476 1.779 2.097 1.797 4.367.138 1.097-.803 1.649-2.247 1.437-3.75-.279-1.972-.924-2.441-3.344-2.441m-70.573 2.7c-1.075-.604-2.014-.137-2.543 1.547-2.122 6.768-9.251 24.876-11.912 30.256-4.309 8.711-4.882 10.807-3.437 12.548 1.789 2.155 4.109 1.783 8.513-1.373 3.585-2.568 12.562-6.742 30.45-14.16 4.773-1.98 6.586-3.26 6.817-4.819.344-2.319-1.195-2.952-8.32-3.427-4.352-.29-4.165.195-3.325-8.77.311-3.326.178-3.493-2.672-3.336-1.65.09-4.132.458-5.518.82-2.287.597-2.718.188-4.662-4.413-1.097-2.595-2.315-4.27-3.39-4.874m-396.226 7.71 171.068.295c94.086.162 171.4.636 171.815 1.05 1.018 1.02-3.149 5.333-6.431 6.653-1.831.736-54.848 1.144-171.41 1.326-92.812.146-169.2.12-169.75-.064-1.892-.631-.984-3.798 1.86-6.523zm518.53 6.929c.488.488.143 2.78-.802 5.26-2.671 7.015-11.679 27.183-13.239 29.648-2.047 3.235-2.96 2.81-4.284-1.999-1.609-5.843-4.988-15.902-5.998-17.855-.504-.976-.355-2.232.378-3.178 1.863-2.403 22.957-12.864 23.945-11.876m-667.607 6.2c1.16-1.16 2.332 2.796 1.916 6.459-.25 2.2-.922 8.958-1.492 15.008a18870 18870 0 0 1-5.666 58.991c-.914 9.35-1.707 23.08-1.77 30.505-.1 12.121.107 13.922 2.083 17.615 1.381 2.582 3.532 4.734 5.767 5.795 5.445 2.583 7.706.083 3.16-3.492-5.066-3.985-5.805-7.54-5.15-24.7.658-17.234 1.051-23.48 2.479-39.22.523-5.775 1.447-17.474 2.045-26 1.936-27.6 3.172-38.122 4.542-38.648 1.448-.556 6.54 1.828 8.218 3.85 1.658 2 5.66 43.32 7.25 74.802.515 10.175 1.39 23.432 1.945 29.463 1.104 12.02.394 16.802-3.271 22.029-2.414 3.442-4.142 4.984-7.684 6.882-3.62 1.94-6.844 2.371-12.502 1.667-5.86-.728-8.343-2.14-11.277-6.421-3.688-5.383-4.745-12.435-3.289-21.872.7-4.536 1.458-11.398 1.686-15.248.924-15.583 10.066-96.521 11.01-97.465m315.207.977c4.063-.014 4.87.498 13.036 8.236 4.788 4.538 16.107 14.995 25.152 23.245s20.051 18.416 24.46 22.581c13.21 12.477 12.042 11.922 25.466 11.922 14.355 0 16.015.77 13.7 6.31l-1.548 3.695-11.296-.156c-6.215-.083-12.426-.327-13.8-.544-1.466-.231-8.763-6.063-17.625-14.096a16574 16574 0 0 0-33.997-30.707c-28.626-25.775-31.157-28.314-29.38-29.482.825-.542 3.45-.994 5.832-1.004m32.42.396c3.839.576 5.844 2.012 15.7 11.185 12.857 11.966 33.311 30.228 36.143 32.273 1.342.97 5.838 1.436 15.395 1.585 7.424.115 13.833.538 14.234.94.401.4-.166 2.383-1.253 4.413l-1.972 3.694-14.243.276-14.234.277-10.153-9.278a11420 11420 0 0 0-22.259-20.278c-6.661-6.05-14.78-13.823-18.04-17.274-6.762-7.162-6.606-8.906.683-7.813m-54.218.092h6.532l21.402 19.495a11247 11247 0 0 1 39.837 36.502c10.142 9.35 20.253 18.463 22.461 20.25l4.017 3.253h12.751c13.791 0 14.046.109 13.018 5.5l-.57 2.994-15.534.277-15.524.276-3.602-2.773c-3.463-2.666-7.315-6.104-38.327-34.282-42.88-38.962-52.993-48.493-52.993-49.916 0-1.272 1.255-1.576 6.532-1.576m-25.594.48c1.415.537 7.422 5.599 13.35 11.248 13.826 13.18 31.493 29.548 46.793 43.357 6.648 6.001 20.085 18.334 29.85 27.409s18.698 17.177 19.854 18.002c1.661 1.186 5.048 1.468 16.141 1.327 8.606-.109 14.528.222 15.303.866 1.732 1.437 1.591 4.342-.304 6.237-.877.877-2.98 1.493-4.754 1.391-1.748-.1-9.047-.442-16.224-.755-14.999-.653-14.122-.263-26.45-11.728-4.676-4.348-12.778-11.615-18.003-16.15-5.225-4.537-11.075-9.671-13-11.416a3174 3174 0 0 0-13-11.645c-5.224-4.66-12.659-11.428-16.518-15.045s-10.609-9.681-15-13.47c-4.39-3.788-12.9-11.605-18.914-17.375-10.173-9.764-10.8-10.592-9.056-11.867 2.197-1.607 6.309-1.764 9.932-.387m364.386 2.726c4.957.14 8.285 4.295 11.13 13.875 4.153 13.991 4.36 32.519.561 50.387-1.962 9.233-10.111 26.158-15.616 32.411-3.328 3.781-4.688 4.616-7.453 4.616-6.022 0-7.054-6.846-2.138-14.151 14.212-21.12 17.604-49.746 8.716-73.502-3.661-9.786-2.239-13.835 4.8-13.636m-110.373 2.773c-1.565.742-2.64 2.624-2.026 5.068.518 2.067 1.154 2.517 3.252 2.266 3.377-.404 5.219-3.162 3.713-5.565-1.322-2.108-3.373-2.51-4.939-1.769m-372.079.544c4.142-.86 6.178-.75 10.595.562 8.565 2.543 12.979 6.186 17.616 14.547 5.258 9.483 7.416 18.287 7.416 30.275 0 11.06-1.654 18.274-6.08 26.58-3.374 6.33-7.236 9.892-14.161 13.036-11.755 5.336-26.992-.799-33.96-13.672-4.592-8.486-6.175-15.761-6.19-28.358-.033-25.052 8.324-39.557 24.764-42.97m428.122 4.855 18.003.516c9.9.284 19.124.822 20.499 1.198 4.153 1.135 5.793 3.297 8.2 10.77 3.067 9.525 3.283 30.092.405 38.64-6.66 19.783-14.72 31.576-23.53 34.438-4.918 1.597-23.024 2.46-32.07 1.53-6.248-.643-17.804-6.108-23.513-11.12-3.62-3.18-7.49-9.495-7.49-12.236 0-.807 1.186-2.407 2.635-3.547 3.426-2.695 10.947-2.742 19.513-.129 9.592 2.926 22.421 6.063 24.802 6.063 3.12 0 3.644-2.74 1.06-5.492-1.637-1.741-4.83-2.954-11.876-4.523-5.301-1.18-12.08-2.834-15.073-3.676-2.992-.842-8.376-1.523-11.958-1.502s-7.286-.375-8.237-.884c-4.508-2.413-2.828-9.202 2.875-11.6 5.03-2.114 23.365-1.21 35.755 1.77 13.664 3.285 16.513 3.508 16.464 1.262-.022-1.02-1.314-3.346-2.874-5.169-2.539-2.967-3.46-3.35-8.716-3.593-9.364-.432-27.53-2.527-31.619-3.648-4.26-1.17-4.94-3.557-1.815-6.385 6.468-5.854 20.464-6.03 38.916-.48 8.244 2.481 13.155 2.546 13.11.167-.018-.963-.942-2.847-2.054-4.183-1.708-2.051-3.526-2.62-11.71-3.685-14.421-1.878-22.002-3.144-23.162-3.86-2.544-1.573-.586-3.823 6.21-7.122zm-423.607 4.202c-2.41-.224-4.89.388-7.684 1.814-4.893 2.498-6.572 4.482-9.83 11.6-5.13 11.203-4.31 30.69 1.805 42.942 2.083 4.172 4.093 6.252 9.315 9.618 7.887 5.085 18.452.613 23.318-9.876 2.242-4.834 2.69-7.37 3.022-17.044.644-18.801-2.717-28.308-12.668-35.858-2.532-1.92-4.87-2.973-7.278-3.197m384.019 6.09c-3.484.516-4.578 3.163-2.57 6.227 1.947 2.973 3.829 3.293 6.09 1.032 3.21-3.21.929-7.92-3.52-7.26m-385.153 2.828c6.524 0 8.964 7.066 5.206 15.09-1.806 3.856-2.815 4.911-4.68 4.911-1.889 0-2.876-1.077-4.819-5.251-4.228-9.082-2.579-14.75 4.293-14.75m332.86 12.327c-2.253-1.303-4.501 2.674-10.614 15.745-11.167 23.88-12.001 26.056-10.844 28.22.809 1.51 1.706 1.735 4.782 1.216 3.627-.613 3.813-.504 4.413 2.497.542 2.712.99 3.084 3.381 2.81 3.62-.417 4.44-4.877 1.3-7.076-1.63-1.141-1.799-1.68-.802-2.488 2.503-2.028 15.426-8.535 24.267-12.216 9.102-3.79 10.91-5.631 8.457-8.587-.662-.798-2.46-1.446-3.998-1.446-5.427 0-5.987-.667-4.385-5.206 1.708-4.842 1.83-8.428.322-9.36-.607-.375-3.378.381-6.163 1.686-2.85 1.335-5.21 1.935-5.4 1.373-.185-.55-1.231-2.46-2.321-4.248-.894-1.467-1.645-2.486-2.395-2.92m-320.302 6.873c5.004.29 5.198.413 5.49 3.427.185 1.897-.34 3.758-1.326 4.745-1.92 1.92-7.822 2.163-9.204.378-1.822-2.355-2.265-4.897-1.207-6.873.883-1.65 1.92-1.927 6.247-1.677m-19.348 2.8c4.992 0 6.94 6.551 2.81 9.444-1.222.856-2.82 1.557-3.547 1.557-1.569 0-6.228-4.453-6.228-5.952 0-2.094 4.074-5.049 6.965-5.049m506.517 0c1.386 0 8.37 7.865 10.374 11.683 2.053 3.913 1.242 5.263-5.87 9.82-7.116 4.563-9.995 5.5-9.968 3.244.008-.688.635-3.95 1.392-7.25s1.68-8.585 2.054-11.747c.449-3.789 1.138-5.75 2.018-5.75m-498.096 7.417c2.04-.684 4.563 1.079 6.965 5.491 3.303 6.068 3.355 9.479.194 12.64-3.265 3.265-6.849 3.155-9.582-.294-1.858-2.345-2.096-3.62-1.65-8.642.48-5.38 2.033-8.51 4.073-9.195m307.57 10.743c-1.244.029-2.43.778-3.096 2.238-.903 1.982-.866 2.887.156 4.119 2.811 3.386 8.702-.555 6.376-4.266-.893-1.424-2.194-2.12-3.437-2.091m46.074 3.491c-1.413.873-2.979 3.746-5.049 8.845-4.266 10.508-9.938 22.355-11.019 23.023-.414.257-1.016-.605-1.345-1.916-.726-2.892-3.092-3.953-5.693-2.561-4.368 2.337-.721 8.98 4.09 7.453 1.863-.591 1.885-.452.46 3.584-1.11 3.148-1.204 4.546-.358 5.565.62.747 1.37 1.354 1.667 1.354s3.953-1.98 8.126-4.404c7.597-4.41 19.111-9.502 30.836-13.635 9.042-3.187 8.52-6.735-1.262-8.504-5.532-1-5.553-1.023-3.934-5.61 1.829-5.185 1.848-8.752.046-9.444-.772-.296-3.286.417-5.592 1.594-4.682 2.388-4.546 2.44-6.846-2.165-1.457-2.92-2.714-4.052-4.127-3.179m-305.8 6.92c2.728-.871 5.531-.67 7.195.994 4.278 4.278 3.115 10.607-2.478 13.46-2.214 1.13-4.417 3.08-4.893 4.33-1.955 5.144-2.21 13.174-.635 19.956.87 3.747 1.584 7.233 1.584 7.748 0 1.502-1.562 1.086-3.353-.893-3.46-3.823-6.66-13.98-7.315-23.208-.659-9.277-1.627-10.672-4.072-5.878-1.618 3.17-1.558 6.22.24 12.917.811 3.025 1.472 5.611 1.482 5.749.054 1.125-3.043-.193-4.698-2-5.874-6.41-9.141-20.265-5.934-25.16 2.37-3.618 8.048-4.496 11.02-1.705 2.928 2.752 3.284 2.687 5.122-.866 1.36-2.628 4.006-4.574 6.735-5.445m439.933 9.83c1.463-.904 5.467 3.21 10.862 11.166 4.792 7.067 10.973 19.507 10.973 22.074 0 .75-.565 1.338-1.253 1.309-2.19-.092-30.744-14.922-30.744-15.967 0-1.431 8.98-17.852 10.162-18.582m-511.666 3.547c5.735.624 11.078 6.606 14.602 16.85 2.772 8.056 2.372 18.205-.718 18.205-1.579 0-1.578-.007-1.391 9.748.106 5.555-.18 7.25-1.235 7.25-.826 0-1.907-2.1-2.7-5.25-1.914-7.609-3.601-10.4-7.02-11.591-1.665-.58-3.553-2.2-4.192-3.602-.968-2.126-.858-2.88.654-4.552 3.55-3.923 8.727-2.438 11.701 3.363 2.56 4.994 3.418 3.379 1.796-3.381-1.09-4.544-5.78-12.479-8.402-14.207-.6-.395-2.788-.45-4.864-.12-4.542.723-7.736-1.578-7.712-5.564.019-3.155.811-4.448 3.667-5.952 1.945-1.023 3.902-1.406 5.814-1.197m125.951 1.068c4.716.036 6.835 4.7 3.603 7.933-3.672 3.671-8.052 2.068-8.052-2.948 0-3.132 1.672-5.006 4.45-4.985m-43.743 11.443c5.765 1.447 6.961 5.123 3.04 9.314-2.039 2.18-2.237 3.338-2.137 12.318.06 5.45-.298 9.904-.802 9.904-2.603 0-8.389-20.096-7.361-25.575.832-4.436 3.762-6.839 7.26-5.961m394.172 1.539c1.673 0 3.708 1 5.132 2.515 1.3 1.383 4.993 3.48 8.208 4.652 8.675 3.163 14.246 10.815 13.59 18.684-.257 3.077-.704 3.687-2.81 3.87-5.454.474-21.897-7.184-30.532-14.216-4.55-3.705-8.078-9.475-7.196-11.774.6-1.56 8.513-3.731 13.608-3.731m-141.126 4.265c-.881.339-2.87 4.721-4.643 10.227-3.012 9.355-7.012 19.513-7.684 19.513-.182 0-1.478-1.146-2.874-2.543-2.046-2.046-2.915-2.338-4.478-1.501-4.557 2.438-3.23 8.043 1.907 8.043 2.706 0 2.73.042 1.677 3.989-.211.79.107.885.018 1.51h13.737c-.637-.494-1.135-1.134-.857-1.584 1.04-1.681 12.66-7.136 20.941-9.83 6.388-2.078 8.007-2.998 8.007-4.56 0-1.487-1.177-2.29-4.883-3.336l-4.874-1.382.507-4.652c.28-2.561.3-5.218.046-5.906-.607-1.635-4.155-1.536-7.297.203-2.957 1.636-5.003.457-5.003-2.884 0-3.048-2.378-6.024-4.247-5.307m-120.82 1.907c2.486-.367 5.617 1.99 6.348 4.782.584 2.235-.125 3.406-2.967 4.901-3.467 1.825-6.134 1.35-7.942-1.41-1.587-2.422-1.575-2.7.323-5.25 1.101-1.482 3.01-2.84 4.238-3.023m-124.1 2.442c2.081-.913 4.61-.697 6.946.94 2.953 2.068 2.843 5.92-.276 9.627-1.531 1.82-2.506 4.223-2.506 6.191 0 2.987 1.976 11.856 3.538 15.884.455 1.175.2 1.741-.774 1.741-5.329 0-12.909-19.334-11.185-28.524.544-2.9 2.176-4.946 4.257-5.86m279.81.764c-2.953.741-4.332 4.085-2.561 6.22.686.826 2.41 1.372 3.832 1.206 2.016-.234 2.656-.94 2.912-3.178q.62-5.45-4.183-4.247m-329.008 17.901c-1.25.407-3.575 9.516-5.555 16.225h4.274c.654-1.318 2.255-8.496 2.93-8.486.582.01 5.432 4.092 10.374 8.486h6.79c-2.204-2.066-5.087-4.62-6.818-6.265-5.977-5.682-11.372-10.162-11.995-9.96m208.63 7.5c-5.459-.56-11.192.13-15.975 2.193-3.02 1.302-6.283 3.766-9.057 6.532h41.662c-.876-.861-1.363-2.68-2.304-3.428-3.69-2.932-8.867-4.737-14.326-5.297" style="fill:#000;fill-opacity:1" transform="translate(-163.264 -69.51)scale(.159)"/><path d="M-26.845 90.822v129.995H103.15V90.822Zm2.3 2.3H100.85v125.396H-24.546Z" style="color:#000;fill:#000;stroke-width:.811363;-inkscape-stroke:none" transform="translate(45.39 6.384)"/><path d="m-211.68 803.352 20.462.802v-84.257q0-40.524 17.253-59.783 16.852-18.456 44.536-18.456t44.937 18.456q17.654 19.66 17.654 59.783v132.404q0 20.463-5.216 36.11 12.84 9.229 33.703 8.025v32.098q-28.888 2.407-47.746-14.043-16.049 16.05-43.332 16.05-28.888-.803-44.536-18.056-17.253-19.259-17.253-60.184V835.05l-20.462-.402zm49.35 5.216q31.697 7.222 55.37 39.32l9.63 13.24 1.203-25.277v-99.504q0-32.098-5.617-47.344-6.821-16.45-27.685-16.45-20.061 0-26.882 16.45-6.018 14.845-6.018 47.344zm35.308 59.381q-16.45-21.265-35.307-27.684 0 29.289 6.42 44.535 6.018 14.846 26.48 15.247 14.444 0 21.666-8.024zv-.401z" aria-label="Q" style="font-size:401.225px;font-family:NumbersDeuce;-inkscape-font-specification:NumbersDeuce;stroke-width:17.7708" transform="translate(62.374 -128.718)scale(.22154)"/><path d="M7.989 3.103C7.747-.954.242-8.59 0-10.5-.242-8.591-7.747-.955-7.989 3.103c-.169 2.868 1.695 4.057 3.39 4.057 1.835-.022 3.35-2.8 3.873-3.341.242.716-1.603 6.682-2.179 6.682h5.811c-.576 0-2.421-5.966-2.179-6.682.457.496 1.797 3.258 3.874 3.341 1.694-.001 3.557-1.189 3.388-4.057" style="fill:#000" transform="matrix(3.53993 0 0 3.2366 121.48 45.436)"/><g style="clip-rule:nonzero;opacity:.198728;fill:#b3b3b3;fill-opacity:1;fill-rule:nonzero;stroke:#000;stroke-miterlimit:4;filter:url(#a)" transform="translate(0 .616)"><path d="M166.837 235.548c0 3.777-3.087 6.869-6.871 6.869H7.11c-3.775 0-6.861-3.092-6.861-6.87V7.12C.25 3.343 3.336.25 7.11.25h152.856c3.784 0 6.87 3.093 6.87 6.87z" style="fill:#b3b3b3;fill-opacity:1;stroke-width:.5"/></g></svg>