<svg xmlns="http://www.w3.org/2000/svg" xml:space="preserve" width="222.783" height="323.556" viewBox="0 0 167.087 242.667"><defs><filter id="a" width="1.147" height="1.101" x="-.074" y="-.051" style="color-interpolation-filters:sRGB"><feGaussianBlur in="SourceGraphic" result="result3" stdDeviation="4"/><feGaussianBlur in="SourceGraphic" result="result4" stdDeviation="1"/><feBlend in2="result3" mode="darken"/><feComponentTransfer result="result1"><feFuncR tableValues="0 0.2 0.4 0.6 0.8 1 1" type="discrete"/><feFuncG tableValues="0 0.2 0.4 0.6 0.8 1 1" type="discrete"/><feFuncB tableValues="0 0.2 0.4 0.6 0.8 1 1" type="discrete"/></feComponentTransfer><feTurbulence baseFrequency="1" numOctaves="7" result="result0" type="fractalNoise"/><feConvolveMatrix kernelMatrix="-2 0 -2 0 -10 0 -2 0 -2" order="3 3" result="result5"/><feColorMatrix in="result5" result="result4" type="saturate" values="0"/><feComposite in="result1" in2="result4" k1="1.5" k2=".5" k3=".5" operator="arithmetic" result="result2"/><feComposite in2="SourceGraphic" operator="in"/></filter></defs><g style="fill-rule:nonzero;clip-rule:nonzero;stroke:#000;stroke-miterlimit:4"><path d="M166.837 235.548c0 3.777-3.087 6.869-6.871 6.869H7.11c-3.775 0-6.861-3.092-6.861-6.87V7.12C.25 3.343 3.336.25 7.11.25h152.856c3.784 0 6.87 3.093 6.87 6.87z" style="fill:#fff;stroke-width:.5"/></g><path d="M50.291 22.698s2.375-1.9 2.375-4.534c0-1.542-1.369-4.102-4.534-4.102s-4.534 2.561-4.534 4.102c0 2.634 2.375 4.534 2.375 4.534-2.638-2.055-7.34-.652-7.34 3.455 0 2.056 1.68 4.318 4.317 4.318 3.165 0 4.534-3.455 4.534-3.455s.402 3.938-1.943 6.046h5.182c-2.345-2.107-1.943-6.046-1.943-6.046s1.37 3.455 4.534 3.455c2.64 0 4.318-2.263 4.318-4.318 0-4.107-4.703-5.51-7.34-3.455" style="fill:green" transform="translate(-59.139 70.893)scale(2.12579)"/><path d="M50.291 22.698s2.375-1.9 2.375-4.534c0-1.542-1.369-4.102-4.534-4.102s-4.534 2.561-4.534 4.102c0 2.634 2.375 4.534 2.375 4.534-2.638-2.055-7.34-.652-7.34 3.455 0 2.056 1.68 4.318 4.317 4.318 3.165 0 4.534-3.455 4.534-3.455s.402 3.938-1.943 6.046h5.182c-2.345-2.107-1.943-6.046-1.943-6.046s1.37 3.455 4.534 3.455c2.64 0 4.318-2.263 4.318-4.318 0-4.107-4.703-5.51-7.34-3.455" style="fill:green" transform="translate(-44.957 -33.937)scale(3.36871)"/><g style="fill:green"><path d="M-26.845 90.822v129.995H103.15V90.822Zm2.3 2.3H100.85v125.396H-24.546Z" style="color:#000;fill:green;stroke-width:.811363;-inkscape-stroke:none" transform="translate(45.39 6.384)"/></g><g style="fill:green"><path d="m1518.76 27.825-5.127.296c-4.172.242-5.082.616-4.854 1.992.379 2.282-6.086 18.755-10.52 26.803-7.532 13.671-26.825 35.788-37.12 42.553-4.222 2.774-4.405 2.806-5.749.969-.763-1.044-1.39-3.388-1.39-5.204 0-2.67.722-3.833 3.785-6.062 18.648-13.569 32.444-32.224 39.185-53.006l2.669-8.248h-2.322c-1.803 0-2.312.548-2.312 2.472 0 5.839-8.429 24.04-15.082 32.579-5.96 7.65-14.826 17.037-18.6 19.69-4.437 3.116-6.326 2.111-6.326-3.378 0-4.079.433-4.818 5.576-9.604 8.265-7.693 15.738-18.204 21.8-30.67l5.393-11.09h-2.889c-2.2 0-2.88.47-2.88 1.975 0 7.409-19.776 37.026-24.724 37.026-1.895 0-3.637-4.424-2.897-7.372.348-1.388 2.814-5.014 5.475-8.055s6.876-9.588 9.369-14.55l4.533-9.023h-2.879c-1.634 0-2.87.535-2.87 1.245 0 1.957-5.523 13.132-7.431 15.04-.944.943-2.424 1.715-3.29 1.715-1.348 0-1.483-1.065-.951-7.353.342-4.044.904-8.09 1.252-8.996.555-1.447-.37-1.651-7.587-1.651-7.44 0-8.143.167-7.467 1.753 1.525 3.577 1.704 14.115.539 32.172-2.17 33.613-8.167 60.077-20.063 88.574-9.102 21.804-21.676 42.523-52.493 86.498-16.84 24.03-26.138 39.515-33.4 55.627-8.935 19.828-11.804 28.948-16.552 52.572-3.137 15.608-4.39 42.334-2.66 56.807.624 5.225 1.413 12.208 1.746 15.529l.603 6.043-9.26 10.961c-10.625 12.575-29.198 31.867-37.027 38.465-2.937 2.475-9.193 7.586-13.903 11.358s-10.13 8.15-12.056 9.734c-6.23 5.126-7.103 4.575-23.006-14.513-7.669-9.205-8.128-10.01-6.435-11.248 1.003-.733 2.97-1.33 4.378-1.328s8.189-.95 15.064-2.113c14.447-2.443 25.28-6.832 31.306-12.686 3.755-3.649 9.688-12.884 9.688-15.076 0-.77-3.22-1.067-10.246-.942-5.638.1-16.777.03-24.752-.166-12.665-.309-15.405-.085-21.617 1.809-3.912 1.192-8.76 3.294-10.786 4.668-4.275 2.902-7.595 3.266-7.595.83 0-.918 1.393-4.852 3.098-8.746a1471 1471 0 0 0 4.479-10.334c1.18-2.771 1.892-3.247 4.835-3.247 4.404 0 8.175-1.44 12.577-4.816 2.77-2.124 5.264-2.89 12.002-3.682l8.51-1.006.292-8.331c.266-7.608.588-8.763 3.693-13.277 5.535-8.047 5.605-14.752.237-22.273-1.74-2.439-2.333-4.963-2.724-11.616l-.502-8.497-8.62-.508c-8.487-.492-8.692-.559-13.226-4.742-4.246-3.918-5.032-4.254-10.064-4.254-6.802 0-10.178 1.247-14.386 5.306-2.702 2.606-4.33 3.274-9.004 3.69l-5.703.508-.494 7.113c-.469 6.676-.76 7.405-4.68 11.653-8.043 8.719-8.145 18.405-.265 26.111 4.535 4.435 5.078 6 4.707 13.619l-.265 5.498 3.501.268c6.862.53 7.995 1.099 8.044 4.004.055 3.27-11.937 27.93-13.976 28.74-1.98.787-3.37-1.102-5.539-7.51-2.419-7.146-8.183-15.621-13.555-19.92-2.35-1.88-9.497-5.981-15.877-9.115s-14.156-7.783-17.285-10.334c-4.058-3.309-5.907-4.288-6.453-3.404-1.113 1.8-.488 18.594.869 23.278 1.794 6.194 5.174 10.905 11.206 15.648 7.73 6.078 20.916 13.514 27.21 15.344 5.5 1.598 8.5 4.641 6.107 6.19-.69.446-4.47.812-8.4.812-8.166 0-9.835 1.005-14.15 8.498-1.425 2.476-4.067 6.254-5.868 8.396s-3.804 5.503-4.451 7.464-2.234 5.672-3.528 8.249c-2.206 4.392-2.359 5.79-2.359 22.41v17.734l3.227 5.859c3.004 5.463 3.137 6.085 1.901 9.125-2.445 6.013-7.12 21.151-7.12 23.048 0 1.525.481 1.293 2.587-1.21 4.176-4.963 10.303-3.869 10.493 1.874.075 2.259.299 2.095 1.928-1.449 1.012-2.2 2.16-5.343 2.56-6.993l.722-3.008-2.011 2.454c-1.955 2.371-2.105 2.393-4.616.747-1.427-.934-3.256-1.697-4.068-1.697-2.516 0-2.726-1.7-.859-7.197 2.213-6.514 3-7.805 4.744-7.805 2.518 0 7.513 5.076 7.513 7.63 0 2.172.237 2.313 2.094 1.32 4.155-2.225 13.8 4.655 12.458 8.884-.548 1.726-6.585 6.952-28.555 24.672a7097 7097 0 0 0-16.306 13.25c-6.922 5.637-13.06 10.25-13.637 10.25-.685 0-1.052 5.053-1.052 14.54v14.55l6.828-5.794a899 899 0 0 1 13.254-10.997c3.532-2.86 13.621-11.124 22.421-18.361 8.8-7.238 23.42-19.171 32.494-26.517 17.131-13.866 34.6-28.137 41.507-33.916a450 450 0 0 1 8.208-6.68c2.317-1.832 14.15-11.432 26.297-21.332 22.393-18.252 29.444-23.5 31.57-23.5 1.333 0 8.419 8.295 8.419 9.854 0 .558-1.913 2.541-4.25 4.401-34.898 27.769-56.077 44.747-64.248 51.511-5.5 4.553-12.924 10.693-16.499 13.637a2774 2774 0 0 0-12.997 10.786c-16.403 13.714-57.993 47.48-62.968 51.124-3.043 2.228-10.02 7.85-15.502 12.483s-10.993 8.814-12.249 9.291c-2.244.854-2.285 1.134-2.285 16.59 0 12.23.264 15.455 1.198 14.522 3.45-3.451 10.804 1.154 10.804 6.763 0 1.712-.878 3.913-2.002 5.037-2.222 2.222-6.95 2.655-8.802.803-.934-.933-1.198 2.512-1.198 15.5 0 9.186.183 16.7.403 16.7s1.912-1.46 3.765-3.247c1.854-1.788 10.116-8.749 18.354-15.473 38.035-31.042 51.54-42.115 56.56-46.354 9.02-7.615 53.918-44.286 56.845-46.427 1.503-1.1 6.29-4.98 10.648-8.618s14.456-11.88 22.43-18.324c26.9-21.734 32.47-26.288 41.498-33.898 4.95-4.172 10.938-8.614 13.309-9.872l4.305-2.288 2.943 3.266c1.617 1.796 2.943 3.86 2.943 4.586 0 1.108-12.354 12.083-24.368 21.645-1.723 1.371-8.081 6.566-14.131 11.551s-18.2 14.882-27 21.987-16.898 13.761-17.998 14.79c-1.1 1.03-6.501 5.427-12.001 9.771s-13.607 10.867-18.007 14.504-11.178 9.158-15.063 12.262c-3.886 3.104-9.287 7.536-12.002 9.854-7.715 6.588-19.584 16.309-26.562 21.747-3.501 2.729-9.294 7.492-12.87 10.582-8.3 7.176-48.836 39.97-51.89 41.98-1.501.99-2.182 2.268-1.955 3.664.304 1.871 2.007.783 13.272-8.516l31.086-25.668c9.99-8.25 21.052-17.322 24.579-20.16 3.526-2.839 12.255-9.959 19.405-15.814 25.808-21.137 46.705-38.13 52.913-43.033 7.786-6.149 50.974-41.32 62.593-50.976 4.675-3.885 10.077-8.278 12.002-9.77 1.925-1.494 6.87-5.42 10.996-8.72 8.682-6.944 11.52-7.531 14.816-3.072 1.204 1.628 2.185 3.866 2.185 4.973 0 2.337-23.113 21.382-28.866 23.786-3.632 1.518-7.376 4.315-19.752 14.771-3.913 3.306-12.643 10.508-19.405 16.008a11850 11850 0 0 0-24.505 20.003c-6.717 5.5-20.225 16.53-30.017 24.506s-19.64 16.097-21.882 18.056-8.121 6.828-13.071 10.823-11.7 9.9-15 13.12c-5.568 5.432-12.221 10.979-42.502 35.43-6.325 5.106-13.075 10.693-15 12.418s-5.84 4.826-8.701 6.892l-5.201 3.755-.055 44.361-.028 23.694h297.538c1.175-.84 1.103-1.074 2.45-1.956 6.752-4.425 9.999-7.155 9.999-8.415 0-1.026-.902-4.488-2.002-7.685-1.1-3.198-2.002-6.141-2.002-6.542s4.085-3.752 9.077-7.455 9.34-7.422 9.661-8.258-.361-4.424-1.517-7.98l-2.103-6.468 2.24-2.15c1.232-1.181 4.632-4.27 7.559-6.874 5.724-5.09 5.607-4.546 2.916-13.6l-1.29-4.327 5.23-4.908c2.874-2.7 5.227-5.152 5.227-5.453s-1.129-2.767-2.504-5.48-2.495-5.597-2.495-6.404 2.022-3.12 4.497-5.148 4.506-4.303 4.506-5.047-.992-3.393-2.203-5.887l-2.203-4.53 4.351-4.438 4.35-4.438-2.129-4.807-2.139-4.807 3.483-3.1c2.532-2.257 3.482-3.937 3.482-6.144 0-4.342 2.515-4.893 6.079-1.33 3.44 3.44 3.644 5.113.923 7.576-2.517 2.277-2.517 5.28 0 8.497 2.759 3.527 2.492 5.137-1.5 9.005-3.99 3.869-4.326 6.23-1.498 10.5 2.886 4.358 2.522 5.871-2.495 10.288-5.117 4.504-5.476 6.38-2.377 12.455l2.12 4.17-6.306 5.638-6.316 5.647 2.184 6.929c1.203 3.81 2.194 7.44 2.194 8.064s-3.27 3.936-7.257 7.362c-3.988 3.427-7.423 6.703-7.642 7.28-.218.578.64 4.05 1.91 7.713 1.271 3.665 2.046 7.36 1.719 8.212s-3.781 4.085-7.669 7.187c-4.133 3.298-7.066 6.403-7.066 7.474 0 1.007.675 3.742 1.5 6.08 2.532 7.177 2 8.078-6.517 13.554h19.587c6.787-14.513 12.82-29.21 17.632-44.057 8.053-24.845 16.143-61.832 19.24-87.992.912-7.7 1.974-16.034 2.359-18.509l.704-4.493 6.407-.304c4.45-.21 6.657.092 7.23.996 3.386 5.337-5.767 74.536-13.729 103.807-1.421 5.225-3.198 11.745-3.948 14.495-1.274 4.665-7.564 23.568-11.865 36.057h16.755c-1.84-3.728-3.355-7.383-3.355-8.12 0-.742 3.152-3.866 7.002-6.938 4.48-3.574 7.001-6.302 7.001-7.584 0-1.102-1.681-5.39-3.73-9.53l-3.72-7.539 6.792-6.071c7.576-6.772 7.737-7.518 3.117-14.836-1.353-2.143-2.459-4.715-2.459-5.711s2.062-3.813 4.58-6.265c6.679-6.506 6.801-6.962 3.382-12.354-1.63-2.57-2.962-5.345-2.962-6.164 0-.818 1.794-3.435 3.994-5.821 2.2-2.387 4.004-4.642 4.004-5.001 0-.36-1.655-3.14-3.675-6.182l-3.665-5.527 5.164-5.24c2.845-2.88 5.174-5.534 5.174-5.905s-1.348-2.968-2.998-5.767c-1.65-2.798-2.998-5.572-2.998-6.163 0-.59 1.348-2.605 2.998-4.484 3.534-4.025 3.626-4.877.996-8.848-2.754-4.16-2.516-5.5.96-5.5 2.339 0 3.691.965 6.499 4.642 4.329 5.67 4.443 8.269.548 12.705-1.65 1.879-3.007 3.638-3.007 3.912 0 .273 1.576 3.114 3.5 6.31 1.926 3.197 3.501 6.39 3.501 7.105s-1.569 2.319-3.491 3.561c-4.907 3.171-5.252 5.19-1.737 10.112 4.833 6.768 4.815 7.665-.265 12.65-2.475 2.43-4.497 5.112-4.497 5.96s1.344 3.569 2.989 6.044 2.998 5.317 2.998 6.32-2.468 4.081-5.493 6.846-5.503 5.64-5.503 6.384c0 .746 1.143 3.028 2.532 5.075 4.294 6.328 4.274 8.088-.137 11.7-2.128 1.742-5.228 4.395-6.883 5.886l-3.007 2.703 4.47 8.525c2.826 5.39 4.103 8.857 3.491 9.43-.532.498-3.795 3.237-7.257 6.09-6.441 5.306-6.364 6.53-2.34 13.59h71.77c-.583-10.737-.181-21.269 2.377-31.278 5.27-20.626 18.29-43.39 31.37-54.833 6.293-5.506 8.727-5.649 12.083-.71 1.395 2.052 2.532 4.312 2.532 5.019s-2.727 4.092-6.06 7.52c-11.045 11.356-21.297 29.481-26.133 46.224-1.977 6.847-2.292 10.164-2.23 23.002.012 2.554.548 3.145.594 5.056h2.35c-.045-1.984-.522-2.426-.522-5.075 0-17.528 1.51-24.506 8.437-38.982 5.452-11.394 8.315-15.501 17.34-24.911 8.104-8.451 10.683-9.36 14.149-4.955 2.824 3.591 2.636 4.65-1.371 7.501-9.76 6.944-19.785 22.031-24.542 36.925-2.268 7.098-2.63 19.878-2.404 29.497h87.373c.299-.288 1.51-2.09 1.681-2.196 1.01-.63 11.064-8.875 22.34-18.315 11.274-9.439 21.782-17.842 23.344-18.674 3.453-1.84 5.372-1.23 6.636 2.094 1.165 3.065 8.141 12.54 9.232 12.54 1.374 0 .871-.903-2.715-4.872-4.76-5.27-7.909-12.489-6.554-15.021.564-1.054 4.968-4.982 9.79-8.728 4.82-3.747 13.748-10.942 19.834-15.99 17.105-14.186 31.562-25.575 34.213-26.95 3.138-1.629 7.669-.344 11.398 3.229 2.81 2.693 3.727 6.654 1.819 7.833-2.1 1.298-.848 2.031 2.842 1.68 4.335-.414 7.157 1.592 7.157 5.083 0 1.656.274 1.865 1.207.932 5.187-5.187 17.07 9.579 14.167 17.604-.821 2.272-1.49 2.657-4.24 2.436-3.567-.287-3.55-.103.584 5.407 3.53 4.704 4.478 8.962 2.852 12.852-2.548 6.1-4.313 5.736-10.219-2.113-2.118-2.815-5.314-6.346-7.102-7.842-3.902-3.267-4.087-6.02-.667-9.91 2.107-2.396 3.045-2.76 5.722-2.25l3.199.608-4.881-4.29c-3.925-3.446-4.752-4.708-4.205-6.43.605-1.906.257-2.177-3.117-2.455-3.203-.264-4.073-.867-5.548-3.82-1.78-3.563-2.237-2.846-1.782 2.759.217 2.67-3.824 9.507-9.607 16.248-3.195 3.724-4.306 5.967-4.835 9.817-.513 3.733-1.421 5.65-3.592 7.584-1.597 1.422-3.563 4.16-4.37 6.09-1.87 4.476-4.196 4.512-8.445.128-4.167-4.299-4.86-9.053-2.706-18.526 1.133-4.98 1.328-7.716.64-8.895-.898-1.54-1.008-1.514-1.142.296-.082 1.1-.093 2.342-.027 2.758.066.417-.817 5.096-1.965 10.399-1.3 5.998-1.773 10.346-1.253 11.505.46 1.025 4.211 4.681 8.336 8.128 7.88 6.585 15.909 18.131 18.053 25.964.28 1.022-.085 2.18-.073 3.303h2.787c-.162-4.496-1.969-10.039-5.475-15.74-4.167-6.778-3.708-8.25 2.267-7.354 3.3.495 5.253.17 8.281-1.375 3.95-2.015 3.971-2.022 6.472-.055 5.825 4.582 9.552 17.62 6.608 23.121-.188.352-1.418.923-1.983 1.403h1.837c5.403-4.547 11.87-10.06 14.862-14.781 1.3-2.052 2.368-5.101 2.368-6.772s1.053-6.069 2.34-9.771c2.098-6.038 2.328-8.399 2.248-22.9-.085-15.357-.213-16.32-2.459-19.357-1.984-2.683-2.294-4.071-1.92-8.59.246-2.962.316-5.38.147-5.38s-1.011 1.35-1.865 3c-1.975 3.82-4.09 3.78-8.857-.148-3.449-2.843-3.747-3.47-3.162-6.588 1.207-6.437 2.31-7.663 8.637-9.65 7.64-2.4 8.578-1.67 6.892 5.36-1.927 8.034-.564 6.888 1.901-1.596 3.357-11.552 3.71-16.402 1.399-19.256-1.575-1.945-2.481-2.247-5.064-1.68-6.528 1.435-14.234 10.321-14.259 16.452-.018 4.289-1.936 8.472-4.076 8.885-2.082.4-10.895-6.851-10.905-8.968 0-1.698 4.163-5.542 15.712-14.495 3.418-2.65 13.993-11.157 23.5-18.905s18.296-14.63 19.533-15.289c2.17-1.153 2.258-1.702 2.258-15.159v-13.96l-9.296 7.751c-5.111 4.26-14.848 12.242-21.635 17.742s-20.72 16.959-30.958 25.456c-34.213 28.395-58.573 48.544-63.535 52.563a5755 5755 0 0 0-42.494 34.729c-7.823 6.462-14.892 11.754-15.703 11.754-2.146 0-6.19-4.388-6.992-7.584-.552-2.198-.207-3.142 1.709-4.66 2.568-2.032 32.97-27.033 48.947-40.254 5.317-4.4 16.785-13.85 25.483-21s22.91-18.85 31.58-26c16.64-13.722 22.195-18.26 40.84-33.353 31.648-25.622 39.957-32.145 40.957-32.145.739 0 1.097-4.905 1.097-15.206 0-11.822-.273-14.93-1.207-13.996-1.733 1.733-6.835 1.468-8.966-.462-2.492-2.254-2.32-7.19.347-10.029 2.345-2.496 6.677-3.059 8.62-1.116.933.933 1.206-2.736 1.206-16.525v-17.724l-8.254 6.763a4260 4260 0 0 0-14.286 11.782c-6.37 5.286-26.621 21.951-41.872 34.461-5 4.102-14.534 11.98-21.188 17.503a3060 3060 0 0 1-21.964 18.047 3381 3381 0 0 0-18.4 15.048c-31.511 26.008-40.505 33.463-48.041 39.85-10.59 8.973-38.33 31.65-45.757 37.403-6.71 5.199-9.626 5.261-12.961.296-2.405-3.58-2.721-4.954-1.517-6.607.404-.554 6.345-5.502 13.198-10.997 6.854-5.496 15.46-12.467 19.122-15.492 12.083-9.98 54.256-45.213 62.758-52.424 4.59-3.894 10.219-8.507 12.504-10.251s8.703-6.915 14.259-11.496 15.828-13.056 22.832-18.831 14.611-11.994 16.901-13.812c7.439-5.908 42.494-34.4 56.506-45.93 7.513-6.182 14.22-11.242 14.908-11.247.765-.006 1.252-1.398 1.252-3.589v-3.58l-4.753 4.134c-2.612 2.275-10.563 8.956-17.668 14.836-7.106 5.88-23.528 19.477-36.498 30.216-27.597 22.851-37.914 31.34-43.07 35.467-2.06 1.65-7.025 5.705-11.032 9.005-15.028 12.377-20.936 17.202-30.08 24.57-10.983 8.849-45.956 37.912-53.828 44.73-16.08 13.924-36.928 30.193-39.405 30.752-2.147.485-3.422.09-5.255-1.633-3.521-3.308-3.197-7.234.831-10.085 3.16-2.236 14.244-11.08 37.695-30.069 6.296-5.098 22.29-18.266 35.538-29.266s29.876-24.728 36.955-30.503 14.975-12.295 17.55-14.495c2.574-2.2 11.802-9.854 20.501-17.004s19.053-15.697 23.006-18.997c8.548-7.134 37.904-31.068 54.898-44.758a4188 4188 0 0 0 13.363-10.795c.966-.797 1.252-11.33 1.252-46.455v-45.422l-3.254 1.9c-1.787 1.05-6.814 2.888-11.17 4.079-10.673 2.918-31.49 2.45-45.08-1.015-13.152-3.354-36.15-14.952-50.574-25.502-10.926-7.992-8.656-10.443 3.849-4.152 9.25 4.655 32.526 12.87 45.382 16.017 6.36 1.557 16.249 3.019 24.505 3.617 7.611.551 16.088 1.465 18.838 2.03s7.814.727 11.252.369c5.355-.558 6.252-.933 6.252-2.639 0-1.53-.41-1.807-1.755-1.2-13.867 6.267-52.695-10.648-72.849-31.738-4.485-4.694-15.223-20.791-19.578-29.34-.841-1.65-3.344-6.375-5.558-10.5-7.163-13.349-14.479-27.346-17.778-34-1.772-3.575-6.595-12.801-10.712-20.501s-11.433-21.65-16.261-31a7351 7351 0 0 0-19.021-36.5c-9.335-17.78-22.24-42.921-25.173-49.04-2.103-4.387-11.817-23.196-17.275-33.455-10.151-19.08-15.404-29.173-32.805-62.998-22.695-44.116-30.236-59.201-30.236-60.47 0-.567-1.384-1.033-3.071-1.033h-3.072l1.91 2.749c1.047 1.513 4.534 7.697 7.752 13.747s7.116 13 8.665 15.446c3.094 4.886 3.615 8.054 1.334 8.054-1.837 0-24.436-25.764-24.999-28.5-.226-1.1-.694-4.132-1.032-6.745l-.613-4.751h-15.081l4.963 5.425c5.597 6.124 8.197 13.034 5.813 15.426-.984.988-1.852 1.07-3.263.314-3.349-1.792-16.23-16.014-16.892-18.647-.456-1.817-1.302-2.518-3.025-2.518-2.237 0-3.318 1.424-1.645 2.168.412.183 2.661 2.887 4.99 6.015s8.085 8.94 12.797 12.908c9.172 7.724 11.994 11.686 11.032 15.52-.797 3.176-3.147 3.037-8.738-.508-10.365-6.574-30.83-29.313-30.83-34.258 0-1.383-.743-1.845-2.962-1.845h-2.97l4.652 6.753c10.838 15.73 24.44 29.16 36.342 35.891 7.007 3.963 9.473 7.087 8.364 10.583-.527 1.658-1.228 1.901-4.132 1.43-5.021-.815-10.42-3.865-19.862-11.238-14.682-11.465-28.022-27.931-32.722-40.384-.893-2.364-1.751-3.035-3.876-3.035h-2.733l4.58 7.75c7.217 12.218 16.083 23.856 23.024 30.216 8.404 7.701 21.642 16.532 30.044 20.04 7.122 2.974 9.954 6.211 8.748 10.011-2.306 7.265-28.573-6.21-47.585-24.413-11.36-10.877-23.62-30.218-25.493-40.2zm85.262.093 5.128 9.752c4.516 8.583 17.197 32.353 23.344 43.752 1.187 2.2 4.777 8.943 7.98 14.993s9.065 17.08 13.025 24.505c8.125 15.236 14.945 28.247 38.27 73 15.327 29.405 41.558 78.963 49.222 92.994a1752 1752 0 0 1 10.995 20.5c7.338 13.965 14.231 26.94 18.062 34 1.79 3.3 6.8 12.903 11.133 21.341 10.272 20.004 13.04 24.212 21.918 33.298 8.786 8.991 16.047 13.985 25.475 17.503 7.801 2.911 11.284 3.722 26.927 6.32 6.05 1.005 11.333 1.88 11.746 1.938.412.058.758-2.902.758-6.579 0-5.188-.43-7.154-1.91-8.756-1.049-1.135-4.484-6.335-7.632-11.56-3.149-5.225-9.192-14.898-13.428-21.498-4.235-6.6-11.435-18.077-16.004-25.502s-9.488-15.303-10.923-17.503-2.833-4.465-3.108-5.037c-.549-1.141-20.875-33.848-24.523-39.462-6.397-9.841-11.48-19.078-11.48-20.86 0-2.759 12.149-9.3 22.503-12.115 10.315-2.806 26.72-4.99 37.503-4.992 9.202-.002 24.427 1.399 27.247 2.5 1.593.623 1.755-.178 1.755-8.921 0-5.683-.41-9.614-.996-9.614-.545 0-2.376-2.363-4.068-5.25a691 691 0 0 0-5.831-9.743c-3.442-5.617-14.065-26.148-16.307-31.509-7.934-18.98-17.805-47.975-17.805-52.314 0-.724-.864-5.225-1.92-10.001-2.482-11.24-4.857-29.052-5.566-41.676-1.052-18.734-.832-49.585.366-50.783 1.921-1.921 1.252-2.721-2.276-2.721-3.332 0-3.412.096-3.812 4.751-.224 2.613-.514 12.174-.649 21.249-.457 30.652 2.696 55.915 11.444 91.738 5.13 21.006 7.904 29.243 14.03 41.649 4.792 9.703 4.933 10.316 3.227 14.06-1.682 3.691-4.141 3.136-6.764-1.53-7.216-12.84-23.08-9.352-23.08 5.074 0 3.47.69 4.823 4.507 8.903 2.475 2.646 4.497 5.107 4.497 5.462 0 1.607-7.115.39-12.056-2.057-11.913-5.9-21.917-19.8-24.36-33.843-1.331-7.659-.535-16.46 1.49-16.46.503 0 1.866 2.025 3.026 4.494s3.652 5.844 5.539 7.5c4.753 4.174 8.545 4.02 13.08-.516 3.346-3.346 3.497-3.791 3.062-9.033-.341-4.112-1.263-6.669-3.638-10.038-3.072-4.36-3.335-6.4-.832-6.413 3.785-.017 8.842-2.394 10.731-5.046 3.963-5.566 2.613-13.456-3.226-18.896-3.536-3.294-10.85-2.838-15.164.95-1.88 1.65-3.912 2.999-4.516 2.999-.603 0-2.02-1.82-3.153-4.041-4.31-8.45-12.011-10.188-18.912-4.282-4.218 3.611-4.282 3.757-3.848 8.996.343 4.13 1.176 6.245 3.72 9.411 4.385 5.457 3.144 6.669-4.56 4.429-7.225-2.1-15.108-7.247-19.716-12.871-5.44-6.639-10.401-16.515-11.718-23.343-1.215-6.298-.611-19.611 1.005-22.226 1.299-2.101 2.726-.465 3.428 3.92.838 5.24 6.553 11.717 11.087 12.567 6.68 1.253 12.532-4.031 12.532-11.32 0-4.174-2.859-11.415-5.037-12.76-1.72-1.064.699-3.188 4.415-3.885 6.194-1.162 10.12-7.392 8.702-13.803-1.172-5.297-7.835-11.791-12.093-11.791-4.113 0-9.477 2.577-11.362 5.452-2.263 3.454-3.175 3.227-6.178-1.531-2.542-4.025-7.302-6.92-11.38-6.92-2.645 0-8.503 5.232-10.055 8.977-1.578 3.812-.818 6.65 2.962 11.026 1.662 1.925 3.025 3.832 3.025 4.244 0 1.41-6.496.716-10.502-1.125-14.477-6.653-25.485-22.154-27.165-38.235-.52-4.965-.924-5.886-2.569-5.886-1.773 0-1.895.478-1.28 5.25 3.2 24.804 20.807 43.697 43.408 46.575 6.393.814 6.28.464 4.14 12.179-1.212 6.641-.728 18.26 1.052 25.16.52 2.015 3.628 7.738 6.901 12.723 5.811 8.85 12.887 15.404 21.37 19.791 4.24 2.193 11.712 4.297 15.32 4.309 4.359.015 6.538 2.321 5.292 5.6-2.143 5.635-2.865 18.736-1.444 26.194 3.95 20.73 22.579 39.222 39.513 39.222 5.4 0 6.096 1.354 4.772 9.346-1.27 7.661-1.747 8.09-10.064 9.024l-5.75.646-6.343-9.762c-3.485-5.367-8.364-13.128-10.85-17.253s-9.455-14.933-15.483-24.008c-11.417-17.186-20.65-31.517-31.233-48.494-3.428-5.5-11.938-18.8-18.911-29.552-6.973-10.753-16.95-26.274-22.175-34.489s-14.54-22.49-20.693-31.72-11.464-17.668-11.81-18.758c-.61-1.92-1.617-1.983-32.558-1.983zm-89.594 4.364c1.34.34 2.923 2.499 4.945 6.532 8.944 17.844 12.22 22.602 22.85 33.197 5.898 5.877 13.611 12.755 17.148 15.279 6.326 4.514 27.765 15.63 30.145 15.63 2.684 0 6.48 4.141 6.48 7.067 0 3.855-2.206 3.847-9.734-.055-13.963-7.24-36.708-8.012-48.983-1.661-3.091 1.599-5.274 4.325-5.274 6.578 0 1.618 3.928 1.285 9.497-.812 15.071-5.675 35.437-4.688 49.495 2.408 7.544 3.808 10.577 8.718 12.477 20.216.963 5.835-1.203 6.598-6.8 2.39-18.501-13.908-25.918-16.967-37.284-15.372-7.609 1.068-9.072 1.663-19.159 7.769-5.37 3.25-6.157 4.086-5.511 5.877.414 1.15.66 3.89.539 6.09-.554 10.099.437 12.968 1.755 16.34.01-1.937 3.42-2.022 9.314-.222 4.097 1.251 9.202 1.883 15.173 1.882 9.975 0 17.016-2.251 28.262-9.032 6.35-3.83 13.822-4.743 16.544-2.021.796.796 4.196 9.78 7.56 19.966 5.545 16.8 8.414 24.566 21.186 57.324 2.758 7.072 3.798 11.024 3.355 12.788-.733 2.922-15.605 17.014-26.562 25.17-9.56 7.116-31.33 20.63-40.848 25.363-9.91 4.927-24.096 10.567-31.297 12.437-5.5 1.43-20.478 1.947-23.7.822-20.393-7.12-38.261-35.514-48.363-76.884-4.675-19.147-5.567-24.082-7.769-42.719-2.692-22.786-2.842-22.38 7.532-20.723 6.816 1.09 13.942.393 22.924-2.232 3.08-.9 3.994-.85 4.68.258 1.294 2.094-.294 4.154-6.454 8.396-3.086 2.126-5.423 4.049-5.2 4.272s2.489-.608 5.036-1.845c4.145-2.014 4.79-2.091 6.152-.73 1.361 1.362 1.134 2.67-2.167 12.466-4.77 14.155-4.463 16.254 3.282 22.43 3.103 2.474 6.695 5.573 7.988 6.891l2.358 2.4v-2.4c-.01-3.26-3.35-8.54-8.619-13.627-5.587-5.394-5.622-7.456-.475-22.993 9.18-27.713 12.124-50.471 7.54-58.274-2.868-4.883-10.912-10.67-16.781-12.077-7.152-1.716-20.225-.695-25.493 1.993-2.33 1.188-4.678 1.887-5.21 1.559-2.479-1.532-.079-4.553 9.113-11.478 19.22-14.479 37.883-40.352 44.88-62.232 1.04-3.257 2.134-4.741 3.473-4.401m77.273 18.988c1.015.483 2.375 1.85 4.607 4.364 2.305 2.596 8.466 9.237 13.692 14.753 5.225 5.516 11.688 12.953 14.36 16.525 4.702 6.285 10.639 16.877 10.639 18.978 0 .566-.864 1.025-1.92 1.025-2.172 0-30.169-28.776-38.005-39.065-5.328-6.995-7.759-13.41-5.923-15.62.864-1.042 1.535-1.443 2.55-.96m149.354 17.715a6.5 6.5 0 0 1 4.944 1.928c2.655 2.655 2.534 6.157-.31 8.83-2.696 2.532-4.172 2.645-7.925.609-3.882-2.107-4.604-5.905-1.71-8.987 1.41-1.5 3.21-2.3 5-2.38m-145.726 7.132c2.2-.45 4.383 1.407 10.942 9.3 6.182 7.44 13.381 14.998 27.018 28.353 8.64 8.46 11.319 11.817 14.643 18.37 2.238 4.41 4.068 8.41 4.068 8.894s-.891.886-1.984.886c-2.311 0-17.55-14.516-35.172-33.502-21.49-23.151-20.522-21.858-21.023-28.02-.254-3.128.047-3.983 1.508-4.281m5.128 23.804c.71 0 14.737 13.358 31.169 29.69 26.873 26.71 30.351 30.547 34.624 38.161 2.612 4.656 4.753 9.071 4.753 9.808 0 3.436-4.677.212-19.003-13.092-16.492-15.316-43.311-42.877-48.243-49.583-3.09-4.202-5.786-11.575-5.027-13.739.24-.687 1.017-1.245 1.727-1.245m-120.46 12.502c7.546-.005 9.102.325 13.828 2.943 2.929 1.622 6.232 4.22 7.34 5.776 2.899 4.07 4.16 9.302 2.843 11.763-1.414 2.643-3.757 2.547-8.025-.332-9.686-6.532-21.614-8.256-31.352-4.53-6.582 2.519-8.202 2.116-9.168-2.279-.658-2.996-.343-3.632 3.529-7.067 5.397-4.79 10.354-6.268 21.004-6.274m125.47 12.548c1.08-1.748 6.227 1.886 10.538 7.445 7.863 10.14 36.754 38.188 57.557 55.885 5.58 4.747 7.839 7.61 11.7 14.809 2.632 4.907 4.525 9.344 4.204 9.863-.96 1.553-2.798 1.03-5.968-1.707-4.036-3.485-17.311-15.52-31.507-28.547-14.174-13.007-42.212-42.392-44.304-46.437-1.888-3.651-3.11-9.871-2.22-11.311m-44.387 1.79c4.74-.014 9.716.87 14.113 2.657 6.756 2.745 9.808 5.016 9.808 7.298 0 1.267-1.23 1.358-8.254.627-4.537-.471-11.168-.855-14.743-.858s-9.535.38-13.236.85c-5.913.75-6.807.647-7.385-.859-.818-2.13.742-3.68 7.02-6.984 3.439-1.81 7.939-2.717 12.677-2.731m-87.455 1.116c4.768-.086 10.11 1.29 15.941 4.143 5.098 2.493 6.938 3.918 6.938 5.37 0 1.873-.623 1.965-12.002 1.697-8.682-.204-13.383.145-17 1.264-2.75.85-6.24 1.554-7.752 1.56-2.375.009-2.751-.392-2.751-2.916 0-2.187 1.039-3.811 4.131-6.459 3.53-3.02 7.728-4.573 12.495-4.659m314.52 14.061c5.115.181 9.257 5.58 4.854 9.983-2.428 2.428-9.15 2.724-11.005.49-1.979-2.385-1.482-6.676.996-8.683 1.64-1.327 3.45-1.85 5.156-1.79m-216.983 4.134c1.186-.302 1.842.386 1.837 2.094-.01 3.305-3.47 8.43-6.9 10.205-6.306 3.26-14.537.867-18.875-5.49-2.036-2.983-2.116-3.496-.759-4.853s1.874-1.126 4.908 2.186c2.765 3.019 4.095 3.7 7.166 3.7 3.098 0 4.451-.708 7.578-3.995 2.142-2.252 3.86-3.546 5.045-3.847m6.316.609c1.671-1.2 7.006-.864 8.958.562 2.98 2.18 1.099 5.278-4.927 8.129-5.696 2.695-6.77 2.954-7.842 1.882-1.712-1.711.67-8.317 3.811-10.573m-89.96.424c.935.437 1.41 1.868.933 4.06-.89 4.093-2.576 6.543-6.142 8.894-3.96 2.61-10.085 2.39-14.314-.507-2.742-1.88-3.82-2.135-5.228-1.255-2.282 1.425-5.138-.234-5.585-3.239-.387-2.599 2.223-3.882 4.332-2.131 1.252 1.039 1.49.824 1.49-1.384 0-3.73 2.67-3.374 6.563.876 2.142 2.339 4.098 3.497 5.895 3.497 2.569 0 3.836-1.05 8.364-6.92 1.369-1.774 2.759-2.328 3.693-1.891m7.77 1.808c5.967 0 7.483 3.61 2.898 6.874-6.965 4.96-11.006 3.173-7.843-3.46 1.367-2.866 2.156-3.414 4.945-3.414m45.227 1.357c1.974-.758 4.522 1.391 3.82 3.22-.563 1.468-3.487 1.94-4.67.756-1.18-1.18-.708-3.379.85-3.976m73.543 1.78c1.704-.107 5.294 2.532 10.566 7.926 4.33 4.43 8.01 8.422 8.172 8.876.521 1.465 30.36 28.502 42.137 38.179 18.575 15.262 22.295 19.09 26.004 26.757 1.85 3.825 3.081 7.651 2.742 8.534-.907 2.365-2.867 1.965-7.778-1.578-23.206-16.739-76.89-69.8-81.093-80.15-2.268-5.584-2.454-8.436-.75-8.544m-77.044 7.714c.345.883-.055 3.508.457 4.28 1.35 2.04 4.159 4.986 6.243 6.542s7.082 5.418 11.105 8.581 7.512 5.748 7.751 5.748c1.3 0-.155-1.44-5.32-5.277-6.18-4.592-20.223-18.384-20.236-19.874m86.76 18.416c.703-.247 3.63 2.184 6.5 5.397 16.32 18.28 49.856 49.485 64.402 59.926 17.79 12.77 18.222 13.206 23.701 23.62 6.339 12.046 5.684 13.745-2.943 7.602-23.942-17.046-48.684-38.652-74.147-64.742-11.605-11.891-14.603-15.577-16.352-20.067-2.5-6.419-2.968-11.101-1.16-11.736m-91.22 6.735c-2.623 0-1.72 2.862 1.416 4.484 7.671 3.967 6.154 13.973-2.084 13.738-1.81-.051-5.453-1.644-8.674-3.783-6.514-4.324-14.512-5.379-16.572-2.186-1.683 2.609.335 5.098 4.954 6.098 2.146.465 7.283 1.665 11.408 2.676s8.078 1.873 8.784 1.91c2.5.13 7.98-2.761 9.588-5.056 2.067-2.952 2.1-9.753.064-12.659-1.708-2.438-6.437-5.222-8.885-5.222m102.536 24.45c.612-.378 7.704 5.882 16.243 14.329 18.626 18.426 28.06 26.99 37.164 33.732 3.85 2.85 12.403 9.15 19.003 14.006 18.628 13.704 21.321 16.179 24.56 22.595 1.62 3.207 2.944 6.49 2.944 7.298 0 .809-.4 1.72-.887 2.02-.981.607-15.814-9.135-28.445-18.683-26.385-19.943-65.746-57.37-69.55-66.126-2.353-5.417-2.662-8.163-1.032-9.17m198.456 2.556c3.056 0 7.459 4.096 7.459 6.947 0 1.125-.902 2.95-2.002 4.05-4.039 4.04-12.002 1.027-12.002-4.539 0-3.192 3.31-6.458 6.545-6.458m17.23 9.042c1.145.827 2.517 2.753 4.734 6.218 6.567 10.261 7.427 12.1 6.28 13.49-1.12 1.355-1.996 1.404-5.74.36-1.92-.536-2.812-1.897-4.123-6.311-.92-3.099-2.704-7.085-3.967-8.858-2.168-3.045-2.198-3.301-.53-4.52 1.284-.94 2.2-1.206 3.345-.38m-303.278 6.984c-.981-.511-2.456-.016-5.21 1.089-2.573 1.032-4.394 1.057-9.067.092-7.77-1.604-12.422-1.525-14.78.259-2.379 1.799-4.801 1.89-9.058.35-2.693-.973-4.308-.857-9.333.665-4.822 1.46-6.786 1.628-9.506.793-1.886-.579-3.68-.804-3.985-.498-.306.306-.558 3.855-.558 7.888 0 7.779.669 8.65 4.534 5.942 3.944-2.762 8.979-3.437 17.888-2.399 7.651.892 9.566.76 17.284-1.208 9.687-2.471 14.022-2.277 20.593.904 2.383 1.154 4.69 2.094 5.128 2.094.863 0 .487-2.447-1.71-10.998-.753-2.935-1.24-4.461-2.22-4.973m280.006 3.47c2.535 0 4.534 7.232 2.377 8.598-2.019 1.279-3.478 1.095-4.9-.618-1.847-2.225-.026-7.98 2.523-7.98m-179.316 7.5c1.47 0 5.973 3.858 13.747 11.774 16.235 16.53 29.555 27.662 53.563 44.766 2.75 1.96 10.001 6.77 16.114 10.685 10.94 7.005 11.176 7.237 14.753 14.467 2 4.04 3.638 7.781 3.638 8.322 0 2.614-5.722.199-18.5-7.824-14.043-8.817-18.561-11.976-28.6-20.012-2.973-2.38-10.34-8.23-16.37-13-6.032-4.77-16.095-13.63-22.367-19.68-9.323-8.992-12.027-12.275-14.79-17.974-4.023-8.3-4.352-11.523-1.188-11.523m-6.992 8.323c2.022.59 3.803 3.518 6.718 9.18 2.548 4.95 6.34 12.048 8.427 15.777 2.087 3.73 3.647 7.775 3.474 8.996-.315 2.215-.366 2.224-22.312 2.28-33.148.083-38.5-.25-38.5-2.418 0-1.916 3.112-5.176 6.728-7.04 3.111-1.604 20.647-15.713 27.266-21.94 3.905-3.674 6.177-5.425 8.199-4.835m-109.228.314c-.292-.293-3.592.4-7.33 1.54-5.83 1.78-7.678 1.928-12.97 1.061-3.394-.555-6.361-.83-6.6-.609-.873.81 1.837 2.608 5.091 3.377 5.167 1.222 8.06 1.115 13.428-.48 5.118-1.52 9.31-3.96 8.381-4.89m-10.283 10.758c-7.76-.913-23.682 4.137-23.682 7.51 0 .433 2.587-.121 5.749-1.227 7.222-2.526 20.974-2.629 30.108-.23 6.165 1.617 8.495 1.475 6.572-.388-1.597-1.548-12.987-4.988-18.747-5.665m143.486 15.758c1.354.35 3.248 1.585 5.384 3.636 2.17 2.084 6.872 6.22 10.447 9.19s6.945 5.874 7.495 6.458c3.669 3.892 21.785 16.96 36.087 26.028 27.935 17.713 30.556 19.631 33.59 24.616 1.535 2.52 2.915 5.675 3.062 7.003.463 4.174-3.097 3.221-15.237-4.06-29.939-17.958-50.912-32.931-68.48-48.9-6.957-6.325-14.514-17.93-14.514-22.282 0-1.5.812-2.038 2.166-1.689m-264.495 26.351 27.915.323c15.35.18 38.262.404 50.912.498l22.997.176 7.001 3.45c6.166 3.04 8.14 3.498 16.535 3.857 9.858.421 12.639-.148 28.19-5.748 5.361-1.931 7.896-2.06 39.997-2.058 18.852.001 44.109.302 56.122.665l21.846.655 2.523 3.82c1.414 2.137 2.25 4.501 1.91 5.388-.55 1.432-11.322 1.551-113.862 1.273-158.34-.43-165.44-.52-166.108-2.26-.301-.785.48-3.37 1.737-5.74zm281.761 6.496c.725 0 6.432 3.955 12.687 8.783 19.635 15.156 43.39 30.744 60.354 39.619 4.88 2.553 9.462 5.131 10.182 5.73 1.943 1.611 7.34 11.938 7.34 14.042 0 3.174-.327 3.063-22.504-7.916-10.3-5.1-31.885-18.914-44.586-28.529-3.076-2.328-7.585-5.612-10.018-7.298-3.206-2.22-6.017-5.733-10.21-12.76-5.517-9.245-6.192-11.671-3.245-11.671m-290.088 10.702 118.075.637c64.942.35 130.095.649 144.784.655l26.708.009 2.623 4.466c1.441 2.458 2.334 4.932 1.984 5.499-.433.7-44.734.97-138.33.83-137.64-.206-153.726-.346-157.946-1.32-2.829-.652-2.848-2.771-.073-7.26zm30.227 16.839c7.03-1.055 26.425.414 26.425 2.002 0 1.614-8.844 16.7-10.374 17.696-.621.404-8.002.74-16.407.747-17.506.018-17.962-.221-13.656-7.14 6.018-9.672 9.056-12.562 14.012-13.305m206.628.406 14.13.276c12.084.237 14.187.51 14.452 1.892.17.889-2.123 5.613-5.1 10.5l-5.42 8.885-15.631.276c-14.413.254-15.63.133-15.62-1.504.012-2.42 4.99-10.841 9.487-16.044zm-140.186.055h14.99c12.708 0 14.99.233 14.99 1.513 0 2.905-10.877 19.224-13.235 19.855-3.398.911-22.948.634-25.41-.36-1.182-.476-2.425-1.31-2.76-1.854-.336-.543 2.102-5.08 5.41-10.075zm69.165 0h14.798c16.455 0 17.861.586 13.665 5.72-1.248 1.528-3.536 5.028-5.091 7.778s-3.517 5.792-4.35 6.754c-1.28 1.475-3.098 1.716-11.61 1.569-14.538-.252-18.629-.742-19.24-2.335-.528-1.376 4.926-10.906 9.488-16.58zm143.559 6.283c.586-1.209 3.268-.132 7.915 3.488 4.26 3.317 9.463 6.742 22.34 14.716 9.572 5.928 16.85 9.886 31.396 17.06 15.58 7.683 16.017 7.978 22.001 15.27 3.359 4.091 6.106 8.132 6.106 8.977 0 1.74-1.297 2.298-3.5 1.495-5.086-1.854-40.69-20.069-46.498-23.786-3.85-2.465-8.35-5.225-10-6.136-1.65-.91-6.706-4.118-11.233-7.123-6.93-4.6-9.118-6.768-13.866-13.756-3.736-5.5-5.247-8.996-4.661-10.205m-487.31.646c4.983-1.115 5.647-1.038 9.625 1.181 7.827 4.367 10.025 13.707 4.789 20.363-2.5 3.179-4.3 3.18-8.446.018l-3.29-2.51-3.693 2.51c-4.5 3.054-4.554 3.056-7.166.259-4.258-4.563-4.111-12.383.33-17.66 1.776-2.112 4.037-3.308 7.85-4.161m479.614.572c1.688 0 10.202 12.246 9.66 13.895-.66 2.013-18.737 1.177-19.34-.895-.457-1.57 8.054-13 9.68-13m-310.042 17.936c12.833.057 13.491.157 13.436 2.058-.089 3.114-9.164 16.193-11.709 16.875-4.04 1.083-25.756-.01-27.12-1.366-1.072-1.067 7.781-15.652 10.21-16.82.923-.442 7.758-.78 15.183-.747m83.698 1.274c.714.273 1.298 1.15 1.298 1.946 0 1.686-7.532 13.257-9.826 15.095-2.342 1.877-28.048 1.753-28.773-.139-.52-1.354 7.774-15.364 9.99-16.875 1.204-.821 25.18-.846 27.311-.027m41.9.009 13.445.184c7.397.104 13.843.58 14.323 1.061.904.904-7.247 14.854-10.027 17.161-2.61 2.167-27.093 1.674-27.951-.562-.601-1.568 3.927-10.323 7.641-14.772zm151.977.424c18.215-.166 18.417.038 11.05 11.109-3.128 4.702-6.384 8.824-7.239 9.152-1.614.62-16.693.534-24.194-.138-2.488-.223-4.532-.985-4.845-1.8-.615-1.602 8.313-16.24 10.63-17.428.837-.428 7.405-.83 14.598-.895m-67.95.074c12.278.247 13.888.475 14.186 2.03.49 2.556-8.773 16.726-11.26 17.225-4.36.875-9.375 1.091-17.715.775-11.903-.45-12.342-1.167-6.462-10.6 2.53-4.06 5.227-7.906 5.996-8.545.951-.789 5.835-1.075 15.255-.885m-352.8 2.795c7.396.02 10.172 1.508 12.989 6.985 4.076 7.927 1.05 16.339-7.221 20.095-4.865 2.21-7.024 2.29-11.27.443-5.555-2.416-6.125-6.732-1.454-10.933l2.103-1.892-3.492-3.857c-1.918-2.122-3.483-4.27-3.483-4.77s1.389-2.073 3.08-3.496c2.526-2.126 4.09-2.587 8.748-2.575m-48.663.941c6.315-1.7 13.978 2.784 11.242 6.579-.5.694-1.91 2.6-3.135 4.235l-2.22 2.97 3.472 3.58c4.167 4.291 4.321 5.872.841 8.609-4.774 3.756-15.08 1.857-18.72-3.45-1.97-2.875-2.811-9.9-1.58-13.158 1.607-4.254 5.894-8.232 10.1-9.365m24.395.176c2.188-.134 4.382 1.606 7.953 5.12 7.704 7.584 7.792 8.75 1.224 15.316-3.784 3.784-6.221 5.435-8.025 5.435-3.56 0-14.716-9.457-14.716-12.474 0-.6 2.531-3.887 5.621-7.308 3.569-3.95 5.756-5.956 7.943-6.09m496.524 3.45c3.021 2.735 8.14 11.25 7.44 12.382-.355.575-4.199 1.034-8.62 1.034-10.86 0-11.15-1.094-3.17-11.81 2.353-3.162 2.548-3.236 4.35-1.606m7.97 1.744c.889-.778 2.94-.386 5.74 1.532 13.161 9.013 39.585 22.683 62.704 32.43 14.527 6.127 33.005 16.65 33.005 18.804 0 2.012-2.839 2.002-12.504-.055-8.833-1.88-21.812-6.58-45.5-16.478-21.313-8.906-33.603-17.861-42.22-30.752-1.843-2.758-2.113-4.703-1.225-5.48m-366.867 12.364 18.162.71c18.087.706 45.636 1.01 186.153 2.067 120.82.91 167.886 1.685 169.234 2.768.68.547 2.22 2.58 3.418 4.52 2.113 3.419 2.122 3.564.32 4.882-1.446 1.057-7.221 1.365-25.995 1.365-13.278 0-24.339-.194-24.57-.424-.23-.23-36.19-.68-79.913-1.006s-85.57-.815-92.995-1.08c-7.425-.264-46.342-.715-86.477-1.005-44.42-.322-73.344-.903-73.927-1.486-1.134-1.134.71-4.958 4.214-8.737zm-126.868 9.042c3.404 1.551 6.026 7.612 5.2 12.013-.875 4.666-2.993 7.77-6.992 10.24-5.75 3.555-15.437 2.087-20.072-3.035-3.87-4.275-2.366-16.316 2.349-18.84 1.6-.856 2.766-.484 6.197 2.002l4.223 3.063 3.364-3.257c2.92-2.83 3.676-3.123 5.73-2.186m125.232 8.184c.926-1.499 15.772-.728 17.76.922 2.23 1.852 10.732 16.75 14.396 25.225 6.15 14.226 9.29 35.551 7.202 48.937-3.663 23.483-16.131 46.617-31.04 57.592-2.549 1.876-5.33 3.405-6.18 3.405-2.13 0-7.686-6.969-7.686-9.642 0-1.348 1.494-3.368 3.894-5.268 6.063-4.803 14.732-16.876 18.71-26.056 5.396-12.453 7.739-25.107 7.038-38.059-.93-17.185-6.66-31.862-18.619-47.7-3.56-4.716-5.887-8.69-5.475-9.356m-221.773.046c.687-1.082 2.075-.61 4.497.904 1.772 1.107 9.074 5.456 16.224 9.67 17.662 10.407 21.09 13.364 24.615 21.22 1.588 3.538 2.889 7.037 2.889 7.778 0 2.98-2.402 2.49-6.344-1.292-4.294-4.12-26.797-20.974-29.267-21.922-2.612-1.002-1.399 1.253 2.86 5.333 2.338 2.239 7.621 6.206 11.746 8.811 8.167 5.159 15 11.189 15 13.24 0 2.054-2.848 1.47-12.541-2.565-10.736-4.468-10.406-4.281-17.723-9.973-8.053-6.264-11.34-12.383-12.23-22.8-.402-4.693-.413-7.323.274-8.404m252.923.24c5.528.29 5.846.458 9.26 4.991 1.944 2.583 4.288 6.638 5.2 9.005 5.83 15.116 7.11 18.933 8.464 25.253 2.18 10.165 2.844 27.52 1.454 37.93-1.795 13.434-3.75 20.144-9.058 31.12-8.476 17.525-17.808 30.263-27.915 38.097-2.417 1.873-4.809 3.404-5.31 3.404-1.456 0-6.792-6.296-6.792-8.008 0-.856 2.938-4.468 6.535-8.027 10.758-10.645 20.535-26.334 25.402-40.781 2.159-6.41 5.063-24.607 5.063-31.73 0-6.064-2.668-20.91-5.11-28.454-1.156-3.575-4.821-11.75-8.143-18.158-3.706-7.149-5.8-12.284-5.411-13.295.506-1.319 1.782-1.588 6.361-1.347m123.295.811c1.925.008 4.002.353 4.607.757 1.305.872 3.4 4.662 3.4 6.154 0 .579-3.649 3.167-8.108 5.757-4.459 2.591-8.33 5.29-8.6 5.998-.272.706 1.35 4.645 3.6 8.746s3.835 8.044 3.529 8.765-3.93 3.729-8.062 6.68c-4.132 2.952-7.737 5.94-8.007 6.643-.27.704.91 4.053 2.623 7.446 1.737 3.441 2.855 6.912 2.523 7.852-.327.927-3.28 3.893-6.554 6.588-7.004 5.765-7.244 7.08-2.943 15.602 1.65 3.268 2.998 6.534 2.998 7.252 0 .717-3.151 4.427-7.001 8.248s-6.994 7.63-6.984 8.47 1.358 3.963 2.998 6.938c1.64 2.976 2.98 5.886 2.98 6.468s-2.292 3.384-5.1 6.228l-5.11 5.176 2.77 6.163 2.77 6.163-4.662 4.734c-2.563 2.602-4.662 5.549-4.662 6.55 0 1.002 1.348 3.82 2.998 6.265s2.998 5.105 2.998 5.914c0 .81-1.794 3.426-3.994 5.813-4.52 4.903-4.766 6.08-2.002 9.614 2.615 3.342 2.491 5.808-.502 10.214-3.092 4.55-3.096 5.306-.027 10.287 2.87 4.661 3.162 7.05.95 7.898-.87.334-3.112.6-4.981.6-2.9 0-3.486-.404-3.986-2.75-.322-1.512-1.52-4.854-2.66-7.427l-2.074-4.678 3.729-5.074 3.73-5.084-3.09-4.66c-1.7-2.565-3.09-5.025-3.09-5.462s1.283-2.271 2.852-4.078c5.458-6.283 5.61-7.208 2.203-13.498-1.68-3.102-3.053-6.435-3.053-7.409s1.552-2.958 3.455-4.41c4.96-3.783 5.206-5.64 1.563-12.096l-3.144-5.564 5.566-5.83c3.06-3.208 5.558-6.161 5.558-6.57s-1.348-3.138-2.998-6.062c-1.65-2.923-2.998-6.195-2.998-7.27 0-1.123 2.16-3.784 5.082-6.247 7.505-6.328 7.633-6.843 3.473-14.282-1.958-3.501-3.556-7.06-3.556-7.898s3.145-4.342 6.993-7.787 7.253-7.071 7.568-8.064c.348-1.097-.83-4.116-2.998-7.686-4.136-6.808-4.457-9.567-1.316-11.237 4.113-2.189 12.862-9.004 13.418-10.454.301-.786-1.296-4.984-3.556-9.328s-4.113-8.582-4.113-9.42c0-1.475 10.659-8.673 12.842-8.673.592 0 2.33-1.572 3.867-3.497 2.242-2.81 3.478-3.5 6.288-3.488m41.835.167c9.203.352 18.171 1.302 18.171 2.518 0 .765-1.727 3.733-3.839 6.597-3.8 5.155-11.916 17.546-17.823 27.21-14.154 23.15-30.166 61.712-37.787 91-5.82 22.368-11.227 51.452-13.655 73.498-.636 5.775-1.536 11.513-2.002 12.75-.758 2.012-1.53 2.243-7.267 2.243-4.994 0-6.554-.354-7.038-1.615-.342-.891-.378-6.853-.082-13.25 2.713-58.633 19.318-125.47 47.494-191.135 1.77-4.125 3.676-8.059 4.232-8.746.954-1.18 10.394-1.423 19.597-1.07zm37.668.82h8.372l5.567 6.56c3.06 3.607 5.557 6.956 5.557 7.446 0 1.23-5.5 5.249-11.498 8.397-7.992 4.194-19.709 11.943-20.868 13.802-.81 1.301-.537 2.807 1.152 6.284 1.22 2.512 2.221 5.367 2.221 6.347 0 1.657-4.268 4.858-16.754 12.567-2.338 1.443-4.25 3.309-4.25 4.142s1.376 4.228 3.052 7.548 2.787 6.795 2.468 7.722c-.542 1.578-2.652 3.235-13.272 10.445-2.337 1.586-4.25 3.47-4.25 4.188s1.156 3.895 2.56 7.068c1.403 3.173 2.324 6.364 2.047 7.086s-3.902 3.674-8.053 6.56c-6.741 4.687-7.55 5.591-7.55 8.46 0 1.767.884 5.273 1.965 7.797 1.082 2.523 1.724 5.23 1.426 6.006s-3.171 3.057-6.389 5.075c-3.218 2.017-6.119 4.366-6.444 5.213s.545 4.007 1.929 7.03 2.513 6.32 2.513 7.326c0 1.045-1.929 3.16-4.497 4.927-5.074 3.491-5.324 4.475-2.504 10.002 2.857 5.6 2.525 7.412-2.002 10.998-2.2 1.742-3.994 3.825-3.994 4.622s1.12 3.672 2.495 6.385l2.505 4.927-2.99 3.284a379 379 0 0 0-4.496 5.038c-.835.962-2.082 1.733-2.77 1.716-4.554-.11-7.014-5.933-3.949-9.346 3.29-3.665 3.33-4.407.54-9.744l-2.724-5.212 4.268-3.682 4.278-3.672-2.587-6.126c-1.418-3.37-2.577-6.967-2.577-7.99 0-1.06 1.943-3.244 4.506-5.084 2.475-1.778 4.497-3.827 4.497-4.549s-1.12-3.857-2.495-6.966-2.505-6.26-2.505-7.003c0-.742 2.587-3.074 5.75-5.185 8.345-5.572 8.352-5.589 6.069-11.94-2.692-7.484-2.194-9.382 3.427-13.055 9.265-6.053 9.059-5.493 5.192-13.978-1.86-4.08-3.117-8.105-2.797-8.94s4.353-4.058 8.967-7.16c4.662-3.134 8.4-6.344 8.4-7.233 0-.88-1.186-4.388-2.633-7.797-1.446-3.408-2.37-6.868-2.056-7.685.594-1.55 8.712-7.068 15.493-10.528 2.166-1.105 4.202-2.695 4.524-3.533.322-.84-.516-3.894-1.864-6.791-4.3-9.234-4.91-8.494 17.85-21.498 4.301-2.457 8.05-5.075 8.337-5.822s-1.542-3.902-4.068-7.003-4.339-6.042-4.03-6.541c.308-.499 4.33-.904 8.939-.904m55.976 3.553c6.633 2.28 8.797 6.527 6.992 13.72-.661 2.634-.545 2.73 3.318 2.73 3.332 0 4.529.593 7.111 3.534 3.687 4.2 4.035 8.422 1.097 13.24-3.104 5.092-8.866 6.584-14.36 3.719-4.28-2.232-4.683-1.89-3.09 2.63.802 2.268 1.454 4.742 1.454 5.498 0 1.016-1.596 1.375-6.115 1.375h-6.105l.548-2.75c.304-1.512.872-4.062 1.261-5.665.63-2.59.499-2.82-1.188-2.122-6.632 2.75-7.413 2.89-11.078 1.984-4.95-1.222-7.63-5.951-6.983-12.308.578-5.679 3.18-8.218 9.103-8.885 4.633-.522 4.65-.54 3.94-3.635-1.46-6.366.071-9.271 6.636-12.622 3.126-1.596 3.952-1.649 7.458-.443m-211.06 1.116c2.06-.314 4.209-.004 6.525.923 4.807 1.923 6.573 5.638 5.704 11.976l-.622 4.52 3.373-.636c2.807-.526 3.884-.16 6.435 2.205 7.134 6.613 2.78 19.339-6.618 19.339-2.498 0-4.923-.773-6.626-2.113-3.498-2.751-4.365-1.732-2.267 2.667 2.295 4.812 2.132 7.1-.567 7.824-3.275.877-7.037.732-8.72-.333-1.28-.809-1.246-1.548.256-5.738 2.282-6.366 2.184-6.818-.923-4.374-3.199 2.516-10.865 2.813-14.104.545-2.159-1.513-4.248-6.964-4.26-11.118 0-1.18 1.303-3.542 2.898-5.25 2.301-2.463 3.725-3.11 6.865-3.11h3.958l-.11-6.089c-.101-5.582.133-6.285 2.788-8.405 1.981-1.583 3.954-2.518 6.014-2.833m302.125.332c5.542 0 9.798 4.827 9.689 10.998 0 .275-.324 1.965-.704 3.756-.662 3.12-.582 3.221 1.728 2.343 6.263-2.381 12.851 6.072 10.767 13.812-.558 2.074-1.874 4.559-2.934 5.517-2.86 2.59-9.124 3.12-13.016 1.108-1.79-.926-3.464-1.474-3.72-1.218s.25 2.179 1.124 4.272c.874 2.092 1.363 4.395 1.088 5.111-.335.871-2.502 1.301-6.536 1.301-6.722 0-7.006-.408-4.524-6.348 1.951-4.67 1.979-6.3.091-4.733-2.596 2.154-7.818 3.094-11.563 2.085-10.95-2.949-8.604-21.276 2.724-21.276h4.122l-.557-4.706c-.334-2.821-.081-5.601.64-6.947 1.477-2.76 6.758-5.075 11.58-5.075zm-529.246 10.583c2.743-1.73 4.99 1.234 4.451 5.877-.6 5.18-8.706 22.056-12.623 26.287-3.266 3.528-6.143 4.137-8.153 1.716-1.073-1.294 0-4.05 6.755-17.226 4.42-8.626 8.725-16.121 9.57-16.654m29.99 20.086c5.418-.455 11.766-.29 20.712.35 9.075.651 17.063 1.35 17.75 1.55q3.446 1.014-3.025 7.585c-5.39 5.472-13.412 9.46-25.09 12.465-5.579 1.435-13.41 2.55-20.128 2.86-11.34.524-16.507-.43-16.507-3.045 0-2.313 7.439-5.376 15.712-6.467 18.452-2.435 29.584-4.47 31.132-5.693 1.397-1.104.312-1.248-6.837-.932-13.107.58-29.64 2.62-34.166 4.217-5.584 1.97-7.834 1.846-7.834-.425 0-2.398 6.11-6.624 13.172-9.106 5.204-1.83 9.69-2.904 15.109-3.359m-51.031 15.676c1.236.31 6.895 3.526 12.577 7.141s11.643 7.126 13.244 7.797c3.636 1.523 27.924 29.073 27.924 31.674 0 1.818-10.259 11.188-23.38 21.35-2.98 2.308-8.729 6.908-12.77 10.232a3677 3677 0 0 1-18.107 14.753c-5.917 4.789-11.552 8.71-12.522 8.71-2.502 0-9.223-5.796-9.223-7.953 0-.993.683-3.423 1.508-5.398s1.5-4.705 1.5-6.07c0-3.421 6.906-16.545 10.182-19.348 3.217-2.754 5.15-8.056 4.25-11.644-.526-2.094.047-3.384 2.925-6.57 3.561-3.942 4.337-5.78 4.862-11.514.345-3.765 2.44-4.198 6.07-1.264 2.404 1.943 3.005 3.52 4.268 11.256.808 4.95 1.719 10.51 2.02 12.354.302 1.844.764 3.13 1.033 2.86.914-.913-1.823-22.191-3.199-24.865-.752-1.461-3.453-3.944-5.996-5.508-9.835-6.047-16.56-13.925-15.11-17.706.877-2.283 3.48-2.02 8.547.877 2.394 1.368 5.317 2.47 6.499 2.445 1.501-.033.643-.818-2.852-2.611-2.75-1.411-6.02-3.497-7.257-4.632-4.08-3.74-2.218-7.68 3.007-6.366m-14.936 3.801c3.02 1.59 3.648 2.794 3.666 6.975.012 2.75 1.221 5.265 5.018 10.472 2.75 3.773 5 7.439 5 8.138 0 1.43-.438 1.497-7.65 1.283-2.833-.085-5.442.326-5.805.913-2.249 3.639-10.119-2.224-14.003-10.435-4.212-8.902-3.213-14.35 3.117-16.995 4.293-1.794 7.7-1.908 10.657-.35m425.083.85c4.367 0 6.059.494 8.29 2.416 2.531 2.181 2.795 3.016 2.696 8.489-.107 5.896-.036 6.047 2.258 5.471 3.848-.966 7.293.468 9.387 3.903 6.392 10.483-3.692 21.802-14.432 16.202-3.784-1.974-4.329-1.232-2.276 3.072 2.494 5.23 2.196 6.452-1.572 6.468-1.788.008-4.147.206-5.247.443-4.64.999-5.544-1.208-2.824-6.911.923-1.937 1.452-3.75 1.179-4.023-.274-.273-2.246.394-4.388 1.486-4.86 2.478-7.126 2.496-11.114.064-6.035-3.68-6.924-13.906-1.572-18.13 2.114-1.669 3.652-2.04 6.964-1.67 2.338.261 4.25.281 4.25.046 0-.234-.702-1.778-1.562-3.441-1.926-3.725-1.183-7.788 2.075-11.303 2.01-2.168 3.27-2.583 7.888-2.583m123.596 2.758c11.241-1.515 37.588-.513 36.415 1.384-.292.473-1.29.765-2.22.646-.93-.12-10.245-.454-20.695-.748-14.337-.402-17.65-.723-13.5-1.282m-7.806 1.56c.798.318.562.56-.603.608-1.054.043-1.649-.194-1.316-.526s1.197-.372 1.92-.083m51.927.1c3.637.185 7.462.828 8.5 1.43 1.665.968 1.524 1.1-1.197 1.126-1.696.017-3.344-.231-3.656-.544s-2.754-.967-5.42-1.458c-4.709-.866-4.65-.879 1.773-.553m-39.121 3.71c14.71-.68 38.643.424 42.75 1.974 2.953 1.115 2.852 3.778-.275 7.15l-2.523 2.722-18.226-.636c-34.189-1.184-57.714 3.65-88.24 18.13-12.752 6.048-23.963 13.052-36.023 22.503-6.73 5.275-24.26 23.658-30.584 32.071-10.89 14.49-21.476 36.275-26.991 55.553-1.716 5.997-3.627 11.24-4.25 11.644-1.422.92-8.072.997-8.967.101-3.862-3.862 8.85-38.317 22.449-60.84 7.703-12.758 20.53-29.02 29.687-37.634 33.593-31.602 77.526-50.719 121.193-52.738m-431.06.46c1.75.802 6.933 6.942 32.357 38.337 2.861 3.534 7.232 8.744 9.707 11.57s7.544 8.931 11.26 13.572c19.548 24.409 19.988 25.236 15.274 28.325-5.354 3.508-4.094 4.635-29.23-26.101-5.945-7.27-16.446-19.872-23.345-28.003-18.828-22.19-25.472-31.253-24.286-33.132 2.058-3.264 6.163-5.528 8.263-4.567m-143.276 5.767c1.5.415 3.245 2.58 5.759 6.653 1.992 3.228 6.836 8.773 10.758 12.317 7.693 6.952 8.516 9.679 2.916 9.679-1.635 0-3.248.443-3.583.987-.388.627 1.009.763 3.82.378 3.68-.504 4.795-.246 6.554 1.513 2.385 2.385 2.717 6.746.722 9.374-2.039 2.686-6.342 2.166-9.68-1.171-1.607-1.608-2.925-3.854-2.925-4.983 0-1.728-.459-1.962-2.888-1.476-2.34.468-3.617-.086-6.8-2.962-7.715-6.969-12.172-20.165-8.93-26.433 1.528-2.956 2.777-4.29 4.277-3.876M1736 482.644c22.795.084 45.112 4.622 65.5 13.304 23.897 10.177 51.295 28.096 51.442 33.649.056 2.14-4.501 6.32-6.892 6.32-.626 0-3.252-1.97-5.84-4.373-11.95-11.092-35.185-24.124-55.209-30.973-18.643-6.378-28.74-7.938-52-8.027-30.567-.118-46.002 3.305-71.504 15.841-19.182 9.43-27.792 15.251-40.849 27.624-19.638 18.61-32.508 37.798-42.192 62.897-9.66 25.04-13.08 60.307-8.409 86.803 3.268 18.538 11.77 41.92 20.41 56.143 4.091 6.734 4.028 6.444 1.975 8.497-2.35 2.35-5.063 1.903-7.194-1.18-4.837-7-11.404-20.812-15.09-31.749-8.275-24.552-10.447-37.71-10.411-63.007.05-34.976 9.616-65.526 30.026-95.882 27.754-41.28 73.644-68.727 125.735-75.195 3.3-.41 12.527-.722 20.502-.692m-565.415 4.207c1.31-1.087 2.298-1.064 5.74.129 4.915 1.703 7.433 5.658 5.686 8.922-1.694 3.164-6.062 2.591-9.817-1.283-3.544-3.656-3.984-5.797-1.609-7.768m-31.635 4.069c.484 0 2.327 2.348 4.095 5.222 1.768 2.873 6.17 8.04 9.78 11.478 3.61 3.437 6.22 6.588 5.805 7.002-.415.415 1.412 1.433 4.058 2.27 4.476 1.417 4.837 1.775 5.119 5.149.196 2.345-.275 4.199-1.326 5.25-2.005 2.005-4.026 1.978-8.263-.13-3.733-1.857-5.132-5.546-3.254-8.553 1.244-1.99 1.23-1.99-1.325.019-1.635 1.286-3.49 1.847-5.091 1.54-3.005-.574-9.178-7.126-11.142-11.828-2.457-5.88-1.434-17.42 1.544-17.42m615.54 8.986c3.893.078 8.841.777 13.529 2.058 8.781 2.4 16.011 7.012 23.06 14.725 7.59 8.305 5.143 12.339-3.664 6.044-7.194-5.142-12.84-8.773-13.665-8.793-1.983-.05-.223 2.073 5.246 6.32 3.3 2.562 6.005 5.105 6.005 5.656 0 1.5-2.783 1.105-10.027-1.43-8.626-3.02-12.366-5.004-19.012-10.103-5.888-4.52-9.677-10.15-8.646-12.834.452-1.179 3.283-1.72 7.175-1.643m-46.34.61c6.225-.64 13.002-.544 18.051.516 6.759 1.419 19.3 7.138 20.073 9.153.79 2.059-.17 2.86-2.157 1.808-3.367-1.782-18.18-5.264-19.78-4.65-2.5.96-.666 2.065 7.367 4.456 3.96 1.179 7.44 2.547 7.742 3.036 1.17 1.893-5.528 2.584-19.533 2.02-14.472-.583-14.646-.611-21.142-4.244-7.53-4.21-8.711-6.025-5.374-8.211 2.856-1.872 8.526-3.246 14.752-3.885m-290.034 4.622c3.48-.5 7.208.155 9.57 2.186 2.351 2.023 2.792 3.177 2.779 7.252-.01 2.665-.344 5.519-.75 6.348-.611 1.248 0 1.453 3.537 1.172 8.524-.678 12.675 6.673 8.766 15.51-2.738 6.19-8.736 8.066-15.164 4.742-1.674-.866-3.219-1.399-3.437-1.181s.36 2.31 1.28 4.65c1.438 3.66 1.47 4.387.238 5.167-1.866 1.18-9.019 1.169-10.896-.018-1.271-.805-1.242-1.4.247-4.521 2.209-4.632 2.329-7.283.247-5.555-2.381 1.976-8.356 2.913-12.056 1.892-4.653-1.285-6.472-4.246-6.472-10.5 0-4.587.363-5.491 3.135-7.824 3.13-2.634 4.562-2.749 11.18-.877 1.716.486 1.737.337.255-2.528-1.804-3.488-2.047-8.39-.548-11.191 1.375-2.57 4.61-4.224 8.089-4.724m268.471 7.215c6.492 1.09 9.592 2.84 7.86 4.438-.522.482-4.548 1.37-8.948 1.974-18.714 2.573-27.966 6.025-12.495 4.66 13.307-1.175 14.497-1.146 14.497.35 0 .82-4.157 2.83-10.502 5.084-12.857 4.566-14.012 4.748-26.498 4.087-14.03-.742-15.877-2.557-8.254-8.12 13.044-9.517 31.327-14.66 44.34-12.473m115.553 2.168c2.002.057 6.64 1.512 10.31 3.23 11.914 5.574 25.948 21.578 22.531 25.695-1.636 1.972-2.527 1.86-6.005-.71-3.49-2.58-4.834-1.883-2.578 1.337.881 1.258 1.6 3.04 1.6 3.958 0 .92-.582 1.894-1.298 2.169-2.67 1.024-7.92-2.417-15.968-10.482-9.272-9.289-13.02-15.73-12.541-21.534.3-3.632.44-3.764 3.949-3.663m-664.424 1.393c.828 0 3.592 1.742 6.143 3.866s6.1 4.611 7.888 5.527c3.705 1.897 4.163 4.022 1.252 5.84-2.837 1.772-2.48 2.493.987 1.984 7.132-1.047 10.946 3.2 7.541 8.396-3.113 4.751-11.526 1.767-11.526-4.088 0-2.214-.315-2.407-2.989-1.872-4.012.802-7.263-1.466-9.899-6.911-3.014-6.227-2.706-12.742.603-12.742m603.128 5.084c5.172-.99 10.52-.677 17.157.72 5.96 1.254 8.5 2.216 8.5 3.238 0 .992-.957 1.4-2.998 1.283-1.65-.096-4.018.033-5.255.276-4.506.888-2.07 2.126 5.42 2.76 4.217.356 7.883.855 8.144 1.115 1.24 1.241-2.49 3.426-9.067 5.315-11.214 3.22-17.171 3.364-32.248.784-2.2-.376-5.46-.901-7.248-1.172-4.83-.73-4.243-3.552 1.508-7.242 5.919-3.798 10.916-6.088 16.087-7.077m-39.093.443c5.952-.81 6.907.393 2.495 3.137-9.03 5.616-7.43 7.307 2.541 2.685 10.732-4.976 16.319-6.65 17.65-5.269 2.526 2.62-21.206 19.307-33.581 23.61-8.317 2.893-16.29 4.029-17.257 2.464-.98-1.583 1.88-6.686 8.08-14.411 6.123-7.631 11.81-11.093 20.072-12.216m-399.6.277c2.837-1.298 6.19-1.317 8.273.765 3.516 3.517 2.656 11.247-1.5 13.471-2.637 1.412-5.16 1.18-7.951-.729-3.317-2.27-3.94-3.311-3.958-6.606-.016-3.027 2.3-5.604 5.137-6.901m-19.358 2.039c2.679-1.266 5.925-1.12 8.208 1.162 2.628 2.629 2.594 7.977-.073 11.367-4.288 5.45-12.925 1.952-12.925-5.231 0-3.361 2.11-6.033 4.79-7.298m390.44 11.237c1.605-.443 2.77-.036 2.77 1.412 0 2.99-11.584 20.172-17.532 26.01-9.657 9.478-18.472 13.104-18.472 7.593 0-1.085-.447-2.253-.997-2.593-.559-.345-1.005.429-1.005 1.753 0 1.303-.947 6.162-2.112 10.804-2.351 9.37-16.227 37.94-18.427 37.94-2.793 0-4.954-9.007-4.954-20.65 0-6.134-.325-10.956-.722-10.711s-2.646 4.363-5 9.153c-4.792 9.754-12.44 18.25-19.204 21.322-5.79 2.63-8.573 2.478-8.573-.452 0-4.658 4.011-18.294 7.184-24.404 5.436-10.47 17.547-20.442 22.513-18.536 2.035.78 1.6 1.99-3.071 8.599-6.958 9.845-7.22 11.712-.658 4.687 5.603-6 6.178-6.366 7.44-4.715 1.249 1.636 1.78 1.165 6.224-5.499 3.269-4.9 5.599-7.397 7.112-7.612 2.75-.39 2.814.709.329 6.164-1.06 2.326-2.227 5.565-2.587 7.196-.566 2.561-.288 2.346 2.057-1.54 1.493-2.475 4.236-7.535 6.096-11.247 3.356-6.7 4.85-7.861 7.157-5.555.934.934 1.208.55 1.225-1.744.038-5.164 5.203-13.546 11.837-19.2 5.958-5.078 10.182-6.603 11.663-4.207.355.574-.147 2.257-1.115 3.746-1.71 2.627-1.708 2.665.11 1.208 1.029-.825 3.41-3.187 5.292-5.25 1.765-1.935 3.815-3.228 5.42-3.672m111.449.102c4.711-.393 9.554-.188 12.96.729 5.529 1.488 10.792 5.197 11.18 7.88.377 2.618.424 2.607-6.17.793-2.835-.78-6.887-1.712-9.004-2.067-5.213-.875-3.9 1.097 1.645 2.473 10.137 2.515 19.35 7.162 18.126 9.143-.804 1.3-13.155.838-19.414-.729-3.025-.757-10.23-3.1-16.005-5.213-12.543-4.587-13.43-6.227-5.503-10.186 2.89-1.443 7.473-2.43 12.184-2.823m-138.688 3.072c0 .688-4.272 3.874-9.487 7.077-5.215 3.204-9.74 6.236-10.055 6.745-1.242 2.01 3.014.748 8.684-2.575 9.926-5.817 11.787-4.314 4.113 3.322-6.647 6.614-18.307 14.099-25.42 16.312-6.535 2.034-10.544 2.33-12.723.95-1.837-1.162-1.147-2.747 5.137-11.837 6.975-10.09 14.88-16.587 23.372-19.21 7.507-2.318 16.39-2.742 16.38-.784m-257.749 1.015c2.34.898 14.344 25.551 18.619 38.235 2.224 6.6 5.286 18.523 6.8 26.498 2.396 12.62 2.75 16.965 2.76 33.501.014 38.391-7.549 63.767-29.34 98.502-5.158 8.222-9.73 13.66-21.087 25.105-15.753 15.877-22.116 20.559-44.586 32.782-17.426 9.48-30.17 13.864-51.25 17.623-5 .891-17.12 1.726-28.665 1.983-20.765.463-32.405-.719-48.234-4.9-21.51-5.68-44.488-16.9-62.264-30.419-9.666-7.35-13.994-11.435-13.994-13.194 0-2.033 4.446-5.978 6.737-5.978.806 0 4.906 2.77 9.113 6.163 29.781 24.022 62.262 36.281 99.392 37.506 25.64.845 47.012-3.134 70.975-13.213 33.216-13.97 66.497-45.108 82.794-77.456 7.863-15.608 15.36-41.018 17.12-58.007 1.353-13.068.56-38.975-1.508-49.158-2.868-14.115-10.213-34.482-16.581-45.994-3.327-6.014-6.042-11.266-6.042-11.68 0-1.622 7.932-8.401 9.241-7.899m-88.716 2.75c6.675-.034 9.98 6.796 5.721 11.828-5.326 6.295-15.12.198-12.165-7.575 1.286-3.383 2.58-4.234 6.444-4.253m-16.398 3.349c2.825.816 3.066 3.285 2.029 7.778-1.483 6.425-6.855 17.349-11.16 22.706-3.952 4.917-6.383 5.25-8.501 1.154-1.358-2.625-2.084-3-5.832-3-2.355 0-5.149-.638-6.206-1.41-1.887-1.38-1.887-1.503-.055-6.598l1.865-5.185-2.633-2.445c-5.406-5.012-2.637-7.338 12.97-10.878 9.291-2.107 14.698-2.938 17.523-2.122m448.865 1.282c16.827-.006 19.42.238 28.573 2.648 11.908 3.136 18.378 5.934 32.183 13.942 6.908 4.006 10.247 6.528 10.247 7.722 0 1.593-6.479 7.04-8.373 7.04-.421 0-2.646-1.293-4.945-2.87-16.63-11.406-37.714-16.862-60.619-15.703-14.308.724-24.444 3.03-36.89 8.396-19.306 8.325-33.911 21.568-44.87 40.68-12.555 21.894-14.71 57.169-5.146 84.265 1.62 4.591 2.688 9.156 2.376 10.14s-2.33 3.212-4.488 4.945c-2.157 1.734-4.394 3.146-4.963 3.146-2.668 0-8.326-12.852-11.846-26.904-2.387-9.528-2.644-12.303-2.541-27.596.122-18.186 1.164-24.199 6.746-38.834 7.985-20.94 23.1-39.923 41.588-52.231 11.698-7.788 19.589-11.438 33.683-15.593 10.412-3.07 11.434-3.186 29.285-3.193m-357.827 8.12c1.244 1.244-.324 8.44-2.395 10.98-2.27 2.783-5.052-.149-4.588-4.835.386-3.904 5.086-8.042 6.983-6.145m438.455 2.233c3.668 0 4.378.318 4.378 1.946 0 1.07-.999 2.641-2.221 3.497-2.504 1.754-2.486 1.75-5.43.563-5.426-2.19-3.345-6.006 3.273-6.006m-447.203 6.938c1.522 1.263 2.924 10.01 1.993 12.437-1.202 3.131-3.46 1.578-5.996-4.124-1.759-3.954-2.265-6.22-1.627-7.252 1.201-1.943 3.947-2.458 5.63-1.061m12.34 4.41c1.92-.482 2.944-.068 4.35 1.762 2.64 3.434 6.779 16.37 7.478 23.39.721 7.243-1.443 18.436-4.589 23.767-1.395 2.364-2.942 3.737-4.232 3.737-1.906 0-2.002-.433-1.435-6.754.333-3.713.908-8.884 1.27-11.496.892-6.425-1.048-6.24-2.604.249-.855 3.564-1.688 5-2.898 5-2.556 0-5.385-13.147-4.58-21.276.936-9.436 4.152-17.604 7.24-18.379m-19.917 1.015c2.662 2.409 4.726 9.672 3.044 10.712-.703.434-2.088.356-3.08-.175-2.22-1.189-2.277-.547-.22 2.592 1.697 2.59 1.208 4.512-1.152 4.512-.797 0 1.417 2.809 4.918 6.246 6.565 6.446 9.813 11.67 12.193 19.579 1.02 3.388 1.087 4.904.256 5.905-.909 1.095-1.745.74-4.46-1.892-1.838-1.781-3.346-2.913-3.346-2.518s1.317 3.62 2.925 7.169c4.115 9.075 4.475 14.504.96 14.504-2.324 0-2.347-.248 1.042 9.005 2.285 6.238 2.711 16.942.996 24.939-2.022 9.43-4.99 7.738-5.438-3.1a918 918 0 0 0-.393-8.793c-.064-1.07-.382-1.157-1.207-.332-.755.755-.99 5.53-.722 14.707.438 14.967-.093 16.153-4.588 10.26-4.657-6.106-5.77-11.03-5.695-25.253.075-14.043 2.177-27.182 4.643-29.036 1.994-1.5 1.885-2.418-.94-7.52-3.784-6.83-7.375-16.686-9.022-24.763-1.619-7.936-1.466-8.837 1.709-10.011 1.842-.682 1.592-1.032-2.35-3.202-5.236-2.883-6.196-5.876-2.522-7.842 1.363-.73 3.407-1.082 4.543-.785 1.507.395 2.065.07 2.065-1.208 0-.963.902-2.566 2.002-3.562 1.872-1.693 2.111-1.702 3.84-.138m-225.365 1.402c-.73-2.17-.774-2.154-1.188.545-.237 1.546.135 3.497.831 4.336 1.48 1.783 6.516 1.143 8.775-1.116 1.236-1.236 1.147-1.354-.713-.867-3.378.883-6.874-.428-7.705-2.898m104.219 3.304c3.96-1.094 6.963-.229 9.67 2.777 2.392 2.656 1.51 8.431-1.627 10.629-2.982 2.088-9.047 1.966-10.968-.222-4.275-4.868-2.782-11.609 2.925-13.184m-17.038 2.002c1.879-.11 3.783.466 5.384 1.762 3.001 2.43 2.956 7.94-.091 10.407-3.322 2.69-8.394 2.282-10.877-.876-2.722-3.46-2.615-5.914.383-8.913 1.476-1.475 3.322-2.27 5.201-2.38m116.558 8.93c2.453 0 9.762 22.487 11.864 36.5 1.454 9.694 1.223 27.762-.475 36.611-3.315 17.276-9.979 31.727-22.038 47.821-7.851 10.48-15.99 17.724-28.243 25.151-14.154 8.579-24.88 12.379-43.563 15.409-8.592 1.393-21.577 1.82-26.26.867-1.1-.224-6.056-1.134-11.006-2.03-8.84-1.6-22.333-6.167-30.391-10.278-6.202-3.164-16.492-9.99-17.34-11.506-.87-1.556 5.366-7.547 7.861-7.547.858 0 2.763.842 4.223 1.873 4.628 3.27 18.838 10.036 26.379 12.557 8.72 2.916 23.26 5.56 30.584 5.564 14.932.009 35.41-5.488 49.157-13.194 11.537-6.468 26.4-20.25 33.938-31.462 6.703-9.972 13.134-24.796 15.32-35.338 1.58-7.624 1.872-12.07 1.489-22.503-.42-11.416-.91-14.338-4.04-23.998-1.96-6.05-4.153-12.51-4.872-14.356-1.278-3.287-1.218-3.435 2.614-6.754 2.154-1.865 4.31-3.386 4.799-3.386m-102.4 9.356c2.02.328 4.238 1.364 4.927 2.307 2.038 2.787 1.523 7.732-1.06 10.158-2.913 2.737-6.648 2.775-10.046.102-3.495-2.75-3.523-7.132-.064-10.592 2.148-2.147 3.179-2.472 6.243-1.975m-16.9 5.047c2.945 3.55-1.428 16.963-8.72 26.748-6.119 8.21-9.58 8.827-11.645 2.094-.612-1.996-1.344-2.242-6.499-2.242-8.029 0-9.117-1.46-6.032-8.045l2.321-4.964-2.166-2.316c-1.195-1.272-2.175-2.846-2.175-3.506 0-4.872 31.502-11.881 34.916-7.769m618.474 6.228c2.474-.966 4.636.357 6.38 4.014 1.612 3.379 1.793 3.463 6.197 2.897 6.743-.867 7.735.182 6.134 6.43-1.273 4.964-1.235 5.163 1.298 7.696 4.991 4.991 3 7.61-9.177 12.05-4.401 1.604-9.834 2.64-15.74 2.998-12.136.737-12.574.23-9.47-10.98 1.255-4.529 4.017-11.452 6.143-15.38 2.977-5.5 5.761-8.759 8.235-9.725m-224.56 4.577c2.494 3.162 4.037 16.415 4.341 38.225.189 13.516-.057 18.032-.987 18.342-.679.226-3.227-1.763-5.658-4.41-2.43-2.648-4.666-4.56-4.972-4.254s1.208 3.024 3.363 6.034c5.722 7.99 9.813 16.56 11.618 24.34.873 3.766 2.267 8.163 3.098 9.77 1.881 3.638 1.162 5.74-1.965 5.74-4.299 0-14.635-9.122-18.125-16-1.89-3.724-5.548-15.792-5.548-18.314 0-.377.654-.682 1.444-.682s2.447 1.804 3.683 4.004c2.433 4.329 4.44 5.385 3.31 1.744-.385-1.238-2.375-5.618-4.425-9.743-3.94-7.93-4.112-10.002-.822-10.002 1.538 0 1.852-.423 1.298-1.753-.401-.962-1.418-4.412-2.267-7.667-1.746-6.691-2.617-5.863-3.803 3.653-.36 2.893-2.422 9.076-4.579 13.739l-3.921 8.479 3.053-2.925c1.87-1.792 3.391-2.553 3.94-1.974.507.537.548 4.61.1 9.447-.433 4.675-.603 8.688-.384 8.922.219.235 1-.396 1.736-1.402 1.894-2.59 3.26-1.292 4.626 4.401 1.939 8.082 1.527 21.521-.933 30.577-3.496 12.873-5.02 13.094-10.365 1.485-6.402-13.907-7.188-16.844-7.139-26.49.037-7.336.522-10.153 2.633-15.25l2.587-6.247-3.428 3.008c-2.702 2.373-3.826 2.805-5.274 2.03-2.146-1.149-2.566-2.607-4.077-14.089-2.316-17.611 4.29-37.416 14.186-42.534 2.713-1.403 3.246-1.417 4.552-.11 1.307 1.306 1.226 2.206-.713 7.666-2.547 7.174-2.183 8.672.86 3.516 1.168-1.98 2.528-3.355 3.016-3.054 1.486.918 2.882-1.686 3.638-6.763.735-4.937 2.933-7.152 4.533-4.567.475.767.596 4.6.265 8.516s-.24 8.873.201 11.007c.66 3.196 1.028 1.357 2.057-10.417.687-7.862 1.781-14.946 2.44-15.74 1.033-1.244 1.975-1.312 2.806-.258m-219.013 7.14c1.431-.032 2.482 1.422 3.71 4.356 2.362 5.637 2.805 14.757 1.162 23.84-2.023 11.185-5.013 17.545-10.759 22.92-6.75 6.313-11.758 5.773-7.449-.803 1.751-2.673 5.81-18.347 5.183-20.012-.276-.733-.614-.605-.942.35-5.864 17.117-7.492 18.292-7.934 5.748-.502-14.26 2.294-22.349 10.996-31.813 2.783-3.026 4.601-4.552 6.033-4.585m95.508 5.325 2.422 2.915c7.409 8.914 6.62 8.415 13.098 8.415 3.317 0 6.317.454 6.663 1.015s-.979 3.21-2.943 5.886-3.565 5.124-3.565 5.444 1.348 2.712 2.998 5.314c3.395 5.353 3.83 8.282 1.253 8.451-.963.064-2.201.223-2.751.351s-3.186.295-5.86.378c-4.347.137-5.326.634-9.295 4.66-4.983 5.054-6.592 5.465-9.104 2.325-5.025-6.28-5.962-6.828-11.727-6.828-6.985 0-7.615-1.273-3.574-7.261 3.675-5.445 3.73-6.454.695-12.52-1.298-2.595-2.155-5.282-1.91-5.97.296-.836 2.716-1.245 7.312-1.245 6.728 0 6.937-.081 9.67-3.645 1.536-2.002 3.656-4.553 4.707-5.665zm-313.753 6.274c2.284-.14 4.49.47 5.768 1.882 1.835 2.028 2.188 7.306.676 10.13-1.129 2.11-5.54 3.779-8.665 3.276-2.874-.463-5.19-3.186-5.95-6.985-.502-2.506-.125-3.62 1.937-5.683 1.588-1.588 3.95-2.48 6.234-2.62m-18.573 1.051c6.54 0 9.617 7.387 5 12.004-2.65 2.65-8.108 2.637-10.512-.018-4.192-4.633-.81-11.986 5.512-11.986m650.155 4.29c2.158.29 4.551 1.052 5.32 1.69 2.335 1.937 2.888 6.81 1.087 9.558-1.314 2.006-2.435 2.463-6.087 2.463-5.385 0-8.473-2.556-8.473-7.003 0-4.612 3.331-7.354 8.153-6.707m-637.477 14.708c6.572 0 9.796 7.428 5.072 11.68-3.402 3.063-5.198 3.335-8.527 1.31-6.614-4.021-4.226-12.99 3.455-12.99m650.41 1.116c2.638.015 5.307 1.338 6.783 3.967 2.01 3.583.754 7.57-3.145 9.947-3.919 2.39-3.54 2.386-7.348.064-3.877-2.364-4.94-6.1-2.88-10.084 1.352-2.614 3.953-3.91 6.59-3.894m-17.54.996c1.528.006 2.881.644 4.25 1.92 3.28 3.054 3.824 6.658 1.481 9.807-1.54 2.071-2.973 2.731-6.435 2.962-5.484.366-7.842-1.786-7.842-7.141 0-3.086.524-4.007 3.245-5.665 2.069-1.262 3.773-1.889 5.301-1.883m-657.166 1.301c8.435-.764 10.622.5 10.622 6.118 0 6.042-8.93 24.237-13.848 28.223-2.804 2.273-6.047 1.475-8.153-2.002-1.731-2.858-2.608-3.306-7.24-3.746l-5.264-.507.301-5.48c.284-5.149.103-5.644-2.998-8.194-2.742-2.255-3.12-3.025-2.212-4.52 2.463-4.059 16.085-8.74 28.792-9.892m626.153 7.308c1.988-1.113 5.215 1.535 5.658 4.64.262 1.841.874 2.107 4.305 1.874 2.2-.15 5.07-.02 6.38.295 2.254.543 2.347.87 1.736 6.062-.597 5.086-.45 5.652 2.02 7.778 2.073 1.782 2.526 2.858 2.03 4.834-.538 2.144-1.93 2.957-8.903 5.24-5.78 1.894-11.308 2.883-18.4 3.276-9.835.546-10.164.489-10.85-1.67-.985-3.106.111-8.015 3.401-15.306 2.792-6.19 9.543-15.3 12.623-17.023m-380.88 12.28c5.353 0 2.631 15.445-5.146 29.239-4.651 8.25-10.148 13.002-18.216 15.74-3.963 1.345-7.548 2.102-7.97 1.68-.924-.924.75-3.7 6.425-10.639 5.382-6.58 5.795-10.315.457-4.124-3.55 4.117-3.886 4.284-5.466 2.703s-1.813-1.416-3.748 2.611c-3.105 6.467-6.483 10.198-8.51 9.42-1.727-.662-1.688-3.33.165-13.129.344-1.815.207-2.607-.338-2.002-1.11 1.231-2.721 6.237-4.35 13.499-1.507 6.713-4.339 11.002-7.277 11.016-1.684.008-2.81 1.372-4.954 5.979-4.2 9.027-18.504 22.5-21.754 20.492-1.598-.988-1.176-2.06 3.528-8.931 2.475-3.616 4.498-7.11 4.498-7.77 0-2.19-8.757 7.357-11.536 12.577-1.504 2.825-3.691 5.923-4.853 6.873-2.46 2.012-6.619 2.335-6.609.517.01-1.788 3.992-9.395 8.4-16.036 3.443-5.186 14.42-15.876 20.575-20.04 3.105-2.1 5.859-2.126 8.117-.083 1.644 1.488 1.804 1.278 2.431-3.256 1.846-13.332 5.94-23.293 13.967-33.963 4.185-5.563 6.424-7.542 7.669-6.772.477.294 1.83 2.423 3.007 4.724 2.353 4.599 2.808 13.132.95 17.927-1.964 5.07-.25 2.82 3.849-5.056 2.234-4.295 5.74-9.415 7.796-11.377 4.012-3.827 16.787-11.819 18.893-11.819m32.257 4.004c7.488 0 7.483 2.786-.082 24.829-15.441 44.989-50.22 84.415-93.662 106.187-6.418 3.217-13.694 6.573-16.169 7.455-15.445 5.503-28.116 8.905-39.496 10.61-7.15 1.072-19.082 2.09-26.507 2.261-14.03.323-35.568-1.514-37.228-3.174-1.255-1.255.637-4.783 3.336-6.228 1.503-.804 5.023-.766 13.135.13 18.756 2.07 40.95.249 61.258-5.029 43.392-11.276 81.87-39.573 107.473-79.043 8.517-13.13 19.453-38.785 21.599-50.663 1.128-6.243 2.071-7.335 6.343-7.335m319.264 10.002c2.479 0 6.828 4.35 6.828 6.837 0 1.064-.793 2.845-1.755 3.958-4.49 5.193-12.248 2.243-12.248-4.66 0-2.343 4.434-6.135 7.175-6.135m14.168 16.995c3.158 0 6.405 2.79 7.211 6.2.493 2.086.06 3.28-1.91 5.25-4.69 4.69-12.641 2.176-12.641-3.995 0-3.23 4.158-7.455 7.34-7.455m-143.093.055c3.182.072 17.176 8.361 17.586 10.417.187.94-.674 2.79-1.92 4.115-2.794 2.974-4.589 3.027-8.427.25-3.236-2.343-9.488-11.206-9.488-13.453 0-.787.973-1.357 2.249-1.329m121.832 3.959c4.296.019 5.519.803 6.883 4.391 1.416 3.725.474 6.475-2.614 7.65-3.962 1.505-6.268 1.121-8.894-1.505-4.67-4.669-2.081-10.566 4.625-10.536m-28.06 5.49c2.356 0 2.795.7 4.615 7.344.276 1.008 1.567 1.17 5.183.673 6.354-.874 8 .786 6.325 6.376-1.65 5.508-1.518 5.952 2.358 8.239 3.643 2.15 4.473 4.81 2.12 6.763-.754.626-5.365 2.005-10.255 3.072s-12.503 2.244-16.91 2.611c-10.634.887-11.468.046-9.003-9.06 3.437-12.697 11.407-26.019 15.566-26.019m-97.245 2.15c3.197-.52 4.116-.177 6.992 2.61 4.028 3.904 4.02 7.092-.018 7.557-2.17.25-2.751.831-2.751 2.777 0 2.966-2.53 4.18-5.22 2.5-1.752-1.095-1.887-1-1.279.914.443 1.395.071 2.799-1.07 4.06-.96 1.06-2.568 1.928-3.583 1.928-1.598 0-1.85-.833-1.837-6.247.017-6.987 1.291-10.309 2.97-7.75.543.825.996 2.03 1.006 2.685s.533 1.516 1.17 1.91c.857.53 1-.986.549-5.813l-.613-6.541zm227.979 4.954c5.044-.152 5.314 2.253.768 6.8-5.137 5.136-11.51 4.646-10.146-.785.845-3.368 4.752-5.876 9.378-6.015m-465.008 1.965c1.66 1.223 1.65 1.482-.246 5.102-3.624 6.919-16.897 19.762-24.625 23.823-5.821 3.059-8.408 3.795-14.825 4.235-8.98.615-11.094-.671-5.658-3.45 7.329-3.748 16.354-9.273 17.595-10.768 2.539-3.059-.222-2.939-6.307.277-10.437 5.515-11.475 3.85-3.3-5.315 6.472-7.254 12.602-10.719 22.614-12.778 11.732-2.414 12.888-2.5 14.752-1.126m-213.455 9.596c1.543-1.281 4.248.146 3.272 1.725-.822 1.33-3.227 1.463-3.994.221-.301-.487.022-1.366.722-1.946m459.843 2.26c2.994-1.548 3.164-1.517 6.07 1.236 3.198 3.03 14.685 17.076 24.002 29.34 3.134 4.125 10.49 13.575 16.343 21 18.82 23.874 25.447 33.09 25.447 35.383 0 1.324-1.214 3.137-2.962 4.43-1.627 1.203-3.824 2.186-4.88 2.186-1.776 0-10.461-10.463-31.16-37.543a7127 7127 0 0 0-18.5-24.007c-16.97-21.934-19.71-26.187-18.427-28.584.544-1.017 2.374-2.565 4.067-3.441m-453.463 3.635c5.399.567 11.777 2.136 16.27 4.401 2.506 1.263 8.159 3.764 12.559 5.564s8.547 3.701 9.223 4.226c3.594 2.789-5.508 7.17-17.303 8.322-5.467.533-6.558.27-14.177-3.46-4.537-2.222-8.245-3.812-8.245-3.525 0 .288 1.327 2.187 2.953 4.217 3.642 4.546 10.28 18.713 9.844 21.009-.692 3.654-6.718 2.335-17.303-3.793-6.461-3.74-24.496-20.988-24.496-23.425 0-.815.993-2.18 2.203-3.027 2.652-1.857 3.948-1.166 13.409 7.096 3.36 2.934 6.394 5.332 6.745 5.332 1.894 0-.111-2.741-6.608-9.032-6.789-6.574-7.129-7.115-5.393-8.433 2.33-1.77 4.875-.872 11.179 3.94 4.368 3.334 4.789 3.465 5.987 1.826 1.217-1.664 1.743-1.603 9.45 1.07 7.604 2.638 10.679 2.878 8.465.665-.98-.98-15.219-6.867-21.736-8.987-2.09-.68-3.63-1.756-3.419-2.39.578-1.732 4.995-2.163 10.393-1.596m509.073 3.34c2.507-.501 3.623-.125 5.686 1.938 2.988 2.988 3.288 6.549.813 9.577-.962 1.177-3.37 2.404-5.356 2.722-4.508.721-7.888-2.35-7.888-7.17 0-3.708 2.366-6.191 6.745-7.067m-124.528.61c6.79.023 7.584.98 5.502 6.596-2.015 5.439-1.737 6.217 1.436 3.995 1.33-.932 4.304-1.605 7.11-1.605 6.956 0 9.735 3.162 9.735 11.08 0 5.184-.287 5.98-2.751 7.686-4.295 2.976-5.938 3.262-9.725 1.68-3.611-1.51-4.71-.665-2.03 1.559.952.79 1.5 2.997 1.5 6.034 0 4.12-.425 5.145-3.072 7.372-4.709 3.962-12.154 3.35-16.38-1.347-2.015-2.241-2.528-7.64-1.114-11.69.653-1.873.431-2.065-1.828-1.633-11.777 2.251-16.238-15.648-5.064-20.317 4.43-1.85 7.477-1.802 10.3.175 3.03 2.122 3.61 1.3 2.167-3.072-1.712-5.189-.842-6.532 4.214-6.514m-252.238 2.573c1.116 1.116-3.175 10.07-8.135 16.977-3.602 5.016-7.28 7.307-15.776 9.826-10.631 3.152-16.665.992-8.062-2.888 2.203-.993 4.505-2.415 5.119-3.155 2.024-2.439-1.802-1.541-9.132 2.15-7.384 3.718-13.993 4.678-13.993 2.03 0-1.67 12.722-10.98 20.995-15.363 7.813-4.14 27.815-10.746 28.984-9.577m-67.154 13.37c9.833.035 18.159.504 19.25 1.088 4.435 2.374.89 6.262-10.393 11.404-7.2 3.282-8.533 3.552-17.376 3.552h-9.57l7.705 7.418c5.973 5.745 7.642 7.947 7.386 9.753-.305 2.151-.83 2.34-6.828 2.472-19.994.442-34.561-5.798-42.503-18.213-3.714-5.806-4.148-8.676-1.39-9.208.872-.167 5.141 2.564 9.489 6.071 8.436 6.808 12.237 9.21 13.134 8.313.913-.912-1.259-2.928-7.66-7.132-5.923-3.89-7.604-5.807-6.562-7.492.286-.462 4.228.405 8.756 1.929 12.17 4.096 13.738 4.391 13.738 2.639 0-1.027 1.543-1.682 5-2.14 3.247-.432 5-1.15 5-2.04 0-1.083-2.444-1.366-11.59-1.366-14.273 0-14.83-1.455-1.847-4.806 7.719-1.993 11.286-2.296 26.26-2.243m463.17.415c2.795.818 5 2.986 5 6.043 0 3.77-1.005 5.54-4.068 7.123-4.264 2.205-7.5 1.82-9.853-1.172-2.75-3.495-2.625-6.91.375-9.91 2.365-2.364 5.75-2.902 8.546-2.084m-370.194.083c11.209.873 12.193 1.194 12.193 3.995 0 1.562-1.764 3.818-5.448 6.966-6.52 5.57-11.544 7.913-21.553 10.066-4.121.886-8.398 1.733-9.497 1.882-3.895.527-15.034-.917-17.43-2.26-2.333-1.309-2.354-1.418-.558-2.732 1.03-.752 2.365-1.374 2.962-1.374 5.6 0 18.304-2.387 19.533-3.672 1.358-1.422.818-1.516-5.695-.95-11.106.963-11.083-1.948.055-7.16 9.438-4.417 15.433-5.54 25.438-4.761m346.96 2.546c5.736 0 9.497 7.704 5.483 11.229-5.52 4.848-14.252.622-12.76-6.173.764-3.475 3.043-5.056 7.276-5.056m143.75 4.66c2.526.27 4.951 1.88 5.941 4.696.883 2.51.67 3.14-1.782 5.25-3.06 2.631-3.195 2.66-6.362 1.384-3.504-1.412-5.685-5.428-4.323-7.972 1.37-2.562 4-3.63 6.526-3.358m-560.918 10.914 12.907.065 9.743 4.327c13.079 5.799 12.976 6.503-1.745 11.589-6.175 2.133-10.28 2.84-17.998 3.09-12.261.399-13.095.118-28.792-9.558-7.625-4.7-1.654-6.388 11.078-3.137 4.424 1.13 9.018 2.048 10.21 2.048 3.735 0 1.621-2.393-3.867-4.382-8.344-3.026-6.046-4.12 8.464-4.042m549.035 1.661c1.69-.797 4.136-.57 7.12.766 3.047 1.364 4.384 2.72 5.375 5.462.977 2.7 1.777 3.533 3.08 3.192 4.68-1.223 15.811 12.575 17.313 21.461.533 3.159.167 4.755-1.956 8.378-1.442 2.46-3.478 4.93-4.525 5.49s-2.293 1.014-2.77 1.014c-1.383 0-3.262-2.261-3.28-3.948-.033-2.934-5.794-11.338-12.386-18.084-7.798-7.98-8.324-9.965-2.66-9.965 2.168 0 4.221-.446 4.561-.996.368-.596-.838-1.006-2.989-1.006-1.985 0-4.94-.683-6.563-1.522-2.376-1.23-2.952-2.18-2.952-4.881 0-2.745.942-4.563 2.632-5.36m-431.453 7.354c2.003-1.403 9.464-1.118 11.16.424.46.417.123 2.134-.749 3.82s-1.59 4.056-1.59 5.268c0 2.028.145 2.083 1.755.646.962-.859 3.649-2.065 5.977-2.685 3.41-.908 4.782-.844 7.039.323 8.93 4.618 6.809 20.573-2.743 20.63-4.102.025-5.448 1.334-4.049 3.95 1.524 2.846.69 6.083-2.568 9.955-2.312 2.747-3.17 3.081-8.071 3.081-4.783 0-5.883-.39-8.537-3.044-2.827-2.827-2.996-3.402-2.386-8l.65-4.954h-3.593c-4.645 0-7.084-1.358-8.958-4.983-3.398-6.572-1.046-12.624 6.408-16.478 3.076-1.591 3.35-1.563 7.632.83 4.978 2.783 5.479 2.072 2.55-3.672-1.874-3.677-1.873-3.748.073-5.111m425.576 10.416c2.12.005 8.272 3.559 10 5.776 1.858 2.385 1.512 6.011-.686 7.188-3.991 2.136-8.487.704-12.403-3.95-1.468-1.744-2.66-3.588-2.66-4.096 0-1.578 3.91-4.922 5.75-4.918m-47.027 15.999c-.568 0-.222.899.777 2.002.998 1.104 2.038 1.788 2.303 1.523.672-.672-1.822-3.525-3.08-3.525m9.47 10.537c1.859 4.08.027 4.82-13.958 5.61-12.604.71-20.326 2.958-27.32 6.403h12.485c3.79-.877 5.417-1.83 15.374-2.833 19.753-1.99 22.233-1.793 20.904 1.67-.11.288-1.856.789-2.276 1.163h12.916c-2.557-2.077-5.532-4.483-9.543-7.419-7.725-5.653-9.493-6.593-8.583-4.594m25.894 3.663c-3.974.479-3.507 2.476.74 3.155 2.15.344 4.476 1.301 5.165 2.131s1.73 1.513 2.321 1.513-.469-1.594-2.358-3.542c-2.412-2.49-4.158-3.464-5.868-3.257" style="fill:green;fill-opacity:1" transform="matrix(.16026 0 0 .15877 -154.764 94.875)"/><g style="font-size:401.225px;font-family:NumbersDeuce;-inkscape-font-specification:NumbersDeuce;stroke-width:17.7708;fill:green"><path d="m-211.68 803.352 20.462.802v-84.257q0-40.524 17.253-59.783 16.852-18.456 44.536-18.456t44.937 18.456q17.654 19.66 17.654 59.783v132.404q0 20.463-5.216 36.11 12.84 9.229 33.703 8.025v32.098q-28.888 2.407-47.746-14.043-16.049 16.05-43.332 16.05-28.888-.803-44.536-18.056-17.253-19.259-17.253-60.184V835.05l-20.462-.402zm49.35 5.216q31.697 7.222 55.37 39.32l9.63 13.24 1.203-25.277v-99.504q0-32.098-5.617-47.344-6.821-16.45-27.685-16.45-20.061 0-26.882 16.45-6.018 14.845-6.018 47.344zm35.308 59.381q-16.45-21.265-35.307-27.684 0 29.289 6.42 44.535 6.018 14.846 26.48 15.247 14.444 0 21.666-8.024zv-.401z" aria-label="Q" style="fill:green" transform="translate(62.374 -128.718)scale(.22154)"/></g></g><g style="clip-rule:nonzero;opacity:.198728;fill:#b3b3b3;fill-opacity:1;fill-rule:nonzero;stroke:#000;stroke-miterlimit:4;filter:url(#a)" transform="translate(0 .616)"><path d="M166.837 235.548c0 3.777-3.087 6.869-6.871 6.869H7.11c-3.775 0-6.861-3.092-6.861-6.87V7.12C.25 3.343 3.336.25 7.11.25h152.856c3.784 0 6.87 3.093 6.87 6.87z" style="fill:#b3b3b3;fill-opacity:1;stroke-width:.5"/></g></svg>