<svg xmlns="http://www.w3.org/2000/svg" xml:space="preserve" width="222.783" height="323.556" viewBox="0 0 167.087 242.667"><defs><filter id="a" width="1.147" height="1.101" x="-.074" y="-.051" style="color-interpolation-filters:sRGB"><feGaussianBlur in="SourceGraphic" result="result3" stdDeviation="4"/><feGaussianBlur in="SourceGraphic" result="result4" stdDeviation="1"/><feBlend in2="result3" mode="darken"/><feComponentTransfer result="result1"><feFuncR tableValues="0 0.2 0.4 0.6 0.8 1 1" type="discrete"/><feFuncG tableValues="0 0.2 0.4 0.6 0.8 1 1" type="discrete"/><feFuncB tableValues="0 0.2 0.4 0.6 0.8 1 1" type="discrete"/></feComponentTransfer><feTurbulence baseFrequency="1" numOctaves="7" result="result0" type="fractalNoise"/><feConvolveMatrix kernelMatrix="-2 0 -2 0 -10 0 -2 0 -2" order="3 3" result="result5"/><feColorMatrix in="result5" result="result4" type="saturate" values="0"/><feComposite in="result1" in2="result4" k1="1.5" k2=".5" k3=".5" operator="arithmetic" result="result2"/><feComposite in2="SourceGraphic" operator="in"/></filter></defs><g style="fill-rule:nonzero;clip-rule:nonzero;stroke:#000;stroke-miterlimit:4"><path d="M166.837 235.548c0 3.777-3.087 6.869-6.871 6.869H7.11c-3.775 0-6.861-3.092-6.861-6.87V7.12C.25 3.343 3.336.25 7.11.25h152.856c3.784 0 6.87 3.093 6.87 6.87z" style="fill:#fff;stroke-width:.5"/></g><path d="M3.243-4.725C1.126-7.59 0-10.5 0-10.5s-1.126 2.91-3.243 5.775C-5.361-1.862-8 0-8 0s2.639 1.861 4.757 4.726C-1.126 7.59 0 10.5 0 10.5s1.126-2.91 3.243-5.774C5.361 1.861 8 0 8 0S5.361-1.862 3.243-4.725" style="fill:navy" transform="matrix(2.0446 0 0 2.301 39.178 124.334)"/><g style="fill:navy"><path d="m1743.073-443.911-39.297.277-39.288.276 3.198 4.507a317 317 0 0 0 6.041 8.184c1.564 2.03 2.843 3.951 2.843 4.259 0 1.497-2.326-.147-11.945-8.443-7.904-6.817-11.13-9.005-13.303-9.005-3.417 0-3.17.584 3.153 7.3 4.428 4.704 20.149 17.778 25.092 20.867 3.87 2.417 10.998 9.904 10.998 11.548 0 2.161-11.14-4.23-23.398-13.41-12.273-9.191-15.339-12.007-21.776-20.056-4.05-5.065-5.545-6.249-7.881-6.249-3.801 0-3.221 1.534 3.9 10.342 7.036 8.704 18.781 19.56 27.306 25.244 6.217 4.146 22.32 12.514 29.566 15.365 3.632 1.428 8.978 7.77 7.654 9.078-1.09 1.076-16.149-5.1-27.37-11.226-17.412-9.504-36.43-25.795-47.498-40.683-5.341-7.184-6.355-8.072-9.248-8.092-1.787-.013-3.253.45-3.253 1.032 0 3.18 18.788 25.335 29.466 34.747 6.038 5.322 23.772 17.615 27.207 18.858 1.006.364 2.952 1.405 4.327 2.313 2.78 1.835 16.85 7.562 27.28 11.106 4.929 1.676 7.462 3.195 9.257 5.549 1.358 1.78 2.469 3.495 2.469 3.806 0 1.07-3.994.563-11.253-1.428-16.21-4.448-33.03-12.208-48.116-22.194-19.698-13.038-30.326-23.406-43.224-42.185-7.638-11.12-8.037-11.526-11.58-11.576-3.374-.048-3.776.25-4.912 3.696-2.997 9.089-17.093 28.612-29.566 40.95-10.148 10.038-13.357 11.328-13.357 5.391 0-2.074 1.654-4.478 6.451-9.42 10.701-11.02 29.557-36.27 29.557-39.576 0-1.795-6.546-1.272-8.182.654-.817.963-2.664 3.826-4.11 6.36-5.424 9.51-19.423 26.895-21.657 26.895-.58 0-1.057-1.654-1.057-3.669 0-2.993 1.072-4.954 5.859-10.746 6.342-7.675 13.138-17.82 13.138-19.605 0-.65-1.331-.985-3.216-.801-2.657.258-4.109 1.492-8.255 7.014-2.765 3.682-5.364 6.716-5.776 6.746-.413.03-.747-3.09-.747-6.94v-7.005h-2.898c-1.59 0-3.127.62-3.416 1.374-.29.753-.637 8.065-.775 16.249-.295 17.542-.78 41.454-1.157 56.932-.304 12.46-.346 12.568-9.376 22.654-7.228 8.075-15.12 18.472-24.509 32.296-27.147 39.967-46.291 84.76-55.77 130.5-5.388 26.001-7.098 44.27-7.098 75.752v24.416l-9.749 9.161c-5.362 5.039-14.48 13.897-20.254 19.687s-12.748 12.479-15.498 14.867c-2.75 2.387-9.724 8.909-15.499 14.488-15.492 14.968-33.887 31.623-34.914 31.623-.494 0-1.829-3.07-2.97-6.83-1.423-4.683-3.34-8.28-6.096-11.41-2.212-2.513-4.018-4.822-4.018-5.143s1.456-1.213 3.244-1.972c3.952-1.68 15.753-10.302 15.753-11.512 0-.478 1.957-3.783 4.346-7.346s4.957-8.574 5.713-11.134 1.73-4.654 2.16-4.654c1.55 0 .838-8.039-.766-8.655-.85-.325-5.01.77-9.248 2.434s-12.882 4.437-19.207 6.156c-19.517 5.307-22.414 6.254-25.156 8.194-4.552 3.222-5.452 2.437-5.366-4.627l.045-4 6.78-.746c20.363-2.253 32.226-20.386 26.276-40.158l-1.421-4.719 3.097-2.691c7.99-6.93 8.074-7.67 1.303-11.05-5.25-2.623-6.953-4.508-6.305-6.987.785-3-1.14-13-3.325-17.282-6.433-12.608-20.595-19.026-33.812-15.318l-6.168 1.733-6.014-4.673c-3.309-2.57-6.423-4.424-6.915-4.12-.493.305-2.302 3.01-4.018 6.01l-3.117 5.456-5.694-.065c-9.973-.117-15.007 1.78-21.266 8.037-3.794 3.793-6.102 7.153-7.243 10.507-1.875 5.512-2.195 15.272-.675 20.572.876 3.053.606 4.256-2.113 9.558-1.711 3.336-2.947 6.933-2.743 7.99s2.219 2.941 4.474 4.185c3.95 2.18 4.118 2.477 4.637 8.203.297 3.269 1.715 8.51 3.153 11.65s2.345 5.985 2.014 6.314c-1.4 1.388-20.315.04-27.945-1.991-13.68-3.64-12.484-3.76-12.473 1.216.006 2.974.927 5.968 2.888 9.374 6.872 11.933 15.674 18.483 26.851 19.982 2.887.387 5.465 1.052 5.731 1.484.267.431-1.271 1.944-3.417 3.364-3.169 2.097-4.195 3.622-5.503 8.12-.885 3.045-2.882 7.003-4.437 8.793-4.33 4.984-5.12 7.111-5.12 13.76 0 5.214-.459 6.803-3.071 10.6-3.447 5.01-3.54 5.783-2.67 23.392.654 13.225 1.625 17.357 5.403 22.986 1.286 1.915 2.333 4.534 2.333 5.816s-1.574 8.695-3.499 16.48c-2.105 8.512-3.499 16.624-3.499 20.36 0 5.464.31 6.458 2.552 8.22 5.387 4.239 12.426 3.875 17.657-.903 1.726-1.576 3.578-2.592 4.118-2.258.566.35.661.093.228-.608-.415-.671-.049-1.99.811-2.94 3.457-3.82 4.96-9.483 4.875-18.342-.106-11.09 1.105-12.56 6.542-7.954 2.044 1.733 5.408 4.05 7.47 5.162 2.063 1.11 3.746 2.354 3.736 2.756-.012.763-42.19 42.767-54.74 54.517-6.731 6.301-7.244 7.083-7.244 10.912v4.13l12.246-11.9c6.737-6.543 21.47-20.927 32.746-31.963 11.275-11.037 25.23-24.543 31.006-30.01 16.624-15.738 52.405-50.159 81.281-78.195 9.764-9.479 18.863-17.512 20.218-17.853 2.578-.647 4.966.706 22.113 12.517 20.135 13.868 59.115 59.467 61.055 71.42.508 3.129.063 3.705-9.102 11.65-12.836 11.129-31.715 31.601-42.322 45.9-4.735 6.382-10.284 13.85-12.328 16.6-14.692 19.765-32.798 51.417-43.023 75.199-10.085 23.455-20.361 58.573-24.82 84.803-1.654 9.74-6.041 43.584-6.067 46.821-.004.453-.62.676-1.367.498-1.428-.34-48.335-45.71-94.384-91.292l-27.252-26.978V363.68h136.742c-1.154-1.705-.434-2.696 6.752-6.35 15.004-7.63 39.214-26.425 50.686-39.356 22.798-25.697 38.411-56.764 46.486-92.49 2.488-11.01 2.683-13.546 2.751-36.341.059-19.4-.297-26.47-1.694-33.992-2.154-11.59-6.676-27.15-10.579-36.36-3.126-7.378-3.12-10.16.037-10.986 1.662-.435 2.484.54 4.838 5.733 8.83 19.474 13.548 41.8 14.605 69.107 2.056 53.11-18.605 106.715-55.733 144.574-13.84 14.112-27.342 24.467-45.356 34.793-1.603.919-1.76.92-3.116 1.668h13.694c7.43-4.802 15.558-9.976 21.156-14.48 23.443-18.858 49.66-53.03 58.987-76.885 10.71-27.393 14.588-44.222 16.664-72.343 2.274-30.801-4.58-67.977-17.557-95.19-1.383-2.9-1.463-3.82-.42-5.079 1.791-2.157 2.914-1.127 5.768 5.318 6.976 15.755 12.975 35.77 15.927 53.126 2.483 14.602 2.487 47.61.009 60.996-3.678 19.862-7.363 34.016-11.335 43.503-17.222 41.138-34.483 65.735-62.868 89.596-4.611 3.877-10.737 7.306-16.9 11.438h11.124c27.59-20.825 50.081-46.442 64.553-75.033 9.722-19.208 17.653-43.12 21.22-64.001 6.838-40.017.055-92.173-16.126-124.03-3.032-5.968-3.582-7.837-2.707-9.226 2.305-3.66 4.021-2.474 7.9 5.465 20.246 41.442 25.742 93.335 14.906 140.73-10.993 48.084-38.873 93.573-75.605 123.358-.994.806-2.727 1.772-4 2.737h13.056c1.589-1.581 1.194-1.406 3.134-3.272 7.426-7.14 16.974-16.981 21.22-21.871 34.718-39.97 54.735-95.323 54.769-151.45.018-31.45-7.38-65.25-20.455-93.42-2.494-5.373-4.538-10.354-4.538-11.07 0-1.856 4.86-5.437 6.515-4.802 2.214.85 10.947 18.798 15.325 31.503 4.858 14.098 9.838 33.965 11.745 46.849 3.88 26.214 2.77 52.637-3.627 86.397-1.43 7.554-9.029 30.348-14.195 42.582-10.365 24.545-28.878 51.419-50.659 73.531-2.635 2.676-3.972 3.71-5.549 5.023h68.781c4.303-.281 8.276-1.314 12.665-1.484 23.403-.904 39.68-.217 58.54 1.484h217.012c-1.93-1.197-2.597-1.441-5.202-3.207-26.876-18.217-47.895-39.24-64.964-64.97-5.063-7.631-7.389-12.076-7.389-14.128 0-2.562 1.706-4.52 11.754-13.503 14.727-13.166 29.96-28.559 35.306-35.678 2.254-3 5.933-7.647 8.173-10.323 13.305-15.892 32.578-45.983 43.37-67.724 21.76-43.84 35.306-94.725 37.92-142.473.361-6.587 1.088-12.8 1.622-13.797.908-1.695 1.18-1.633 4.164.857 2.698 2.251 47.57 46 104.443 101.836l14.25 13.99v-234.732l-5.75-7.502a2030 2030 0 0 1-8.245-10.82c-1.375-1.828-9.479-12.158-18.004-22.96-8.525-10.801-16.395-20.821-17.485-22.267s-7.158-9.127-13.493-17.06c-20.394-25.54-23.193-29.306-22.35-30.12 2.165-2.093 32.397-8.207 54.285-10.978 15.37-1.945 19.042-2.92 19.042-5.087 0-.48-2.026-5.182-4.5-10.443-2.476-5.262-4.502-9.77-4.502-10.019 0-.248-.862-2.35-1.922-4.682-11.598-25.5-18.672-52.213-23.243-87.743-3.233-25.13-2.873-62.701.784-81.246.538-2.73.504-2.756-4.92-2.756-4.814 0-5.536.267-6.087 2.25-.344 1.237-1.124 11.026-1.731 21.75-1.039 18.348-.762 39.602.747 57.255l.665 7.742-4.892.019c-2.692.008-5.85.574-7.016 1.253-1.166.68-3.596 2.062-5.394 3.079l-3.262 1.852-3.617-3.899c-1.986-2.144-5.064-4.494-6.843-5.216-8.907-3.615-19.27 4.8-19.27 15.65 0 4.655 4.617 12.312 8.483 14.074 2.957 1.347 3.333 3.189.647 3.189-5.668 0-15.328-7.487-18.952-14.7-1.047-2.086-2.692-6.276-3.663-9.3-1.867-5.816-4.012-8.996-6.059-8.996-.68 0-3.667-2.63-6.642-5.844-8.043-8.687-12.933-23.152-7.826-23.152 1.307 0 2.153.847 2.496 2.498.286 1.375.74 3.553 1.002 4.838 1.276 6.237 8.98 11.268 15.553 10.157 9.388-1.586 13.489-9.385 11.781-22.396-.234-1.785.433-2.818 2.606-4.037 1.606-.902 4.301-3.354 5.995-5.447 2.759-3.409 3.08-4.508 3.08-10.535 0-7.734-2.539-12.671-8.3-16.111-6.69-3.994-17.211-1.6-22.46 5.106l-2.45 3.134-4.72-3.604c-3.88-2.962-5.56-3.604-9.44-3.604-4.14 0-5.173.454-8.373 3.742-6.572 6.754-6.791 15.72-.565 22.812 3.676 4.187 3.26 5.071-1.467 3.097-4.664-1.95-11.28-8.034-14.204-13.07-3.168-5.457-5.827-16.175-5.194-20.922.422-3.163-.035-4.615-2.596-8.249l-3.116-4.415h-20.355l1.922 7.254c1.06 3.987 3.77 11.076 6.014 15.751 3.358 6.998 5.688 10.113 13.193 17.623 7.995 8 10.424 9.753 19.744 14.295l10.624 5.18.674 5.198c2.498 19.243 11.579 36.436 25.348 48.01 6.278 5.277 21.531 13.175 27.525 14.25 5.296.948 6.697 2.725 6.697 8.45 0 8.013 2.741 18.58 7.07 27.255 5.094 10.208 8.887 15.368 17.785 24.194 3.856 3.824 6.794 7.304 6.524 7.742s-1.75.802-3.29.802c-9.064 0-28.056-25.563-33.438-45.006-.837-3.025-2.039-8.113-2.67-11.309-1.224-6.204-.85-5.865-10.094-9.124-6.408-2.26-17.313-8.97-24.036-14.793-10.49-9.087-19.247-24.302-23.316-40.508-1.348-5.367-2.582-10.821-2.742-12.12-.235-1.896-1.551-2.833-6.679-4.756-12.216-4.58-24.707-15.689-32.764-29.143-3.931-6.564-10.35-23.52-10.35-27.337 0-1.046-.67-1.908-1.495-1.908-2.06 0-1.91 1.604 1.085 11.199 3.39 10.859 10.202 23.31 16.527 30.23 7.263 7.946 19.453 17.695 26.113 20.877 6.647 3.174 7.287 4.133 8.118 12.193.34 3.3 1.908 9.155 3.481 13.005s3.192 8.35 3.599 10l.738 2.996-2.679-2.498c-1.472-1.375-9.683-11.675-18.25-22.885s-20.793-27.028-27.16-35.153-14.728-18.946-18.578-24.046-8.345-10.775-9.995-12.618zm-137.535 10.203c.782-.045 1.556.73 2.588 2.304 2.08 3.174 1.543 4.678-5.494 15.29-10.04 15.143-22.487 28.683-37.566 40.877-7.959 6.436-8.5 6.474-8.5.654 0-2.785.848-4.133 4.728-7.576 19.202-17.038 29.64-29.31 41.638-48.94 1.036-1.695 1.824-2.564 2.606-2.61m9.968 12.857c.458 0 3.877 3.48 7.599 7.742 23.464 26.874 53.47 44.787 90.912 54.26 13.27 3.357 14.207 3.962 21.33 13.935l4.6 6.443.757 12.055c.756 12.037 1.278 16.205 4.41 35.06 1.526 9.188 2.918 14.506 10.059 38.305l2.496 8.314-3.416 7.19c-9.167 19.272-32.94 43.967-59.187 61.484-18.55 12.38-34.598 18.916-53.41 21.752-15.45 2.329-20.9 1.7-36.455-4.203-16.668-6.325-34.998-29.55-40.919-51.845-1.606-6.05-3.704-18.842-5.658-34.498-1.626-13.032-1.405-40.93.328-41.595.76-.292 3.994.235 7.18 1.161 6.564 1.909 17.404 1.417 24.555-1.106 5.15-1.817 5.886-1.816 5.886-.018 0 .79-2.476 3.602-5.494 6.249s-5.484 5.325-5.494 5.954c-.028 2.495 3.048 2.06 8.136-1.152 2.94-1.857 5.679-3.05 6.077-2.655.732.725-2.549 9.938-6.432 18.084-2.242 4.701-2.603 12.399-.693 14.7.59.71 4.911 3.45 9.603 6.083s9.568 6.024 10.843 7.54c4.537 5.391 8.06 2.686 4.045-3.106-1.427-2.06-2.596-4.505-2.596-5.438 0-2.509 4.79-2.17 11.152.792 6.272 2.92 9.326 3.103 14.87.885 5.403-2.162 8.463-7.813 7.607-14.055-1.188-8.671-6.708-15.652-11.06-13.982-2.7 1.035-1.75 4.111 1.876 6.064 6.01 3.237 6.813 10.374 1.476 13.134-4.282 2.215-5.73 1.873-14.924-3.539-4.673-2.75-9.667-4.995-11.107-4.995-3.299 0-7.89 3.533-7.89 6.073 0 2.677-3.14 2.468-5.822-.387-2.958-3.148-2.753-5.613 1.266-15.078 12.13-28.57 13.615-47.636 5.157-66.158-3.258-7.136-7.836-11.94-14.414-15.116-4.79-2.312-7.02-2.746-14.186-2.783-5.737-.03-10.202.541-13.73 1.77-2.876 1-5.689 1.536-6.251 1.189-.562-.348-1.02-3.925-1.02-7.955v-7.327l8.755-6.507c14.762-10.972 33.384-30.458 43.552-45.577 2.642-3.928 5.173-7.143 5.631-7.143m223.527 11.715c1.805-.55 3.748-.454 5.667.34 5.22 2.163 6.093 9.266 1.53 12.462-2.37 1.66-7.33 1.899-9.775.47-.89-.52-2.195-2.33-2.898-4.028-1.126-2.717-1.05-3.405.674-5.714 1.334-1.787 2.997-2.98 4.802-3.53m-169.962 55.826c-10.27-.038-12.904.294-18.25 2.322-10.71 4.065-18.935 13.116-16.336 17.973 1.916 3.58 4.518 3.443 14.405-.765 15.734-6.697 27.587-7.451 45.183-2.866 8.914 2.322 19.462 7.315 29.994 14.184 7.585 4.947 10.505 5.712 10.505 2.747 0-2.745-3.221-6.39-12.355-13.982-10.713-8.906-16.862-12.218-30.149-16.24-9.767-2.957-12.342-3.334-22.997-3.373m-99.149 15.558c5.036-.915 15.185.583 19.845 2.93 4.032 2.032 11.799 7.444 11.799 8.222.002.863-2.396 1.015-3.207.203-.3-.3-3.594-1.655-7.317-3.005-7.966-2.89-18.837-3.291-25.475-.95-6.128 2.163-8 1.964-8-.847 0-2.732 4.522-5.132 12.355-6.553m325.783 1.539c4.417.116 8.865 3.417 8.865 6.58 0 2.684-2.644 7.427-4.546 8.157-6.071 2.33-12.455-1.605-12.455-7.677 0-4.603 2.987-7.195 8.136-7.06m-216.639 1.659c-8.217-.614-14.315 1.143-28.737 8.267-7.917 3.911-9.669 4.419-13.32 3.871-2.597-.39-4.454-.215-4.866.452-.367.593.724 4.095 2.433 7.788 1.778 3.842 3.014 8.024 2.88 9.77-.27 3.483.848 7.548 2.077 7.548.456 0 3.771 3.712 7.37 8.25 5.963 7.516 10.656 11.73 20.464 18.387 5.775 3.918 9.368 2.434 4.456-1.844-5.237-4.56-15.501-15.875-14.924-16.452.318-.318 3.531-.025 7.134.655 7.905 1.492 18.637.21 31.015-3.705 4.412-1.396 12.01-3.36 16.883-4.36 9.164-1.88 12.637-3.849 12.637-7.161 0-2.878-12.54-16.34-20.364-21.862-8.565-6.045-16.117-8.93-25.138-9.604m-7.89 6.101c12.052-1.612 24.657 1.92 33.894 10.019 4.86 4.26 2.99 4.51-4.547.617-9.7-5.01-26.147-6.53-38.458-3.557-12.336 2.978-13.55 1.232-2.606-3.733a41.7 41.7 0 0 1 11.717-3.346m164.623 1.733c1.067.266 3.287 1.662 6.596 4.175 6.979 5.3 13.947 9.468 21.175 12.664 3.025 1.338 5.997 2.795 6.605 3.235s2.147 5.183 3.417 10.544c4.047 17.072 12.336 32.477 23.252 43.208 3.033 2.982 5.287 6.008 5.011 6.728-1.408 3.669-6.565-.278-15.453-11.825-20.369-26.463-48.825-63.882-50.275-66.111-1.312-2.017-1.396-2.884-.328-2.618m-257.886.433a50.1 50.1 0 0 1 15.152 2.71c4.4 1.523 9.13 3.691 10.505 4.82l2.497 2.056-2.497-.47c-1.375-.26-5.062-1.422-8.19-2.572-3.13-1.15-8.755-2.365-12.501-2.71-5.731-.528-8.003-.226-14.314 1.908-4.125 1.395-8.315 2.86-9.321 3.254-1.552.607-1.783.274-1.503-2.175.286-2.514 1.043-3.13 5.83-4.765 4.341-1.484 9.272-2.169 14.342-2.056m171.72 1.936 2.47 2.802c2.762 3.14 2.964 4.836 1.348 11.253-2.05 8.143-3.901 5.08-3.854-6.387zm170.427.497c2.027 0 2.956 2.343 5.931 14.996 2.717 11.553 7.372 25.508 14.268 42.784 3.64 9.117 4.264 11.57 3.28 12.756-.67.807-2.625 1.444-4.346 1.42-8.75-.124-19.196-11.11-23.971-25.208-.326-.963-1.163-1.751-1.868-1.751s-3.99-1.293-7.29-2.876c-11.399-5.467-19.324-17.663-18.322-28.185.474-4.981 3.167-4.591 3.881.562.754 5.433 2.328 8.011 6.706 10.987 6.499 4.416 15.507 2.62 19.808-3.945 2.098-3.202 2.412-12.322.547-15.816-1.579-2.958-.912-5.724 1.376-5.724m-160.505 14c1.462 0 5.011 5.153 5.011 7.273 0 1.1-1.682 6.884-3.744 12.857s-4.069 10.864-4.456 10.867c-1.007.008-2.778-6.897-2.788-10.849-.006-4.068 4.762-20.147 5.977-20.147m-94.055 2.268c.918.444 1.795 1.774 2.122 3.742.787 4.733 2.317 7.315 5.285 8.903 3.94 2.109 9.422-1.085 12.464-7.262 1.638-3.326 2.72-4.53 3.426-3.825 1.647 1.647-.07 6.214-3.69 9.834-3.03 3.03-3.88 3.336-9.211 3.336-3.559 0-6.709-.573-7.982-1.465-2.642-1.85-5.615-9.106-4.792-11.696.498-1.57 1.46-2.01 2.378-1.567m-10.934 1.945c2.108-.239 2.78.4 4.255 4.018.963 2.362 1.75 4.626 1.75 5.033 0 1.398-2.532.734-5.777-1.512-4.08-2.825-4.212-7.088-.228-7.54m-65.382.387c4.271-1.64 1.645 7.338-3.235 11.06-4.21 3.21-11.576 4.116-15.498 1.899-3.195-1.806-6.241-7.853-5.358-10.637.935-2.946 2.616-1.883 4.164 2.636 1.675 4.89 3.674 6.443 8.282 6.443 4.787 0 7.719-2.246 9.139-6.986.644-2.152 1.777-4.135 2.506-4.415m111.194 1.862c4.314.947 4.79 2.184 1.476 3.87-5.383 2.74-7.29 2.975-7.29.922 0-3.612 2.358-5.551 5.814-4.792m-101.3 1.207c1.457-.482 3.097-.415 4.51.341 3.045 1.63 2.393 2.88-2.605 5.023-6.798 2.914-7.553 2.572-5.285-2.405.657-1.442 1.924-2.477 3.38-2.959m-40.126 2.332c1.426 0 4.62 4.12 4.62 5.963 0 1.304-1.975 1.282-4.255-.046-2.086-1.215-2.376-5.917-.365-5.917m210.671 4c1.526 0 5.07 5.425 4.547 6.959-.29.845-1.68 4.803-3.089 8.792-1.98 5.611-5.363 23.154-5.494 28.499-.01.412-.43.746-.93.746-1.162 0-5.083-11.564-5.083-14.986 0-5.636 8.162-30.01 10.05-30.01m9.12 13.208c1.905-.377 4.377 4.344 4.019 7.668-.155 1.44-.94 5.38-1.75 8.747-1.76 7.328-4.39 28.803-4.419 36.065-.01 2.855-.485 5.477-1.047 5.825-.573.354-2.164-1.927-3.618-5.19l-2.596-5.824 1.567-15.503c1.672-16.534 5.316-31.288 7.845-31.788m9.057 13.152c.606-.375 2.174.63 3.49 2.23 2.688 3.27 2.684 5.206-.082 22.24-2.503 15.415-2.928 28.54-1.258 39.171.821 5.225 1.125 9.876.666 10.342-.46.465-2.574-2.235-4.693-6-3.81-6.774-3.858-6.981-4.218-19.346-.525-17.992 3.085-46.777 6.095-48.637m10.369 15.751c.352-1.098.872-.997 2.515.489 3.813 3.45 4.046 4.912 2.833 17.484-1.227 12.723.016 45.958 2.15 57.503.571 3.085.84 5.81.593 6.056-.506.506-5.862-6.087-7.426-9.143-3.466-6.772-5.343-58.246-2.442-66.997.73-2.2 1.532-4.63 1.777-5.392m11.025 16.185c.818-1.917 2.099-1.107 4.2 1.585 2.605 3.338 2.647 3.64 2.806 20.507.157 16.609 3.956 51.55 6.414 59.006.526 1.595.957 3.515.957 4.258 0 3.798-5.973-2.059-8.938-8.765-3.675-8.31-7.492-42.598-6.879-61.789.263-8.232.622-12.885 1.44-14.802m-47.643 3.346c1.575 1.69 20.017 39.544 20.017 41.088 0 .592-1.31 1.532-2.915 2.092-3.727 1.3-5.053.221-7.763-6.323-1.139-2.75-4.432-10.173-7.317-16.498s-5.466-12.515-5.74-13.751c-.56-2.528 2.482-7.934 3.718-6.608m-133.781 9.502c-2.026-.113-3.364.426-5.248 1.54-2.344 1.384-3.312 1.47-5.449.497-4.061-1.85-8.611-1.386-13.439 1.373-3.17 1.812-5.58 2.452-8.464 2.24l-4.037-.295-.765 5.502c-.421 3.025-1.285 7.409-1.913 9.742-.89 3.3-.863 4.58.109 5.752 1.871 2.254 3.336 1.858 7.262-1.954 4.969-4.826 7.399-5.16 18.733-2.59l9.785 2.212 7.426-2.083c8.801-2.47 13.575-2.618 18.45-.58 8.324 3.477 9.945 1.24 7.981-11.024-1.699-10.61-2.639-11.8-6.432-8.166-3.46 3.315-4.718 3.322-14.605.184-4.655-1.477-7.369-2.237-9.394-2.35m194.9 3.862c2.08.01 6.05 6.407 6.987 11.253.452 2.332.85 7.618.875 11.743.105 16.965 6 48.613 11.99 64.37 1.594 4.19-.691 4.183-4.646-.01-4.536-4.81-5.665-7.557-9.312-22.645-4.238-17.535-5.95-29.972-6.67-48.471-.528-13.583-.398-16.246.775-16.24m-69.675.488c1.47 0 2.89 2.235 6.06 9.503 2.278 5.225 5.53 12.425 7.224 16 2.769 5.84 2.921 6.628 1.495 7.751-.873.688-2.118 1.254-2.77 1.254-2.226 0-5.838-6.717-10.906-20.305-3.94-10.561-4.216-14.203-1.103-14.203m-7.07 10.47c1.425 1.406 3.188 5.057 5.858 11.53 6.54 15.85 6.35 14.928 3.308 16.314-1.438.655-2.807 1.19-3.043 1.19-.973 0-3.668-5.141-7.49-14.287-3.925-9.393-4-9.788-2.46-12.765 1.315-2.543 2.402-3.387 3.827-1.981m91.14 9.18c.55-.196 2.627 1.995 4.61 4.876 3.393 4.929 3.645 5.838 4.228 15.364.645 10.54 2.883 21.543 9.658 47.457 2.206 8.437 4.009 15.517 4.009 15.743 0 1.081-2.141.192-4.4-1.834-2.753-2.469-10.555-24.46-12.51-35.255-.6-3.302-1.55-7.58-2.105-9.502-2.779-9.603-5.298-36.203-3.49-36.849m-102.138.858c1.62 0 9.91 17.378 9.449 19.806-.186.982-1.438 1.822-2.98 2-2.337.272-3.093-.455-6.186-6-5.55-9.947-5.956-11.496-3.626-13.825 1.09-1.09 2.598-1.981 3.343-1.981m-94.893 2.101c-1.106.018-2.886.638-5.604 1.871-5.304 2.407-14.498 2.643-21.448.544-11.532-3.483-11.218 2.932.346 7.06 11.046 3.942 28.245-.755 28.245-7.715 0-1.19-.434-1.778-1.54-1.76m85.327 10.47c1.361.795 2.847 2.671 4.482 5.632 1.733 3.136 2.91 5.944 2.615 6.24-.295.294-1.962.82-3.708 1.17-3.07.614-3.261.442-5.767-5.032-2.121-4.633-2.365-5.936-1.34-7.171 1.121-1.35 2.356-1.634 3.718-.839m60.544 1.429c1.483 0 4.665 3.572 4.665 5.235 0 2.155-30.005 13.192-49.757 18.304-17.09 4.424-31.95 7.01-51.241 8.913-8.525.841-16.855 1.686-18.505 1.88-1.65.195-4.082.082-5.403-.258-1.932-.497-.267-1.432 8.5-4.774 8.217-3.132 13.986-4.577 23.407-5.844 21.391-2.876 43.806-8.593 72.134-18.396 8.052-2.787 15.346-5.06 16.2-5.06m-220.547 4.092c2.046-1.078 2.672-.837 5.758 2.249 1.902 1.902 3.453 3.948 3.453 4.553s-.787 1.07-1.75 1.032c-2.76-.11-11.25-2.918-11.234-3.714.029-1.336 1.468-2.906 3.773-4.12m149.297 1.908c.52 0 1.709 1.6 2.642 3.558 1.476 3.094 1.51 3.674.237 4.479-2.857 1.807-4.828.784-6.268-3.263-.609-1.709 1.568-4.774 3.389-4.774m137.334 0c2.686 0 8.135 10.44 10.004 19.18 2.819 13.175 6.2 26.142 11.034 42.314 2.466 8.25 4.493 15.339 4.51 15.752.045 1.096-1.112.866-4.31-.867-2.954-1.601-6.766-8.83-8.118-15.383-.396-1.925-2.44-9.57-4.537-16.995s-4.336-15.98-4.975-19.005a3845 3845 0 0 0-3.098-14.424c-2.31-10.675-2.305-10.572-.51-10.572m-148.058 6.995c2.295 0 2.77 2.855.665 3.982-2.335 1.25-7.025 1.345-7.025.138 0-1.172 4.549-4.12 6.36-4.12m-150.865 2.498c0-2.197 6.255-1.455 16.838 2 9.707 3.17 18.67 7.492 18.67 9.014 0 .675-.214.637-12-2.544-13.702-3.697-23.508-7.228-23.508-8.47m247.071 3.733c1.253.351 2.485 1.46 3.973 3.41 1.996 2.618 2.508 4.06 1.83 5.134-1.45 2.299-18.59 9.621-36.736 15.696-16.58 5.55-34.92 10.268-48.636 12.516-4.125.677-8.846 1.596-10.496 2.037s-6.823 1.08-11.498 1.42-11.206 1.038-14.506 1.557c-18.164 2.861-58.27 1.19-85.928-3.585-21.49-3.71-47.037-10.671-60.07-16.369-2.2-.962-4.787-2.03-5.75-2.369-2.528-.89-2.184-2.231 1.65-6.415l3.398-3.714 13.849 4.627c20.877 6.967 23.755 7.68 46.85 11.696 59.073 10.274 113.707 6.534 165.506-11.327 14.15-4.88 29.534-11.11 32.473-13.162 1.567-1.093 2.838-1.503 4.091-1.152m70.621 14.185c.425-1.236 2.327 1.002 5.968 5.926 3.802 5.142 5.167 8.21 7.426 16.728 1.521 5.738 5.387 17.031 8.592 25.098s5.822 14.932 5.822 15.253c0 1.282-2.713.393-6.706-2.193-2.62-1.698-4.989-4.357-6.287-7.051-2.508-5.208-7.725-22.21-11.926-38.867-2.258-8.951-3.313-13.659-2.889-14.894m-64.799 1.907c.885.34 2.355 2.317 3.262 4.397s3.172 7.058 5.038 11.06 3.124 7.715 2.788 8.258c-.335.544-2.492 1.95-4.792 3.125-5.723 2.921-22.903 8.62-24.427 8.101-1.232-.419-8.255-21.068-8.255-24.268 0-2.858 22.76-12.064 26.386-10.673m-493.239 2.176c6.106-.911 14.733 1.584 19.28 5.576 7.776 6.828 9.931 18.935 5.074 28.507-1.372 2.706-2.505 5.308-2.505 5.779-.002.47 1.355 2.56 3.007 4.645 7.92 10 9.274 20.835 3.744 29.927-1.787 2.94-5.193 6.729-7.562 8.424-3.605 2.58-5.442 3.154-11.289 3.484-6.278.355-7.652.064-13.53-2.83l-6.542-3.216-2.66 2.544c-1.466 1.403-4.696 3.45-7.171 4.544-13.317 5.882-27.094 1.539-32.591-10.268-3.077-6.609-3.195-14.565-.31-21.088l2.096-4.737-3.043-3.143c-11.822-12.239-8.552-33.357 6.232-40.24 7.472-3.48 14.58-3.26 22.486.69l6.187 3.088 4.054-4.175c4.526-4.663 8.176-6.487 15.043-7.511m216.247 9.917c5.84 1.146 7.443 6.835 3.143 11.134-1.35 1.35-3.17 2.451-4.045 2.451-2.207 0-6.496-4.505-6.496-6.82 0-1.05.969-3.134 2.15-4.636 1.784-2.268 2.67-2.635 5.248-2.13m-202.762.885c-.744-.744-3.976 2.445-13.34 13.18l-4.2 4.82-6.323-.59c-5.015-.468-7.22-.195-10.66 1.346-2.385 1.067-4.971 1.944-5.758 1.944-2.161 0-8.216-3.353-14.287-7.917-6.001-4.511-6.854-4.793-7.717-2.544-.829 2.16 1.75 4.68 11.325 11.051l8.328 5.54v4.488c0 2.472.493 6.48 1.103 8.904 1.043 4.145.923 4.71-2.114 9.686-1.775 2.909-4.745 7.164-6.606 9.457-1.86 2.292-3.39 4.881-3.39 5.751 0 3.02 2.917 1.555 7.199-3.622 2.368-2.863 6.141-7.12 8.391-9.466 3.974-4.145 4.234-4.253 9.02-3.687 2.71.321 6.67.1 8.802-.488 4.676-1.291 5.658-.862 14.705 6.48 3.637 2.95 7.345 5.364 8.246 5.364 2.733 0 1.837-2.705-1.613-4.876-1.787-1.125-5.607-4.493-8.491-7.484-5.12-5.309-5.229-5.547-4.62-9.991.419-3.056.08-6.233-1.038-9.65-1.631-4.986-1.62-5.157.564-8.295 1.227-1.762 3.845-5.072 5.822-7.355 4.448-5.137 7.692-11.006 6.652-12.046m222.415 1.778c1.572-.14 3.816.297 7.025 1.282 13.286 4.075 16.048 5.092 16.993 6.23 1.128 1.36-2.598 22.844-4.365 25.162-1.26 1.652-4.04 1.468-10.706-.7a483 483 0 0 0-11.307-3.494c-3.194-.935-6.056-2.344-6.36-3.133-.509-1.327 3.598-18.012 5.704-23.171.538-1.318 1.445-2.036 3.016-2.176m219.072 4.922c7 0 10.422 7.264 5.567 11.825-4.939 4.64-13.686 1.07-13.686-5.585 0-3.029 4.175-6.24 8.119-6.24m-19.608 1.134c.721.75 2.72 6.506 4.447 12.783 2.56 9.311 2.9 11.636 1.84 12.618-.715.663-6.476 2.61-12.801 4.332-6.325 1.723-12.037 3.134-12.692 3.134-1.816-.002-2.262-1.244-3.29-9.18-.52-4.026-1.351-9.45-1.85-12.056-.621-3.255-.558-5.22.21-6.267.616-.838 6.005-2.689 11.973-4.12 9.146-2.193 11.058-2.394 12.163-1.244m82.73.663c1.316-.548 4.4 1.635 12.501 8.84 5.915 5.26 10.892 10.157 11.061 10.884.189.81-3.966 3.485-10.733 6.904-6.074 3.069-11.655 5.576-12.4 5.576-1.17 0-4.199-6.166-10.387-21.162-.831-2.015-1.203-4.16-.83-4.765.635-1.026 6.806-4.617 10.789-6.277m61.994 6.987c.306-.92 5.553 5.524 12.974 15.917 15.156 21.225 19.76 27.987 19.772 29.051.02 1.84-1.841 1.531-7.982-1.327-7.266-3.382-8.63-4.74-12.491-12.424-4.326-8.61-12.704-29.924-12.273-31.217m-286.012.34c2.303-.86 20.833 1.337 23.771 2.821 1.883.951 2.335 7.639 1.285 19.06l-.784 8.498-5.002.175c-6.1.216-23-2.75-24.537-4.304-.819-.829-.665-4.006.593-12 2.173-13.82 1.993-13.248 4.674-14.25m83.25 1.374.701 4.507c1.221 7.757 2.337 20.402 2.004 22.747a3.24 3.24 0 0 1-2.505 2.719c-2.66.575-21.77 1.148-23.954.719-1.902-.374-2.538-4.198-2.933-17.669-.288-9.792-.24-10.003 2.214-11.152 1.374-.644 7.442-1.328 13.484-1.52zm-104.425.507c2.832 0 7.578 2.59 8.328 4.544 1.204 3.138.597 6.398-1.567 8.415-4.704 4.382-12.81.874-12.81-5.54 0-3.895 2.876-7.419 6.05-7.419m-79.514.157c.997-1.103 3.56-.397 14.587 4.027 16.2 6.501 15.872 6.313 15.872 9.512 0 3.354-5.759 21.997-7.717 24.987-.85 1.296-2.447 2.271-3.645 2.22-1.931-.08-25.373-9.367-28.381-11.244-.688-.428-1.258-1.738-1.258-2.903 0-2.495 8.783-24.655 10.542-26.6m203.728 3.041c6.85.513 9.622 6.544 5.53 12.037-.71.955-2.65 1.953-4.3 2.222-7.802 1.268-12.178-5.781-7.38-11.88 1.77-2.252 2.768-2.632 6.15-2.379m-62.166 2.802c5.761-.007 10.833 6.467 5.858 11.807-2.628 2.82-7.818 2.878-11.325.12-3.334-2.623-3.405-6.252-.182-9.475 1.725-1.726 3.728-2.45 5.649-2.452m160.376 2.138c1.712-.184 3.585.252 5.367 1.576 3.456 2.569 3.974 7.033 1.166 10.047-2.82 3.027-7.951 2.984-10.833-.083-4.526-4.818-.834-10.987 4.3-11.54m-21.757.037c2.96.57 11.34 20.197 11.298 26.462-.017 2.435.544 2.172-15.608 7.428-13.679 4.452-14.967 4.626-16.273 2.185-1.697-3.175-7.417-26.077-6.87-27.503.606-1.579 24.7-9.102 27.453-8.572m-210.489 14.056c2.9.887 8.866 2.37 13.266 3.3s8.53 2.204 9.175 2.829c.897.867.66 4.322-1.002 14.636l-2.178 13.503-3.49.156c-3.035.138-12.007-1.577-25.247-4.82-4.634-1.135-4.682-1.785-1.148-17.07 3.279-14.18 3.687-14.656 10.624-12.534m295.342.765c1.908 0 10.432 5.731 10.432 7.014 0 .504-.876 1.384-1.94 1.954-3.965 2.121-5.393 1.332-8.437-4.664-2.01-3.957-2.013-4.304-.055-4.304m-396.76 1.29c2.193-1.52 2.698-1.397 9.995 2.332 7.097 3.626 7.681 4.157 7.545 6.903-.082 1.637-1.97 6.912-4.2 11.724-4.557 9.828-5.098 10.108-13.148 6.784-7.21-2.978-17.392-8.693-17.831-10.01-.383-1.15 12.728-14.33 17.64-17.733m76.563.12c2.108-.809 6.623 3.905 6.623 6.913 0 1.325-.928 3.592-2.068 5.041-4.293 5.458-13.931 2.308-13.931-4.553 0-3.233 3.113-6.811 5.922-6.811 1.055 0 2.608-.266 3.454-.59m305.009.018c1.725.119 3.474 1.055 5.366 2.82 3.753 3.503 2.621 8.895-2.432 11.586-3.39 1.806-5.816 1.393-8.684-1.475-3.658-3.658-3.468-7.475.529-10.838 1.797-1.513 3.495-2.211 5.22-2.093m-129.918 1.54c1.616 1.34 3.274 7.72 5.075 19.53 1.198 7.854 1.185 9.15-.1 10.13-.81.617-6.532 1.836-12.71 2.709-17.213 2.432-17.793 2.455-19.28.968-1.713-1.713-2.219-5.006-2.843-18.535-.307-6.664-.115-10.96.51-11.346.554-.342 5.144-.975 10.196-1.41s11.133-1.32 13.512-1.963c3.128-.846 4.69-.871 5.64-.083m104.816.59c.849.325 2.53 3.145 3.736 6.267a870 870 0 0 0 4.792 12.046l2.597 6.378-2.214 1.797c-1.22.988-8.097 4.083-15.28 6.876-13.398 5.21-13.577 5.256-15.598 4.433-2.252-.917-9.07-21.955-8.009-24.719.303-.789 2.272-1.99 4.373-2.664s8.374-3.429 13.94-6.12c5.567-2.69 10.815-4.62 11.663-4.295m-83.897 1.548c2.371.52 4.494 2.191 5.595 4.848 1.067 2.577 1.01 3.418-.41 5.585-.92 1.403-2.81 2.977-4.191 3.503-3.529 1.341-3.85 1.27-7.299-1.632-3.774-3.175-4.071-7.133-.765-10.24 2.084-1.957 4.7-2.585 7.07-2.064m-115.767 4.71c.886-1.434 28.77-.983 30.796.497 1.606 1.175 1.755 2.743 1.44 15.033-.28 10.835-.666 13.925-1.85 14.673-1.77 1.118-4.73 1.06-19.717-.415-6.166-.606-11.7-1.597-12.3-2.203-.787-.795-.78-4.672.018-13.935.608-7.058 1.335-13.2 1.612-13.65m257.73 1.493c1.982.132 3.773 1.172 6.15 3.18 2.956 2.495 2.973 2.556 1.003 4.101-14.027 10.995-56.768 32.058-86.002 42.379-13.003 4.59-37.395 11.774-46.003 13.548-4.4.907-9.347 2.045-10.997 2.535-8.17 2.423-50.793 8.7-64.161 9.447-19.46 1.086-23.157 1.119-45.338.406-28.976-.932-37.988-1.756-60.5-5.512-46.938-7.832-96.476-24.396-130.655-43.697-9.495-5.362-9.692-5.758-5.293-10.627 2.023-2.24 4.357-4.073 5.184-4.073.826 0 4.037 1.535 7.134 3.4 17.892 10.78 42.686 21.287 69.628 29.513 54.352 16.594 108.132 21.81 171.848 16.663 29.912-2.416 69.603-10.53 98.156-20.064 17.248-5.76 51.357-20.172 57.501-24.296 1.375-.923 4.125-2.425 6.114-3.336 1.988-.912 5.813-3.167 8.5-5.014s7.386-4.669 10.442-6.268c3.135-1.64 5.307-2.418 7.29-2.285m-274.996 3.76c1.839.074 3.684.878 5.193 2.387 3.052 3.052 3.11 5.704.2 8.904-2.77 3.047-5.614 3.907-8.245 2.479-4.927-2.675-6.038-8.329-2.314-11.797 1.49-1.39 3.326-2.047 5.166-1.973m65.573.968c2.049-.162 4.155.334 5.85 1.52 3.123 2.188 3.074 8.3-.091 11.273-3.439 3.23-7.927 2.865-11.098-.903-3.236-3.847-3.265-6.338-.127-9.475 1.435-1.436 3.418-2.253 5.466-2.415m-176.239 6.037c1.909-.083 3.87.58 5.676 2 3.114 2.45 3.501 6.706.884 9.705-3.069 3.517-9.065 3.554-11.954.074-2.61-3.145-2.585-6.65.064-9.3 1.567-1.566 3.422-2.396 5.33-2.48m23.726.442c1.115-.705 3.782-.205 9.33 1.751 4.27 1.506 11.136 3.582 15.261 4.618 5.324 1.337 7.592 2.384 7.836 3.604.308 1.545-1.924 13.103-3.772 19.512-.596 2.068-1.402 2.53-4.647 2.691-2.157.107-5.048-.174-6.423-.627-1.375-.452-7.218-2.29-12.993-4.083s-11.053-3.76-11.726-4.378c-.957-.876-.48-3.416 2.177-11.613 1.871-5.77 4.099-10.932 4.957-11.475m239.18 4.065c1.837.461 2.422 2.046 2.87 5.032.375 2.503 1.318 6.338 2.087 8.517 2.255 6.394 2.871 13.286 1.302 14.544-.743.595-6.304 2.24-12.354 3.659s-13.312 2.882-16.146 3.244c-6.081.777-6.403.409-8.273-9.576-.669-3.575-1.63-8.385-2.14-10.683s-.678-4.844-.365-5.659 3.574-2.256 7.252-3.207a1063 1063 0 0 0 15.417-4.157c5.426-1.51 8.513-2.176 10.35-1.714m25.21 4.544c5.245 1.94 4.97 10.292-.418 12.747-2.837 1.292-3.15 1.298-5.922.175-4.212-1.707-6.482-7.272-4.228-10.35 1.63-2.227 7.586-3.676 10.569-2.572m-567.805 6.728 9.257.654c29.852 2.127 43.61 5.608 53.493 13.53 3.437 2.756 6.25 5.455 6.25 5.991 0 1.23-3.684 1.284-4.437.065-1.216-1.967-16.322-7.35-25.758-9.18-10.113-1.96-11.799-1.88-11.799.572 0 1.369 1.458 1.773 18.496 5.078 8.243 1.599 10.64 2.758 8.947 4.313-1.034.95-15.514 1.899-21.949 1.438-7.306-.523-14.947-2.515-19.234-5.014-5.726-3.338-13.266-11.858-13.266-14.986zm72.7.507c.733-.302 1.447.886 1.858 3.078.708 3.778 2.442 4.91 2.442 1.595 0-3.797 4.542-4.478 8.255-1.244 2.376 2.07 2.341 13.299-.055 18.212-1.833 3.758-5.105 5.022-7.016 2.719-.626-.755-1.458-4.709-1.85-8.793-.676-7.055-.762-7.252-1.694-3.926-.54 1.925-1.087 3.643-1.221 3.825-.788 1.067-13.412-8.605-13.412-10.277 0-.706 2.587-2.049 5.75-2.986s6.286-1.933 6.942-2.203m299.605.313c1.854-.258 4.98.079 10.387.857 5.398.778 12.4 1.679 15.562 2.01l5.75.608v10.36c0 5.7-.44 11.52-.976 12.93-.85 2.237-1.521 2.541-5.248 2.425-6.648-.208-29.071-3.751-30.076-4.756-.786-.786.421-15.091 1.831-21.742.335-1.58.917-2.433 2.77-2.692m102.12 2.415c.248.249.771 6.13 1.157 13.07.653 11.752.576 12.686-1.185 13.603-1.04.542-8.948 1.307-17.566 1.696-19.009.859-18.024 1.683-17.612-14.7l.282-11.254 3.007-.277c1.65-.148 4.797-.683 6.997-1.189 4.205-.966 24.143-1.726 24.92-.949m-127.832 2.562c2.191-1 5.178-.822 8.337.811 4.331 2.24 4.802 8.033.92 11.254-5.297 4.396-12.847.975-12.847-5.816 0-3.075 1.4-5.249 3.59-6.249m147.494 1.346c3.31 0 6.769 2.22 7.972 5.124.985 2.378.895 3.303-.492 5.42-.92 1.403-2.8 2.977-4.182 3.502-3.62 1.376-4.79 1.209-7.745-1.115-1.91-1.503-2.633-2.995-2.633-5.429 0-3.631 3.647-7.502 7.08-7.502m-349.208.442c1.208 1.209 1.16 2.017-.31 5.733-.941 2.38-2.337 5.303-3.107 6.498-2.141 3.324-15.706 13.157-20.473 14.839-2.33.822-6.765 1.478-9.859 1.456-5.92-.042-12.047-2.44-10.414-4.074.512-.512 5.174-2.092 10.36-3.511 12.425-3.4 20.928-7.513 20.928-10.12 0-1.83-1.124-1.632-12.573 2.24-5.693 1.925-11.039 3.502-11.881 3.502s-4.678 1.403-8.528 3.124c-5.69 2.545-7.283 2.903-8.492 1.899-2.357-1.956-.264-4.51 7.016-8.58 7.19-4.022 6.254-3.712 29.438-9.964 14.162-3.82 16.687-4.25 17.895-3.042m277.301 6.6c2.895.596 5.491 2.38 5.85 4.958.5 3.594-.23 5.155-3.28 7.014-4.138 2.523-7.22 2.521-9.75-.01-2.392-2.392-2.582-6.715-.437-9.778 1.533-2.188 4.722-2.781 7.617-2.184m-363.959 12.968c10.063.01 16.267 3.28 9.704 5.115-4.286 1.198-12.476.924-14.396-.48-3.404-2.489-1.222-4.641 4.692-4.635m531.48 2.359c.304.304-1.195 1.577-3.326 2.83-30.167 17.728-50.298 36.255-70.932 65.245-14.174 19.915-23.402 41.174-30.404 70.056-6.071 25.046-6.541 28.833-6.505 53.006.035 23.86 1.012 33.003 5.548 52.148 4.004 16.895 7.818 27.927 13.394 38.766 3.029 5.887 3.209 9.144.592 10.544-1.064.57-2.218 1.042-2.56 1.042-1.17 0-9.7-19.733-14.05-32.499-2.218-6.51-7.24-27.87-8.646-36.756-2.01-12.71-1.702-54.524.5-67.743 4.629-27.767 13.654-53.527 26.442-75.476 4.307-7.393 8.828-14.272 17.676-26.886 5.47-7.8 19.018-22.06 29.43-30.977 16.425-14.068 21.204-17.127 32.262-20.655 5.514-1.759 10.274-2.95 10.578-2.645m-545.593 2.415c.353.396.923 2.636 1.275 4.977l.647 4.258-3.225-.258c-2.36-.187-3.323.195-3.58 1.438-.245 1.176 1.664 2.996 6.213 5.917 3.61 2.318 6.57 4.551 6.57 4.968s-1.586 1.737-3.518 2.93c-4.287 2.65-5.66 4.932-4.355 7.263 1.388 2.48 3.098 2.142 6.37-1.271 2.2-2.297 3.758-3.005 6.65-3.005 6.226 0 7.49 5.983 1.895 8.977-2.285 1.223-7.346 1.194-11.726-.074-4.109-1.189-13.68-9.94-16.929-15.484-5.204-8.88-5.177-13.54.082-16.986 3.047-1.997 12.78-4.604 13.63-3.65m40.308.82c3.372.793 8.367 2.871 16.437 6.58 16.34 7.512 21.655 12.063 24.41 20.904.956 3.074 1.74 7.38 1.74 9.567 0 3.813-.632 4.6-15.28 18.913-8.407 8.214-19.323 18.707-24.255 23.319a1542 1542 0 0 0-18.076 17.253c-5.014 4.877-9.518 8.843-10.005 8.82-1.472-.066-12.76-5.995-14.632-7.686-2.376-2.146-2.233-2.958 1.239-6.913 1.692-1.926 3.26-5.082 3.608-7.262q.616-3.856 3.973-7.024c3.726-3.515 5.633-8.8 4.756-13.189-.317-1.584-.13-3.44.41-4.129 1.56-1.989 4.264-10.84 4.264-13.954 0-2.58 4.805-12.985 7.024-15.217 1.746-1.755 2.254 2.568.948 8.01-.716 2.981-1.028 5.682-.701 6.009.326.327 2.236-1.041 4.245-3.05s4.123-3.5 4.693-3.31 1.181 3.25 1.357 6.802c.747 15.095 4.975 29.918 7.016 24.6.361-.942.178-3.608-.41-5.927s-1.32-5.789-1.622-7.714c-.584-3.721 1.417-15.398 3.544-20.673 1.607-3.983.511-5.528-5.977-8.397-2.54-1.123-5.74-3.094-7.116-4.387-1.374-1.293-5.426-3.69-9.001-5.318-6.78-3.087-12.703-8.288-11.553-10.148.382-.62 3.87-1.078 8.172-1.078 7.71 0 10.247-.772 14.086-4.267 1.581-1.44 3.334-1.927 6.706-1.134m518.924.221c2.313 2.557 2.172 2.877-2.323 5.17-4.696 2.396-22.723 14.094-28.656 18.591-19.17 14.534-38.322 34.812-50.476 53.448-19.377 29.711-30.303 65.654-31.607 103.993-.974 28.628 4.585 59.994 14.724 83.024 5.317 12.077 5.486 12.67 4 14.461-.682.822-1.871 1.493-2.642 1.493-3.123 0-12.417-25.31-17.804-48.498-3.677-15.83-4.49-23.735-4.52-44.001-.05-34.374 7.19-64.51 22.907-95.301 12.765-25.01 27.48-43.846 49.528-63.43 10.14-9.006 26.542-20.548 38.623-27.17 6.35-3.482 6.648-3.546 8.246-1.78m7.344 8.176c1.85 0 4.062 1.818 5.658 4.645.403.714-3.578 3.48-10.597 7.355-17.68 9.76-31.823 20.243-45.192 33.503-30.07 29.823-47.214 63.187-54.093 105.264-2.453 15-2.213 48.697.437 61.734 2.795 13.75 4.597 20.345 8.756 32 4.602 12.898 4.925 14.784 2.87 16.84-3.615 3.615-5.072 1.895-10.059-11.88-8.715-24.076-11.594-40.088-12.027-66.96-.279-17.326.013-23.181 1.659-33.494 3.235-20.281 7.018-33.066 15.498-52.351 10.816-24.601 33.217-53.616 53.911-69.836 16.529-12.954 38.848-26.82 43.179-26.82m-61.684.912c0 .364-1.239 1.417-2.751 2.341-7.661 4.678-29.311 28.449-38.933 42.747-10.233 15.208-19.589 33.217-27.024 52.001-10.626 26.848-14.457 47.772-14.833 81.006-.27 23.835.48 32.488 4.146 47.992 4.481 18.95 9.231 33.327 17.12 51.78 3.416 7.992 3.473 8.344 1.749 10.249-3.287 3.632-4.977 2.483-9.23-6.277-7.209-14.85-17.088-45.23-19.27-59.245-.6-3.85-1.556-9.25-2.123-12-.566-2.75-1.107-13.328-1.194-23.503-.492-57.469 13.892-103.723 46.568-149.735 6.454-9.089 25.066-29.909 29.648-33.172 2.868-2.042 16.127-5.482 16.127-4.184m-270.359 7.088c.772 0 4.209 1.14 7.636 2.534 3.426 1.394 8.927 3.219 12.227 4.056s10.194 2.91 15.325 4.608c7.388 2.444 9.227 3.428 8.81 4.7-.288.885-1.284 3.738-2.204 6.35-.92 2.613-2.175 4.692-2.797 4.619-7.392-.867-43.66-12.761-44.345-14.544-.764-1.992 3.72-12.323 5.348-12.323m93.1 3.023c1.458.316 2.259 1.086 2.259 2.267 0 .652-2.063 5.8-4.583 11.447-6.907 15.475-4.708 14.698 2.843-1.004 6.38-13.267 8.385-15.657 10.432-12.48.443.688.811 2.6.811 4.25.003 2.609.397 3.04 3.043 3.299 2.623.257 3.27-.195 4.729-3.254 1.797-3.769 4.57-4.648 6.67-2.12.942 1.136-.131 4.543-5.258 16.747-3.54 8.428-7.357 17.805-8.482 20.83a4074 4074 0 0 1-4.492 12c-1.346 3.575-5.026 14.376-8.173 24-3.147 9.626-6.118 18.515-6.606 19.752-.658 1.67-1.7 2.25-4.036 2.25-3.105 0-3.143-.064-2.524-3.936 1.194-7.47-5.849-10.032-7.854-2.858-1.277 4.571-2.856 6.253-5.075 5.401-2.8-1.074-1.584-6.65 7.708-35.115 2.155-6.6 4.318-13.346 4.802-14.996s2.052-6.143 3.49-9.982c3.025-8.075 1.964-7.693-1.33.48-1.22 3.024-2.625 6.402-3.126 7.502-2.007 4.412-11.98 32.459-13.976 39.31-2.698 9.255-4.867 11.618-9.85 10.71-2.01-.368-4.278-1.261-5.03-1.992-1.42-1.382-1.497-1.31 6.616-6.212 2.93-1.77 2.842-3.86-.365-8.488-1.44-2.078-2.362-4.441-2.05-5.254s2.81-2.435 5.549-3.613c2.738-1.178 5.207-2.74 5.485-3.465s-.807-3.04-2.406-5.153c-1.598-2.111-2.918-4.398-2.933-5.078-.016-.68 2.677-2.602 5.977-4.267 6.667-3.366 7.103-4.48 3.817-9.798-2.458-3.978-2.823-3.374 5.103-8.488 1.882-1.215 3.59-2.729 3.799-3.364.208-.636-1.03-2.768-2.752-4.729-1.72-1.96-2.834-4.031-2.478-4.608.357-.577 2.885-2.18 5.622-3.567s5.225-3.178 5.53-3.972c.305-.795-.61-2.835-2.04-4.535-4.038-4.798-3.573-5.508 4.929-7.484 2.628-.611 4.745-.75 6.204-.433m-350.466.986c.675.005 4.054 3.137 7.508 6.959s8.235 8.358 10.624 10.074l4.346 3.115-3.126 4.866c-4.158 6.477-5.793 6.39-13.21-.7-8.934-8.539-12.326-16.75-9.012-21.807.907-1.384 2.195-2.512 2.87-2.507m383.621.83c1.8-1.266 3.64-.231 6.898 2.129 5.93 4.295 5.627 6.515-1.294 9.576-3.025 1.338-5.494 2.918-5.494 3.511 0 .594 1.195 2.651 2.66 4.572 2.615 3.429 2.626 3.524.747 5.272-1.052.98-3.847 2.326-6.214 2.995-2.366.67-4.55 1.875-4.856 2.673-.32.836 1.003 3.181 3.125 5.53 3.464 3.835 3.591 4.186 2.041 5.899-.907 1.003-2.856 2.108-4.328 2.452-5.076 1.184-8.182 2.802-8.182 4.267 0 .808 1.583 3.309 3.508 5.558 5.12 5.982 4.718 7.09-3.526 9.742-3.863 1.242-7.269 2.653-7.571 3.143-.303.49 1.276 3.084 3.517 5.76s4.072 5.386 4.072 6.028-2.461 2.297-5.476 3.677c-3.014 1.38-5.749 2.944-6.077 3.475s.776 2.525 2.451 4.433c3.34 3.804 3.22 5.974-.373 6.876a93 93 0 0 0-3.681 1.005c-2.574.791-7.836-1.397-7.836-3.254 0-8.231 16.707-56.028 29.238-83.651 3.1-6.833 4.852-10.403 6.651-11.669m-234.487 8.166c-1.235 0-3.46 1.44-5.075 3.28-1.584 1.804-8.656 8.586-15.708 15.08-7.053 6.492-14.699 13.681-17.002 15.972-2.303 2.29-10.497 10.243-18.204 17.668a37816 37816 0 0 0-24.965 24.075c-6.023 5.814-18.221 17.373-27.106 25.687s-18.789 17.733-22.004 20.93c-3.215 3.2-12.977 12.785-21.703 21.3-8.726 8.517-16.269 16.527-16.756 17.808-.486 1.28-.905 14.783-.93 30.01l-.045 27.686 50.295 49.734c27.661 27.354 50.776 49.744 51.36 49.752.605.009 1.615-4.608 2.35-10.737 3.027-25.21 14.357-66.85 25.785-94.749 12.556-30.651 26.31-55.368 45.575-81.918 9.824-13.54 9.84-13.578 5.585-13.586-4.095-.008-7.966-2.452-12.929-8.166-2.67-3.074-3.884-3.895-4.19-2.83-3.327 11.532-5.645 16.984-8.638 20.305-5.892 6.537-8.88 6.95-11.635 1.622-1.783-3.447-1.922-14.18-.265-20.378.66-2.465.966-4.713.684-4.995s-3.856.9-7.945 2.627c-9.606 4.053-19.26 4.608-19.754 1.142-.61-4.283 5.643-11.829 15.599-18.848 2.317-1.633 4.1-3.615 3.963-4.396-.148-.857-2.433-1.853-5.749-2.516-7.945-1.59-15.42-5.53-15.817-8.332-.513-3.611 5.311-5.572 17.074-5.752 5.365-.082 9.986-.39 10.278-.682s-.602-4.462-1.995-9.272c-3.086-10.648-3.217-14.599-.538-17.023 1.797-1.626 2.423-1.677 6.023-.489 3.729 1.231 10.574 7.509 13.676 12.544 1.569 2.548 2.871.77 3.754-5.115.985-6.57 9.084-17.438 12.992-17.438.646 0 2.003.605 3.016 1.346 2.622 1.917 3.709 15.182 1.85 22.544-.75 2.966-1.157 5.589-.912 5.834.246.245 1.716-.483 3.272-1.622 6.96-5.095 23.616-8.11 24.992-4.525 1.01 2.632-1.587 9.33-5.148 13.272-1.85 2.048-6.079 5.284-9.403 7.189s-5.922 3.88-5.767 4.396 2.505 1.465 5.22 2.11c9.39 2.233 13.973 5.39 13.257 9.125-.572 2.987-9.988 5.573-18.077 4.959-3.712-.282-6.738-.205-6.724.175s1.123 3.993 2.46 8.028c1.516 4.573 2.213 8.432 1.85 10.249-.32 1.603-.17 2.922.328 2.922s3.796-3.49 7.335-7.752c3.538-4.262 13.983-15.428 23.215-24.811 9.233-9.383 16.792-17.805 16.792-18.71 0-4.601-10.394-18.748-24.937-33.955-16.756-17.52-33.407-30.774-38.66-30.774m208.948 6.212c-.584.235-.962 1.056-1.831 2.737-2.048 3.961-1.925 4.952.729 6.019 3.254 1.308 3.479 1.259 5.193-1.19 2.28-3.254 1.916-5.688-1.011-6.801-1.7-.647-2.495-1-3.08-.765m115.896 4.24c4.668-.784 4.752.187.5 5.87-1.787 2.39-4.18 5.64-5.32 7.217-2.062 2.851-2.16 2.873-16.5 3.687-7.935.45-18.539 1.078-23.562 1.392-6.48.404-9.35.219-9.868-.618-.4-.649.473-4.002 1.94-7.456l2.67-6.277 12.2-.599c13.399-.65 32.077-2.233 37.94-3.217m-480.046 2.543c.624 0 4.098 2.848 7.717 6.323 3.62 3.475 8.496 7.381 10.833 8.682 4.51 2.51 5.176 3.981 2.743 6-.825.685-1.494 1.789-1.494 2.461s-.826 1.975-1.832 2.885c-1.005.91-2.018 1.603-2.25 1.548-3.264-.772-5.835-2.166-11.417-6.193-7.498-5.411-9.969-9.576-8.573-14.443 1.235-4.308 2.969-7.263 4.273-7.263m35.58 1.936c2.323-.808 4.76-.17 6.004 2.368 1.184 2.417 1.158 3.13-.155 5.134-1.672 2.552-6.157 3.654-9.63 2.369-1.813-.67-2.098-1.311-1.55-3.558.793-3.245 3.007-5.505 5.33-6.313m327.832 10.507c-.836-2.18-6.34-1.819-7.58.497-1.409 2.633-1.3 5.78.218 6.415 3.846 1.609 8.835-3.075 7.362-6.912m262.45.756c-1.534-.255-1.927.627-2.487 5.502-1.4 12.194-6.855 38.391-10.988 52.803-15.216 53.062-34.664 93.387-65.61 136.002-11.693 16.102-19.148 24.68-38.805 44.683l-15.416 15.687 2.523 4.507c9.848 17.62 34.831 43.805 55.716 58.388 6.387 4.46 8.785 4.196 14.623-1.622 2.68-2.672 19.5-18.95 37.375-36.176s38.63-37.364 46.112-44.747c7.483-7.384 14.075-13.718 14.651-14.074 1.053-.653 53.55-51.37 62.595-60.471l4.847-4.876-.428-26.655c-.347-21.71-.713-27.209-1.996-29.66-2.808-5.363-99.403-98.742-102.711-99.291m-592.925 6.802c4.684 0 6.477 5.75 2.633 8.442-3.744 2.623-9.776 1.736-9.776-1.438 0-1.828 5.279-7.004 7.143-7.004m-34.987 7.004c1.185 0 3.575 1.081 5.312 2.406s4.824 3.107 6.851 3.954c2.713 1.133 3.695 2.141 3.718 3.834.017 1.266.687 3.181 1.494 4.249.808 1.068 1.467 2.302 1.467 2.746 0 1.525-6.493.711-10.733-1.345-5.991-2.906-10.26-8.056-10.26-12.378 0-2.882.358-3.466 2.15-3.466m355.886 1.715c-2.58-.675-3.935.446-4.983 4.101-.694 2.42-.56 3.54.583 4.682 2.468 2.468 4.645 1.505 6.268-2.765 1.245-3.274.593-5.375-1.868-6.018M1264.017 52.7c4.085.766 5.437 2.658 3.535 4.95-1.87 2.254-4.604 1.792-6.942-1.18-2.646-3.364-1.452-4.682 3.407-3.77m323.369 9.198c-1.419-.955-3.414-.736-5.048 1.281q-3.483 4.3 1.13 6.6c3.031 1.511 4.757.844 5.503-2.13.67-2.667-.167-4.795-1.585-5.75m294.75.406c1.315-.7 3.678-.473 7.425.498 7.221 1.87 11.45 4.604 17.968 11.613l5.375 5.779-2.123 3.788c-6.039 10.744-2.38 23.065 8.483 28.544 4.526 2.283 9.186 2.003 14.879-.885 2.705-1.373 5.642-2.496 6.523-2.498 2.09-.005 20.172 18.685 19.617 20.277-.273.784-2.431 1.18-6.05 1.106-4.773-.097-6.461-.687-11.098-3.88-3.007-2.071-6.465-4.835-7.69-6.138-3.296-3.509-4.528-2.943-5.166 2.378-1.315 10.983-12.634 32.47-18.231 34.618-2.74 1.051-3.24.763-4.383-2.516-1.53-4.39-1.305-27.235.328-33.347.735-2.75 1.154-5.193.939-5.428-.216-.236-2.967.73-6.123 2.147-13.607 6.11-19.108 7.3-27.744 6.01-7.303-1.092-7.193-3.34.547-11.614 6.554-7.006 13.534-11.578 22.15-14.498 6.772-2.295 7.423-4.721 2.077-7.76-9.704-5.515-17.58-15.18-18.852-23.134-.436-2.732-.167-4.36 1.148-5.06m-495.918 2.839c-9.408 0-19.653 10.3-19.653 19.76 0 5.756 4.163 13.245 9.166 16.49 10.313 6.686 24.84.705 27.88-11.485 1.486-5.957.708-10.188-2.943-15.945-3.088-4.87-9.562-8.82-14.45-8.82m-144.833 1.778c1.17-1.17 9.677.556 11.918 2.415 1.562 1.297 1.742 17.041.227 19.872-.62 1.16-2.116 1.946-3.744 1.972-1.494.024-4.515.73-6.716 1.567-7.775 2.958-7.498 3.003-7.498-1.244.002-4.723 4.353-23.122 5.813-24.582m142.017 6.406c2.725-.472 5.751.012 8.729 1.853 6.336 3.915 7.03 13.592 1.321 18.396-2.43 2.045-4.106 2.563-8.355 2.563-4.837 0-5.605-.316-8.428-3.53-6.88-7.836-1.44-17.865 6.733-19.282m489.613 10.811c8.473 0 12.742 9.184 7.244 15.577-1.784 2.073-3.474 2.79-7.426 3.17-4.513.434-5.42.188-7.69-2.083-2.983-2.982-3.435-8.098-1.112-12.59 1.742-3.368 3.294-4.074 8.984-4.074m48.299 5.374c1.477.488 3.386 1.978 6.505 4.728 6.297 5.55 7.088 7.97 3.198 9.742-3.384 1.542-5.303 1.432-9.257-.516-5.565-2.743-7.885-9.487-4.364-12.673 1.392-1.26 2.44-1.77 3.918-1.281M1329.32 92.55c3.024.822 5.848 3.23 7.635 6.996 1.961 4.132 1.067 7.316-2.943 10.47-4.76 3.744-12.24 2.356-14.888-2.765-2.441-4.722-1.983-8.835 1.367-12.185 2.579-2.579 5.805-3.338 8.829-2.516m-80.425 4.525c3.765 1.432 3.38 4.344-1.057 8-3.58 2.951-8.321 3.898-12.018 2.406-2.28-.92-1.346-5.077 1.722-7.659 3.66-3.08 7.82-4.09 11.353-2.747m76.425 25.485c5.09-1.471 1.467 2.953-16.5 20.148-10.312 9.867-22.511 21.647-27.116 26.184-8.87 8.74-11.9 10.314-10.614 5.503.404-1.513 1.24-7.024 1.868-12.25l1.138-9.502 5.485-.599c7.792-.848 9.479-1.55 12.884-5.429 3.495-3.981 5.364-9.893 4.5-14.212-.33-1.657-.086-3.966.538-5.133.984-1.839 2.037-2.125 7.854-2.13 6.32-.005 14.896-1.116 19.963-2.58m548.08 23.318c.114 1.092-2.216 3.894-6.888 9.42-3.883 4.591-14.054 16.784-22.596 27.097-8.543 10.312-16.224 18.747-17.075 18.747-1.277 0-1.447-.912-.947-5.245.332-2.887.91-8.975 1.284-13.53.373-4.555 1.031-8.501 1.458-8.765s3.175-.924 6.105-1.465c10.405-1.924 12.867-4.957 13.767-16.987l.565-7.502 5.202.313c2.866.175 7.969-.382 11.335-1.244 5.113-1.31 7.675-1.93 7.79-.839m74.63 6.369c7.755 2.681 9.563 13.034 3.025 17.318-1.328.87-4.27 1.576-6.533 1.576-10.71 0-13.802-13.99-4.109-18.59 3.171-1.505 4.03-1.544 7.617-.304m-583.103 1.207c.628.223 1.03 1.254.893 2.295-.138 1.041-.763 5.607-1.385 10.139l-1.13 8.24-3.617 1.004c-1.99.553-4.359 1.002-5.258 1.005-2.345.008-8.4 7.087-9.867 11.53-.687 2.08-1.535 6.05-1.877 8.82l-.62 5.042-12.792.286c-11.218.251-12.864.081-13.43-1.392-.466-1.214.85-2.943 4.747-6.23 2.965-2.502 13.895-12.785 24.29-22.849 10.397-10.064 19.417-18.113 20.046-17.89m-46.14 5.908c2.67-.322 5.468.009 7.17 1.125 6.158 4.034 5.069 14.32-1.822 17.198-4.194 1.753-4.228 1.748-8.245 0-6.39-2.78-8.01-9.996-3.499-15.567 1.185-1.464 3.726-2.434 6.396-2.756m599.495 11.696c.998-.078 1.529.559 1.94 1.632.326.847.029 4.326-.655 7.742-.685 3.415-1.596 9.305-2.023 13.088-.865 7.657-1.896 8.883-6.77 7.99-5.063-.926-11.67 2.03-14.414 6.452-1.785 2.877-2.31 5.279-2.414 10.977-.074 4.012-.388 7.557-.702 7.871s-4.535.694-9.375.848-11.723.997-15.298 1.871-7.035 1.596-7.69 1.604c-1.736.022-2.538-1.72-1.822-3.972.343-1.081 13.082-14.123 28.3-28.987 20.74-20.259 27.929-26.882 30.923-27.116m-50.723 2.286c2.89-1.07 7.474.014 10.087 2.378 4.242 3.84 3.102 12.35-1.914 14.268-6.8 2.6-9.485 2.108-13.029-2.397-4.148-5.273-1.944-11.733 4.856-14.249m-622.555 11.632c2.651-.036 5.319.838 7.107 2.626 3.283 3.283 3.385 9.411.21 12.913-3.91 4.31-11.315 4.272-14.733-.074-2.863-3.639-2.664-9.299.437-12.645 1.701-1.836 4.328-2.784 6.98-2.82m36.454 11.723c1.701 1.025 3.065 3.796 4 8.25 1.76 8.38 1.392 20.442-.81 26.71-2.206 6.274-1.312 7.776 2.824 4.718 7.738-5.72 17.909-9.504 29.329-10.903 5.557-.68 6.602.609 4.838 5.954-2.374 7.194-17.75 20.516-26.733 23.162-4.084 1.203-3.504 3.37 1.978 7.42 9.312 6.879 18.07 21.348 16.072 26.553-1.487 3.875-12.29.22-21.867-7.401-3.59-2.858-6.778-6.18-7.08-7.383-.301-1.202.37-4.193 1.486-6.654 2.424-5.346 2.591-9.887.6-16.59-2.535-8.539-8.245-12.388-18.358-12.388-4.436 0-6.524.553-9.385 2.498-2.023 1.375-4.401 2.498-5.284 2.498-1.766 0-17.616-15.239-19.335-18.59-2.332-4.549 4.031-5.865 11.654-2.406 2.376 1.078 6.776 4.064 9.776 6.627s5.611 4.483 5.804 4.267.865-3.407 1.494-7.088c1.57-9.177 7.064-20.65 12.957-27.06 2.301-2.504 4.34-3.219 6.04-2.194m691.109 1.613-7.745 7.687c-18.085 17.941-47.032 45.923-64.252 62.112-10.175 9.565-24.8 23.513-32.5 30.996s-23.456 22.582-35.006 33.558-23.697 22.726-26.997 26.11c-3.317 3.404-4.643 3.593-6.642 4.904h12.5c3.292-3.104 10.71-10.437 11.773-11.364 1.997-1.741 4.039-3.17 4.537-3.17s2.768 2.822 5.039 6.276c1.628 2.477 4.262 5.493 6.65 8.258h12.146c-1.85-1.603-3.536-2.388-5.576-4.7-8.294-9.402-11.926-14.329-11.926-16.176 0-.81 12.716-13.793 28.254-28.857 39.068-37.878 41.161-39.798 43.36-39.798 3.37 0 12.382 7.124 12.382 9.788 0 .78-1.121 2.762-2.496 4.396-1.39 1.653-2.497 4.235-2.497 5.825 0 4.027-1.396 7.228-4.874 11.19-1.942 2.211-3.186 4.894-3.508 7.566-.579 4.8-1.62 7.018-4.528 9.65-2.158 1.953-3 8.905-1.212 10.01.484.299 1.128 1.489 1.43 2.645.41 1.566-.71 3.417-4.373 7.263-4.523 4.747-4.915 4.962-4.893 2.663.013-1.375.876-4.294 1.913-6.488 2.515-5.32.676-6.52-3.617-2.36-1.743 1.69-3.598 2.81-4.118 2.489s-1.197-4.537-1.512-9.364c-.73-11.154-2.245-16.515-4.529-16.074-1.472.284-1.686 1.91-1.713 12.81-.028 11.355-.278 13.054-2.751 18.72-4.274 9.794-4.115 10.11 4.865 9.926 7.348-.15 7.669-.06 10.442 3.042 1.573 1.76 4.8 4.174 7.17 5.364.27.136.31.33.574.47h19.881c-5.195-2.033-12.646-5.669-12.646-6.48 0-.578 1.357-1.05 3.025-1.05 3.475 0 9.584-2.345 12.136-4.654 1.59-1.439 2.05-1.378 5.339.654 3.348 2.07 6.146 7.388 8.018 11.53H1947c.26-.307.436-.888.684-1.124 4.346-4.132 5.886-7.583 5.886-13.217 0-3.536.87-6.604 3.116-10.959l3.116-6.037-.893-17.52-.893-17.513-5.33-5.631c-4.03-4.261-5.208-6.173-4.82-7.834.928-3.968 6.84-21.142 8.155-23.697 2.178-4.231 2.778-12.516 1.184-16.332-2.572-6.155-9.692-8.733-13.812-5.004-1.01.913-2.079 1.415-2.37 1.124s6.686-7.67 15.499-16.406l16.027-15.88.009-4.673zm-151.156 18.83c4.054 0 5.302 11.508 2.323 21.438-1.14 3.798-1.862 7.25-1.603 7.669s2.373-.324 4.701-1.65c9.514-5.42 19.735-5.38 19.735.074 0 5.55-6.41 14.06-13.248 17.585-4.928 2.54-4.745 3.89.529 3.89 2.805 0 6.68 1.15 11.252 3.354 11.164 5.382 12.918 8.807 6.278 12.24-8.36 4.323-28.72 1.609-27.99-3.733 1.8-13.17 1.049-18.489-3.371-23.742-7.82-9.294-24.825-7.147-30.432 3.844-2.273 4.456-2.768 14.692-.893 18.35 1.646 3.21 6.979 8.644 10.077 10.268 5.434 2.846 14.326 1.14 21.485-4.13 2.103-1.548 2.28-1.463 4.865 2.443 3.22 4.866 5.369 17.895 3.836 23.272-.776 2.721-1.505 3.386-4 3.632-2.436.24-3.852-.506-7.052-3.706-2.203-2.203-5.097-6.053-6.424-8.553-2.593-4.888-3.67-5.552-4.51-2.792-1.605 5.271-5.903 12.84-9.53 16.774-4.4 4.773-7.626 5.686-9.995 2.82-1.932-2.336-1.646-14.791.456-19.696.908-2.12 1.415-4.25 1.12-4.728s-2.207-.24-4.246.535c-11.21 4.254-22.329 3.603-23.042-1.355-.435-3.023 8.609-11.942 15.817-15.595 6.424-3.255 6.265-5.08-.683-7.668-5.105-1.902-10.296-6.627-10.296-9.374 0-2.213 3.76-3.646 11.398-4.332 7.93-.71 7.626-.156 5.093-9.318-1.4-5.068-1.407-6.08-.082-9.253 1.205-2.883 2.025-3.561 4.292-3.558 3.08.004 8.344 2.83 12.446 6.682l2.642 2.489 1.24-3.835c3.84-11.869 11.255-20.34 17.812-20.34m125.371 26.305c2.513-.774 4.775-.182 5.376 2.212.72 2.87-.855 5.253-4.347 6.58-7.48 2.844-10.296 1.843-7.89-2.81 1.586-3.068 4.348-5.209 6.861-5.982m-10.797.636c1.817-1.364 1.85-1.314.629 1.06-.707 1.375-2.411 3.709-3.781 5.18-2.236 2.399-4.047 7.843-7.654 23.069-.358 1.512-.984 2.756-1.394 2.756-1.321 0-11.104-7.465-11.161-8.517-.053-.972 19.38-20.56 23.361-23.548m-73.947 1.06c5.705 0 8.5 2.34 9.22 7.714.499 3.713.214 4.544-2.487 7.244-6.128 6.129-15.733 2.979-16.874-5.53-.49-3.66-.221-4.337 2.642-6.746 2.377-2 4.28-2.682 7.499-2.682m-595.832 2.193c3.498-1.107 4.685-1.08 7.644.157 5.626 2.35 7.392 10.83 3.144 15.078-2.101 2.101-2.503 2.031-7.025-1.29-9.702-7.126-10.931-11.676-3.763-13.945m53.73 1.807c4.946 0 8.072 1.923 9.357 5.742.95 2.823.565 5.428-1.24 8.46-1.282 2.155-7.295 4.54-10.204 4.047-3.104-.526-7.28-5.832-7.28-9.245 0-1.603 1.13-4.193 2.587-5.926 2.133-2.534 3.33-3.078 6.78-3.078m486.286 7.133c1.624.003 3.285.63 5.886 1.89 8.074 3.908 9.573 14.596 2.797 19.926-3.14 2.47-10.472 2.717-14.578.489-3.446-1.87-5.758-6.27-5.758-10.95 0-4.942 1.383-7.13 5.995-9.484 2.454-1.251 4.035-1.873 5.658-1.87m-210.689 1.853c3.712 1.986 2.343 8.18-8.145 37.014-12.738 35.018-24.2 61.17-27.352 62.38-2.72 1.043-4.82.706-8.11-1.3-6.163-3.759-5.377-5.702 3.463-8.563 7.23-2.34 7.571-3.954 1.85-8.783-7.077-5.973-6.27-7.498 5.22-9.871 3.49-.72 6.579-1.932 6.87-2.691.314-.819-1.355-3.002-4.11-5.355-2.555-2.185-4.655-4.57-4.655-5.3 0-1.308 7.806-4.516 10.988-4.516.897 0 2.504-.642 3.572-1.429 1.886-1.39 1.854-1.52-1.112-4.746-7.165-7.794-6.887-9.01 2.66-11.853 7.516-2.238 8.686-4.046 4.866-7.503-3.419-3.094-6.343-8.49-5.211-9.622.555-.556 3.87-2.052 7.37-3.318 3.832-1.386 6.5-2.957 6.697-3.945.181-.903-1.075-3.246-2.797-5.207s-2.96-4.083-2.751-4.72c.51-1.555 8.141-2.035 10.687-.672m354.474 1.392c.918.518.83 1.733.62 4.129-.293 3.345-7.221 19.91-8.884 21.244-1.676 1.346-4.2 1.456-8.172.36-1.906-.526-2.575-1.451-2.816-3.917-.323-3.315 3.21-18.988 4.592-20.37.423-.422 4.015-1.068 7.99-1.437 3.822-.355 5.752-.528 6.67-.01m-344.834.129c1.43 0 1.972.843 2.223 3.484.547 5.758 5.115 6.954 7.672 2.009 1.666-3.223 6.086-4.234 7.088-1.622 1.377 3.587-11.439 43.022-22.468 69.125-3.95 9.35-7.945 18.796-8.875 20.996s-2.15 4.334-2.715 4.738c-3.05 2.18-6.195 0-5.685-3.945.217-1.683-.354-2.38-2.406-2.894-2.292-.576-3.184-.106-5.904 3.133-2.25 2.681-3.704 3.618-4.892 3.162-3.129-1.2-2.862-3.6 1.385-12.415 8.305-17.241 15.796-36.13 23.488-59.273 9.214-27.72 8.695-26.498 11.089-26.498m22.906 4.636c1.345-1.427 9.689-.869 12.437.83 2.102 1.299.532 3.748-3.827 5.972-2.19 1.117-4.29 2.526-4.665 3.133-.376.608.945 2.776 2.934 4.812 1.988 2.036 3.608 4.225 3.608 4.875 0 1.47-4.136 3.667-9.795 5.19-6.014 1.617-6.27 3.38-1.22 8.525 2.338 2.383 3.98 4.77 3.653 5.3-.328.53-3.344 1.996-6.706 3.253s-6.361 2.916-6.66 3.696c-.316.822 1.202 3.19 3.599 5.631 2.274 2.318 4.127 4.936 4.127 5.816 0 1.02-2.368 2.613-6.542 4.387-3.6 1.53-6.805 3.206-7.125 3.724s1.314 2.67 3.635 4.792c2.322 2.123 4.032 4.437 3.8 5.134s-3.904 2.311-8.155 3.595c-4.251 1.283-7.985 3.011-8.3 3.834-.34.883.71 2.82 2.56 4.728 3.803 3.923 3.981 6.36.565 7.66-3.242 1.232-12.133 1.269-12.883.055-.311-.504 1.5-5.338 4.018-10.747 7.853-16.87 12.1-27.362 16.737-41.337 2.463-7.425 5.16-15.294 5.995-17.494.836-2.2 2.732-8.5 4.219-14s3.286-10.617 3.99-11.364m-21.676 11.963c-.931.035-1.988.6-3.025 1.88-2.076 2.565-2.41 7.603-.556 8.35 2.457.992 3.66.634 5.194-1.557 2.904-4.147 1.18-8.778-1.613-8.673m321.327 15.899c3.987 0 3.994.003 3.299 3.244-.384 1.788-.897 3.588-1.14 4-.716 1.218-5.926.268-8.072-1.474-1.752-1.423-1.553-4.437.337-5.162.87-.334 3.378-.608 5.576-.608m10.27 1.031c1.185-.324 3.323.355 6.924 1.899 5.043 2.162 7.965 5.779 7.472 9.244-.381 2.675-2.138 3.124-6.324 1.595-7.322-2.676-8.988-4.212-9.311-8.6-.183-2.479.053-3.813 1.239-4.138m-337.4 3.963c-1.908 0-3.334.691-4 1.936-1.57 2.933-1.236 5.867.72 6.378 3.352.876 4.183.678 5.212-1.244.569-1.064 1.038-3.087 1.038-4.498 0-2.177-.454-2.572-2.97-2.572m322.576 11.18c.435.705-.629 2.312-2.652 4-3.837 3.204-6.115 3.545-8.054 1.208-1.154-1.39-.95-1.946 1.44-4 2.934-2.525 8.04-3.19 9.266-1.208m12.273 1.042c2.018-.206 4.259.734 7.735 2.728 9.712 5.57 13.399 12.914 9.685 19.272-1.05 1.8-2.557 3.383-3.353 3.512-.795.128-4.163-2.35-7.48-5.503-3.317-3.151-8.587-7.01-11.717-8.58l-5.695-2.858 4.392-4.396c2.615-2.615 4.414-3.97 6.432-4.175m-340.698 4.295c-3.06-1.175-6.941 6.399-4.52 8.82 1.705 1.705 4.513.47 5.777-2.534 1.517-3.61 1.17-5.355-1.257-6.286m-69.182 8.866c0 1.334-4.86 10.258-6.169 11.328-.73.597-12.837 2.255-26.896 3.687-29.522 3.005-27.935 2.925-27.935 1.539 0-1.364 5.184-8.913 7.635-11.116 1.212-1.089 5.897-2.243 13.366-3.3 12.542-1.772 39.999-3.24 39.999-2.138m387.812.618c6.556 0 6.595 5.994.046 7.06-1.884.307-3.91.86-4.501 1.226-1.552.958-2.36-.214-2.36-3.42 0-3.197 2.341-4.866 6.815-4.866m12.783 4.184c1.293.101 3.133 1.118 6.06 3.088 11.245 7.574 16.963 16.576 14.204 22.35-2.433 5.09-5.111 4.329-12.492-3.539-4.164-4.439-8.61-8.033-11.99-9.686-2.956-1.446-5.376-3.013-5.376-3.484s1.263-1.516 2.806-2.314 3.327-2.602 3.973-4.018c.766-1.683 1.522-2.498 2.815-2.397m-339.577 4.82c-2.392 0-3.05.582-4.027 3.54-.643 1.948-.919 4.193-.61 4.995.307.803 1.624 1.466 2.933 1.466 1.8 0 2.81-.957 4.146-3.917 2.074-4.6 1.478-6.083-2.442-6.083m65.483 5.761c2.923.392 16.554 4.016 27.753 7.374 10.847 3.252 11.39 3.994 8.3 11.391-.797 1.908-1.81 3.442-2.25 3.401-.441-.04-5.307-1.41-10.807-3.041s-14.015-4.062-18.924-5.401-9.356-2.872-9.885-3.401c-.616-.616-.107-2.687 1.421-5.77 1.798-3.626 2.885-4.755 4.392-4.553m257.202 5.503c5.923.667 7.07 1.935 4.191 4.617-1.722 1.605-3.554 2.12-7.58 2.12-5.977 0-6.878-1.445-3.199-5.125 1.724-1.723 2.948-2.023 6.588-1.612" style="fill:navy;fill-opacity:1" transform="matrix(.16077 0 0 .15893 -172.659 169.401)"/><g style="fill:navy"><path d="M-26.845 90.822v129.995H103.15V90.822Zm2.3 2.3H100.85v125.396H-24.546Z" style="color:#000;fill:navy;stroke-width:.811363;-inkscape-stroke:none" transform="translate(45.39 6.384)"/></g><g style="fill:navy"><g style="font-size:401.225px;font-family:NumbersDeuce;-inkscape-font-specification:NumbersDeuce;stroke-width:17.7708;fill:navy"><path d="m-211.68 803.352 20.462.802v-84.257q0-40.524 17.253-59.783 16.852-18.456 44.536-18.456t44.937 18.456q17.654 19.66 17.654 59.783v132.404q0 20.463-5.216 36.11 12.84 9.229 33.703 8.025v32.098q-28.888 2.407-47.746-14.043-16.049 16.05-43.332 16.05-28.888-.803-44.536-18.056-17.253-19.259-17.253-60.184V835.05l-20.462-.402zm49.35 5.216q31.697 7.222 55.37 39.32l9.63 13.24 1.203-25.277v-99.504q0-32.098-5.617-47.344-6.821-16.45-27.685-16.45-20.061 0-26.882 16.45-6.018 14.845-6.018 47.344zm35.308 59.381q-16.45-21.265-35.307-27.684 0 29.289 6.42 44.535 6.018 14.846 26.48 15.247 14.444 0 21.666-8.024zv-.401z" aria-label="Q" style="fill:navy" transform="translate(62.374 -128.718)scale(.22154)"/></g></g></g><path d="M3.243-4.725C1.126-7.59 0-10.5 0-10.5s-1.126 2.91-3.243 5.775C-5.361-1.862-8 0-8 0s2.639 1.861 4.757 4.726C-1.126 7.59 0 10.5 0 10.5s1.126-2.91 3.243-5.774C5.361 1.861 8 0 8 0S5.361-1.862 3.243-4.725" style="fill:navy" transform="translate(124.296 45.438)scale(3.23036)"/><g style="clip-rule:nonzero;opacity:.198728;fill:#b3b3b3;fill-opacity:1;fill-rule:nonzero;stroke:#000;stroke-miterlimit:4;filter:url(#a)" transform="translate(0 .616)"><path d="M166.837 235.548c0 3.777-3.087 6.869-6.871 6.869H7.11c-3.775 0-6.861-3.092-6.861-6.87V7.12C.25 3.343 3.336.25 7.11.25h152.856c3.784 0 6.87 3.093 6.87 6.87z" style="fill:#b3b3b3;fill-opacity:1;stroke-width:.5"/></g></svg>